999
dxfrw 0.5.11
0
SECTION
2
HEADER
9
$ACADVER
1
AC1021
9
$HANDSEED
5
20000
9
$DWGCODEPAGE
3
ANSI_1252
9
$INSBASE
10
0
20
0
30
0
9
$EXTMIN
10
-5
20
-21.25
30
0
9
$EXTMAX
10
341.25
20
159
30
0
9
$LIMMIN
10
0
20
0
9
$LIMMAX
10
420
20
297
9
$ORTHOMODE
70
0
9
$LTSCALE
40
1
9
$TEXTSTYLE
7
STANDARD
9
$CLAYER
8
dim
9
$DIMASZ
40
2.5
9
$DIMLFAC
40
1
9
$DIMSCALE
40
1
9
$DIMEXO
40
0.625
9
$DIMEXE
40
1.25
9
$DIMTXT
40
2.5
9
$DIMTSZ
40
0
9
$DIMAUNIT
70
0
9
$DIMADEC
70
0
9
$DIMLUNIT
70
2
9
$DIMSTYLE
2
Standard
9
$DIMGAP
40
0.625
9
$DIMTIH
70
0
9
$LUNITS
70
2
9
$LUPREC
70
4
9
$AUNITS
70
0
9
$AUPREC
70
2
9
$SPLINESEGS
70
8
9
$SNAPSTYLE
70
0
9
$PINSBASE
10
0
20
0
30
0
9
$PLIMMIN
10
0
20
0
9
$PLIMMAX
10
210
20
297
9
$INSUNITS
70
4
9
$PSVPSCALE
40
1
0
ENDSEC
0
SECTION
2
CLASSES
0
ENDSEC
0
SECTION
2
TABLES
0
TABLE
2
VPORT
5
8
330
0
100
AcDbSymbolTable
70
1
0
VPORT
5
31
330
2
100
AcDbSymbolTableRecord
100
AcDbViewportTableRecord
2
*ACTIVE
70
0
10
0
20
0
11
1
21
1
12
205.078125
22
131.8359375
13
0
23
0
14
10
24
10
15
10
25
10
16
0
26
0
36
1
17
0
27
0
37
0
40
354.00390625
41
1.90482758621
42
50
43
0
44
0
50
0
51
0
71
0
72
100
73
1
74
3
75
0
76
1
77
0
78
0
281
0
65
1
110
0
120
0
130
0
111
1
121
0
131
0
112
0
122
1
132
0
79
0
146
0
348
10020
60
7
61
5
292
1
282
1
141
0
142
0
63
250
421
3358443
0
ENDTAB
0
TABLE
2
LTYPE
5
5
330
0
100
AcDbSymbolTable
70
4
0
LTYPE
5
14
330
5
100
AcDbSymbolTableRecord
100
AcDbLinetypeTableRecord
2
ByBlock
70
0
3

72
65
73
0
40
0
0
LTYPE
5
15
330
5
100
AcDbSymbolTableRecord
100
AcDbLinetypeTableRecord
2
ByLayer
70
0
3

72
65
73
0
40
0
0
LTYPE
5
16
330
5
100
AcDbSymbolTableRecord
100
AcDbLinetypeTableRecord
2
Continuous
70
0
3
Solid line
72
65
73
0
40
0
0
LTYPE
5
32
330
5
100
AcDbSymbolTableRecord
100
AcDbLinetypeTableRecord
2
DOT
70
0
3
Dot . . . . . . . . . . . . . . . . . . . . . .
72
65
73
2
40
6.35
49
0
74
0
49
-6.35
74
0
0
LTYPE
5
33
330
5
100
AcDbSymbolTableRecord
100
AcDbLinetypeTableRecord
2
DOT2
70
0
3
Dot (.5x) .....................................
72
65
73
2
40
3.175
49
0
74
0
49
-3.175
74
0
0
LTYPE
5
34
330
5
100
AcDbSymbolTableRecord
100
AcDbLinetypeTableRecord
2
DOTX2
70
0
3
Dot (2x) .  .  .  .  .  .  .  .  .  .  .  .  .
72
65
73
2
40
12.7
49
0
74
0
49
-12.7
74
0
0
LTYPE
5
35
330
5
100
AcDbSymbolTableRecord
100
AcDbLinetypeTableRecord
2
DASHED
70
0
3
Dot . . . . . . . . . . . . . . . . . . . . . .
72
65
73
2
40
19.05
49
12.7
74
0
49
-6.35
74
0
0
LTYPE
5
36
330
5
100
AcDbSymbolTableRecord
100
AcDbLinetypeTableRecord
2
DASHED2
70
0
3
Dashed (.5x) _ _ _ _ _ _ _ _ _ _ _ _ _ _ _ _ _
72
65
73
2
40
9.525
49
6.35
74
0
49
-3.175
74
0
0
LTYPE
5
37
330
5
100
AcDbSymbolTableRecord
100
AcDbLinetypeTableRecord
2
DASHEDX2
70
0
3
Dashed (2x) ____  ____  ____  ____  ____  ___
72
65
73
2
40
38.1
49
25.4
74
0
49
-12.7
74
0
0
LTYPE
5
38
330
5
100
AcDbSymbolTableRecord
100
AcDbLinetypeTableRecord
2
DASHDOT
70
0
3
Dash dot __ . __ . __ . __ . __ . __ . __ . __
72
65
73
4
40
25.4
49
12.7
74
0
49
-6.35
74
0
49
0
74
0
49
-6.35
74
0
0
LTYPE
5
39
330
5
100
AcDbSymbolTableRecord
100
AcDbLinetypeTableRecord
2
DASHDOT2
70
0
3
Dash dot (.5x) _._._._._._._._._._._._._._._.
72
65
73
4
40
12.7
49
6.35
74
0
49
-3.175
74
0
49
0
74
0
49
-3.175
74
0
0
LTYPE
5
3A
330
5
100
AcDbSymbolTableRecord
100
AcDbLinetypeTableRecord
2
DASHDOTX2
70
0
3
Dash dot (2x) ____  .  ____  .  ____  .  ___
72
65
73
4
40
50.8
49
25.4
74
0
49
-12.7
74
0
49
0
74
0
49
-12.7
74
0
0
LTYPE
5
3B
330
5
100
AcDbSymbolTableRecord
100
AcDbLinetypeTableRecord
2
DIVIDE
70
0
3
Divide ____ . . ____ . . ____ . . ____ . . ____
72
65
73
6
40
31.75
49
12.7
74
0
49
-6.35
74
0
49
0
74
0
49
-6.35
74
0
49
0
74
0
49
-6.35
74
0
0
LTYPE
5
3C
330
5
100
AcDbSymbolTableRecord
100
AcDbLinetypeTableRecord
2
DIVIDE2
70
0
3
Divide (.5x) __..__..__..__..__..__..__..__.._
72
65
73
6
40
15.875
49
6.35
74
0
49
-3.175
74
0
49
0
74
0
49
-3.175
74
0
49
0
74
0
49
-3.175
74
0
0
LTYPE
5
3D
330
5
100
AcDbSymbolTableRecord
100
AcDbLinetypeTableRecord
2
DIVIDEX2
70
0
3
Divide (2x) ________  .  .  ________  .  .  _
72
65
73
6
40
63.5
49
25.4
74
0
49
-12.7
74
0
49
0
74
0
49
-12.7
74
0
49
0
74
0
49
-12.7
74
0
0
LTYPE
5
3E
330
5
100
AcDbSymbolTableRecord
100
AcDbLinetypeTableRecord
2
BORDER
70
0
3
Border __ __ . __ __ . __ __ . __ __ . __ __ .
72
65
73
6
40
44.45
49
12.7
74
0
49
-6.35
74
0
49
12.7
74
0
49
-6.35
74
0
49
0
74
0
49
-6.35
74
0
0
LTYPE
5
3F
330
5
100
AcDbSymbolTableRecord
100
AcDbLinetypeTableRecord
2
BORDER2
70
0
3
Border (.5x) __.__.__.__.__.__.__.__.__.__.__.
72
65
73
6
40
22.225
49
6.35
74
0
49
-3.175
74
0
49
6.35
74
0
49
-3.175
74
0
49
0
74
0
49
-3.175
74
0
0
LTYPE
5
40
330
5
100
AcDbSymbolTableRecord
100
AcDbLinetypeTableRecord
2
BORDERX2
70
0
3
Border (2x) ____  ____  .  ____  ____  .  ___
72
65
73
6
40
88.9
49
25.4
74
0
49
-12.7
74
0
49
25.4
74
0
49
-12.7
74
0
49
0
74
0
49
-12.7
74
0
0
LTYPE
5
41
330
5
100
AcDbSymbolTableRecord
100
AcDbLinetypeTableRecord
2
CENTER
70
0
3
Center ____ _ ____ _ ____ _ ____ _ ____ _ ____
72
65
73
4
40
50.8
49
31.75
74
0
49
-6.35
74
0
49
6.35
74
0
49
-6.35
74
0
0
LTYPE
5
42
330
5
100
AcDbSymbolTableRecord
100
AcDbLinetypeTableRecord
2
CENTER2
70
0
3
Center (.5x) ___ _ ___ _ ___ _ ___ _ ___ _ ___
72
65
73
4
40
28.575
49
19.05
74
0
49
-3.175
74
0
49
3.175
74
0
49
-3.175
74
0
0
LTYPE
5
43
330
5
100
AcDbSymbolTableRecord
100
AcDbLinetypeTableRecord
2
CENTERX2
70
0
3
Center (2x) ________  __  ________  __  _____
72
65
73
4
40
101.6
49
63.5
74
0
49
-12.7
74
0
49
12.7
74
0
49
-12.7
74
0
0
ENDTAB
0
TABLE
2
LAYER
5
2
330
0
100
AcDbSymbolTable
70
1
0
LAYER
5
10
330
2
100
AcDbSymbolTableRecord
100
AcDbLayerTableRecord
2
0
70
0
62
7
6
CONTINUOUS
370
-3
390
F
0
LAYER
5
44
330
2
100
AcDbSymbolTableRecord
100
AcDbLayerTableRecord
2
Notes
70
0
62
7
6
CONTINUOUS
370
0
390
F
0
LAYER
5
45
330
2
100
AcDbSymbolTableRecord
100
AcDbLayerTableRecord
2
cut
70
0
62
7
6
CONTINUOUS
370
0
390
F
0
LAYER
5
46
330
2
100
AcDbSymbolTableRecord
100
AcDbLayerTableRecord
2
dim
70
0
62
6
6
CONTINUOUS
370
0
390
F
0
LAYER
5
47
330
2
100
AcDbSymbolTableRecord
100
AcDbLayerTableRecord
2
top
70
0
62
7
6
CONTINUOUS
370
0
390
F
0
ENDTAB
0
TABLE
2
STYLE
5
3
330
0
100
AcDbSymbolTable
70
3
0
STYLE
5
48
330
2
100
AcDbSymbolTableRecord
100
AcDbTextStyleTableRecord
2
standard
70
0
40
0
41
1
50
0
71
0
42
1
3
standard
4

0
ENDTAB
0
TABLE
2
VIEW
5
6
330
0
100
AcDbSymbolTable
70
0
0
ENDTAB
0
TABLE
2
UCS
5
7
330
0
100
AcDbSymbolTable
70
0
0
ENDTAB
0
TABLE
2
APPID
5
9
330
0
100
AcDbSymbolTable
70
1
0
APPID
5
12
330
9
100
AcDbSymbolTableRecord
100
AcDbRegAppTableRecord
2
ACAD
70
0
0
ENDTAB
0
TABLE
2
DIMSTYLE
5
A
330
0
100
AcDbSymbolTable
70
1
100
AcDbDimStyleTable
71
1
0
DIMSTYLE
105
49
330
A
100
AcDbSymbolTableRecord
100
AcDbDimStyleTableRecord
2
Standard
70
0
40
1
41
2.5
42
0.625
43
0.38
44
1.25
45
0
46
0
47
0
48
0
140
2.5
141
0.09
142
0
143
25.4
144
1
145
0
146
1
147
0.625
148
0
71
0
72
0
73
0
74
1
75
0
76
0
77
0
78
0
79
0
170
0
171
2
172
0
173
0
174
0
175
0
176
0
177
0
178
0
179
0
271
4
272
4
273
2
274
2
275
0
276
0
277
2
278
46
279
0
280
0
281
0
282
0
283
1
284
0
285
0
286
0
288
0
289
3
340
Standard
341

371
-2
372
-2
0
ENDTAB
0
TABLE
2
BLOCK_RECORD
5
1
330
0
100
AcDbSymbolTable
70
2
0
BLOCK_RECORD
5
1F
330
1
100
AcDbSymbolTableRecord
100
AcDbBlockTableRecord
2
*Model_Space
70
0
280
1
281
0
0
BLOCK_RECORD
5
1E
330
1
100
AcDbSymbolTableRecord
100
AcDbBlockTableRecord
2
*Paper_Space
70
0
280
1
281
0
0
BLOCK_RECORD
5
4A
330
1
100
AcDbSymbolTableRecord
100
AcDbBlockTableRecord
2
*D18
70
0
280
1
281
0
0
BLOCK_RECORD
5
4D
330
1
100
AcDbSymbolTableRecord
100
AcDbBlockTableRecord
2
*D5
70
0
280
1
281
0
0
BLOCK_RECORD
5
50
330
1
100
AcDbSymbolTableRecord
100
AcDbBlockTableRecord
2
*D12
70
0
280
1
281
0
0
BLOCK_RECORD
5
53
330
1
100
AcDbSymbolTableRecord
100
AcDbBlockTableRecord
2
*D39
70
0
280
1
281
0
0
BLOCK_RECORD
5
56
330
1
100
AcDbSymbolTableRecord
100
AcDbBlockTableRecord
2
*D37
70
0
280
1
281
0
0
BLOCK_RECORD
5
59
330
1
100
AcDbSymbolTableRecord
100
AcDbBlockTableRecord
2
*D26
70
0
280
1
281
0
0
BLOCK_RECORD
5
5C
330
1
100
AcDbSymbolTableRecord
100
AcDbBlockTableRecord
2
*D42
70
0
280
1
281
0
0
BLOCK_RECORD
5
5F
330
1
100
AcDbSymbolTableRecord
100
AcDbBlockTableRecord
2
*D19
70
0
280
1
281
0
0
BLOCK_RECORD
5
62
330
1
100
AcDbSymbolTableRecord
100
AcDbBlockTableRecord
2
*D40
70
0
280
1
281
0
0
BLOCK_RECORD
5
65
330
1
100
AcDbSymbolTableRecord
100
AcDbBlockTableRecord
2
*D45
70
0
280
1
281
0
0
BLOCK_RECORD
5
68
330
1
100
AcDbSymbolTableRecord
100
AcDbBlockTableRecord
2
*D10
70
0
280
1
281
0
0
BLOCK_RECORD
5
6B
330
1
100
AcDbSymbolTableRecord
100
AcDbBlockTableRecord
2
*D3
70
0
280
1
281
0
0
BLOCK_RECORD
5
6E
330
1
100
AcDbSymbolTableRecord
100
AcDbBlockTableRecord
2
*D16
70
0
280
1
281
0
0
BLOCK_RECORD
5
71
330
1
100
AcDbSymbolTableRecord
100
AcDbBlockTableRecord
2
*D27
70
0
280
1
281
0
0
BLOCK_RECORD
5
74
330
1
100
AcDbSymbolTableRecord
100
AcDbBlockTableRecord
2
*D11
70
0
280
1
281
0
0
BLOCK_RECORD
5
77
330
1
100
AcDbSymbolTableRecord
100
AcDbBlockTableRecord
2
*D28
70
0
280
1
281
0
0
BLOCK_RECORD
5
7A
330
1
100
AcDbSymbolTableRecord
100
AcDbBlockTableRecord
2
*D24
70
0
280
1
281
0
0
BLOCK_RECORD
5
7D
330
1
100
AcDbSymbolTableRecord
100
AcDbBlockTableRecord
2
*D25
70
0
280
1
281
0
0
BLOCK_RECORD
5
80
330
1
100
AcDbSymbolTableRecord
100
AcDbBlockTableRecord
2
*D9
70
0
280
1
281
0
0
BLOCK_RECORD
5
83
330
1
100
AcDbSymbolTableRecord
100
AcDbBlockTableRecord
2
*D36
70
0
280
1
281
0
0
BLOCK_RECORD
5
86
330
1
100
AcDbSymbolTableRecord
100
AcDbBlockTableRecord
2
*D46
70
0
280
1
281
0
0
BLOCK_RECORD
5
89
330
1
100
AcDbSymbolTableRecord
100
AcDbBlockTableRecord
2
*D6
70
0
280
1
281
0
0
BLOCK_RECORD
5
8C
330
1
100
AcDbSymbolTableRecord
100
AcDbBlockTableRecord
2
*D49
70
0
280
1
281
0
0
BLOCK_RECORD
5
8F
330
1
100
AcDbSymbolTableRecord
100
AcDbBlockTableRecord
2
*D21
70
0
280
1
281
0
0
BLOCK_RECORD
5
92
330
1
100
AcDbSymbolTableRecord
100
AcDbBlockTableRecord
2
*D22
70
0
280
1
281
0
0
BLOCK_RECORD
5
95
330
1
100
AcDbSymbolTableRecord
100
AcDbBlockTableRecord
2
*D47
70
0
280
1
281
0
0
BLOCK_RECORD
5
98
330
1
100
AcDbSymbolTableRecord
100
AcDbBlockTableRecord
2
*D15
70
0
280
1
281
0
0
BLOCK_RECORD
5
9B
330
1
100
AcDbSymbolTableRecord
100
AcDbBlockTableRecord
2
*D48
70
0
280
1
281
0
0
BLOCK_RECORD
5
9E
330
1
100
AcDbSymbolTableRecord
100
AcDbBlockTableRecord
2
*D7
70
0
280
1
281
0
0
BLOCK_RECORD
5
A1
330
1
100
AcDbSymbolTableRecord
100
AcDbBlockTableRecord
2
*D13
70
0
280
1
281
0
0
BLOCK_RECORD
5
A4
330
1
100
AcDbSymbolTableRecord
100
AcDbBlockTableRecord
2
*D34
70
0
280
1
281
0
0
BLOCK_RECORD
5
A7
330
1
100
AcDbSymbolTableRecord
100
AcDbBlockTableRecord
2
*D17
70
0
280
1
281
0
0
BLOCK_RECORD
5
AA
330
1
100
AcDbSymbolTableRecord
100
AcDbBlockTableRecord
2
*D20
70
0
280
1
281
0
0
BLOCK_RECORD
5
AD
330
1
100
AcDbSymbolTableRecord
100
AcDbBlockTableRecord
2
*D4
70
0
280
1
281
0
0
BLOCK_RECORD
5
B0
330
1
100
AcDbSymbolTableRecord
100
AcDbBlockTableRecord
2
*D50
70
0
280
1
281
0
0
BLOCK_RECORD
5
B3
330
1
100
AcDbSymbolTableRecord
100
AcDbBlockTableRecord
2
*D23
70
0
280
1
281
0
0
BLOCK_RECORD
5
B6
330
1
100
AcDbSymbolTableRecord
100
AcDbBlockTableRecord
2
*D41
70
0
280
1
281
0
0
BLOCK_RECORD
5
B9
330
1
100
AcDbSymbolTableRecord
100
AcDbBlockTableRecord
2
*D8
70
0
280
1
281
0
0
BLOCK_RECORD
5
BC
330
1
100
AcDbSymbolTableRecord
100
AcDbBlockTableRecord
2
*D2
70
0
280
1
281
0
0
BLOCK_RECORD
5
BF
330
1
100
AcDbSymbolTableRecord
100
AcDbBlockTableRecord
2
*D33
70
0
280
1
281
0
0
BLOCK_RECORD
5
C2
330
1
100
AcDbSymbolTableRecord
100
AcDbBlockTableRecord
2
*D31
70
0
280
1
281
0
0
BLOCK_RECORD
5
C5
330
1
100
AcDbSymbolTableRecord
100
AcDbBlockTableRecord
2
*D1
70
0
280
1
281
0
0
BLOCK_RECORD
5
C8
330
1
100
AcDbSymbolTableRecord
100
AcDbBlockTableRecord
2
*D32
70
0
280
1
281
0
0
BLOCK_RECORD
5
CB
330
1
100
AcDbSymbolTableRecord
100
AcDbBlockTableRecord
2
*D35
70
0
280
1
281
0
0
BLOCK_RECORD
5
CE
330
1
100
AcDbSymbolTableRecord
100
AcDbBlockTableRecord
2
*D29
70
0
280
1
281
0
0
BLOCK_RECORD
5
D1
330
1
100
AcDbSymbolTableRecord
100
AcDbBlockTableRecord
2
*D43
70
0
280
1
281
0
0
BLOCK_RECORD
5
D4
330
1
100
AcDbSymbolTableRecord
100
AcDbBlockTableRecord
2
*D14
70
0
280
1
281
0
0
BLOCK_RECORD
5
D7
330
1
100
AcDbSymbolTableRecord
100
AcDbBlockTableRecord
2
*D44
70
0
280
1
281
0
0
BLOCK_RECORD
5
DA
330
1
100
AcDbSymbolTableRecord
100
AcDbBlockTableRecord
2
*D38
70
0
280
1
281
0
0
BLOCK_RECORD
5
DD
330
1
100
AcDbSymbolTableRecord
100
AcDbBlockTableRecord
2
*D30
70
0
280
1
281
0
0
BLOCK_RECORD
5
E0
330
1
100
AcDbSymbolTableRecord
100
AcDbBlockTableRecord
2
SHAPE2DVIEW
70
0
280
1
281
0
0
BLOCK_RECORD
5
E3
330
1
100
AcDbSymbolTableRecord
100
AcDbBlockTableRecord
2
SHAPE2DVIEW001
70
0
280
1
281
0
0
ENDTAB
0
ENDSEC
0
SECTION
2
BLOCKS
0
BLOCK
5
20
330
1F
100
AcDbEntity
8
0
100
AcDbBlockBegin
2
*Model_Space
70
0
10
0
20
0
30
0
3
*Model_Space
1

0
ENDBLK
5
21
330
1F
100
AcDbEntity
8
0
100
AcDbBlockEnd
0
BLOCK
5
1C
330
1B
100
AcDbEntity
8
0
100
AcDbBlockBegin
2
*Paper_Space
70
0
10
0
20
0
30
0
3
*Paper_Space
1

0
ENDBLK
5
1D
330
1F
100
AcDbEntity
8
0
100
AcDbBlockEnd
0
BLOCK
5
4B
330
4A
100
AcDbEntity
8
0
100
AcDbBlockBegin
2
*D18
70
1
10
0
20
0
3
*D18
1

0
LINE
5
E6
100
AcDbEntity
8
dim
6
CONTINUOUS
62
7
370
0
100
AcDbLine
10
69.7
20
62.008590336
11
54.1949572604
21
62.008590336
0
SOLID
5
E7
100
AcDbEntity
8
dim
6
CONTINUOUS
62
7
370
0
100
AcDbTrace
10
64.7
20
62.008590336
30
0
11
67.2
21
62.4248749938
31
0
12
67.2
22
61.5923056782
32
0
13
67.2
23
61.5923056782
33
0
0
SOLID
5
E8
100
AcDbEntity
8
dim
6
CONTINUOUS
62
7
370
0
100
AcDbTrace
10
59.1949572604
20
62.008590336
30
0
11
56.6949572604
21
61.5923056782
31
0
12
56.6949572604
22
62.4248749938
32
0
13
56.6949572604
23
62.4248749938
33
0
0
MTEXT
5
E9
100
AcDbEntity
8
dim
6
CONTINUOUS
62
7
370
0
100
AcDbMText
10
69.2138888889
20
63.883590336
30
0
40
2.5
41
7.77777777778
71
5
72
1
1
5.505
7
standard
210
0
220
0
230
1
50
360
73
2
44
1
0
LINE
5
EA
100
AcDbEntity
8
dim
6
CONTINUOUS
62
7
370
0
100
AcDbLine
10
64.7
20
75.875
11
64.7
21
60.758590336
0
LINE
5
EB
100
AcDbEntity
8
dim
6
CONTINUOUS
62
7
370
0
100
AcDbLine
10
59.1949572604
20
75.9284970839
11
59.1949572604
21
60.758590336
0
ENDBLK
5
4C
330
4A
100
AcDbEntity
8
0
100
AcDbBlockEnd
0
BLOCK
5
4E
330
4D
100
AcDbEntity
8
0
100
AcDbBlockBegin
2
*D5
70
1
10
0
20
0
3
*D5
1

0
LINE
5
EC
100
AcDbEntity
8
dim
6
CONTINUOUS
62
7
370
0
100
AcDbLine
10
69.5
20
10
11
123
21
10
0
SOLID
5
ED
100
AcDbEntity
8
dim
6
CONTINUOUS
62
7
370
0
100
AcDbTrace
10
69.5
20
10
30
0
11
72
21
10.4162846578
31
0
12
72
22
9.58371534223
32
0
13
72
23
9.58371534223
33
0
0
SOLID
5
EE
100
AcDbEntity
8
dim
6
CONTINUOUS
62
7
370
0
100
AcDbTrace
10
123
20
10
30
0
11
120.5
21
9.58371534223
31
0
12
120.5
22
10.4162846578
32
0
13
120.5
23
10.4162846578
33
0
0
MTEXT
5
EF
100
AcDbEntity
8
dim
6
CONTINUOUS
62
7
370
0
100
AcDbMText
10
96.25
20
11.875
30
0
40
2.5
41
5.83333333333
71
5
72
1
1
53.5
7
standard
210
0
220
0
230
1
50
0
73
2
44
1
0
LINE
5
F0
100
AcDbEntity
8
dim
6
CONTINUOUS
62
7
370
0
100
AcDbLine
10
69.5
20
27.375
11
69.5
21
8.75
0
LINE
5
F1
100
AcDbEntity
8
dim
6
CONTINUOUS
62
7
370
0
100
AcDbLine
10
123
20
27.375
11
123
21
8.75
0
ENDBLK
5
4F
330
4D
100
AcDbEntity
8
0
100
AcDbBlockEnd
0
BLOCK
5
51
330
50
100
AcDbEntity
8
0
100
AcDbBlockBegin
2
*D12
70
1
10
0
20
0
3
*D12
1

0
LINE
5
F2
100
AcDbEntity
8
dim
6
CONTINUOUS
62
7
370
0
100
AcDbLine
10
165.5
20
50
11
179.2
21
50
0
SOLID
5
F3
100
AcDbEntity
8
dim
6
CONTINUOUS
62
7
370
0
100
AcDbTrace
10
165.5
20
50
30
0
11
168
21
50.4162846578
31
0
12
168
22
49.5837153422
32
0
13
168
23
49.5837153422
33
0
0
SOLID
5
F4
100
AcDbEntity
8
dim
6
CONTINUOUS
62
7
370
0
100
AcDbTrace
10
179.2
20
50
30
0
11
176.7
21
49.5837153422
31
0
12
176.7
22
50.4162846578
32
0
13
176.7
23
50.4162846578
33
0
0
MTEXT
5
F5
100
AcDbEntity
8
dim
6
CONTINUOUS
62
7
370
0
100
AcDbMText
10
172.35
20
51.875
30
0
40
2.5
41
5.27777777778
71
5
72
1
1
13.7
7
standard
210
0
220
0
230
1
50
0
73
2
44
1
0
LINE
5
F6
100
AcDbEntity
8
dim
6
CONTINUOUS
62
7
370
0
100
AcDbLine
10
165.5
20
37.625
11
165.5
21
51.25
0
LINE
5
F7
100
AcDbEntity
8
dim
6
CONTINUOUS
62
7
370
0
100
AcDbLine
10
179.2
20
37.625
11
179.2
21
51.25
0
ENDBLK
5
52
330
50
100
AcDbEntity
8
0
100
AcDbBlockEnd
0
BLOCK
5
54
330
53
100
AcDbEntity
8
0
100
AcDbBlockBegin
2
*D39
70
1
10
0
20
0
3
*D39
1

0
LINE
5
F8
100
AcDbEntity
8
dim
6
CONTINUOUS
62
7
370
0
100
AcDbLine
10
8
20
37.5
11
8
21
23
0
SOLID
5
F9
100
AcDbEntity
8
dim
6
CONTINUOUS
62
7
370
0
100
AcDbTrace
10
8
20
37.5
30
0
11
8.41628465777
21
35
31
0
12
7.58371534223
22
35
32
0
13
7.58371534223
23
35
33
0
0
SOLID
5
FA
100
AcDbEntity
8
dim
6
CONTINUOUS
62
7
370
0
100
AcDbTrace
10
8
20
23
30
0
11
7.58371534223
21
25.5
31
0
12
8.41628465777
22
25.5
32
0
13
8.41628465777
23
25.5
33
0
0
MTEXT
5
FB
100
AcDbEntity
8
dim
6
CONTINUOUS
62
7
370
0
100
AcDbMText
10
6.125
20
30.25
30
0
40
2.5
41
5.55555555556
71
5
72
1
1
14.5
7
standard
210
0
220
0
230
1
50
90
73
2
44
1
0
LINE
5
FC
100
AcDbEntity
8
dim
6
CONTINUOUS
62
7
370
0
100
AcDbLine
10
16.075
20
37.5
11
6.75
21
37.5
0
LINE
5
FD
100
AcDbEntity
8
dim
6
CONTINUOUS
62
7
370
0
100
AcDbLine
10
16.375
20
23
11
6.75
21
23
0
ENDBLK
5
55
330
53
100
AcDbEntity
8
0
100
AcDbBlockEnd
0
BLOCK
5
57
330
56
100
AcDbEntity
8
0
100
AcDbBlockBegin
2
*D37
70
1
10
0
20
0
3
*D37
1

0
LINE
5
FE
100
AcDbEntity
8
dim
6
CONTINUOUS
62
7
370
0
100
AcDbLine
10
10
20
87
11
10
21
66
0
SOLID
5
FF
100
AcDbEntity
8
dim
6
CONTINUOUS
62
7
370
0
100
AcDbTrace
10
10
20
87
30
0
11
10.4162846578
21
84.5
31
0
12
9.58371534223
22
84.5
32
0
13
9.58371534223
23
84.5
33
0
0
SOLID
5
100
100
AcDbEntity
8
dim
6
CONTINUOUS
62
7
370
0
100
AcDbTrace
10
10
20
66
30
0
11
9.58371534223
21
68.5
31
0
12
10.4162846578
22
68.5
32
0
13
10.4162846578
23
68.5
33
0
0
MTEXT
5
101
100
AcDbEntity
8
dim
6
CONTINUOUS
62
7
370
0
100
AcDbMText
10
8.125
20
76.5
30
0
40
2.5
41
2.5
71
5
72
1
1
21
7
standard
210
0
220
0
230
1
50
90
73
2
44
1
0
LINE
5
102
100
AcDbEntity
8
dim
6
CONTINUOUS
62
7
370
0
100
AcDbLine
10
53.375
20
87
11
8.75
21
87
0
LINE
5
103
100
AcDbEntity
8
dim
6
CONTINUOUS
62
7
370
0
100
AcDbLine
10
53.375
20
66
11
8.75
21
66
0
ENDBLK
5
58
330
56
100
AcDbEntity
8
0
100
AcDbBlockEnd
0
BLOCK
5
5A
330
59
100
AcDbEntity
8
0
100
AcDbBlockBegin
2
*D26
70
1
10
0
20
0
3
*D26
1

0
LINE
5
104
100
AcDbEntity
8
dim
6
CONTINUOUS
62
7
370
0
100
AcDbLine
10
334.2
20
94.6
11
334.2
21
106.6
0
SOLID
5
105
100
AcDbEntity
8
dim
6
CONTINUOUS
62
7
370
0
100
AcDbTrace
10
334.2
20
99.6
30
0
11
334.616284658
21
97.1
31
0
12
333.783715342
22
97.1
32
0
13
333.783715342
23
97.1
33
0
0
SOLID
5
106
100
AcDbEntity
8
dim
6
CONTINUOUS
62
7
370
0
100
AcDbTrace
10
334.2
20
101.6
30
0
11
333.783715342
21
104.1
31
0
12
334.616284658
22
104.1
32
0
13
334.616284658
23
104.1
33
0
0
MTEXT
5
107
100
AcDbEntity
8
dim
6
CONTINUOUS
62
7
370
0
100
AcDbMText
10
332.325
20
100.6
30
0
40
2.5
41
1.11111111111
71
5
72
1
1
2
7
standard
210
0
220
0
230
1
50
90
73
2
44
1
0
LINE
5
108
100
AcDbEntity
8
dim
6
CONTINUOUS
62
7
370
0
100
AcDbLine
10
330.425
20
99.6
11
335.45
21
99.6
0
LINE
5
109
100
AcDbEntity
8
dim
6
CONTINUOUS
62
7
370
0
100
AcDbLine
10
330.325
20
101.6
11
335.45
21
101.6
0
ENDBLK
5
5B
330
59
100
AcDbEntity
8
0
100
AcDbBlockEnd
0
BLOCK
5
5D
330
5C
100
AcDbEntity
8
0
100
AcDbBlockBegin
2
*D42
70
1
10
0
20
0
3
*D42
1

0
LINE
5
10A
100
AcDbEntity
8
dim
6
CONTINUOUS
62
7
370
0
100
AcDbLine
10
69.5
20
50
11
2
21
50
0
SOLID
5
10B
100
AcDbEntity
8
dim
6
CONTINUOUS
62
7
370
0
100
AcDbTrace
10
69.5
20
50
30
0
11
67
21
49.5837153422
31
0
12
67
22
50.4162846578
32
0
13
67
23
50.4162846578
33
0
0
SOLID
5
10C
100
AcDbEntity
8
dim
6
CONTINUOUS
62
7
370
0
100
AcDbTrace
10
2
20
50
30
0
11
4.5
21
50.4162846578
31
0
12
4.5
22
49.5837153422
32
0
13
4.5
23
49.5837153422
33
0
0
MTEXT
5
10D
100
AcDbEntity
8
dim
6
CONTINUOUS
62
7
370
0
100
AcDbMText
10
35.75
20
51.875
30
0
40
2.5
41
5.83333333333
71
5
72
1
1
67.5
7
standard
210
0
220
0
230
1
50
360
73
2
44
1
0
LINE
5
10E
100
AcDbEntity
8
dim
6
CONTINUOUS
62
7
370
0
100
AcDbLine
10
69.5
20
43.625
11
69.5
21
51.25
0
LINE
5
10F
100
AcDbEntity
8
dim
6
CONTINUOUS
62
7
370
0
100
AcDbLine
10
2
20
46.625
11
2
21
51.25
0
ENDBLK
5
5E
330
5C
100
AcDbEntity
8
0
100
AcDbBlockEnd
0
BLOCK
5
60
330
5F
100
AcDbEntity
8
0
100
AcDbBlockBegin
2
*D19
70
1
10
0
20
0
3
*D19
1

0
LINE
5
110
100
AcDbEntity
8
dim
6
CONTINUOUS
62
7
370
0
100
AcDbLine
10
2
20
92.61023232
11
30.1989888
21
92.61023232
0
SOLID
5
111
100
AcDbEntity
8
dim
6
CONTINUOUS
62
7
370
0
100
AcDbTrace
10
2
20
92.61023232
30
0
11
4.5
21
93.0265169778
31
0
12
4.5
22
92.1939476622
32
0
13
4.5
23
92.1939476622
33
0
0
SOLID
5
112
100
AcDbEntity
8
dim
6
CONTINUOUS
62
7
370
0
100
AcDbTrace
10
30.1989888
20
92.61023232
30
0
11
27.6989888
21
92.1939476622
31
0
12
27.6989888
22
93.0265169778
32
0
13
27.6989888
23
93.0265169778
33
0
0
MTEXT
5
113
100
AcDbEntity
8
dim
6
CONTINUOUS
62
7
370
0
100
AcDbMText
10
16.0994944
20
94.48523232
30
0
40
2.5
41
9.16666666667
71
5
72
1
1
28.199
7
standard
210
0
220
0
230
1
50
0
73
2
44
1
0
LINE
5
114
100
AcDbEntity
8
dim
6
CONTINUOUS
62
7
370
0
100
AcDbLine
10
2
20
85.625
11
2
21
93.86023232
0
LINE
5
115
100
AcDbEntity
8
dim
6
CONTINUOUS
62
7
370
0
100
AcDbLine
10
30.1989888
20
84.80468128
11
30.1989888
21
93.86023232
0
ENDBLK
5
61
330
5F
100
AcDbEntity
8
0
100
AcDbBlockEnd
0
BLOCK
5
63
330
62
100
AcDbEntity
8
0
100
AcDbBlockBegin
2
*D40
70
1
10
0
20
0
3
*D40
1

0
LINE
5
116
100
AcDbEntity
8
dim
6
CONTINUOUS
62
7
370
0
100
AcDbLine
10
8
20
23
11
8
21
1.172395514e-15
0
SOLID
5
117
100
AcDbEntity
8
dim
6
CONTINUOUS
62
7
370
0
100
AcDbTrace
10
8
20
23
30
0
11
8.41628465777
21
20.5
31
0
12
7.58371534223
22
20.5
32
0
13
7.58371534223
23
20.5
33
0
0
SOLID
5
118
100
AcDbEntity
8
dim
6
CONTINUOUS
62
7
370
0
100
AcDbTrace
10
8
20
1.172395514e-15
30
0
11
7.58371534223
21
2.5
31
0
12
8.41628465777
22
2.5
32
0
13
8.41628465777
23
2.5
33
0
0
MTEXT
5
119
100
AcDbEntity
8
dim
6
CONTINUOUS
62
7
370
0
100
AcDbMText
10
6.125
20
11.5
30
0
40
2.5
41
3.05555555556
71
5
72
1
1
23
7
standard
210
0
220
0
230
1
50
90
73
2
44
1
0
LINE
5
11A
100
AcDbEntity
8
dim
6
CONTINUOUS
62
7
370
0
100
AcDbLine
10
30.375
20
23
11
6.75
21
23
0
LINE
5
11B
100
AcDbEntity
8
dim
6
CONTINUOUS
62
7
370
0
100
AcDbLine
10
29.375
20
7.65404249467e-17
11
6.75
21
1.3254763639e-15
0
ENDBLK
5
64
330
62
100
AcDbEntity
8
0
100
AcDbBlockEnd
0
BLOCK
5
66
330
65
100
AcDbEntity
8
0
100
AcDbBlockBegin
2
*D45
70
1
10
0
20
0
3
*D45
1

0
LINE
5
11C
100
AcDbEntity
8
dim
6
CONTINUOUS
62
7
370
0
100
AcDbLine
10
129
20
45
11
129
21
37
0
SOLID
5
11D
100
AcDbEntity
8
dim
6
CONTINUOUS
62
7
370
0
100
AcDbTrace
10
129
20
45
30
0
11
129.416284658
21
42.5
31
0
12
128.583715342
22
42.5
32
0
13
128.583715342
23
42.5
33
0
0
SOLID
5
11E
100
AcDbEntity
8
dim
6
CONTINUOUS
62
7
370
0
100
AcDbTrace
10
129
20
37
30
0
11
128.583715342
21
39.5
31
0
12
129.416284658
22
39.5
32
0
13
129.416284658
23
39.5
33
0
0
MTEXT
5
11F
100
AcDbEntity
8
dim
6
CONTINUOUS
62
7
370
0
100
AcDbMText
10
127.125
20
41
30
0
40
2.5
41
1.11111111111
71
5
72
1
1
8
7
standard
210
0
220
0
230
1
50
90
73
2
44
1
0
LINE
5
120
100
AcDbEntity
8
dim
6
CONTINUOUS
62
7
370
0
100
AcDbLine
10
124.625
20
45
11
130.25
21
45
0
LINE
5
121
100
AcDbEntity
8
dim
6
CONTINUOUS
62
7
370
0
100
AcDbLine
10
124.625
20
37
11
130.25
21
37
0
ENDBLK
5
67
330
65
100
AcDbEntity
8
0
100
AcDbBlockEnd
0
BLOCK
5
69
330
68
100
AcDbEntity
8
0
100
AcDbBlockBegin
2
*D10
70
1
10
0
20
0
3
*D10
1

0
LINE
5
122
100
AcDbEntity
8
dim
6
CONTINUOUS
62
7
370
0
100
AcDbLine
10
138.7
20
50
11
145
21
50
0
SOLID
5
123
100
AcDbEntity
8
dim
6
CONTINUOUS
62
7
370
0
100
AcDbTrace
10
138.7
20
50
30
0
11
141.2
21
50.4162846578
31
0
12
141.2
22
49.5837153422
32
0
13
141.2
23
49.5837153422
33
0
0
SOLID
5
124
100
AcDbEntity
8
dim
6
CONTINUOUS
62
7
370
0
100
AcDbTrace
10
145
20
50
30
0
11
142.5
21
49.5837153422
31
0
12
142.5
22
50.4162846578
32
0
13
142.5
23
50.4162846578
33
0
0
MTEXT
5
125
100
AcDbEntity
8
dim
6
CONTINUOUS
62
7
370
0
100
AcDbMText
10
141.85
20
51.875
30
0
40
2.5
41
3.88888888889
71
5
72
1
1
6.3
7
standard
210
0
220
0
230
1
50
0
73
2
44
1
0
LINE
5
126
100
AcDbEntity
8
dim
6
CONTINUOUS
62
7
370
0
100
AcDbLine
10
138.7
20
37.625
11
138.7
21
51.25
0
LINE
5
127
100
AcDbEntity
8
dim
6
CONTINUOUS
62
7
370
0
100
AcDbLine
10
145
20
37.625
11
145
21
51.25
0
ENDBLK
5
6A
330
68
100
AcDbEntity
8
0
100
AcDbBlockEnd
0
BLOCK
5
6C
330
6B
100
AcDbEntity
8
0
100
AcDbBlockBegin
2
*D3
70
1
10
0
20
0
3
*D3
1

0
LINE
5
128
100
AcDbEntity
8
dim
6
CONTINUOUS
62
7
370
0
100
AcDbLine
10
-5
20
-20
11
7
21
-20
0
SOLID
5
129
100
AcDbEntity
8
dim
6
CONTINUOUS
62
7
370
0
100
AcDbTrace
10
2.22044604925e-16
20
-20
30
0
11
-2.5
21
-20.4162846578
31
0
12
-2.5
22
-19.5837153422
32
0
13
-2.5
23
-19.5837153422
33
0
0
SOLID
5
12A
100
AcDbEntity
8
dim
6
CONTINUOUS
62
7
370
0
100
AcDbTrace
10
2
20
-20
30
0
11
4.5
21
-19.5837153422
31
0
12
4.5
22
-20.4162846578
32
0
13
4.5
23
-20.4162846578
33
0
0
MTEXT
5
12B
100
AcDbEntity
8
dim
6
CONTINUOUS
62
7
370
0
100
AcDbMText
10
1
20
-18.125
30
0
40
2.5
41
1.11111111111
71
5
72
1
1
2
7
standard
210
0
220
0
230
1
50
0
73
2
44
1
0
LINE
5
12C
100
AcDbEntity
8
dim
6
CONTINUOUS
62
7
370
0
100
AcDbLine
10
-1.1481063742e-16
20
-0.625
11
-7.5766699151e-18
21
-21.25
0
LINE
5
12D
100
AcDbEntity
8
dim
6
CONTINUOUS
62
7
370
0
100
AcDbLine
10
2
20
-0.625
11
2
21
-21.25
0
ENDBLK
5
6D
330
6B
100
AcDbEntity
8
0
100
AcDbBlockEnd
0
BLOCK
5
6F
330
6E
100
AcDbEntity
8
0
100
AcDbBlockBegin
2
*D16
70
1
10
0
20
0
3
*D16
1

0
LINE
5
12E
100
AcDbEntity
8
dim
6
CONTINUOUS
62
7
370
0
100
AcDbLine
10
30.1989888
20
92.56828928
11
59.18162944
21
92.56828928
0
SOLID
5
12F
100
AcDbEntity
8
dim
6
CONTINUOUS
62
7
370
0
100
AcDbTrace
10
30.1989888
20
92.56828928
30
0
11
32.6989888
21
92.9845739378
31
0
12
32.6989888
22
92.1520046222
32
0
13
32.6989888
23
92.1520046222
33
0
0
SOLID
5
130
100
AcDbEntity
8
dim
6
CONTINUOUS
62
7
370
0
100
AcDbTrace
10
59.18162944
20
92.56828928
30
0
11
56.68162944
21
92.1520046222
31
0
12
56.68162944
22
92.9845739378
32
0
13
56.68162944
23
92.9845739378
33
0
0
MTEXT
5
131
100
AcDbEntity
8
dim
6
CONTINUOUS
62
7
370
0
100
AcDbMText
10
44.69030912
20
94.44328928
30
0
40
2.5
41
11.6666666667
71
5
72
1
1
28.9826
7
standard
210
0
220
0
230
1
50
0
73
2
44
1
0
LINE
5
132
100
AcDbEntity
8
dim
6
CONTINUOUS
62
7
370
0
100
AcDbLine
10
30.1989888
20
83.71416224
11
30.1989888
21
93.81828928
0
LINE
5
133
100
AcDbEntity
8
dim
6
CONTINUOUS
62
7
370
0
100
AcDbLine
10
59.18162944
20
83.63027616
11
59.18162944
21
93.81828928
0
ENDBLK
5
70
330
6E
100
AcDbEntity
8
0
100
AcDbBlockEnd
0
BLOCK
5
72
330
71
100
AcDbEntity
8
0
100
AcDbBlockBegin
2
*D27
70
1
10
0
20
0
3
*D27
1

0
LINE
5
134
100
AcDbEntity
8
dim
6
CONTINUOUS
62
7
370
0
100
AcDbLine
10
340
20
99.6
11
340
21
-7.33191285462e-14
0
SOLID
5
135
100
AcDbEntity
8
dim
6
CONTINUOUS
62
7
370
0
100
AcDbTrace
10
340
20
99.6
30
0
11
340.416284658
21
97.1
31
0
12
339.583715342
22
97.1
32
0
13
339.583715342
23
97.1
33
0
0
SOLID
5
136
100
AcDbEntity
8
dim
6
CONTINUOUS
62
7
370
0
100
AcDbTrace
10
340
20
-7.33191285462e-14
30
0
11
339.583715342
21
2.5
31
0
12
340.416284658
22
2.5
32
0
13
340.416284658
23
2.5
33
0
0
MTEXT
5
137
100
AcDbEntity
8
dim
6
CONTINUOUS
62
7
370
0
100
AcDbMText
10
338.125
20
49.8
30
0
40
2.5
41
5.83333333333
71
5
72
1
1
99.6
7
standard
210
0
220
0
230
1
50
90
73
2
44
1
0
LINE
5
138
100
AcDbEntity
8
dim
6
CONTINUOUS
62
7
370
0
100
AcDbLine
10
330.825
20
99.6
11
341.25
21
99.6
0
LINE
5
139
100
AcDbEntity
8
dim
6
CONTINUOUS
62
7
370
0
100
AcDbLine
10
330.825
20
-7.33191285462e-14
11
341.25
21
-7.33191285462e-14
0
ENDBLK
5
73
330
71
100
AcDbEntity
8
0
100
AcDbBlockEnd
0
BLOCK
5
75
330
74
100
AcDbEntity
8
0
100
AcDbBlockBegin
2
*D11
70
1
10
0
20
0
3
*D11
1

0
LINE
5
13A
100
AcDbEntity
8
dim
6
CONTINUOUS
62
7
370
0
100
AcDbLine
10
158.7
20
50
11
165.5
21
50
0
SOLID
5
13B
100
AcDbEntity
8
dim
6
CONTINUOUS
62
7
370
0
100
AcDbTrace
10
158.7
20
50
30
0
11
161.2
21
50.4162846578
31
0
12
161.2
22
49.5837153422
32
0
13
161.2
23
49.5837153422
33
0
0
SOLID
5
13C
100
AcDbEntity
8
dim
6
CONTINUOUS
62
7
370
0
100
AcDbTrace
10
165.5
20
50
30
0
11
163
21
49.5837153422
31
0
12
163
22
50.4162846578
32
0
13
163
23
50.4162846578
33
0
0
MTEXT
5
13D
100
AcDbEntity
8
dim
6
CONTINUOUS
62
7
370
0
100
AcDbMText
10
162.1
20
51.875
30
0
40
2.5
41
3.88888888889
71
5
72
1
1
6.8
7
standard
210
0
220
0
230
1
50
0
73
2
44
1
0
LINE
5
13E
100
AcDbEntity
8
dim
6
CONTINUOUS
62
7
370
0
100
AcDbLine
10
158.7
20
37.625
11
158.7
21
51.25
0
LINE
5
13F
100
AcDbEntity
8
dim
6
CONTINUOUS
62
7
370
0
100
AcDbLine
10
165.5
20
37.625
11
165.5
21
51.25
0
ENDBLK
5
76
330
74
100
AcDbEntity
8
0
100
AcDbBlockEnd
0
BLOCK
5
78
330
77
100
AcDbEntity
8
0
100
AcDbBlockBegin
2
*D28
70
1
10
0
20
0
3
*D28
1

0
LINE
5
140
100
AcDbEntity
8
dim
6
CONTINUOUS
62
7
370
0
100
AcDbLine
10
220
20
50.8
11
220
21
0
0
SOLID
5
141
100
AcDbEntity
8
dim
6
CONTINUOUS
62
7
370
0
100
AcDbTrace
10
220
20
50.8
30
0
11
220.416284658
21
48.3
31
0
12
219.583715342
22
48.3
32
0
13
219.583715342
23
48.3
33
0
0
SOLID
5
142
100
AcDbEntity
8
dim
6
CONTINUOUS
62
7
370
0
100
AcDbTrace
10
220
20
0
30
0
11
219.583715342
21
2.5
31
0
12
220.416284658
22
2.5
32
0
13
220.416284658
23
2.5
33
0
0
MTEXT
5
143
100
AcDbEntity
8
dim
6
CONTINUOUS
62
7
370
0
100
AcDbMText
10
218.125
20
25.4
30
0
40
2.5
41
5.83333333333
71
5
72
1
1
50.8
7
standard
210
0
220
0
230
1
50
90
73
2
44
1
0
LINE
5
144
100
AcDbEntity
8
dim
6
CONTINUOUS
62
7
370
0
100
AcDbLine
10
273.375
20
50.8
11
218.75
21
50.8
0
LINE
5
145
100
AcDbEntity
8
dim
6
CONTINUOUS
62
7
370
0
100
AcDbLine
10
269.375
20
7.65404249467e-17
11
218.75
21
1.53080849893e-16
0
ENDBLK
5
79
330
77
100
AcDbEntity
8
0
100
AcDbBlockEnd
0
BLOCK
5
7B
330
7A
100
AcDbEntity
8
0
100
AcDbBlockBegin
2
*D24
70
1
10
0
20
0
3
*D24
1

0
LINE
5
146
100
AcDbEntity
8
dim
6
CONTINUOUS
62
7
370
0
100
AcDbLine
10
274
20
10
11
238.5
21
10
0
SOLID
5
147
100
AcDbEntity
8
dim
6
CONTINUOUS
62
7
370
0
100
AcDbTrace
10
274
20
10
30
0
11
271.5
21
9.58371534223
31
0
12
271.5
22
10.4162846578
32
0
13
271.5
23
10.4162846578
33
0
0
SOLID
5
148
100
AcDbEntity
8
dim
6
CONTINUOUS
62
7
370
0
100
AcDbTrace
10
238.5
20
10
30
0
11
241
21
10.4162846578
31
0
12
241
22
9.58371534223
32
0
13
241
23
9.58371534223
33
0
0
MTEXT
5
149
100
AcDbEntity
8
dim
6
CONTINUOUS
62
7
370
0
100
AcDbMText
10
256.25
20
11.875
30
0
40
2.5
41
5.83333333333
71
5
72
1
1
35.5
7
standard
210
0
220
0
230
1
50
360
73
2
44
1
0
LINE
5
14A
100
AcDbEntity
8
dim
6
CONTINUOUS
62
7
370
0
100
AcDbLine
10
274
20
50.175
11
274
21
8.75
0
LINE
5
14B
100
AcDbEntity
8
dim
6
CONTINUOUS
62
7
370
0
100
AcDbLine
10
238.5
20
14.375
11
238.5
21
8.75
0
ENDBLK
5
7C
330
7A
100
AcDbEntity
8
0
100
AcDbBlockEnd
0
BLOCK
5
7E
330
7D
100
AcDbEntity
8
0
100
AcDbBlockBegin
2
*D25
70
1
10
0
20
0
3
*D25
1

0
LINE
5
14C
100
AcDbEntity
8
dim
6
CONTINUOUS
62
7
370
0
100
AcDbLine
10
274
20
10
11
309.9
21
10
0
SOLID
5
14D
100
AcDbEntity
8
dim
6
CONTINUOUS
62
7
370
0
100
AcDbTrace
10
274
20
10
30
0
11
276.5
21
10.4162846578
31
0
12
276.5
22
9.58371534223
32
0
13
276.5
23
9.58371534223
33
0
0
SOLID
5
14E
100
AcDbEntity
8
dim
6
CONTINUOUS
62
7
370
0
100
AcDbTrace
10
309.9
20
10
30
0
11
307.4
21
9.58371534223
31
0
12
307.4
22
10.4162846578
32
0
13
307.4
23
10.4162846578
33
0
0
MTEXT
5
14F
100
AcDbEntity
8
dim
6
CONTINUOUS
62
7
370
0
100
AcDbMText
10
291.95
20
11.875
30
0
40
2.5
41
5.83333333333
71
5
72
1
1
35.9
7
standard
210
0
220
0
230
1
50
0
73
2
44
1
0
LINE
5
150
100
AcDbEntity
8
dim
6
CONTINUOUS
62
7
370
0
100
AcDbLine
10
274
20
50.175
11
274
21
8.75
0
LINE
5
151
100
AcDbEntity
8
dim
6
CONTINUOUS
62
7
370
0
100
AcDbLine
10
309.9
20
14.375
11
309.9
21
8.75
0
ENDBLK
5
7F
330
7D
100
AcDbEntity
8
0
100
AcDbBlockEnd
0
BLOCK
5
81
330
80
100
AcDbEntity
8
0
100
AcDbBlockBegin
2
*D9
70
1
10
0
20
0
3
*D9
1

0
LINE
5
152
100
AcDbEntity
8
dim
6
CONTINUOUS
62
7
370
0
100
AcDbLine
10
145
20
50
11
158.7
21
50
0
SOLID
5
153
100
AcDbEntity
8
dim
6
CONTINUOUS
62
7
370
0
100
AcDbTrace
10
145
20
50
30
0
11
147.5
21
50.4162846578
31
0
12
147.5
22
49.5837153422
32
0
13
147.5
23
49.5837153422
33
0
0
SOLID
5
154
100
AcDbEntity
8
dim
6
CONTINUOUS
62
7
370
0
100
AcDbTrace
10
158.7
20
50
30
0
11
156.2
21
49.5837153422
31
0
12
156.2
22
50.4162846578
32
0
13
156.2
23
50.4162846578
33
0
0
MTEXT
5
155
100
AcDbEntity
8
dim
6
CONTINUOUS
62
7
370
0
100
AcDbMText
10
151.85
20
51.875
30
0
40
2.5
41
5.27777777778
71
5
72
1
1
13.7
7
standard
210
0
220
0
230
1
50
0
73
2
44
1
0
LINE
5
156
100
AcDbEntity
8
dim
6
CONTINUOUS
62
7
370
0
100
AcDbLine
10
145
20
37.625
11
145
21
51.25
0
LINE
5
157
100
AcDbEntity
8
dim
6
CONTINUOUS
62
7
370
0
100
AcDbLine
10
158.7
20
37.625
11
158.7
21
51.25
0
ENDBLK
5
82
330
80
100
AcDbEntity
8
0
100
AcDbBlockEnd
0
BLOCK
5
84
330
83
100
AcDbEntity
8
0
100
AcDbBlockBegin
2
*D36
70
1
10
0
20
0
3
*D36
1

0
LINE
5
158
100
AcDbEntity
8
dim
6
CONTINUOUS
62
7
370
0
100
AcDbLine
10
70
20
76.5
11
70
21
99.6
0
SOLID
5
159
100
AcDbEntity
8
dim
6
CONTINUOUS
62
7
370
0
100
AcDbTrace
10
70
20
76.5
30
0
11
69.5837153422
21
79
31
0
12
70.4162846578
22
79
32
0
13
70.4162846578
23
79
33
0
0
SOLID
5
15A
100
AcDbEntity
8
dim
6
CONTINUOUS
62
7
370
0
100
AcDbTrace
10
70
20
99.6
30
0
11
70.4162846578
21
97.1
31
0
12
69.5837153422
22
97.1
32
0
13
69.5837153422
23
97.1
33
0
0
MTEXT
5
15B
100
AcDbEntity
8
dim
6
CONTINUOUS
62
7
370
0
100
AcDbMText
10
68.125
20
88.05
30
0
40
2.5
41
5.27777777778
71
5
72
1
1
23.1
7
standard
210
0
220
0
230
1
50
90
73
2
44
1
0
LINE
5
15C
100
AcDbEntity
8
dim
6
CONTINUOUS
62
7
370
0
100
AcDbLine
10
65.325
20
76.5
11
71.25
21
76.5
0
LINE
5
15D
100
AcDbEntity
8
dim
6
CONTINUOUS
62
7
370
0
100
AcDbLine
10
73.025
20
99.6
11
71.25
21
99.6
0
ENDBLK
5
85
330
83
100
AcDbEntity
8
0
100
AcDbBlockEnd
0
BLOCK
5
87
330
86
100
AcDbEntity
8
0
100
AcDbBlockBegin
2
*D46
70
1
10
0
20
0
3
*D46
1

0
LINE
5
15E
100
AcDbEntity
8
dim
6
CONTINUOUS
62
7
370
0
100
AcDbLine
10
130
20
37
11
130
21
22
0
SOLID
5
15F
100
AcDbEntity
8
dim
6
CONTINUOUS
62
7
370
0
100
AcDbTrace
10
130
20
37
30
0
11
130.416284658
21
34.5
31
0
12
129.583715342
22
34.5
32
0
13
129.583715342
23
34.5
33
0
0
SOLID
5
160
100
AcDbEntity
8
dim
6
CONTINUOUS
62
7
370
0
100
AcDbTrace
10
130
20
22
30
0
11
129.583715342
21
24.5
31
0
12
130.416284658
22
24.5
32
0
13
130.416284658
23
24.5
33
0
0
MTEXT
5
161
100
AcDbEntity
8
dim
6
CONTINUOUS
62
7
370
0
100
AcDbMText
10
128.125
20
29.5
30
0
40
2.5
41
2.5
71
5
72
1
1
15
7
standard
210
0
220
0
230
1
50
90
73
2
44
1
0
LINE
5
162
100
AcDbEntity
8
dim
6
CONTINUOUS
62
7
370
0
100
AcDbLine
10
138.075
20
37
11
128.75
21
37
0
LINE
5
163
100
AcDbEntity
8
dim
6
CONTINUOUS
62
7
370
0
100
AcDbLine
10
138.075
20
22
11
128.75
21
22
0
ENDBLK
5
88
330
86
100
AcDbEntity
8
0
100
AcDbBlockEnd
0
BLOCK
5
8A
330
89
100
AcDbEntity
8
0
100
AcDbBlockBegin
2
*D6
70
1
10
0
20
0
3
*D6
1

0
LINE
5
164
100
AcDbEntity
8
dim
6
CONTINUOUS
62
7
370
0
100
AcDbLine
10
69.5
20
50
11
124
21
50
0
SOLID
5
165
100
AcDbEntity
8
dim
6
CONTINUOUS
62
7
370
0
100
AcDbTrace
10
69.5
20
50
30
0
11
72
21
50.4162846578
31
0
12
72
22
49.5837153422
32
0
13
72
23
49.5837153422
33
0
0
SOLID
5
166
100
AcDbEntity
8
dim
6
CONTINUOUS
62
7
370
0
100
AcDbTrace
10
124
20
50
30
0
11
121.5
21
49.5837153422
31
0
12
121.5
22
50.4162846578
32
0
13
121.5
23
50.4162846578
33
0
0
MTEXT
5
167
100
AcDbEntity
8
dim
6
CONTINUOUS
62
7
370
0
100
AcDbMText
10
96.75
20
51.875
30
0
40
2.5
41
6.11111111111
71
5
72
1
1
54.5
7
standard
210
0
220
0
230
1
50
0
73
2
44
1
0
LINE
5
168
100
AcDbEntity
8
dim
6
CONTINUOUS
62
7
370
0
100
AcDbLine
10
69.5
20
45.625
11
69.5
21
51.25
0
LINE
5
169
100
AcDbEntity
8
dim
6
CONTINUOUS
62
7
370
0
100
AcDbLine
10
124
20
45.625
11
124
21
51.25
0
ENDBLK
5
8B
330
89
100
AcDbEntity
8
0
100
AcDbBlockEnd
0
BLOCK
5
8D
330
8C
100
AcDbEntity
8
0
100
AcDbBlockBegin
2
*D49
70
1
10
0
20
0
3
*D49
1

0
LINE
5
16A
100
AcDbEntity
8
dim
6
CONTINUOUS
62
7
370
0
100
AcDbLine
10
230
20
15
11
230
21
0
0
SOLID
5
16B
100
AcDbEntity
8
dim
6
CONTINUOUS
62
7
370
0
100
AcDbTrace
10
230
20
15
30
0
11
230.416284658
21
12.5
31
0
12
229.583715342
22
12.5
32
0
13
229.583715342
23
12.5
33
0
0
SOLID
5
16C
100
AcDbEntity
8
dim
6
CONTINUOUS
62
7
370
0
100
AcDbTrace
10
230
20
0
30
0
11
229.583715342
21
2.5
31
0
12
230.416284658
22
2.5
32
0
13
230.416284658
23
2.5
33
0
0
MTEXT
5
16D
100
AcDbEntity
8
dim
6
CONTINUOUS
62
7
370
0
100
AcDbMText
10
228.125
20
7.5
30
0
40
2.5
41
2.5
71
5
72
1
1
15
7
standard
210
0
220
0
230
1
50
90
73
2
44
1
0
LINE
5
16E
100
AcDbEntity
8
dim
6
CONTINUOUS
62
7
370
0
100
AcDbLine
10
237.875
20
15
11
228.75
21
15
0
LINE
5
16F
100
AcDbEntity
8
dim
6
CONTINUOUS
62
7
370
0
100
AcDbLine
10
239.375
20
7.65404249467e-17
11
228.75
21
1.53080849893e-16
0
ENDBLK
5
8E
330
8C
100
AcDbEntity
8
0
100
AcDbBlockEnd
0
BLOCK
5
90
330
8F
100
AcDbEntity
8
0
100
AcDbBlockBegin
2
*D21
70
1
10
0
20
0
3
*D21
1

0
LINE
5
170
100
AcDbEntity
8
dim
6
CONTINUOUS
62
7
370
0
100
AcDbLine
10
274
20
42
11
328
21
42
0
SOLID
5
171
100
AcDbEntity
8
dim
6
CONTINUOUS
62
7
370
0
100
AcDbTrace
10
274
20
42
30
0
11
276.5
21
42.4162846578
31
0
12
276.5
22
41.5837153422
32
0
13
276.5
23
41.5837153422
33
0
0
SOLID
5
172
100
AcDbEntity
8
dim
6
CONTINUOUS
62
7
370
0
100
AcDbTrace
10
328
20
42
30
0
11
325.5
21
41.5837153422
31
0
12
325.5
22
42.4162846578
32
0
13
325.5
23
42.4162846578
33
0
0
MTEXT
5
173
100
AcDbEntity
8
dim
6
CONTINUOUS
62
7
370
0
100
AcDbMText
10
301
20
43.875
30
0
40
2.5
41
3.33333333333
71
5
72
1
1
54
7
standard
210
0
220
0
230
1
50
0
73
2
44
1
0
LINE
5
174
100
AcDbEntity
8
dim
6
CONTINUOUS
62
7
370
0
100
AcDbLine
10
274
20
50.175
11
274
21
40.75
0
LINE
5
175
100
AcDbEntity
8
dim
6
CONTINUOUS
62
7
370
0
100
AcDbLine
10
328
20
50.375
11
328
21
40.75
0
ENDBLK
5
91
330
8F
100
AcDbEntity
8
0
100
AcDbBlockEnd
0
BLOCK
5
93
330
92
100
AcDbEntity
8
0
100
AcDbBlockBegin
2
*D22
70
1
10
0
20
0
3
*D22
1

0
LINE
5
176
100
AcDbEntity
8
dim
6
CONTINUOUS
62
7
370
0
100
AcDbLine
10
274
20
90
11
309.9
21
90
0
SOLID
5
177
100
AcDbEntity
8
dim
6
CONTINUOUS
62
7
370
0
100
AcDbTrace
10
274
20
90
30
0
11
276.5
21
90.4162846578
31
0
12
276.5
22
89.5837153422
32
0
13
276.5
23
89.5837153422
33
0
0
SOLID
5
178
100
AcDbEntity
8
dim
6
CONTINUOUS
62
7
370
0
100
AcDbTrace
10
309.9
20
90
30
0
11
307.4
21
89.5837153422
31
0
12
307.4
22
90.4162846578
32
0
13
307.4
23
90.4162846578
33
0
0
MTEXT
5
179
100
AcDbEntity
8
dim
6
CONTINUOUS
62
7
370
0
100
AcDbMText
10
291.95
20
91.875
30
0
40
2.5
41
5.83333333333
71
5
72
1
1
35.9
7
standard
210
0
220
0
230
1
50
0
73
2
44
1
0
LINE
5
17A
100
AcDbEntity
8
dim
6
CONTINUOUS
62
7
370
0
100
AcDbLine
10
274
20
51.425
11
274
21
91.25
0
LINE
5
17B
100
AcDbEntity
8
dim
6
CONTINUOUS
62
7
370
0
100
AcDbLine
10
309.9
20
87.325
11
309.9
21
91.25
0
ENDBLK
5
94
330
92
100
AcDbEntity
8
0
100
AcDbBlockEnd
0
BLOCK
5
96
330
95
100
AcDbEntity
8
0
100
AcDbBlockBegin
2
*D47
70
1
10
0
20
0
3
*D47
1

0
LINE
5
17C
100
AcDbEntity
8
dim
6
CONTINUOUS
62
7
370
0
100
AcDbLine
10
190
20
37
11
190
21
22
0
SOLID
5
17D
100
AcDbEntity
8
dim
6
CONTINUOUS
62
7
370
0
100
AcDbTrace
10
190
20
37
30
0
11
190.416284658
21
34.5
31
0
12
189.583715342
22
34.5
32
0
13
189.583715342
23
34.5
33
0
0
SOLID
5
17E
100
AcDbEntity
8
dim
6
CONTINUOUS
62
7
370
0
100
AcDbTrace
10
190
20
22
30
0
11
189.583715342
21
24.5
31
0
12
190.416284658
22
24.5
32
0
13
190.416284658
23
24.5
33
0
0
MTEXT
5
17F
100
AcDbEntity
8
dim
6
CONTINUOUS
62
7
370
0
100
AcDbMText
10
188.125
20
29.5
30
0
40
2.5
41
2.5
71
5
72
1
1
15
7
standard
210
0
220
0
230
1
50
90
73
2
44
1
0
LINE
5
180
100
AcDbEntity
8
dim
6
CONTINUOUS
62
7
370
0
100
AcDbLine
10
186.625
20
37
11
191.25
21
37
0
LINE
5
181
100
AcDbEntity
8
dim
6
CONTINUOUS
62
7
370
0
100
AcDbLine
10
186.625
20
22
11
191.25
21
22
0
ENDBLK
5
97
330
95
100
AcDbEntity
8
0
100
AcDbBlockEnd
0
BLOCK
5
99
330
98
100
AcDbEntity
8
0
100
AcDbBlockBegin
2
*D15
70
1
10
0
20
0
3
*D15
1

0
LINE
5
182
100
AcDbEntity
8
dim
6
CONTINUOUS
62
7
370
0
100
AcDbLine
10
170
20
90
11
187.8
21
90
0
SOLID
5
183
100
AcDbEntity
8
dim
6
CONTINUOUS
62
7
370
0
100
AcDbTrace
10
170
20
90
30
0
11
172.5
21
90.4162846578
31
0
12
172.5
22
89.5837153422
32
0
13
172.5
23
89.5837153422
33
0
0
SOLID
5
184
100
AcDbEntity
8
dim
6
CONTINUOUS
62
7
370
0
100
AcDbTrace
10
187.8
20
90
30
0
11
185.3
21
89.5837153422
31
0
12
185.3
22
90.4162846578
32
0
13
185.3
23
90.4162846578
33
0
0
MTEXT
5
185
100
AcDbEntity
8
dim
6
CONTINUOUS
62
7
370
0
100
AcDbMText
10
178.9
20
91.875
30
0
40
2.5
41
5.27777777778
71
5
72
1
1
17.8
7
standard
210
0
220
0
230
1
50
0
73
2
44
1
0
LINE
5
186
100
AcDbEntity
8
dim
6
CONTINUOUS
62
7
370
0
100
AcDbLine
10
170
20
78.225
11
170
21
91.25
0
LINE
5
187
100
AcDbEntity
8
dim
6
CONTINUOUS
62
7
370
0
100
AcDbLine
10
187.8
20
78.225
11
187.8
21
91.25
0
ENDBLK
5
9A
330
98
100
AcDbEntity
8
0
100
AcDbBlockEnd
0
BLOCK
5
9C
330
9B
100
AcDbEntity
8
0
100
AcDbBlockBegin
2
*D48
70
1
10
0
20
0
3
*D48
1

0
LINE
5
188
100
AcDbEntity
8
dim
6
CONTINUOUS
62
7
370
0
100
AcDbLine
10
150
20
77.6
11
150
21
70
0
SOLID
5
189
100
AcDbEntity
8
dim
6
CONTINUOUS
62
7
370
0
100
AcDbTrace
10
150
20
77.6
30
0
11
150.416284658
21
75.1
31
0
12
149.583715342
22
75.1
32
0
13
149.583715342
23
75.1
33
0
0
SOLID
5
18A
100
AcDbEntity
8
dim
6
CONTINUOUS
62
7
370
0
100
AcDbTrace
10
150
20
70
30
0
11
149.583715342
21
72.5
31
0
12
150.416284658
22
72.5
32
0
13
150.416284658
23
72.5
33
0
0
MTEXT
5
18B
100
AcDbEntity
8
dim
6
CONTINUOUS
62
7
370
0
100
AcDbMText
10
148.125
20
73.8
30
0
40
2.5
41
3.88888888889
71
5
72
1
1
7.6
7
standard
210
0
220
0
230
1
50
90
73
2
44
1
0
LINE
5
18C
100
AcDbEntity
8
dim
6
CONTINUOUS
62
7
370
0
100
AcDbLine
10
169.375
20
77.6
11
148.75
21
77.6
0
LINE
5
18D
100
AcDbEntity
8
dim
6
CONTINUOUS
62
7
370
0
100
AcDbLine
10
169.375
20
70
11
148.75
21
70
0
ENDBLK
5
9D
330
9B
100
AcDbEntity
8
0
100
AcDbBlockEnd
0
BLOCK
5
9F
330
9E
100
AcDbEntity
8
0
100
AcDbBlockBegin
2
*D7
70
1
10
0
20
0
3
*D7
1

0
LINE
5
18E
100
AcDbEntity
8
dim
6
CONTINUOUS
62
7
370
0
100
AcDbLine
10
123
20
10
11
138.7
21
10
0
SOLID
5
18F
100
AcDbEntity
8
dim
6
CONTINUOUS
62
7
370
0
100
AcDbTrace
10
123
20
10
30
0
11
125.5
21
10.4162846578
31
0
12
125.5
22
9.58371534223
32
0
13
125.5
23
9.58371534223
33
0
0
SOLID
5
190
100
AcDbEntity
8
dim
6
CONTINUOUS
62
7
370
0
100
AcDbTrace
10
138.7
20
10
30
0
11
136.2
21
9.58371534223
31
0
12
136.2
22
10.4162846578
32
0
13
136.2
23
10.4162846578
33
0
0
MTEXT
5
191
100
AcDbEntity
8
dim
6
CONTINUOUS
62
7
370
0
100
AcDbMText
10
130.85
20
11.875
30
0
40
2.5
41
5.27777777778
71
5
72
1
1
15.7
7
standard
210
0
220
0
230
1
50
0
73
2
44
1
0
LINE
5
192
100
AcDbEntity
8
dim
6
CONTINUOUS
62
7
370
0
100
AcDbLine
10
123
20
21.375
11
123
21
8.75
0
LINE
5
193
100
AcDbEntity
8
dim
6
CONTINUOUS
62
7
370
0
100
AcDbLine
10
138.7
20
21.375
11
138.7
21
8.75
0
ENDBLK
5
A0
330
9E
100
AcDbEntity
8
0
100
AcDbBlockEnd
0
BLOCK
5
A2
330
A1
100
AcDbEntity
8
0
100
AcDbBlockBegin
2
*D13
70
1
10
0
20
0
3
*D13
1

0
LINE
5
194
100
AcDbEntity
8
dim
6
CONTINUOUS
62
7
370
0
100
AcDbLine
10
179.2
20
50
11
186
21
50
0
SOLID
5
195
100
AcDbEntity
8
dim
6
CONTINUOUS
62
7
370
0
100
AcDbTrace
10
179.2
20
50
30
0
11
181.7
21
50.4162846578
31
0
12
181.7
22
49.5837153422
32
0
13
181.7
23
49.5837153422
33
0
0
SOLID
5
196
100
AcDbEntity
8
dim
6
CONTINUOUS
62
7
370
0
100
AcDbTrace
10
186
20
50
30
0
11
183.5
21
49.5837153422
31
0
12
183.5
22
50.4162846578
32
0
13
183.5
23
50.4162846578
33
0
0
MTEXT
5
197
100
AcDbEntity
8
dim
6
CONTINUOUS
62
7
370
0
100
AcDbMText
10
182.6
20
51.875
30
0
40
2.5
41
3.88888888889
71
5
72
1
1
6.8
7
standard
210
0
220
0
230
1
50
0
73
2
44
1
0
LINE
5
198
100
AcDbEntity
8
dim
6
CONTINUOUS
62
7
370
0
100
AcDbLine
10
179.2
20
37.625
11
179.2
21
51.25
0
LINE
5
199
100
AcDbEntity
8
dim
6
CONTINUOUS
62
7
370
0
100
AcDbLine
10
186
20
37.625
11
186
21
51.25
0
ENDBLK
5
A3
330
A1
100
AcDbEntity
8
0
100
AcDbBlockEnd
0
BLOCK
5
A5
330
A4
100
AcDbEntity
8
0
100
AcDbBlockBegin
2
*D34
70
1
10
0
20
0
3
*D34
1

0
LINE
5
19A
100
AcDbEntity
8
dim
6
CONTINUOUS
62
7
370
0
100
AcDbLine
10
197.7
20
60
11
182.8
21
60
0
SOLID
5
19B
100
AcDbEntity
8
dim
6
CONTINUOUS
62
7
370
0
100
AcDbTrace
10
192.7
20
60
30
0
11
195.2
21
60.4162846578
31
0
12
195.2
22
59.5837153422
32
0
13
195.2
23
59.5837153422
33
0
0
SOLID
5
19C
100
AcDbEntity
8
dim
6
CONTINUOUS
62
7
370
0
100
AcDbTrace
10
187.8
20
60
30
0
11
185.3
21
59.5837153422
31
0
12
185.3
22
60.4162846578
32
0
13
185.3
23
60.4162846578
33
0
0
MTEXT
5
19D
100
AcDbEntity
8
dim
6
CONTINUOUS
62
7
370
0
100
AcDbMText
10
190.25
20
61.875
30
0
40
2.5
41
4.16666666667
71
5
72
1
1
4.9
7
standard
210
0
220
0
230
1
50
360
73
2
44
1
0
LINE
5
19E
100
AcDbEntity
8
dim
6
CONTINUOUS
62
7
370
0
100
AcDbLine
10
192.7
20
73.175
11
192.7
21
58.75
0
LINE
5
19F
100
AcDbEntity
8
dim
6
CONTINUOUS
62
7
370
0
100
AcDbLine
10
187.8
20
76.975
11
187.8
21
58.75
0
ENDBLK
5
A6
330
A4
100
AcDbEntity
8
0
100
AcDbBlockEnd
0
BLOCK
5
A8
330
A7
100
AcDbEntity
8
0
100
AcDbBlockBegin
2
*D17
70
1
10
0
20
0
3
*D17
1

0
LINE
5
1A0
100
AcDbEntity
8
dim
6
CONTINUOUS
62
7
370
0
100
AcDbLine
10
19.7
20
62.03375616
11
35.1989888
21
62.03375616
0
SOLID
5
1A1
100
AcDbEntity
8
dim
6
CONTINUOUS
62
7
370
0
100
AcDbTrace
10
24.7
20
62.03375616
30
0
11
22.2
21
61.6174715022
31
0
12
22.2
22
62.4500408178
32
0
13
22.2
23
62.4500408178
33
0
0
SOLID
5
1A2
100
AcDbEntity
8
dim
6
CONTINUOUS
62
7
370
0
100
AcDbTrace
10
30.1989888
20
62.03375616
30
0
11
32.6989888
21
62.4500408178
31
0
12
32.6989888
22
61.6174715022
32
0
13
32.6989888
23
61.6174715022
33
0
0
MTEXT
5
1A3
100
AcDbEntity
8
dim
6
CONTINUOUS
62
7
370
0
100
AcDbMText
10
34.8517665778
20
63.90875616
30
0
40
2.5
41
8.05555555556
71
5
72
1
1
5.499
7
standard
210
0
220
0
230
1
50
0
73
2
44
1
0
LINE
5
1A4
100
AcDbEntity
8
dim
6
CONTINUOUS
62
7
370
0
100
AcDbLine
10
24.7
20
75.875
11
24.7
21
60.78375616
0
LINE
5
1A5
100
AcDbEntity
8
dim
6
CONTINUOUS
62
7
370
0
100
AcDbLine
10
30.1989888
20
75.83716192
11
30.1989888
21
60.78375616
0
ENDBLK
5
A9
330
A7
100
AcDbEntity
8
0
100
AcDbBlockEnd
0
BLOCK
5
AB
330
AA
100
AcDbEntity
8
0
100
AcDbBlockBegin
2
*D20
70
1
10
0
20
0
3
*D20
1

0
LINE
5
1A6
100
AcDbEntity
8
dim
6
CONTINUOUS
62
7
370
0
100
AcDbLine
10
2
20
110
11
170
21
110
0
SOLID
5
1A7
100
AcDbEntity
8
dim
6
CONTINUOUS
62
7
370
0
100
AcDbTrace
10
2
20
110
30
0
11
4.5
21
110.416284658
31
0
12
4.5
22
109.583715342
32
0
13
4.5
23
109.583715342
33
0
0
SOLID
5
1A8
100
AcDbEntity
8
dim
6
CONTINUOUS
62
7
370
0
100
AcDbTrace
10
170
20
110
30
0
11
167.5
21
109.583715342
31
0
12
167.5
22
110.416284658
32
0
13
167.5
23
110.416284658
33
0
0
MTEXT
5
1A9
100
AcDbEntity
8
dim
6
CONTINUOUS
62
7
370
0
100
AcDbMText
10
86
20
111.875
30
0
40
2.5
41
4.44444444444
71
5
72
1
1
168
7
standard
210
0
220
0
230
1
50
0
73
2
44
1
0
LINE
5
1AA
100
AcDbEntity
8
dim
6
CONTINUOUS
62
7
370
0
100
AcDbLine
10
2
20
88.625
11
2
21
111.25
0
LINE
5
1AB
100
AcDbEntity
8
dim
6
CONTINUOUS
62
7
370
0
100
AcDbLine
10
170
20
78.225
11
170
21
111.25
0
ENDBLK
5
AC
330
AA
100
AcDbEntity
8
0
100
AcDbBlockEnd
0
BLOCK
5
AE
330
AD
100
AcDbEntity
8
0
100
AcDbBlockBegin
2
*D4
70
1
10
0
20
0
3
*D4
1

0
LINE
5
1AC
100
AcDbEntity
8
dim
6
CONTINUOUS
62
7
370
0
100
AcDbLine
10
12.7
20
10
11
54.7
21
10
0
SOLID
5
1AD
100
AcDbEntity
8
dim
6
CONTINUOUS
62
7
370
0
100
AcDbTrace
10
12.7
20
10
30
0
11
15.2
21
10.4162846578
31
0
12
15.2
22
9.58371534223
32
0
13
15.2
23
9.58371534223
33
0
0
SOLID
5
1AE
100
AcDbEntity
8
dim
6
CONTINUOUS
62
7
370
0
100
AcDbTrace
10
54.7
20
10
30
0
11
52.2
21
9.58371534223
31
0
12
52.2
22
10.4162846578
32
0
13
52.2
23
10.4162846578
33
0
0
MTEXT
5
1AF
100
AcDbEntity
8
dim
6
CONTINUOUS
62
7
370
0
100
AcDbMText
10
33.7
20
11.875
30
0
40
2.5
41
3.33333333333
71
5
72
1
1
42
7
standard
210
0
220
0
230
1
50
0
73
2
44
1
0
LINE
5
1B0
100
AcDbEntity
8
dim
6
CONTINUOUS
62
7
370
0
100
AcDbLine
10
12.7
20
22.375
11
12.7
21
8.75
0
LINE
5
1B1
100
AcDbEntity
8
dim
6
CONTINUOUS
62
7
370
0
100
AcDbLine
10
54.7
20
22.375
11
54.7
21
8.75
0
ENDBLK
5
AF
330
AD
100
AcDbEntity
8
0
100
AcDbBlockEnd
0
BLOCK
5
B1
330
B0
100
AcDbEntity
8
0
100
AcDbBlockBegin
2
*D50
70
1
10
0
20
0
3
*D50
1

0
LINE
5
1B2
100
AcDbEntity
8
dim
6
CONTINUOUS
62
7
370
0
100
AcDbLine
10
236.6
20
86.7
11
236.6
21
99.6
0
SOLID
5
1B3
100
AcDbEntity
8
dim
6
CONTINUOUS
62
7
370
0
100
AcDbTrace
10
236.6
20
86.7
30
0
11
236.183715342
21
89.2
31
0
12
237.016284658
22
89.2
32
0
13
237.016284658
23
89.2
33
0
0
SOLID
5
1B4
100
AcDbEntity
8
dim
6
CONTINUOUS
62
7
370
0
100
AcDbTrace
10
236.6
20
99.6
30
0
11
237.016284658
21
97.1
31
0
12
236.183715342
22
97.1
32
0
13
236.183715342
23
97.1
33
0
0
MTEXT
5
1B5
100
AcDbEntity
8
dim
6
CONTINUOUS
62
7
370
0
100
AcDbMText
10
234.725
20
93.15
30
0
40
2.5
41
5.27777777778
71
5
72
1
1
12.9
7
standard
210
0
220
0
230
1
50
90
73
2
44
1
0
LINE
5
1B6
100
AcDbEntity
8
dim
6
CONTINUOUS
62
7
370
0
100
AcDbLine
10
237.875
20
86.7
11
235.35
21
86.7
0
LINE
5
1B7
100
AcDbEntity
8
dim
6
CONTINUOUS
62
7
370
0
100
AcDbLine
10
236.975
20
99.6
11
235.35
21
99.6
0
ENDBLK
5
B2
330
B0
100
AcDbEntity
8
0
100
AcDbBlockEnd
0
BLOCK
5
B4
330
B3
100
AcDbEntity
8
0
100
AcDbBlockBegin
2
*D23
70
1
10
0
20
0
3
*D23
1

0
LINE
5
1B8
100
AcDbEntity
8
dim
6
CONTINUOUS
62
7
370
0
100
AcDbLine
10
238.5
20
90
11
274
21
90
0
SOLID
5
1B9
100
AcDbEntity
8
dim
6
CONTINUOUS
62
7
370
0
100
AcDbTrace
10
238.5
20
90
30
0
11
241
21
90.4162846578
31
0
12
241
22
89.5837153422
32
0
13
241
23
89.5837153422
33
0
0
SOLID
5
1BA
100
AcDbEntity
8
dim
6
CONTINUOUS
62
7
370
0
100
AcDbTrace
10
274
20
90
30
0
11
271.5
21
89.5837153422
31
0
12
271.5
22
90.4162846578
32
0
13
271.5
23
90.4162846578
33
0
0
MTEXT
5
1BB
100
AcDbEntity
8
dim
6
CONTINUOUS
62
7
370
0
100
AcDbMText
10
256.25
20
91.875
30
0
40
2.5
41
5.83333333333
71
5
72
1
1
35.5
7
standard
210
0
220
0
230
1
50
0
73
2
44
1
0
LINE
5
1BC
100
AcDbEntity
8
dim
6
CONTINUOUS
62
7
370
0
100
AcDbLine
10
238.5
20
87.325
11
238.5
21
91.25
0
LINE
5
1BD
100
AcDbEntity
8
dim
6
CONTINUOUS
62
7
370
0
100
AcDbLine
10
274
20
51.425
11
274
21
91.25
0
ENDBLK
5
B5
330
B3
100
AcDbEntity
8
0
100
AcDbBlockEnd
0
BLOCK
5
B7
330
B6
100
AcDbEntity
8
0
100
AcDbBlockBegin
2
*D41
70
1
10
0
20
0
3
*D41
1

0
LINE
5
1BE
100
AcDbEntity
8
dim
6
CONTINUOUS
62
7
370
0
100
AcDbLine
10
12.7
20
40
11
2
21
40
0
SOLID
5
1BF
100
AcDbEntity
8
dim
6
CONTINUOUS
62
7
370
0
100
AcDbTrace
10
12.7
20
40
30
0
11
10.2
21
39.5837153422
31
0
12
10.2
22
40.4162846578
32
0
13
10.2
23
40.4162846578
33
0
0
SOLID
5
1C0
100
AcDbEntity
8
dim
6
CONTINUOUS
62
7
370
0
100
AcDbTrace
10
2
20
40
30
0
11
4.5
21
40.4162846578
31
0
12
4.5
22
39.5837153422
32
0
13
4.5
23
39.5837153422
33
0
0
MTEXT
5
1C1
100
AcDbEntity
8
dim
6
CONTINUOUS
62
7
370
0
100
AcDbMText
10
7.35
20
41.875
30
0
40
2.5
41
5.27777777778
71
5
72
1
1
10.7
7
standard
210
0
220
0
230
1
50
360
73
2
44
1
0
LINE
5
1C2
100
AcDbEntity
8
dim
6
CONTINUOUS
62
7
370
0
100
AcDbLine
10
12.7
20
37.625
11
12.7
21
41.25
0
LINE
5
1C3
100
AcDbEntity
8
dim
6
CONTINUOUS
62
7
370
0
100
AcDbLine
10
2
20
37.625
11
2
21
41.25
0
ENDBLK
5
B8
330
B6
100
AcDbEntity
8
0
100
AcDbBlockEnd
0
BLOCK
5
BA
330
B9
100
AcDbEntity
8
0
100
AcDbBlockBegin
2
*D8
70
1
10
0
20
0
3
*D8
1

0
LINE
5
1C4
100
AcDbEntity
8
dim
6
CONTINUOUS
62
7
370
0
100
AcDbLine
10
124
20
50
11
138.7
21
50
0
SOLID
5
1C5
100
AcDbEntity
8
dim
6
CONTINUOUS
62
7
370
0
100
AcDbTrace
10
124
20
50
30
0
11
126.5
21
50.4162846578
31
0
12
126.5
22
49.5837153422
32
0
13
126.5
23
49.5837153422
33
0
0
SOLID
5
1C6
100
AcDbEntity
8
dim
6
CONTINUOUS
62
7
370
0
100
AcDbTrace
10
138.7
20
50
30
0
11
136.2
21
49.5837153422
31
0
12
136.2
22
50.4162846578
32
0
13
136.2
23
50.4162846578
33
0
0
MTEXT
5
1C7
100
AcDbEntity
8
dim
6
CONTINUOUS
62
7
370
0
100
AcDbMText
10
131.35
20
51.875
30
0
40
2.5
41
5.55555555556
71
5
72
1
1
14.7
7
standard
210
0
220
0
230
1
50
0
73
2
44
1
0
LINE
5
1C8
100
AcDbEntity
8
dim
6
CONTINUOUS
62
7
370
0
100
AcDbLine
10
124
20
37.625
11
124
21
51.25
0
LINE
5
1C9
100
AcDbEntity
8
dim
6
CONTINUOUS
62
7
370
0
100
AcDbLine
10
138.7
20
37.625
11
138.7
21
51.25
0
ENDBLK
5
BB
330
B9
100
AcDbEntity
8
0
100
AcDbBlockEnd
0
BLOCK
5
BD
330
BC
100
AcDbEntity
8
0
100
AcDbBlockBegin
2
*D2
70
1
10
0
20
0
3
*D2
1

0
LINE
5
1CA
100
AcDbEntity
8
dim
6
CONTINUOUS
62
7
370
0
100
AcDbLine
10
323.2
20
-20
11
335.2
21
-20
0
SOLID
5
1CB
100
AcDbEntity
8
dim
6
CONTINUOUS
62
7
370
0
100
AcDbTrace
10
328.2
20
-20
30
0
11
325.7
21
-20.4162846578
31
0
12
325.7
22
-19.5837153422
32
0
13
325.7
23
-19.5837153422
33
0
0
SOLID
5
1CC
100
AcDbEntity
8
dim
6
CONTINUOUS
62
7
370
0
100
AcDbTrace
10
330.2
20
-20
30
0
11
332.7
21
-19.5837153422
31
0
12
332.7
22
-20.4162846578
32
0
13
332.7
23
-20.4162846578
33
0
0
MTEXT
5
1CD
100
AcDbEntity
8
dim
6
CONTINUOUS
62
7
370
0
100
AcDbMText
10
329.2
20
-18.125
30
0
40
2.5
41
1.11111111111
71
5
72
1
1
2
7
standard
210
0
220
0
230
1
50
0
73
2
44
1
0
LINE
5
1CE
100
AcDbEntity
8
dim
6
CONTINUOUS
62
7
370
0
100
AcDbLine
10
328.2
20
-0.625
11
328.2
21
-21.25
0
LINE
5
1CF
100
AcDbEntity
8
dim
6
CONTINUOUS
62
7
370
0
100
AcDbLine
10
330.2
20
-0.625
11
330.2
21
-21.25
0
ENDBLK
5
BE
330
BC
100
AcDbEntity
8
0
100
AcDbBlockEnd
0
BLOCK
5
C0
330
BF
100
AcDbEntity
8
0
100
AcDbBlockBegin
2
*D33
70
1
10
0
20
0
3
*D33
1

0
LINE
5
1D0
100
AcDbEntity
8
dim
6
CONTINUOUS
62
7
370
0
100
AcDbLine
10
198
20
73.8
11
198
21
99.6
0
SOLID
5
1D1
100
AcDbEntity
8
dim
6
CONTINUOUS
62
7
370
0
100
AcDbTrace
10
198
20
73.8
30
0
11
197.583715342
21
76.3
31
0
12
198.416284658
22
76.3
32
0
13
198.416284658
23
76.3
33
0
0
SOLID
5
1D2
100
AcDbEntity
8
dim
6
CONTINUOUS
62
7
370
0
100
AcDbTrace
10
198
20
99.6
30
0
11
198.416284658
21
97.1
31
0
12
197.583715342
22
97.1
32
0
13
197.583715342
23
97.1
33
0
0
MTEXT
5
1D3
100
AcDbEntity
8
dim
6
CONTINUOUS
62
7
370
0
100
AcDbMText
10
196.125
20
86.7
30
0
40
2.5
41
5.83333333333
71
5
72
1
1
25.8
7
standard
210
0
220
0
230
1
50
90
73
2
44
1
0
LINE
5
1D4
100
AcDbEntity
8
dim
6
CONTINUOUS
62
7
370
0
100
AcDbLine
10
193.325
20
73.8
11
199.25
21
73.8
0
LINE
5
1D5
100
AcDbEntity
8
dim
6
CONTINUOUS
62
7
370
0
100
AcDbLine
10
193.625
20
99.6
11
199.25
21
99.6
0
ENDBLK
5
C1
330
BF
100
AcDbEntity
8
0
100
AcDbBlockEnd
0
BLOCK
5
C3
330
C2
100
AcDbEntity
8
0
100
AcDbBlockBegin
2
*D31
70
1
10
0
20
0
3
*D31
1

0
LINE
5
1D6
100
AcDbEntity
8
dim
6
CONTINUOUS
62
7
370
0
100
AcDbLine
10
320
20
50.8
11
320
21
15
0
SOLID
5
1D7
100
AcDbEntity
8
dim
6
CONTINUOUS
62
7
370
0
100
AcDbTrace
10
320
20
50.8
30
0
11
320.416284658
21
48.3
31
0
12
319.583715342
22
48.3
32
0
13
319.583715342
23
48.3
33
0
0
SOLID
5
1D8
100
AcDbEntity
8
dim
6
CONTINUOUS
62
7
370
0
100
AcDbTrace
10
320
20
15
30
0
11
319.583715342
21
17.5
31
0
12
320.416284658
22
17.5
32
0
13
320.416284658
23
17.5
33
0
0
MTEXT
5
1D9
100
AcDbEntity
8
dim
6
CONTINUOUS
62
7
370
0
100
AcDbMText
10
318.125
20
32.9
30
0
40
2.5
41
5.83333333333
71
5
72
1
1
35.8
7
standard
210
0
220
0
230
1
50
90
73
2
44
1
0
LINE
5
1DA
100
AcDbEntity
8
dim
6
CONTINUOUS
62
7
370
0
100
AcDbLine
10
274.625
20
50.8
11
321.25
21
50.8
0
LINE
5
1DB
100
AcDbEntity
8
dim
6
CONTINUOUS
62
7
370
0
100
AcDbLine
10
310.525
20
15
11
321.25
21
15
0
ENDBLK
5
C4
330
C2
100
AcDbEntity
8
0
100
AcDbBlockEnd
0
BLOCK
5
C6
330
C5
100
AcDbEntity
8
0
100
AcDbBlockBegin
2
*D1
70
1
10
0
20
0
3
*D1
1

0
LINE
5
1DC
100
AcDbEntity
8
dim
6
CONTINUOUS
62
7
370
0
100
AcDbLine
10
2
20
-20
11
328.2
21
-20
0
SOLID
5
1DD
100
AcDbEntity
8
dim
6
CONTINUOUS
62
7
370
0
100
AcDbTrace
10
2
20
-20
30
0
11
4.5
21
-19.5837153422
31
0
12
4.5
22
-20.4162846578
32
0
13
4.5
23
-20.4162846578
33
0
0
SOLID
5
1DE
100
AcDbEntity
8
dim
6
CONTINUOUS
62
7
370
0
100
AcDbTrace
10
328.2
20
-20
30
0
11
325.7
21
-20.4162846578
31
0
12
325.7
22
-19.5837153422
32
0
13
325.7
23
-19.5837153422
33
0
0
MTEXT
5
1DF
100
AcDbEntity
8
dim
6
CONTINUOUS
62
7
370
0
100
AcDbMText
10
165.1
20
-18.125
30
0
40
2.5
41
7.77777777778
71
5
72
1
1
326.2
7
standard
210
0
220
0
230
1
50
0
73
2
44
1
0
LINE
5
1E0
100
AcDbEntity
8
dim
6
CONTINUOUS
62
7
370
0
100
AcDbLine
10
2
20
-0.625
11
2
21
-21.25
0
LINE
5
1E1
100
AcDbEntity
8
dim
6
CONTINUOUS
62
7
370
0
100
AcDbLine
10
328.2
20
-0.625
11
328.2
21
-21.25
0
ENDBLK
5
C7
330
C5
100
AcDbEntity
8
0
100
AcDbBlockEnd
0
BLOCK
5
C9
330
C8
100
AcDbEntity
8
0
100
AcDbBlockBegin
2
*D32
70
1
10
0
20
0
3
*D32
1

0
LINE
5
1E2
100
AcDbEntity
8
dim
6
CONTINUOUS
62
7
370
0
100
AcDbLine
10
230
20
50.8
11
230
21
15
0
SOLID
5
1E3
100
AcDbEntity
8
dim
6
CONTINUOUS
62
7
370
0
100
AcDbTrace
10
230
20
50.8
30
0
11
230.416284658
21
48.3
31
0
12
229.583715342
22
48.3
32
0
13
229.583715342
23
48.3
33
0
0
SOLID
5
1E4
100
AcDbEntity
8
dim
6
CONTINUOUS
62
7
370
0
100
AcDbTrace
10
230
20
15
30
0
11
229.583715342
21
17.5
31
0
12
230.416284658
22
17.5
32
0
13
230.416284658
23
17.5
33
0
0
MTEXT
5
1E5
100
AcDbEntity
8
dim
6
CONTINUOUS
62
7
370
0
100
AcDbMText
10
228.125
20
32.9
30
0
40
2.5
41
5.83333333333
71
5
72
1
1
35.8
7
standard
210
0
220
0
230
1
50
90
73
2
44
1
0
LINE
5
1E6
100
AcDbEntity
8
dim
6
CONTINUOUS
62
7
370
0
100
AcDbLine
10
273.375
20
50.8
11
228.75
21
50.8
0
LINE
5
1E7
100
AcDbEntity
8
dim
6
CONTINUOUS
62
7
370
0
100
AcDbLine
10
237.875
20
15
11
228.75
21
15
0
ENDBLK
5
CA
330
C8
100
AcDbEntity
8
0
100
AcDbBlockEnd
0
BLOCK
5
CC
330
CB
100
AcDbEntity
8
0
100
AcDbBlockBegin
2
*D35
70
1
10
0
20
0
3
*D35
1

0
LINE
5
1E8
100
AcDbEntity
8
dim
6
CONTINUOUS
62
7
370
0
100
AcDbLine
10
160.1
20
60
11
175
21
60
0
SOLID
5
1E9
100
AcDbEntity
8
dim
6
CONTINUOUS
62
7
370
0
100
AcDbTrace
10
165.1
20
60
30
0
11
162.6
21
59.5837153422
31
0
12
162.6
22
60.4162846578
32
0
13
162.6
23
60.4162846578
33
0
0
SOLID
5
1EA
100
AcDbEntity
8
dim
6
CONTINUOUS
62
7
370
0
100
AcDbTrace
10
170
20
60
30
0
11
172.5
21
60.4162846578
31
0
12
172.5
22
59.5837153422
32
0
13
172.5
23
59.5837153422
33
0
0
MTEXT
5
1EB
100
AcDbEntity
8
dim
6
CONTINUOUS
62
7
370
0
100
AcDbMText
10
167.55
20
61.875
30
0
40
2.5
41
4.16666666667
71
5
72
1
1
4.9
7
standard
210
0
220
0
230
1
50
0
73
2
44
1
0
LINE
5
1EC
100
AcDbEntity
8
dim
6
CONTINUOUS
62
7
370
0
100
AcDbLine
10
165.1
20
73.175
11
165.1
21
58.75
0
LINE
5
1ED
100
AcDbEntity
8
dim
6
CONTINUOUS
62
7
370
0
100
AcDbLine
10
170
20
69.375
11
170
21
58.75
0
ENDBLK
5
CD
330
CB
100
AcDbEntity
8
0
100
AcDbBlockEnd
0
BLOCK
5
CF
330
CE
100
AcDbEntity
8
0
100
AcDbBlockBegin
2
*D29
70
1
10
0
20
0
3
*D29
1

0
LINE
5
1EE
100
AcDbEntity
8
dim
6
CONTINUOUS
62
7
370
0
100
AcDbLine
10
220
20
50.8
11
220
21
86.7
0
SOLID
5
1EF
100
AcDbEntity
8
dim
6
CONTINUOUS
62
7
370
0
100
AcDbTrace
10
220
20
50.8
30
0
11
219.583715342
21
53.3
31
0
12
220.416284658
22
53.3
32
0
13
220.416284658
23
53.3
33
0
0
SOLID
5
1F0
100
AcDbEntity
8
dim
6
CONTINUOUS
62
7
370
0
100
AcDbTrace
10
220
20
86.7
30
0
11
220.416284658
21
84.2
31
0
12
219.583715342
22
84.2
32
0
13
219.583715342
23
84.2
33
0
0
MTEXT
5
1F1
100
AcDbEntity
8
dim
6
CONTINUOUS
62
7
370
0
100
AcDbMText
10
218.125
20
68.75
30
0
40
2.5
41
5.83333333333
71
5
72
1
1
35.9
7
standard
210
0
220
0
230
1
50
90
73
2
44
1
0
LINE
5
1F2
100
AcDbEntity
8
dim
6
CONTINUOUS
62
7
370
0
100
AcDbLine
10
273.375
20
50.8
11
218.75
21
50.8
0
LINE
5
1F3
100
AcDbEntity
8
dim
6
CONTINUOUS
62
7
370
0
100
AcDbLine
10
237.875
20
86.7
11
218.75
21
86.7
0
ENDBLK
5
D0
330
CE
100
AcDbEntity
8
0
100
AcDbBlockEnd
0
BLOCK
5
D2
330
D1
100
AcDbEntity
8
0
100
AcDbBlockBegin
2
*D43
70
1
10
0
20
0
3
*D43
1

0
LINE
5
1F4
100
AcDbEntity
8
dim
6
CONTINUOUS
62
7
370
0
100
AcDbLine
10
62
20
-3.5527136788e-15
11
62
21
28
0
SOLID
5
1F5
100
AcDbEntity
8
dim
6
CONTINUOUS
62
7
370
0
100
AcDbTrace
10
62
20
-3.5527136788e-15
30
0
11
61.5837153422
21
2.5
31
0
12
62.4162846578
22
2.5
32
0
13
62.4162846578
23
2.5
33
0
0
SOLID
5
1F6
100
AcDbEntity
8
dim
6
CONTINUOUS
62
7
370
0
100
AcDbTrace
10
62
20
28
30
0
11
62.4162846578
21
25.5
31
0
12
61.5837153422
22
25.5
32
0
13
61.5837153422
23
25.5
33
0
0
MTEXT
5
1F7
100
AcDbEntity
8
dim
6
CONTINUOUS
62
7
370
0
100
AcDbMText
10
60.125
20
14
30
0
40
2.5
41
3.05555555556
71
5
72
1
1
28
7
standard
210
0
220
0
230
1
50
90
73
2
44
1
0
LINE
5
1F8
100
AcDbEntity
8
dim
6
CONTINUOUS
62
7
370
0
100
AcDbLine
10
79.375
20
7.65404249467e-17
11
60.75
21
-3.39963282891e-15
0
LINE
5
1F9
100
AcDbEntity
8
dim
6
CONTINUOUS
62
7
370
0
100
AcDbLine
10
79.375
20
28
11
60.75
21
28
0
ENDBLK
5
D3
330
D1
100
AcDbEntity
8
0
100
AcDbBlockEnd
0
BLOCK
5
D5
330
D4
100
AcDbEntity
8
0
100
AcDbBlockBegin
2
*D14
70
1
10
0
20
0
3
*D14
1

0
LINE
5
1FA
100
AcDbEntity
8
dim
6
CONTINUOUS
62
7
370
0
100
AcDbLine
10
186
20
50
11
199.7
21
50
0
SOLID
5
1FB
100
AcDbEntity
8
dim
6
CONTINUOUS
62
7
370
0
100
AcDbTrace
10
186
20
50
30
0
11
188.5
21
50.4162846578
31
0
12
188.5
22
49.5837153422
32
0
13
188.5
23
49.5837153422
33
0
0
SOLID
5
1FC
100
AcDbEntity
8
dim
6
CONTINUOUS
62
7
370
0
100
AcDbTrace
10
199.7
20
50
30
0
11
197.2
21
49.5837153422
31
0
12
197.2
22
50.4162846578
32
0
13
197.2
23
50.4162846578
33
0
0
MTEXT
5
1FD
100
AcDbEntity
8
dim
6
CONTINUOUS
62
7
370
0
100
AcDbMText
10
192.85
20
51.875
30
0
40
2.5
41
5.27777777778
71
5
72
1
1
13.7
7
standard
210
0
220
0
230
1
50
0
73
2
44
1
0
LINE
5
1FE
100
AcDbEntity
8
dim
6
CONTINUOUS
62
7
370
0
100
AcDbLine
10
186
20
37.625
11
186
21
51.25
0
LINE
5
1FF
100
AcDbEntity
8
dim
6
CONTINUOUS
62
7
370
0
100
AcDbLine
10
199.7
20
37.625
11
199.7
21
51.25
0
ENDBLK
5
D6
330
D4
100
AcDbEntity
8
0
100
AcDbBlockEnd
0
BLOCK
5
D8
330
D7
100
AcDbEntity
8
0
100
AcDbBlockBegin
2
*D44
70
1
10
0
20
0
3
*D44
1

0
LINE
5
200
100
AcDbEntity
8
dim
6
CONTINUOUS
62
7
370
0
100
AcDbLine
10
62
20
28
11
62
21
45
0
SOLID
5
201
100
AcDbEntity
8
dim
6
CONTINUOUS
62
7
370
0
100
AcDbTrace
10
62
20
28
30
0
11
61.5837153422
21
30.5
31
0
12
62.4162846578
22
30.5
32
0
13
62.4162846578
23
30.5
33
0
0
SOLID
5
202
100
AcDbEntity
8
dim
6
CONTINUOUS
62
7
370
0
100
AcDbTrace
10
62
20
45
30
0
11
62.4162846578
21
42.5
31
0
12
61.5837153422
22
42.5
32
0
13
61.5837153422
23
42.5
33
0
0
MTEXT
5
203
100
AcDbEntity
8
dim
6
CONTINUOUS
62
7
370
0
100
AcDbMText
10
60.125
20
36.5
30
0
40
2.5
41
2.5
71
5
72
1
1
17
7
standard
210
0
220
0
230
1
50
90
73
2
44
1
0
LINE
5
204
100
AcDbEntity
8
dim
6
CONTINUOUS
62
7
370
0
100
AcDbLine
10
68.875
20
28
11
60.75
21
28
0
LINE
5
205
100
AcDbEntity
8
dim
6
CONTINUOUS
62
7
370
0
100
AcDbLine
10
69.375
20
45
11
60.75
21
45
0
ENDBLK
5
D9
330
D7
100
AcDbEntity
8
0
100
AcDbBlockEnd
0
BLOCK
5
DB
330
DA
100
AcDbEntity
8
0
100
AcDbBlockBegin
2
*D38
70
1
10
0
20
0
3
*D38
1

0
LINE
5
206
100
AcDbEntity
8
dim
6
CONTINUOUS
62
7
370
0
100
AcDbLine
10
64
20
99.6
11
64
21
87
0
SOLID
5
207
100
AcDbEntity
8
dim
6
CONTINUOUS
62
7
370
0
100
AcDbTrace
10
64
20
99.6
30
0
11
64.4162846578
21
97.1
31
0
12
63.5837153422
22
97.1
32
0
13
63.5837153422
23
97.1
33
0
0
SOLID
5
208
100
AcDbEntity
8
dim
6
CONTINUOUS
62
7
370
0
100
AcDbTrace
10
64
20
87
30
0
11
63.5837153422
21
89.5
31
0
12
64.4162846578
22
89.5
32
0
13
64.4162846578
23
89.5
33
0
0
MTEXT
5
209
100
AcDbEntity
8
dim
6
CONTINUOUS
62
7
370
0
100
AcDbMText
10
62.125
20
93.3
30
0
40
2.5
41
5.27777777778
71
5
72
1
1
12.6
7
standard
210
0
220
0
230
1
50
90
73
2
44
1
0
LINE
5
20A
100
AcDbEntity
8
dim
6
CONTINUOUS
62
7
370
0
100
AcDbLine
10
36.625
20
99.6
11
65.25
21
99.6
0
LINE
5
20B
100
AcDbEntity
8
dim
6
CONTINUOUS
62
7
370
0
100
AcDbLine
10
35.625
20
87
11
65.25
21
87
0
ENDBLK
5
DC
330
DA
100
AcDbEntity
8
0
100
AcDbBlockEnd
0
BLOCK
5
DE
330
DD
100
AcDbEntity
8
0
100
AcDbBlockBegin
2
*D30
70
1
10
0
20
0
3
*D30
1

0
LINE
5
20C
100
AcDbEntity
8
dim
6
CONTINUOUS
62
7
370
0
100
AcDbLine
10
320
20
50.8
11
320
21
86.7
0
SOLID
5
20D
100
AcDbEntity
8
dim
6
CONTINUOUS
62
7
370
0
100
AcDbTrace
10
320
20
50.8
30
0
11
319.583715342
21
53.3
31
0
12
320.416284658
22
53.3
32
0
13
320.416284658
23
53.3
33
0
0
SOLID
5
20E
100
AcDbEntity
8
dim
6
CONTINUOUS
62
7
370
0
100
AcDbTrace
10
320
20
86.7
30
0
11
320.416284658
21
84.2
31
0
12
319.583715342
22
84.2
32
0
13
319.583715342
23
84.2
33
0
0
MTEXT
5
20F
100
AcDbEntity
8
dim
6
CONTINUOUS
62
7
370
0
100
AcDbMText
10
318.125
20
68.75
30
0
40
2.5
41
5.83333333333
71
5
72
1
1
35.9
7
standard
210
0
220
0
230
1
50
90
73
2
44
1
0
LINE
5
210
100
AcDbEntity
8
dim
6
CONTINUOUS
62
7
370
0
100
AcDbLine
10
274.625
20
50.8
11
321.25
21
50.8
0
LINE
5
211
100
AcDbEntity
8
dim
6
CONTINUOUS
62
7
370
0
100
AcDbLine
10
310.525
20
86.7
11
321.25
21
86.7
0
ENDBLK
5
DF
330
DD
100
AcDbEntity
8
0
100
AcDbBlockEnd
0
BLOCK
5
E1
330
E0
100
AcDbEntity
8
0
100
AcDbBlockBegin
2
SHAPE2DVIEW
70
0
10
0
20
0
3
SHAPE2DVIEW
1

0
LINE
5
212
100
AcDbEntity
8
0
6
ByLayer
62
0
370
-1
100
AcDbLine
10
59.2
20
68
11
59.2
21
85
0
ARC
5
213
100
AcDbEntity
8
0
6
ByLayer
62
0
370
-1
100
AcDbCircle
10
57.2
20
85
40
2
100
AcDbArc
50
-0
51
90
0
ARC
5
214
100
AcDbEntity
8
0
6
ByLayer
62
0
370
-1
100
AcDbCircle
10
57.2
20
68
40
2
100
AcDbArc
50
-90
51
-0
0
LINE
5
215
100
AcDbEntity
8
0
6
ByLayer
62
0
370
-1
100
AcDbLine
10
32.2
20
87
11
57.2
21
87
0
LINE
5
216
100
AcDbEntity
8
0
6
ByLayer
62
0
370
-1
100
AcDbLine
10
32.2
20
66
11
57.2
21
66
0
ARC
5
217
100
AcDbEntity
8
0
6
ByLayer
62
0
370
-1
100
AcDbCircle
10
32.2
20
85
40
2
100
AcDbArc
50
90
51
180
0
ARC
5
218
100
AcDbEntity
8
0
6
ByLayer
62
0
370
-1
100
AcDbCircle
10
32.2
20
68
40
2
100
AcDbArc
50
180
51
-90
0
LINE
5
219
100
AcDbEntity
8
0
6
ByLayer
62
0
370
-1
100
AcDbLine
10
30.2
20
68
11
30.2
21
85
0
LINE
5
21A
100
AcDbEntity
8
0
6
ByLayer
62
0
370
-1
100
AcDbLine
10
2
20
-4.4408920985e-16
11
2
21
99.6
0
LINE
5
21B
100
AcDbEntity
8
0
6
ByLayer
62
0
370
-1
100
AcDbLine
10
2
20
99.6
11
328.2
21
99.6
0
LINE
5
21C
100
AcDbEntity
8
0
6
ByLayer
62
0
370
-1
100
AcDbLine
10
2
20
-4.4408920985e-16
11
328.2
21
-7.28750393364e-14
0
LINE
5
21D
100
AcDbEntity
8
0
6
ByLayer
62
0
370
-1
100
AcDbLine
10
328.2
20
-7.28750393364e-14
11
328.2
21
99.6
0
LINE
5
21E
100
AcDbEntity
8
0
6
ByLayer
62
0
370
-1
100
AcDbLine
10
12.7
20
23
11
12.7
21
37.5
0
LINE
5
21F
100
AcDbEntity
8
0
6
ByLayer
62
0
370
-1
100
AcDbLine
10
12.7
20
37.5
11
54.7
21
37.5
0
LINE
5
220
100
AcDbEntity
8
0
6
ByLayer
62
0
370
-1
100
AcDbLine
10
12.7
20
23
11
54.7
21
23
0
LINE
5
221
100
AcDbEntity
8
0
6
ByLayer
62
0
370
-1
100
AcDbLine
10
54.7
20
23
11
54.7
21
37.5
0
LINE
5
222
100
AcDbEntity
8
0
6
ByLayer
62
0
370
-1
100
AcDbLine
10
69.5
20
45
11
104
21
45
0
LINE
5
223
100
AcDbEntity
8
0
6
ByLayer
62
0
370
-1
100
AcDbLine
10
69.5
20
28
11
69.5
21
45
0
LINE
5
224
100
AcDbEntity
8
0
6
ByLayer
62
0
370
-1
100
AcDbLine
10
104
20
45
11
104.5
21
45
0
LINE
5
225
100
AcDbEntity
8
0
6
ByLayer
62
0
370
-1
100
AcDbLine
10
69.5
20
28
11
104
21
28
0
LINE
5
226
100
AcDbEntity
8
0
6
ByLayer
62
0
370
-1
100
AcDbLine
10
104.5
20
45
11
124
21
45
0
LINE
5
227
100
AcDbEntity
8
0
6
ByLayer
62
0
370
-1
100
AcDbLine
10
104
20
28
11
104.5
21
28
0
LINE
5
228
100
AcDbEntity
8
0
6
ByLayer
62
0
370
-1
100
AcDbLine
10
124
20
37
11
124
21
45
0
LINE
5
229
100
AcDbEntity
8
0
6
ByLayer
62
0
370
-1
100
AcDbLine
10
104.5
20
28
11
123
21
28
0
LINE
5
22A
100
AcDbEntity
8
0
6
ByLayer
62
0
370
-1
100
AcDbLine
10
124
20
37
11
138.7
21
37
0
LINE
5
22B
100
AcDbEntity
8
0
6
ByLayer
62
0
370
-1
100
AcDbLine
10
123
20
22
11
123
21
28
0
LINE
5
22C
100
AcDbEntity
8
0
6
ByLayer
62
0
370
-1
100
AcDbLine
10
138.7
20
22
11
138.7
21
37
0
LINE
5
22D
100
AcDbEntity
8
0
6
ByLayer
62
0
370
-1
100
AcDbLine
10
123
20
22
11
138.7
21
22
0
LINE
5
22E
100
AcDbEntity
8
0
6
ByLayer
62
0
370
-1
100
AcDbLine
10
145
20
22
11
145
21
37
0
LINE
5
22F
100
AcDbEntity
8
0
6
ByLayer
62
0
370
-1
100
AcDbLine
10
145
20
37
11
158.7
21
37
0
LINE
5
230
100
AcDbEntity
8
0
6
ByLayer
62
0
370
-1
100
AcDbLine
10
145
20
22
11
158.7
21
22
0
LINE
5
231
100
AcDbEntity
8
0
6
ByLayer
62
0
370
-1
100
AcDbLine
10
158.7
20
22
11
158.7
21
37
0
LINE
5
232
100
AcDbEntity
8
0
6
ByLayer
62
0
370
-1
100
AcDbLine
10
165.5
20
37
11
179.2
21
37
0
LINE
5
233
100
AcDbEntity
8
0
6
ByLayer
62
0
370
-1
100
AcDbLine
10
179.2
20
22
11
179.2
21
37
0
LINE
5
234
100
AcDbEntity
8
0
6
ByLayer
62
0
370
-1
100
AcDbLine
10
165.5
20
22
11
165.5
21
37
0
LINE
5
235
100
AcDbEntity
8
0
6
ByLayer
62
0
370
-1
100
AcDbLine
10
165.5
20
22
11
179.2
21
22
0
LINE
5
236
100
AcDbEntity
8
0
6
ByLayer
62
0
370
-1
100
AcDbLine
10
186
20
37
11
199.7
21
37
0
LINE
5
237
100
AcDbEntity
8
0
6
ByLayer
62
0
370
-1
100
AcDbLine
10
199.7
20
22
11
199.7
21
37
0
LINE
5
238
100
AcDbEntity
8
0
6
ByLayer
62
0
370
-1
100
AcDbLine
10
186
20
22
11
186
21
37
0
LINE
5
239
100
AcDbEntity
8
0
6
ByLayer
62
0
370
-1
100
AcDbLine
10
186
20
22
11
199.7
21
22
0
CIRCLE
5
23A
100
AcDbEntity
8
0
6
ByLayer
62
0
370
-1
100
AcDbCircle
10
274
20
50.8
40
38
0
CIRCLE
5
23B
100
AcDbEntity
8
0
6
ByLayer
62
0
370
-1
100
AcDbCircle
10
238.5
20
86.7
40
2.5
0
CIRCLE
5
23C
100
AcDbEntity
8
0
6
ByLayer
62
0
370
-1
100
AcDbCircle
10
309.9
20
86.7
40
2.5
0
CIRCLE
5
23D
100
AcDbEntity
8
0
6
ByLayer
62
0
370
-1
100
AcDbCircle
10
238.5
20
15
40
2.5
0
CIRCLE
5
23E
100
AcDbEntity
8
0
6
ByLayer
62
0
370
-1
100
AcDbCircle
10
309.9
20
15
40
2.5
0
CIRCLE
5
23F
100
AcDbEntity
8
0
6
ByLayer
62
0
370
-1
100
AcDbCircle
10
24.7
20
76.5
40
2.5
0
CIRCLE
5
240
100
AcDbEntity
8
0
6
ByLayer
62
0
370
-1
100
AcDbCircle
10
64.7
20
76.5
40
2.5
0
LINE
5
241
100
AcDbEntity
8
0
6
ByLayer
62
0
370
-1
100
AcDbLine
10
187.8
20
70
11
187.8
21
77.6
0
LINE
5
242
100
AcDbEntity
8
0
6
ByLayer
62
0
370
-1
100
AcDbLine
10
170
20
77.6
11
187.8
21
77.6
0
LINE
5
243
100
AcDbEntity
8
0
6
ByLayer
62
0
370
-1
100
AcDbLine
10
170
20
70
11
187.8
21
70
0
LINE
5
244
100
AcDbEntity
8
0
6
ByLayer
62
0
370
-1
100
AcDbLine
10
170
20
70
11
170
21
77.6
0
CIRCLE
5
245
100
AcDbEntity
8
0
6
ByLayer
62
0
370
-1
100
AcDbCircle
10
165.1
20
73.8
40
2
0
CIRCLE
5
246
100
AcDbEntity
8
0
6
ByLayer
62
0
370
-1
100
AcDbCircle
10
192.7
20
73.8
40
2
0
ENDBLK
5
E2
330
E0
100
AcDbEntity
8
0
100
AcDbBlockEnd
0
BLOCK
5
E4
330
E3
100
AcDbEntity
8
0
100
AcDbBlockBegin
2
SHAPE2DVIEW001
70
0
10
0
20
0
3
SHAPE2DVIEW001
1

0
LINE
5
247
100
AcDbEntity
8
0
6
ByLayer
62
0
370
-1
100
AcDbLine
10
0
20
0
11
2
21
-4.4408920985e-16
0
LINE
5
248
100
AcDbEntity
8
0
6
ByLayer
62
0
370
-1
100
AcDbLine
10
2
20
-4.4408920985e-16
11
2
21
99.6
0
LINE
5
249
100
AcDbEntity
8
0
6
ByLayer
62
0
370
-1
100
AcDbLine
10
0
20
0
11
2.21156426505e-14
21
99.6
0
LINE
5
24A
100
AcDbEntity
8
0
6
ByLayer
62
0
370
-1
100
AcDbLine
10
2.21156426505e-14
20
99.6
11
2
21
99.6
0
LINE
5
24B
100
AcDbEntity
8
0
6
ByLayer
62
0
370
-1
100
AcDbLine
10
2
20
99.6
11
328.2
21
99.6
0
LINE
5
24C
100
AcDbEntity
8
0
6
ByLayer
62
0
370
-1
100
AcDbLine
10
2.21156426505e-14
20
99.6
11
2.25597318604e-14
21
101.6
0
LINE
5
24D
100
AcDbEntity
8
0
6
ByLayer
62
0
370
-1
100
AcDbLine
10
2.25597318604e-14
20
101.6
11
330.2
21
101.6
0
LINE
5
24E
100
AcDbEntity
8
0
6
ByLayer
62
0
370
-1
100
AcDbLine
10
330.2
20
99.6
11
330.2
21
101.6
0
LINE
5
24F
100
AcDbEntity
8
0
6
ByLayer
62
0
370
-1
100
AcDbLine
10
328.2
20
99.6
11
330.2
21
99.6
0
LINE
5
250
100
AcDbEntity
8
0
6
ByLayer
62
0
370
-1
100
AcDbLine
10
328.2
20
-7.28750393364e-14
11
328.2
21
99.6
0
LINE
5
251
100
AcDbEntity
8
0
6
ByLayer
62
0
370
-1
100
AcDbLine
10
328.2
20
-7.28750393364e-14
11
330.2
21
-7.33191285462e-14
0
LINE
5
252
100
AcDbEntity
8
0
6
ByLayer
62
0
370
-1
100
AcDbLine
10
330.2
20
-7.33191285462e-14
11
330.2
21
99.6
0
ENDBLK
5
E5
330
E3
100
AcDbEntity
8
0
100
AcDbBlockEnd
0
ENDSEC
0
SECTION
2
ENTITIES
0
INSERT
5
253
100
AcDbEntity
8
cut
6
ByLayer
62
256
370
-1
100
AcDbBlockReference
2
SHAPE2DVIEW
10
0
20
0
30
0
41
1
42
1
43
0
50
0
70
1
71
1
44
0
45
0
0
INSERT
5
254
100
AcDbEntity
8
top
6
ByLayer
62
256
370
-1
100
AcDbBlockReference
2
SHAPE2DVIEW001
10
0
20
0
30
0
41
1
42
1
43
0
50
0
70
1
71
1
44
0
45
0
0
MTEXT
5
255
100
AcDbEntity
8
Notes
6
ByLayer
62
256
370
-1
100
AcDbMText
10
20
20
150
30
0
40
3
41
278.250007714
71
4
72
1
3
Note 1: View is from the outside looking at the back of the cabinet.\PNote 2: Top layer is not part of the back panel, but is included in order to show that the back panel fits inside of the top panel.\PAs a result, the back panel is the overall widt
1
h, minus the thickness of the left plus the right side of the top,\Pand the height is the overall height minus the thickness of the top.
7
standard
210
0
220
0
230
1
50
0
73
2
44
1
0
DIMENSION
5
256
100
AcDbEntity
8
dim
6
ByLayer
62
256
370
-1
100
AcDbDimension
2
*D1
10
328.2
20
-20
30
0
11
165.1
21
-18.125
31
0
70
32
71
5
3
Standard
53
0
210
0
220
0
230
1
100
AcDbAlignedDimension
13
2
23
-4.4408920985e-16
33
0
14
328.2
24
-7.28750393364e-14
34
0
100
AcDbRotatedDimension
0
DIMENSION
5
257
100
AcDbEntity
8
dim
6
ByLayer
62
256
370
-1
100
AcDbDimension
2
*D2
10
330.2
20
-20
30
0
11
329.2
21
-18.125
31
0
70
32
71
5
3
Standard
53
0
210
0
220
0
230
1
100
AcDbAlignedDimension
13
328.2
23
-7.28750393364e-14
33
0
14
330.2
24
-7.33191285462e-14
34
0
100
AcDbRotatedDimension
0
DIMENSION
5
258
100
AcDbEntity
8
dim
6
ByLayer
62
256
370
-1
100
AcDbDimension
2
*D3
10
2
20
-20
30
0
11
1
21
-18.125
31
0
70
32
71
5
3
Standard
53
0
210
0
220
0
230
1
100
AcDbAlignedDimension
13
0
23
0
33
0
14
2
24
-4.4408920985e-16
34
0
100
AcDbRotatedDimension
0
DIMENSION
5
259
100
AcDbEntity
8
dim
6
ByLayer
62
256
370
-1
100
AcDbDimension
2
*D4
10
54.7
20
10
30
0
11
33.7
21
11.875
31
0
70
32
71
5
3
Standard
53
0
210
0
220
0
230
1
100
AcDbAlignedDimension
13
12.7
23
23
33
0
14
54.7
24
23
34
0
100
AcDbRotatedDimension
0
DIMENSION
5
25A
100
AcDbEntity
8
dim
6
ByLayer
62
256
370
-1
100
AcDbDimension
2
*D5
10
123
20
10
30
0
11
96.25
21
11.875
31
0
70
32
71
5
3
Standard
53
0
210
0
220
0
230
1
100
AcDbAlignedDimension
13
69.5
23
28
33
0
14
123
24
28
34
0
100
AcDbRotatedDimension
0
DIMENSION
5
25B
100
AcDbEntity
8
dim
6
ByLayer
62
256
370
-1
100
AcDbDimension
2
*D6
10
124
20
50
30
0
11
96.75
21
51.875
31
0
70
32
71
5
3
Standard
53
0
210
0
220
0
230
1
100
AcDbAlignedDimension
13
69.5
23
45
33
0
14
124
24
45
34
0
100
AcDbRotatedDimension
0
DIMENSION
5
25C
100
AcDbEntity
8
dim
6
ByLayer
62
256
370
-1
100
AcDbDimension
2
*D7
10
138.7
20
10
30
0
11
130.85
21
11.875
31
0
70
32
71
5
3
Standard
53
0
210
0
220
0
230
1
100
AcDbAlignedDimension
13
123
23
22
33
0
14
138.7
24
22
34
0
100
AcDbRotatedDimension
0
DIMENSION
5
25D
100
AcDbEntity
8
dim
6
ByLayer
62
256
370
-1
100
AcDbDimension
2
*D8
10
138.7
20
50
30
0
11
131.35
21
51.875
31
0
70
32
71
5
3
Standard
53
0
210
0
220
0
230
1
100
AcDbAlignedDimension
13
124
23
37
33
0
14
138.7
24
37
34
0
100
AcDbRotatedDimension
0
DIMENSION
5
25E
100
AcDbEntity
8
dim
6
ByLayer
62
256
370
-1
100
AcDbDimension
2
*D9
10
158.7
20
50
30
0
11
151.85
21
51.875
31
0
70
32
71
5
3
Standard
53
0
210
0
220
0
230
1
100
AcDbAlignedDimension
13
145
23
37
33
0
14
158.7
24
37
34
0
100
AcDbRotatedDimension
0
DIMENSION
5
25F
100
AcDbEntity
8
dim
6
ByLayer
62
256
370
-1
100
AcDbDimension
2
*D10
10
145
20
50
30
0
11
141.85
21
51.875
31
0
70
32
71
5
3
Standard
53
0
210
0
220
0
230
1
100
AcDbAlignedDimension
13
138.7
23
37
33
0
14
145
24
37
34
0
100
AcDbRotatedDimension
0
DIMENSION
5
260
100
AcDbEntity
8
dim
6
ByLayer
62
256
370
-1
100
AcDbDimension
2
*D11
10
165.5
20
50
30
0
11
162.1
21
51.875
31
0
70
32
71
5
3
Standard
53
0
210
0
220
0
230
1
100
AcDbAlignedDimension
13
158.7
23
37
33
0
14
165.5
24
37
34
0
100
AcDbRotatedDimension
0
DIMENSION
5
261
100
AcDbEntity
8
dim
6
ByLayer
62
256
370
-1
100
AcDbDimension
2
*D12
10
179.2
20
50
30
0
11
172.35
21
51.875
31
0
70
32
71
5
3
Standard
53
0
210
0
220
0
230
1
100
AcDbAlignedDimension
13
165.5
23
37
33
0
14
179.2
24
37
34
0
100
AcDbRotatedDimension
0
DIMENSION
5
262
100
AcDbEntity
8
dim
6
ByLayer
62
256
370
-1
100
AcDbDimension
2
*D13
10
186
20
50
30
0
11
182.6
21
51.875
31
0
70
32
71
5
3
Standard
53
0
210
0
220
0
230
1
100
AcDbAlignedDimension
13
179.2
23
37
33
0
14
186
24
37
34
0
100
AcDbRotatedDimension
0
DIMENSION
5
263
100
AcDbEntity
8
dim
6
ByLayer
62
256
370
-1
100
AcDbDimension
2
*D14
10
199.7
20
50
30
0
11
192.85
21
51.875
31
0
70
32
71
5
3
Standard
53
0
210
0
220
0
230
1
100
AcDbAlignedDimension
13
186
23
37
33
0
14
199.7
24
37
34
0
100
AcDbRotatedDimension
0
DIMENSION
5
264
100
AcDbEntity
8
dim
6
ByLayer
62
256
370
-1
100
AcDbDimension
2
*D15
10
187.8
20
90
30
0
11
178.9
21
91.875
31
0
70
32
71
5
3
Standard
53
0
210
0
220
0
230
1
100
AcDbAlignedDimension
13
170
23
77.6
33
0
14
187.8
24
77.6
34
0
100
AcDbRotatedDimension
0
DIMENSION
5
265
100
AcDbEntity
8
dim
6
ByLayer
62
256
370
-1
100
AcDbDimension
2
*D16
10
59.18162944
20
92.56828928
30
0
11
44.69030912
21
94.44328928
31
0
70
32
71
5
3
Standard
53
0
210
0
220
0
230
1
100
AcDbAlignedDimension
13
30.1989888
23
83.08916224
33
0
14
59.18162944
24
83.00527616
34
0
100
AcDbRotatedDimension
0
DIMENSION
5
266
100
AcDbEntity
8
dim
6
ByLayer
62
256
370
-1
100
AcDbDimension
2
*D17
10
30.1989888
20
62.03375616
30
0
11
27.4494944
21
63.90875616
31
0
70
32
71
5
3
Standard
53
0
210
0
220
0
230
1
100
AcDbAlignedDimension
13
24.7
23
76.5
33
0
14
30.1989888
24
76.46216192
34
0
100
AcDbRotatedDimension
0
DIMENSION
5
267
100
AcDbEntity
8
dim
6
ByLayer
62
256
370
-1
100
AcDbDimension
2
*D18
10
59.1949572604
20
62.008590336
30
0
11
61.9474786302
21
63.883590336
31
0
70
32
71
5
3
Standard
53
0
210
0
220
0
230
1
100
AcDbAlignedDimension
13
64.7
23
76.5
33
0
14
59.1949572604
24
76.5534970839
34
0
100
AcDbRotatedDimension
0
DIMENSION
5
268
100
AcDbEntity
8
dim
6
ByLayer
62
256
370
-1
100
AcDbDimension
2
*D19
10
30.1989888
20
92.61023232
30
0
11
16.0994944
21
94.48523232
31
0
70
32
71
5
3
Standard
53
0
210
0
220
0
230
1
100
AcDbAlignedDimension
13
2
23
85
33
0
14
30.1989888
24
84.17968128
34
0
100
AcDbRotatedDimension
0
DIMENSION
5
269
100
AcDbEntity
8
dim
6
ByLayer
62
256
370
-1
100
AcDbDimension
2
*D20
10
170
20
110
30
0
11
86
21
111.875
31
0
70
32
71
5
3
Standard
53
0
210
0
220
0
230
1
100
AcDbAlignedDimension
13
2
23
88
33
0
14
170
24
77.6
34
0
100
AcDbRotatedDimension
0
DIMENSION
5
26A
100
AcDbEntity
8
dim
6
ByLayer
62
256
370
-1
100
AcDbDimension
2
*D21
10
328
20
42
30
0
11
301
21
43.875
31
0
70
32
71
5
3
Standard
53
0
210
0
220
0
230
1
100
AcDbAlignedDimension
13
274
23
50.8
33
0
14
328
24
51
34
0
100
AcDbRotatedDimension
0
DIMENSION
5
26B
100
AcDbEntity
8
dim
6
ByLayer
62
256
370
-1
100
AcDbDimension
2
*D22
10
309.9
20
90
30
0
11
291.95
21
91.875
31
0
70
32
71
5
3
Standard
53
0
210
0
220
0
230
1
100
AcDbAlignedDimension
13
274
23
50.8
33
0
14
309.9
24
86.7
34
0
100
AcDbRotatedDimension
0
DIMENSION
5
26C
100
AcDbEntity
8
dim
6
ByLayer
62
256
370
-1
100
AcDbDimension
2
*D23
10
274
20
90
30
0
11
256.25
21
91.875
31
0
70
32
71
5
3
Standard
53
0
210
0
220
0
230
1
100
AcDbAlignedDimension
13
238.5
23
86.7
33
0
14
274
24
50.8
34
0
100
AcDbRotatedDimension
0
DIMENSION
5
26D
100
AcDbEntity
8
dim
6
ByLayer
62
256
370
-1
100
AcDbDimension
2
*D24
10
238.5
20
10
30
0
11
256.25
21
11.875
31
0
70
32
71
5
3
Standard
53
0
210
0
220
0
230
1
100
AcDbAlignedDimension
13
274
23
50.8
33
0
14
238.5
24
15
34
0
100
AcDbRotatedDimension
0
DIMENSION
5
26E
100
AcDbEntity
8
dim
6
ByLayer
62
256
370
-1
100
AcDbDimension
2
*D25
10
309.9
20
10
30
0
11
291.95
21
11.875
31
0
70
32
71
5
3
Standard
53
0
210
0
220
0
230
1
100
AcDbAlignedDimension
13
274
23
50.8
33
0
14
309.9
24
15
34
0
100
AcDbRotatedDimension
0
DIMENSION
5
26F
100
AcDbEntity
8
dim
6
ByLayer
62
256
370
-1
100
AcDbDimension
2
*D26
10
334.2
20
101.6
30
0
11
332.325
21
100.6
31
0
70
32
71
5
3
Standard
53
0
210
0
220
0
230
1
100
AcDbAlignedDimension
13
329.8
23
99.6
33
0
14
329.7
24
101.6
34
0
50
90
100
AcDbRotatedDimension
0
DIMENSION
5
270
100
AcDbEntity
8
dim
6
ByLayer
62
256
370
-1
100
AcDbDimension
2
*D27
10
340
20
-7.45192824094e-14
30
0
11
338.125
21
49.8
31
0
70
32
71
5
3
Standard
53
0
210
0
220
0
230
1
100
AcDbAlignedDimension
13
330.2
23
99.6
33
0
14
330.2
24
-7.33191285462e-14
34
0
50
90
100
AcDbRotatedDimension
0
DIMENSION
5
271
100
AcDbEntity
8
dim
6
ByLayer
62
256
370
-1
100
AcDbDimension
2
*D28
10
220
20
6.12323399574e-15
30
0
11
218.125
21
25.4
31
0
70
32
71
5
3
Standard
53
0
210
0
220
0
230
1
100
AcDbAlignedDimension
13
274
23
50.8
33
0
14
270
24
0
34
0
50
90
100
AcDbRotatedDimension
0
DIMENSION
5
272
100
AcDbEntity
8
dim
6
ByLayer
62
256
370
-1
100
AcDbDimension
2
*D29
10
220
20
86.7
30
0
11
218.125
21
68.75
31
0
70
32
71
5
3
Standard
53
0
210
0
220
0
230
1
100
AcDbAlignedDimension
13
274
23
50.8
33
0
14
238.5
24
86.7
34
0
50
90
100
AcDbRotatedDimension
0
DIMENSION
5
273
100
AcDbEntity
8
dim
6
ByLayer
62
256
370
-1
100
AcDbDimension
2
*D30
10
320
20
86.7
30
0
11
318.125
21
68.75
31
0
70
32
71
5
3
Standard
53
0
210
0
220
0
230
1
100
AcDbAlignedDimension
13
274
23
50.8
33
0
14
309.9
24
86.7
34
0
50
90
100
AcDbRotatedDimension
0
DIMENSION
5
274
100
AcDbEntity
8
dim
6
ByLayer
62
256
370
-1
100
AcDbDimension
2
*D31
10
320
20
15
30
0
11
318.125
21
32.9
31
0
70
32
71
5
3
Standard
53
0
210
0
220
0
230
1
100
AcDbAlignedDimension
13
274
23
50.8
33
0
14
309.9
24
15
34
0
50
90
100
AcDbRotatedDimension
0
DIMENSION
5
275
100
AcDbEntity
8
dim
6
ByLayer
62
256
370
-1
100
AcDbDimension
2
*D32
10
230
20
15
30
0
11
228.125
21
32.9
31
0
70
32
71
5
3
Standard
53
0
210
0
220
0
230
1
100
AcDbAlignedDimension
13
274
23
50.8
33
0
14
238.5
24
15
34
0
50
90
100
AcDbRotatedDimension
0
DIMENSION
5
276
100
AcDbEntity
8
dim
6
ByLayer
62
256
370
-1
100
AcDbDimension
2
*D33
10
198
20
99.6
30
0
11
196.125
21
86.7
31
0
70
32
71
5
3
Standard
53
0
210
0
220
0
230
1
100
AcDbAlignedDimension
13
192.7
23
73.8
33
0
14
193
24
99.6
34
0
50
90
100
AcDbRotatedDimension
0
DIMENSION
5
277
100
AcDbEntity
8
dim
6
ByLayer
62
256
370
-1
100
AcDbDimension
2
*D34
10
187.8
20
60
30
0
11
190.25
21
61.875
31
0
70
32
71
5
3
Standard
53
0
210
0
220
0
230
1
100
AcDbAlignedDimension
13
192.7
23
73.8
33
0
14
187.8
24
77.6
34
0
100
AcDbRotatedDimension
0
DIMENSION
5
278
100
AcDbEntity
8
dim
6
ByLayer
62
256
370
-1
100
AcDbDimension
2
*D35
10
170
20
60
30
0
11
167.55
21
61.875
31
0
70
32
71
5
3
Standard
53
0
210
0
220
0
230
1
100
AcDbAlignedDimension
13
165.1
23
73.8
33
0
14
170
24
70
34
0
100
AcDbRotatedDimension
0
DIMENSION
5
279
100
AcDbEntity
8
dim
6
ByLayer
62
256
370
-1
100
AcDbDimension
2
*D36
10
70
20
99.6
30
0
11
68.125
21
88.05
31
0
70
32
71
5
3
Standard
53
0
210
0
220
0
230
1
100
AcDbAlignedDimension
13
64.7
23
76.5
33
0
14
72.4
24
99.6
34
0
50
90
100
AcDbRotatedDimension
0
DIMENSION
5
27A
100
AcDbEntity
8
dim
6
ByLayer
62
256
370
-1
100
AcDbDimension
2
*D37
10
10
20
66
30
0
11
8.125
21
76.5
31
0
70
32
71
5
3
Standard
53
0
210
0
220
0
230
1
100
AcDbAlignedDimension
13
54
23
87
33
0
14
54
24
66
34
0
50
90
100
AcDbRotatedDimension
0
DIMENSION
5
27B
100
AcDbEntity
8
dim
6
ByLayer
62
256
370
-1
100
AcDbDimension
2
*D38
10
64
20
87
30
0
11
62.125
21
93.3
31
0
70
32
71
5
3
Standard
53
0
210
0
220
0
230
1
100
AcDbAlignedDimension
13
36
23
99.6
33
0
14
35
24
87
34
0
50
90
100
AcDbRotatedDimension
0
DIMENSION
5
27C
100
AcDbEntity
8
dim
6
ByLayer
62
256
370
-1
100
AcDbDimension
2
*D39
10
8
20
23
30
0
11
6.125
21
30.25
31
0
70
32
71
5
3
Standard
53
0
210
0
220
0
230
1
100
AcDbAlignedDimension
13
16.7
23
37.5
33
0
14
17
24
23
34
0
50
90
100
AcDbRotatedDimension
0
DIMENSION
5
27D
100
AcDbEntity
8
dim
6
ByLayer
62
256
370
-1
100
AcDbDimension
2
*D40
10
8
20
2.69422295812e-15
30
0
11
6.125
21
11.5
31
0
70
32
71
5
3
Standard
53
0
210
0
220
0
230
1
100
AcDbAlignedDimension
13
31
23
23
33
0
14
30
24
0
34
0
50
90
100
AcDbRotatedDimension
0
DIMENSION
5
27E
100
AcDbEntity
8
dim
6
ByLayer
62
256
370
-1
100
AcDbDimension
2
*D41
10
2
20
40
30
0
11
7.35
21
41.875
31
0
70
32
71
5
3
Standard
53
0
210
0
220
0
230
1
100
AcDbAlignedDimension
13
12.7
23
37
33
0
14
2
24
37
34
0
100
AcDbRotatedDimension
0
DIMENSION
5
27F
100
AcDbEntity
8
dim
6
ByLayer
62
256
370
-1
100
AcDbDimension
2
*D42
10
2
20
50
30
0
11
35.75
21
51.875
31
0
70
32
71
5
3
Standard
53
0
210
0
220
0
230
1
100
AcDbAlignedDimension
13
69.5
23
43
33
0
14
2
24
46
34
0
100
AcDbRotatedDimension
0
DIMENSION
5
280
100
AcDbEntity
8
dim
6
ByLayer
62
256
370
-1
100
AcDbDimension
2
*D43
10
62
20
28
30
0
11
60.125
21
14
31
0
70
32
71
5
3
Standard
53
0
210
0
220
0
230
1
100
AcDbAlignedDimension
13
80
23
0
33
0
14
80
24
28
34
0
50
90
100
AcDbRotatedDimension
0
DIMENSION
5
281
100
AcDbEntity
8
dim
6
ByLayer
62
256
370
-1
100
AcDbDimension
2
*D44
10
62
20
45
30
0
11
60.125
21
36.5
31
0
70
32
71
5
3
Standard
53
0
210
0
220
0
230
1
100
AcDbAlignedDimension
13
69.5
23
28
33
0
14
70
24
45
34
0
50
90
100
AcDbRotatedDimension
0
DIMENSION
5
282
100
AcDbEntity
8
dim
6
ByLayer
62
256
370
-1
100
AcDbDimension
2
*D45
10
129
20
37
30
0
11
127.125
21
41
31
0
70
32
71
5
3
Standard
53
0
210
0
220
0
230
1
100
AcDbAlignedDimension
13
124
23
45
33
0
14
124
24
37
34
0
50
90
100
AcDbRotatedDimension
0
DIMENSION
5
283
100
AcDbEntity
8
dim
6
ByLayer
62
256
370
-1
100
AcDbDimension
2
*D46
10
130
20
22
30
0
11
128.125
21
29.5
31
0
70
32
71
5
3
Standard
53
0
210
0
220
0
230
1
100
AcDbAlignedDimension
13
138.7
23
37
33
0
14
138.7
24
22
34
0
50
90
100
AcDbRotatedDimension
0
DIMENSION
5
284
100
AcDbEntity
8
dim
6
ByLayer
62
256
370
-1
100
AcDbDimension
2
*D47
10
190
20
22
30
0
11
188.125
21
29.5
31
0
70
32
71
5
3
Standard
53
0
210
0
220
0
230
1
100
AcDbAlignedDimension
13
186
23
37
33
0
14
186
24
22
34
0
50
90
100
AcDbRotatedDimension
0
DIMENSION
5
285
100
AcDbEntity
8
dim
6
ByLayer
62
256
370
-1
100
AcDbDimension
2
*D48
10
150
20
70
30
0
11
148.125
21
73.8
31
0
70
32
71
5
3
Standard
53
0
210
0
220
0
230
1
100
AcDbAlignedDimension
13
170
23
77.6
33
0
14
170
24
70
34
0
50
90
100
AcDbRotatedDimension
0
DIMENSION
5
286
100
AcDbEntity
8
dim
6
ByLayer
62
256
370
-1
100
AcDbDimension
2
*D49
10
230
20
1.22464679915e-15
30
0
11
228.125
21
7.5
31
0
70
32
71
5
3
Standard
53
0
210
0
220
0
230
1
100
AcDbAlignedDimension
13
238.5
23
15
33
0
14
240
24
0
34
0
50
90
100
AcDbRotatedDimension
0
DIMENSION
5
287
100
AcDbEntity
8
dim
6
ByLayer
62
256
370
-1
100
AcDbDimension
2
*D50
10
236.6
20
99.6
30
0
11
234.725
21
93.15
31
0
70
32
71
5
3
Standard
53
0
210
0
220
0
230
1
100
AcDbAlignedDimension
13
238.5
23
86.7
33
0
14
237.6
24
99.6
34
0
50
90
100
AcDbRotatedDimension
0
ENDSEC
0
SECTION
2
OBJECTS
0
DICTIONARY
5
C
330
0
100
AcDbDictionary
281
1
3
ACAD_GROUP
350
D
0
DICTIONARY
5
D
330
C
100
AcDbDictionary
281
1
0
ENDSEC
0
EOF
