999
dxfrw 0.5.11
0
SECTION
2
HEADER
9
$ACADVER
1
AC1021
9
$HANDSEED
5
20000
9
$DWGCODEPAGE
3
ANSI_1252
9
$INSBASE
10
0
20
0
30
0
9
$EXTMIN
10
-73.3154296875
20
1.9922944
30
0
9
$EXTMAX
10
328.2
20
415
30
0
9
$LIMMIN
10
0
20
0
9
$LIMMAX
10
420
20
297
9
$ORTHOMODE
70
0
9
$LTSCALE
40
1
9
$TEXTSTYLE
7
STANDARD
9
$CLAYER
8
cut
9
$DIMASZ
40
2.5
9
$DIMLFAC
40
1
9
$DIMSCALE
40
1
9
$DIMEXO
40
0.625
9
$DIMEXE
40
1.25
9
$DIMTXT
40
2.5
9
$DIMTSZ
40
0
9
$DIMAUNIT
70
0
9
$DIMADEC
70
0
9
$DIMLUNIT
70
2
9
$DIMSTYLE
2
Standard
9
$DIMGAP
40
0.625
9
$DIMTIH
70
0
9
$LUNITS
70
2
9
$LUPREC
70
4
9
$AUNITS
70
0
9
$AUPREC
70
2
9
$SPLINESEGS
70
8
9
$SNAPSTYLE
70
0
9
$PINSBASE
10
0
20
0
30
0
9
$PLIMMIN
10
0
20
0
9
$PLIMMAX
10
210
20
297
9
$INSUNITS
70
4
9
$PSVPSCALE
40
1
0
ENDSEC
0
SECTION
2
CLASSES
0
ENDSEC
0
SECTION
2
TABLES
0
TABLE
2
VPORT
5
8
330
0
100
AcDbSymbolTable
70
1
0
VPORT
5
31
330
2
100
AcDbSymbolTableRecord
100
AcDbViewportTableRecord
2
*ACTIVE
70
0
10
0
20
0
11
1
21
1
12
283.813476563
22
242.99621582
13
0
23
0
14
10
24
10
15
10
25
10
16
0
26
0
36
1
17
0
27
0
37
0
40
553.131103516
41
1.90482758621
42
50
43
0
44
0
50
0
51
0
71
0
72
100
73
1
74
3
75
0
76
1
77
0
78
0
281
0
65
1
110
0
120
0
130
0
111
1
121
0
131
0
112
0
122
1
132
0
79
0
146
0
348
10020
60
7
61
5
292
1
282
1
141
0
142
0
63
250
421
3358443
0
ENDTAB
0
TABLE
2
LTYPE
5
5
330
0
100
AcDbSymbolTable
70
4
0
LTYPE
5
14
330
5
100
AcDbSymbolTableRecord
100
AcDbLinetypeTableRecord
2
ByBlock
70
0
3

72
65
73
0
40
0
0
LTYPE
5
15
330
5
100
AcDbSymbolTableRecord
100
AcDbLinetypeTableRecord
2
ByLayer
70
0
3

72
65
73
0
40
0
0
LTYPE
5
16
330
5
100
AcDbSymbolTableRecord
100
AcDbLinetypeTableRecord
2
Continuous
70
0
3
Solid line
72
65
73
0
40
0
0
LTYPE
5
32
330
5
100
AcDbSymbolTableRecord
100
AcDbLinetypeTableRecord
2
DOT
70
0
3
Dot . . . . . . . . . . . . . . . . . . . . . .
72
65
73
2
40
6.35
49
0
74
0
49
-6.35
74
0
0
LTYPE
5
33
330
5
100
AcDbSymbolTableRecord
100
AcDbLinetypeTableRecord
2
DOT2
70
0
3
Dot (.5x) .....................................
72
65
73
2
40
3.175
49
0
74
0
49
-3.175
74
0
0
LTYPE
5
34
330
5
100
AcDbSymbolTableRecord
100
AcDbLinetypeTableRecord
2
DOTX2
70
0
3
Dot (2x) .  .  .  .  .  .  .  .  .  .  .  .  .
72
65
73
2
40
12.7
49
0
74
0
49
-12.7
74
0
0
LTYPE
5
35
330
5
100
AcDbSymbolTableRecord
100
AcDbLinetypeTableRecord
2
DASHED
70
0
3
Dot . . . . . . . . . . . . . . . . . . . . . .
72
65
73
2
40
19.05
49
12.7
74
0
49
-6.35
74
0
0
LTYPE
5
36
330
5
100
AcDbSymbolTableRecord
100
AcDbLinetypeTableRecord
2
DASHED2
70
0
3
Dashed (.5x) _ _ _ _ _ _ _ _ _ _ _ _ _ _ _ _ _
72
65
73
2
40
9.525
49
6.35
74
0
49
-3.175
74
0
0
LTYPE
5
37
330
5
100
AcDbSymbolTableRecord
100
AcDbLinetypeTableRecord
2
DASHEDX2
70
0
3
Dashed (2x) ____  ____  ____  ____  ____  ___
72
65
73
2
40
38.1
49
25.4
74
0
49
-12.7
74
0
0
LTYPE
5
38
330
5
100
AcDbSymbolTableRecord
100
AcDbLinetypeTableRecord
2
DASHDOT
70
0
3
Dash dot __ . __ . __ . __ . __ . __ . __ . __
72
65
73
4
40
25.4
49
12.7
74
0
49
-6.35
74
0
49
0
74
0
49
-6.35
74
0
0
LTYPE
5
39
330
5
100
AcDbSymbolTableRecord
100
AcDbLinetypeTableRecord
2
DASHDOT2
70
0
3
Dash dot (.5x) _._._._._._._._._._._._._._._.
72
65
73
4
40
12.7
49
6.35
74
0
49
-3.175
74
0
49
0
74
0
49
-3.175
74
0
0
LTYPE
5
3A
330
5
100
AcDbSymbolTableRecord
100
AcDbLinetypeTableRecord
2
DASHDOTX2
70
0
3
Dash dot (2x) ____  .  ____  .  ____  .  ___
72
65
73
4
40
50.8
49
25.4
74
0
49
-12.7
74
0
49
0
74
0
49
-12.7
74
0
0
LTYPE
5
3B
330
5
100
AcDbSymbolTableRecord
100
AcDbLinetypeTableRecord
2
DIVIDE
70
0
3
Divide ____ . . ____ . . ____ . . ____ . . ____
72
65
73
6
40
31.75
49
12.7
74
0
49
-6.35
74
0
49
0
74
0
49
-6.35
74
0
49
0
74
0
49
-6.35
74
0
0
LTYPE
5
3C
330
5
100
AcDbSymbolTableRecord
100
AcDbLinetypeTableRecord
2
DIVIDE2
70
0
3
Divide (.5x) __..__..__..__..__..__..__..__.._
72
65
73
6
40
15.875
49
6.35
74
0
49
-3.175
74
0
49
0
74
0
49
-3.175
74
0
49
0
74
0
49
-3.175
74
0
0
LTYPE
5
3D
330
5
100
AcDbSymbolTableRecord
100
AcDbLinetypeTableRecord
2
DIVIDEX2
70
0
3
Divide (2x) ________  .  .  ________  .  .  _
72
65
73
6
40
63.5
49
25.4
74
0
49
-12.7
74
0
49
0
74
0
49
-12.7
74
0
49
0
74
0
49
-12.7
74
0
0
LTYPE
5
3E
330
5
100
AcDbSymbolTableRecord
100
AcDbLinetypeTableRecord
2
BORDER
70
0
3
Border __ __ . __ __ . __ __ . __ __ . __ __ .
72
65
73
6
40
44.45
49
12.7
74
0
49
-6.35
74
0
49
12.7
74
0
49
-6.35
74
0
49
0
74
0
49
-6.35
74
0
0
LTYPE
5
3F
330
5
100
AcDbSymbolTableRecord
100
AcDbLinetypeTableRecord
2
BORDER2
70
0
3
Border (.5x) __.__.__.__.__.__.__.__.__.__.__.
72
65
73
6
40
22.225
49
6.35
74
0
49
-3.175
74
0
49
6.35
74
0
49
-3.175
74
0
49
0
74
0
49
-3.175
74
0
0
LTYPE
5
40
330
5
100
AcDbSymbolTableRecord
100
AcDbLinetypeTableRecord
2
BORDERX2
70
0
3
Border (2x) ____  ____  .  ____  ____  .  ___
72
65
73
6
40
88.9
49
25.4
74
0
49
-12.7
74
0
49
25.4
74
0
49
-12.7
74
0
49
0
74
0
49
-12.7
74
0
0
LTYPE
5
41
330
5
100
AcDbSymbolTableRecord
100
AcDbLinetypeTableRecord
2
CENTER
70
0
3
Center ____ _ ____ _ ____ _ ____ _ ____ _ ____
72
65
73
4
40
50.8
49
31.75
74
0
49
-6.35
74
0
49
6.35
74
0
49
-6.35
74
0
0
LTYPE
5
42
330
5
100
AcDbSymbolTableRecord
100
AcDbLinetypeTableRecord
2
CENTER2
70
0
3
Center (.5x) ___ _ ___ _ ___ _ ___ _ ___ _ ___
72
65
73
4
40
28.575
49
19.05
74
0
49
-3.175
74
0
49
3.175
74
0
49
-3.175
74
0
0
LTYPE
5
43
330
5
100
AcDbSymbolTableRecord
100
AcDbLinetypeTableRecord
2
CENTERX2
70
0
3
Center (2x) ________  __  ________  __  _____
72
65
73
4
40
101.6
49
63.5
74
0
49
-12.7
74
0
49
12.7
74
0
49
-12.7
74
0
0
ENDTAB
0
TABLE
2
LAYER
5
2
330
0
100
AcDbSymbolTable
70
1
0
LAYER
5
10
330
2
100
AcDbSymbolTableRecord
100
AcDbLayerTableRecord
2
0
70
0
62
7
6
CONTINUOUS
370
-3
390
F
0
LAYER
5
44
330
2
100
AcDbSymbolTableRecord
100
AcDbLayerTableRecord
2
Notes
70
0
62
1
6
CONTINUOUS
370
0
390
F
0
LAYER
5
45
330
2
100
AcDbSymbolTableRecord
100
AcDbLayerTableRecord
2
cut
70
0
62
7
6
CONTINUOUS
370
0
390
F
0
LAYER
5
46
330
2
100
AcDbSymbolTableRecord
100
AcDbLayerTableRecord
2
dim
70
0
62
6
6
CONTINUOUS
370
0
390
F
0
ENDTAB
0
TABLE
2
STYLE
5
3
330
0
100
AcDbSymbolTable
70
3
0
STYLE
5
47
330
2
100
AcDbSymbolTableRecord
100
AcDbTextStyleTableRecord
2
standard
70
0
40
0
41
1
50
0
71
0
42
1
3
standard
4

0
ENDTAB
0
TABLE
2
VIEW
5
6
330
0
100
AcDbSymbolTable
70
0
0
ENDTAB
0
TABLE
2
UCS
5
7
330
0
100
AcDbSymbolTable
70
0
0
ENDTAB
0
TABLE
2
APPID
5
9
330
0
100
AcDbSymbolTable
70
1
0
APPID
5
12
330
9
100
AcDbSymbolTableRecord
100
AcDbRegAppTableRecord
2
ACAD
70
0
0
ENDTAB
0
TABLE
2
DIMSTYLE
5
A
330
0
100
AcDbSymbolTable
70
1
100
AcDbDimStyleTable
71
1
0
DIMSTYLE
105
48
330
A
100
AcDbSymbolTableRecord
100
AcDbDimStyleTableRecord
2
Standard
70
0
40
1
41
2.5
42
0.625
43
0.38
44
1.25
45
0
46
0
47
0
48
0
140
2.5
141
0.09
142
0
143
25.4
144
1
145
0
146
1
147
0.625
148
0
71
0
72
0
73
0
74
1
75
0
76
0
77
0
78
0
79
0
170
0
171
2
172
0
173
0
174
0
175
0
176
0
177
0
178
0
179
0
271
4
272
4
273
2
274
2
275
0
276
0
277
2
278
46
279
0
280
0
281
0
282
0
283
1
284
0
285
0
286
0
288
0
289
3
340
Standard
341

371
-2
372
-2
0
ENDTAB
0
TABLE
2
BLOCK_RECORD
5
1
330
0
100
AcDbSymbolTable
70
2
0
BLOCK_RECORD
5
1F
330
1
100
AcDbSymbolTableRecord
100
AcDbBlockTableRecord
2
*Model_Space
70
0
280
1
281
0
0
BLOCK_RECORD
5
1E
330
1
100
AcDbSymbolTableRecord
100
AcDbBlockTableRecord
2
*Paper_Space
70
0
280
1
281
0
0
BLOCK_RECORD
5
49
330
1
100
AcDbSymbolTableRecord
100
AcDbBlockTableRecord
2
*D3
70
0
280
1
281
0
0
BLOCK_RECORD
5
4C
330
1
100
AcDbSymbolTableRecord
100
AcDbBlockTableRecord
2
*D23
70
0
280
1
281
0
0
BLOCK_RECORD
5
4F
330
1
100
AcDbSymbolTableRecord
100
AcDbBlockTableRecord
2
*D29
70
0
280
1
281
0
0
BLOCK_RECORD
5
52
330
1
100
AcDbSymbolTableRecord
100
AcDbBlockTableRecord
2
*D1
70
0
280
1
281
0
0
BLOCK_RECORD
5
55
330
1
100
AcDbSymbolTableRecord
100
AcDbBlockTableRecord
2
*D11
70
0
280
1
281
0
0
BLOCK_RECORD
5
58
330
1
100
AcDbSymbolTableRecord
100
AcDbBlockTableRecord
2
*D10
70
0
280
1
281
0
0
BLOCK_RECORD
5
5B
330
1
100
AcDbSymbolTableRecord
100
AcDbBlockTableRecord
2
*D7
70
0
280
1
281
0
0
BLOCK_RECORD
5
5E
330
1
100
AcDbSymbolTableRecord
100
AcDbBlockTableRecord
2
*D2
70
0
280
1
281
0
0
BLOCK_RECORD
5
61
330
1
100
AcDbSymbolTableRecord
100
AcDbBlockTableRecord
2
*D5
70
0
280
1
281
0
0
BLOCK_RECORD
5
64
330
1
100
AcDbSymbolTableRecord
100
AcDbBlockTableRecord
2
*D22
70
0
280
1
281
0
0
BLOCK_RECORD
5
67
330
1
100
AcDbSymbolTableRecord
100
AcDbBlockTableRecord
2
*D14
70
0
280
1
281
0
0
BLOCK_RECORD
5
6A
330
1
100
AcDbSymbolTableRecord
100
AcDbBlockTableRecord
2
*D16
70
0
280
1
281
0
0
BLOCK_RECORD
5
6D
330
1
100
AcDbSymbolTableRecord
100
AcDbBlockTableRecord
2
*D4
70
0
280
1
281
0
0
BLOCK_RECORD
5
70
330
1
100
AcDbSymbolTableRecord
100
AcDbBlockTableRecord
2
*D6
70
0
280
1
281
0
0
BLOCK_RECORD
5
73
330
1
100
AcDbSymbolTableRecord
100
AcDbBlockTableRecord
2
*D12
70
0
280
1
281
0
0
BLOCK_RECORD
5
76
330
1
100
AcDbSymbolTableRecord
100
AcDbBlockTableRecord
2
*D17
70
0
280
1
281
0
0
BLOCK_RECORD
5
79
330
1
100
AcDbSymbolTableRecord
100
AcDbBlockTableRecord
2
*D24
70
0
280
1
281
0
0
BLOCK_RECORD
5
7C
330
1
100
AcDbSymbolTableRecord
100
AcDbBlockTableRecord
2
*D30
70
0
280
1
281
0
0
BLOCK_RECORD
5
7F
330
1
100
AcDbSymbolTableRecord
100
AcDbBlockTableRecord
2
*D19
70
0
280
1
281
0
0
BLOCK_RECORD
5
82
330
1
100
AcDbSymbolTableRecord
100
AcDbBlockTableRecord
2
*D25
70
0
280
1
281
0
0
BLOCK_RECORD
5
85
330
1
100
AcDbSymbolTableRecord
100
AcDbBlockTableRecord
2
*D21
70
0
280
1
281
0
0
BLOCK_RECORD
5
88
330
1
100
AcDbSymbolTableRecord
100
AcDbBlockTableRecord
2
*D8
70
0
280
1
281
0
0
BLOCK_RECORD
5
8B
330
1
100
AcDbSymbolTableRecord
100
AcDbBlockTableRecord
2
*D18
70
0
280
1
281
0
0
BLOCK_RECORD
5
8E
330
1
100
AcDbSymbolTableRecord
100
AcDbBlockTableRecord
2
*D26
70
0
280
1
281
0
0
BLOCK_RECORD
5
91
330
1
100
AcDbSymbolTableRecord
100
AcDbBlockTableRecord
2
*D28
70
0
280
1
281
0
0
BLOCK_RECORD
5
94
330
1
100
AcDbSymbolTableRecord
100
AcDbBlockTableRecord
2
*D20
70
0
280
1
281
0
0
BLOCK_RECORD
5
97
330
1
100
AcDbSymbolTableRecord
100
AcDbBlockTableRecord
2
*D15
70
0
280
1
281
0
0
BLOCK_RECORD
5
9A
330
1
100
AcDbSymbolTableRecord
100
AcDbBlockTableRecord
2
*D27
70
0
280
1
281
0
0
BLOCK_RECORD
5
9D
330
1
100
AcDbSymbolTableRecord
100
AcDbBlockTableRecord
2
*D9
70
0
280
1
281
0
0
BLOCK_RECORD
5
A0
330
1
100
AcDbSymbolTableRecord
100
AcDbBlockTableRecord
2
*D13
70
0
280
1
281
0
0
BLOCK_RECORD
5
A3
330
1
100
AcDbSymbolTableRecord
100
AcDbBlockTableRecord
2
SHAPE2DVIEW
70
0
280
1
281
0
0
ENDTAB
0
ENDSEC
0
SECTION
2
BLOCKS
0
BLOCK
5
20
330
1F
100
AcDbEntity
8
0
100
AcDbBlockBegin
2
*Model_Space
70
0
10
0
20
0
30
0
3
*Model_Space
1

0
ENDBLK
5
21
330
1F
100
AcDbEntity
8
0
100
AcDbBlockEnd
0
BLOCK
5
1C
330
1B
100
AcDbEntity
8
0
100
AcDbBlockBegin
2
*Paper_Space
70
0
10
0
20
0
30
0
3
*Paper_Space
1

0
ENDBLK
5
1D
330
1F
100
AcDbEntity
8
0
100
AcDbBlockEnd
0
BLOCK
5
4A
330
49
100
AcDbEntity
8
0
100
AcDbBlockBegin
2
*D3
70
1
10
0
20
0
3
*D3
1

0
LINE
5
A6
100
AcDbEntity
8
dim
6
CONTINUOUS
62
7
370
0
100
AcDbLine
10
32.3485696
20
25.4
11
32.3485696
21
1.9922944
0
SOLID
5
A7
100
AcDbEntity
8
dim
6
CONTINUOUS
62
7
370
0
100
AcDbTrace
10
32.3485696
20
25.4
30
0
11
32.7648542578
21
22.9
31
0
12
31.9322849422
22
22.9
32
0
13
31.9322849422
23
22.9
33
0
0
SOLID
5
A8
100
AcDbEntity
8
dim
6
CONTINUOUS
62
7
370
0
100
AcDbTrace
10
32.3485696
20
1.9922944
30
0
11
31.9322849422
21
4.4922944
31
0
12
32.7648542578
22
4.4922944
32
0
13
32.7648542578
23
4.4922944
33
0
0
MTEXT
5
A9
100
AcDbEntity
8
dim
6
CONTINUOUS
62
7
370
0
100
AcDbMText
10
30.4735696
20
13.6961472
30
0
40
2.5
41
11.9444444444
71
5
72
1
1
23.4077
7
standard
210
0
220
0
230
1
50
90
73
2
44
1
0
LINE
5
AA
100
AcDbEntity
8
dim
6
CONTINUOUS
62
7
370
0
100
AcDbLine
10
26.025
20
25.4
11
33.5985696
21
25.4
0
LINE
5
AB
100
AcDbEntity
8
dim
6
CONTINUOUS
62
7
370
0
100
AcDbLine
10
25.8956816
20
1.9922944
11
33.5985696
21
1.9922944
0
ENDBLK
5
4B
330
49
100
AcDbEntity
8
0
100
AcDbBlockEnd
0
BLOCK
5
4D
330
4C
100
AcDbEntity
8
0
100
AcDbBlockBegin
2
*D23
70
1
10
0
20
0
3
*D23
1

0
LINE
5
AC
100
AcDbEntity
8
dim
6
CONTINUOUS
62
7
370
0
100
AcDbLine
10
70.5
20
68
11
1.92
21
68
0
SOLID
5
AD
100
AcDbEntity
8
dim
6
CONTINUOUS
62
7
370
0
100
AcDbTrace
10
70.5
20
68
30
0
11
68
21
67.5837153422
31
0
12
68
22
68.4162846578
32
0
13
68
23
68.4162846578
33
0
0
SOLID
5
AE
100
AcDbEntity
8
dim
6
CONTINUOUS
62
7
370
0
100
AcDbTrace
10
1.92
20
68
30
0
11
4.42
21
68.4162846578
31
0
12
4.42
22
67.5837153422
32
0
13
4.42
23
67.5837153422
33
0
0
MTEXT
5
AF
100
AcDbEntity
8
dim
6
CONTINUOUS
62
7
370
0
100
AcDbMText
10
36.21
20
69.875
30
0
40
2.5
41
7.77777777778
71
5
72
1
1
68.58
7
standard
210
0
220
0
230
1
50
360
73
2
44
1
0
LINE
5
B0
100
AcDbEntity
8
dim
6
CONTINUOUS
62
7
370
0
100
AcDbLine
10
70.5
20
74.375
11
70.5
21
66.75
0
LINE
5
B1
100
AcDbEntity
8
dim
6
CONTINUOUS
62
7
370
0
100
AcDbLine
10
1.92
20
74.575
11
1.92
21
66.75
0
ENDBLK
5
4E
330
4C
100
AcDbEntity
8
0
100
AcDbBlockEnd
0
BLOCK
5
50
330
4F
100
AcDbEntity
8
0
100
AcDbBlockBegin
2
*D29
70
1
10
0
20
0
3
*D29
1

0
LINE
5
B2
100
AcDbEntity
8
dim
6
CONTINUOUS
62
7
370
0
100
AcDbLine
10
238.85
20
34.89792
11
328.17152
21
34.89792
0
SOLID
5
B3
100
AcDbEntity
8
dim
6
CONTINUOUS
62
7
370
0
100
AcDbTrace
10
238.85
20
34.89792
30
0
11
241.35
21
35.3142046578
31
0
12
241.35
22
34.4816353422
32
0
13
241.35
23
34.4816353422
33
0
0
SOLID
5
B4
100
AcDbEntity
8
dim
6
CONTINUOUS
62
7
370
0
100
AcDbTrace
10
328.17152
20
34.89792
30
0
11
325.67152
21
34.4816353422
31
0
12
325.67152
22
35.3142046578
32
0
13
325.67152
23
35.3142046578
33
0
0
MTEXT
5
B5
100
AcDbEntity
8
dim
6
CONTINUOUS
62
7
370
0
100
AcDbMText
10
283.51076
20
36.77292
30
0
40
2.5
41
11.1111111111
71
5
72
1
1
89.3215
7
standard
210
0
220
0
230
1
50
0
73
2
44
1
0
LINE
5
B6
100
AcDbEntity
8
dim
6
CONTINUOUS
62
7
370
0
100
AcDbLine
10
238.85
20
23.175
11
238.85
21
36.14792
0
LINE
5
B7
100
AcDbEntity
8
dim
6
CONTINUOUS
62
7
370
0
100
AcDbLine
10
328.17152
20
23.07108
11
328.17152
21
36.14792
0
ENDBLK
5
51
330
4F
100
AcDbEntity
8
0
100
AcDbBlockEnd
0
BLOCK
5
53
330
52
100
AcDbEntity
8
0
100
AcDbBlockBegin
2
*D1
70
1
10
0
20
0
3
*D1
1

0
LINE
5
B8
100
AcDbEntity
8
dim
6
CONTINUOUS
62
7
370
0
100
AcDbLine
10
-70.1904296875
20
328.2
11
-70.1904296875
21
2
0
SOLID
5
B9
100
AcDbEntity
8
dim
6
CONTINUOUS
62
7
370
0
100
AcDbTrace
10
-70.1904296875
20
328.2
30
0
11
-69.7741450297
21
325.7
31
0
12
-70.6067143453
22
325.7
32
0
13
-70.6067143453
23
325.7
33
0
0
SOLID
5
BA
100
AcDbEntity
8
dim
6
CONTINUOUS
62
7
370
0
100
AcDbTrace
10
-70.1904296875
20
2
30
0
11
-70.6067143453
21
4.5
31
0
12
-69.7741450297
22
4.5
32
0
13
-69.7741450297
23
4.5
33
0
0
MTEXT
5
BB
100
AcDbEntity
8
dim
6
CONTINUOUS
62
7
370
0
100
AcDbMText
10
-72.0654296875
20
165.1
30
0
40
2.5
41
7.77777777778
71
5
72
1
1
326.2
7
standard
210
0
220
0
230
1
50
90
73
2
44
1
0
LINE
5
BC
100
AcDbEntity
8
dim
6
CONTINUOUS
62
7
370
0
100
AcDbLine
10
1.375
20
328.2
11
-71.4404296875
21
328.2
0
LINE
5
BD
100
AcDbEntity
8
dim
6
CONTINUOUS
62
7
370
0
100
AcDbLine
10
1.375
20
2
11
-71.4404296875
21
2
0
ENDBLK
5
54
330
52
100
AcDbEntity
8
0
100
AcDbBlockEnd
0
BLOCK
5
56
330
55
100
AcDbEntity
8
0
100
AcDbBlockBegin
2
*D11
70
1
10
0
20
0
3
*D11
1

0
LINE
5
BE
100
AcDbEntity
8
dim
6
CONTINUOUS
62
7
370
0
100
AcDbLine
10
143.75
20
75
11
143.75
21
2
0
SOLID
5
BF
100
AcDbEntity
8
dim
6
CONTINUOUS
62
7
370
0
100
AcDbTrace
10
143.75
20
75
30
0
11
144.166284658
21
72.5
31
0
12
143.333715342
22
72.5
32
0
13
143.333715342
23
72.5
33
0
0
SOLID
5
C0
100
AcDbEntity
8
dim
6
CONTINUOUS
62
7
370
0
100
AcDbTrace
10
143.75
20
2
30
0
11
143.333715342
21
4.5
31
0
12
144.166284658
22
4.5
32
0
13
144.166284658
23
4.5
33
0
0
MTEXT
5
C1
100
AcDbEntity
8
dim
6
CONTINUOUS
62
7
370
0
100
AcDbMText
10
141.875
20
38.5
30
0
40
2.5
41
3.05555555556
71
5
72
1
1
73
7
standard
210
0
220
0
230
1
50
90
73
2
44
1
0
LINE
5
C2
100
AcDbEntity
8
dim
6
CONTINUOUS
62
7
370
0
100
AcDbLine
10
134.625
20
75
11
145
21
75
0
LINE
5
C3
100
AcDbEntity
8
dim
6
CONTINUOUS
62
7
370
0
100
AcDbLine
10
135.875
20
2
11
145
21
2
0
ENDBLK
5
57
330
55
100
AcDbEntity
8
0
100
AcDbBlockEnd
0
BLOCK
5
59
330
58
100
AcDbEntity
8
0
100
AcDbBlockBegin
2
*D10
70
1
10
0
20
0
3
*D10
1

0
LINE
5
C4
100
AcDbEntity
8
dim
6
CONTINUOUS
62
7
370
0
100
AcDbLine
10
117
20
85
11
117
21
2
0
SOLID
5
C5
100
AcDbEntity
8
dim
6
CONTINUOUS
62
7
370
0
100
AcDbTrace
10
117
20
85
30
0
11
117.416284658
21
82.5
31
0
12
116.583715342
22
82.5
32
0
13
116.583715342
23
82.5
33
0
0
SOLID
5
C6
100
AcDbEntity
8
dim
6
CONTINUOUS
62
7
370
0
100
AcDbTrace
10
117
20
2
30
0
11
116.583715342
21
4.5
31
0
12
117.416284658
22
4.5
32
0
13
117.416284658
23
4.5
33
0
0
MTEXT
5
C7
100
AcDbEntity
8
dim
6
CONTINUOUS
62
7
370
0
100
AcDbMText
10
115.125
20
43.5
30
0
40
2.5
41
3.05555555556
71
5
72
1
1
83
7
standard
210
0
220
0
230
1
50
90
73
2
44
1
0
LINE
5
C8
100
AcDbEntity
8
dim
6
CONTINUOUS
62
7
370
0
100
AcDbLine
10
125.375
20
85
11
115.75
21
85
0
LINE
5
C9
100
AcDbEntity
8
dim
6
CONTINUOUS
62
7
370
0
100
AcDbLine
10
126.875
20
2
11
115.75
21
2
0
ENDBLK
5
5A
330
58
100
AcDbEntity
8
0
100
AcDbBlockEnd
0
BLOCK
5
5C
330
5B
100
AcDbEntity
8
0
100
AcDbBlockBegin
2
*D7
70
1
10
0
20
0
3
*D7
1

0
LINE
5
CA
100
AcDbEntity
8
dim
6
CONTINUOUS
62
7
370
0
100
AcDbLine
10
308.9408
20
22.5
11
308.9408
21
2.048
0
SOLID
5
CB
100
AcDbEntity
8
dim
6
CONTINUOUS
62
7
370
0
100
AcDbTrace
10
308.9408
20
22.5
30
0
11
309.357084658
21
20
31
0
12
308.524515342
22
20
32
0
13
308.524515342
23
20
33
0
0
SOLID
5
CC
100
AcDbEntity
8
dim
6
CONTINUOUS
62
7
370
0
100
AcDbTrace
10
308.9408
20
2.048
30
0
11
308.524515342
21
4.548
31
0
12
309.357084658
22
4.548
32
0
13
309.357084658
23
4.548
33
0
0
MTEXT
5
CD
100
AcDbEntity
8
dim
6
CONTINUOUS
62
7
370
0
100
AcDbMText
10
307.0658
20
12.274
30
0
40
2.5
41
10
71
5
72
1
1
20.452
7
standard
210
0
220
0
230
1
50
90
73
2
44
1
0
LINE
5
CE
100
AcDbEntity
8
dim
6
CONTINUOUS
62
7
370
0
100
AcDbLine
10
314.175
20
22.5
11
307.6908
21
22.5
0
LINE
5
CF
100
AcDbEntity
8
dim
6
CONTINUOUS
62
7
370
0
100
AcDbLine
10
314.4598
20
2.048
11
307.6908
21
2.048
0
ENDBLK
5
5D
330
5B
100
AcDbEntity
8
0
100
AcDbBlockEnd
0
BLOCK
5
5F
330
5E
100
AcDbEntity
8
0
100
AcDbBlockBegin
2
*D2
70
1
10
0
20
0
3
*D2
1

0
LINE
5
D0
100
AcDbEntity
8
dim
6
CONTINUOUS
62
7
370
0
100
AcDbLine
10
2
20
360.107421875
11
328.2
21
360.107421875
0
SOLID
5
D1
100
AcDbEntity
8
dim
6
CONTINUOUS
62
7
370
0
100
AcDbTrace
10
2
20
360.107421875
30
0
11
4.5
21
360.523706533
31
0
12
4.5
22
359.691137217
32
0
13
4.5
23
359.691137217
33
0
0
SOLID
5
D2
100
AcDbEntity
8
dim
6
CONTINUOUS
62
7
370
0
100
AcDbTrace
10
328.2
20
360.107421875
30
0
11
325.7
21
359.691137217
31
0
12
325.7
22
360.523706533
32
0
13
325.7
23
360.523706533
33
0
0
MTEXT
5
D3
100
AcDbEntity
8
dim
6
CONTINUOUS
62
7
370
0
100
AcDbMText
10
165.1
20
361.982421875
30
0
40
2.5
41
7.77777777778
71
5
72
1
1
326.2
7
standard
210
0
220
0
230
1
50
0
73
2
44
1
0
LINE
5
D4
100
AcDbEntity
8
dim
6
CONTINUOUS
62
7
370
0
100
AcDbLine
10
2
20
328.825
11
2
21
361.357421875
0
LINE
5
D5
100
AcDbEntity
8
dim
6
CONTINUOUS
62
7
370
0
100
AcDbLine
10
328.2
20
328.825
11
328.2
21
361.357421875
0
ENDBLK
5
60
330
5E
100
AcDbEntity
8
0
100
AcDbBlockEnd
0
BLOCK
5
62
330
61
100
AcDbEntity
8
0
100
AcDbBlockBegin
2
*D5
70
1
10
0
20
0
3
*D5
1

0
LINE
5
D6
100
AcDbEntity
8
dim
6
CONTINUOUS
62
7
370
0
100
AcDbLine
10
248.9344
20
22.55
11
248.9344
21
2.048
0
SOLID
5
D7
100
AcDbEntity
8
dim
6
CONTINUOUS
62
7
370
0
100
AcDbTrace
10
248.9344
20
22.55
30
0
11
249.350684658
21
20.05
31
0
12
248.518115342
22
20.05
32
0
13
248.518115342
23
20.05
33
0
0
SOLID
5
D8
100
AcDbEntity
8
dim
6
CONTINUOUS
62
7
370
0
100
AcDbTrace
10
248.9344
20
2.048
30
0
11
248.518115342
21
4.548
31
0
12
249.350684658
22
4.548
32
0
13
249.350684658
23
4.548
33
0
0
MTEXT
5
D9
100
AcDbEntity
8
dim
6
CONTINUOUS
62
7
370
0
100
AcDbMText
10
247.0594
20
12.299
30
0
40
2.5
41
9.72222222222
71
5
72
1
1
20.502
7
standard
210
0
220
0
230
1
50
90
73
2
44
1
0
LINE
5
DA
100
AcDbEntity
8
dim
6
CONTINUOUS
62
7
370
0
100
AcDbLine
10
239.475
20
22.55
11
250.1844
21
22.55
0
LINE
5
DB
100
AcDbEntity
8
dim
6
CONTINUOUS
62
7
370
0
100
AcDbLine
10
239.4218
20
2.048
11
250.1844
21
2.048
0
ENDBLK
5
63
330
61
100
AcDbEntity
8
0
100
AcDbBlockEnd
0
BLOCK
5
65
330
64
100
AcDbEntity
8
0
100
AcDbBlockBegin
2
*D22
70
1
10
0
20
0
3
*D22
1

0
LINE
5
DC
100
AcDbEntity
8
dim
6
CONTINUOUS
62
7
370
0
100
AcDbLine
10
25.4
20
34.4
11
1.92
21
34.4
0
SOLID
5
DD
100
AcDbEntity
8
dim
6
CONTINUOUS
62
7
370
0
100
AcDbTrace
10
25.4
20
34.4
30
0
11
22.9
21
33.9837153422
31
0
12
22.9
22
34.8162846578
32
0
13
22.9
23
34.8162846578
33
0
0
SOLID
5
DE
100
AcDbEntity
8
dim
6
CONTINUOUS
62
7
370
0
100
AcDbTrace
10
1.92
20
34.4
30
0
11
4.42
21
34.8162846578
31
0
12
4.42
22
33.9837153422
32
0
13
4.42
23
33.9837153422
33
0
0
MTEXT
5
DF
100
AcDbEntity
8
dim
6
CONTINUOUS
62
7
370
0
100
AcDbMText
10
13.66
20
36.275
30
0
40
2.5
41
8.05555555556
71
5
72
1
1
23.48
7
standard
210
0
220
0
230
1
50
360
73
2
44
1
0
LINE
5
E0
100
AcDbEntity
8
dim
6
CONTINUOUS
62
7
370
0
100
AcDbLine
10
25.4
20
26.025
11
25.4
21
35.65
0
LINE
5
E1
100
AcDbEntity
8
dim
6
CONTINUOUS
62
7
370
0
100
AcDbLine
10
1.92
20
25.745
11
1.92
21
35.65
0
ENDBLK
5
66
330
64
100
AcDbEntity
8
0
100
AcDbBlockEnd
0
BLOCK
5
68
330
67
100
AcDbEntity
8
0
100
AcDbBlockBegin
2
*D14
70
1
10
0
20
0
3
*D14
1

0
LINE
5
E2
100
AcDbEntity
8
dim
6
CONTINUOUS
62
7
370
0
100
AcDbLine
10
220
20
191.8
11
220
21
2
0
SOLID
5
E3
100
AcDbEntity
8
dim
6
CONTINUOUS
62
7
370
0
100
AcDbTrace
10
220
20
191.8
30
0
11
220.416284658
21
189.3
31
0
12
219.583715342
22
189.3
32
0
13
219.583715342
23
189.3
33
0
0
SOLID
5
E4
100
AcDbEntity
8
dim
6
CONTINUOUS
62
7
370
0
100
AcDbTrace
10
220
20
2
30
0
11
219.583715342
21
4.5
31
0
12
220.416284658
22
4.5
32
0
13
220.416284658
23
4.5
33
0
0
MTEXT
5
E5
100
AcDbEntity
8
dim
6
CONTINUOUS
62
7
370
0
100
AcDbMText
10
218.125
20
96.9
30
0
40
2.5
41
7.22222222222
71
5
72
1
1
189.8
7
standard
210
0
220
0
230
1
50
90
73
2
44
1
0
LINE
5
E6
100
AcDbEntity
8
dim
6
CONTINUOUS
62
7
370
0
100
AcDbLine
10
211.785
20
191.8
11
221.25
21
191.8
0
LINE
5
E7
100
AcDbEntity
8
dim
6
CONTINUOUS
62
7
370
0
100
AcDbLine
10
212.625
20
2
11
221.25
21
2
0
ENDBLK
5
69
330
67
100
AcDbEntity
8
0
100
AcDbBlockEnd
0
BLOCK
5
6B
330
6A
100
AcDbEntity
8
0
100
AcDbBlockBegin
2
*D16
70
1
10
0
20
0
3
*D16
1

0
LINE
5
E8
100
AcDbEntity
8
dim
6
CONTINUOUS
62
7
370
0
100
AcDbLine
10
311.2
20
209.58
11
311.2
21
328.16
0
SOLID
5
E9
100
AcDbEntity
8
dim
6
CONTINUOUS
62
7
370
0
100
AcDbTrace
10
311.2
20
209.58
30
0
11
310.783715342
21
212.08
31
0
12
311.616284658
22
212.08
32
0
13
311.616284658
23
212.08
33
0
0
SOLID
5
EA
100
AcDbEntity
8
dim
6
CONTINUOUS
62
7
370
0
100
AcDbTrace
10
311.2
20
328.16
30
0
11
311.616284658
21
325.66
31
0
12
310.783715342
22
325.66
32
0
13
310.783715342
23
325.66
33
0
0
MTEXT
5
EB
100
AcDbEntity
8
dim
6
CONTINUOUS
62
7
370
0
100
AcDbMText
10
309.325
20
268.87
30
0
40
2.5
41
8.61111111111
71
5
72
1
1
118.58
7
standard
210
0
220
0
230
1
50
90
73
2
44
1
0
LINE
5
EC
100
AcDbEntity
8
dim
6
CONTINUOUS
62
7
370
0
100
AcDbLine
10
314.675
20
209.58
11
309.95
21
209.58
0
LINE
5
ED
100
AcDbEntity
8
dim
6
CONTINUOUS
62
7
370
0
100
AcDbLine
10
315.055
20
328.16
11
309.95
21
328.16
0
ENDBLK
5
6C
330
6A
100
AcDbEntity
8
0
100
AcDbBlockEnd
0
BLOCK
5
6E
330
6D
100
AcDbEntity
8
0
100
AcDbBlockBegin
2
*D4
70
1
10
0
20
0
3
*D4
1

0
LINE
5
EE
100
AcDbEntity
8
dim
6
CONTINUOUS
62
7
370
0
100
AcDbLine
10
184.7296
20
30
11
184.7296
21
2.048
0
SOLID
5
EF
100
AcDbEntity
8
dim
6
CONTINUOUS
62
7
370
0
100
AcDbTrace
10
184.7296
20
30
30
0
11
185.145884658
21
27.5
31
0
12
184.313315342
22
27.5
32
0
13
184.313315342
23
27.5
33
0
0
SOLID
5
F0
100
AcDbEntity
8
dim
6
CONTINUOUS
62
7
370
0
100
AcDbTrace
10
184.7296
20
2.048
30
0
11
184.313315342
21
4.548
31
0
12
185.145884658
22
4.548
32
0
13
185.145884658
23
4.548
33
0
0
MTEXT
5
F1
100
AcDbEntity
8
dim
6
CONTINUOUS
62
7
370
0
100
AcDbMText
10
182.8546
20
16.024
30
0
40
2.5
41
9.72222222222
71
5
72
1
1
27.952
7
standard
210
0
220
0
230
1
50
90
73
2
44
1
0
LINE
5
F2
100
AcDbEntity
8
dim
6
CONTINUOUS
62
7
370
0
100
AcDbLine
10
175.625
20
30
11
185.9796
21
30
0
LINE
5
F3
100
AcDbEntity
8
dim
6
CONTINUOUS
62
7
370
0
100
AcDbLine
10
176.241
20
2.048
11
185.9796
21
2.048
0
ENDBLK
5
6F
330
6D
100
AcDbEntity
8
0
100
AcDbBlockEnd
0
BLOCK
5
71
330
70
100
AcDbEntity
8
0
100
AcDbBlockBegin
2
*D6
70
1
10
0
20
0
3
*D6
1

0
LINE
5
F4
100
AcDbEntity
8
dim
6
CONTINUOUS
62
7
370
0
100
AcDbLine
10
292.0448
20
22.65
11
292.0448
21
2.048
0
SOLID
5
F5
100
AcDbEntity
8
dim
6
CONTINUOUS
62
7
370
0
100
AcDbTrace
10
292.0448
20
22.65
30
0
11
292.461084658
21
20.15
31
0
12
291.628515342
22
20.15
32
0
13
291.628515342
23
20.15
33
0
0
SOLID
5
F6
100
AcDbEntity
8
dim
6
CONTINUOUS
62
7
370
0
100
AcDbTrace
10
292.0448
20
2.048
30
0
11
291.628515342
21
4.548
31
0
12
292.461084658
22
4.548
32
0
13
292.461084658
23
4.548
33
0
0
MTEXT
5
F7
100
AcDbEntity
8
dim
6
CONTINUOUS
62
7
370
0
100
AcDbMText
10
290.1698
20
12.349
30
0
40
2.5
41
9.72222222222
71
5
72
1
1
20.602
7
standard
210
0
220
0
230
1
50
90
73
2
44
1
0
LINE
5
F8
100
AcDbEntity
8
dim
6
CONTINUOUS
62
7
370
0
100
AcDbLine
10
297.175
20
22.65
11
290.7948
21
22.65
0
LINE
5
F9
100
AcDbEntity
8
dim
6
CONTINUOUS
62
7
370
0
100
AcDbLine
10
297.0518
20
2.048
11
290.7948
21
2.048
0
ENDBLK
5
72
330
70
100
AcDbEntity
8
0
100
AcDbBlockEnd
0
BLOCK
5
74
330
73
100
AcDbEntity
8
0
100
AcDbBlockBegin
2
*D12
70
1
10
0
20
0
3
*D12
1

0
LINE
5
FA
100
AcDbEntity
8
dim
6
CONTINUOUS
62
7
370
0
100
AcDbLine
10
184.75
20
50
11
184.75
21
30
0
SOLID
5
FB
100
AcDbEntity
8
dim
6
CONTINUOUS
62
7
370
0
100
AcDbTrace
10
184.75
20
50
30
0
11
185.166284658
21
47.5
31
0
12
184.333715342
22
47.5
32
0
13
184.333715342
23
47.5
33
0
0
SOLID
5
FC
100
AcDbEntity
8
dim
6
CONTINUOUS
62
7
370
0
100
AcDbTrace
10
184.75
20
30
30
0
11
184.333715342
21
32.5
31
0
12
185.166284658
22
32.5
32
0
13
185.166284658
23
32.5
33
0
0
MTEXT
5
FD
100
AcDbEntity
8
dim
6
CONTINUOUS
62
7
370
0
100
AcDbMText
10
182.875
20
40
30
0
40
2.5
41
3.05555555556
71
5
72
1
1
20
7
standard
210
0
220
0
230
1
50
90
73
2
44
1
0
LINE
5
FE
100
AcDbEntity
8
dim
6
CONTINUOUS
62
7
370
0
100
AcDbLine
10
175.625
20
50
11
186
21
50
0
LINE
5
FF
100
AcDbEntity
8
dim
6
CONTINUOUS
62
7
370
0
100
AcDbLine
10
175.625
20
30
11
186
21
30
0
ENDBLK
5
75
330
73
100
AcDbEntity
8
0
100
AcDbBlockEnd
0
BLOCK
5
77
330
76
100
AcDbEntity
8
0
100
AcDbBlockBegin
2
*D17
70
1
10
0
20
0
3
*D17
1

0
LINE
5
100
100
AcDbEntity
8
dim
6
CONTINUOUS
62
7
370
0
100
AcDbLine
10
143.68
20
227.35
11
143.68
21
328.16
0
SOLID
5
101
100
AcDbEntity
8
dim
6
CONTINUOUS
62
7
370
0
100
AcDbTrace
10
143.68
20
227.35
30
0
11
143.263715342
21
229.85
31
0
12
144.096284658
22
229.85
32
0
13
144.096284658
23
229.85
33
0
0
SOLID
5
102
100
AcDbEntity
8
dim
6
CONTINUOUS
62
7
370
0
100
AcDbTrace
10
143.68
20
328.16
30
0
11
144.096284658
21
325.66
31
0
12
143.263715342
22
325.66
32
0
13
143.263715342
23
325.66
33
0
0
MTEXT
5
103
100
AcDbEntity
8
dim
6
CONTINUOUS
62
7
370
0
100
AcDbMText
10
141.805
20
277.755
30
0
40
2.5
41
8.61111111111
71
5
72
1
1
100.81
7
standard
210
0
220
0
230
1
50
90
73
2
44
1
0
LINE
5
104
100
AcDbEntity
8
dim
6
CONTINUOUS
62
7
370
0
100
AcDbLine
10
134.625
20
227.35
11
144.93
21
227.35
0
LINE
5
105
100
AcDbEntity
8
dim
6
CONTINUOUS
62
7
370
0
100
AcDbLine
10
133.745
20
328.16
11
144.93
21
328.16
0
ENDBLK
5
78
330
76
100
AcDbEntity
8
0
100
AcDbBlockEnd
0
BLOCK
5
7A
330
79
100
AcDbEntity
8
0
100
AcDbBlockBegin
2
*D24
70
1
10
0
20
0
3
*D24
1

0
LINE
5
106
100
AcDbEntity
8
dim
6
CONTINUOUS
62
7
370
0
100
AcDbLine
10
76
20
90.08
11
1.92
21
90.08
0
SOLID
5
107
100
AcDbEntity
8
dim
6
CONTINUOUS
62
7
370
0
100
AcDbTrace
10
76
20
90.08
30
0
11
73.5
21
89.6637153422
31
0
12
73.5
22
90.4962846578
32
0
13
73.5
23
90.4962846578
33
0
0
SOLID
5
108
100
AcDbEntity
8
dim
6
CONTINUOUS
62
7
370
0
100
AcDbTrace
10
1.92
20
90.08
30
0
11
4.42
21
90.4962846578
31
0
12
4.42
22
89.6637153422
32
0
13
4.42
23
89.6637153422
33
0
0
MTEXT
5
109
100
AcDbEntity
8
dim
6
CONTINUOUS
62
7
370
0
100
AcDbMText
10
38.96
20
91.955
30
0
40
2.5
41
8.05555555556
71
5
72
1
1
74.08
7
standard
210
0
220
0
230
1
50
360
73
2
44
1
0
LINE
5
10A
100
AcDbEntity
8
dim
6
CONTINUOUS
62
7
370
0
100
AcDbLine
10
76
20
85.625
11
76
21
91.33
0
LINE
5
10B
100
AcDbEntity
8
dim
6
CONTINUOUS
62
7
370
0
100
AcDbLine
10
1.92
20
85.745
11
1.92
21
91.33
0
ENDBLK
5
7B
330
79
100
AcDbEntity
8
0
100
AcDbBlockEnd
0
BLOCK
5
7D
330
7C
100
AcDbEntity
8
0
100
AcDbBlockBegin
2
*D30
70
1
10
0
20
0
3
*D30
1

0
LINE
5
10C
100
AcDbEntity
8
dim
6
CONTINUOUS
62
7
370
0
100
AcDbLine
10
175
20
76.6976
11
328.192
21
76.6976
0
SOLID
5
10D
100
AcDbEntity
8
dim
6
CONTINUOUS
62
7
370
0
100
AcDbTrace
10
175
20
76.6976
30
0
11
177.5
21
77.1138846578
31
0
12
177.5
22
76.2813153422
32
0
13
177.5
23
76.2813153422
33
0
0
SOLID
5
10E
100
AcDbEntity
8
dim
6
CONTINUOUS
62
7
370
0
100
AcDbTrace
10
328.192
20
76.6976
30
0
11
325.692
21
76.2813153422
31
0
12
325.692
22
77.1138846578
32
0
13
325.692
23
77.1138846578
33
0
0
MTEXT
5
10F
100
AcDbEntity
8
dim
6
CONTINUOUS
62
7
370
0
100
AcDbMText
10
251.596
20
78.5726
30
0
40
2.5
41
10.5555555556
71
5
72
1
1
153.192
7
standard
210
0
220
0
230
1
50
0
73
2
44
1
0
LINE
5
110
100
AcDbEntity
8
dim
6
CONTINUOUS
62
7
370
0
100
AcDbLine
10
175
20
70.625
11
175
21
77.9476
0
LINE
5
111
100
AcDbEntity
8
dim
6
CONTINUOUS
62
7
370
0
100
AcDbLine
10
328.192
20
70.6666
11
328.192
21
77.9476
0
ENDBLK
5
7E
330
7C
100
AcDbEntity
8
0
100
AcDbBlockEnd
0
BLOCK
5
80
330
7F
100
AcDbEntity
8
0
100
AcDbBlockBegin
2
*D19
70
1
10
0
20
0
3
*D19
1

0
LINE
5
112
100
AcDbEntity
8
dim
6
CONTINUOUS
62
7
370
0
100
AcDbLine
10
83.968
20
235
11
83.968
21
328.064
0
SOLID
5
113
100
AcDbEntity
8
dim
6
CONTINUOUS
62
7
370
0
100
AcDbTrace
10
83.968
20
235
30
0
11
83.5517153422
21
237.5
31
0
12
84.3842846578
22
237.5
32
0
13
84.3842846578
23
237.5
33
0
0
SOLID
5
114
100
AcDbEntity
8
dim
6
CONTINUOUS
62
7
370
0
100
AcDbTrace
10
83.968
20
328.064
30
0
11
84.3842846578
21
325.564
31
0
12
83.5517153422
22
325.564
32
0
13
83.5517153422
23
325.564
33
0
0
MTEXT
5
115
100
AcDbEntity
8
dim
6
CONTINUOUS
62
7
370
0
100
AcDbMText
10
82.093
20
281.532
30
0
40
2.5
41
10
71
5
72
1
1
93.064
7
standard
210
0
220
0
230
1
50
90
73
2
44
1
0
LINE
5
116
100
AcDbEntity
8
dim
6
CONTINUOUS
62
7
370
0
100
AcDbLine
10
76.625
20
235
11
85.218
21
235
0
LINE
5
117
100
AcDbEntity
8
dim
6
CONTINUOUS
62
7
370
0
100
AcDbLine
10
76.785
20
328.064
11
85.218
21
328.064
0
ENDBLK
5
81
330
7F
100
AcDbEntity
8
0
100
AcDbBlockEnd
0
BLOCK
5
83
330
82
100
AcDbEntity
8
0
100
AcDbBlockBegin
2
*D25
70
1
10
0
20
0
3
*D25
1

0
LINE
5
118
100
AcDbEntity
8
dim
6
CONTINUOUS
62
7
370
0
100
AcDbLine
10
76
20
98.125
11
126
21
98.125
0
SOLID
5
119
100
AcDbEntity
8
dim
6
CONTINUOUS
62
7
370
0
100
AcDbTrace
10
76
20
98.125
30
0
11
78.5
21
98.5412846578
31
0
12
78.5
22
97.7087153422
32
0
13
78.5
23
97.7087153422
33
0
0
SOLID
5
11A
100
AcDbEntity
8
dim
6
CONTINUOUS
62
7
370
0
100
AcDbTrace
10
126
20
98.125
30
0
11
123.5
21
97.7087153422
31
0
12
123.5
22
98.5412846578
32
0
13
123.5
23
98.5412846578
33
0
0
MTEXT
5
11B
100
AcDbEntity
8
dim
6
CONTINUOUS
62
7
370
0
100
AcDbMText
10
101
20
100
30
0
40
2.5
41
3.05555555556
71
5
72
1
1
50
7
standard
210
0
220
0
230
1
50
0
73
2
44
1
0
LINE
5
11C
100
AcDbEntity
8
dim
6
CONTINUOUS
62
7
370
0
100
AcDbLine
10
76
20
85.625
11
76
21
99.375
0
LINE
5
11D
100
AcDbEntity
8
dim
6
CONTINUOUS
62
7
370
0
100
AcDbLine
10
126
20
85.625
11
126
21
99.375
0
ENDBLK
5
84
330
82
100
AcDbEntity
8
0
100
AcDbBlockEnd
0
BLOCK
5
86
330
85
100
AcDbEntity
8
0
100
AcDbBlockBegin
2
*D21
70
1
10
0
20
0
3
*D21
1

0
LINE
5
11E
100
AcDbEntity
8
dim
6
CONTINUOUS
62
7
370
0
100
AcDbLine
10
34
20
304.8
11
34
21
328
0
SOLID
5
11F
100
AcDbEntity
8
dim
6
CONTINUOUS
62
7
370
0
100
AcDbTrace
10
34
20
304.8
30
0
11
33.5837153422
21
307.3
31
0
12
34.4162846578
22
307.3
32
0
13
34.4162846578
23
307.3
33
0
0
SOLID
5
120
100
AcDbEntity
8
dim
6
CONTINUOUS
62
7
370
0
100
AcDbTrace
10
34
20
328
30
0
11
34.4162846578
21
325.5
31
0
12
33.5837153422
22
325.5
32
0
13
33.5837153422
23
325.5
33
0
0
MTEXT
5
121
100
AcDbEntity
8
dim
6
CONTINUOUS
62
7
370
0
100
AcDbMText
10
32.125
20
316.4
30
0
40
2.5
41
5.83333333333
71
5
72
1
1
23.2
7
standard
210
0
220
0
230
1
50
90
73
2
44
1
0
LINE
5
122
100
AcDbEntity
8
dim
6
CONTINUOUS
62
7
370
0
100
AcDbLine
10
26.025
20
304.8
11
35.25
21
304.8
0
LINE
5
123
100
AcDbEntity
8
dim
6
CONTINUOUS
62
7
370
0
100
AcDbLine
10
26.125
20
328
11
35.25
21
328
0
ENDBLK
5
87
330
85
100
AcDbEntity
8
0
100
AcDbBlockEnd
0
BLOCK
5
89
330
88
100
AcDbEntity
8
0
100
AcDbBlockBegin
2
*D8
70
1
10
0
20
0
3
*D8
1

0
LINE
5
124
100
AcDbEntity
8
dim
6
CONTINUOUS
62
7
370
0
100
AcDbLine
10
65.152
20
75
11
65.152
21
2.048
0
SOLID
5
125
100
AcDbEntity
8
dim
6
CONTINUOUS
62
7
370
0
100
AcDbTrace
10
65.152
20
75
30
0
11
65.5682846578
21
72.5
31
0
12
64.7357153422
22
72.5
32
0
13
64.7357153422
23
72.5
33
0
0
SOLID
5
126
100
AcDbEntity
8
dim
6
CONTINUOUS
62
7
370
0
100
AcDbTrace
10
65.152
20
2.048
30
0
11
64.7357153422
21
4.548
31
0
12
65.5682846578
22
4.548
32
0
13
65.5682846578
23
4.548
33
0
0
MTEXT
5
127
100
AcDbEntity
8
dim
6
CONTINUOUS
62
7
370
0
100
AcDbMText
10
63.277
20
38.524
30
0
40
2.5
41
9.72222222222
71
5
72
1
1
72.952
7
standard
210
0
220
0
230
1
50
90
73
2
44
1
0
LINE
5
128
100
AcDbEntity
8
dim
6
CONTINUOUS
62
7
370
0
100
AcDbLine
10
69.875
20
75
11
63.902
21
75
0
LINE
5
129
100
AcDbEntity
8
dim
6
CONTINUOUS
62
7
370
0
100
AcDbLine
10
70.159
20
2.048
11
63.902
21
2.048
0
ENDBLK
5
8A
330
88
100
AcDbEntity
8
0
100
AcDbBlockEnd
0
BLOCK
5
8C
330
8B
100
AcDbEntity
8
0
100
AcDbBlockBegin
2
*D18
70
1
10
0
20
0
3
*D18
1

0
LINE
5
12A
100
AcDbEntity
8
dim
6
CONTINUOUS
62
7
370
0
100
AcDbLine
10
119.2
20
235
11
119.2
21
328.16
0
SOLID
5
12B
100
AcDbEntity
8
dim
6
CONTINUOUS
62
7
370
0
100
AcDbTrace
10
119.2
20
235
30
0
11
118.783715342
21
237.5
31
0
12
119.616284658
22
237.5
32
0
13
119.616284658
23
237.5
33
0
0
SOLID
5
12C
100
AcDbEntity
8
dim
6
CONTINUOUS
62
7
370
0
100
AcDbTrace
10
119.2
20
328.16
30
0
11
119.616284658
21
325.66
31
0
12
118.783715342
22
325.66
32
0
13
118.783715342
23
325.66
33
0
0
MTEXT
5
12D
100
AcDbEntity
8
dim
6
CONTINUOUS
62
7
370
0
100
AcDbMText
10
117.325
20
281.58
30
0
40
2.5
41
7.22222222222
71
5
72
1
1
93.16
7
standard
210
0
220
0
230
1
50
90
73
2
44
1
0
LINE
5
12E
100
AcDbEntity
8
dim
6
CONTINUOUS
62
7
370
0
100
AcDbLine
10
125.375
20
235
11
117.95
21
235
0
LINE
5
12F
100
AcDbEntity
8
dim
6
CONTINUOUS
62
7
370
0
100
AcDbLine
10
125.615
20
328.16
11
117.95
21
328.16
0
ENDBLK
5
8D
330
8B
100
AcDbEntity
8
0
100
AcDbBlockEnd
0
BLOCK
5
8F
330
8E
100
AcDbEntity
8
0
100
AcDbBlockBegin
2
*D26
70
1
10
0
20
0
3
*D26
1

0
LINE
5
130
100
AcDbEntity
8
dim
6
CONTINUOUS
62
7
370
0
100
AcDbLine
10
70.5
20
68.125
11
134
21
68.125
0
SOLID
5
131
100
AcDbEntity
8
dim
6
CONTINUOUS
62
7
370
0
100
AcDbTrace
10
70.5
20
68.125
30
0
11
73
21
68.5412846578
31
0
12
73
22
67.7087153422
32
0
13
73
23
67.7087153422
33
0
0
SOLID
5
132
100
AcDbEntity
8
dim
6
CONTINUOUS
62
7
370
0
100
AcDbTrace
10
134
20
68.125
30
0
11
131.5
21
67.7087153422
31
0
12
131.5
22
68.5412846578
32
0
13
131.5
23
68.5412846578
33
0
0
MTEXT
5
133
100
AcDbEntity
8
dim
6
CONTINUOUS
62
7
370
0
100
AcDbMText
10
102.25
20
70
30
0
40
2.5
41
5.83333333333
71
5
72
1
1
63.5
7
standard
210
0
220
0
230
1
50
0
73
2
44
1
0
LINE
5
134
100
AcDbEntity
8
dim
6
CONTINUOUS
62
7
370
0
100
AcDbLine
10
70.5
20
74.375
11
70.5
21
66.875
0
LINE
5
135
100
AcDbEntity
8
dim
6
CONTINUOUS
62
7
370
0
100
AcDbLine
10
134
20
74.375
11
134
21
66.875
0
ENDBLK
5
90
330
8E
100
AcDbEntity
8
0
100
AcDbBlockEnd
0
BLOCK
5
92
330
91
100
AcDbEntity
8
0
100
AcDbBlockBegin
2
*D28
70
1
10
0
20
0
3
*D28
1

0
LINE
5
136
100
AcDbEntity
8
dim
6
CONTINUOUS
62
7
370
0
100
AcDbLine
10
297.8
20
28.42624
11
328.17152
21
28.42624
0
SOLID
5
137
100
AcDbEntity
8
dim
6
CONTINUOUS
62
7
370
0
100
AcDbTrace
10
297.8
20
28.42624
30
0
11
300.3
21
28.8425246578
31
0
12
300.3
22
28.0099553422
32
0
13
300.3
23
28.0099553422
33
0
0
SOLID
5
138
100
AcDbEntity
8
dim
6
CONTINUOUS
62
7
370
0
100
AcDbTrace
10
328.17152
20
28.42624
30
0
11
325.67152
21
28.0099553422
31
0
12
325.67152
22
28.8425246578
32
0
13
325.67152
23
28.8425246578
33
0
0
MTEXT
5
139
100
AcDbEntity
8
dim
6
CONTINUOUS
62
7
370
0
100
AcDbMText
10
312.98576
20
30.30124
30
0
40
2.5
41
11.1111111111
71
5
72
1
1
30.3715
7
standard
210
0
220
0
230
1
50
0
73
2
44
1
0
LINE
5
13A
100
AcDbEntity
8
dim
6
CONTINUOUS
62
7
370
0
100
AcDbLine
10
297.8
20
23.275
11
297.8
21
29.67624
0
LINE
5
13B
100
AcDbEntity
8
dim
6
CONTINUOUS
62
7
370
0
100
AcDbLine
10
328.17152
20
22.98916
11
328.17152
21
29.67624
0
ENDBLK
5
93
330
91
100
AcDbEntity
8
0
100
AcDbBlockEnd
0
BLOCK
5
95
330
94
100
AcDbEntity
8
0
100
AcDbBlockBegin
2
*D20
70
1
10
0
20
0
3
*D20
1

0
LINE
5
13C
100
AcDbEntity
8
dim
6
CONTINUOUS
62
7
370
0
100
AcDbLine
10
64.5
20
227.35
11
64.5
21
328.25
0
SOLID
5
13D
100
AcDbEntity
8
dim
6
CONTINUOUS
62
7
370
0
100
AcDbTrace
10
64.5
20
227.35
30
0
11
64.0837153422
21
229.85
31
0
12
64.9162846578
22
229.85
32
0
13
64.9162846578
23
229.85
33
0
0
SOLID
5
13E
100
AcDbEntity
8
dim
6
CONTINUOUS
62
7
370
0
100
AcDbTrace
10
64.5
20
328.25
30
0
11
64.9162846578
21
325.75
31
0
12
64.0837153422
22
325.75
32
0
13
64.0837153422
23
325.75
33
0
0
MTEXT
5
13F
100
AcDbEntity
8
dim
6
CONTINUOUS
62
7
370
0
100
AcDbMText
10
62.625
20
277.8
30
0
40
2.5
41
7.22222222222
71
5
72
1
1
100.9
7
standard
210
0
220
0
230
1
50
90
73
2
44
1
0
LINE
5
140
100
AcDbEntity
8
dim
6
CONTINUOUS
62
7
370
0
100
AcDbLine
10
69.825
20
227.35
11
63.25
21
227.35
0
LINE
5
141
100
AcDbEntity
8
dim
6
CONTINUOUS
62
7
370
0
100
AcDbLine
10
69.875
20
328.25
11
63.25
21
328.25
0
ENDBLK
5
96
330
94
100
AcDbEntity
8
0
100
AcDbBlockEnd
0
BLOCK
5
98
330
97
100
AcDbEntity
8
0
100
AcDbBlockBegin
2
*D15
70
1
10
0
20
0
3
*D15
1

0
LINE
5
142
100
AcDbEntity
8
dim
6
CONTINUOUS
62
7
370
0
100
AcDbLine
10
293.92
20
304.8
11
293.92
21
328.16
0
SOLID
5
143
100
AcDbEntity
8
dim
6
CONTINUOUS
62
7
370
0
100
AcDbTrace
10
293.92
20
304.8
30
0
11
293.503715342
21
307.3
31
0
12
294.336284658
22
307.3
32
0
13
294.336284658
23
307.3
33
0
0
SOLID
5
144
100
AcDbEntity
8
dim
6
CONTINUOUS
62
7
370
0
100
AcDbTrace
10
293.92
20
328.16
30
0
11
294.336284658
21
325.66
31
0
12
293.503715342
22
325.66
32
0
13
293.503715342
23
325.66
33
0
0
MTEXT
5
145
100
AcDbEntity
8
dim
6
CONTINUOUS
62
7
370
0
100
AcDbMText
10
292.045
20
316.48
30
0
40
2.5
41
7.77777777778
71
5
72
1
1
23.36
7
standard
210
0
220
0
230
1
50
90
73
2
44
1
0
LINE
5
146
100
AcDbEntity
8
dim
6
CONTINUOUS
62
7
370
0
100
AcDbLine
10
304.175
20
304.8
11
292.67
21
304.8
0
LINE
5
147
100
AcDbEntity
8
dim
6
CONTINUOUS
62
7
370
0
100
AcDbLine
10
303.855
20
328.16
11
292.67
21
328.16
0
ENDBLK
5
99
330
97
100
AcDbEntity
8
0
100
AcDbBlockEnd
0
BLOCK
5
9B
330
9A
100
AcDbEntity
8
0
100
AcDbBlockBegin
2
*D27
70
1
10
0
20
0
3
*D27
1

0
LINE
5
148
100
AcDbEntity
8
dim
6
CONTINUOUS
62
7
370
0
100
AcDbLine
10
314.8
20
15.81056
11
328.17152
21
15.81056
0
SOLID
5
149
100
AcDbEntity
8
dim
6
CONTINUOUS
62
7
370
0
100
AcDbTrace
10
314.8
20
15.81056
30
0
11
317.3
21
16.2268446578
31
0
12
317.3
22
15.3942753422
32
0
13
317.3
23
15.3942753422
33
0
0
SOLID
5
14A
100
AcDbEntity
8
dim
6
CONTINUOUS
62
7
370
0
100
AcDbTrace
10
328.17152
20
15.81056
30
0
11
325.67152
21
15.3942753422
31
0
12
325.67152
22
16.2268446578
32
0
13
325.67152
23
16.2268446578
33
0
0
MTEXT
5
14B
100
AcDbEntity
8
dim
6
CONTINUOUS
62
7
370
0
100
AcDbMText
10
321.48576
20
17.68556
30
0
40
2.5
41
10.5555555556
71
5
72
1
1
13.3715
7
standard
210
0
220
0
230
1
50
0
73
2
44
1
0
LINE
5
14C
100
AcDbEntity
8
dim
6
CONTINUOUS
62
7
370
0
100
AcDbLine
10
314.8
20
21.875
11
314.8
21
14.56056
0
LINE
5
14D
100
AcDbEntity
8
dim
6
CONTINUOUS
62
7
370
0
100
AcDbLine
10
328.17152
20
21.903
11
328.17152
21
14.56056
0
ENDBLK
5
9C
330
9A
100
AcDbEntity
8
0
100
AcDbBlockEnd
0
BLOCK
5
9E
330
9D
100
AcDbEntity
8
0
100
AcDbBlockBegin
2
*D9
70
1
10
0
20
0
3
*D9
1

0
LINE
5
14E
100
AcDbEntity
8
dim
6
CONTINUOUS
62
7
370
0
100
AcDbLine
10
87.75
20
85
11
87.75
21
2
0
SOLID
5
14F
100
AcDbEntity
8
dim
6
CONTINUOUS
62
7
370
0
100
AcDbTrace
10
87.75
20
85
30
0
11
88.1662846578
21
82.5
31
0
12
87.3337153422
22
82.5
32
0
13
87.3337153422
23
82.5
33
0
0
SOLID
5
150
100
AcDbEntity
8
dim
6
CONTINUOUS
62
7
370
0
100
AcDbTrace
10
87.75
20
2
30
0
11
87.3337153422
21
4.5
31
0
12
88.1662846578
22
4.5
32
0
13
88.1662846578
23
4.5
33
0
0
MTEXT
5
151
100
AcDbEntity
8
dim
6
CONTINUOUS
62
7
370
0
100
AcDbMText
10
85.875
20
43.5
30
0
40
2.5
41
3.05555555556
71
5
72
1
1
83
7
standard
210
0
220
0
230
1
50
90
73
2
44
1
0
LINE
5
152
100
AcDbEntity
8
dim
6
CONTINUOUS
62
7
370
0
100
AcDbLine
10
76.625
20
85
11
89
21
85
0
LINE
5
153
100
AcDbEntity
8
dim
6
CONTINUOUS
62
7
370
0
100
AcDbLine
10
76.375
20
2
11
89
21
2
0
ENDBLK
5
9F
330
9D
100
AcDbEntity
8
0
100
AcDbBlockEnd
0
BLOCK
5
A1
330
A0
100
AcDbEntity
8
0
100
AcDbBlockBegin
2
*D13
70
1
10
0
20
0
3
*D13
1

0
LINE
5
154
100
AcDbEntity
8
dim
6
CONTINUOUS
62
7
370
0
100
AcDbLine
10
184.5
20
70
11
184.5
21
50
0
SOLID
5
155
100
AcDbEntity
8
dim
6
CONTINUOUS
62
7
370
0
100
AcDbTrace
10
184.5
20
70
30
0
11
184.916284658
21
67.5
31
0
12
184.083715342
22
67.5
32
0
13
184.083715342
23
67.5
33
0
0
SOLID
5
156
100
AcDbEntity
8
dim
6
CONTINUOUS
62
7
370
0
100
AcDbTrace
10
184.5
20
50
30
0
11
184.083715342
21
52.5
31
0
12
184.916284658
22
52.5
32
0
13
184.916284658
23
52.5
33
0
0
MTEXT
5
157
100
AcDbEntity
8
dim
6
CONTINUOUS
62
7
370
0
100
AcDbMText
10
182.625
20
60
30
0
40
2.5
41
3.05555555556
71
5
72
1
1
20
7
standard
210
0
220
0
230
1
50
90
73
2
44
1
0
LINE
5
158
100
AcDbEntity
8
dim
6
CONTINUOUS
62
7
370
0
100
AcDbLine
10
175.625
20
70
11
185.75
21
70
0
LINE
5
159
100
AcDbEntity
8
dim
6
CONTINUOUS
62
7
370
0
100
AcDbLine
10
175.625
20
50
11
185.75
21
50
0
ENDBLK
5
A2
330
A0
100
AcDbEntity
8
0
100
AcDbBlockEnd
0
BLOCK
5
A4
330
A3
100
AcDbEntity
8
0
100
AcDbBlockBegin
2
SHAPE2DVIEW
70
0
10
0
20
0
3
SHAPE2DVIEW
1

0
LINE
5
15A
100
AcDbEntity
8
0
6
ByLayer
62
0
370
-1
100
AcDbLine
10
2
20
2
11
2
21
328.2
0
LINE
5
15B
100
AcDbEntity
8
0
6
ByLayer
62
0
370
-1
100
AcDbLine
10
2
20
2
11
328.2
21
2
0
LINE
5
15C
100
AcDbEntity
8
0
6
ByLayer
62
0
370
-1
100
AcDbLine
10
2
20
328.2
11
328.2
21
328.2
0
LINE
5
15D
100
AcDbEntity
8
0
6
ByLayer
62
0
370
-1
100
AcDbLine
10
328.2
20
2
11
328.2
21
328.2
0
CIRCLE
5
15E
100
AcDbEntity
8
0
6
ByLayer
62
0
370
-1
100
AcDbCircle
10
297.8
20
22.65
40
2.5
0
CIRCLE
5
15F
100
AcDbEntity
8
0
6
ByLayer
62
0
370
-1
100
AcDbCircle
10
238.85
20
22.55
40
2.5
0
CIRCLE
5
160
100
AcDbEntity
8
0
6
ByLayer
62
0
370
-1
100
AcDbCircle
10
315.3
20
209.58
40
2.5
0
CIRCLE
5
161
100
AcDbEntity
8
0
6
ByLayer
62
0
370
-1
100
AcDbCircle
10
211.16
20
191.8
40
2.75
0
CIRCLE
5
162
100
AcDbEntity
8
0
6
ByLayer
62
0
370
-1
100
AcDbCircle
10
70.45
20
227.35
40
2.75
0
CIRCLE
5
163
100
AcDbEntity
8
0
6
ByLayer
62
0
370
-1
100
AcDbCircle
10
134
20
227.35
40
2.75
0
CIRCLE
5
164
100
AcDbEntity
8
0
6
ByLayer
62
0
370
-1
100
AcDbCircle
10
134
20
75
40
2.75
0
CIRCLE
5
165
100
AcDbEntity
8
0
6
ByLayer
62
0
370
-1
100
AcDbCircle
10
70.5
20
75
40
2.75
0
CIRCLE
5
166
100
AcDbEntity
8
0
6
ByLayer
62
0
370
-1
100
AcDbCircle
10
76
20
85
40
2.75
0
CIRCLE
5
167
100
AcDbEntity
8
0
6
ByLayer
62
0
370
-1
100
AcDbCircle
10
126
20
85
40
2.75
0
CIRCLE
5
168
100
AcDbEntity
8
0
6
ByLayer
62
0
370
-1
100
AcDbCircle
10
126
20
235
40
2.75
0
CIRCLE
5
169
100
AcDbEntity
8
0
6
ByLayer
62
0
370
-1
100
AcDbCircle
10
76
20
235
40
2.75
0
CIRCLE
5
16A
100
AcDbEntity
8
0
6
ByLayer
62
0
370
-1
100
AcDbCircle
10
175
20
50
40
2.4
0
CIRCLE
5
16B
100
AcDbEntity
8
0
6
ByLayer
62
0
370
-1
100
AcDbCircle
10
175
20
70
40
2.4
0
CIRCLE
5
16C
100
AcDbEntity
8
0
6
ByLayer
62
0
370
-1
100
AcDbCircle
10
175
20
30
40
2.4
0
CIRCLE
5
16D
100
AcDbEntity
8
0
6
ByLayer
62
0
370
-1
100
AcDbCircle
10
25.4
20
25.4
40
2
0
CIRCLE
5
16E
100
AcDbEntity
8
0
6
ByLayer
62
0
370
-1
100
AcDbCircle
10
25.4
20
304.8
40
2
0
CIRCLE
5
16F
100
AcDbEntity
8
0
6
ByLayer
62
0
370
-1
100
AcDbCircle
10
314.8
20
22.5
40
2
0
CIRCLE
5
170
100
AcDbEntity
8
0
6
ByLayer
62
0
370
-1
100
AcDbCircle
10
304.8
20
304.8
40
2
0
ENDBLK
5
A5
330
A3
100
AcDbEntity
8
0
100
AcDbBlockEnd
0
ENDSEC
0
SECTION
2
ENTITIES
0
INSERT
5
171
100
AcDbEntity
8
cut
6
ByLayer
62
256
370
-1
100
AcDbBlockReference
2
SHAPE2DVIEW
10
0
20
0
30
0
41
1
42
1
43
0
50
0
70
1
71
1
44
0
45
0
0
DIMENSION
5
172
100
AcDbEntity
8
dim
6
ByLayer
62
256
370
-1
100
AcDbDimension
2
*D1
10
-70.1904296875
20
2
30
0
11
-72.0654296875
21
165.1
31
0
70
32
71
5
3
Standard
53
0
210
0
220
0
230
1
100
AcDbAlignedDimension
13
2
23
328.2
33
0
14
2
24
2
34
0
50
90
100
AcDbRotatedDimension
0
DIMENSION
5
173
100
AcDbEntity
8
dim
6
ByLayer
62
256
370
-1
100
AcDbDimension
2
*D2
10
328.2
20
360.107421875
30
0
11
165.1
21
361.982421875
31
0
70
32
71
5
3
Standard
53
0
210
0
220
0
230
1
100
AcDbAlignedDimension
13
2
23
328.2
33
0
14
328.2
24
328.2
34
0
100
AcDbRotatedDimension
0
DIMENSION
5
174
100
AcDbEntity
8
dim
6
ByLayer
62
256
370
-1
100
AcDbDimension
2
*D3
10
32.3485696
20
1.9922944
30
0
11
30.4735696
21
13.6961472
31
0
70
32
71
5
3
Standard
53
0
210
0
220
0
230
1
100
AcDbAlignedDimension
13
25.4
23
25.4
33
0
14
25.2706816
24
1.9922944
34
0
50
90
100
AcDbRotatedDimension
0
DIMENSION
5
175
100
AcDbEntity
8
dim
6
ByLayer
62
256
370
-1
100
AcDbDimension
2
*D4
10
184.7296
20
2.048
30
0
11
182.8546
21
16.024
31
0
70
32
71
5
3
Standard
53
0
210
0
220
0
230
1
100
AcDbAlignedDimension
13
175
23
30
33
0
14
175.616
24
2.048
34
0
50
90
100
AcDbRotatedDimension
0
DIMENSION
5
176
100
AcDbEntity
8
dim
6
ByLayer
62
256
370
-1
100
AcDbDimension
2
*D5
10
248.9344
20
2.048
30
0
11
247.0594
21
12.299
31
0
70
32
71
5
3
Standard
53
0
210
0
220
0
230
1
100
AcDbAlignedDimension
13
238.85
23
22.55
33
0
14
238.7968
24
2.048
34
0
50
90
100
AcDbRotatedDimension
0
DIMENSION
5
177
100
AcDbEntity
8
dim
6
ByLayer
62
256
370
-1
100
AcDbDimension
2
*D6
10
292.0448
20
2.048
30
0
11
290.1698
21
12.349
31
0
70
32
71
5
3
Standard
53
0
210
0
220
0
230
1
100
AcDbAlignedDimension
13
297.8
23
22.65
33
0
14
297.6768
24
2.048
34
0
50
90
100
AcDbRotatedDimension
0
DIMENSION
5
178
100
AcDbEntity
8
dim
6
ByLayer
62
256
370
-1
100
AcDbDimension
2
*D7
10
308.9408
20
2.048
30
0
11
307.0658
21
12.274
31
0
70
32
71
5
3
Standard
53
0
210
0
220
0
230
1
100
AcDbAlignedDimension
13
314.8
23
22.5
33
0
14
315.0848
24
2.048
34
0
50
90
100
AcDbRotatedDimension
0
DIMENSION
5
179
100
AcDbEntity
8
dim
6
ByLayer
62
256
370
-1
100
AcDbDimension
2
*D8
10
65.152
20
2.048
30
0
11
63.277
21
38.524
31
0
70
32
71
5
3
Standard
53
0
210
0
220
0
230
1
100
AcDbAlignedDimension
13
70.5
23
75
33
0
14
70.784
24
2.048
34
0
50
90
100
AcDbRotatedDimension
0
DIMENSION
5
17A
100
AcDbEntity
8
dim
6
ByLayer
62
256
370
-1
100
AcDbDimension
2
*D9
10
87.75
20
2
30
0
11
85.875
21
43.5
31
0
70
32
71
5
3
Standard
53
0
210
0
220
0
230
1
100
AcDbAlignedDimension
13
76
23
85
33
0
14
75.75
24
2
34
0
50
90
100
AcDbRotatedDimension
0
DIMENSION
5
17B
100
AcDbEntity
8
dim
6
ByLayer
62
256
370
-1
100
AcDbDimension
2
*D10
10
117
20
2
30
0
11
115.125
21
43.5
31
0
70
32
71
5
3
Standard
53
0
210
0
220
0
230
1
100
AcDbAlignedDimension
13
126
23
85
33
0
14
127.5
24
2
34
0
50
90
100
AcDbRotatedDimension
0
DIMENSION
5
17C
100
AcDbEntity
8
dim
6
ByLayer
62
256
370
-1
100
AcDbDimension
2
*D11
10
143.75
20
2
30
0
11
141.875
21
38.5
31
0
70
32
71
5
3
Standard
53
0
210
0
220
0
230
1
100
AcDbAlignedDimension
13
134
23
75
33
0
14
135.25
24
2
34
0
50
90
100
AcDbRotatedDimension
0
DIMENSION
5
17D
100
AcDbEntity
8
dim
6
ByLayer
62
256
370
-1
100
AcDbDimension
2
*D12
10
184.75
20
30
30
0
11
182.875
21
40
31
0
70
32
71
5
3
Standard
53
0
210
0
220
0
230
1
100
AcDbAlignedDimension
13
175
23
50
33
0
14
175
24
30
34
0
50
90
100
AcDbRotatedDimension
0
DIMENSION
5
17E
100
AcDbEntity
8
dim
6
ByLayer
62
256
370
-1
100
AcDbDimension
2
*D13
10
184.5
20
50
30
0
11
182.625
21
60
31
0
70
32
71
5
3
Standard
53
0
210
0
220
0
230
1
100
AcDbAlignedDimension
13
175
23
70
33
0
14
175
24
50
34
0
50
90
100
AcDbRotatedDimension
0
DIMENSION
5
17F
100
AcDbEntity
8
dim
6
ByLayer
62
256
370
-1
100
AcDbDimension
2
*D14
10
220
20
2
30
0
11
218.125
21
96.9
31
0
70
32
71
5
3
Standard
53
0
210
0
220
0
230
1
100
AcDbAlignedDimension
13
211.16
23
191.8
33
0
14
212
24
2
34
0
50
90
100
AcDbRotatedDimension
0
DIMENSION
5
180
100
AcDbEntity
8
dim
6
ByLayer
62
256
370
-1
100
AcDbDimension
2
*D15
10
293.92
20
328.16
30
0
11
292.045
21
316.48
31
0
70
32
71
5
3
Standard
53
0
210
0
220
0
230
1
100
AcDbAlignedDimension
13
304.8
23
304.8
33
0
14
304.48
24
328.16
34
0
50
90
100
AcDbRotatedDimension
0
DIMENSION
5
181
100
AcDbEntity
8
dim
6
ByLayer
62
256
370
-1
100
AcDbDimension
2
*D16
10
311.2
20
328.16
30
0
11
309.325
21
268.87
31
0
70
32
71
5
3
Standard
53
0
210
0
220
0
230
1
100
AcDbAlignedDimension
13
315.3
23
209.58
33
0
14
315.68
24
328.16
34
0
50
90
100
AcDbRotatedDimension
0
DIMENSION
5
182
100
AcDbEntity
8
dim
6
ByLayer
62
256
370
-1
100
AcDbDimension
2
*D17
10
143.68
20
328.16
30
0
11
141.805
21
277.755
31
0
70
32
71
5
3
Standard
53
0
210
0
220
0
230
1
100
AcDbAlignedDimension
13
134
23
227.35
33
0
14
133.12
24
328.16
34
0
50
90
100
AcDbRotatedDimension
0
DIMENSION
5
183
100
AcDbEntity
8
dim
6
ByLayer
62
256
370
-1
100
AcDbDimension
2
*D18
10
119.2
20
328.16
30
0
11
117.325
21
281.58
31
0
70
32
71
5
3
Standard
53
0
210
0
220
0
230
1
100
AcDbAlignedDimension
13
126
23
235
33
0
14
126.24
24
328.16
34
0
50
90
100
AcDbRotatedDimension
0
DIMENSION
5
184
100
AcDbEntity
8
dim
6
ByLayer
62
256
370
-1
100
AcDbDimension
2
*D19
10
83.968
20
328.064
30
0
11
82.093
21
281.532
31
0
70
32
71
5
3
Standard
53
0
210
0
220
0
230
1
100
AcDbAlignedDimension
13
76
23
235
33
0
14
76.16
24
328.064
34
0
50
90
100
AcDbRotatedDimension
0
DIMENSION
5
185
100
AcDbEntity
8
dim
6
ByLayer
62
256
370
-1
100
AcDbDimension
2
*D20
10
64.5
20
328.25
30
0
11
62.625
21
277.8
31
0
70
32
71
5
3
Standard
53
0
210
0
220
0
230
1
100
AcDbAlignedDimension
13
70.45
23
227.35
33
0
14
70.5
24
328.25
34
0
50
90
100
AcDbRotatedDimension
0
DIMENSION
5
186
100
AcDbEntity
8
dim
6
ByLayer
62
256
370
-1
100
AcDbDimension
2
*D21
10
34
20
328
30
0
11
32.125
21
316.4
31
0
70
32
71
5
3
Standard
53
0
210
0
220
0
230
1
100
AcDbAlignedDimension
13
25.4
23
304.8
33
0
14
25.5
24
328
34
0
50
90
100
AcDbRotatedDimension
0
DIMENSION
5
187
100
AcDbEntity
8
dim
6
ByLayer
62
256
370
-1
100
AcDbDimension
2
*D22
10
1.92
20
34.4
30
0
11
13.66
21
36.275
31
0
70
32
71
5
3
Standard
53
0
210
0
220
0
230
1
100
AcDbAlignedDimension
13
25.4
23
25.4
33
0
14
1.92
24
25.12
34
0
100
AcDbRotatedDimension
0
DIMENSION
5
188
100
AcDbEntity
8
dim
6
ByLayer
62
256
370
-1
100
AcDbDimension
2
*D23
10
1.92
20
68
30
0
11
36.21
21
69.875
31
0
70
32
71
5
3
Standard
53
0
210
0
220
0
230
1
100
AcDbAlignedDimension
13
70.5
23
75
33
0
14
1.92
24
75.2
34
0
100
AcDbRotatedDimension
0
DIMENSION
5
189
100
AcDbEntity
8
dim
6
ByLayer
62
256
370
-1
100
AcDbDimension
2
*D24
10
1.92
20
90.08
30
0
11
38.96
21
91.955
31
0
70
32
71
5
3
Standard
53
0
210
0
220
0
230
1
100
AcDbAlignedDimension
13
76
23
85
33
0
14
1.92
24
85.12
34
0
100
AcDbRotatedDimension
0
DIMENSION
5
18A
100
AcDbEntity
8
dim
6
ByLayer
62
256
370
-1
100
AcDbDimension
2
*D25
10
126
20
98.125
30
0
11
101
21
100
31
0
70
32
71
5
3
Standard
53
0
210
0
220
0
230
1
100
AcDbAlignedDimension
13
76
23
85
33
0
14
126
24
85
34
0
100
AcDbRotatedDimension
0
DIMENSION
5
18B
100
AcDbEntity
8
dim
6
ByLayer
62
256
370
-1
100
AcDbDimension
2
*D26
10
134
20
68.125
30
0
11
102.25
21
70
31
0
70
32
71
5
3
Standard
53
0
210
0
220
0
230
1
100
AcDbAlignedDimension
13
70.5
23
75
33
0
14
134
24
75
34
0
100
AcDbRotatedDimension
0
DIMENSION
5
18C
100
AcDbEntity
8
dim
6
ByLayer
62
256
370
-1
100
AcDbDimension
2
*D27
10
328.17152
20
15.81056
30
0
11
321.48576
21
17.68556
31
0
70
32
71
5
3
Standard
53
0
210
0
220
0
230
1
100
AcDbAlignedDimension
13
314.8
23
22.5
33
0
14
328.17152
24
22.528
34
0
100
AcDbRotatedDimension
0
DIMENSION
5
18D
100
AcDbEntity
8
dim
6
ByLayer
62
256
370
-1
100
AcDbDimension
2
*D28
10
328.17152
20
28.42624
30
0
11
312.98576
21
30.30124
31
0
70
32
71
5
3
Standard
53
0
210
0
220
0
230
1
100
AcDbAlignedDimension
13
297.8
23
22.65
33
0
14
328.17152
24
22.36416
34
0
100
AcDbRotatedDimension
0
DIMENSION
5
18E
100
AcDbEntity
8
dim
6
ByLayer
62
256
370
-1
100
AcDbDimension
2
*D29
10
328.17152
20
34.89792
30
0
11
283.51076
21
36.77292
31
0
70
32
71
5
3
Standard
53
0
210
0
220
0
230
1
100
AcDbAlignedDimension
13
238.85
23
22.55
33
0
14
328.17152
24
22.44608
34
0
100
AcDbRotatedDimension
0
DIMENSION
5
18F
100
AcDbEntity
8
dim
6
ByLayer
62
256
370
-1
100
AcDbDimension
2
*D30
10
328.192
20
76.6976
30
0
11
251.596
21
78.5726
31
0
70
32
71
5
3
Standard
53
0
210
0
220
0
230
1
100
AcDbAlignedDimension
13
175
23
70
33
0
14
328.192
24
70.0416
34
0
100
AcDbRotatedDimension
0
TEXT
5
190
100
AcDbEntity
8
Notes
6
ByLayer
62
256
370
-1
100
AcDbText
10
-10
20
160
30
0
40
5
1
FRONT
50
90
41
1
51
0
7
standard
71
0
210
0
220
0
230
1
100
AcDbText
0
TEXT
5
191
100
AcDbEntity
8
Notes
6
ByLayer
62
256
370
-1
100
AcDbText
10
90
20
380
30
0
40
5
1
View is from the top, looking down.
50
0
41
1
51
0
7
standard
71
0
210
0
220
0
230
1
100
AcDbText
0
ENDSEC
0
SECTION
2
OBJECTS
0
DICTIONARY
5
C
330
0
100
AcDbDictionary
281
1
3
ACAD_GROUP
350
D
0
DICTIONARY
5
D
330
C
100
AcDbDictionary
281
1
0
ENDSEC
0
EOF
