999
dxfrw 0.5.11
0
SECTION
2
HEADER
9
$ACADVER
1
AC1021
9
$HANDSEED
5
20000
9
$DWGCODEPAGE
3
ANSI_1252
9
$INSBASE
10
0
20
0
30
0
9
$EXTMIN
10
-26.125
20
-42.5
30
0
9
$EXTMAX
10
215.25
20
74.3
30
0
9
$LIMMIN
10
0
20
0
9
$LIMMAX
10
420
20
297
9
$ORTHOMODE
70
0
9
$LTSCALE
40
1
9
$TEXTSTYLE
7
STANDARD
9
$CLAYER
8
markings
9
$DIMASZ
40
2.5
9
$DIMLFAC
40
1
9
$DIMSCALE
40
1
9
$DIMEXO
40
0.625
9
$DIMEXE
40
1.25
9
$DIMTXT
40
2.5
9
$DIMTSZ
40
0
9
$DIMAUNIT
70
0
9
$DIMADEC
70
0
9
$DIMLUNIT
70
2
9
$DIMSTYLE
2
STANDARD
9
$DIMGAP
40
0.625
9
$DIMTIH
70
0
9
$LUNITS
70
2
9
$LUPREC
70
4
9
$AUNITS
70
0
9
$AUPREC
70
2
9
$SPLINESEGS
70
8
9
$GRIDMODE
70
1
9
$SNAPSTYLE
70
0
9
$PINSBASE
10
0
20
0
30
0
9
$PLIMMIN
10
0
20
0
9
$PLIMMAX
10
210
20
297
9
$INSUNITS
70
4
9
$PSVPSCALE
40
1
0
ENDSEC
0
SECTION
2
CLASSES
0
ENDSEC
0
SECTION
2
TABLES
0
TABLE
2
VPORT
5
8
330
0
100
AcDbSymbolTable
70
1
0
VPORT
5
31
330
2
100
AcDbSymbolTableRecord
100
AcDbViewportTableRecord
2
*ACTIVE
70
0
10
0
20
0
11
1
21
1
12
112.875
22
39.125
13
0
23
0
14
10
24
10
15
10
25
10
16
0
26
0
36
1
17
0
27
0
37
0
40
168.5
41
1.50890207715
42
50
43
0
44
0
50
0
51
0
71
0
72
100
73
1
74
3
75
0
76
1
77
0
78
0
281
0
65
1
110
0
120
0
130
0
111
1
121
0
131
0
112
0
122
1
132
0
79
0
146
0
348
10020
60
7
61
5
292
1
282
1
141
0
142
0
63
250
421
3358443
0
ENDTAB
0
TABLE
2
LTYPE
5
5
330
0
100
AcDbSymbolTable
70
4
0
LTYPE
5
14
330
5
100
AcDbSymbolTableRecord
100
AcDbLinetypeTableRecord
2
ByBlock
70
0
3

72
65
73
0
40
0
0
LTYPE
5
15
330
5
100
AcDbSymbolTableRecord
100
AcDbLinetypeTableRecord
2
ByLayer
70
0
3

72
65
73
0
40
0
0
LTYPE
5
16
330
5
100
AcDbSymbolTableRecord
100
AcDbLinetypeTableRecord
2
Continuous
70
0
3
Solid line
72
65
73
0
40
0
0
LTYPE
5
32
330
5
100
AcDbSymbolTableRecord
100
AcDbLinetypeTableRecord
2
DOT
70
0
3
Dot . . . . . . . . . . . . . . . . . . . . . .
72
65
73
2
40
6.35
49
0
74
0
49
-6.35
74
0
0
LTYPE
5
33
330
5
100
AcDbSymbolTableRecord
100
AcDbLinetypeTableRecord
2
DOT2
70
0
3
Dot (.5x) .....................................
72
65
73
2
40
3.175
49
0
74
0
49
-3.175
74
0
0
LTYPE
5
34
330
5
100
AcDbSymbolTableRecord
100
AcDbLinetypeTableRecord
2
DOTX2
70
0
3
Dot (2x) .  .  .  .  .  .  .  .  .  .  .  .  .
72
65
73
2
40
12.7
49
0
74
0
49
-12.7
74
0
0
LTYPE
5
35
330
5
100
AcDbSymbolTableRecord
100
AcDbLinetypeTableRecord
2
DASHED
70
0
3
Dot . . . . . . . . . . . . . . . . . . . . . .
72
65
73
2
40
19.05
49
12.7
74
0
49
-6.35
74
0
0
LTYPE
5
36
330
5
100
AcDbSymbolTableRecord
100
AcDbLinetypeTableRecord
2
DASHED2
70
0
3
Dashed (.5x) _ _ _ _ _ _ _ _ _ _ _ _ _ _ _ _ _
72
65
73
2
40
9.525
49
6.35
74
0
49
-3.175
74
0
0
LTYPE
5
37
330
5
100
AcDbSymbolTableRecord
100
AcDbLinetypeTableRecord
2
DASHEDX2
70
0
3
Dashed (2x) ____  ____  ____  ____  ____  ___
72
65
73
2
40
38.1
49
25.4
74
0
49
-12.7
74
0
0
LTYPE
5
38
330
5
100
AcDbSymbolTableRecord
100
AcDbLinetypeTableRecord
2
DASHDOT
70
0
3
Dash dot __ . __ . __ . __ . __ . __ . __ . __
72
65
73
4
40
25.4
49
12.7
74
0
49
-6.35
74
0
49
0
74
0
49
-6.35
74
0
0
LTYPE
5
39
330
5
100
AcDbSymbolTableRecord
100
AcDbLinetypeTableRecord
2
DASHDOT2
70
0
3
Dash dot (.5x) _._._._._._._._._._._._._._._.
72
65
73
4
40
12.7
49
6.35
74
0
49
-3.175
74
0
49
0
74
0
49
-3.175
74
0
0
LTYPE
5
3A
330
5
100
AcDbSymbolTableRecord
100
AcDbLinetypeTableRecord
2
DASHDOTX2
70
0
3
Dash dot (2x) ____  .  ____  .  ____  .  ___
72
65
73
4
40
50.8
49
25.4
74
0
49
-12.7
74
0
49
0
74
0
49
-12.7
74
0
0
LTYPE
5
3B
330
5
100
AcDbSymbolTableRecord
100
AcDbLinetypeTableRecord
2
DIVIDE
70
0
3
Divide ____ . . ____ . . ____ . . ____ . . ____
72
65
73
6
40
31.75
49
12.7
74
0
49
-6.35
74
0
49
0
74
0
49
-6.35
74
0
49
0
74
0
49
-6.35
74
0
0
LTYPE
5
3C
330
5
100
AcDbSymbolTableRecord
100
AcDbLinetypeTableRecord
2
DIVIDE2
70
0
3
Divide (.5x) __..__..__..__..__..__..__..__.._
72
65
73
6
40
15.875
49
6.35
74
0
49
-3.175
74
0
49
0
74
0
49
-3.175
74
0
49
0
74
0
49
-3.175
74
0
0
LTYPE
5
3D
330
5
100
AcDbSymbolTableRecord
100
AcDbLinetypeTableRecord
2
DIVIDEX2
70
0
3
Divide (2x) ________  .  .  ________  .  .  _
72
65
73
6
40
63.5
49
25.4
74
0
49
-12.7
74
0
49
0
74
0
49
-12.7
74
0
49
0
74
0
49
-12.7
74
0
0
LTYPE
5
3E
330
5
100
AcDbSymbolTableRecord
100
AcDbLinetypeTableRecord
2
BORDER
70
0
3
Border __ __ . __ __ . __ __ . __ __ . __ __ .
72
65
73
6
40
44.45
49
12.7
74
0
49
-6.35
74
0
49
12.7
74
0
49
-6.35
74
0
49
0
74
0
49
-6.35
74
0
0
LTYPE
5
3F
330
5
100
AcDbSymbolTableRecord
100
AcDbLinetypeTableRecord
2
BORDER2
70
0
3
Border (.5x) __.__.__.__.__.__.__.__.__.__.__.
72
65
73
6
40
22.225
49
6.35
74
0
49
-3.175
74
0
49
6.35
74
0
49
-3.175
74
0
49
0
74
0
49
-3.175
74
0
0
LTYPE
5
40
330
5
100
AcDbSymbolTableRecord
100
AcDbLinetypeTableRecord
2
BORDERX2
70
0
3
Border (2x) ____  ____  .  ____  ____  .  ___
72
65
73
6
40
88.9
49
25.4
74
0
49
-12.7
74
0
49
25.4
74
0
49
-12.7
74
0
49
0
74
0
49
-12.7
74
0
0
LTYPE
5
41
330
5
100
AcDbSymbolTableRecord
100
AcDbLinetypeTableRecord
2
CENTER
70
0
3
Center ____ _ ____ _ ____ _ ____ _ ____ _ ____
72
65
73
4
40
50.8
49
31.75
74
0
49
-6.35
74
0
49
6.35
74
0
49
-6.35
74
0
0
LTYPE
5
42
330
5
100
AcDbSymbolTableRecord
100
AcDbLinetypeTableRecord
2
CENTER2
70
0
3
Center (.5x) ___ _ ___ _ ___ _ ___ _ ___ _ ___
72
65
73
4
40
28.575
49
19.05
74
0
49
-3.175
74
0
49
3.175
74
0
49
-3.175
74
0
0
LTYPE
5
43
330
5
100
AcDbSymbolTableRecord
100
AcDbLinetypeTableRecord
2
CENTERX2
70
0
3
Center (2x) ________  __  ________  __  _____
72
65
73
4
40
101.6
49
63.5
74
0
49
-12.7
74
0
49
12.7
74
0
49
-12.7
74
0
0
ENDTAB
0
TABLE
2
LAYER
5
2
330
0
100
AcDbSymbolTable
70
1
0
LAYER
5
10
330
2
100
AcDbSymbolTableRecord
100
AcDbLayerTableRecord
2
0
70
0
62
7
6
CONTINUOUS
370
0
390
F
0
LAYER
5
44
330
2
100
AcDbSymbolTableRecord
100
AcDbLayerTableRecord
2
dim
70
0
62
1
6
CONTINUOUS
370
0
390
F
0
LAYER
5
45
330
2
100
AcDbSymbolTableRecord
100
AcDbLayerTableRecord
2
markings
70
0
62
5
6
CONTINUOUS
370
0
390
F
0
LAYER
5
46
330
2
100
AcDbSymbolTableRecord
100
AcDbLayerTableRecord
2
outline
70
0
62
7
6
CONTINUOUS
370
0
390
F
0
LAYER
5
47
330
2
100
AcDbSymbolTableRecord
100
AcDbLayerTableRecord
2
perforations
70
0
62
7
6
CONTINUOUS
370
0
390
F
0
LAYER
5
48
330
2
100
AcDbSymbolTableRecord
100
AcDbLayerTableRecord
2
template
70
5
62
6
6
CONTINUOUS
370
0
390
F
0
ENDTAB
0
TABLE
2
STYLE
5
3
330
0
100
AcDbSymbolTable
70
3
0
STYLE
5
49
330
2
100
AcDbSymbolTableRecord
100
AcDbTextStyleTableRecord
2
italiccs
70
0
40
0
41
1
50
0
71
0
42
1
3
italiccs
4

0
STYLE
5
4A
330
2
100
AcDbSymbolTableRecord
100
AcDbTextStyleTableRecord
2
Standard
70
0
40
0
41
1
50
0
71
0
42
1
3
txt
4

0
ENDTAB
0
TABLE
2
VIEW
5
6
330
0
100
AcDbSymbolTable
70
0
0
ENDTAB
0
TABLE
2
UCS
5
7
330
0
100
AcDbSymbolTable
70
0
0
ENDTAB
0
TABLE
2
APPID
5
9
330
0
100
AcDbSymbolTable
70
1
0
APPID
5
12
330
9
100
AcDbSymbolTableRecord
100
AcDbRegAppTableRecord
2
ACAD
70
0
0
ENDTAB
0
TABLE
2
DIMSTYLE
5
A
330
0
100
AcDbSymbolTable
70
1
100
AcDbDimStyleTable
71
1
0
DIMSTYLE
105
4B
330
A
100
AcDbSymbolTableRecord
100
AcDbDimStyleTableRecord
2
Standard
70
0
40
1
41
2.5
42
0.625
43
0.38
44
1.25
45
0
46
0
47
0
48
0
140
2.5
141
0.09
142
0
143
25.4
144
1
145
0
146
1
147
0.625
148
0
71
0
72
0
73
0
74
1
75
0
76
0
77
0
78
0
79
0
170
0
171
2
172
0
173
0
174
0
175
0
176
0
177
0
178
0
179
0
271
4
272
4
273
2
274
2
275
0
276
0
277
2
278
46
279
0
280
0
281
0
282
0
283
1
284
0
285
0
286
0
288
0
289
3
340
Standard
341

371
-2
372
-2
0
ENDTAB
0
TABLE
2
BLOCK_RECORD
5
1
330
0
100
AcDbSymbolTable
70
2
0
BLOCK_RECORD
5
1F
330
1
100
AcDbSymbolTableRecord
100
AcDbBlockTableRecord
2
*Model_Space
70
0
280
1
281
0
0
BLOCK_RECORD
5
1E
330
1
100
AcDbSymbolTableRecord
100
AcDbBlockTableRecord
2
*Paper_Space
70
0
280
1
281
0
0
BLOCK_RECORD
5
4C
330
1
100
AcDbSymbolTableRecord
100
AcDbBlockTableRecord
2
*D3
70
0
280
1
281
0
0
BLOCK_RECORD
5
4F
330
1
100
AcDbSymbolTableRecord
100
AcDbBlockTableRecord
2
*D6
70
0
280
1
281
0
0
BLOCK_RECORD
5
52
330
1
100
AcDbSymbolTableRecord
100
AcDbBlockTableRecord
2
*D8
70
0
280
1
281
0
0
BLOCK_RECORD
5
55
330
1
100
AcDbSymbolTableRecord
100
AcDbBlockTableRecord
2
*D11
70
0
280
1
281
0
0
BLOCK_RECORD
5
58
330
1
100
AcDbSymbolTableRecord
100
AcDbBlockTableRecord
2
*D17
70
0
280
1
281
0
0
BLOCK_RECORD
5
5B
330
1
100
AcDbSymbolTableRecord
100
AcDbBlockTableRecord
2
*D5
70
0
280
1
281
0
0
BLOCK_RECORD
5
5E
330
1
100
AcDbSymbolTableRecord
100
AcDbBlockTableRecord
2
*D16
70
0
280
1
281
0
0
BLOCK_RECORD
5
61
330
1
100
AcDbSymbolTableRecord
100
AcDbBlockTableRecord
2
*D1
70
0
280
1
281
0
0
BLOCK_RECORD
5
64
330
1
100
AcDbSymbolTableRecord
100
AcDbBlockTableRecord
2
*D12
70
0
280
1
281
0
0
BLOCK_RECORD
5
67
330
1
100
AcDbSymbolTableRecord
100
AcDbBlockTableRecord
2
*D13
70
0
280
1
281
0
0
BLOCK_RECORD
5
6A
330
1
100
AcDbSymbolTableRecord
100
AcDbBlockTableRecord
2
*D4
70
0
280
1
281
0
0
BLOCK_RECORD
5
6D
330
1
100
AcDbSymbolTableRecord
100
AcDbBlockTableRecord
2
*D14
70
0
280
1
281
0
0
BLOCK_RECORD
5
70
330
1
100
AcDbSymbolTableRecord
100
AcDbBlockTableRecord
2
*D7
70
0
280
1
281
0
0
BLOCK_RECORD
5
73
330
1
100
AcDbSymbolTableRecord
100
AcDbBlockTableRecord
2
*D2
70
0
280
1
281
0
0
BLOCK_RECORD
5
76
330
1
100
AcDbSymbolTableRecord
100
AcDbBlockTableRecord
2
*D10
70
0
280
1
281
0
0
BLOCK_RECORD
5
79
330
1
100
AcDbSymbolTableRecord
100
AcDbBlockTableRecord
2
*D15
70
0
280
1
281
0
0
BLOCK_RECORD
5
7C
330
1
100
AcDbSymbolTableRecord
100
AcDbBlockTableRecord
2
*D9
70
0
280
1
281
0
0
ENDTAB
0
ENDSEC
0
SECTION
2
BLOCKS
0
BLOCK
5
20
330
1F
100
AcDbEntity
8
0
100
AcDbBlockBegin
2
*Model_Space
70
0
10
0
20
0
30
0
3
*Model_Space
1

0
ENDBLK
5
21
330
1F
100
AcDbEntity
8
0
100
AcDbBlockEnd
0
BLOCK
5
1C
330
1B
100
AcDbEntity
8
0
100
AcDbBlockBegin
2
*Paper_Space
70
0
10
0
20
0
30
0
3
*Paper_Space
1

0
ENDBLK
5
1D
330
1F
100
AcDbEntity
8
0
100
AcDbBlockEnd
0
BLOCK
5
4D
330
4C
100
AcDbEntity
8
0
100
AcDbBlockBegin
2
*D3
70
1
10
0
20
0
3
*D3
1

0
LINE
5
7F
100
AcDbEntity
8
dim
6
CONTINUOUS
62
7
370
0
100
AcDbLine
10
181.5
20
7
11
181.5
21
0
0
SOLID
5
80
100
AcDbEntity
8
dim
6
CONTINUOUS
62
7
370
0
100
AcDbTrace
10
181.5
20
7
30
0
11
181.916284658
21
4.5
31
0
12
181.083715342
22
4.5
32
0
13
181.083715342
23
4.5
33
0
0
SOLID
5
81
100
AcDbEntity
8
dim
6
CONTINUOUS
62
7
370
0
100
AcDbTrace
10
181.5
20
0
30
0
11
181.083715342
21
2.5
31
0
12
181.916284658
22
2.5
32
0
13
181.916284658
23
2.5
33
0
0
MTEXT
5
82
100
AcDbEntity
8
dim
6
CONTINUOUS
62
7
370
0
100
AcDbMText
10
179.625
20
3.5
30
0
40
2.5
41
1.11111111111
71
5
72
1
1
7
7
standard
210
0
220
0
230
1
50
90
73
2
44
1
0
LINE
5
83
100
AcDbEntity
8
dim
6
CONTINUOUS
62
7
370
0
100
AcDbLine
10
145.625
20
7
11
182.75
21
7
0
LINE
5
84
100
AcDbEntity
8
dim
6
CONTINUOUS
62
7
370
0
100
AcDbLine
10
144.875
20
0
11
182.75
21
0
0
ENDBLK
5
4E
330
4C
100
AcDbEntity
8
0
100
AcDbBlockEnd
0
BLOCK
5
50
330
4F
100
AcDbEntity
8
0
100
AcDbBlockBegin
2
*D6
70
1
10
0
20
0
3
*D6
1

0
LINE
5
85
100
AcDbEntity
8
dim
6
CONTINUOUS
62
7
370
0
100
AcDbLine
10
197.25
20
62
11
197.25
21
54.5
0
SOLID
5
86
100
AcDbEntity
8
dim
6
CONTINUOUS
62
7
370
0
100
AcDbTrace
10
197.25
20
62
30
0
11
197.666284658
21
59.5
31
0
12
196.833715342
22
59.5
32
0
13
196.833715342
23
59.5
33
0
0
SOLID
5
87
100
AcDbEntity
8
dim
6
CONTINUOUS
62
7
370
0
100
AcDbTrace
10
197.25
20
54.5
30
0
11
196.833715342
21
57
31
0
12
197.666284658
22
57
32
0
13
197.666284658
23
57
33
0
0
MTEXT
5
88
100
AcDbEntity
8
dim
6
CONTINUOUS
62
7
370
0
100
AcDbMText
10
195.375
20
58.25
30
0
40
2.5
41
3.88888888889
71
5
72
1
1
7.5
7
standard
210
0
220
0
230
1
50
90
73
2
44
1
0
LINE
5
89
100
AcDbEntity
8
dim
6
CONTINUOUS
62
7
370
0
100
AcDbLine
10
145.625
20
62
11
198.5
21
62
0
LINE
5
8A
100
AcDbEntity
8
dim
6
CONTINUOUS
62
7
370
0
100
AcDbLine
10
138.125
20
54.5
11
198.5
21
54.5
0
ENDBLK
5
51
330
4F
100
AcDbEntity
8
0
100
AcDbBlockEnd
0
BLOCK
5
53
330
52
100
AcDbEntity
8
0
100
AcDbBlockBegin
2
*D8
70
1
10
0
20
0
3
*D8
1

0
LINE
5
8B
100
AcDbEntity
8
dim
6
CONTINUOUS
62
7
370
0
100
AcDbLine
10
171.5
20
9
11
171.5
21
-5
0
SOLID
5
8C
100
AcDbEntity
8
dim
6
CONTINUOUS
62
7
370
0
100
AcDbTrace
10
171.5
20
4
30
0
11
171.083715342
21
6.5
31
0
12
171.916284658
22
6.5
32
0
13
171.916284658
23
6.5
33
0
0
SOLID
5
8D
100
AcDbEntity
8
dim
6
CONTINUOUS
62
7
370
0
100
AcDbTrace
10
171.5
20
-3.94430452611e-31
30
0
11
171.916284658
21
-2.5
31
0
12
171.083715342
22
-2.5
32
0
13
171.083715342
23
-2.5
33
0
0
MTEXT
5
8E
100
AcDbEntity
8
dim
6
CONTINUOUS
62
7
370
0
100
AcDbMText
10
169.625
20
2
30
0
40
2.5
41
1.38888888889
71
5
72
1
1
4
7
standard
210
0
220
0
230
1
50
90
73
2
44
1
0
LINE
5
8F
100
AcDbEntity
8
dim
6
CONTINUOUS
62
7
370
0
100
AcDbLine
10
156.275
20
4
11
172.75
21
4
0
LINE
5
90
100
AcDbEntity
8
dim
6
CONTINUOUS
62
7
370
0
100
AcDbLine
10
154.875
20
0
11
172.75
21
-3.94430452611e-31
0
ENDBLK
5
54
330
52
100
AcDbEntity
8
0
100
AcDbBlockEnd
0
BLOCK
5
56
330
55
100
AcDbEntity
8
0
100
AcDbBlockBegin
2
*D11
70
1
10
0
20
0
3
*D11
1

0
LINE
5
91
100
AcDbEntity
8
dim
6
CONTINUOUS
62
7
370
0
100
AcDbLine
10
-16.25
20
9
11
-16.25
21
-5
0
SOLID
5
92
100
AcDbEntity
8
dim
6
CONTINUOUS
62
7
370
0
100
AcDbTrace
10
-16.25
20
4
30
0
11
-16.6662846578
21
6.5
31
0
12
-15.8337153422
22
6.5
32
0
13
-15.8337153422
23
6.5
33
0
0
SOLID
5
93
100
AcDbEntity
8
dim
6
CONTINUOUS
62
7
370
0
100
AcDbTrace
10
-16.25
20
2.22044604925e-15
30
0
11
-15.8337153422
21
-2.5
31
0
12
-16.6662846578
22
-2.5
32
0
13
-16.6662846578
23
-2.5
33
0
0
MTEXT
5
94
100
AcDbEntity
8
dim
6
CONTINUOUS
62
7
370
0
100
AcDbMText
10
-18.125
20
2
30
0
40
2.5
41
1.38888888889
71
5
72
1
1
4
7
standard
210
0
220
0
230
1
50
90
73
2
44
1
0
LINE
5
95
100
AcDbEntity
8
dim
6
CONTINUOUS
62
7
370
0
100
AcDbLine
10
3.025
20
4
11
-17.5
21
4
0
LINE
5
96
100
AcDbEntity
8
dim
6
CONTINUOUS
62
7
370
0
100
AcDbLine
10
14.375
20
7.65404249467e-17
11
-17.5
21
2.37352689914e-15
0
ENDBLK
5
57
330
55
100
AcDbEntity
8
0
100
AcDbBlockEnd
0
BLOCK
5
59
330
58
100
AcDbEntity
8
0
100
AcDbBlockBegin
2
*D17
70
1
10
0
20
0
3
*D17
1

0
LINE
5
97
100
AcDbEntity
8
dim
6
CONTINUOUS
62
7
370
0
100
AcDbLine
10
20
20
-22.75
11
32.9
21
-22.75
0
SOLID
5
98
100
AcDbEntity
8
dim
6
CONTINUOUS
62
7
370
0
100
AcDbTrace
10
20
20
-22.75
30
0
11
22.5
21
-22.3337153422
31
0
12
22.5
22
-23.1662846578
32
0
13
22.5
23
-23.1662846578
33
0
0
SOLID
5
99
100
AcDbEntity
8
dim
6
CONTINUOUS
62
7
370
0
100
AcDbTrace
10
32.9
20
-22.75
30
0
11
30.4
21
-23.1662846578
31
0
12
30.4
22
-22.3337153422
32
0
13
30.4
23
-22.3337153422
33
0
0
MTEXT
5
9A
100
AcDbEntity
8
dim
6
CONTINUOUS
62
7
370
0
100
AcDbMText
10
26.45
20
-20.875
30
0
40
2.5
41
5.27777777778
71
5
72
1
1
12.9
7
standard
210
0
220
0
230
1
50
0
73
2
44
1
0
LINE
5
9B
100
AcDbEntity
8
dim
6
CONTINUOUS
62
7
370
0
100
AcDbLine
10
20
20
30.175
11
20
21
-24
0
LINE
5
9C
100
AcDbEntity
8
dim
6
CONTINUOUS
62
7
370
0
100
AcDbLine
10
32.9
20
30.175
11
32.9
21
-24
0
ENDBLK
5
5A
330
58
100
AcDbEntity
8
0
100
AcDbBlockEnd
0
BLOCK
5
5C
330
5B
100
AcDbEntity
8
0
100
AcDbBlockBegin
2
*D5
70
1
10
0
20
0
3
*D5
1

0
LINE
5
9D
100
AcDbEntity
8
dim
6
CONTINUOUS
62
7
370
0
100
AcDbLine
10
171.75
20
14.5
11
171.75
21
54.5
0
SOLID
5
9E
100
AcDbEntity
8
dim
6
CONTINUOUS
62
7
370
0
100
AcDbTrace
10
171.75
20
14.5
30
0
11
171.333715342
21
17
31
0
12
172.166284658
22
17
32
0
13
172.166284658
23
17
33
0
0
SOLID
5
9F
100
AcDbEntity
8
dim
6
CONTINUOUS
62
7
370
0
100
AcDbTrace
10
171.75
20
54.5
30
0
11
172.166284658
21
52
31
0
12
171.333715342
22
52
32
0
13
171.333715342
23
52
33
0
0
MTEXT
5
A0
100
AcDbEntity
8
dim
6
CONTINUOUS
62
7
370
0
100
AcDbMText
10
169.875
20
34.5
30
0
40
2.5
41
3.33333333333
71
5
72
1
1
40
7
standard
210
0
220
0
230
1
50
90
73
2
44
1
0
LINE
5
A1
100
AcDbEntity
8
dim
6
CONTINUOUS
62
7
370
0
100
AcDbLine
10
143.125
20
14.5
11
173
21
14.5
0
LINE
5
A2
100
AcDbEntity
8
dim
6
CONTINUOUS
62
7
370
0
100
AcDbLine
10
143.125
20
54.5
11
173
21
54.5
0
ENDBLK
5
5D
330
5B
100
AcDbEntity
8
0
100
AcDbBlockEnd
0
BLOCK
5
5F
330
5E
100
AcDbEntity
8
0
100
AcDbBlockBegin
2
*D16
70
1
10
0
20
0
3
*D16
1

0
LINE
5
A3
100
AcDbEntity
8
dim
6
CONTINUOUS
62
7
370
0
100
AcDbLine
10
54.5
20
-20.25
11
142.5
21
-20.25
0
SOLID
5
A4
100
AcDbEntity
8
dim
6
CONTINUOUS
62
7
370
0
100
AcDbTrace
10
54.5
20
-20.25
30
0
11
57
21
-19.8337153422
31
0
12
57
22
-20.6662846578
32
0
13
57
23
-20.6662846578
33
0
0
SOLID
5
A5
100
AcDbEntity
8
dim
6
CONTINUOUS
62
7
370
0
100
AcDbTrace
10
142.5
20
-20.25
30
0
11
140
21
-20.6662846578
31
0
12
140
22
-19.8337153422
32
0
13
140
23
-19.8337153422
33
0
0
MTEXT
5
A6
100
AcDbEntity
8
dim
6
CONTINUOUS
62
7
370
0
100
AcDbMText
10
98.5
20
-18.375
30
0
40
2.5
41
3.05555555556
71
5
72
1
1
88
7
standard
210
0
220
0
230
1
50
0
73
2
44
1
0
LINE
5
A7
100
AcDbEntity
8
dim
6
CONTINUOUS
62
7
370
0
100
AcDbLine
10
54.5
20
13.875
11
54.5
21
-21.5
0
LINE
5
A8
100
AcDbEntity
8
dim
6
CONTINUOUS
62
7
370
0
100
AcDbLine
10
142.5
20
13.875
11
142.5
21
-21.5
0
ENDBLK
5
60
330
5E
100
AcDbEntity
8
0
100
AcDbBlockEnd
0
BLOCK
5
62
330
61
100
AcDbEntity
8
0
100
AcDbBlockBegin
2
*D1
70
1
10
0
20
0
3
*D1
1

0
LINE
5
A9
100
AcDbEntity
8
dim
6
CONTINUOUS
62
7
370
0
100
AcDbLine
10
0
20
-10.6
11
159.3
21
-10.6
0
SOLID
5
AA
100
AcDbEntity
8
dim
6
CONTINUOUS
62
7
370
0
100
AcDbTrace
10
0
20
-10.6
30
0
11
2.5
21
-10.1837153422
31
0
12
2.5
22
-11.0162846578
32
0
13
2.5
23
-11.0162846578
33
0
0
SOLID
5
AB
100
AcDbEntity
8
dim
6
CONTINUOUS
62
7
370
0
100
AcDbTrace
10
159.3
20
-10.6
30
0
11
156.8
21
-11.0162846578
31
0
12
156.8
22
-10.1837153422
32
0
13
156.8
23
-10.1837153422
33
0
0
MTEXT
5
AC
100
AcDbEntity
8
dim
6
CONTINUOUS
62
7
370
0
100
AcDbMText
10
79.65
20
-8.725
30
0
40
2.5
41
7.22222222222
71
5
72
1
1
159.3
7
standard
210
0
220
0
230
1
50
0
73
2
44
1
0
LINE
5
AD
100
AcDbEntity
8
dim
6
CONTINUOUS
62
7
370
0
100
AcDbLine
10
-1.1481063742e-16
20
-0.625
11
-2.2962127484e-16
21
-11.85
0
LINE
5
AE
100
AcDbEntity
8
dim
6
CONTINUOUS
62
7
370
0
100
AcDbLine
10
159.3
20
-0.625
11
159.3
21
-11.85
0
ENDBLK
5
63
330
61
100
AcDbEntity
8
0
100
AcDbBlockEnd
0
BLOCK
5
65
330
64
100
AcDbEntity
8
0
100
AcDbBlockBegin
2
*D12
70
1
10
0
20
0
3
*D12
1

0
LINE
5
AF
100
AcDbEntity
8
dim
6
CONTINUOUS
62
7
370
0
100
AcDbLine
10
-5
20
-30.5
11
8.65
21
-30.5
0
SOLID
5
B0
100
AcDbEntity
8
dim
6
CONTINUOUS
62
7
370
0
100
AcDbTrace
10
0
20
-30.5
30
0
11
-2.5
21
-30.9162846578
31
0
12
-2.5
22
-30.0837153422
32
0
13
-2.5
23
-30.0837153422
33
0
0
SOLID
5
B1
100
AcDbEntity
8
dim
6
CONTINUOUS
62
7
370
0
100
AcDbTrace
10
3.65
20
-30.5
30
0
11
6.15
21
-30.0837153422
31
0
12
6.15
22
-30.9162846578
32
0
13
6.15
23
-30.9162846578
33
0
0
MTEXT
5
B2
100
AcDbEntity
8
dim
6
CONTINUOUS
62
7
370
0
100
AcDbMText
10
7.19166666667
20
-28.625
30
0
40
2.5
41
5.83333333333
71
5
72
1
1
3.65
7
standard
210
0
220
0
230
1
50
0
73
2
44
1
0
LINE
5
B3
100
AcDbEntity
8
dim
6
CONTINUOUS
62
7
370
0
100
AcDbLine
10
-1.1481063742e-16
20
7.075
11
-2.2962127484e-16
21
-31.75
0
LINE
5
B4
100
AcDbEntity
8
dim
6
CONTINUOUS
62
7
370
0
100
AcDbLine
10
3.65
20
3.375
11
3.65
21
-31.75
0
ENDBLK
5
66
330
64
100
AcDbEntity
8
0
100
AcDbBlockEnd
0
BLOCK
5
68
330
67
100
AcDbEntity
8
0
100
AcDbBlockBegin
2
*D13
70
1
10
0
20
0
3
*D13
1

0
LINE
5
B5
100
AcDbEntity
8
dim
6
CONTINUOUS
62
7
370
0
100
AcDbLine
10
0
20
-41.25
11
52
21
-41.25
0
SOLID
5
B6
100
AcDbEntity
8
dim
6
CONTINUOUS
62
7
370
0
100
AcDbTrace
10
0
20
-41.25
30
0
11
2.5
21
-40.8337153422
31
0
12
2.5
22
-41.6662846578
32
0
13
2.5
23
-41.6662846578
33
0
0
SOLID
5
B7
100
AcDbEntity
8
dim
6
CONTINUOUS
62
7
370
0
100
AcDbTrace
10
52
20
-41.25
30
0
11
49.5
21
-41.6662846578
31
0
12
49.5
22
-40.8337153422
32
0
13
49.5
23
-40.8337153422
33
0
0
MTEXT
5
B8
100
AcDbEntity
8
dim
6
CONTINUOUS
62
7
370
0
100
AcDbMText
10
26
20
-39.375
30
0
40
2.5
41
3.05555555556
71
5
72
1
1
52
7
standard
210
0
220
0
230
1
50
0
73
2
44
1
0
LINE
5
B9
100
AcDbEntity
8
dim
6
CONTINUOUS
62
7
370
0
100
AcDbLine
10
-1.1481063742e-16
20
-0.625
11
-2.2962127484e-16
21
-42.5
0
LINE
5
BA
100
AcDbEntity
8
dim
6
CONTINUOUS
62
7
370
0
100
AcDbLine
10
52
20
6.375
11
52
21
-42.5
0
ENDBLK
5
69
330
67
100
AcDbEntity
8
0
100
AcDbBlockEnd
0
BLOCK
5
6B
330
6A
100
AcDbEntity
8
0
100
AcDbBlockBegin
2
*D4
70
1
10
0
20
0
3
*D4
1

0
LINE
5
BB
100
AcDbEntity
8
dim
6
CONTINUOUS
62
7
370
0
100
AcDbLine
10
181
20
62
11
181
21
7
0
SOLID
5
BC
100
AcDbEntity
8
dim
6
CONTINUOUS
62
7
370
0
100
AcDbTrace
10
181
20
62
30
0
11
181.416284658
21
59.5
31
0
12
180.583715342
22
59.5
32
0
13
180.583715342
23
59.5
33
0
0
SOLID
5
BD
100
AcDbEntity
8
dim
6
CONTINUOUS
62
7
370
0
100
AcDbTrace
10
181
20
7
30
0
11
180.583715342
21
9.5
31
0
12
181.416284658
22
9.5
32
0
13
181.416284658
23
9.5
33
0
0
MTEXT
5
BE
100
AcDbEntity
8
dim
6
CONTINUOUS
62
7
370
0
100
AcDbMText
10
179.125
20
34.5
30
0
40
2.5
41
3.05555555556
71
5
72
1
1
55
7
standard
210
0
220
0
230
1
50
90
73
2
44
1
0
LINE
5
BF
100
AcDbEntity
8
dim
6
CONTINUOUS
62
7
370
0
100
AcDbLine
10
145.625
20
62
11
182.25
21
62
0
LINE
5
C0
100
AcDbEntity
8
dim
6
CONTINUOUS
62
7
370
0
100
AcDbLine
10
145.625
20
7
11
182.25
21
7
0
ENDBLK
5
6C
330
6A
100
AcDbEntity
8
0
100
AcDbBlockEnd
0
BLOCK
5
6E
330
6D
100
AcDbEntity
8
0
100
AcDbBlockBegin
2
*D14
70
1
10
0
20
0
3
*D14
1

0
LINE
5
C1
100
AcDbEntity
8
dim
6
CONTINUOUS
62
7
370
0
100
AcDbLine
10
52
20
-41.25
11
145
21
-41.25
0
SOLID
5
C2
100
AcDbEntity
8
dim
6
CONTINUOUS
62
7
370
0
100
AcDbTrace
10
52
20
-41.25
30
0
11
54.5
21
-40.8337153422
31
0
12
54.5
22
-41.6662846578
32
0
13
54.5
23
-41.6662846578
33
0
0
SOLID
5
C3
100
AcDbEntity
8
dim
6
CONTINUOUS
62
7
370
0
100
AcDbTrace
10
145
20
-41.25
30
0
11
142.5
21
-41.6662846578
31
0
12
142.5
22
-40.8337153422
32
0
13
142.5
23
-40.8337153422
33
0
0
MTEXT
5
C4
100
AcDbEntity
8
dim
6
CONTINUOUS
62
7
370
0
100
AcDbMText
10
98.5
20
-39.375
30
0
40
2.5
41
3.05555555556
71
5
72
1
1
93
7
standard
210
0
220
0
230
1
50
0
73
2
44
1
0
LINE
5
C5
100
AcDbEntity
8
dim
6
CONTINUOUS
62
7
370
0
100
AcDbLine
10
52
20
6.375
11
52
21
-42.5
0
LINE
5
C6
100
AcDbEntity
8
dim
6
CONTINUOUS
62
7
370
0
100
AcDbLine
10
145
20
6.375
11
145
21
-42.5
0
ENDBLK
5
6F
330
6D
100
AcDbEntity
8
0
100
AcDbBlockEnd
0
BLOCK
5
71
330
70
100
AcDbEntity
8
0
100
AcDbBlockBegin
2
*D7
70
1
10
0
20
0
3
*D7
1

0
LINE
5
C7
100
AcDbEntity
8
dim
6
CONTINUOUS
62
7
370
0
100
AcDbLine
10
171.25
20
58.7
11
171.25
21
73.7
0
SOLID
5
C8
100
AcDbEntity
8
dim
6
CONTINUOUS
62
7
370
0
100
AcDbTrace
10
171.25
20
63.7
30
0
11
171.666284658
21
61.2
31
0
12
170.833715342
22
61.2
32
0
13
170.833715342
23
61.2
33
0
0
SOLID
5
C9
100
AcDbEntity
8
dim
6
CONTINUOUS
62
7
370
0
100
AcDbTrace
10
171.25
20
68.7
30
0
11
170.833715342
21
71.2
31
0
12
171.666284658
22
71.2
32
0
13
171.666284658
23
71.2
33
0
0
MTEXT
5
CA
100
AcDbEntity
8
dim
6
CONTINUOUS
62
7
370
0
100
AcDbMText
10
169.375
20
66.2
30
0
40
2.5
41
1.11111111111
71
5
72
1
1
5
7
standard
210
0
220
0
230
1
50
90
73
2
44
1
0
LINE
5
CB
100
AcDbEntity
8
dim
6
CONTINUOUS
62
7
370
0
100
AcDbLine
10
153.925
20
63.7
11
172.5
21
63.7
0
LINE
5
CC
100
AcDbEntity
8
dim
6
CONTINUOUS
62
7
370
0
100
AcDbLine
10
150.975
20
68.7
11
172.5
21
68.7
0
ENDBLK
5
72
330
70
100
AcDbEntity
8
0
100
AcDbBlockEnd
0
BLOCK
5
74
330
73
100
AcDbEntity
8
0
100
AcDbBlockBegin
2
*D2
70
1
10
0
20
0
3
*D2
1

0
LINE
5
CD
100
AcDbEntity
8
dim
6
CONTINUOUS
62
7
370
0
100
AcDbLine
10
214
20
69.3
11
214
21
0
0
SOLID
5
CE
100
AcDbEntity
8
dim
6
CONTINUOUS
62
7
370
0
100
AcDbTrace
10
214
20
69.3
30
0
11
214.416284658
21
66.8
31
0
12
213.583715342
22
66.8
32
0
13
213.583715342
23
66.8
33
0
0
SOLID
5
CF
100
AcDbEntity
8
dim
6
CONTINUOUS
62
7
370
0
100
AcDbTrace
10
214
20
0
30
0
11
213.583715342
21
2.5
31
0
12
214.416284658
22
2.5
32
0
13
214.416284658
23
2.5
33
0
0
MTEXT
5
D0
100
AcDbEntity
8
dim
6
CONTINUOUS
62
7
370
0
100
AcDbMText
10
212.125
20
34.65
30
0
40
2.5
41
5.83333333333
71
5
72
1
1
69.3
7
standard
210
0
220
0
230
1
50
90
73
2
44
1
0
LINE
5
D1
100
AcDbEntity
8
dim
6
CONTINUOUS
62
7
370
0
100
AcDbLine
10
75.125
20
69.3
11
215.25
21
69.3
0
LINE
5
D2
100
AcDbEntity
8
dim
6
CONTINUOUS
62
7
370
0
100
AcDbLine
10
75.375
20
0
11
215.25
21
0
0
ENDBLK
5
75
330
73
100
AcDbEntity
8
0
100
AcDbBlockEnd
0
BLOCK
5
77
330
76
100
AcDbEntity
8
0
100
AcDbBlockBegin
2
*D10
70
1
10
0
20
0
3
*D10
1

0
LINE
5
D3
100
AcDbEntity
8
dim
6
CONTINUOUS
62
7
370
0
100
AcDbLine
10
-23
20
74.3
11
-23
21
58.7
0
SOLID
5
D4
100
AcDbEntity
8
dim
6
CONTINUOUS
62
7
370
0
100
AcDbTrace
10
-23
20
69.3
30
0
11
-23.4162846578
21
71.8
31
0
12
-22.5837153422
22
71.8
32
0
13
-22.5837153422
23
71.8
33
0
0
SOLID
5
D5
100
AcDbEntity
8
dim
6
CONTINUOUS
62
7
370
0
100
AcDbTrace
10
-23
20
63.7
30
0
11
-22.5837153422
21
61.2
31
0
12
-23.4162846578
22
61.2
32
0
13
-23.4162846578
23
61.2
33
0
0
MTEXT
5
D6
100
AcDbEntity
8
dim
6
CONTINUOUS
62
7
370
0
100
AcDbMText
10
-24.875
20
66.5
30
0
40
2.5
41
3.88888888889
71
5
72
1
1
5.6
7
standard
210
0
220
0
230
1
50
90
73
2
44
1
0
LINE
5
D7
100
AcDbEntity
8
dim
6
CONTINUOUS
62
7
370
0
100
AcDbLine
10
44.925
20
69.3
11
-24.25
21
69.3
0
LINE
5
D8
100
AcDbEntity
8
dim
6
CONTINUOUS
62
7
370
0
100
AcDbLine
10
5.375
20
63.7
11
-24.25
21
63.7
0
ENDBLK
5
78
330
76
100
AcDbEntity
8
0
100
AcDbBlockEnd
0
BLOCK
5
7A
330
79
100
AcDbEntity
8
0
100
AcDbBlockBegin
2
*D15
70
1
10
0
20
0
3
*D15
1

0
LINE
5
D9
100
AcDbEntity
8
dim
6
CONTINUOUS
62
7
370
0
100
AcDbLine
10
59.5
20
-28.25
11
47
21
-28.25
0
SOLID
5
DA
100
AcDbEntity
8
dim
6
CONTINUOUS
62
7
370
0
100
AcDbTrace
10
54.5
20
-28.25
30
0
11
57
21
-27.8337153422
31
0
12
57
22
-28.6662846578
32
0
13
57
23
-28.6662846578
33
0
0
SOLID
5
DB
100
AcDbEntity
8
dim
6
CONTINUOUS
62
7
370
0
100
AcDbTrace
10
52
20
-28.25
30
0
11
49.5
21
-28.6662846578
31
0
12
49.5
22
-27.8337153422
32
0
13
49.5
23
-27.8337153422
33
0
0
MTEXT
5
DC
100
AcDbEntity
8
dim
6
CONTINUOUS
62
7
370
0
100
AcDbMText
10
57.0694444444
20
-26.375
30
0
40
2.5
41
3.88888888889
71
5
72
1
1
2.5
7
standard
210
0
220
0
230
1
50
360
73
2
44
1
0
LINE
5
DD
100
AcDbEntity
8
dim
6
CONTINUOUS
62
7
370
0
100
AcDbLine
10
54.5
20
13.875
11
54.5
21
-29.5
0
LINE
5
DE
100
AcDbEntity
8
dim
6
CONTINUOUS
62
7
370
0
100
AcDbLine
10
52
20
6.375
11
52
21
-29.5
0
ENDBLK
5
7B
330
79
100
AcDbEntity
8
0
100
AcDbBlockEnd
0
BLOCK
5
7D
330
7C
100
AcDbEntity
8
0
100
AcDbBlockBegin
2
*D9
70
1
10
0
20
0
3
*D9
1

0
LINE
5
DF
100
AcDbEntity
8
dim
6
CONTINUOUS
62
7
370
0
100
AcDbLine
10
-17.75
20
50
11
-17.75
21
30.8
0
SOLID
5
E0
100
AcDbEntity
8
dim
6
CONTINUOUS
62
7
370
0
100
AcDbTrace
10
-17.75
20
50
30
0
11
-17.3337153422
21
47.5
31
0
12
-18.1662846578
22
47.5
32
0
13
-18.1662846578
23
47.5
33
0
0
SOLID
5
E1
100
AcDbEntity
8
dim
6
CONTINUOUS
62
7
370
0
100
AcDbTrace
10
-17.75
20
30.8
30
0
11
-18.1662846578
21
33.3
31
0
12
-17.3337153422
22
33.3
32
0
13
-17.3337153422
23
33.3
33
0
0
MTEXT
5
E2
100
AcDbEntity
8
dim
6
CONTINUOUS
62
7
370
0
100
AcDbMText
10
-19.625
20
40.4
30
0
40
2.5
41
5.27777777778
71
5
72
1
1
19.2
7
standard
210
0
220
0
230
1
50
90
73
2
44
1
0
LINE
5
E3
100
AcDbEntity
8
dim
6
CONTINUOUS
62
7
370
0
100
AcDbLine
10
19.375
20
50
11
-19
21
50
0
LINE
5
E4
100
AcDbEntity
8
dim
6
CONTINUOUS
62
7
370
0
100
AcDbLine
10
19.375
20
30.8
11
-19
21
30.8
0
ENDBLK
5
7E
330
7C
100
AcDbEntity
8
0
100
AcDbBlockEnd
0
ENDSEC
0
SECTION
2
ENTITIES
0
LINE
5
E5
100
AcDbEntity
8
template
6
ByLayer
62
256
370
-1
100
AcDbLine
10
0
20
0
11
159.3
21
0
0
LINE
5
E6
100
AcDbEntity
8
template
6
ByLayer
62
256
370
-1
100
AcDbLine
10
159.3
20
0
11
159.3
21
68.7
0
LINE
5
E7
100
AcDbEntity
8
template
6
ByLayer
62
256
370
-1
100
AcDbLine
10
159.3
20
68.7
11
0
21
68.7
0
LINE
5
E8
100
AcDbEntity
8
template
6
ByLayer
62
256
370
-1
100
AcDbLine
10
0
20
68.7
11
0
21
0
0
LINE
5
E9
100
AcDbEntity
8
template
6
ByLayer
62
256
370
-1
100
AcDbLine
10
0
20
7
11
0
21
9.7
0
LINE
5
EA
100
AcDbEntity
8
outline
6
ByLayer
62
256
370
-1
100
AcDbLine
10
0
20
0
11
0
21
7.7
0
LINE
5
EB
100
AcDbEntity
8
outline
6
ByLayer
62
256
370
-1
100
AcDbLine
10
0
20
7.7
11
0
21
9.7
0
ARC
5
EC
100
AcDbEntity
8
outline
6
ByLayer
62
256
370
-1
100
AcDbCircle
10
0
20
10.7
40
1
100
AcDbArc
50
90
51
270
0
LINE
5
ED
100
AcDbEntity
8
outline
6
ByLayer
62
256
370
-1
100
AcDbLine
10
6.12323399574e-17
20
11.7
11
6.12323399574e-17
21
13.7
0
ARC
5
EE
100
AcDbEntity
8
outline
6
ByLayer
62
256
370
-1
100
AcDbCircle
10
6.12323399574e-17
20
14.7
40
1
100
AcDbArc
50
90
51
270
0
LINE
5
EF
100
AcDbEntity
8
outline
6
ByLayer
62
256
370
-1
100
AcDbLine
10
1.22464679915e-16
20
15.7
11
1.22464679915e-16
21
17.7
0
ARC
5
F0
100
AcDbEntity
8
outline
6
ByLayer
62
256
370
-1
100
AcDbCircle
10
1.22464679915e-16
20
18.7
40
1
100
AcDbArc
50
90
51
270
0
LINE
5
F1
100
AcDbEntity
8
outline
6
ByLayer
62
256
370
-1
100
AcDbLine
10
1.83697019872e-16
20
19.7
11
1.83697019872e-16
21
21.7
0
ARC
5
F2
100
AcDbEntity
8
outline
6
ByLayer
62
256
370
-1
100
AcDbCircle
10
1.83697019872e-16
20
22.7
40
1
100
AcDbArc
50
90
51
270
0
LINE
5
F3
100
AcDbEntity
8
outline
6
ByLayer
62
256
370
-1
100
AcDbLine
10
2.44929359829e-16
20
23.7
11
2.44929359829e-16
21
25.7
0
ARC
5
F4
100
AcDbEntity
8
outline
6
ByLayer
62
256
370
-1
100
AcDbCircle
10
2.44929359829e-16
20
26.7
40
1
100
AcDbArc
50
90
51
270
0
LINE
5
F5
100
AcDbEntity
8
outline
6
ByLayer
62
256
370
-1
100
AcDbLine
10
3.06161699787e-16
20
27.7
11
3.06161699787e-16
21
29.7
0
ARC
5
F6
100
AcDbEntity
8
outline
6
ByLayer
62
256
370
-1
100
AcDbCircle
10
3.06161699787e-16
20
30.7
40
1
100
AcDbArc
50
90
51
270
0
LINE
5
F7
100
AcDbEntity
8
outline
6
ByLayer
62
256
370
-1
100
AcDbLine
10
3.67394039744e-16
20
31.7
11
3.67394039744e-16
21
33.7
0
ARC
5
F8
100
AcDbEntity
8
outline
6
ByLayer
62
256
370
-1
100
AcDbCircle
10
3.67394039744e-16
20
34.7
40
1
100
AcDbArc
50
90
51
270
0
LINE
5
F9
100
AcDbEntity
8
outline
6
ByLayer
62
256
370
-1
100
AcDbLine
10
4.28626379702e-16
20
35.7
11
4.28626379702e-16
21
37.7
0
ARC
5
FA
100
AcDbEntity
8
outline
6
ByLayer
62
256
370
-1
100
AcDbCircle
10
4.28626379702e-16
20
38.7
40
1
100
AcDbArc
50
90
51
270
0
LINE
5
FB
100
AcDbEntity
8
outline
6
ByLayer
62
256
370
-1
100
AcDbLine
10
4.89858719659e-16
20
39.7
11
4.89858719659e-16
21
41.7
0
ARC
5
FC
100
AcDbEntity
8
outline
6
ByLayer
62
256
370
-1
100
AcDbCircle
10
4.89858719659e-16
20
42.7
40
1
100
AcDbArc
50
90
51
270
0
LINE
5
FD
100
AcDbEntity
8
outline
6
ByLayer
62
256
370
-1
100
AcDbLine
10
5.51091059616e-16
20
43.7
11
5.51091059616e-16
21
45.7
0
ARC
5
FE
100
AcDbEntity
8
outline
6
ByLayer
62
256
370
-1
100
AcDbCircle
10
5.51091059616e-16
20
46.7
40
1
100
AcDbArc
50
90
51
270
0
LINE
5
FF
100
AcDbEntity
8
outline
6
ByLayer
62
256
370
-1
100
AcDbLine
10
6.12323399574e-16
20
47.7
11
6.12323399574e-16
21
49.7
0
ARC
5
100
100
AcDbEntity
8
outline
6
ByLayer
62
256
370
-1
100
AcDbCircle
10
6.12323399574e-16
20
50.7
40
1
100
AcDbArc
50
90
51
270
0
LINE
5
101
100
AcDbEntity
8
outline
6
ByLayer
62
256
370
-1
100
AcDbLine
10
6.73555739531e-16
20
51.7
11
6.73555739531e-16
21
53.7
0
ARC
5
102
100
AcDbEntity
8
outline
6
ByLayer
62
256
370
-1
100
AcDbCircle
10
6.73555739531e-16
20
54.7
40
1
100
AcDbArc
50
90
51
270
0
LINE
5
103
100
AcDbEntity
8
outline
6
ByLayer
62
256
370
-1
100
AcDbLine
10
7.34788079488e-16
20
55.7
11
7.34788079488e-16
21
57.7
0
ARC
5
104
100
AcDbEntity
8
outline
6
ByLayer
62
256
370
-1
100
AcDbCircle
10
7.34788079488e-16
20
58.7
40
1
100
AcDbArc
50
90
51
270
0
LINE
5
105
100
AcDbEntity
8
outline
6
ByLayer
62
256
370
-1
100
AcDbLine
10
7.96020419446e-16
20
59.7
11
7.96020419446e-16
21
61.7
0
ARC
5
106
100
AcDbEntity
8
outline
6
ByLayer
62
256
370
-1
100
AcDbCircle
10
7.96020419446e-16
20
62.7
40
1
100
AcDbArc
50
90
51
270
0
ARC
5
107
100
AcDbEntity
8
outline
6
ByLayer
62
256
370
-1
100
AcDbCircle
10
2.95
20
65.75
40
2.95
100
AcDbArc
50
90
51
180
0
LINE
5
108
100
AcDbEntity
8
outline
6
ByLayer
62
256
370
-1
100
AcDbLine
10
0
20
65.75
11
8.57252759403e-16
21
63.7
0
ARC
5
109
100
AcDbEntity
8
outline
6
ByLayer
62
256
370
-1
100
AcDbCircle
10
4.45
20
68.7
40
1.5
100
AcDbArc
50
0
51
180
0
LINE
5
10A
100
AcDbEntity
8
outline
6
ByLayer
62
256
370
-1
100
AcDbLine
10
5.95
20
68.7
11
8.95
21
68.7
0
ARC
5
10B
100
AcDbEntity
8
outline
6
ByLayer
62
256
370
-1
100
AcDbCircle
10
10.45
20
68.7
40
1.5
100
AcDbArc
50
0
51
180
0
LINE
5
10C
100
AcDbEntity
8
outline
6
ByLayer
62
256
370
-1
100
AcDbLine
10
11.95
20
68.7
11
14.95
21
68.7
0
ARC
5
10D
100
AcDbEntity
8
outline
6
ByLayer
62
256
370
-1
100
AcDbCircle
10
16.45
20
68.7
40
1.5
100
AcDbArc
50
0
51
180
0
LINE
5
10E
100
AcDbEntity
8
outline
6
ByLayer
62
256
370
-1
100
AcDbLine
10
17.95
20
68.7
11
20.95
21
68.7
0
ARC
5
10F
100
AcDbEntity
8
outline
6
ByLayer
62
256
370
-1
100
AcDbCircle
10
22.45
20
68.7
40
1.5
100
AcDbArc
50
0
51
180
0
LINE
5
110
100
AcDbEntity
8
outline
6
ByLayer
62
256
370
-1
100
AcDbLine
10
23.95
20
68.7
11
26.95
21
68.7
0
ARC
5
111
100
AcDbEntity
8
outline
6
ByLayer
62
256
370
-1
100
AcDbCircle
10
28.45
20
68.7
40
1.5
100
AcDbArc
50
0
51
180
0
LINE
5
112
100
AcDbEntity
8
outline
6
ByLayer
62
256
370
-1
100
AcDbLine
10
29.95
20
68.7
11
32.95
21
68.7
0
ARC
5
113
100
AcDbEntity
8
outline
6
ByLayer
62
256
370
-1
100
AcDbCircle
10
34.45
20
68.7
40
1.5
100
AcDbArc
50
0
51
180
0
LINE
5
114
100
AcDbEntity
8
outline
6
ByLayer
62
256
370
-1
100
AcDbLine
10
35.95
20
68.7
11
38.95
21
68.7
0
ARC
5
115
100
AcDbEntity
8
outline
6
ByLayer
62
256
370
-1
100
AcDbCircle
10
40.45
20
68.7
40
1.5
100
AcDbArc
50
0
51
180
0
LINE
5
116
100
AcDbEntity
8
outline
6
ByLayer
62
256
370
-1
100
AcDbLine
10
41.95
20
68.7
11
44.95
21
68.7
0
LINE
5
117
100
AcDbEntity
8
outline
6
ByLayer
62
256
370
-1
100
AcDbLine
10
44.95
20
68.7
11
45.55
21
69.3
0
LINE
5
118
100
AcDbEntity
8
outline
6
ByLayer
62
256
370
-1
100
AcDbLine
10
45.55
20
69.3
11
83.75
21
69.3
0
LINE
5
119
100
AcDbEntity
8
outline
6
ByLayer
62
256
370
-1
100
AcDbLine
10
83.75
20
69.3
11
84.35
21
68.7
0
LINE
5
11A
100
AcDbEntity
8
outline
6
ByLayer
62
256
370
-1
100
AcDbLine
10
84.35
20
68.7
11
87.35
21
68.7
0
ARC
5
11B
100
AcDbEntity
8
outline
6
ByLayer
62
256
370
-1
100
AcDbCircle
10
88.85
20
68.7
40
1.5
100
AcDbArc
50
0
51
180
0
LINE
5
11C
100
AcDbEntity
8
outline
6
ByLayer
62
256
370
-1
100
AcDbLine
10
90.35
20
68.7
11
93.35
21
68.7
0
ARC
5
11D
100
AcDbEntity
8
outline
6
ByLayer
62
256
370
-1
100
AcDbCircle
10
94.85
20
68.7
40
1.5
100
AcDbArc
50
0
51
180
0
LINE
5
11E
100
AcDbEntity
8
outline
6
ByLayer
62
256
370
-1
100
AcDbLine
10
96.35
20
68.7
11
99.35
21
68.7
0
ARC
5
11F
100
AcDbEntity
8
outline
6
ByLayer
62
256
370
-1
100
AcDbCircle
10
100.85
20
68.7
40
1.5
100
AcDbArc
50
0
51
180
0
LINE
5
120
100
AcDbEntity
8
outline
6
ByLayer
62
256
370
-1
100
AcDbLine
10
102.35
20
68.7
11
105.35
21
68.7
0
ARC
5
121
100
AcDbEntity
8
outline
6
ByLayer
62
256
370
-1
100
AcDbCircle
10
106.85
20
68.7
40
1.5
100
AcDbArc
50
0
51
180
0
LINE
5
122
100
AcDbEntity
8
outline
6
ByLayer
62
256
370
-1
100
AcDbLine
10
108.35
20
68.7
11
111.35
21
68.7
0
ARC
5
123
100
AcDbEntity
8
outline
6
ByLayer
62
256
370
-1
100
AcDbCircle
10
112.85
20
68.7
40
1.5
100
AcDbArc
50
0
51
180
0
LINE
5
124
100
AcDbEntity
8
outline
6
ByLayer
62
256
370
-1
100
AcDbLine
10
114.35
20
68.7
11
117.35
21
68.7
0
ARC
5
125
100
AcDbEntity
8
outline
6
ByLayer
62
256
370
-1
100
AcDbCircle
10
118.85
20
68.7
40
1.5
100
AcDbArc
50
0
51
180
0
LINE
5
126
100
AcDbEntity
8
outline
6
ByLayer
62
256
370
-1
100
AcDbLine
10
120.35
20
68.7
11
123.35
21
68.7
0
ARC
5
127
100
AcDbEntity
8
outline
6
ByLayer
62
256
370
-1
100
AcDbCircle
10
124.85
20
68.7
40
1.5
100
AcDbArc
50
0
51
180
0
LINE
5
128
100
AcDbEntity
8
outline
6
ByLayer
62
256
370
-1
100
AcDbLine
10
126.35
20
68.7
11
129.35
21
68.7
0
ARC
5
129
100
AcDbEntity
8
outline
6
ByLayer
62
256
370
-1
100
AcDbCircle
10
130.85
20
68.7
40
1.5
100
AcDbArc
50
0
51
180
0
LINE
5
12A
100
AcDbEntity
8
outline
6
ByLayer
62
256
370
-1
100
AcDbLine
10
132.35
20
68.7
11
135.35
21
68.7
0
ARC
5
12B
100
AcDbEntity
8
outline
6
ByLayer
62
256
370
-1
100
AcDbCircle
10
136.85
20
68.7
40
1.5
100
AcDbArc
50
0
51
180
0
LINE
5
12C
100
AcDbEntity
8
outline
6
ByLayer
62
256
370
-1
100
AcDbLine
10
138.35
20
68.7
11
141.35
21
68.7
0
ARC
5
12D
100
AcDbEntity
8
outline
6
ByLayer
62
256
370
-1
100
AcDbCircle
10
142.85
20
68.7
40
1.5
100
AcDbArc
50
0
51
180
0
LINE
5
12E
100
AcDbEntity
8
outline
6
ByLayer
62
256
370
-1
100
AcDbLine
10
144.35
20
68.7
11
147.35
21
68.7
0
ARC
5
12F
100
AcDbEntity
8
outline
6
ByLayer
62
256
370
-1
100
AcDbCircle
10
148.85
20
68.7
40
1.5
100
AcDbArc
50
0
51
180
0
LINE
5
130
100
AcDbEntity
8
outline
6
ByLayer
62
256
370
-1
100
AcDbLine
10
150.35
20
68.7
11
153.35
21
68.7
0
ARC
5
131
100
AcDbEntity
8
outline
6
ByLayer
62
256
370
-1
100
AcDbCircle
10
154.85
20
68.7
40
1.5
100
AcDbArc
50
0
51
180
0
LINE
5
132
100
AcDbEntity
8
outline
6
ByLayer
62
256
370
-1
100
AcDbLine
10
159.3
20
0
11
159.3
21
7.7
0
LINE
5
133
100
AcDbEntity
8
outline
6
ByLayer
62
256
370
-1
100
AcDbLine
10
159.3
20
7.7
11
159.3
21
9.7
0
ARC
5
134
100
AcDbEntity
8
outline
6
ByLayer
62
256
370
-1
100
AcDbCircle
10
159.3
20
10.7
40
1
100
AcDbArc
50
270
51
90
0
LINE
5
135
100
AcDbEntity
8
outline
6
ByLayer
62
256
370
-1
100
AcDbLine
10
159.3
20
11.7
11
159.3
21
13.7
0
ARC
5
136
100
AcDbEntity
8
outline
6
ByLayer
62
256
370
-1
100
AcDbCircle
10
159.3
20
14.7
40
1
100
AcDbArc
50
270
51
90
0
LINE
5
137
100
AcDbEntity
8
outline
6
ByLayer
62
256
370
-1
100
AcDbLine
10
159.3
20
15.7
11
159.3
21
17.7
0
ARC
5
138
100
AcDbEntity
8
outline
6
ByLayer
62
256
370
-1
100
AcDbCircle
10
159.3
20
18.7
40
1
100
AcDbArc
50
270
51
90
0
LINE
5
139
100
AcDbEntity
8
outline
6
ByLayer
62
256
370
-1
100
AcDbLine
10
159.3
20
19.7
11
159.3
21
21.7
0
ARC
5
13A
100
AcDbEntity
8
outline
6
ByLayer
62
256
370
-1
100
AcDbCircle
10
159.3
20
22.7
40
1
100
AcDbArc
50
270
51
90
0
LINE
5
13B
100
AcDbEntity
8
outline
6
ByLayer
62
256
370
-1
100
AcDbLine
10
159.3
20
23.7
11
159.3
21
25.7
0
ARC
5
13C
100
AcDbEntity
8
outline
6
ByLayer
62
256
370
-1
100
AcDbCircle
10
159.3
20
26.7
40
1
100
AcDbArc
50
270
51
90
0
LINE
5
13D
100
AcDbEntity
8
outline
6
ByLayer
62
256
370
-1
100
AcDbLine
10
159.3
20
27.7
11
159.3
21
29.7
0
ARC
5
13E
100
AcDbEntity
8
outline
6
ByLayer
62
256
370
-1
100
AcDbCircle
10
159.3
20
30.7
40
1
100
AcDbArc
50
270
51
90
0
LINE
5
13F
100
AcDbEntity
8
outline
6
ByLayer
62
256
370
-1
100
AcDbLine
10
159.3
20
31.7
11
159.3
21
33.7
0
ARC
5
140
100
AcDbEntity
8
outline
6
ByLayer
62
256
370
-1
100
AcDbCircle
10
159.3
20
34.7
40
1
100
AcDbArc
50
270
51
90
0
LINE
5
141
100
AcDbEntity
8
outline
6
ByLayer
62
256
370
-1
100
AcDbLine
10
159.3
20
35.7
11
159.3
21
37.7
0
ARC
5
142
100
AcDbEntity
8
outline
6
ByLayer
62
256
370
-1
100
AcDbCircle
10
159.3
20
38.7
40
1
100
AcDbArc
50
270
51
90
0
LINE
5
143
100
AcDbEntity
8
outline
6
ByLayer
62
256
370
-1
100
AcDbLine
10
159.3
20
39.7
11
159.3
21
41.7
0
ARC
5
144
100
AcDbEntity
8
outline
6
ByLayer
62
256
370
-1
100
AcDbCircle
10
159.3
20
42.7
40
1
100
AcDbArc
50
270
51
90
0
LINE
5
145
100
AcDbEntity
8
outline
6
ByLayer
62
256
370
-1
100
AcDbLine
10
159.3
20
43.7
11
159.3
21
45.7
0
ARC
5
146
100
AcDbEntity
8
outline
6
ByLayer
62
256
370
-1
100
AcDbCircle
10
159.3
20
46.7
40
1
100
AcDbArc
50
270
51
90
0
LINE
5
147
100
AcDbEntity
8
outline
6
ByLayer
62
256
370
-1
100
AcDbLine
10
159.3
20
47.7
11
159.3
21
49.7
0
ARC
5
148
100
AcDbEntity
8
outline
6
ByLayer
62
256
370
-1
100
AcDbCircle
10
159.3
20
50.7
40
1
100
AcDbArc
50
270
51
90
0
LINE
5
149
100
AcDbEntity
8
outline
6
ByLayer
62
256
370
-1
100
AcDbLine
10
159.3
20
51.7
11
159.3
21
53.7
0
ARC
5
14A
100
AcDbEntity
8
outline
6
ByLayer
62
256
370
-1
100
AcDbCircle
10
159.3
20
54.7
40
1
100
AcDbArc
50
270
51
90
0
LINE
5
14B
100
AcDbEntity
8
outline
6
ByLayer
62
256
370
-1
100
AcDbLine
10
159.3
20
55.7
11
159.3
21
57.7
0
ARC
5
14C
100
AcDbEntity
8
outline
6
ByLayer
62
256
370
-1
100
AcDbCircle
10
159.3
20
58.7
40
1
100
AcDbArc
50
270
51
90
0
LINE
5
14D
100
AcDbEntity
8
outline
6
ByLayer
62
256
370
-1
100
AcDbLine
10
159.3
20
59.7
11
159.3
21
61.7
0
ARC
5
14E
100
AcDbEntity
8
outline
6
ByLayer
62
256
370
-1
100
AcDbCircle
10
159.3
20
62.7
40
1
100
AcDbArc
50
270
51
90
0
ARC
5
14F
100
AcDbEntity
8
outline
6
ByLayer
62
256
370
-1
100
AcDbCircle
10
156.35
20
65.75
40
2.95
100
AcDbArc
50
0
51
90
0
LINE
5
150
100
AcDbEntity
8
outline
6
ByLayer
62
256
370
-1
100
AcDbLine
10
159.3
20
65.75
11
159.3
21
63.7
0
LINE
5
151
100
AcDbEntity
8
outline
6
ByLayer
62
256
370
-1
100
AcDbLine
10
159.3
20
0
11
0
21
0
0
CIRCLE
5
152
100
AcDbEntity
8
outline
6
ByLayer
62
256
370
-1
100
AcDbCircle
10
3.65
20
4
40
0.8
0
CIRCLE
5
153
100
AcDbEntity
8
outline
6
ByLayer
62
256
370
-1
100
AcDbCircle
10
155.65
20
4
40
0.8
0
CIRCLE
5
154
100
AcDbEntity
8
outline
6
ByLayer
62
256
370
-1
100
AcDbCircle
10
6
20
63.7
40
0.8
0
CIRCLE
5
155
100
AcDbEntity
8
outline
6
ByLayer
62
256
370
-1
100
AcDbCircle
10
153.3
20
63.7
40
0.8
0
DIMENSION
5
156
100
AcDbEntity
8
dim
6
ByLayer
62
256
370
-1
100
AcDbDimension
2
*D1
10
159.3
20
-10.6
30
0
11
79.65
21
-8.725
31
0
70
32
71
5
3
Standard
53
0
210
0
220
0
230
1
100
AcDbAlignedDimension
13
0
23
0
33
0
14
159.3
24
0
34
0
100
AcDbRotatedDimension
0
CIRCLE
5
157
100
AcDbEntity
8
perforations
6
ByLayer
62
256
370
-1
100
AcDbCircle
10
145
20
7
40
2
0
CIRCLE
5
158
100
AcDbEntity
8
markings
6
ByLayer
62
256
370
-1
100
AcDbCircle
10
145
20
62
40
2
0
CIRCLE
5
159
100
AcDbEntity
8
perforations
6
ByLayer
62
256
370
-1
100
AcDbCircle
10
52
20
7
40
2
0
CIRCLE
5
15A
100
AcDbEntity
8
perforations
6
ByLayer
62
256
370
-1
100
AcDbCircle
10
52
20
62
40
2
0
LINE
5
15B
100
AcDbEntity
8
perforations
6
ByLayer
62
256
370
-1
100
AcDbLine
10
54.5
20
14.5
11
142.5
21
14.5
0
LINE
5
15C
100
AcDbEntity
8
perforations
6
ByLayer
62
256
370
-1
100
AcDbLine
10
142.5
20
14.5
11
142.5
21
54.5
0
LINE
5
15D
100
AcDbEntity
8
perforations
6
ByLayer
62
256
370
-1
100
AcDbLine
10
142.5
20
54.5
11
54.5
21
54.5
0
LINE
5
15E
100
AcDbEntity
8
perforations
6
ByLayer
62
256
370
-1
100
AcDbLine
10
54.5
20
54.5
11
54.5
21
14.5
0
LINE
5
15F
100
AcDbEntity
8
perforations
6
ByLayer
62
256
370
-1
100
AcDbLine
10
20
20
50
11
32.9
21
50
0
LINE
5
160
100
AcDbEntity
8
perforations
6
ByLayer
62
256
370
-1
100
AcDbLine
10
32.9
20
50
11
32.9
21
30.8
0
LINE
5
161
100
AcDbEntity
8
perforations
6
ByLayer
62
256
370
-1
100
AcDbLine
10
32.9
20
30.8
11
20
21
30.8
0
LINE
5
162
100
AcDbEntity
8
perforations
6
ByLayer
62
256
370
-1
100
AcDbLine
10
20
20
30.8
11
20
21
50
0
DIMENSION
5
163
100
AcDbEntity
8
dim
6
ByLayer
62
256
370
-1
100
AcDbDimension
2
*D2
10
214
20
-1.70532066781e-14
30
0
11
212.125
21
34.65
31
0
70
32
71
5
3
Standard
53
0
210
0
220
0
230
1
100
AcDbAlignedDimension
13
74.5
23
69.3
33
0
14
74.75
24
0
34
0
50
90
100
AcDbRotatedDimension
0
DIMENSION
5
164
100
AcDbEntity
8
dim
6
ByLayer
62
256
370
-1
100
AcDbDimension
2
*D3
10
181.5
20
-4.56180932682e-15
30
0
11
179.625
21
3.5
31
0
70
32
71
5
3
Standard
53
0
210
0
220
0
230
1
100
AcDbAlignedDimension
13
145
23
7
33
0
14
144.25
24
0
34
0
50
90
100
AcDbRotatedDimension
0
DIMENSION
5
165
100
AcDbEntity
8
dim
6
ByLayer
62
256
370
-1
100
AcDbDimension
2
*D4
10
181
20
7
30
0
11
179.125
21
34.5
31
0
70
32
71
5
3
Standard
53
0
210
0
220
0
230
1
100
AcDbAlignedDimension
13
145
23
62
33
0
14
145
24
7
34
0
50
90
100
AcDbRotatedDimension
0
DIMENSION
5
166
100
AcDbEntity
8
dim
6
ByLayer
62
256
370
-1
100
AcDbDimension
2
*D5
10
171.75
20
54.5
30
0
11
169.875
21
34.5
31
0
70
32
71
5
3
Standard
53
0
210
0
220
0
230
1
100
AcDbAlignedDimension
13
142.5
23
14.5
33
0
14
142.5
24
54.5
34
0
50
90
100
AcDbRotatedDimension
0
DIMENSION
5
167
100
AcDbEntity
8
dim
6
ByLayer
62
256
370
-1
100
AcDbDimension
2
*D6
10
197.25
20
54.5
30
0
11
195.375
21
58.25
31
0
70
32
71
5
3
Standard
53
0
210
0
220
0
230
1
100
AcDbAlignedDimension
13
145
23
62
33
0
14
137.5
24
54.5
34
0
50
90
100
AcDbRotatedDimension
0
DIMENSION
5
168
100
AcDbEntity
8
dim
6
ByLayer
62
256
370
-1
100
AcDbDimension
2
*D7
10
171.25
20
68.7
30
0
11
169.375
21
66.2
31
0
70
32
71
5
3
Standard
53
0
210
0
220
0
230
1
100
AcDbAlignedDimension
13
153.3
23
63.7
33
0
14
150.35
24
68.7
34
0
50
90
100
AcDbRotatedDimension
0
DIMENSION
5
169
100
AcDbEntity
8
dim
6
ByLayer
62
256
370
-1
100
AcDbDimension
2
*D8
10
171.5
20
-2.11251572853e-15
30
0
11
169.625
21
2
31
0
70
32
71
5
3
Standard
53
0
210
0
220
0
230
1
100
AcDbAlignedDimension
13
155.65
23
4
33
0
14
154.25
24
0
34
0
50
90
100
AcDbRotatedDimension
0
DIMENSION
5
16A
100
AcDbEntity
8
dim
6
ByLayer
62
256
370
-1
100
AcDbDimension
2
*D9
10
-17.75
20
30.8
30
0
11
-19.625
21
40.4
31
0
70
32
71
5
3
Standard
53
0
210
0
220
0
230
1
100
AcDbAlignedDimension
13
20
23
50
33
0
14
20
24
30.8
34
0
50
90
100
AcDbRotatedDimension
0
DIMENSION
5
16B
100
AcDbEntity
8
dim
6
ByLayer
62
256
370
-1
100
AcDbDimension
2
*D10
10
-23
20
63.7
30
0
11
-24.875
21
66.5
31
0
70
32
71
5
3
Standard
53
0
210
0
220
0
230
1
100
AcDbAlignedDimension
13
45.55
23
69.3
33
0
14
6
24
63.7
34
0
50
90
100
AcDbRotatedDimension
0
DIMENSION
5
16C
100
AcDbEntity
8
dim
6
ByLayer
62
256
370
-1
100
AcDbDimension
2
*D11
10
-16.25
20
3.82702124734e-15
30
0
11
-18.125
21
2
31
0
70
32
71
5
3
Standard
53
0
210
0
220
0
230
1
100
AcDbAlignedDimension
13
3.65
23
4
33
0
14
15
24
0
34
0
50
90
100
AcDbRotatedDimension
0
DIMENSION
5
16D
100
AcDbEntity
8
dim
6
ByLayer
62
256
370
-1
100
AcDbDimension
2
*D12
10
3.65
20
-30.5
30
0
11
1.825
21
-28.625
31
0
70
32
71
5
3
Standard
53
0
210
0
220
0
230
1
100
AcDbAlignedDimension
13
0
23
7.7
33
0
14
3.65
24
4
34
0
100
AcDbRotatedDimension
0
DIMENSION
5
16E
100
AcDbEntity
8
dim
6
ByLayer
62
256
370
-1
100
AcDbDimension
2
*D13
10
52
20
-41.25
30
0
11
26
21
-39.375
31
0
70
32
71
5
3
Standard
53
0
210
0
220
0
230
1
100
AcDbAlignedDimension
13
0
23
0
33
0
14
52
24
7
34
0
100
AcDbRotatedDimension
0
DIMENSION
5
16F
100
AcDbEntity
8
dim
6
ByLayer
62
256
370
-1
100
AcDbDimension
2
*D14
10
145
20
-41.25
30
0
11
98.5
21
-39.375
31
0
70
32
71
5
3
Standard
53
0
210
0
220
0
230
1
100
AcDbAlignedDimension
13
52
23
7
33
0
14
145
24
7
34
0
100
AcDbRotatedDimension
0
DIMENSION
5
170
100
AcDbEntity
8
dim
6
ByLayer
62
256
370
-1
100
AcDbDimension
2
*D15
10
52
20
-28.25
30
0
11
53.25
21
-26.375
31
0
70
32
71
5
3
Standard
53
0
210
0
220
0
230
1
100
AcDbAlignedDimension
13
54.5
23
14.5
33
0
14
52
24
7
34
0
100
AcDbRotatedDimension
0
DIMENSION
5
171
100
AcDbEntity
8
dim
6
ByLayer
62
256
370
-1
100
AcDbDimension
2
*D16
10
142.5
20
-20.25
30
0
11
98.5
21
-18.375
31
0
70
32
71
5
3
Standard
53
0
210
0
220
0
230
1
100
AcDbAlignedDimension
13
54.5
23
14.5
33
0
14
142.5
24
14.5
34
0
100
AcDbRotatedDimension
0
DIMENSION
5
172
100
AcDbEntity
8
dim
6
ByLayer
62
256
370
-1
100
AcDbDimension
2
*D17
10
32.9
20
-22.75
30
0
11
26.45
21
-20.875
31
0
70
32
71
5
3
Standard
53
0
210
0
220
0
230
1
100
AcDbAlignedDimension
13
20
23
30.8
33
0
14
32.9
24
30.8
34
0
100
AcDbRotatedDimension
0
TEXT
5
173
100
AcDbEntity
8
markings
6
ByLayer
62
256
370
-1
100
AcDbText
10
25.75
20
55.25
30
0
40
3
1
Enable
50
0
41
1
51
0
7
italiccs
71
0
72
1
11
25.75
21
55.25
31
0
210
0
220
0
230
1
100
AcDbText
0
ENDSEC
0
SECTION
2
OBJECTS
0
DICTIONARY
5
C
330
0
100
AcDbDictionary
281
1
3
ACAD_GROUP
350
D
0
DICTIONARY
5
D
330
C
100
AcDbDictionary
281
1
0
ENDSEC
0
EOF
