999
dxfrw 0.5.11
0
SECTION
2
HEADER
9
$ACADVER
1
AC1021
9
$HANDSEED
5
20000
9
$DWGCODEPAGE
3
ANSI_1252
9
$INSBASE
10
0
20
0
30
0
9
$EXTMIN
10
-203.125
20
-151.25
30
0
9
$EXTMAX
10
464
20
363.125
30
0
9
$LIMMIN
10
0
20
0
9
$LIMMAX
10
420
20
297
9
$ORTHOMODE
70
0
9
$LTSCALE
40
1
9
$TEXTSTYLE
7
STANDARD
9
$CLAYER
8
Notes
9
$DIMASZ
40
2.5
9
$DIMLFAC
40
1
9
$DIMSCALE
40
1
9
$DIMEXO
40
0.625
9
$DIMEXE
40
1.25
9
$DIMTXT
40
2.5
9
$DIMTSZ
40
0
9
$DIMAUNIT
70
0
9
$DIMADEC
70
0
9
$DIMLUNIT
70
2
9
$DIMSTYLE
2
Standard
9
$DIMGAP
40
0.625
9
$DIMTIH
70
0
9
$LUNITS
70
2
9
$LUPREC
70
4
9
$AUNITS
70
0
9
$AUPREC
70
2
9
$SPLINESEGS
70
8
9
$SNAPSTYLE
70
0
9
$PINSBASE
10
0
20
0
30
0
9
$PLIMMIN
10
0
20
0
9
$PLIMMAX
10
210
20
297
9
$INSUNITS
70
4
9
$PSVPSCALE
40
1
0
ENDSEC
0
SECTION
2
CLASSES
0
ENDSEC
0
SECTION
2
TABLES
0
TABLE
2
VPORT
5
8
330
0
100
AcDbSymbolTable
70
1
0
VPORT
5
31
330
2
100
AcDbSymbolTableRecord
100
AcDbViewportTableRecord
2
*ACTIVE
70
0
10
0
20
0
11
1
21
1
12
363.349914551
22
183.582305908
13
0
23
0
14
10
24
10
15
10
25
10
16
0
26
0
36
1
17
0
27
0
37
0
40
539.779663086
41
2.01943462898
42
50
43
0
44
0
50
0
51
0
71
0
72
100
73
1
74
3
75
0
76
1
77
0
78
0
281
0
65
1
110
0
120
0
130
0
111
1
121
0
131
0
112
0
122
1
132
0
79
0
146
0
348
10020
60
7
61
5
292
1
282
1
141
0
142
0
63
250
421
3358443
0
ENDTAB
0
TABLE
2
LTYPE
5
5
330
0
100
AcDbSymbolTable
70
4
0
LTYPE
5
14
330
5
100
AcDbSymbolTableRecord
100
AcDbLinetypeTableRecord
2
ByBlock
70
0
3

72
65
73
0
40
0
0
LTYPE
5
15
330
5
100
AcDbSymbolTableRecord
100
AcDbLinetypeTableRecord
2
ByLayer
70
0
3

72
65
73
0
40
0
0
LTYPE
5
16
330
5
100
AcDbSymbolTableRecord
100
AcDbLinetypeTableRecord
2
Continuous
70
0
3
Solid line
72
65
73
0
40
0
0
LTYPE
5
32
330
5
100
AcDbSymbolTableRecord
100
AcDbLinetypeTableRecord
2
DOT
70
0
3
Dot . . . . . . . . . . . . . . . . . . . . . .
72
65
73
2
40
6.35
49
0
74
0
49
-6.35
74
0
0
LTYPE
5
33
330
5
100
AcDbSymbolTableRecord
100
AcDbLinetypeTableRecord
2
DOT2
70
0
3
Dot (.5x) .....................................
72
65
73
2
40
3.175
49
0
74
0
49
-3.175
74
0
0
LTYPE
5
34
330
5
100
AcDbSymbolTableRecord
100
AcDbLinetypeTableRecord
2
DOTX2
70
0
3
Dot (2x) .  .  .  .  .  .  .  .  .  .  .  .  .
72
65
73
2
40
12.7
49
0
74
0
49
-12.7
74
0
0
LTYPE
5
35
330
5
100
AcDbSymbolTableRecord
100
AcDbLinetypeTableRecord
2
DASHED
70
0
3
Dot . . . . . . . . . . . . . . . . . . . . . .
72
65
73
2
40
19.05
49
12.7
74
0
49
-6.35
74
0
0
LTYPE
5
36
330
5
100
AcDbSymbolTableRecord
100
AcDbLinetypeTableRecord
2
DASHED2
70
0
3
Dashed (.5x) _ _ _ _ _ _ _ _ _ _ _ _ _ _ _ _ _
72
65
73
2
40
9.525
49
6.35
74
0
49
-3.175
74
0
0
LTYPE
5
37
330
5
100
AcDbSymbolTableRecord
100
AcDbLinetypeTableRecord
2
DASHEDX2
70
0
3
Dashed (2x) ____  ____  ____  ____  ____  ___
72
65
73
2
40
38.1
49
25.4
74
0
49
-12.7
74
0
0
LTYPE
5
38
330
5
100
AcDbSymbolTableRecord
100
AcDbLinetypeTableRecord
2
DASHDOT
70
0
3
Dash dot __ . __ . __ . __ . __ . __ . __ . __
72
65
73
4
40
25.4
49
12.7
74
0
49
-6.35
74
0
49
0
74
0
49
-6.35
74
0
0
LTYPE
5
39
330
5
100
AcDbSymbolTableRecord
100
AcDbLinetypeTableRecord
2
DASHDOT2
70
0
3
Dash dot (.5x) _._._._._._._._._._._._._._._.
72
65
73
4
40
12.7
49
6.35
74
0
49
-3.175
74
0
49
0
74
0
49
-3.175
74
0
0
LTYPE
5
3A
330
5
100
AcDbSymbolTableRecord
100
AcDbLinetypeTableRecord
2
DASHDOTX2
70
0
3
Dash dot (2x) ____  .  ____  .  ____  .  ___
72
65
73
4
40
50.8
49
25.4
74
0
49
-12.7
74
0
49
0
74
0
49
-12.7
74
0
0
LTYPE
5
3B
330
5
100
AcDbSymbolTableRecord
100
AcDbLinetypeTableRecord
2
DIVIDE
70
0
3
Divide ____ . . ____ . . ____ . . ____ . . ____
72
65
73
6
40
31.75
49
12.7
74
0
49
-6.35
74
0
49
0
74
0
49
-6.35
74
0
49
0
74
0
49
-6.35
74
0
0
LTYPE
5
3C
330
5
100
AcDbSymbolTableRecord
100
AcDbLinetypeTableRecord
2
DIVIDE2
70
0
3
Divide (.5x) __..__..__..__..__..__..__..__.._
72
65
73
6
40
15.875
49
6.35
74
0
49
-3.175
74
0
49
0
74
0
49
-3.175
74
0
49
0
74
0
49
-3.175
74
0
0
LTYPE
5
3D
330
5
100
AcDbSymbolTableRecord
100
AcDbLinetypeTableRecord
2
DIVIDEX2
70
0
3
Divide (2x) ________  .  .  ________  .  .  _
72
65
73
6
40
63.5
49
25.4
74
0
49
-12.7
74
0
49
0
74
0
49
-12.7
74
0
49
0
74
0
49
-12.7
74
0
0
LTYPE
5
3E
330
5
100
AcDbSymbolTableRecord
100
AcDbLinetypeTableRecord
2
BORDER
70
0
3
Border __ __ . __ __ . __ __ . __ __ . __ __ .
72
65
73
6
40
44.45
49
12.7
74
0
49
-6.35
74
0
49
12.7
74
0
49
-6.35
74
0
49
0
74
0
49
-6.35
74
0
0
LTYPE
5
3F
330
5
100
AcDbSymbolTableRecord
100
AcDbLinetypeTableRecord
2
BORDER2
70
0
3
Border (.5x) __.__.__.__.__.__.__.__.__.__.__.
72
65
73
6
40
22.225
49
6.35
74
0
49
-3.175
74
0
49
6.35
74
0
49
-3.175
74
0
49
0
74
0
49
-3.175
74
0
0
LTYPE
5
40
330
5
100
AcDbSymbolTableRecord
100
AcDbLinetypeTableRecord
2
BORDERX2
70
0
3
Border (2x) ____  ____  .  ____  ____  .  ___
72
65
73
6
40
88.9
49
25.4
74
0
49
-12.7
74
0
49
25.4
74
0
49
-12.7
74
0
49
0
74
0
49
-12.7
74
0
0
LTYPE
5
41
330
5
100
AcDbSymbolTableRecord
100
AcDbLinetypeTableRecord
2
CENTER
70
0
3
Center ____ _ ____ _ ____ _ ____ _ ____ _ ____
72
65
73
4
40
50.8
49
31.75
74
0
49
-6.35
74
0
49
6.35
74
0
49
-6.35
74
0
0
LTYPE
5
42
330
5
100
AcDbSymbolTableRecord
100
AcDbLinetypeTableRecord
2
CENTER2
70
0
3
Center (.5x) ___ _ ___ _ ___ _ ___ _ ___ _ ___
72
65
73
4
40
28.575
49
19.05
74
0
49
-3.175
74
0
49
3.175
74
0
49
-3.175
74
0
0
LTYPE
5
43
330
5
100
AcDbSymbolTableRecord
100
AcDbLinetypeTableRecord
2
CENTERX2
70
0
3
Center (2x) ________  __  ________  __  _____
72
65
73
4
40
101.6
49
63.5
74
0
49
-12.7
74
0
49
12.7
74
0
49
-12.7
74
0
0
ENDTAB
0
TABLE
2
LAYER
5
2
330
0
100
AcDbSymbolTable
70
1
0
LAYER
5
10
330
2
100
AcDbSymbolTableRecord
100
AcDbLayerTableRecord
2
0
70
0
62
7
6
CONTINUOUS
370
-3
390
F
0
LAYER
5
44
330
2
100
AcDbSymbolTableRecord
100
AcDbLayerTableRecord
2
Notes
70
0
62
1
6
CONTINUOUS
370
0
390
F
0
LAYER
5
45
330
2
100
AcDbSymbolTableRecord
100
AcDbLayerTableRecord
2
cut
70
0
62
7
6
CONTINUOUS
370
0
390
F
0
LAYER
5
46
330
2
100
AcDbSymbolTableRecord
100
AcDbLayerTableRecord
2
dim
70
0
62
6
6
CONTINUOUS
370
0
390
F
0
ENDTAB
0
TABLE
2
STYLE
5
3
330
0
100
AcDbSymbolTable
70
3
0
STYLE
5
47
330
2
100
AcDbSymbolTableRecord
100
AcDbTextStyleTableRecord
2
standard
70
0
40
0
41
1
50
0
71
0
42
1
3
standard
4

0
ENDTAB
0
TABLE
2
VIEW
5
6
330
0
100
AcDbSymbolTable
70
0
0
ENDTAB
0
TABLE
2
UCS
5
7
330
0
100
AcDbSymbolTable
70
0
0
ENDTAB
0
TABLE
2
APPID
5
9
330
0
100
AcDbSymbolTable
70
1
0
APPID
5
12
330
9
100
AcDbSymbolTableRecord
100
AcDbRegAppTableRecord
2
ACAD
70
0
0
ENDTAB
0
TABLE
2
DIMSTYLE
5
A
330
0
100
AcDbSymbolTable
70
1
100
AcDbDimStyleTable
71
1
0
DIMSTYLE
105
48
330
A
100
AcDbSymbolTableRecord
100
AcDbDimStyleTableRecord
2
Standard
70
0
40
1
41
2.5
42
0.625
43
0.38
44
1.25
45
0
46
0
47
0
48
0
140
2.5
141
0.09
142
0
143
25.4
144
1
145
0
146
1
147
0.625
148
0
71
0
72
0
73
0
74
1
75
0
76
0
77
0
78
0
79
0
170
0
171
2
172
0
173
0
174
0
175
0
176
0
177
0
178
0
179
0
271
4
272
4
273
2
274
2
275
0
276
0
277
2
278
46
279
0
280
0
281
0
282
0
283
1
284
0
285
0
286
0
288
0
289
3
340
Standard
341

371
-2
372
-2
0
ENDTAB
0
TABLE
2
BLOCK_RECORD
5
1
330
0
100
AcDbSymbolTable
70
2
0
BLOCK_RECORD
5
1F
330
1
100
AcDbSymbolTableRecord
100
AcDbBlockTableRecord
2
*Model_Space
70
0
280
1
281
0
0
BLOCK_RECORD
5
1E
330
1
100
AcDbSymbolTableRecord
100
AcDbBlockTableRecord
2
*Paper_Space
70
0
280
1
281
0
0
BLOCK_RECORD
5
49
330
1
100
AcDbSymbolTableRecord
100
AcDbBlockTableRecord
2
*D5
70
0
280
1
281
0
0
BLOCK_RECORD
5
4C
330
1
100
AcDbSymbolTableRecord
100
AcDbBlockTableRecord
2
*D4
70
0
280
1
281
0
0
BLOCK_RECORD
5
4F
330
1
100
AcDbSymbolTableRecord
100
AcDbBlockTableRecord
2
*D1
70
0
280
1
281
0
0
BLOCK_RECORD
5
52
330
1
100
AcDbSymbolTableRecord
100
AcDbBlockTableRecord
2
*D3
70
0
280
1
281
0
0
BLOCK_RECORD
5
55
330
1
100
AcDbSymbolTableRecord
100
AcDbBlockTableRecord
2
*D8
70
0
280
1
281
0
0
BLOCK_RECORD
5
58
330
1
100
AcDbSymbolTableRecord
100
AcDbBlockTableRecord
2
*D10
70
0
280
1
281
0
0
BLOCK_RECORD
5
5B
330
1
100
AcDbSymbolTableRecord
100
AcDbBlockTableRecord
2
*D2
70
0
280
1
281
0
0
BLOCK_RECORD
5
5E
330
1
100
AcDbSymbolTableRecord
100
AcDbBlockTableRecord
2
*D6
70
0
280
1
281
0
0
BLOCK_RECORD
5
61
330
1
100
AcDbSymbolTableRecord
100
AcDbBlockTableRecord
2
*D9
70
0
280
1
281
0
0
BLOCK_RECORD
5
64
330
1
100
AcDbSymbolTableRecord
100
AcDbBlockTableRecord
2
*D11
70
0
280
1
281
0
0
BLOCK_RECORD
5
67
330
1
100
AcDbSymbolTableRecord
100
AcDbBlockTableRecord
2
*D7
70
0
280
1
281
0
0
BLOCK_RECORD
5
6A
330
1
100
AcDbSymbolTableRecord
100
AcDbBlockTableRecord
2
SHAPE2DVIEW
70
0
280
1
281
0
0
BLOCK_RECORD
5
6D
330
1
100
AcDbSymbolTableRecord
100
AcDbBlockTableRecord
2
SHAPE2DVIEW003
70
0
280
1
281
0
0
BLOCK_RECORD
5
70
330
1
100
AcDbSymbolTableRecord
100
AcDbBlockTableRecord
2
SHAPE2DVIEW002
70
0
280
1
281
0
0
BLOCK_RECORD
5
73
330
1
100
AcDbSymbolTableRecord
100
AcDbBlockTableRecord
2
SHAPE2DVIEW001
70
0
280
1
281
0
0
ENDTAB
0
ENDSEC
0
SECTION
2
BLOCKS
0
BLOCK
5
20
330
1F
100
AcDbEntity
8
0
100
AcDbBlockBegin
2
*Model_Space
70
0
10
0
20
0
30
0
3
*Model_Space
1

0
ENDBLK
5
21
330
1F
100
AcDbEntity
8
0
100
AcDbBlockEnd
0
BLOCK
5
1C
330
1B
100
AcDbEntity
8
0
100
AcDbBlockBegin
2
*Paper_Space
70
0
10
0
20
0
30
0
3
*Paper_Space
1

0
ENDBLK
5
1D
330
1F
100
AcDbEntity
8
0
100
AcDbBlockEnd
0
BLOCK
5
4A
330
49
100
AcDbEntity
8
0
100
AcDbBlockBegin
2
*D5
70
1
10
0
20
0
3
*D5
1

0
LINE
5
76
100
AcDbEntity
8
dim
6
CONTINUOUS
62
7
370
0
100
AcDbLine
10
364.4
20
360
11
464
21
360
0
SOLID
5
77
100
AcDbEntity
8
dim
6
CONTINUOUS
62
7
370
0
100
AcDbTrace
10
364.4
20
360
30
0
11
366.9
21
360.416284658
31
0
12
366.9
22
359.583715342
32
0
13
366.9
23
359.583715342
33
0
0
SOLID
5
78
100
AcDbEntity
8
dim
6
CONTINUOUS
62
7
370
0
100
AcDbTrace
10
464
20
360
30
0
11
461.5
21
359.583715342
31
0
12
461.5
22
360.416284658
32
0
13
461.5
23
360.416284658
33
0
0
MTEXT
5
79
100
AcDbEntity
8
dim
6
CONTINUOUS
62
7
370
0
100
AcDbMText
10
414.2
20
361.875
30
0
40
2.5
41
5.83333333333
71
5
72
1
1
99.6
7
standard
210
0
220
0
230
1
50
0
73
2
44
1
0
LINE
5
7A
100
AcDbEntity
8
dim
6
CONTINUOUS
62
7
370
0
100
AcDbLine
10
364.4
20
330.825
11
364.4
21
361.25
0
LINE
5
7B
100
AcDbEntity
8
dim
6
CONTINUOUS
62
7
370
0
100
AcDbLine
10
464
20
330.825
11
464
21
361.25
0
ENDBLK
5
4B
330
49
100
AcDbEntity
8
0
100
AcDbBlockEnd
0
BLOCK
5
4D
330
4C
100
AcDbEntity
8
0
100
AcDbBlockBegin
2
*D4
70
1
10
0
20
0
3
*D4
1

0
LINE
5
7C
100
AcDbEntity
8
dim
6
CONTINUOUS
62
7
370
0
100
AcDbLine
10
357.4
20
360
11
369.4
21
360
0
SOLID
5
7D
100
AcDbEntity
8
dim
6
CONTINUOUS
62
7
370
0
100
AcDbTrace
10
362.4
20
360
30
0
11
359.9
21
359.583715342
31
0
12
359.9
22
360.416284658
32
0
13
359.9
23
360.416284658
33
0
0
SOLID
5
7E
100
AcDbEntity
8
dim
6
CONTINUOUS
62
7
370
0
100
AcDbTrace
10
364.4
20
360
30
0
11
366.9
21
360.416284658
31
0
12
366.9
22
359.583715342
32
0
13
366.9
23
359.583715342
33
0
0
MTEXT
5
7F
100
AcDbEntity
8
dim
6
CONTINUOUS
62
7
370
0
100
AcDbMText
10
363.4
20
361.875
30
0
40
2.5
41
1.11111111111
71
5
72
1
1
2
7
standard
210
0
220
0
230
1
50
0
73
2
44
1
0
LINE
5
80
100
AcDbEntity
8
dim
6
CONTINUOUS
62
7
370
0
100
AcDbLine
10
362.4
20
330.825
11
362.4
21
361.25
0
LINE
5
81
100
AcDbEntity
8
dim
6
CONTINUOUS
62
7
370
0
100
AcDbLine
10
364.4
20
330.825
11
364.4
21
361.25
0
ENDBLK
5
4E
330
4C
100
AcDbEntity
8
0
100
AcDbBlockEnd
0
BLOCK
5
50
330
4F
100
AcDbEntity
8
0
100
AcDbBlockBegin
2
*D1
70
1
10
0
20
0
3
*D1
1

0
LINE
5
82
100
AcDbEntity
8
dim
6
CONTINUOUS
62
7
370
0
100
AcDbLine
10
-150
20
-10
11
-50.4
21
-10
0
SOLID
5
83
100
AcDbEntity
8
dim
6
CONTINUOUS
62
7
370
0
100
AcDbTrace
10
-150
20
-10
30
0
11
-147.5
21
-9.58371534223
31
0
12
-147.5
22
-10.4162846578
32
0
13
-147.5
23
-10.4162846578
33
0
0
SOLID
5
84
100
AcDbEntity
8
dim
6
CONTINUOUS
62
7
370
0
100
AcDbTrace
10
-50.4
20
-10
30
0
11
-52.9
21
-10.4162846578
31
0
12
-52.9
22
-9.58371534223
32
0
13
-52.9
23
-9.58371534223
33
0
0
MTEXT
5
85
100
AcDbEntity
8
dim
6
CONTINUOUS
62
7
370
0
100
AcDbMText
10
-100.2
20
-8.125
30
0
40
2.5
41
5.83333333333
71
5
72
1
1
99.6
7
standard
210
0
220
0
230
1
50
0
73
2
44
1
0
LINE
5
86
100
AcDbEntity
8
dim
6
CONTINUOUS
62
7
370
0
100
AcDbLine
10
-150
20
-0.625
11
-150
21
-11.25
0
LINE
5
87
100
AcDbEntity
8
dim
6
CONTINUOUS
62
7
370
0
100
AcDbLine
10
-50.4
20
-0.625
11
-50.4
21
-11.25
0
ENDBLK
5
51
330
4F
100
AcDbEntity
8
0
100
AcDbBlockEnd
0
BLOCK
5
53
330
52
100
AcDbEntity
8
0
100
AcDbBlockBegin
2
*D3
70
1
10
0
20
0
3
*D3
1

0
LINE
5
88
100
AcDbEntity
8
dim
6
CONTINUOUS
62
7
370
0
100
AcDbLine
10
0
20
360
11
330.2
21
360
0
SOLID
5
89
100
AcDbEntity
8
dim
6
CONTINUOUS
62
7
370
0
100
AcDbTrace
10
0
20
360
30
0
11
2.5
21
360.416284658
31
0
12
2.5
22
359.583715342
32
0
13
2.5
23
359.583715342
33
0
0
SOLID
5
8A
100
AcDbEntity
8
dim
6
CONTINUOUS
62
7
370
0
100
AcDbTrace
10
330.2
20
360
30
0
11
327.7
21
359.583715342
31
0
12
327.7
22
360.416284658
32
0
13
327.7
23
360.416284658
33
0
0
MTEXT
5
8B
100
AcDbEntity
8
dim
6
CONTINUOUS
62
7
370
0
100
AcDbMText
10
165.1
20
361.875
30
0
40
2.5
41
7.77777777778
71
5
72
1
1
330.2
7
standard
210
0
220
0
230
1
50
0
73
2
44
1
0
LINE
5
8C
100
AcDbEntity
8
dim
6
CONTINUOUS
62
7
370
0
100
AcDbLine
10
3.82702124734e-17
20
330.625
11
7.65404249467e-17
21
361.25
0
LINE
5
8D
100
AcDbEntity
8
dim
6
CONTINUOUS
62
7
370
0
100
AcDbLine
10
330.2
20
330.825
11
330.2
21
361.25
0
ENDBLK
5
54
330
52
100
AcDbEntity
8
0
100
AcDbBlockEnd
0
BLOCK
5
56
330
55
100
AcDbEntity
8
0
100
AcDbBlockBegin
2
*D8
70
1
10
0
20
0
3
*D8
1

0
LINE
5
8E
100
AcDbEntity
8
dim
6
CONTINUOUS
62
7
370
0
100
AcDbLine
10
-5.68434188608e-14
20
-20
11
330.2
21
-20
0
SOLID
5
8F
100
AcDbEntity
8
dim
6
CONTINUOUS
62
7
370
0
100
AcDbTrace
10
-5.68434188608e-14
20
-20
30
0
11
2.5
21
-19.5837153422
31
0
12
2.5
22
-20.4162846578
32
0
13
2.5
23
-20.4162846578
33
0
0
SOLID
5
90
100
AcDbEntity
8
dim
6
CONTINUOUS
62
7
370
0
100
AcDbTrace
10
330.2
20
-20
30
0
11
327.7
21
-20.4162846578
31
0
12
327.7
22
-19.5837153422
32
0
13
327.7
23
-19.5837153422
33
0
0
MTEXT
5
91
100
AcDbEntity
8
dim
6
CONTINUOUS
62
7
370
0
100
AcDbMText
10
165.1
20
-18.125
30
0
40
2.5
41
7.77777777778
71
5
72
1
1
330.2
7
standard
210
0
220
0
230
1
50
0
73
2
44
1
0
LINE
5
92
100
AcDbEntity
8
dim
6
CONTINUOUS
62
7
370
0
100
AcDbLine
10
-3.56995461756e-15
20
-29.375
11
-6.39833280959e-14
21
-18.75
0
LINE
5
93
100
AcDbEntity
8
dim
6
CONTINUOUS
62
7
370
0
100
AcDbLine
10
330.2
20
-29.775
11
330.2
21
-18.75
0
ENDBLK
5
57
330
55
100
AcDbEntity
8
0
100
AcDbBlockEnd
0
BLOCK
5
59
330
58
100
AcDbEntity
8
0
100
AcDbBlockBegin
2
*D10
70
1
10
0
20
0
3
*D10
1

0
LINE
5
94
100
AcDbEntity
8
dim
6
CONTINUOUS
62
7
370
0
100
AcDbLine
10
370
20
-25.4
11
370
21
-37.4
0
SOLID
5
95
100
AcDbEntity
8
dim
6
CONTINUOUS
62
7
370
0
100
AcDbTrace
10
370
20
-30.4
30
0
11
369.583715342
21
-27.9
31
0
12
370.416284658
22
-27.9
32
0
13
370.416284658
23
-27.9
33
0
0
SOLID
5
96
100
AcDbEntity
8
dim
6
CONTINUOUS
62
7
370
0
100
AcDbTrace
10
370
20
-32.4
30
0
11
370.416284658
21
-34.9
31
0
12
369.583715342
22
-34.9
32
0
13
369.583715342
23
-34.9
33
0
0
MTEXT
5
97
100
AcDbEntity
8
dim
6
CONTINUOUS
62
7
370
0
100
AcDbMText
10
368.125
20
-31.4
30
0
40
2.5
41
1.11111111111
71
5
72
1
1
2
7
standard
210
0
220
0
230
1
50
90
73
2
44
1
0
LINE
5
98
100
AcDbEntity
8
dim
6
CONTINUOUS
62
7
370
0
100
AcDbLine
10
330.825
20
-30.4
11
371.25
21
-30.4
0
LINE
5
99
100
AcDbEntity
8
dim
6
CONTINUOUS
62
7
370
0
100
AcDbLine
10
330.825
20
-32.4
11
371.25
21
-32.4
0
ENDBLK
5
5A
330
58
100
AcDbEntity
8
0
100
AcDbBlockEnd
0
BLOCK
5
5C
330
5B
100
AcDbEntity
8
0
100
AcDbBlockBegin
2
*D2
70
1
10
0
20
0
3
*D2
1

0
LINE
5
9A
100
AcDbEntity
8
dim
6
CONTINUOUS
62
7
370
0
100
AcDbLine
10
-55.4
20
-10
11
-43.4
21
-10
0
SOLID
5
9B
100
AcDbEntity
8
dim
6
CONTINUOUS
62
7
370
0
100
AcDbTrace
10
-50.4
20
-10
30
0
11
-52.9
21
-10.4162846578
31
0
12
-52.9
22
-9.58371534223
32
0
13
-52.9
23
-9.58371534223
33
0
0
SOLID
5
9C
100
AcDbEntity
8
dim
6
CONTINUOUS
62
7
370
0
100
AcDbTrace
10
-48.4
20
-10
30
0
11
-45.9
21
-9.58371534223
31
0
12
-45.9
22
-10.4162846578
32
0
13
-45.9
23
-10.4162846578
33
0
0
MTEXT
5
9D
100
AcDbEntity
8
dim
6
CONTINUOUS
62
7
370
0
100
AcDbMText
10
-49.4
20
-8.125
30
0
40
2.5
41
1.11111111111
71
5
72
1
1
2
7
standard
210
0
220
0
230
1
50
0
73
2
44
1
0
LINE
5
9E
100
AcDbEntity
8
dim
6
CONTINUOUS
62
7
370
0
100
AcDbLine
10
-50.4
20
-0.625
11
-50.4
21
-11.25
0
LINE
5
9F
100
AcDbEntity
8
dim
6
CONTINUOUS
62
7
370
0
100
AcDbLine
10
-48.4
20
-0.625
11
-48.4
21
-11.25
0
ENDBLK
5
5D
330
5B
100
AcDbEntity
8
0
100
AcDbBlockEnd
0
BLOCK
5
5F
330
5E
100
AcDbEntity
8
0
100
AcDbBlockBegin
2
*D6
70
1
10
0
20
0
3
*D6
1

0
LINE
5
A0
100
AcDbEntity
8
dim
6
CONTINUOUS
62
7
370
0
100
AcDbLine
10
-5
20
-150
11
7
21
-150
0
SOLID
5
A1
100
AcDbEntity
8
dim
6
CONTINUOUS
62
7
370
0
100
AcDbTrace
10
0
20
-150
30
0
11
-2.5
21
-150.416284658
31
0
12
-2.5
22
-149.583715342
32
0
13
-2.5
23
-149.583715342
33
0
0
SOLID
5
A2
100
AcDbEntity
8
dim
6
CONTINUOUS
62
7
370
0
100
AcDbTrace
10
2
20
-150
30
0
11
4.5
21
-149.583715342
31
0
12
4.5
22
-150.416284658
32
0
13
4.5
23
-150.416284658
33
0
0
MTEXT
5
A3
100
AcDbEntity
8
dim
6
CONTINUOUS
62
7
370
0
100
AcDbMText
10
1
20
-148.125
30
0
40
2.5
41
1.11111111111
71
5
72
1
1
2
7
standard
210
0
220
0
230
1
50
0
73
2
44
1
0
LINE
5
A4
100
AcDbEntity
8
dim
6
CONTINUOUS
62
7
370
0
100
AcDbLine
10
-1.1481063742e-16
20
-132.625
11
-2.2962127484e-16
21
-151.25
0
LINE
5
A5
100
AcDbEntity
8
dim
6
CONTINUOUS
62
7
370
0
100
AcDbLine
10
2
20
-132.625
11
2
21
-151.25
0
ENDBLK
5
60
330
5E
100
AcDbEntity
8
0
100
AcDbBlockEnd
0
BLOCK
5
62
330
61
100
AcDbEntity
8
0
100
AcDbBlockBegin
2
*D9
70
1
10
0
20
0
3
*D9
1

0
LINE
5
A6
100
AcDbEntity
8
dim
6
CONTINUOUS
62
7
370
0
100
AcDbLine
10
370
20
-132
11
370
21
-32.4
0
SOLID
5
A7
100
AcDbEntity
8
dim
6
CONTINUOUS
62
7
370
0
100
AcDbTrace
10
370
20
-132
30
0
11
369.583715342
21
-129.5
31
0
12
370.416284658
22
-129.5
32
0
13
370.416284658
23
-129.5
33
0
0
SOLID
5
A8
100
AcDbEntity
8
dim
6
CONTINUOUS
62
7
370
0
100
AcDbTrace
10
370
20
-32.4
30
0
11
370.416284658
21
-34.9
31
0
12
369.583715342
22
-34.9
32
0
13
369.583715342
23
-34.9
33
0
0
MTEXT
5
A9
100
AcDbEntity
8
dim
6
CONTINUOUS
62
7
370
0
100
AcDbMText
10
368.125
20
-82.2
30
0
40
2.5
41
5.83333333333
71
5
72
1
1
99.6
7
standard
210
0
220
0
230
1
50
90
73
2
44
1
0
LINE
5
AA
100
AcDbEntity
8
dim
6
CONTINUOUS
62
7
370
0
100
AcDbLine
10
330.825
20
-132
11
371.25
21
-132
0
LINE
5
AB
100
AcDbEntity
8
dim
6
CONTINUOUS
62
7
370
0
100
AcDbLine
10
330.825
20
-32.4
11
371.25
21
-32.4
0
ENDBLK
5
63
330
61
100
AcDbEntity
8
0
100
AcDbBlockEnd
0
BLOCK
5
65
330
64
100
AcDbEntity
8
0
100
AcDbBlockBegin
2
*D11
70
1
10
0
20
0
3
*D11
1

0
LINE
5
AC
100
AcDbEntity
8
dim
6
CONTINUOUS
62
7
370
0
100
AcDbLine
10
-200
20
0
11
-200
21
330.2
0
SOLID
5
AD
100
AcDbEntity
8
dim
6
CONTINUOUS
62
7
370
0
100
AcDbTrace
10
-200
20
0
30
0
11
-200.416284658
21
2.5
31
0
12
-199.583715342
22
2.5
32
0
13
-199.583715342
23
2.5
33
0
0
SOLID
5
AE
100
AcDbEntity
8
dim
6
CONTINUOUS
62
7
370
0
100
AcDbTrace
10
-200
20
330.2
30
0
11
-199.583715342
21
327.7
31
0
12
-200.416284658
22
327.7
32
0
13
-200.416284658
23
327.7
33
0
0
MTEXT
5
AF
100
AcDbEntity
8
dim
6
CONTINUOUS
62
7
370
0
100
AcDbMText
10
-201.875
20
165.1
30
0
40
2.5
41
7.77777777778
71
5
72
1
1
330.2
7
standard
210
0
220
0
230
1
50
90
73
2
44
1
0
LINE
5
B0
100
AcDbEntity
8
dim
6
CONTINUOUS
62
7
370
0
100
AcDbLine
10
-150.625
20
7.65404249467e-17
11
-201.25
21
1.53080849893e-16
0
LINE
5
B1
100
AcDbEntity
8
dim
6
CONTINUOUS
62
7
370
0
100
AcDbLine
10
-150.625
20
330.2
11
-201.25
21
330.2
0
ENDBLK
5
66
330
64
100
AcDbEntity
8
0
100
AcDbBlockEnd
0
BLOCK
5
68
330
67
100
AcDbEntity
8
0
100
AcDbBlockBegin
2
*D7
70
1
10
0
20
0
3
*D7
1

0
LINE
5
B2
100
AcDbEntity
8
dim
6
CONTINUOUS
62
7
370
0
100
AcDbLine
10
323.2
20
-150
11
335.2
21
-150
0
SOLID
5
B3
100
AcDbEntity
8
dim
6
CONTINUOUS
62
7
370
0
100
AcDbTrace
10
328.2
20
-150
30
0
11
325.7
21
-150.416284658
31
0
12
325.7
22
-149.583715342
32
0
13
325.7
23
-149.583715342
33
0
0
SOLID
5
B4
100
AcDbEntity
8
dim
6
CONTINUOUS
62
7
370
0
100
AcDbTrace
10
330.2
20
-150
30
0
11
332.7
21
-149.583715342
31
0
12
332.7
22
-150.416284658
32
0
13
332.7
23
-150.416284658
33
0
0
MTEXT
5
B5
100
AcDbEntity
8
dim
6
CONTINUOUS
62
7
370
0
100
AcDbMText
10
329.2
20
-148.125
30
0
40
2.5
41
1.11111111111
71
5
72
1
1
2
7
standard
210
0
220
0
230
1
50
0
73
2
44
1
0
LINE
5
B6
100
AcDbEntity
8
dim
6
CONTINUOUS
62
7
370
0
100
AcDbLine
10
328.2
20
-132.625
11
328.2
21
-151.25
0
LINE
5
B7
100
AcDbEntity
8
dim
6
CONTINUOUS
62
7
370
0
100
AcDbLine
10
330.2
20
-132.625
11
330.2
21
-151.25
0
ENDBLK
5
69
330
67
100
AcDbEntity
8
0
100
AcDbBlockEnd
0
BLOCK
5
6B
330
6A
100
AcDbEntity
8
0
100
AcDbBlockBegin
2
SHAPE2DVIEW
70
0
10
0
20
0
3
SHAPE2DVIEW
1

0
LINE
5
B8
100
AcDbEntity
8
0
6
ByLayer
62
0
370
-1
100
AcDbLine
10
0
20
0
11
0
21
330.2
0
LINE
5
B9
100
AcDbEntity
8
0
6
ByLayer
62
0
370
-1
100
AcDbLine
10
330.2
20
0
11
330.2
21
330.2
0
LINE
5
BA
100
AcDbEntity
8
0
6
ByLayer
62
0
370
-1
100
AcDbLine
10
0
20
0
11
330.2
21
0
0
LINE
5
BB
100
AcDbEntity
8
0
6
ByLayer
62
0
370
-1
100
AcDbLine
10
0
20
330.2
11
330.2
21
330.2
0
ENDBLK
5
6C
330
6A
100
AcDbEntity
8
0
100
AcDbBlockEnd
0
BLOCK
5
6E
330
6D
100
AcDbEntity
8
0
100
AcDbBlockBegin
2
SHAPE2DVIEW003
70
0
10
0
20
0
3
SHAPE2DVIEW003
1

0
LINE
5
BC
100
AcDbEntity
8
0
6
ByLayer
62
0
370
-1
100
AcDbLine
10
0
20
-132
11
2
21
-132
0
LINE
5
BD
100
AcDbEntity
8
0
6
ByLayer
62
0
370
-1
100
AcDbLine
10
2
20
-132
11
2
21
-32.4
0
LINE
5
BE
100
AcDbEntity
8
0
6
ByLayer
62
0
370
-1
100
AcDbLine
10
0
20
-132
11
2.21156426505e-14
21
-32.4
0
LINE
5
BF
100
AcDbEntity
8
0
6
ByLayer
62
0
370
-1
100
AcDbLine
10
2.21156426505e-14
20
-32.4
11
2
21
-32.4
0
LINE
5
C0
100
AcDbEntity
8
0
6
ByLayer
62
0
370
-1
100
AcDbLine
10
2
20
-32.4
11
328.2
21
-32.4
0
LINE
5
C1
100
AcDbEntity
8
0
6
ByLayer
62
0
370
-1
100
AcDbLine
10
2.21156426505e-14
20
-32.4
11
2.25597318604e-14
21
-30.4
0
LINE
5
C2
100
AcDbEntity
8
0
6
ByLayer
62
0
370
-1
100
AcDbLine
10
2.25597318604e-14
20
-30.4
11
330.2
21
-30.4
0
LINE
5
C3
100
AcDbEntity
8
0
6
ByLayer
62
0
370
-1
100
AcDbLine
10
330.2
20
-32.4
11
330.2
21
-30.4
0
LINE
5
C4
100
AcDbEntity
8
0
6
ByLayer
62
0
370
-1
100
AcDbLine
10
328.2
20
-32.4
11
330.2
21
-32.4
0
LINE
5
C5
100
AcDbEntity
8
0
6
ByLayer
62
0
370
-1
100
AcDbLine
10
328.2
20
-132
11
328.2
21
-32.4
0
LINE
5
C6
100
AcDbEntity
8
0
6
ByLayer
62
0
370
-1
100
AcDbLine
10
328.2
20
-132
11
330.2
21
-132
0
LINE
5
C7
100
AcDbEntity
8
0
6
ByLayer
62
0
370
-1
100
AcDbLine
10
330.2
20
-132
11
330.2
21
-32.4
0
ENDBLK
5
6F
330
6D
100
AcDbEntity
8
0
100
AcDbBlockEnd
0
BLOCK
5
71
330
70
100
AcDbEntity
8
0
100
AcDbBlockBegin
2
SHAPE2DVIEW002
70
0
10
0
20
0
3
SHAPE2DVIEW002
1

0
LINE
5
C8
100
AcDbEntity
8
0
6
ByLayer
62
0
370
-1
100
AcDbLine
10
464
20
0
11
464
21
330.2
0
LINE
5
C9
100
AcDbEntity
8
0
6
ByLayer
62
0
370
-1
100
AcDbLine
10
464
20
0
11
364.4
21
0
0
LINE
5
CA
100
AcDbEntity
8
0
6
ByLayer
62
0
370
-1
100
AcDbLine
10
464
20
330.2
11
364.4
21
330.2
0
LINE
5
CB
100
AcDbEntity
8
0
6
ByLayer
62
0
370
-1
100
AcDbLine
10
364.4
20
0
11
364.4
21
330.2
0
LINE
5
CC
100
AcDbEntity
8
0
6
ByLayer
62
0
370
-1
100
AcDbLine
10
364.4
20
0
11
362.4
21
0
0
LINE
5
CD
100
AcDbEntity
8
0
6
ByLayer
62
0
370
-1
100
AcDbLine
10
364.4
20
330.2
11
362.4
21
330.2
0
LINE
5
CE
100
AcDbEntity
8
0
6
ByLayer
62
0
370
-1
100
AcDbLine
10
362.4
20
0
11
362.4
21
330.2
0
ENDBLK
5
72
330
70
100
AcDbEntity
8
0
100
AcDbBlockEnd
0
BLOCK
5
74
330
73
100
AcDbEntity
8
0
100
AcDbBlockBegin
2
SHAPE2DVIEW001
70
0
10
0
20
0
3
SHAPE2DVIEW001
1

0
LINE
5
CF
100
AcDbEntity
8
0
6
ByLayer
62
0
370
-1
100
AcDbLine
10
-50.4
20
0
11
-48.4
21
0
0
LINE
5
D0
100
AcDbEntity
8
0
6
ByLayer
62
0
370
-1
100
AcDbLine
10
-50.4
20
330.2
11
-48.4
21
330.2
0
LINE
5
D1
100
AcDbEntity
8
0
6
ByLayer
62
0
370
-1
100
AcDbLine
10
-48.4
20
0
11
-48.4
21
330.2
0
LINE
5
D2
100
AcDbEntity
8
0
6
ByLayer
62
0
370
-1
100
AcDbLine
10
-50.4
20
0
11
-50.4
21
330.2
0
LINE
5
D3
100
AcDbEntity
8
0
6
ByLayer
62
0
370
-1
100
AcDbLine
10
-150
20
0
11
-50.4
21
0
0
LINE
5
D4
100
AcDbEntity
8
0
6
ByLayer
62
0
370
-1
100
AcDbLine
10
-150
20
330.2
11
-50.4
21
330.2
0
LINE
5
D5
100
AcDbEntity
8
0
6
ByLayer
62
0
370
-1
100
AcDbLine
10
-150
20
0
11
-150
21
330.2
0
ENDBLK
5
75
330
73
100
AcDbEntity
8
0
100
AcDbBlockEnd
0
ENDSEC
0
SECTION
2
ENTITIES
0
INSERT
5
D6
100
AcDbEntity
8
cut
6
ByLayer
62
256
370
-1
100
AcDbBlockReference
2
SHAPE2DVIEW
10
0
20
0
30
0
41
1
42
1
43
0
50
0
70
1
71
1
44
0
45
0
0
INSERT
5
D7
100
AcDbEntity
8
cut
6
ByLayer
62
256
370
-1
100
AcDbBlockReference
2
SHAPE2DVIEW003
10
0
20
0
30
0
41
1
42
1
43
0
50
0
70
1
71
1
44
0
45
0
0
INSERT
5
D8
100
AcDbEntity
8
cut
6
ByLayer
62
256
370
-1
100
AcDbBlockReference
2
SHAPE2DVIEW002
10
0
20
0
30
0
41
1
42
1
43
0
50
0
70
1
71
1
44
0
45
0
0
INSERT
5
D9
100
AcDbEntity
8
cut
6
ByLayer
62
256
370
-1
100
AcDbBlockReference
2
SHAPE2DVIEW001
10
0
20
0
30
0
41
1
42
1
43
0
50
0
70
1
71
1
44
0
45
0
0
DIMENSION
5
DA
100
AcDbEntity
8
dim
6
ByLayer
62
256
370
-1
100
AcDbDimension
2
*D1
10
-50.4
20
-10
30
0
11
-100.2
21
-8.125
31
0
70
32
71
5
3
Standard
53
0
210
0
220
0
230
1
100
AcDbAlignedDimension
13
-150
23
0
33
0
14
-50.4
24
0
34
0
100
AcDbRotatedDimension
0
DIMENSION
5
DB
100
AcDbEntity
8
dim
6
ByLayer
62
256
370
-1
100
AcDbDimension
2
*D2
10
-48.4
20
-10
30
0
11
-49.4
21
-8.125
31
0
70
32
71
5
3
Standard
53
0
210
0
220
0
230
1
100
AcDbAlignedDimension
13
-50.4
23
4.16333634234e-16
33
0
14
-48.4
24
0
34
0
100
AcDbRotatedDimension
0
DIMENSION
5
DC
100
AcDbEntity
8
dim
6
ByLayer
62
256
370
-1
100
AcDbDimension
2
*D3
10
330.2
20
360
30
0
11
165.1
21
361.875
31
0
70
32
71
5
3
Standard
53
0
210
0
220
0
230
1
100
AcDbAlignedDimension
13
0
23
330
33
0
14
330.2
24
330.2
34
0
100
AcDbRotatedDimension
0
DIMENSION
5
DD
100
AcDbEntity
8
dim
6
ByLayer
62
256
370
-1
100
AcDbDimension
2
*D4
10
364.4
20
360
30
0
11
363.4
21
361.875
31
0
70
32
71
5
3
Standard
53
0
210
0
220
0
230
1
100
AcDbAlignedDimension
13
362.4
23
330.2
33
0
14
364.4
24
330.2
34
0
100
AcDbRotatedDimension
0
DIMENSION
5
DE
100
AcDbEntity
8
dim
6
ByLayer
62
256
370
-1
100
AcDbDimension
2
*D5
10
464
20
360
30
0
11
414.2
21
361.875
31
0
70
32
71
5
3
Standard
53
0
210
0
220
0
230
1
100
AcDbAlignedDimension
13
364.4
23
330.2
33
0
14
464
24
330.2
34
0
100
AcDbRotatedDimension
0
DIMENSION
5
DF
100
AcDbEntity
8
dim
6
ByLayer
62
256
370
-1
100
AcDbDimension
2
*D6
10
2
20
-150
30
0
11
1
21
-148.125
31
0
70
32
71
5
3
Standard
53
0
210
0
220
0
230
1
100
AcDbAlignedDimension
13
0
23
-132
33
0
14
2
24
-132
34
0
100
AcDbRotatedDimension
0
DIMENSION
5
E0
100
AcDbEntity
8
dim
6
ByLayer
62
256
370
-1
100
AcDbDimension
2
*D7
10
330.2
20
-150
30
0
11
329.2
21
-148.125
31
0
70
32
71
5
3
Standard
53
0
210
0
220
0
230
1
100
AcDbAlignedDimension
13
328.2
23
-132
33
0
14
330.2
24
-132
34
0
100
AcDbRotatedDimension
0
DIMENSION
5
E1
100
AcDbEntity
8
dim
6
ByLayer
62
256
370
-1
100
AcDbDimension
2
*D8
10
330.2
20
-20
30
0
11
165.1
21
-18.125
31
0
70
32
71
5
3
Standard
53
0
210
0
220
0
230
1
100
AcDbAlignedDimension
13
0
23
-30
33
0
14
330.2
24
-30.4
34
0
100
AcDbRotatedDimension
0
DIMENSION
5
E2
100
AcDbEntity
8
dim
6
ByLayer
62
256
370
-1
100
AcDbDimension
2
*D9
10
370
20
-32.4
30
0
11
368.125
21
-82.2
31
0
70
32
71
5
3
Standard
53
0
210
0
220
0
230
1
100
AcDbAlignedDimension
13
330.2
23
-132
33
0
14
330.2
24
-32.4
34
0
50
90
100
AcDbRotatedDimension
0
DIMENSION
5
E3
100
AcDbEntity
8
dim
6
ByLayer
62
256
370
-1
100
AcDbDimension
2
*D10
10
370
20
-32.4
30
0
11
368.125
21
-31.4
31
0
70
32
71
5
3
Standard
53
0
210
0
220
0
230
1
100
AcDbAlignedDimension
13
330.2
23
-30.4
33
0
14
330.2
24
-32.4
34
0
50
90
100
AcDbRotatedDimension
0
DIMENSION
5
E4
100
AcDbEntity
8
dim
6
ByLayer
62
256
370
-1
100
AcDbDimension
2
*D11
10
-200
20
330.2
30
0
11
-201.875
21
165.1
31
0
70
32
71
5
3
Standard
53
0
210
0
220
0
230
1
100
AcDbAlignedDimension
13
-150
23
0
33
0
14
-150
24
330.2
34
0
50
90
100
AcDbRotatedDimension
0
TEXT
5
E5
100
AcDbEntity
8
Notes
6
ByLayer
62
256
370
-1
100
AcDbText
10
120
20
170
30
0
40
5
1
View from top, looking down
50
0
41
1
51
0
7
standard
71
0
210
0
220
0
230
1
100
AcDbText
0
TEXT
5
E6
100
AcDbEntity
8
Notes
6
ByLayer
62
256
370
-1
100
AcDbText
10
-100
20
140
30
0
40
5
1
View facing right side
50
90
41
1
51
0
7
standard
71
0
210
0
220
0
230
1
100
AcDbText
0
TEXT
5
E7
100
AcDbEntity
8
Notes
6
ByLayer
62
256
370
-1
100
AcDbText
10
420
20
210
30
0
40
5
1
View facing left side
50
-90
41
1
51
0
7
standard
71
0
210
0
220
0
230
1
100
AcDbText
0
TEXT
5
E8
100
AcDbEntity
8
Notes
6
ByLayer
62
256
370
-1
100
AcDbText
10
130
20
-90
30
0
40
5
1
View facing from back
50
0
41
1
51
0
7
standard
71
0
210
0
220
0
230
1
100
AcDbText
0
ENDSEC
0
SECTION
2
OBJECTS
0
DICTIONARY
5
C
330
0
100
AcDbDictionary
281
1
3
ACAD_GROUP
350
D
0
DICTIONARY
5
D
330
C
100
AcDbDictionary
281
1
0
ENDSEC
0
EOF
