999
dxfrw 0.5.11
0
SECTION
2
HEADER
9
$ACADVER
1
AC1021
9
$HANDSEED
5
20000
9
$DWGCODEPAGE
3
ANSI_1252
9
$INSBASE
10
0
20
0
30
0
9
$EXTMIN
10
-0
20
0
30
0
9
$EXTMAX
10
159.3
20
69.3
30
0
9
$LIMMIN
10
0
20
0
9
$LIMMAX
10
420
20
297
9
$ORTHOMODE
70
0
9
$LTSCALE
40
1
9
$TEXTSTYLE
7
STANDARD
9
$CLAYER
8
stensil
9
$DIMASZ
40
2.5
9
$DIMLFAC
40
1
9
$DIMSCALE
40
1
9
$DIMEXO
40
0.625
9
$DIMEXE
40
1.25
9
$DIMTXT
40
2.5
9
$DIMTSZ
40
0
9
$DIMAUNIT
70
0
9
$DIMADEC
70
0
9
$DIMLUNIT
70
2
9
$DIMSTYLE
2
STANDARD
9
$DIMGAP
40
0.625
9
$DIMTIH
70
0
9
$LUNITS
70
2
9
$LUPREC
70
4
9
$AUNITS
70
0
9
$AUPREC
70
2
9
$SPLINESEGS
70
8
9
$GRIDMODE
70
0
9
$SNAPSTYLE
70
0
9
$PINSBASE
10
0
20
0
30
0
9
$PLIMMIN
10
0
20
0
9
$PLIMMAX
10
210
20
297
9
$INSUNITS
70
4
9
$PSVPSCALE
40
1
0
ENDSEC
0
SECTION
2
CLASSES
0
ENDSEC
0
SECTION
2
TABLES
0
TABLE
2
VPORT
5
8
330
0
100
AcDbSymbolTable
70
1
0
VPORT
5
31
330
2
100
AcDbSymbolTableRecord
100
AcDbViewportTableRecord
2
*ACTIVE
70
0
10
0
20
0
11
1
21
1
12
80.2
22
38.2
13
0
23
0
14
10
24
10
15
10
25
10
16
0
26
0
36
1
17
0
27
0
37
0
40
133.2
41
1.52702702703
42
50
43
0
44
0
50
0
51
0
71
0
72
100
73
1
74
3
75
0
76
0
77
0
78
0
281
0
65
1
110
0
120
0
130
0
111
1
121
0
131
0
112
0
122
1
132
0
79
0
146
0
348
10020
60
7
61
5
292
1
282
1
141
0
142
0
63
250
421
3358443
0
ENDTAB
0
TABLE
2
LTYPE
5
5
330
0
100
AcDbSymbolTable
70
4
0
LTYPE
5
14
330
5
100
AcDbSymbolTableRecord
100
AcDbLinetypeTableRecord
2
ByBlock
70
0
3

72
65
73
0
40
0
0
LTYPE
5
15
330
5
100
AcDbSymbolTableRecord
100
AcDbLinetypeTableRecord
2
ByLayer
70
0
3

72
65
73
0
40
0
0
LTYPE
5
16
330
5
100
AcDbSymbolTableRecord
100
AcDbLinetypeTableRecord
2
Continuous
70
0
3
Solid line
72
65
73
0
40
0
0
LTYPE
5
32
330
5
100
AcDbSymbolTableRecord
100
AcDbLinetypeTableRecord
2
DOT
70
0
3
Dot . . . . . . . . . . . . . . . . . . . . . .
72
65
73
2
40
6.35
49
0
74
0
49
-6.35
74
0
0
LTYPE
5
33
330
5
100
AcDbSymbolTableRecord
100
AcDbLinetypeTableRecord
2
DOT2
70
0
3
Dot (.5x) .....................................
72
65
73
2
40
3.175
49
0
74
0
49
-3.175
74
0
0
LTYPE
5
34
330
5
100
AcDbSymbolTableRecord
100
AcDbLinetypeTableRecord
2
DOTX2
70
0
3
Dot (2x) .  .  .  .  .  .  .  .  .  .  .  .  .
72
65
73
2
40
12.7
49
0
74
0
49
-12.7
74
0
0
LTYPE
5
35
330
5
100
AcDbSymbolTableRecord
100
AcDbLinetypeTableRecord
2
DASHED
70
0
3
Dot . . . . . . . . . . . . . . . . . . . . . .
72
65
73
2
40
19.05
49
12.7
74
0
49
-6.35
74
0
0
LTYPE
5
36
330
5
100
AcDbSymbolTableRecord
100
AcDbLinetypeTableRecord
2
DASHED2
70
0
3
Dashed (.5x) _ _ _ _ _ _ _ _ _ _ _ _ _ _ _ _ _
72
65
73
2
40
9.525
49
6.35
74
0
49
-3.175
74
0
0
LTYPE
5
37
330
5
100
AcDbSymbolTableRecord
100
AcDbLinetypeTableRecord
2
DASHEDX2
70
0
3
Dashed (2x) ____  ____  ____  ____  ____  ___
72
65
73
2
40
38.1
49
25.4
74
0
49
-12.7
74
0
0
LTYPE
5
38
330
5
100
AcDbSymbolTableRecord
100
AcDbLinetypeTableRecord
2
DASHDOT
70
0
3
Dash dot __ . __ . __ . __ . __ . __ . __ . __
72
65
73
4
40
25.4
49
12.7
74
0
49
-6.35
74
0
49
0
74
0
49
-6.35
74
0
0
LTYPE
5
39
330
5
100
AcDbSymbolTableRecord
100
AcDbLinetypeTableRecord
2
DASHDOT2
70
0
3
Dash dot (.5x) _._._._._._._._._._._._._._._.
72
65
73
4
40
12.7
49
6.35
74
0
49
-3.175
74
0
49
0
74
0
49
-3.175
74
0
0
LTYPE
5
3A
330
5
100
AcDbSymbolTableRecord
100
AcDbLinetypeTableRecord
2
DASHDOTX2
70
0
3
Dash dot (2x) ____  .  ____  .  ____  .  ___
72
65
73
4
40
50.8
49
25.4
74
0
49
-12.7
74
0
49
0
74
0
49
-12.7
74
0
0
LTYPE
5
3B
330
5
100
AcDbSymbolTableRecord
100
AcDbLinetypeTableRecord
2
DIVIDE
70
0
3
Divide ____ . . ____ . . ____ . . ____ . . ____
72
65
73
6
40
31.75
49
12.7
74
0
49
-6.35
74
0
49
0
74
0
49
-6.35
74
0
49
0
74
0
49
-6.35
74
0
0
LTYPE
5
3C
330
5
100
AcDbSymbolTableRecord
100
AcDbLinetypeTableRecord
2
DIVIDE2
70
0
3
Divide (.5x) __..__..__..__..__..__..__..__.._
72
65
73
6
40
15.875
49
6.35
74
0
49
-3.175
74
0
49
0
74
0
49
-3.175
74
0
49
0
74
0
49
-3.175
74
0
0
LTYPE
5
3D
330
5
100
AcDbSymbolTableRecord
100
AcDbLinetypeTableRecord
2
DIVIDEX2
70
0
3
Divide (2x) ________  .  .  ________  .  .  _
72
65
73
6
40
63.5
49
25.4
74
0
49
-12.7
74
0
49
0
74
0
49
-12.7
74
0
49
0
74
0
49
-12.7
74
0
0
LTYPE
5
3E
330
5
100
AcDbSymbolTableRecord
100
AcDbLinetypeTableRecord
2
BORDER
70
0
3
Border __ __ . __ __ . __ __ . __ __ . __ __ .
72
65
73
6
40
44.45
49
12.7
74
0
49
-6.35
74
0
49
12.7
74
0
49
-6.35
74
0
49
0
74
0
49
-6.35
74
0
0
LTYPE
5
3F
330
5
100
AcDbSymbolTableRecord
100
AcDbLinetypeTableRecord
2
BORDER2
70
0
3
Border (.5x) __.__.__.__.__.__.__.__.__.__.__.
72
65
73
6
40
22.225
49
6.35
74
0
49
-3.175
74
0
49
6.35
74
0
49
-3.175
74
0
49
0
74
0
49
-3.175
74
0
0
LTYPE
5
40
330
5
100
AcDbSymbolTableRecord
100
AcDbLinetypeTableRecord
2
BORDERX2
70
0
3
Border (2x) ____  ____  .  ____  ____  .  ___
72
65
73
6
40
88.9
49
25.4
74
0
49
-12.7
74
0
49
25.4
74
0
49
-12.7
74
0
49
0
74
0
49
-12.7
74
0
0
LTYPE
5
41
330
5
100
AcDbSymbolTableRecord
100
AcDbLinetypeTableRecord
2
CENTER
70
0
3
Center ____ _ ____ _ ____ _ ____ _ ____ _ ____
72
65
73
4
40
50.8
49
31.75
74
0
49
-6.35
74
0
49
6.35
74
0
49
-6.35
74
0
0
LTYPE
5
42
330
5
100
AcDbSymbolTableRecord
100
AcDbLinetypeTableRecord
2
CENTER2
70
0
3
Center (.5x) ___ _ ___ _ ___ _ ___ _ ___ _ ___
72
65
73
4
40
28.575
49
19.05
74
0
49
-3.175
74
0
49
3.175
74
0
49
-3.175
74
0
0
LTYPE
5
43
330
5
100
AcDbSymbolTableRecord
100
AcDbLinetypeTableRecord
2
CENTERX2
70
0
3
Center (2x) ________  __  ________  __  _____
72
65
73
4
40
101.6
49
63.5
74
0
49
-12.7
74
0
49
12.7
74
0
49
-12.7
74
0
0
ENDTAB
0
TABLE
2
LAYER
5
2
330
0
100
AcDbSymbolTable
70
1
0
LAYER
5
10
330
2
100
AcDbSymbolTableRecord
100
AcDbLayerTableRecord
2
0
70
0
62
7
6
CONTINUOUS
370
0
390
F
0
LAYER
5
44
330
2
100
AcDbSymbolTableRecord
100
AcDbLayerTableRecord
2
dim
70
1
62
3
6
CONTINUOUS
370
0
390
F
0
LAYER
5
45
330
2
100
AcDbSymbolTableRecord
100
AcDbLayerTableRecord
2
stensil
70
0
62
16
420
8388608
6
CONTINUOUS
370
0
390
F
0
ENDTAB
0
TABLE
2
STYLE
5
3
330
0
100
AcDbSymbolTable
70
3
0
STYLE
5
46
330
2
100
AcDbSymbolTableRecord
100
AcDbTextStyleTableRecord
2
standard
70
0
40
0
41
1
50
0
71
0
42
1
3
standard
4

0
ENDTAB
0
TABLE
2
VIEW
5
6
330
0
100
AcDbSymbolTable
70
0
0
ENDTAB
0
TABLE
2
UCS
5
7
330
0
100
AcDbSymbolTable
70
0
0
ENDTAB
0
TABLE
2
APPID
5
9
330
0
100
AcDbSymbolTable
70
1
0
APPID
5
12
330
9
100
AcDbSymbolTableRecord
100
AcDbRegAppTableRecord
2
ACAD
70
0
0
ENDTAB
0
TABLE
2
DIMSTYLE
5
A
330
0
100
AcDbSymbolTable
70
1
100
AcDbDimStyleTable
71
1
0
DIMSTYLE
105
47
330
A
100
AcDbSymbolTableRecord
100
AcDbDimStyleTableRecord
2
Standard
70
0
40
1
41
2.5
42
0.625
43
0.38
44
1.25
45
0
46
0
47
0
48
0
140
2.5
141
0.09
142
0
143
25.4
144
1
145
0
146
1
147
0.625
148
0
71
0
72
0
73
0
74
1
75
0
76
0
77
0
78
0
79
0
170
0
171
2
172
0
173
0
174
0
175
0
176
0
177
0
178
0
179
0
271
4
272
4
273
2
274
2
275
0
276
0
277
2
278
46
279
0
280
0
281
0
282
0
283
1
284
0
285
0
286
0
288
0
289
3
340
Standard
341

371
-2
372
-2
0
ENDTAB
0
TABLE
2
BLOCK_RECORD
5
1
330
0
100
AcDbSymbolTable
70
2
0
BLOCK_RECORD
5
1F
330
1
100
AcDbSymbolTableRecord
100
AcDbBlockTableRecord
2
*Model_Space
70
0
280
1
281
0
0
BLOCK_RECORD
5
1E
330
1
100
AcDbSymbolTableRecord
100
AcDbBlockTableRecord
2
*Paper_Space
70
0
280
1
281
0
0
BLOCK_RECORD
5
48
330
1
100
AcDbSymbolTableRecord
100
AcDbBlockTableRecord
2
*D27
70
0
280
1
281
0
0
BLOCK_RECORD
5
4B
330
1
100
AcDbSymbolTableRecord
100
AcDbBlockTableRecord
2
*D21
70
0
280
1
281
0
0
BLOCK_RECORD
5
4E
330
1
100
AcDbSymbolTableRecord
100
AcDbBlockTableRecord
2
*D16
70
0
280
1
281
0
0
BLOCK_RECORD
5
51
330
1
100
AcDbSymbolTableRecord
100
AcDbBlockTableRecord
2
*D20
70
0
280
1
281
0
0
BLOCK_RECORD
5
54
330
1
100
AcDbSymbolTableRecord
100
AcDbBlockTableRecord
2
*D2
70
0
280
1
281
0
0
BLOCK_RECORD
5
57
330
1
100
AcDbSymbolTableRecord
100
AcDbBlockTableRecord
2
*D19
70
0
280
1
281
0
0
BLOCK_RECORD
5
5A
330
1
100
AcDbSymbolTableRecord
100
AcDbBlockTableRecord
2
*D1
70
0
280
1
281
0
0
BLOCK_RECORD
5
5D
330
1
100
AcDbSymbolTableRecord
100
AcDbBlockTableRecord
2
*D6
70
0
280
1
281
0
0
BLOCK_RECORD
5
60
330
1
100
AcDbSymbolTableRecord
100
AcDbBlockTableRecord
2
*D5
70
0
280
1
281
0
0
BLOCK_RECORD
5
63
330
1
100
AcDbSymbolTableRecord
100
AcDbBlockTableRecord
2
*D11
70
0
280
1
281
0
0
BLOCK_RECORD
5
66
330
1
100
AcDbSymbolTableRecord
100
AcDbBlockTableRecord
2
*D23
70
0
280
1
281
0
0
BLOCK_RECORD
5
69
330
1
100
AcDbSymbolTableRecord
100
AcDbBlockTableRecord
2
*D26
70
0
280
1
281
0
0
BLOCK_RECORD
5
6C
330
1
100
AcDbSymbolTableRecord
100
AcDbBlockTableRecord
2
*D3
70
0
280
1
281
0
0
BLOCK_RECORD
5
6F
330
1
100
AcDbSymbolTableRecord
100
AcDbBlockTableRecord
2
*D22
70
0
280
1
281
0
0
BLOCK_RECORD
5
72
330
1
100
AcDbSymbolTableRecord
100
AcDbBlockTableRecord
2
*D8
70
0
280
1
281
0
0
BLOCK_RECORD
5
75
330
1
100
AcDbSymbolTableRecord
100
AcDbBlockTableRecord
2
*D13
70
0
280
1
281
0
0
BLOCK_RECORD
5
78
330
1
100
AcDbSymbolTableRecord
100
AcDbBlockTableRecord
2
*D15
70
0
280
1
281
0
0
BLOCK_RECORD
5
7B
330
1
100
AcDbSymbolTableRecord
100
AcDbBlockTableRecord
2
*D9
70
0
280
1
281
0
0
BLOCK_RECORD
5
7E
330
1
100
AcDbSymbolTableRecord
100
AcDbBlockTableRecord
2
*D10
70
0
280
1
281
0
0
BLOCK_RECORD
5
81
330
1
100
AcDbSymbolTableRecord
100
AcDbBlockTableRecord
2
*D12
70
0
280
1
281
0
0
BLOCK_RECORD
5
84
330
1
100
AcDbSymbolTableRecord
100
AcDbBlockTableRecord
2
*D7
70
0
280
1
281
0
0
BLOCK_RECORD
5
87
330
1
100
AcDbSymbolTableRecord
100
AcDbBlockTableRecord
2
*D24
70
0
280
1
281
0
0
BLOCK_RECORD
5
8A
330
1
100
AcDbSymbolTableRecord
100
AcDbBlockTableRecord
2
*D17
70
0
280
1
281
0
0
BLOCK_RECORD
5
8D
330
1
100
AcDbSymbolTableRecord
100
AcDbBlockTableRecord
2
*D18
70
0
280
1
281
0
0
BLOCK_RECORD
5
90
330
1
100
AcDbSymbolTableRecord
100
AcDbBlockTableRecord
2
*D25
70
0
280
1
281
0
0
BLOCK_RECORD
5
93
330
1
100
AcDbSymbolTableRecord
100
AcDbBlockTableRecord
2
*D4
70
0
280
1
281
0
0
BLOCK_RECORD
5
96
330
1
100
AcDbSymbolTableRecord
100
AcDbBlockTableRecord
2
*D14
70
0
280
1
281
0
0
ENDTAB
0
ENDSEC
0
SECTION
2
BLOCKS
0
BLOCK
5
20
330
1F
100
AcDbEntity
8
0
100
AcDbBlockBegin
2
*Model_Space
70
0
10
0
20
0
30
0
3
*Model_Space
1

0
ENDBLK
5
21
330
1F
100
AcDbEntity
8
0
100
AcDbBlockEnd
0
BLOCK
5
1C
330
1B
100
AcDbEntity
8
0
100
AcDbBlockBegin
2
*Paper_Space
70
0
10
0
20
0
30
0
3
*Paper_Space
1

0
ENDBLK
5
1D
330
1F
100
AcDbEntity
8
0
100
AcDbBlockEnd
0
BLOCK
5
49
330
48
100
AcDbEntity
8
0
100
AcDbBlockBegin
2
*D27
70
1
10
0
20
0
3
*D27
1

0
SOLID
5
99
100
AcDbEntity
8
dim
6
CONTINUOUS
62
7
370
0
100
AcDbTrace
10
155.770563523
20
63.34708669
30
0
11
155.739117294
21
60.8128601707
31
0
12
154.919615623
22
60.9597910258
32
0
13
154.919615623
23
60.9597910258
33
0
0
LINE
5
9A
100
AcDbEntity
8
dim
6
CONTINUOUS
62
7
370
0
100
AcDbLine
10
156.3
20
66.3
11
154.692081811
21
57.3318929102
0
MTEXT
5
9B
100
AcDbEntity
8
dim
6
CONTINUOUS
62
7
370
0
100
AcDbMText
10
153.385751847
20
60.6703875985
30
0
40
2.5
41
1.11111111111
71
5
72
1
1
3
7
standard
210
0
220
0
230
1
50
79.8352718824
73
2
44
1
0
ENDBLK
5
4A
330
48
100
AcDbEntity
8
0
100
AcDbBlockEnd
0
BLOCK
5
4C
330
4B
100
AcDbEntity
8
0
100
AcDbBlockBegin
2
*D21
70
1
10
0
20
0
3
*D21
1

0
LINE
5
9C
100
AcDbEntity
8
dim
6
CONTINUOUS
62
7
370
0
100
AcDbLine
10
0
20
-39
11
63.2
21
-39
0
SOLID
5
9D
100
AcDbEntity
8
dim
6
CONTINUOUS
62
7
370
0
100
AcDbTrace
10
0
20
-39
30
0
11
2.5
21
-38.5837153422
31
0
12
2.5
22
-39.4162846578
32
0
13
2.5
23
-39.4162846578
33
0
0
SOLID
5
9E
100
AcDbEntity
8
dim
6
CONTINUOUS
62
7
370
0
100
AcDbTrace
10
63.2
20
-39
30
0
11
60.7
21
-39.4162846578
31
0
12
60.7
22
-38.5837153422
32
0
13
60.7
23
-38.5837153422
33
0
0
MTEXT
5
9F
100
AcDbEntity
8
dim
6
CONTINUOUS
62
7
370
0
100
AcDbMText
10
31.6
20
-37.125
30
0
40
2.5
41
5.83333333333
71
5
72
1
1
63.2
7
standard
210
0
220
0
230
1
50
0
73
2
44
1
0
LINE
5
A0
100
AcDbEntity
8
dim
6
CONTINUOUS
62
7
370
0
100
AcDbLine
10
-1.1481063742e-16
20
11.375
11
-2.2962127484e-16
21
-40.25
0
LINE
5
A1
100
AcDbEntity
8
dim
6
CONTINUOUS
62
7
370
0
100
AcDbLine
10
63.2
20
7.475
11
63.2
21
-40.25
0
ENDBLK
5
4D
330
4B
100
AcDbEntity
8
0
100
AcDbBlockEnd
0
BLOCK
5
4F
330
4E
100
AcDbEntity
8
0
100
AcDbBlockBegin
2
*D16
70
1
10
0
20
0
3
*D16
1

0
LINE
5
A2
100
AcDbEntity
8
dim
6
CONTINUOUS
62
7
370
0
100
AcDbLine
10
60
20
52.07
11
60
21
35.07
0
SOLID
5
A3
100
AcDbEntity
8
dim
6
CONTINUOUS
62
7
370
0
100
AcDbTrace
10
60
20
52.07
30
0
11
60.4162846578
21
49.57
31
0
12
59.5837153422
22
49.57
32
0
13
59.5837153422
23
49.57
33
0
0
SOLID
5
A4
100
AcDbEntity
8
dim
6
CONTINUOUS
62
7
370
0
100
AcDbTrace
10
60
20
35.07
30
0
11
59.5837153422
21
37.57
31
0
12
60.4162846578
22
37.57
32
0
13
60.4162846578
23
37.57
33
0
0
MTEXT
5
A5
100
AcDbEntity
8
dim
6
CONTINUOUS
62
7
370
0
100
AcDbMText
10
58.125
20
43.57
30
0
40
2.5
41
2.5
71
5
72
1
1
17
7
standard
210
0
220
0
230
1
50
90
73
2
44
1
0
LINE
5
A6
100
AcDbEntity
8
dim
6
CONTINUOUS
62
7
370
0
100
AcDbLine
10
115.875
20
52.07
11
58.75
21
52.07
0
LINE
5
A7
100
AcDbEntity
8
dim
6
CONTINUOUS
62
7
370
0
100
AcDbLine
10
116.375
20
35.07
11
58.75
21
35.07
0
ENDBLK
5
50
330
4E
100
AcDbEntity
8
0
100
AcDbBlockEnd
0
BLOCK
5
52
330
51
100
AcDbEntity
8
0
100
AcDbBlockBegin
2
*D20
70
1
10
0
20
0
3
*D20
1

0
LINE
5
A8
100
AcDbEntity
8
dim
6
CONTINUOUS
62
7
370
0
100
AcDbLine
10
11.22
20
29
11
58.26
21
29
0
SOLID
5
A9
100
AcDbEntity
8
dim
6
CONTINUOUS
62
7
370
0
100
AcDbTrace
10
11.22
20
29
30
0
11
13.72
21
29.4162846578
31
0
12
13.72
22
28.5837153422
32
0
13
13.72
23
28.5837153422
33
0
0
SOLID
5
AA
100
AcDbEntity
8
dim
6
CONTINUOUS
62
7
370
0
100
AcDbTrace
10
58.26
20
29
30
0
11
55.76
21
28.5837153422
31
0
12
55.76
22
29.4162846578
32
0
13
55.76
23
29.4162846578
33
0
0
MTEXT
5
AB
100
AcDbEntity
8
dim
6
CONTINUOUS
62
7
370
0
100
AcDbMText
10
34.74
20
30.875
30
0
40
2.5
41
8.33333333333
71
5
72
1
1
47.04
7
standard
210
0
220
0
230
1
50
0
73
2
44
1
0
LINE
5
AC
100
AcDbEntity
8
dim
6
CONTINUOUS
62
7
370
0
100
AcDbLine
10
11.22
20
15
11
11.22
21
30.25
0
LINE
5
AD
100
AcDbEntity
8
dim
6
CONTINUOUS
62
7
370
0
100
AcDbLine
10
58.26
20
15
11
58.26
21
30.25
0
ENDBLK
5
53
330
51
100
AcDbEntity
8
0
100
AcDbBlockEnd
0
BLOCK
5
55
330
54
100
AcDbEntity
8
0
100
AcDbBlockBegin
2
*D2
70
1
10
0
20
0
3
*D2
1

0
LINE
5
AE
100
AcDbEntity
8
dim
6
CONTINUOUS
62
7
370
0
100
AcDbLine
10
0
20
88
11
159.3
21
88
0
SOLID
5
AF
100
AcDbEntity
8
dim
6
CONTINUOUS
62
7
370
0
100
AcDbTrace
10
0
20
88
30
0
11
2.5
21
88.4162846578
31
0
12
2.5
22
87.5837153422
32
0
13
2.5
23
87.5837153422
33
0
0
SOLID
5
B0
100
AcDbEntity
8
dim
6
CONTINUOUS
62
7
370
0
100
AcDbTrace
10
159.3
20
88
30
0
11
156.8
21
87.5837153422
31
0
12
156.8
22
88.4162846578
32
0
13
156.8
23
88.4162846578
33
0
0
MTEXT
5
B1
100
AcDbEntity
8
dim
6
CONTINUOUS
62
7
370
0
100
AcDbMText
10
79.65
20
89.875
30
0
40
2.5
41
7.22222222222
71
5
72
1
1
159.3
7
standard
210
0
220
0
230
1
50
0
73
2
44
1
0
LINE
5
B2
100
AcDbEntity
8
dim
6
CONTINUOUS
62
7
370
0
100
AcDbLine
10
3.82702124734e-17
20
53.875
11
7.65404249467e-17
21
89.25
0
LINE
5
B3
100
AcDbEntity
8
dim
6
CONTINUOUS
62
7
370
0
100
AcDbLine
10
159.3
20
52.125
11
159.3
21
89.25
0
ENDBLK
5
56
330
54
100
AcDbEntity
8
0
100
AcDbBlockEnd
0
BLOCK
5
58
330
57
100
AcDbEntity
8
0
100
AcDbBlockBegin
2
*D19
70
1
10
0
20
0
3
*D19
1

0
LINE
5
B4
100
AcDbEntity
8
dim
6
CONTINUOUS
62
7
370
0
100
AcDbLine
10
14.22
20
-31.25
11
55.26
21
-31.25
0
SOLID
5
B5
100
AcDbEntity
8
dim
6
CONTINUOUS
62
7
370
0
100
AcDbTrace
10
14.22
20
-31.25
30
0
11
16.72
21
-30.8337153422
31
0
12
16.72
22
-31.6662846578
32
0
13
16.72
23
-31.6662846578
33
0
0
SOLID
5
B6
100
AcDbEntity
8
dim
6
CONTINUOUS
62
7
370
0
100
AcDbTrace
10
55.26
20
-31.25
30
0
11
52.76
21
-31.6662846578
31
0
12
52.76
22
-30.8337153422
32
0
13
52.76
23
-30.8337153422
33
0
0
MTEXT
5
B7
100
AcDbEntity
8
dim
6
CONTINUOUS
62
7
370
0
100
AcDbMText
10
34.74
20
-29.375
30
0
40
2.5
41
7.77777777778
71
5
72
1
1
41.04
7
standard
210
0
220
0
230
1
50
0
73
2
44
1
0
LINE
5
B8
100
AcDbEntity
8
dim
6
CONTINUOUS
62
7
370
0
100
AcDbLine
10
14.22
20
7.475
11
14.22
21
-32.5
0
LINE
5
B9
100
AcDbEntity
8
dim
6
CONTINUOUS
62
7
370
0
100
AcDbLine
10
55.26
20
7.475
11
55.26
21
-32.5
0
ENDBLK
5
59
330
57
100
AcDbEntity
8
0
100
AcDbBlockEnd
0
BLOCK
5
5B
330
5A
100
AcDbEntity
8
0
100
AcDbBlockBegin
2
*D1
70
1
10
0
20
0
3
*D1
1

0
LINE
5
BA
100
AcDbEntity
8
dim
6
CONTINUOUS
62
7
370
0
100
AcDbLine
10
-33
20
69.3
11
-33
21
4.68958205602e-15
0
SOLID
5
BB
100
AcDbEntity
8
dim
6
CONTINUOUS
62
7
370
0
100
AcDbTrace
10
-33
20
69.3
30
0
11
-32.5837153422
21
66.8
31
0
12
-33.4162846578
22
66.8
32
0
13
-33.4162846578
23
66.8
33
0
0
SOLID
5
BC
100
AcDbEntity
8
dim
6
CONTINUOUS
62
7
370
0
100
AcDbTrace
10
-33
20
4.68958205602e-15
30
0
11
-33.4162846578
21
2.5
31
0
12
-32.5837153422
22
2.5
32
0
13
-32.5837153422
23
2.5
33
0
0
MTEXT
5
BD
100
AcDbEntity
8
dim
6
CONTINUOUS
62
7
370
0
100
AcDbMText
10
-34.875
20
34.65
30
0
40
2.5
41
5.83333333333
71
5
72
1
1
69.3
7
standard
210
0
220
0
230
1
50
90
73
2
44
1
0
LINE
5
BE
100
AcDbEntity
8
dim
6
CONTINUOUS
62
7
370
0
100
AcDbLine
10
30.875
20
69.3
11
-34.25
21
69.3
0
LINE
5
BF
100
AcDbEntity
8
dim
6
CONTINUOUS
62
7
370
0
100
AcDbLine
10
32.375
20
7.65404249467e-17
11
-34.25
21
4.84266290591e-15
0
ENDBLK
5
5C
330
5A
100
AcDbEntity
8
0
100
AcDbBlockEnd
0
BLOCK
5
5E
330
5D
100
AcDbEntity
8
0
100
AcDbBlockBegin
2
*D6
70
1
10
0
20
0
3
*D6
1

0
LINE
5
C0
100
AcDbEntity
8
dim
6
CONTINUOUS
62
7
370
0
100
AcDbLine
10
-5
20
78.25
11
11.15
21
78.25
0
SOLID
5
C1
100
AcDbEntity
8
dim
6
CONTINUOUS
62
7
370
0
100
AcDbTrace
10
0
20
78.25
30
0
11
-2.5
21
77.8337153422
31
0
12
-2.5
22
78.6662846578
32
0
13
-2.5
23
78.6662846578
33
0
0
SOLID
5
C2
100
AcDbEntity
8
dim
6
CONTINUOUS
62
7
370
0
100
AcDbTrace
10
6.15
20
78.25
30
0
11
8.65
21
78.6662846578
31
0
12
8.65
22
77.8337153422
32
0
13
8.65
23
77.8337153422
33
0
0
MTEXT
5
C3
100
AcDbEntity
8
dim
6
CONTINUOUS
62
7
370
0
100
AcDbMText
10
3.075
20
80.125
30
0
40
2.5
41
5.27777777778
71
5
72
1
1
6.15
7
standard
210
0
220
0
230
1
50
0
73
2
44
1
0
LINE
5
C4
100
AcDbEntity
8
dim
6
CONTINUOUS
62
7
370
0
100
AcDbLine
10
3.82702124734e-17
20
66.925
11
7.65404249467e-17
21
79.5
0
LINE
5
C5
100
AcDbEntity
8
dim
6
CONTINUOUS
62
7
370
0
100
AcDbLine
10
6.15
20
65.525
11
6.15
21
79.5
0
ENDBLK
5
5F
330
5D
100
AcDbEntity
8
0
100
AcDbBlockEnd
0
BLOCK
5
61
330
60
100
AcDbEntity
8
0
100
AcDbBlockBegin
2
*D5
70
1
10
0
20
0
3
*D5
1

0
LINE
5
C6
100
AcDbEntity
8
dim
6
CONTINUOUS
62
7
370
0
100
AcDbLine
10
-5
20
-23.75
11
8.65
21
-23.75
0
SOLID
5
C7
100
AcDbEntity
8
dim
6
CONTINUOUS
62
7
370
0
100
AcDbTrace
10
0
20
-23.75
30
0
11
-2.5
21
-24.1662846578
31
0
12
-2.5
22
-23.3337153422
32
0
13
-2.5
23
-23.3337153422
33
0
0
SOLID
5
C8
100
AcDbEntity
8
dim
6
CONTINUOUS
62
7
370
0
100
AcDbTrace
10
3.65
20
-23.75
30
0
11
6.15
21
-23.3337153422
31
0
12
6.15
22
-24.1662846578
32
0
13
6.15
23
-24.1662846578
33
0
0
MTEXT
5
C9
100
AcDbEntity
8
dim
6
CONTINUOUS
62
7
370
0
100
AcDbMText
10
7.19166666667
20
-21.875
30
0
40
2.5
41
5.83333333333
71
5
72
1
1
3.65
7
standard
210
0
220
0
230
1
50
0
73
2
44
1
0
LINE
5
CA
100
AcDbEntity
8
dim
6
CONTINUOUS
62
7
370
0
100
AcDbLine
10
-1.1481063742e-16
20
15.625
11
-2.2962127484e-16
21
-25
0
LINE
5
CB
100
AcDbEntity
8
dim
6
CONTINUOUS
62
7
370
0
100
AcDbLine
10
3.65
20
2.775
11
3.65
21
-25
0
ENDBLK
5
62
330
60
100
AcDbEntity
8
0
100
AcDbBlockEnd
0
BLOCK
5
64
330
63
100
AcDbEntity
8
0
100
AcDbBlockBegin
2
*D11
70
1
10
0
20
0
3
*D11
1

0
LINE
5
CC
100
AcDbEntity
8
dim
6
CONTINUOUS
62
7
370
0
100
AcDbLine
10
-24.75
20
3.5527136788e-15
11
-24.75
21
8.1
0
SOLID
5
CD
100
AcDbEntity
8
dim
6
CONTINUOUS
62
7
370
0
100
AcDbTrace
10
-24.75
20
3.5527136788e-15
30
0
11
-25.1662846578
21
2.5
31
0
12
-24.3337153422
22
2.5
32
0
13
-24.3337153422
23
2.5
33
0
0
SOLID
5
CE
100
AcDbEntity
8
dim
6
CONTINUOUS
62
7
370
0
100
AcDbTrace
10
-24.75
20
8.1
30
0
11
-24.3337153422
21
5.6
31
0
12
-25.1662846578
22
5.6
32
0
13
-25.1662846578
23
5.6
33
0
0
MTEXT
5
CF
100
AcDbEntity
8
dim
6
CONTINUOUS
62
7
370
0
100
AcDbMText
10
-26.625
20
4.05
30
0
40
2.5
41
3.33333333333
71
5
72
1
1
8.1
7
standard
210
0
220
0
230
1
50
90
73
2
44
1
0
LINE
5
D0
100
AcDbEntity
8
dim
6
CONTINUOUS
62
7
370
0
100
AcDbLine
10
36.875
20
7.65404249467e-17
11
-26
21
3.70579452869e-15
0
LINE
5
D1
100
AcDbEntity
8
dim
6
CONTINUOUS
62
7
370
0
100
AcDbLine
10
36.375
20
8.1
11
-26
21
8.1
0
ENDBLK
5
65
330
63
100
AcDbEntity
8
0
100
AcDbBlockEnd
0
BLOCK
5
67
330
66
100
AcDbEntity
8
0
100
AcDbBlockBegin
2
*D23
70
1
10
0
20
0
3
*D23
1

0
LINE
5
D2
100
AcDbEntity
8
dim
6
CONTINUOUS
62
7
370
0
100
AcDbLine
10
0
20
59.75
11
86.12
21
59.75
0
SOLID
5
D3
100
AcDbEntity
8
dim
6
CONTINUOUS
62
7
370
0
100
AcDbTrace
10
0
20
59.75
30
0
11
2.5
21
60.1662846578
31
0
12
2.5
22
59.3337153422
32
0
13
2.5
23
59.3337153422
33
0
0
SOLID
5
D4
100
AcDbEntity
8
dim
6
CONTINUOUS
62
7
370
0
100
AcDbTrace
10
86.12
20
59.75
30
0
11
83.62
21
59.3337153422
31
0
12
83.62
22
60.1662846578
32
0
13
83.62
23
60.1662846578
33
0
0
MTEXT
5
D5
100
AcDbEntity
8
dim
6
CONTINUOUS
62
7
370
0
100
AcDbMText
10
43.06
20
61.625
30
0
40
2.5
41
7.22222222222
71
5
72
1
1
86.12
7
standard
210
0
220
0
230
1
50
0
73
2
44
1
0
LINE
5
D6
100
AcDbEntity
8
dim
6
CONTINUOUS
62
7
370
0
100
AcDbLine
10
3.82702124734e-17
20
50.625
11
7.65404249467e-17
21
61
0
LINE
5
D7
100
AcDbEntity
8
dim
6
CONTINUOUS
62
7
370
0
100
AcDbLine
10
86.12
20
46.375
11
86.12
21
61
0
ENDBLK
5
68
330
66
100
AcDbEntity
8
0
100
AcDbBlockEnd
0
BLOCK
5
6A
330
69
100
AcDbEntity
8
0
100
AcDbBlockBegin
2
*D26
70
1
10
0
20
0
3
*D26
1

0
LINE
5
D8
100
AcDbEntity
8
dim
6
CONTINUOUS
62
7
370
0
100
AcDbLine
10
130
20
-48
11
144
21
-48
0
SOLID
5
D9
100
AcDbEntity
8
dim
6
CONTINUOUS
62
7
370
0
100
AcDbTrace
10
130
20
-48
30
0
11
132.5
21
-47.5837153422
31
0
12
132.5
22
-48.4162846578
32
0
13
132.5
23
-48.4162846578
33
0
0
SOLID
5
DA
100
AcDbEntity
8
dim
6
CONTINUOUS
62
7
370
0
100
AcDbTrace
10
144
20
-48
30
0
11
141.5
21
-48.4162846578
31
0
12
141.5
22
-47.5837153422
32
0
13
141.5
23
-47.5837153422
33
0
0
MTEXT
5
DB
100
AcDbEntity
8
dim
6
CONTINUOUS
62
7
370
0
100
AcDbMText
10
137
20
-46.125
30
0
40
2.5
41
2.77777777778
71
5
72
1
1
14
7
standard
210
0
220
0
230
1
50
0
73
2
44
1
0
LINE
5
DC
100
AcDbEntity
8
dim
6
CONTINUOUS
62
7
370
0
100
AcDbLine
10
130
20
21.475
11
130
21
-49.25
0
LINE
5
DD
100
AcDbEntity
8
dim
6
CONTINUOUS
62
7
370
0
100
AcDbLine
10
144
20
21.475
11
144
21
-49.25
0
ENDBLK
5
6B
330
69
100
AcDbEntity
8
0
100
AcDbBlockEnd
0
BLOCK
5
6D
330
6C
100
AcDbEntity
8
0
100
AcDbBlockBegin
2
*D3
70
1
10
0
20
0
3
*D3
1

0
LINE
5
DE
100
AcDbEntity
8
dim
6
CONTINUOUS
62
7
370
0
100
AcDbLine
10
0.200283036551
20
67.7567233074
11
12.0997169634
21
62.0432766926
0
SOLID
5
DF
100
AcDbEntity
8
dim
6
CONTINUOUS
62
7
370
0
100
AcDbTrace
10
4.7076443725
20
65.5925389836
30
0
11
2.27378035841
21
66.2993620712
31
0
12
2.63414705064
22
67.0499002197
32
0
13
2.63414705064
23
67.0499002197
33
0
0
SOLID
5
E0
100
AcDbEntity
8
dim
6
CONTINUOUS
62
7
370
0
100
AcDbTrace
10
7.5923556275
20
64.2074610164
30
0
11
10.0262196416
21
63.5006379288
31
0
12
9.66585294936
22
62.7500997803
32
0
13
9.66585294936
23
62.7500997803
33
0
0
MTEXT
5
E1
100
AcDbEntity
8
dim
6
CONTINUOUS
62
7
370
0
100
AcDbMText
10
10.7202076577
20
64.7855712399
30
0
40
2.5
41
3.88888888889
71
5
72
1
1
3.2
7
standard
210
0
220
0
230
1
50
334.352270108
73
2
44
1
0
ENDBLK
5
6E
330
6C
100
AcDbEntity
8
0
100
AcDbBlockEnd
0
BLOCK
5
70
330
6F
100
AcDbEntity
8
0
100
AcDbBlockBegin
2
*D22
70
1
10
0
20
0
3
*D22
1

0
LINE
5
E2
100
AcDbEntity
8
dim
6
CONTINUOUS
62
7
370
0
100
AcDbLine
10
63.2
20
-39.75
11
128.1
21
-39.75
0
SOLID
5
E3
100
AcDbEntity
8
dim
6
CONTINUOUS
62
7
370
0
100
AcDbTrace
10
63.2
20
-39.75
30
0
11
65.7
21
-39.3337153422
31
0
12
65.7
22
-40.1662846578
32
0
13
65.7
23
-40.1662846578
33
0
0
SOLID
5
E4
100
AcDbEntity
8
dim
6
CONTINUOUS
62
7
370
0
100
AcDbTrace
10
128.1
20
-39.75
30
0
11
125.6
21
-40.1662846578
31
0
12
125.6
22
-39.3337153422
32
0
13
125.6
23
-39.3337153422
33
0
0
MTEXT
5
E5
100
AcDbEntity
8
dim
6
CONTINUOUS
62
7
370
0
100
AcDbMText
10
95.65
20
-37.875
30
0
40
2.5
41
6.11111111111
71
5
72
1
1
64.9
7
standard
210
0
220
0
230
1
50
0
73
2
44
1
0
LINE
5
E6
100
AcDbEntity
8
dim
6
CONTINUOUS
62
7
370
0
100
AcDbLine
10
63.2
20
7.475
11
63.2
21
-41
0
LINE
5
E7
100
AcDbEntity
8
dim
6
CONTINUOUS
62
7
370
0
100
AcDbLine
10
128.1
20
7.475
11
128.1
21
-41
0
ENDBLK
5
71
330
6F
100
AcDbEntity
8
0
100
AcDbBlockEnd
0
BLOCK
5
73
330
72
100
AcDbEntity
8
0
100
AcDbBlockBegin
2
*D8
70
1
10
0
20
0
3
*D8
1

0
LINE
5
E8
100
AcDbEntity
8
dim
6
CONTINUOUS
62
7
370
0
100
AcDbLine
10
150.65
20
-18.5
11
164.3
21
-18.5
0
SOLID
5
E9
100
AcDbEntity
8
dim
6
CONTINUOUS
62
7
370
0
100
AcDbTrace
10
155.65
20
-18.5
30
0
11
153.15
21
-18.9162846578
31
0
12
153.15
22
-18.0837153422
32
0
13
153.15
23
-18.0837153422
33
0
0
SOLID
5
EA
100
AcDbEntity
8
dim
6
CONTINUOUS
62
7
370
0
100
AcDbTrace
10
159.3
20
-18.5
30
0
11
161.8
21
-18.0837153422
31
0
12
161.8
22
-18.9162846578
32
0
13
161.8
23
-18.9162846578
33
0
0
MTEXT
5
EB
100
AcDbEntity
8
dim
6
CONTINUOUS
62
7
370
0
100
AcDbMText
10
162.841666667
20
-16.625
30
0
40
2.5
41
5.83333333333
71
5
72
1
1
3.65
7
standard
210
0
220
0
230
1
50
0
73
2
44
1
0
LINE
5
EC
100
AcDbEntity
8
dim
6
CONTINUOUS
62
7
370
0
100
AcDbLine
10
155.65
20
2.775
11
155.65
21
-19.75
0
LINE
5
ED
100
AcDbEntity
8
dim
6
CONTINUOUS
62
7
370
0
100
AcDbLine
10
159.3
20
2.37500196153
11
159.3
21
-19.75
0
ENDBLK
5
74
330
72
100
AcDbEntity
8
0
100
AcDbBlockEnd
0
BLOCK
5
76
330
75
100
AcDbEntity
8
0
100
AcDbBlockBegin
2
*D13
70
1
10
0
20
0
3
*D13
1

0
LINE
5
EE
100
AcDbEntity
8
dim
6
CONTINUOUS
62
7
370
0
100
AcDbLine
10
84.75
20
17.1
11
84.75
21
8.1
0
SOLID
5
EF
100
AcDbEntity
8
dim
6
CONTINUOUS
62
7
370
0
100
AcDbTrace
10
84.75
20
17.1
30
0
11
85.1662846578
21
14.6
31
0
12
84.3337153422
22
14.6
32
0
13
84.3337153422
23
14.6
33
0
0
SOLID
5
F0
100
AcDbEntity
8
dim
6
CONTINUOUS
62
7
370
0
100
AcDbTrace
10
84.75
20
8.1
30
0
11
84.3337153422
21
10.6
31
0
12
85.1662846578
22
10.6
32
0
13
85.1662846578
23
10.6
33
0
0
MTEXT
5
F1
100
AcDbEntity
8
dim
6
CONTINUOUS
62
7
370
0
100
AcDbMText
10
82.875
20
12.6
30
0
40
2.5
41
1.11111111111
71
5
72
1
1
9
7
standard
210
0
220
0
230
1
50
90
73
2
44
1
0
LINE
5
F2
100
AcDbEntity
8
dim
6
CONTINUOUS
62
7
370
0
100
AcDbLine
10
80.875
20
17.1
11
86
21
17.1
0
LINE
5
F3
100
AcDbEntity
8
dim
6
CONTINUOUS
62
7
370
0
100
AcDbLine
10
80.625
20
8.1
11
86
21
8.1
0
ENDBLK
5
77
330
75
100
AcDbEntity
8
0
100
AcDbBlockEnd
0
BLOCK
5
79
330
78
100
AcDbEntity
8
0
100
AcDbBlockBegin
2
*D15
70
1
10
0
20
0
3
*D15
1

0
LINE
5
F4
100
AcDbEntity
8
dim
6
CONTINUOUS
62
7
370
0
100
AcDbLine
10
-29
20
1.42108547152e-14
11
-29
21
35.07
0
SOLID
5
F5
100
AcDbEntity
8
dim
6
CONTINUOUS
62
7
370
0
100
AcDbTrace
10
-29
20
1.42108547152e-14
30
0
11
-29.4162846578
21
2.5
31
0
12
-28.5837153422
22
2.5
32
0
13
-28.5837153422
23
2.5
33
0
0
SOLID
5
F6
100
AcDbEntity
8
dim
6
CONTINUOUS
62
7
370
0
100
AcDbTrace
10
-29
20
35.07
30
0
11
-28.5837153422
21
32.57
31
0
12
-29.4162846578
22
32.57
32
0
13
-29.4162846578
23
32.57
33
0
0
MTEXT
5
F7
100
AcDbEntity
8
dim
6
CONTINUOUS
62
7
370
0
100
AcDbMText
10
-30.875
20
17.535
30
0
40
2.5
41
7.77777777778
71
5
72
1
1
35.07
7
standard
210
0
220
0
230
1
50
90
73
2
44
1
0
LINE
5
F8
100
AcDbEntity
8
dim
6
CONTINUOUS
62
7
370
0
100
AcDbLine
10
102.125
20
7.65404249467e-17
11
-30.25
21
1.43639355651e-14
0
LINE
5
F9
100
AcDbEntity
8
dim
6
CONTINUOUS
62
7
370
0
100
AcDbLine
10
106.875
20
35.07
11
-30.25
21
35.07
0
ENDBLK
5
7A
330
78
100
AcDbEntity
8
0
100
AcDbBlockEnd
0
BLOCK
5
7C
330
7B
100
AcDbEntity
8
0
100
AcDbBlockBegin
2
*D9
70
1
10
0
20
0
3
*D9
1

0
LINE
5
FA
100
AcDbEntity
8
dim
6
CONTINUOUS
62
7
370
0
100
AcDbLine
10
177
20
59.9
11
177
21
74.3
0
SOLID
5
FB
100
AcDbEntity
8
dim
6
CONTINUOUS
62
7
370
0
100
AcDbTrace
10
177
20
64.9
30
0
11
177.416284658
21
62.4
31
0
12
176.583715342
22
62.4
32
0
13
176.583715342
23
62.4
33
0
0
SOLID
5
FC
100
AcDbEntity
8
dim
6
CONTINUOUS
62
7
370
0
100
AcDbTrace
10
177
20
69.3
30
0
11
176.583715342
21
71.8
31
0
12
177.416284658
22
71.8
32
0
13
177.416284658
23
71.8
33
0
0
MTEXT
5
FD
100
AcDbEntity
8
dim
6
CONTINUOUS
62
7
370
0
100
AcDbMText
10
175.125
20
72.1472222222
30
0
40
2.5
41
4.44444444444
71
5
72
1
1
4.4
7
standard
210
0
220
0
230
1
50
90
73
2
44
1
0
LINE
5
FE
100
AcDbEntity
8
dim
6
CONTINUOUS
62
7
370
0
100
AcDbLine
10
153.775
20
64.9
11
178.25
21
64.9
0
LINE
5
FF
100
AcDbEntity
8
dim
6
CONTINUOUS
62
7
370
0
100
AcDbLine
10
149.875
20
69.3
11
178.25
21
69.3
0
ENDBLK
5
7D
330
7B
100
AcDbEntity
8
0
100
AcDbBlockEnd
0
BLOCK
5
7F
330
7E
100
AcDbEntity
8
0
100
AcDbBlockBegin
2
*D10
70
1
10
0
20
0
3
*D10
1

0
LINE
5
100
100
AcDbEntity
8
dim
6
CONTINUOUS
62
7
370
0
100
AcDbLine
10
177.75
20
8.4
11
177.75
21
-5
0
SOLID
5
101
100
AcDbEntity
8
dim
6
CONTINUOUS
62
7
370
0
100
AcDbTrace
10
177.75
20
3.4
30
0
11
177.333715342
21
5.9
31
0
12
178.166284658
22
5.9
32
0
13
178.166284658
23
5.9
33
0
0
SOLID
5
102
100
AcDbEntity
8
dim
6
CONTINUOUS
62
7
370
0
100
AcDbTrace
10
177.75
20
0
30
0
11
178.166284658
21
-2.5
31
0
12
177.333715342
22
-2.5
32
0
13
177.333715342
23
-2.5
33
0
0
MTEXT
5
103
100
AcDbEntity
8
dim
6
CONTINUOUS
62
7
370
0
100
AcDbMText
10
175.875
20
6.10833333333
30
0
40
2.5
41
4.16666666667
71
5
72
1
1
3.4
7
standard
210
0
220
0
230
1
50
90
73
2
44
1
0
LINE
5
104
100
AcDbEntity
8
dim
6
CONTINUOUS
62
7
370
0
100
AcDbLine
10
156.275
20
3.4
11
179
21
3.4
0
LINE
5
105
100
AcDbEntity
8
dim
6
CONTINUOUS
62
7
370
0
100
AcDbLine
10
156.924998093
20
0
11
179
21
0
0
ENDBLK
5
80
330
7E
100
AcDbEntity
8
0
100
AcDbBlockEnd
0
BLOCK
5
82
330
81
100
AcDbEntity
8
0
100
AcDbBlockBegin
2
*D12
70
1
10
0
20
0
3
*D12
1

0
LINE
5
106
100
AcDbEntity
8
dim
6
CONTINUOUS
62
7
370
0
100
AcDbLine
10
-24.75
20
8.1
11
-24.75
21
20.1
0
SOLID
5
107
100
AcDbEntity
8
dim
6
CONTINUOUS
62
7
370
0
100
AcDbTrace
10
-24.75
20
8.1
30
0
11
-25.1662846578
21
10.6
31
0
12
-24.3337153422
22
10.6
32
0
13
-24.3337153422
23
10.6
33
0
0
SOLID
5
108
100
AcDbEntity
8
dim
6
CONTINUOUS
62
7
370
0
100
AcDbTrace
10
-24.75
20
20.1
30
0
11
-24.3337153422
21
17.6
31
0
12
-25.1662846578
22
17.6
32
0
13
-25.1662846578
23
17.6
33
0
0
MTEXT
5
109
100
AcDbEntity
8
dim
6
CONTINUOUS
62
7
370
0
100
AcDbMText
10
-26.625
20
14.1
30
0
40
2.5
41
2.5
71
5
72
1
1
12
7
standard
210
0
220
0
230
1
50
90
73
2
44
1
0
LINE
5
10A
100
AcDbEntity
8
dim
6
CONTINUOUS
62
7
370
0
100
AcDbLine
10
20.625
20
8.1
11
-26
21
8.1
0
LINE
5
10B
100
AcDbEntity
8
dim
6
CONTINUOUS
62
7
370
0
100
AcDbLine
10
21.125
20
20.1
11
-26
21
20.1
0
ENDBLK
5
83
330
81
100
AcDbEntity
8
0
100
AcDbBlockEnd
0
BLOCK
5
85
330
84
100
AcDbEntity
8
0
100
AcDbBlockBegin
2
*D7
70
1
10
0
20
0
3
*D7
1

0
LINE
5
10C
100
AcDbEntity
8
dim
6
CONTINUOUS
62
7
370
0
100
AcDbLine
10
148.15
20
78
11
164.3
21
78
0
SOLID
5
10D
100
AcDbEntity
8
dim
6
CONTINUOUS
62
7
370
0
100
AcDbTrace
10
153.15
20
78
30
0
11
150.65
21
77.5837153422
31
0
12
150.65
22
78.4162846578
32
0
13
150.65
23
78.4162846578
33
0
0
SOLID
5
10E
100
AcDbEntity
8
dim
6
CONTINUOUS
62
7
370
0
100
AcDbTrace
10
159.3
20
78
30
0
11
161.8
21
78.4162846578
31
0
12
161.8
22
77.5837153422
32
0
13
161.8
23
77.5837153422
33
0
0
MTEXT
5
10F
100
AcDbEntity
8
dim
6
CONTINUOUS
62
7
370
0
100
AcDbMText
10
156.225
20
79.875
30
0
40
2.5
41
5.27777777778
71
5
72
1
1
6.15
7
standard
210
0
220
0
230
1
50
0
73
2
44
1
0
LINE
5
110
100
AcDbEntity
8
dim
6
CONTINUOUS
62
7
370
0
100
AcDbLine
10
153.15
20
65.525
11
153.15
21
79.25
0
LINE
5
111
100
AcDbEntity
8
dim
6
CONTINUOUS
62
7
370
0
100
AcDbLine
10
159.3
20
66.9249990463
11
159.3
21
79.25
0
ENDBLK
5
86
330
84
100
AcDbEntity
8
0
100
AcDbBlockEnd
0
BLOCK
5
88
330
87
100
AcDbEntity
8
0
100
AcDbBlockBegin
2
*D24
70
1
10
0
20
0
3
*D24
1

0
LINE
5
112
100
AcDbEntity
8
dim
6
CONTINUOUS
62
7
370
0
100
AcDbLine
10
86.12
20
59.75
11
142.12
21
59.75
0
SOLID
5
113
100
AcDbEntity
8
dim
6
CONTINUOUS
62
7
370
0
100
AcDbTrace
10
86.12
20
59.75
30
0
11
88.62
21
60.1662846578
31
0
12
88.62
22
59.3337153422
32
0
13
88.62
23
59.3337153422
33
0
0
SOLID
5
114
100
AcDbEntity
8
dim
6
CONTINUOUS
62
7
370
0
100
AcDbTrace
10
142.12
20
59.75
30
0
11
139.62
21
59.3337153422
31
0
12
139.62
22
60.1662846578
32
0
13
139.62
23
60.1662846578
33
0
0
MTEXT
5
115
100
AcDbEntity
8
dim
6
CONTINUOUS
62
7
370
0
100
AcDbMText
10
114.12
20
61.625
30
0
40
2.5
41
3.05555555556
71
5
72
1
1
56
7
standard
210
0
220
0
230
1
50
0
73
2
44
1
0
LINE
5
116
100
AcDbEntity
8
dim
6
CONTINUOUS
62
7
370
0
100
AcDbLine
10
86.12
20
45.125
11
86.12
21
61
0
LINE
5
117
100
AcDbEntity
8
dim
6
CONTINUOUS
62
7
370
0
100
AcDbLine
10
142.12
20
44.625
11
142.12
21
61
0
ENDBLK
5
89
330
87
100
AcDbEntity
8
0
100
AcDbBlockEnd
0
BLOCK
5
8B
330
8A
100
AcDbEntity
8
0
100
AcDbBlockBegin
2
*D17
70
1
10
0
20
0
3
*D17
1

0
LINE
5
118
100
AcDbEntity
8
dim
6
CONTINUOUS
62
7
370
0
100
AcDbLine
10
0
20
29
11
11.22
21
29
0
SOLID
5
119
100
AcDbEntity
8
dim
6
CONTINUOUS
62
7
370
0
100
AcDbTrace
10
0
20
29
30
0
11
2.5
21
29.4162846578
31
0
12
2.5
22
28.5837153422
32
0
13
2.5
23
28.5837153422
33
0
0
SOLID
5
11A
100
AcDbEntity
8
dim
6
CONTINUOUS
62
7
370
0
100
AcDbTrace
10
11.22
20
29
30
0
11
8.72
21
28.5837153422
31
0
12
8.72
22
29.4162846578
32
0
13
8.72
23
29.4162846578
33
0
0
MTEXT
5
11B
100
AcDbEntity
8
dim
6
CONTINUOUS
62
7
370
0
100
AcDbMText
10
5.61
20
30.875
30
0
40
2.5
41
6.66666666667
71
5
72
1
1
11.22
7
standard
210
0
220
0
230
1
50
0
73
2
44
1
0
LINE
5
11C
100
AcDbEntity
8
dim
6
CONTINUOUS
62
7
370
0
100
AcDbLine
10
3.82702124734e-17
20
18.875
11
7.65404249467e-17
21
30.25
0
LINE
5
11D
100
AcDbEntity
8
dim
6
CONTINUOUS
62
7
370
0
100
AcDbLine
10
11.22
20
15
11
11.22
21
30.25
0
ENDBLK
5
8C
330
8A
100
AcDbEntity
8
0
100
AcDbBlockEnd
0
BLOCK
5
8E
330
8D
100
AcDbEntity
8
0
100
AcDbBlockBegin
2
*D18
70
1
10
0
20
0
3
*D18
1

0
LINE
5
11E
100
AcDbEntity
8
dim
6
CONTINUOUS
62
7
370
0
100
AcDbLine
10
0
20
-31.5
11
14.22
21
-31.5
0
SOLID
5
11F
100
AcDbEntity
8
dim
6
CONTINUOUS
62
7
370
0
100
AcDbTrace
10
0
20
-31.5
30
0
11
2.5
21
-31.0837153422
31
0
12
2.5
22
-31.9162846578
32
0
13
2.5
23
-31.9162846578
33
0
0
SOLID
5
120
100
AcDbEntity
8
dim
6
CONTINUOUS
62
7
370
0
100
AcDbTrace
10
14.22
20
-31.5
30
0
11
11.72
21
-31.9162846578
31
0
12
11.72
22
-31.0837153422
32
0
13
11.72
23
-31.0837153422
33
0
0
MTEXT
5
121
100
AcDbEntity
8
dim
6
CONTINUOUS
62
7
370
0
100
AcDbMText
10
7.11
20
-29.625
30
0
40
2.5
41
7.5
71
5
72
1
1
14.22
7
standard
210
0
220
0
230
1
50
0
73
2
44
1
0
LINE
5
122
100
AcDbEntity
8
dim
6
CONTINUOUS
62
7
370
0
100
AcDbLine
10
-1.1481063742e-16
20
14.125
11
-2.2962127484e-16
21
-32.75
0
LINE
5
123
100
AcDbEntity
8
dim
6
CONTINUOUS
62
7
370
0
100
AcDbLine
10
14.22
20
7.475
11
14.22
21
-32.75
0
ENDBLK
5
8F
330
8D
100
AcDbEntity
8
0
100
AcDbBlockEnd
0
BLOCK
5
91
330
90
100
AcDbEntity
8
0
100
AcDbBlockBegin
2
*D25
70
1
10
0
20
0
3
*D25
1

0
LINE
5
124
100
AcDbEntity
8
dim
6
CONTINUOUS
62
7
370
0
100
AcDbLine
10
0
20
-47.75
11
130
21
-47.75
0
SOLID
5
125
100
AcDbEntity
8
dim
6
CONTINUOUS
62
7
370
0
100
AcDbTrace
10
0
20
-47.75
30
0
11
2.5
21
-47.3337153422
31
0
12
2.5
22
-48.1662846578
32
0
13
2.5
23
-48.1662846578
33
0
0
SOLID
5
126
100
AcDbEntity
8
dim
6
CONTINUOUS
62
7
370
0
100
AcDbTrace
10
130
20
-47.75
30
0
11
127.5
21
-48.1662846578
31
0
12
127.5
22
-47.3337153422
32
0
13
127.5
23
-47.3337153422
33
0
0
MTEXT
5
127
100
AcDbEntity
8
dim
6
CONTINUOUS
62
7
370
0
100
AcDbMText
10
65
20
-45.875
30
0
40
2.5
41
4.44444444444
71
5
72
1
1
130
7
standard
210
0
220
0
230
1
50
0
73
2
44
1
0
LINE
5
128
100
AcDbEntity
8
dim
6
CONTINUOUS
62
7
370
0
100
AcDbLine
10
-1.1481063742e-16
20
16.125
11
-2.2962127484e-16
21
-49
0
LINE
5
129
100
AcDbEntity
8
dim
6
CONTINUOUS
62
7
370
0
100
AcDbLine
10
130
20
21.475
11
130
21
-49
0
ENDBLK
5
92
330
90
100
AcDbEntity
8
0
100
AcDbBlockEnd
0
BLOCK
5
94
330
93
100
AcDbEntity
8
0
100
AcDbBlockBegin
2
*D4
70
1
10
0
20
0
3
*D4
1

0
LINE
5
12A
100
AcDbEntity
8
dim
6
CONTINUOUS
62
7
370
0
100
AcDbLine
10
55.6154416415
20
8.32799155875
11
60.9045583585
21
20.4220084412
0
SOLID
5
12B
100
AcDbEntity
8
dim
6
CONTINUOUS
62
7
370
0
100
AcDbTrace
10
57.6188949434
20
12.9090585597
30
0
11
56.9985738742
21
10.4517236848
31
0
12
56.2357627107
22
10.7853264337
32
0
13
56.2357627107
23
10.7853264337
33
0
0
SOLID
5
12C
100
AcDbEntity
8
dim
6
CONTINUOUS
62
7
370
0
100
AcDbTrace
10
58.9011050566
20
15.8409414403
30
0
11
59.5214261258
21
18.2982763152
31
0
12
60.2842372893
22
17.9646735663
32
0
13
60.2842372893
23
17.9646735663
33
0
0
MTEXT
5
12D
100
AcDbEntity
8
dim
6
CONTINUOUS
62
7
370
0
100
AcDbMText
10
58.2127573224
20
18.9463958595
30
0
40
2.5
41
3.88888888889
71
5
72
1
1
3.2
7
standard
210
0
220
0
230
1
50
66.3786379058
73
2
44
1
0
ENDBLK
5
95
330
93
100
AcDbEntity
8
0
100
AcDbBlockEnd
0
BLOCK
5
97
330
96
100
AcDbEntity
8
0
100
AcDbBlockBegin
2
*D14
70
1
10
0
20
0
3
*D14
1

0
LINE
5
12E
100
AcDbEntity
8
dim
6
CONTINUOUS
62
7
370
0
100
AcDbLine
10
136
20
22.1
11
136
21
8.1
0
SOLID
5
12F
100
AcDbEntity
8
dim
6
CONTINUOUS
62
7
370
0
100
AcDbTrace
10
136
20
22.1
30
0
11
136.416284658
21
19.6
31
0
12
135.583715342
22
19.6
32
0
13
135.583715342
23
19.6
33
0
0
SOLID
5
130
100
AcDbEntity
8
dim
6
CONTINUOUS
62
7
370
0
100
AcDbTrace
10
136
20
8.1
30
0
11
135.583715342
21
10.6
31
0
12
136.416284658
22
10.6
32
0
13
136.416284658
23
10.6
33
0
0
MTEXT
5
131
100
AcDbEntity
8
dim
6
CONTINUOUS
62
7
370
0
100
AcDbMText
10
134.125
20
15.1
30
0
40
2.5
41
2.77777777778
71
5
72
1
1
14
7
standard
210
0
220
0
230
1
50
90
73
2
44
1
0
LINE
5
132
100
AcDbEntity
8
dim
6
CONTINUOUS
62
7
370
0
100
AcDbLine
10
137.875
20
22.1
11
134.75
21
22.1
0
LINE
5
133
100
AcDbEntity
8
dim
6
CONTINUOUS
62
7
370
0
100
AcDbLine
10
137.875
20
8.1
11
134.75
21
8.1
0
ENDBLK
5
98
330
96
100
AcDbEntity
8
0
100
AcDbBlockEnd
0
ENDSEC
0
SECTION
2
ENTITIES
0
ARC
5
134
100
AcDbEntity
8
0
6
ByLayer
62
256
370
-1
100
AcDbCircle
10
0
20
0
40
0
100
AcDbArc
50
0
51
0
0
ARC
5
135
100
AcDbEntity
8
0
6
ByLayer
62
256
370
-1
100
AcDbCircle
10
3
20
3
40
3
100
AcDbArc
50
180
51
270
0
ARC
5
136
100
AcDbEntity
8
0
6
ByLayer
62
256
370
-1
100
AcDbCircle
10
0
20
0
40
0
100
AcDbArc
50
0
51
0
0
ARC
5
137
100
AcDbEntity
8
0
6
ByLayer
62
256
370
-1
100
AcDbCircle
10
3
20
66.3
40
3
100
AcDbArc
50
90
51
180
0
LINE
5
138
100
AcDbEntity
8
0
6
ByLayer
62
256
370
-1
100
AcDbLine
10
-0
20
66.3
11
-0
21
3
0
ARC
5
139
100
AcDbEntity
8
0
6
ByLayer
62
256
370
-1
100
AcDbCircle
10
156.3
20
66.3
40
3
100
AcDbArc
50
0
51
90
0
ARC
5
13A
100
AcDbEntity
8
0
6
ByLayer
62
256
370
-1
100
AcDbCircle
10
156.3
20
3
40
3
100
AcDbArc
50
270
51
0
0
LINE
5
13B
100
AcDbEntity
8
0
6
ByLayer
62
256
370
-1
100
AcDbLine
10
3
20
0
11
156.299998093
21
0
0
LINE
5
13C
100
AcDbEntity
8
0
6
ByLayer
62
256
370
-1
100
AcDbLine
10
159.3
20
3.00000196153
11
159.3
21
66.2999990463
0
LINE
5
13D
100
AcDbEntity
8
0
6
ByLayer
62
256
370
-1
100
AcDbLine
10
156.299998093
20
69.3
11
3.0000006664
21
69.3
0
CIRCLE
5
13E
100
AcDbEntity
8
0
6
ByLayer
62
256
370
-1
100
AcDbCircle
10
6.15
20
64.9
40
1.6
0
CIRCLE
5
13F
100
AcDbEntity
8
0
6
ByLayer
62
256
370
-1
100
AcDbCircle
10
153.15
20
64.9
40
1.6
0
CIRCLE
5
140
100
AcDbEntity
8
0
6
ByLayer
62
256
370
-1
100
AcDbCircle
10
3.65
20
3.4
40
1.6
0
CIRCLE
5
141
100
AcDbEntity
8
0
6
ByLayer
62
256
370
-1
100
AcDbCircle
10
155.65
20
3.4
40
1.6
0
CIRCLE
5
142
100
AcDbEntity
8
0
6
ByLayer
62
256
370
-1
100
AcDbCircle
10
11.22
20
14.375
40
1.6
0
CIRCLE
5
143
100
AcDbEntity
8
0
6
ByLayer
62
256
370
-1
100
AcDbCircle
10
58.26
20
14.375
40
1.6
0
LINE
5
144
100
AcDbEntity
8
0
6
ByLayer
62
256
370
-1
100
AcDbLine
10
14.22
20
8.1
11
55.26
21
8.1
0
LINE
5
145
100
AcDbEntity
8
0
6
ByLayer
62
256
370
-1
100
AcDbLine
10
55.26
20
8.1
11
55.26
21
20.1
0
LINE
5
146
100
AcDbEntity
8
0
6
ByLayer
62
256
370
-1
100
AcDbLine
10
55.26
20
20.1
11
14.22
21
20.1
0
LINE
5
147
100
AcDbEntity
8
0
6
ByLayer
62
256
370
-1
100
AcDbLine
10
14.22
20
20.1
11
14.22
21
8.1
0
LINE
5
148
100
AcDbEntity
8
0
6
ByLayer
62
256
370
-1
100
AcDbLine
10
63.2
20
8.1
11
128.1
21
8.1
0
LINE
5
149
100
AcDbEntity
8
0
6
ByLayer
62
256
370
-1
100
AcDbLine
10
128.1
20
8.1
11
128.1
21
17.1
0
LINE
5
14A
100
AcDbEntity
8
0
6
ByLayer
62
256
370
-1
100
AcDbLine
10
128.1
20
17.1
11
63.2
21
17.1
0
LINE
5
14B
100
AcDbEntity
8
0
6
ByLayer
62
256
370
-1
100
AcDbLine
10
63.2
20
17.1
11
63.2
21
8.1
0
LINE
5
14C
100
AcDbEntity
8
0
6
ByLayer
62
256
370
-1
100
AcDbLine
10
130
20
8.1
11
144
21
8.1
0
LINE
5
14D
100
AcDbEntity
8
0
6
ByLayer
62
256
370
-1
100
AcDbLine
10
144
20
8.1
11
144
21
22.1
0
LINE
5
14E
100
AcDbEntity
8
0
6
ByLayer
62
256
370
-1
100
AcDbLine
10
144
20
22.1
11
130
21
22.1
0
LINE
5
14F
100
AcDbEntity
8
0
6
ByLayer
62
256
370
-1
100
AcDbLine
10
130
20
22.1
11
130
21
8.1
0
LINE
5
150
100
AcDbEntity
8
0
6
ByLayer
62
256
370
-1
100
AcDbLine
10
86.12
20
35.07
11
142.12
21
35.07
0
LINE
5
151
100
AcDbEntity
8
0
6
ByLayer
62
256
370
-1
100
AcDbLine
10
142.12
20
35.07
11
142.12
21
52.07
0
LINE
5
152
100
AcDbEntity
8
0
6
ByLayer
62
256
370
-1
100
AcDbLine
10
142.12
20
52.07
11
86.12
21
52.07
0
LINE
5
153
100
AcDbEntity
8
0
6
ByLayer
62
256
370
-1
100
AcDbLine
10
86.12
20
52.07
11
86.12
21
35.07
0
DIMENSION
5
154
100
AcDbEntity
8
dim
6
ByLayer
62
256
370
-1
100
AcDbDimension
2
*D1
10
-33
20
8.08266887437e-15
30
0
11
-34.875
21
34.65
31
0
70
32
71
5
72
0
3
Standard
53
0
210
0
220
0
230
1
100
AcDbAlignedDimension
13
31.5
23
69.3
33
0
14
33
24
0
34
0
50
90
100
AcDbRotatedDimension
0
DIMENSION
5
155
100
AcDbEntity
8
dim
6
ByLayer
62
256
370
-1
100
AcDbDimension
2
*D2
10
159.3
20
88
30
0
11
79.65
21
89.875
31
0
70
32
71
5
72
0
3
Standard
53
0
210
0
220
0
230
1
100
AcDbAlignedDimension
13
0
23
53.25
33
0
14
159.3
24
51.5
34
0
100
AcDbRotatedDimension
0
DIMENSION
5
156
100
AcDbEntity
8
dim
6
ByLayer
62
256
370
-1
100
AcDbDimension
2
*D3
10
4.7076443725
20
65.5925389836
30
0
11
6.96156912141
21
66.590260501
31
0
70
35
71
5
72
0
3
Standard
53
0
210
0
220
0
230
1
100
AcDbDiametricDimension
15
7.5923556275
25
64.2074610164
35
0
40
0
0
DIMENSION
5
157
100
AcDbEntity
8
dim
6
ByLayer
62
256
370
-1
100
AcDbDimension
2
*D4
10
57.6188949434
20
12.9090585597
30
0
11
56.5420998746
21
15.1262949882
31
0
70
35
71
5
72
0
3
Standard
53
0
210
0
220
0
230
1
100
AcDbDiametricDimension
15
58.9011050566
25
15.8409414403
35
0
40
0
0
DIMENSION
5
158
100
AcDbEntity
8
dim
6
ByLayer
62
256
370
-1
100
AcDbDimension
2
*D5
10
3.65
20
-23.75
30
0
11
1.825
21
-21.875
31
0
70
32
71
5
72
0
3
Standard
53
0
210
0
220
0
230
1
100
AcDbAlignedDimension
13
0
23
16.25
33
0
14
3.65
24
3.4
34
0
100
AcDbRotatedDimension
0
DIMENSION
5
159
100
AcDbEntity
8
dim
6
ByLayer
62
256
370
-1
100
AcDbDimension
2
*D6
10
6.15
20
78.25
30
0
11
3.075
21
80.125
31
0
70
32
71
5
72
0
3
Standard
53
0
210
0
220
0
230
1
100
AcDbAlignedDimension
13
0
23
66.3
33
0
14
6.15
24
64.9
34
0
100
AcDbRotatedDimension
0
DIMENSION
5
15A
100
AcDbEntity
8
dim
6
ByLayer
62
256
370
-1
100
AcDbDimension
2
*D7
10
159.3
20
78
30
0
11
156.225
21
79.875
31
0
70
32
71
5
72
0
3
Standard
53
0
210
0
220
0
230
1
100
AcDbAlignedDimension
13
153.15
23
64.9
33
0
14
159.3
24
66.2999990463
34
0
100
AcDbRotatedDimension
0
DIMENSION
5
15B
100
AcDbEntity
8
dim
6
ByLayer
62
256
370
-1
100
AcDbDimension
2
*D8
10
159.3
20
-18.5
30
0
11
157.475
21
-16.625
31
0
70
32
71
5
72
0
3
Standard
53
0
210
0
220
0
230
1
100
AcDbAlignedDimension
13
155.65
23
3.4
33
0
14
159.3
24
3.00000196153
34
0
100
AcDbRotatedDimension
0
DIMENSION
5
15C
100
AcDbEntity
8
dim
6
ByLayer
62
256
370
-1
100
AcDbDimension
2
*D9
10
177
20
69.3
30
0
11
175.125
21
67.1
31
0
70
32
71
5
72
0
3
Standard
53
0
210
0
220
0
230
1
100
AcDbAlignedDimension
13
153.15
23
64.9
33
0
14
149.25
24
69.3
34
0
50
90
100
AcDbRotatedDimension
0
DIMENSION
5
15D
100
AcDbEntity
8
dim
6
ByLayer
62
256
370
-1
100
AcDbDimension
2
*D10
10
177.75
20
-2.62686761771e-15
30
0
11
175.875
21
1.7
31
0
70
32
71
5
72
0
3
Standard
53
0
210
0
220
0
230
1
100
AcDbAlignedDimension
13
155.65
23
3.4
33
0
14
156.299998093
24
0
34
0
50
90
100
AcDbRotatedDimension
0
DIMENSION
5
15E
100
AcDbEntity
8
dim
6
ByLayer
62
256
370
-1
100
AcDbDimension
2
*D11
10
-24.75
20
8.1
30
0
11
-26.625
21
4.05
31
0
70
32
71
5
72
0
3
Standard
53
0
210
0
220
0
230
1
100
AcDbAlignedDimension
13
37.5
23
0
33
0
14
37
24
8.1
34
0
50
90
100
AcDbRotatedDimension
0
DIMENSION
5
15F
100
AcDbEntity
8
dim
6
ByLayer
62
256
370
-1
100
AcDbDimension
2
*D12
10
-24.75
20
20.1
30
0
11
-26.625
21
14.1
31
0
70
32
71
5
72
0
3
Standard
53
0
210
0
220
0
230
1
100
AcDbAlignedDimension
13
21.25
23
8.1
33
0
14
21.75
24
20.1
34
0
50
90
100
AcDbRotatedDimension
0
DIMENSION
5
160
100
AcDbEntity
8
dim
6
ByLayer
62
256
370
-1
100
AcDbDimension
2
*D13
10
84.75
20
8.1
30
0
11
82.875
21
12.6
31
0
70
32
71
5
72
0
3
Standard
53
0
210
0
220
0
230
1
100
AcDbAlignedDimension
13
80.25
23
17.1
33
0
14
80
24
8.1
34
0
50
90
100
AcDbRotatedDimension
0
DIMENSION
5
161
100
AcDbEntity
8
dim
6
ByLayer
62
256
370
-1
100
AcDbDimension
2
*D14
10
136
20
8.1
30
0
11
134.125
21
15.1
31
0
70
32
71
5
72
0
3
Standard
53
0
210
0
220
0
230
1
100
AcDbAlignedDimension
13
138.5
23
22.1
33
0
14
138.5
24
8.1
34
0
50
90
100
AcDbRotatedDimension
0
DIMENSION
5
162
100
AcDbEntity
8
dim
6
ByLayer
62
256
370
-1
100
AcDbDimension
2
*D15
10
-29
20
35.07
30
0
11
-30.875
21
17.535
31
0
70
32
71
5
72
0
3
Standard
53
0
210
0
220
0
230
1
100
AcDbAlignedDimension
13
102.75
23
0
33
0
14
107.5
24
35.07
34
0
50
90
100
AcDbRotatedDimension
0
DIMENSION
5
163
100
AcDbEntity
8
dim
6
ByLayer
62
256
370
-1
100
AcDbDimension
2
*D16
10
60
20
35.07
30
0
11
58.125
21
43.57
31
0
70
32
71
5
72
0
3
Standard
53
0
210
0
220
0
230
1
100
AcDbAlignedDimension
13
116.5
23
52.07
33
0
14
117
24
35.07
34
0
50
90
100
AcDbRotatedDimension
0
DIMENSION
5
164
100
AcDbEntity
8
dim
6
ByLayer
62
256
370
-1
100
AcDbDimension
2
*D17
10
11.22
20
29
30
0
11
5.61
21
30.875
31
0
70
32
71
5
72
0
3
Standard
53
0
210
0
220
0
230
1
100
AcDbAlignedDimension
13
0
23
18.25
33
0
14
11.22
24
14.375
34
0
100
AcDbRotatedDimension
0
DIMENSION
5
165
100
AcDbEntity
8
dim
6
ByLayer
62
256
370
-1
100
AcDbDimension
2
*D18
10
14.22
20
-31.5
30
0
11
7.11
21
-29.625
31
0
70
32
71
5
72
0
3
Standard
53
0
210
0
220
0
230
1
100
AcDbAlignedDimension
13
0
23
14.75
33
0
14
14.22
24
8.1
34
0
100
AcDbRotatedDimension
0
DIMENSION
5
166
100
AcDbEntity
8
dim
6
ByLayer
62
256
370
-1
100
AcDbDimension
2
*D19
10
55.26
20
-31.25
30
0
11
34.74
21
-29.375
31
0
70
32
71
5
72
0
3
Standard
53
0
210
0
220
0
230
1
100
AcDbAlignedDimension
13
14.22
23
8.1
33
0
14
55.26
24
8.1
34
0
100
AcDbRotatedDimension
0
DIMENSION
5
167
100
AcDbEntity
8
dim
6
ByLayer
62
256
370
-1
100
AcDbDimension
2
*D20
10
58.26
20
29
30
0
11
34.74
21
30.875
31
0
70
32
71
5
72
0
3
Standard
53
0
210
0
220
0
230
1
100
AcDbAlignedDimension
13
11.22
23
14.375
33
0
14
58.26
24
14.375
34
0
100
AcDbRotatedDimension
0
DIMENSION
5
168
100
AcDbEntity
8
dim
6
ByLayer
62
256
370
-1
100
AcDbDimension
2
*D21
10
63.2
20
-39
30
0
11
31.6
21
-37.125
31
0
70
32
71
5
72
0
3
Standard
53
0
210
0
220
0
230
1
100
AcDbAlignedDimension
13
0
23
12
33
0
14
63.2
24
8.1
34
0
100
AcDbRotatedDimension
0
DIMENSION
5
169
100
AcDbEntity
8
dim
6
ByLayer
62
256
370
-1
100
AcDbDimension
2
*D22
10
128.1
20
-39.75
30
0
11
95.65
21
-37.875
31
0
70
32
71
5
72
0
3
Standard
53
0
210
0
220
0
230
1
100
AcDbAlignedDimension
13
63.2
23
8.1
33
0
14
128.1
24
8.1
34
0
100
AcDbRotatedDimension
0
DIMENSION
5
16A
100
AcDbEntity
8
dim
6
ByLayer
62
256
370
-1
100
AcDbDimension
2
*D23
10
86.12
20
59.75
30
0
11
43.06
21
61.625
31
0
70
32
71
5
72
0
3
Standard
53
0
210
0
220
0
230
1
100
AcDbAlignedDimension
13
0
23
50
33
0
14
86.12
24
45.75
34
0
100
AcDbRotatedDimension
0
DIMENSION
5
16B
100
AcDbEntity
8
dim
6
ByLayer
62
256
370
-1
100
AcDbDimension
2
*D24
10
142.12
20
59.75
30
0
11
114.12
21
61.625
31
0
70
32
71
5
72
0
3
Standard
53
0
210
0
220
0
230
1
100
AcDbAlignedDimension
13
86.12
23
44.5
33
0
14
142.12
24
44
34
0
100
AcDbRotatedDimension
0
DIMENSION
5
16C
100
AcDbEntity
8
dim
6
ByLayer
62
256
370
-1
100
AcDbDimension
2
*D25
10
130
20
-47.75
30
0
11
65
21
-45.875
31
0
70
32
71
5
72
0
3
Standard
53
0
210
0
220
0
230
1
100
AcDbAlignedDimension
13
0
23
16.75
33
0
14
130
24
22.1
34
0
100
AcDbRotatedDimension
0
DIMENSION
5
16D
100
AcDbEntity
8
dim
6
ByLayer
62
256
370
-1
100
AcDbDimension
2
*D26
10
144
20
-48
30
0
11
137
21
-46.125
31
0
70
32
71
5
72
0
3
Standard
53
0
210
0
220
0
230
1
100
AcDbAlignedDimension
13
130
23
22.1
33
0
14
144
24
22.1
34
0
100
AcDbRotatedDimension
0
DIMENSION
5
16E
100
AcDbEntity
8
dim
6
ByLayer
62
256
370
-1
100
AcDbDimension
2
*D27
10
156.3
20
66.3
30
0
11
153.385751847
21
60.6703875985
31
0
70
36
71
5
72
0
3
Standard
53
0
210
0
220
0
230
1
100
AcDbRadialDimension
15
155.770563523
25
63.34708669
35
0
40
0
0
TEXT
5
16F
100
AcDbEntity
8
stensil
6
ByLayer
62
256
370
-1
100
AcDbText
10
28.75
20
25.75
30
0
40
5
1
I/O
50
0
41
1
51
0
7
standard
71
0
210
0
220
0
230
1
100
AcDbText
0
TEXT
5
170
100
AcDbEntity
8
stensil
6
ByLayer
62
256
370
-1
100
AcDbText
10
68.2
20
22
30
0
40
5
1
X
50
0
41
1
51
0
7
standard
71
0
210
0
220
0
230
1
100
AcDbText
0
TEXT
5
171
100
AcDbEntity
8
stensil
6
ByLayer
62
256
370
-1
100
AcDbText
10
78.2
20
22
30
0
40
5
1
Y
50
0
41
1
51
0
7
standard
71
0
210
0
220
0
230
1
100
AcDbText
0
TEXT
5
172
100
AcDbEntity
8
stensil
6
ByLayer
62
256
370
-1
100
AcDbText
10
88.2
20
22
30
0
40
5
1
Z
50
0
41
1
51
0
7
standard
71
0
210
0
220
0
230
1
100
AcDbText
0
TEXT
5
173
100
AcDbEntity
8
stensil
6
ByLayer
62
256
370
-1
100
AcDbText
10
98.2
20
22
30
0
40
5
1
A
50
0
41
1
51
0
7
standard
71
0
210
0
220
0
230
1
100
AcDbText
0
TEXT
5
174
100
AcDbEntity
8
stensil
6
ByLayer
62
256
370
-1
100
AcDbText
10
110.1
20
24
30
0
40
2
1
Load 1
50
90
41
1
51
0
7
standard
71
0
72
4
11
110.1
21
24
31
0
210
0
220
0
230
1
100
AcDbText
0
TEXT
5
175
100
AcDbEntity
8
stensil
6
ByLayer
62
256
370
-1
100
AcDbText
10
123.1
20
24
30
0
40
2
1
Load 2
50
90
41
1
51
0
7
standard
71
0
72
4
11
123.1
21
24
31
0
210
0
220
0
230
1
100
AcDbText
0
TEXT
5
176
100
AcDbEntity
8
stensil
6
ByLayer
62
256
370
-1
100
AcDbText
10
136.16
20
25.76
30
0
40
2
1
11-28VDC
50
0
41
1
51
0
7
standard
71
0
72
4
11
136.16
21
25.76
31
0
210
0
220
0
230
1
100
AcDbText
0
TEXT
5
177
100
AcDbEntity
8
stensil
6
ByLayer
62
256
370
-1
100
AcDbText
10
147.4
20
19
30
0
40
4
1
+
50
0
41
1
51
0
7
standard
71
0
72
4
11
147.4
21
19
31
0
210
0
220
0
230
1
100
AcDbText
0
TEXT
5
178
100
AcDbEntity
8
stensil
6
ByLayer
62
256
370
-1
100
AcDbText
10
147.8
20
10.8
30
0
40
4
1
-
50
0
41
1
51
0
7
standard
71
0
72
4
11
147.8
21
10.8
31
0
210
0
220
0
230
1
100
AcDbText
0
TEXT
5
179
100
AcDbEntity
8
stensil
6
ByLayer
62
256
370
-1
100
AcDbText
10
94
20
60
30
0
40
2
1
Ethernet
50
90
41
1
51
0
7
standard
71
0
72
4
11
94
21
60
31
0
210
0
220
0
230
1
100
AcDbText
0
TEXT
5
17A
100
AcDbEntity
8
stensil
6
ByLayer
62
256
370
-1
100
AcDbText
10
114.6
20
56.8
30
0
40
2
1
USB
50
0
41
1
51
0
7
standard
71
0
72
4
11
114.6
21
56.8
31
0
210
0
220
0
230
1
100
AcDbText
0
TEXT
5
17B
100
AcDbEntity
8
stensil
6
ByLayer
62
256
370
-1
100
AcDbText
10
114.4
20
62.2
30
0
40
2
1
USB
50
0
41
1
51
0
7
standard
71
0
72
4
11
114.4
21
62.2
31
0
210
0
220
0
230
1
100
AcDbText
0
TEXT
5
17C
100
AcDbEntity
8
stensil
6
ByLayer
62
256
370
-1
100
AcDbText
10
134.2
20
62
30
0
40
2
1
USB
50
0
41
1
51
0
7
standard
71
0
72
4
11
134.2
21
62
31
0
210
0
220
0
230
1
100
AcDbText
0
TEXT
5
17D
100
AcDbEntity
8
stensil
6
ByLayer
62
256
370
-1
100
AcDbText
10
134.4
20
56.2
30
0
40
2
1
USB
50
0
41
1
51
0
7
standard
71
0
72
4
11
134.4
21
56.2
31
0
210
0
220
0
230
1
100
AcDbText
0
ENDSEC
0
SECTION
2
OBJECTS
0
DICTIONARY
5
C
330
0
100
AcDbDictionary
281
1
3
ACAD_GROUP
350
D
0
DICTIONARY
5
D
330
C
100
AcDbDictionary
281
1
0
ENDSEC
0
EOF
