999
dxfrw 0.5.11
0
SECTION
2
HEADER
9
$ACADVER
1
AC1021
9
$HANDSEED
5
20000
9
$DWGCODEPAGE
3
ANSI_1252
9
$INSBASE
10
0
20
0
30
0
9
$EXTMIN
10
-0
20
0
30
0
9
$EXTMAX
10
159.3
20
69.3
30
0
9
$LIMMIN
10
0
20
0
9
$LIMMAX
10
420
20
297
9
$ORTHOMODE
70
0
9
$LTSCALE
40
1
9
$TEXTSTYLE
7
STANDARD
9
$CLAYER
8
stensil
9
$DIMASZ
40
2.5
9
$DIMLFAC
40
1
9
$DIMSCALE
40
1
9
$DIMEXO
40
0.625
9
$DIMEXE
40
1.25
9
$DIMTXT
40
2.5
9
$DIMTSZ
40
0
9
$DIMAUNIT
70
0
9
$DIMADEC
70
0
9
$DIMLUNIT
70
2
9
$DIMSTYLE
2
STANDARD
9
$DIMGAP
40
0.625
9
$DIMTIH
70
0
9
$LUNITS
70
2
9
$LUPREC
70
4
9
$AUNITS
70
0
9
$AUPREC
70
2
9
$SPLINESEGS
70
8
9
$GRIDMODE
70
0
9
$SNAPSTYLE
70
0
9
$PINSBASE
10
0
20
0
30
0
9
$PLIMMIN
10
0
20
0
9
$PLIMMAX
10
210
20
297
9
$INSUNITS
70
4
9
$PSVPSCALE
40
1
0
ENDSEC
0
SECTION
2
CLASSES
0
ENDSEC
0
SECTION
2
TABLES
0
TABLE
2
VPORT
5
8
330
0
100
AcDbSymbolTable
70
1
0
VPORT
5
31
330
2
100
AcDbSymbolTableRecord
100
AcDbViewportTableRecord
2
*ACTIVE
70
0
10
0
20
0
11
1
21
1
12
136.40625
22
75
13
0
23
0
14
10
24
10
15
10
25
10
16
0
26
0
36
1
17
0
27
0
37
0
40
210.625
41
1.50890207715
42
50
43
0
44
0
50
0
51
0
71
0
72
100
73
1
74
3
75
0
76
0
77
0
78
0
281
0
65
1
110
0
120
0
130
0
111
1
121
0
131
0
112
0
122
1
132
0
79
0
146
0
348
10020
60
7
61
5
292
1
282
1
141
0
142
0
63
250
421
3358443
0
ENDTAB
0
TABLE
2
LTYPE
5
5
330
0
100
AcDbSymbolTable
70
4
0
LTYPE
5
14
330
5
100
AcDbSymbolTableRecord
100
AcDbLinetypeTableRecord
2
ByBlock
70
0
3

72
65
73
0
40
0
0
LTYPE
5
15
330
5
100
AcDbSymbolTableRecord
100
AcDbLinetypeTableRecord
2
ByLayer
70
0
3

72
65
73
0
40
0
0
LTYPE
5
16
330
5
100
AcDbSymbolTableRecord
100
AcDbLinetypeTableRecord
2
Continuous
70
0
3
Solid line
72
65
73
0
40
0
0
LTYPE
5
32
330
5
100
AcDbSymbolTableRecord
100
AcDbLinetypeTableRecord
2
DOT
70
0
3
Dot . . . . . . . . . . . . . . . . . . . . . .
72
65
73
2
40
6.35
49
0
74
0
49
-6.35
74
0
0
LTYPE
5
33
330
5
100
AcDbSymbolTableRecord
100
AcDbLinetypeTableRecord
2
DOT2
70
0
3
Dot (.5x) .....................................
72
65
73
2
40
3.175
49
0
74
0
49
-3.175
74
0
0
LTYPE
5
34
330
5
100
AcDbSymbolTableRecord
100
AcDbLinetypeTableRecord
2
DOTX2
70
0
3
Dot (2x) .  .  .  .  .  .  .  .  .  .  .  .  .
72
65
73
2
40
12.7
49
0
74
0
49
-12.7
74
0
0
LTYPE
5
35
330
5
100
AcDbSymbolTableRecord
100
AcDbLinetypeTableRecord
2
DASHED
70
0
3
Dot . . . . . . . . . . . . . . . . . . . . . .
72
65
73
2
40
19.05
49
12.7
74
0
49
-6.35
74
0
0
LTYPE
5
36
330
5
100
AcDbSymbolTableRecord
100
AcDbLinetypeTableRecord
2
DASHED2
70
0
3
Dashed (.5x) _ _ _ _ _ _ _ _ _ _ _ _ _ _ _ _ _
72
65
73
2
40
9.525
49
6.35
74
0
49
-3.175
74
0
0
LTYPE
5
37
330
5
100
AcDbSymbolTableRecord
100
AcDbLinetypeTableRecord
2
DASHEDX2
70
0
3
Dashed (2x) ____  ____  ____  ____  ____  ___
72
65
73
2
40
38.1
49
25.4
74
0
49
-12.7
74
0
0
LTYPE
5
38
330
5
100
AcDbSymbolTableRecord
100
AcDbLinetypeTableRecord
2
DASHDOT
70
0
3
Dash dot __ . __ . __ . __ . __ . __ . __ . __
72
65
73
4
40
25.4
49
12.7
74
0
49
-6.35
74
0
49
0
74
0
49
-6.35
74
0
0
LTYPE
5
39
330
5
100
AcDbSymbolTableRecord
100
AcDbLinetypeTableRecord
2
DASHDOT2
70
0
3
Dash dot (.5x) _._._._._._._._._._._._._._._.
72
65
73
4
40
12.7
49
6.35
74
0
49
-3.175
74
0
49
0
74
0
49
-3.175
74
0
0
LTYPE
5
3A
330
5
100
AcDbSymbolTableRecord
100
AcDbLinetypeTableRecord
2
DASHDOTX2
70
0
3
Dash dot (2x) ____  .  ____  .  ____  .  ___
72
65
73
4
40
50.8
49
25.4
74
0
49
-12.7
74
0
49
0
74
0
49
-12.7
74
0
0
LTYPE
5
3B
330
5
100
AcDbSymbolTableRecord
100
AcDbLinetypeTableRecord
2
DIVIDE
70
0
3
Divide ____ . . ____ . . ____ . . ____ . . ____
72
65
73
6
40
31.75
49
12.7
74
0
49
-6.35
74
0
49
0
74
0
49
-6.35
74
0
49
0
74
0
49
-6.35
74
0
0
LTYPE
5
3C
330
5
100
AcDbSymbolTableRecord
100
AcDbLinetypeTableRecord
2
DIVIDE2
70
0
3
Divide (.5x) __..__..__..__..__..__..__..__.._
72
65
73
6
40
15.875
49
6.35
74
0
49
-3.175
74
0
49
0
74
0
49
-3.175
74
0
49
0
74
0
49
-3.175
74
0
0
LTYPE
5
3D
330
5
100
AcDbSymbolTableRecord
100
AcDbLinetypeTableRecord
2
DIVIDEX2
70
0
3
Divide (2x) ________  .  .  ________  .  .  _
72
65
73
6
40
63.5
49
25.4
74
0
49
-12.7
74
0
49
0
74
0
49
-12.7
74
0
49
0
74
0
49
-12.7
74
0
0
LTYPE
5
3E
330
5
100
AcDbSymbolTableRecord
100
AcDbLinetypeTableRecord
2
BORDER
70
0
3
Border __ __ . __ __ . __ __ . __ __ . __ __ .
72
65
73
6
40
44.45
49
12.7
74
0
49
-6.35
74
0
49
12.7
74
0
49
-6.35
74
0
49
0
74
0
49
-6.35
74
0
0
LTYPE
5
3F
330
5
100
AcDbSymbolTableRecord
100
AcDbLinetypeTableRecord
2
BORDER2
70
0
3
Border (.5x) __.__.__.__.__.__.__.__.__.__.__.
72
65
73
6
40
22.225
49
6.35
74
0
49
-3.175
74
0
49
6.35
74
0
49
-3.175
74
0
49
0
74
0
49
-3.175
74
0
0
LTYPE
5
40
330
5
100
AcDbSymbolTableRecord
100
AcDbLinetypeTableRecord
2
BORDERX2
70
0
3
Border (2x) ____  ____  .  ____  ____  .  ___
72
65
73
6
40
88.9
49
25.4
74
0
49
-12.7
74
0
49
25.4
74
0
49
-12.7
74
0
49
0
74
0
49
-12.7
74
0
0
LTYPE
5
41
330
5
100
AcDbSymbolTableRecord
100
AcDbLinetypeTableRecord
2
CENTER
70
0
3
Center ____ _ ____ _ ____ _ ____ _ ____ _ ____
72
65
73
4
40
50.8
49
31.75
74
0
49
-6.35
74
0
49
6.35
74
0
49
-6.35
74
0
0
LTYPE
5
42
330
5
100
AcDbSymbolTableRecord
100
AcDbLinetypeTableRecord
2
CENTER2
70
0
3
Center (.5x) ___ _ ___ _ ___ _ ___ _ ___ _ ___
72
65
73
4
40
28.575
49
19.05
74
0
49
-3.175
74
0
49
3.175
74
0
49
-3.175
74
0
0
LTYPE
5
43
330
5
100
AcDbSymbolTableRecord
100
AcDbLinetypeTableRecord
2
CENTERX2
70
0
3
Center (2x) ________  __  ________  __  _____
72
65
73
4
40
101.6
49
63.5
74
0
49
-12.7
74
0
49
12.7
74
0
49
-12.7
74
0
0
ENDTAB
0
TABLE
2
LAYER
5
2
330
0
100
AcDbSymbolTable
70
1
0
LAYER
5
10
330
2
100
AcDbSymbolTableRecord
100
AcDbLayerTableRecord
2
0
70
0
62
7
6
CONTINUOUS
370
0
390
F
0
LAYER
5
44
330
2
100
AcDbSymbolTableRecord
100
AcDbLayerTableRecord
2
Dim
70
1
62
3
6
CONTINUOUS
370
0
390
F
0
LAYER
5
45
330
2
100
AcDbSymbolTableRecord
100
AcDbLayerTableRecord
2
stensil
70
0
62
16
420
8388608
6
CONTINUOUS
370
0
390
F
0
ENDTAB
0
TABLE
2
STYLE
5
3
330
0
100
AcDbSymbolTable
70
3
0
STYLE
5
46
330
2
100
AcDbSymbolTableRecord
100
AcDbTextStyleTableRecord
2
italiccs
70
0
40
0
41
1
50
0
71
0
42
1
3
italiccs
4

0
STYLE
5
47
330
2
100
AcDbSymbolTableRecord
100
AcDbTextStyleTableRecord
2
standard
70
0
40
0
41
1
50
0
71
0
42
1
3
standard
4

0
ENDTAB
0
TABLE
2
VIEW
5
6
330
0
100
AcDbSymbolTable
70
0
0
ENDTAB
0
TABLE
2
UCS
5
7
330
0
100
AcDbSymbolTable
70
0
0
ENDTAB
0
TABLE
2
APPID
5
9
330
0
100
AcDbSymbolTable
70
1
0
APPID
5
12
330
9
100
AcDbSymbolTableRecord
100
AcDbRegAppTableRecord
2
ACAD
70
0
0
ENDTAB
0
TABLE
2
DIMSTYLE
5
A
330
0
100
AcDbSymbolTable
70
1
100
AcDbDimStyleTable
71
1
0
DIMSTYLE
105
48
330
A
100
AcDbSymbolTableRecord
100
AcDbDimStyleTableRecord
2
Standard
70
0
40
1
41
2.5
42
0.625
43
0.38
44
1.25
45
0
46
0
47
0
48
0
140
2.5
141
0.09
142
0
143
25.4
144
1
145
0
146
1
147
0.625
148
0
71
0
72
0
73
0
74
1
75
0
76
0
77
0
78
0
79
0
170
0
171
2
172
0
173
0
174
0
175
0
176
0
177
0
178
0
179
0
271
4
272
4
273
2
274
2
275
0
276
0
277
2
278
46
279
0
280
0
281
0
282
0
283
1
284
0
285
0
286
0
288
0
289
3
340
Standard
341

371
-2
372
-2
0
ENDTAB
0
TABLE
2
BLOCK_RECORD
5
1
330
0
100
AcDbSymbolTable
70
2
0
BLOCK_RECORD
5
1F
330
1
100
AcDbSymbolTableRecord
100
AcDbBlockTableRecord
2
*Model_Space
70
0
280
1
281
0
0
BLOCK_RECORD
5
1E
330
1
100
AcDbSymbolTableRecord
100
AcDbBlockTableRecord
2
*Paper_Space
70
0
280
1
281
0
0
BLOCK_RECORD
5
49
330
1
100
AcDbSymbolTableRecord
100
AcDbBlockTableRecord
2
*D10
70
0
280
1
281
0
0
BLOCK_RECORD
5
4C
330
1
100
AcDbSymbolTableRecord
100
AcDbBlockTableRecord
2
*D7
70
0
280
1
281
0
0
BLOCK_RECORD
5
4F
330
1
100
AcDbSymbolTableRecord
100
AcDbBlockTableRecord
2
*D9
70
0
280
1
281
0
0
BLOCK_RECORD
5
52
330
1
100
AcDbSymbolTableRecord
100
AcDbBlockTableRecord
2
*D2
70
0
280
1
281
0
0
BLOCK_RECORD
5
55
330
1
100
AcDbSymbolTableRecord
100
AcDbBlockTableRecord
2
*D5
70
0
280
1
281
0
0
BLOCK_RECORD
5
58
330
1
100
AcDbSymbolTableRecord
100
AcDbBlockTableRecord
2
*D1
70
0
280
1
281
0
0
BLOCK_RECORD
5
5B
330
1
100
AcDbSymbolTableRecord
100
AcDbBlockTableRecord
2
*D6
70
0
280
1
281
0
0
BLOCK_RECORD
5
5E
330
1
100
AcDbSymbolTableRecord
100
AcDbBlockTableRecord
2
*D12
70
0
280
1
281
0
0
BLOCK_RECORD
5
61
330
1
100
AcDbSymbolTableRecord
100
AcDbBlockTableRecord
2
*D4
70
0
280
1
281
0
0
BLOCK_RECORD
5
64
330
1
100
AcDbSymbolTableRecord
100
AcDbBlockTableRecord
2
*D13
70
0
280
1
281
0
0
BLOCK_RECORD
5
67
330
1
100
AcDbSymbolTableRecord
100
AcDbBlockTableRecord
2
*D3
70
0
280
1
281
0
0
BLOCK_RECORD
5
6A
330
1
100
AcDbSymbolTableRecord
100
AcDbBlockTableRecord
2
*D11
70
0
280
1
281
0
0
BLOCK_RECORD
5
6D
330
1
100
AcDbSymbolTableRecord
100
AcDbBlockTableRecord
2
*D8
70
0
280
1
281
0
0
ENDTAB
0
ENDSEC
0
SECTION
2
BLOCKS
0
BLOCK
5
20
330
1F
100
AcDbEntity
8
0
100
AcDbBlockBegin
2
*Model_Space
70
0
10
0
20
0
30
0
3
*Model_Space
1

0
ENDBLK
5
21
330
1F
100
AcDbEntity
8
0
100
AcDbBlockEnd
0
BLOCK
5
1C
330
1B
100
AcDbEntity
8
0
100
AcDbBlockBegin
2
*Paper_Space
70
0
10
0
20
0
30
0
3
*Paper_Space
1

0
ENDBLK
5
1D
330
1F
100
AcDbEntity
8
0
100
AcDbBlockEnd
0
BLOCK
5
4A
330
49
100
AcDbEntity
8
0
100
AcDbBlockBegin
2
*D10
70
1
10
0
20
0
3
*D10
1

0
LINE
5
70
100
AcDbEntity
8
Dim
6
CONTINUOUS
62
7
370
0
100
AcDbLine
10
0
20
-25
11
8.125
21
-25
0
SOLID
5
71
100
AcDbEntity
8
Dim
6
CONTINUOUS
62
7
370
0
100
AcDbTrace
10
0
20
-25
30
0
11
2.5
21
-24.5837153422
31
0
12
2.5
22
-25.4162846578
32
0
13
2.5
23
-25.4162846578
33
0
0
SOLID
5
72
100
AcDbEntity
8
Dim
6
CONTINUOUS
62
7
370
0
100
AcDbTrace
10
8.125
20
-25
30
0
11
5.625
21
-25.4162846578
31
0
12
5.625
22
-24.5837153422
32
0
13
5.625
23
-24.5837153422
33
0
0
MTEXT
5
73
100
AcDbEntity
8
Dim
6
CONTINUOUS
62
7
370
0
100
AcDbMText
10
4.0625
20
-23.125
30
0
40
2.5
41
7.22222222222
71
5
72
1
1
8.125
7
standard
210
0
220
0
230
1
50
0
73
2
44
1
0
LINE
5
74
100
AcDbEntity
8
Dim
6
CONTINUOUS
62
7
370
0
100
AcDbLine
10
-1.1481063742e-16
20
18.125
11
-2.2962127484e-16
21
-26.25
0
LINE
5
75
100
AcDbEntity
8
Dim
6
CONTINUOUS
62
7
370
0
100
AcDbLine
10
8.125
20
30
11
8.125
21
-26.25
0
ENDBLK
5
4B
330
49
100
AcDbEntity
8
0
100
AcDbBlockEnd
0
BLOCK
5
4D
330
4C
100
AcDbEntity
8
0
100
AcDbBlockBegin
2
*D7
70
1
10
0
20
0
3
*D7
1

0
LINE
5
76
100
AcDbEntity
8
Dim
6
CONTINUOUS
62
7
370
0
100
AcDbLine
10
-22.8125
20
25.1
11
-22.8125
21
44.3
0
SOLID
5
77
100
AcDbEntity
8
Dim
6
CONTINUOUS
62
7
370
0
100
AcDbTrace
10
-22.8125
20
25.1
30
0
11
-23.2287846578
21
27.6
31
0
12
-22.3962153422
22
27.6
32
0
13
-22.3962153422
23
27.6
33
0
0
SOLID
5
78
100
AcDbEntity
8
Dim
6
CONTINUOUS
62
7
370
0
100
AcDbTrace
10
-22.8125
20
44.3
30
0
11
-22.3962153422
21
41.8
31
0
12
-23.2287846578
22
41.8
32
0
13
-23.2287846578
23
41.8
33
0
0
MTEXT
5
79
100
AcDbEntity
8
Dim
6
CONTINUOUS
62
7
370
0
100
AcDbMText
10
-24.6875
20
34.7
30
0
40
2.5
41
5.27777777778
71
5
72
1
1
19.2
7
standard
210
0
220
0
230
1
50
90
73
2
44
1
0
LINE
5
7A
100
AcDbEntity
8
Dim
6
CONTINUOUS
62
7
370
0
100
AcDbLine
10
14.0625
20
25.1
11
-24.0625
21
25.1
0
LINE
5
7B
100
AcDbEntity
8
Dim
6
CONTINUOUS
62
7
370
0
100
AcDbLine
10
13.75
20
44.3
11
-24.0625
21
44.3
0
ENDBLK
5
4E
330
4C
100
AcDbEntity
8
0
100
AcDbBlockEnd
0
BLOCK
5
50
330
4F
100
AcDbEntity
8
0
100
AcDbBlockBegin
2
*D9
70
1
10
0
20
0
3
*D9
1

0
LINE
5
7C
100
AcDbEntity
8
Dim
6
CONTINUOUS
62
7
370
0
100
AcDbLine
10
170
20
13.7
11
170
21
55.7
0
SOLID
5
7D
100
AcDbEntity
8
Dim
6
CONTINUOUS
62
7
370
0
100
AcDbTrace
10
170
20
13.7
30
0
11
169.583715342
21
16.2
31
0
12
170.416284658
22
16.2
32
0
13
170.416284658
23
16.2
33
0
0
SOLID
5
7E
100
AcDbEntity
8
Dim
6
CONTINUOUS
62
7
370
0
100
AcDbTrace
10
170
20
55.7
30
0
11
170.416284658
21
53.2
31
0
12
169.583715342
22
53.2
32
0
13
169.583715342
23
53.2
33
0
0
MTEXT
5
7F
100
AcDbEntity
8
Dim
6
CONTINUOUS
62
7
370
0
100
AcDbMText
10
168.125
20
34.7
30
0
40
2.5
41
3.33333333333
71
5
72
1
1
42
7
standard
210
0
220
0
230
1
50
90
73
2
44
1
0
LINE
5
80
100
AcDbEntity
8
Dim
6
CONTINUOUS
62
7
370
0
100
AcDbLine
10
103.4375
20
13.7
11
171.25
21
13.7
0
LINE
5
81
100
AcDbEntity
8
Dim
6
CONTINUOUS
62
7
370
0
100
AcDbLine
10
102.5
20
55.7
11
171.25
21
55.7
0
ENDBLK
5
51
330
4F
100
AcDbEntity
8
0
100
AcDbBlockEnd
0
BLOCK
5
53
330
52
100
AcDbEntity
8
0
100
AcDbBlockBegin
2
*D2
70
1
10
0
20
0
3
*D2
1

0
LINE
5
82
100
AcDbEntity
8
Dim
6
CONTINUOUS
62
7
370
0
100
AcDbLine
10
0
20
89.6875
11
159.3
21
89.6875
0
SOLID
5
83
100
AcDbEntity
8
Dim
6
CONTINUOUS
62
7
370
0
100
AcDbTrace
10
0
20
89.6875
30
0
11
2.5
21
90.1037846578
31
0
12
2.5
22
89.2712153422
32
0
13
2.5
23
89.2712153422
33
0
0
SOLID
5
84
100
AcDbEntity
8
Dim
6
CONTINUOUS
62
7
370
0
100
AcDbTrace
10
159.3
20
89.6875
30
0
11
156.8
21
89.2712153422
31
0
12
156.8
22
90.1037846578
32
0
13
156.8
23
90.1037846578
33
0
0
MTEXT
5
85
100
AcDbEntity
8
Dim
6
CONTINUOUS
62
7
370
0
100
AcDbMText
10
79.65
20
91.5625
30
0
40
2.5
41
7.22222222222
71
5
72
1
1
159.3
7
standard
210
0
220
0
230
1
50
0
73
2
44
1
0
LINE
5
86
100
AcDbEntity
8
Dim
6
CONTINUOUS
62
7
370
0
100
AcDbLine
10
3.82702124734e-17
20
60
11
7.65404249467e-17
21
90.9375
0
LINE
5
87
100
AcDbEntity
8
Dim
6
CONTINUOUS
62
7
370
0
100
AcDbLine
10
159.3
20
54.6875
11
159.3
21
90.9375
0
ENDBLK
5
54
330
52
100
AcDbEntity
8
0
100
AcDbBlockEnd
0
BLOCK
5
56
330
55
100
AcDbEntity
8
0
100
AcDbBlockBegin
2
*D5
70
1
10
0
20
0
3
*D5
1

0
SOLID
5
88
100
AcDbEntity
8
Dim
6
CONTINUOUS
62
7
370
0
100
AcDbTrace
10
158.871360444
20
64.7546503736
30
0
11
161.228595927
21
63.8236649858
31
0
12
160.7997257
22
63.1100530509
32
0
13
160.7997257
23
63.1100530509
33
0
0
LINE
5
89
100
AcDbEntity
8
Dim
6
CONTINUOUS
62
7
370
0
100
AcDbLine
10
156.3
20
66.3
11
164.109316904
21
61.6067159496
0
MTEXT
5
8A
100
AcDbEntity
8
Dim
6
CONTINUOUS
62
7
370
0
100
AcDbMText
10
162.45618219
20
64.787783439
30
0
40
2.5
41
1.11111111111
71
5
72
1
1
3
7
standard
210
0
220
0
230
1
50
328.994754859
73
2
44
1
0
ENDBLK
5
57
330
55
100
AcDbEntity
8
0
100
AcDbBlockEnd
0
BLOCK
5
59
330
58
100
AcDbEntity
8
0
100
AcDbBlockBegin
2
*D1
70
1
10
0
20
0
3
*D1
1

0
LINE
5
8B
100
AcDbEntity
8
Dim
6
CONTINUOUS
62
7
370
0
100
AcDbLine
10
-42.5
20
69.3
11
-42.5
21
4.50750547998e-15
0
SOLID
5
8C
100
AcDbEntity
8
Dim
6
CONTINUOUS
62
7
370
0
100
AcDbTrace
10
-42.5
20
69.3
30
0
11
-42.0837153422
21
66.8
31
0
12
-42.9162846578
22
66.8
32
0
13
-42.9162846578
23
66.8
33
0
0
SOLID
5
8D
100
AcDbEntity
8
Dim
6
CONTINUOUS
62
7
370
0
100
AcDbTrace
10
-42.5
20
4.50750547998e-15
30
0
11
-42.9162846578
21
2.5
31
0
12
-42.0837153422
22
2.5
32
0
13
-42.0837153422
23
2.5
33
0
0
MTEXT
5
8E
100
AcDbEntity
8
Dim
6
CONTINUOUS
62
7
370
0
100
AcDbMText
10
-44.375
20
34.65
30
0
40
2.5
41
5.83333333333
71
5
72
1
1
69.3
7
standard
210
0
220
0
230
1
50
90
73
2
44
1
0
LINE
5
8F
100
AcDbEntity
8
Dim
6
CONTINUOUS
62
7
370
0
100
AcDbLine
10
20
20
69.3
11
-43.75
21
69.3
0
LINE
5
90
100
AcDbEntity
8
Dim
6
CONTINUOUS
62
7
370
0
100
AcDbLine
10
20.3125
20
7.65404249467e-17
11
-43.75
21
4.66058632987e-15
0
ENDBLK
5
5A
330
58
100
AcDbEntity
8
0
100
AcDbBlockEnd
0
BLOCK
5
5C
330
5B
100
AcDbEntity
8
0
100
AcDbBlockBegin
2
*D6
70
1
10
0
20
0
3
*D6
1

0
LINE
5
91
100
AcDbEntity
8
Dim
6
CONTINUOUS
62
7
370
0
100
AcDbLine
10
-22.5
20
7.1054273576e-15
11
-22.5
21
25.1
0
SOLID
5
92
100
AcDbEntity
8
Dim
6
CONTINUOUS
62
7
370
0
100
AcDbTrace
10
-22.5
20
7.1054273576e-15
30
0
11
-22.9162846578
21
2.5
31
0
12
-22.0837153422
22
2.5
32
0
13
-22.0837153422
23
2.5
33
0
0
SOLID
5
93
100
AcDbEntity
8
Dim
6
CONTINUOUS
62
7
370
0
100
AcDbTrace
10
-22.5
20
25.1
30
0
11
-22.0837153422
21
22.6
31
0
12
-22.9162846578
22
22.6
32
0
13
-22.9162846578
23
22.6
33
0
0
MTEXT
5
94
100
AcDbEntity
8
Dim
6
CONTINUOUS
62
7
370
0
100
AcDbMText
10
-24.375
20
12.55
30
0
40
2.5
41
5.27777777778
71
5
72
1
1
25.1
7
standard
210
0
220
0
230
1
50
90
73
2
44
1
0
LINE
5
95
100
AcDbEntity
8
Dim
6
CONTINUOUS
62
7
370
0
100
AcDbLine
10
13.75
20
7.65404249467e-17
11
-23.75
21
7.25850820749e-15
0
LINE
5
96
100
AcDbEntity
8
Dim
6
CONTINUOUS
62
7
370
0
100
AcDbLine
10
12.8125
20
25.1
11
-23.75
21
25.1
0
ENDBLK
5
5D
330
5B
100
AcDbEntity
8
0
100
AcDbBlockEnd
0
BLOCK
5
5F
330
5E
100
AcDbEntity
8
0
100
AcDbBlockBegin
2
*D12
70
1
10
0
20
0
3
*D12
1

0
LINE
5
97
100
AcDbEntity
8
Dim
6
CONTINUOUS
62
7
370
0
100
AcDbLine
10
29.15
20
-40.9375
11
0
21
-40.9375
0
SOLID
5
98
100
AcDbEntity
8
Dim
6
CONTINUOUS
62
7
370
0
100
AcDbTrace
10
29.15
20
-40.9375
30
0
11
26.65
21
-41.3537846578
31
0
12
26.65
22
-40.5212153422
32
0
13
26.65
23
-40.5212153422
33
0
0
SOLID
5
99
100
AcDbEntity
8
Dim
6
CONTINUOUS
62
7
370
0
100
AcDbTrace
10
0
20
-40.9375
30
0
11
2.5
21
-40.5212153422
31
0
12
2.5
22
-41.3537846578
32
0
13
2.5
23
-41.3537846578
33
0
0
MTEXT
5
9A
100
AcDbEntity
8
Dim
6
CONTINUOUS
62
7
370
0
100
AcDbMText
10
14.575
20
-39.0625
30
0
40
2.5
41
7.22222222222
71
5
72
1
1
29.15
7
standard
210
0
220
0
230
1
50
360
73
2
44
1
0
LINE
5
9B
100
AcDbEntity
8
Dim
6
CONTINUOUS
62
7
370
0
100
AcDbLine
10
29.15
20
33.125
11
29.15
21
-42.1875
0
LINE
5
9C
100
AcDbEntity
8
Dim
6
CONTINUOUS
62
7
370
0
100
AcDbLine
10
-1.1481063742e-16
20
33.75
11
-2.2962127484e-16
21
-42.1875
0
ENDBLK
5
60
330
5E
100
AcDbEntity
8
0
100
AcDbBlockEnd
0
BLOCK
5
62
330
61
100
AcDbEntity
8
0
100
AcDbBlockBegin
2
*D4
70
1
10
0
20
0
3
*D4
1

0
LINE
5
9D
100
AcDbEntity
8
Dim
6
CONTINUOUS
62
7
370
0
100
AcDbLine
10
26.5572762159
20
62.009827543
11
39.7427237841
21
61.390172457
0
SOLID
5
9E
100
AcDbEntity
8
Dim
6
CONTINUOUS
62
7
370
0
100
AcDbTrace
10
31.5517639311
20
61.7751097074
30
0
11
29.0349781867
21
61.4766429034
31
0
12
29.0740619603
22
62.3082943471
32
0
13
29.0740619603
23
62.3082943471
33
0
0
SOLID
5
9F
100
AcDbEntity
8
Dim
6
CONTINUOUS
62
7
370
0
100
AcDbTrace
10
34.7482360689
20
61.6248902926
30
0
11
37.2650218133
21
61.9233570966
31
0
12
37.2259380397
22
61.0917056529
32
0
13
37.2259380397
23
61.0917056529
33
0
0
MTEXT
5
A0
100
AcDbEntity
8
Dim
6
CONTINUOUS
62
7
370
0
100
AcDbMText
10
37.4028669999
20
63.3772042981
30
0
40
2.5
41
3.88888888889
71
5
72
1
1
3.2
7
standard
210
0
220
0
230
1
50
357.309342878
73
2
44
1
0
ENDBLK
5
63
330
61
100
AcDbEntity
8
0
100
AcDbBlockEnd
0
BLOCK
5
65
330
64
100
AcDbEntity
8
0
100
AcDbBlockBegin
2
*D13
70
1
10
0
20
0
3
*D13
1

0
LINE
5
A1
100
AcDbEntity
8
Dim
6
CONTINUOUS
62
7
370
0
100
AcDbLine
10
29.15
20
-40.625
11
130.15
21
-40.625
0
SOLID
5
A2
100
AcDbEntity
8
Dim
6
CONTINUOUS
62
7
370
0
100
AcDbTrace
10
29.15
20
-40.625
30
0
11
31.65
21
-40.2087153422
31
0
12
31.65
22
-41.0412846578
32
0
13
31.65
23
-41.0412846578
33
0
0
SOLID
5
A3
100
AcDbEntity
8
Dim
6
CONTINUOUS
62
7
370
0
100
AcDbTrace
10
130.15
20
-40.625
30
0
11
127.65
21
-41.0412846578
31
0
12
127.65
22
-40.2087153422
32
0
13
127.65
23
-40.2087153422
33
0
0
MTEXT
5
A4
100
AcDbEntity
8
Dim
6
CONTINUOUS
62
7
370
0
100
AcDbMText
10
79.65
20
-38.75
30
0
40
2.5
41
3.88888888889
71
5
72
1
1
101
7
standard
210
0
220
0
230
1
50
0
73
2
44
1
0
LINE
5
A5
100
AcDbEntity
8
Dim
6
CONTINUOUS
62
7
370
0
100
AcDbLine
10
29.15
20
36.875
11
29.15
21
-41.875
0
LINE
5
A6
100
AcDbEntity
8
Dim
6
CONTINUOUS
62
7
370
0
100
AcDbLine
10
130.15
20
40.9375
11
130.15
21
-41.875
0
ENDBLK
5
66
330
64
100
AcDbEntity
8
0
100
AcDbBlockEnd
0
BLOCK
5
68
330
67
100
AcDbEntity
8
0
100
AcDbBlockBegin
2
*D3
70
1
10
0
20
0
3
*D3
1

0
LINE
5
A7
100
AcDbEntity
8
Dim
6
CONTINUOUS
62
7
370
0
100
AcDbLine
10
0.525121808739
20
68.3526432387
11
11.7748781913
21
61.4473567613
0
SOLID
5
A8
100
AcDbEntity
8
Dim
6
CONTINUOUS
62
7
370
0
100
AcDbTrace
10
4.78639316575
20
65.7370044215
30
0
11
2.43798742527
21
66.6900434524
31
0
12
2.87352754922
22
67.3996042078
32
0
13
2.87352754922
23
67.3996042078
33
0
0
SOLID
5
A9
100
AcDbEntity
8
Dim
6
CONTINUOUS
62
7
370
0
100
AcDbTrace
10
7.51360683425
20
64.0629955785
30
0
11
9.86201257473
21
63.1099565476
31
0
12
9.42647245078
22
62.4003957922
32
0
13
9.42647245078
23
62.4003957922
33
0
0
MTEXT
5
AA
100
AcDbEntity
8
Dim
6
CONTINUOUS
62
7
370
0
100
AcDbMText
10
10.6842913936
20
64.3168246119
30
0
40
2.5
41
3.88888888889
71
5
72
1
1
3.2
7
standard
210
0
220
0
230
1
50
328.457709488
73
2
44
1
0
ENDBLK
5
69
330
67
100
AcDbEntity
8
0
100
AcDbBlockEnd
0
BLOCK
5
6B
330
6A
100
AcDbEntity
8
0
100
AcDbBlockBegin
2
*D11
70
1
10
0
20
0
3
*D11
1

0
LINE
5
AB
100
AcDbEntity
8
Dim
6
CONTINUOUS
62
7
370
0
100
AcDbLine
10
8.125
20
-25
11
21.025
21
-25
0
SOLID
5
AC
100
AcDbEntity
8
Dim
6
CONTINUOUS
62
7
370
0
100
AcDbTrace
10
8.125
20
-25
30
0
11
10.625
21
-24.5837153422
31
0
12
10.625
22
-25.4162846578
32
0
13
10.625
23
-25.4162846578
33
0
0
SOLID
5
AD
100
AcDbEntity
8
Dim
6
CONTINUOUS
62
7
370
0
100
AcDbTrace
10
21.025
20
-25
30
0
11
18.525
21
-25.4162846578
31
0
12
18.525
22
-24.5837153422
32
0
13
18.525
23
-24.5837153422
33
0
0
MTEXT
5
AE
100
AcDbEntity
8
Dim
6
CONTINUOUS
62
7
370
0
100
AcDbMText
10
14.575
20
-23.125
30
0
40
2.5
41
5.27777777778
71
5
72
1
1
12.9
7
standard
210
0
220
0
230
1
50
0
73
2
44
1
0
LINE
5
AF
100
AcDbEntity
8
Dim
6
CONTINUOUS
62
7
370
0
100
AcDbLine
10
8.125
20
34.6875
11
8.125
21
-26.25
0
LINE
5
B0
100
AcDbEntity
8
Dim
6
CONTINUOUS
62
7
370
0
100
AcDbLine
10
21.025
20
31.875
11
21.025
21
-26.25
0
ENDBLK
5
6C
330
6A
100
AcDbEntity
8
0
100
AcDbBlockEnd
0
BLOCK
5
6E
330
6D
100
AcDbEntity
8
0
100
AcDbBlockBegin
2
*D8
70
1
10
0
20
0
3
*D8
1

0
LINE
5
B1
100
AcDbEntity
8
Dim
6
CONTINUOUS
62
7
370
0
100
AcDbLine
10
170
20
0
11
170
21
13.7
0
SOLID
5
B2
100
AcDbEntity
8
Dim
6
CONTINUOUS
62
7
370
0
100
AcDbTrace
10
170
20
0
30
0
11
169.583715342
21
2.5
31
0
12
170.416284658
22
2.5
32
0
13
170.416284658
23
2.5
33
0
0
SOLID
5
B3
100
AcDbEntity
8
Dim
6
CONTINUOUS
62
7
370
0
100
AcDbTrace
10
170
20
13.7
30
0
11
170.416284658
21
11.2
31
0
12
169.583715342
22
11.2
32
0
13
169.583715342
23
11.2
33
0
0
MTEXT
5
B4
100
AcDbEntity
8
Dim
6
CONTINUOUS
62
7
370
0
100
AcDbMText
10
168.125
20
6.85
30
0
40
2.5
41
5.27777777778
71
5
72
1
1
13.7
7
standard
210
0
220
0
230
1
50
90
73
2
44
1
0
LINE
5
B5
100
AcDbEntity
8
Dim
6
CONTINUOUS
62
7
370
0
100
AcDbLine
10
68.4375
20
0
11
171.25
21
0
0
LINE
5
B6
100
AcDbEntity
8
Dim
6
CONTINUOUS
62
7
370
0
100
AcDbLine
10
68.4375
20
13.7
11
171.25
21
13.7
0
ENDBLK
5
6F
330
6D
100
AcDbEntity
8
0
100
AcDbBlockEnd
0
ENDSEC
0
SECTION
2
ENTITIES
0
ARC
5
B7
100
AcDbEntity
8
0
6
ByLayer
62
256
370
-1
100
AcDbCircle
10
0
20
0
40
0
100
AcDbArc
50
0
51
0
0
ARC
5
B8
100
AcDbEntity
8
0
6
ByLayer
62
256
370
-1
100
AcDbCircle
10
3
20
3
40
3
100
AcDbArc
50
180
51
270
0
ARC
5
B9
100
AcDbEntity
8
0
6
ByLayer
62
256
370
-1
100
AcDbCircle
10
0
20
0
40
0
100
AcDbArc
50
0
51
0
0
ARC
5
BA
100
AcDbEntity
8
0
6
ByLayer
62
256
370
-1
100
AcDbCircle
10
3
20
66.3
40
3
100
AcDbArc
50
90
51
180
0
LINE
5
BB
100
AcDbEntity
8
0
6
ByLayer
62
256
370
-1
100
AcDbLine
10
-0
20
66.3
11
-0
21
3
0
ARC
5
BC
100
AcDbEntity
8
0
6
ByLayer
62
256
370
-1
100
AcDbCircle
10
156.3
20
66.3
40
3
100
AcDbArc
50
0
51
90
0
ARC
5
BD
100
AcDbEntity
8
0
6
ByLayer
62
256
370
-1
100
AcDbCircle
10
156.3
20
3
40
3
100
AcDbArc
50
270
51
0
0
LINE
5
BE
100
AcDbEntity
8
0
6
ByLayer
62
256
370
-1
100
AcDbLine
10
3
20
0
11
156.299998093
21
0
0
LINE
5
BF
100
AcDbEntity
8
0
6
ByLayer
62
256
370
-1
100
AcDbLine
10
159.3
20
3.00000196153
11
159.3
21
66.2999990463
0
LINE
5
C0
100
AcDbEntity
8
0
6
ByLayer
62
256
370
-1
100
AcDbLine
10
156.299998093
20
69.3
11
3.0000006664
21
69.3
0
CIRCLE
5
C1
100
AcDbEntity
8
0
6
ByLayer
62
256
370
-1
100
AcDbCircle
10
6.15
20
64.9
40
1.6
0
CIRCLE
5
C2
100
AcDbEntity
8
0
6
ByLayer
62
256
370
-1
100
AcDbCircle
10
153.15
20
64.9
40
1.6
0
CIRCLE
5
C3
100
AcDbEntity
8
0
6
ByLayer
62
256
370
-1
100
AcDbCircle
10
3.65
20
3.4
40
1.6
0
CIRCLE
5
C4
100
AcDbEntity
8
0
6
ByLayer
62
256
370
-1
100
AcDbCircle
10
155.65
20
3.4
40
1.6
0
LINE
5
C5
100
AcDbEntity
8
0
6
ByLayer
62
256
370
-1
100
AcDbLine
10
29.15
20
13.7
11
130.15
21
13.7
0
LINE
5
C6
100
AcDbEntity
8
0
6
ByLayer
62
256
370
-1
100
AcDbLine
10
130.15
20
13.7
11
130.15
21
55.7
0
LINE
5
C7
100
AcDbEntity
8
0
6
ByLayer
62
256
370
-1
100
AcDbLine
10
130.15
20
55.7
11
29.15
21
55.7
0
LINE
5
C8
100
AcDbEntity
8
0
6
ByLayer
62
256
370
-1
100
AcDbLine
10
29.15
20
55.7
11
29.15
21
13.7
0
CIRCLE
5
C9
100
AcDbEntity
8
0
6
ByLayer
62
256
370
-1
100
AcDbCircle
10
33.15
20
7.7
40
1.6
0
CIRCLE
5
CA
100
AcDbEntity
8
0
6
ByLayer
62
256
370
-1
100
AcDbCircle
10
33.15
20
61.7
40
1.6
0
CIRCLE
5
CB
100
AcDbEntity
8
0
6
ByLayer
62
256
370
-1
100
AcDbCircle
10
126.15
20
7.7
40
1.6
0
CIRCLE
5
CC
100
AcDbEntity
8
0
6
ByLayer
62
256
370
-1
100
AcDbCircle
10
126.15
20
61.7
40
1.6
0
LINE
5
CD
100
AcDbEntity
8
0
6
ByLayer
62
256
370
-1
100
AcDbLine
10
8.125
20
25.1
11
21.025
21
25.1
0
LINE
5
CE
100
AcDbEntity
8
0
6
ByLayer
62
256
370
-1
100
AcDbLine
10
21.025
20
25.1
11
21.025
21
44.3
0
LINE
5
CF
100
AcDbEntity
8
0
6
ByLayer
62
256
370
-1
100
AcDbLine
10
21.025
20
44.3
11
8.125
21
44.3
0
LINE
5
D0
100
AcDbEntity
8
0
6
ByLayer
62
256
370
-1
100
AcDbLine
10
8.125
20
44.3
11
8.125
21
25.1
0
DIMENSION
5
D1
100
AcDbEntity
8
Dim
6
ByLayer
62
256
370
-1
100
AcDbDimension
2
*D1
10
-42.5
20
7.76885313209e-15
30
0
11
-44.375
21
34.65
31
0
70
32
71
5
72
0
3
Standard
53
0
210
0
220
0
230
1
100
AcDbAlignedDimension
13
20.625
23
69.3
33
0
14
20.9375
24
0
34
0
50
90
100
AcDbRotatedDimension
0
DIMENSION
5
D2
100
AcDbEntity
8
Dim
6
ByLayer
62
256
370
-1
100
AcDbDimension
2
*D2
10
159.3
20
89.6875
30
0
11
79.65
21
91.5625
31
0
70
32
71
5
72
0
3
Standard
53
0
210
0
220
0
230
1
100
AcDbAlignedDimension
13
0
23
59.375
33
0
14
159.3
24
54.0625
34
0
100
AcDbRotatedDimension
0
DIMENSION
5
D3
100
AcDbEntity
8
Dim
6
ByLayer
62
256
370
-1
100
AcDbDimension
2
*D3
10
4.78639316575
20
65.7370044215
30
0
11
7.13086455642
21
66.4979767589
31
0
70
35
71
5
72
0
3
Standard
53
0
210
0
220
0
230
1
100
AcDbDiametricDimension
15
7.51360683425
25
64.0629955785
35
0
40
0
0
DIMENSION
5
D4
100
AcDbEntity
8
Dim
6
ByLayer
62
256
370
-1
100
AcDbDimension
2
*D4
10
31.5517639311
20
61.7751097074
30
0
11
33.2380191884
21
63.5729328932
31
0
70
35
71
5
72
0
3
Standard
53
0
210
0
220
0
230
1
100
AcDbDiametricDimension
15
34.7482360689
25
61.6248902926
35
0
40
0
0
DIMENSION
5
D5
100
AcDbEntity
8
Dim
6
ByLayer
62
256
370
-1
100
AcDbDimension
2
*D5
10
156.3
20
66.3
30
0
11
162.45618219
21
64.787783439
31
0
70
36
71
5
72
0
3
Standard
53
0
210
0
220
0
230
1
100
AcDbRadialDimension
15
158.871360444
25
64.7546503736
35
0
40
0
0
DIMENSION
5
D6
100
AcDbEntity
8
Dim
6
ByLayer
62
256
370
-1
100
AcDbDimension
2
*D6
10
-22.5
20
25.1
30
0
11
-24.375
21
12.55
31
0
70
32
71
5
72
0
3
Standard
53
0
210
0
220
0
230
1
100
AcDbAlignedDimension
13
14.375
23
0
33
0
14
13.4375
24
25.1
34
0
50
90
100
AcDbRotatedDimension
0
DIMENSION
5
D7
100
AcDbEntity
8
Dim
6
ByLayer
62
256
370
-1
100
AcDbDimension
2
*D7
10
-22.8125
20
44.3
30
0
11
-24.6875
21
34.7
31
0
70
32
71
5
72
0
3
Standard
53
0
210
0
220
0
230
1
100
AcDbAlignedDimension
13
14.6875
23
25.1
33
0
14
14.375
24
44.3
34
0
50
90
100
AcDbRotatedDimension
0
DIMENSION
5
D8
100
AcDbEntity
8
Dim
6
ByLayer
62
256
370
-1
100
AcDbDimension
2
*D8
10
170
20
13.7
30
0
11
168.125
21
6.85
31
0
70
32
71
5
72
0
3
Standard
53
0
210
0
220
0
230
1
100
AcDbAlignedDimension
13
67.8125
23
0
33
0
14
67.8125
24
13.7
34
0
50
90
100
AcDbRotatedDimension
0
DIMENSION
5
D9
100
AcDbEntity
8
Dim
6
ByLayer
62
256
370
-1
100
AcDbDimension
2
*D9
10
170
20
55.7
30
0
11
168.125
21
34.7
31
0
70
32
71
5
72
0
3
Standard
53
0
210
0
220
0
230
1
100
AcDbAlignedDimension
13
102.8125
23
13.7
33
0
14
101.875
24
55.7
34
0
50
90
100
AcDbRotatedDimension
0
DIMENSION
5
DA
100
AcDbEntity
8
Dim
6
ByLayer
62
256
370
-1
100
AcDbDimension
2
*D10
10
8.125
20
-25
30
0
11
4.0625
21
-23.125
31
0
70
32
71
5
72
0
3
Standard
53
0
210
0
220
0
230
1
100
AcDbAlignedDimension
13
0
23
18.75
33
0
14
8.125
24
30.625
34
0
100
AcDbRotatedDimension
0
DIMENSION
5
DB
100
AcDbEntity
8
Dim
6
ByLayer
62
256
370
-1
100
AcDbDimension
2
*D11
10
21.025
20
-25
30
0
11
14.575
21
-23.125
31
0
70
32
71
5
72
0
3
Standard
53
0
210
0
220
0
230
1
100
AcDbAlignedDimension
13
8.125
23
35.3125
33
0
14
21.025
24
32.5
34
0
100
AcDbRotatedDimension
0
DIMENSION
5
DC
100
AcDbEntity
8
Dim
6
ByLayer
62
256
370
-1
100
AcDbDimension
2
*D12
10
-4.61156060304e-15
20
-40.9375
30
0
11
14.575
21
-39.0625
31
0
70
32
71
5
72
0
3
Standard
53
0
210
0
220
0
230
1
100
AcDbAlignedDimension
13
29.15
23
33.75
33
0
14
0
24
34.375
34
0
100
AcDbRotatedDimension
0
DIMENSION
5
DD
100
AcDbEntity
8
Dim
6
ByLayer
62
256
370
-1
100
AcDbDimension
2
*D13
10
130.15
20
-40.625
30
0
11
79.65
21
-38.75
31
0
70
32
71
5
72
0
3
Standard
53
0
210
0
220
0
230
1
100
AcDbAlignedDimension
13
29.15
23
37.5
33
0
14
130.15
24
41.5625
34
0
100
AcDbRotatedDimension
0
TEXT
5
DE
100
AcDbEntity
8
stensil
6
ByLayer
62
256
370
-1
100
AcDbText
10
14.375
20
50.3125
30
0
40
3
1
Enable
50
0
41
1
51
0
7
standard
71
0
72
4
11
14.375
21
50.3125
31
0
210
0
220
0
230
1
100
AcDbText
0
TEXT
5
DF
100
AcDbEntity
8
stensil
6
ByLayer
62
256
370
-1
100
AcDbText
10
76.5625
20
6.875
30
0
40
5
1
Buildbotics
50
0
41
1
51
0
7
italiccs
71
0
72
4
11
76.5625
21
6.875
31
0
210
0
220
0
230
1
100
AcDbText
0
TEXT
5
E0
100
AcDbEntity
8
stensil
6
ByLayer
62
256
370
-1
100
AcDbText
10
79.6875
20
62.1875
30
0
40
4
1
4-Axix Controller
50
0
41
1
51
0
7
italiccs
71
0
72
4
11
79.6875
21
62.1875
31
0
210
0
220
0
230
1
100
AcDbText
0
ENDSEC
0
SECTION
2
OBJECTS
0
DICTIONARY
5
C
330
0
100
AcDbDictionary
281
1
3
ACAD_GROUP
350
D
0
DICTIONARY
5
D
330
C
100
AcDbDictionary
281
1
0
ENDSEC
0
EOF
