M48
INCH
T113C0.012
T112C0.020
T111C0.035
T110C0.038
T109C0.030
T108C0.079
T107C0.043
T106C0.070
T105C0.040
%
T113
X020570Y010050
X020570Y005310
X020580Y005740
X020580Y004950
X020590Y009650
X020610Y009280
X021040Y010040
X021050Y005740
X021050Y005330
X021050Y004940
X021080Y009640
X021080Y009280
X021610Y009550
X021610Y009130
X021610Y008780
X021610Y005830
X021620Y006200
X021620Y005460
X021780Y007210
X021790Y008110
X021790Y007640
X021790Y006840
X022030Y006200
X022030Y005830
X022030Y005430
X022070Y009540
X022080Y009150
X022080Y008760
X022240Y008100
X022250Y007670
X022280Y007200
X022280Y006830
X022710Y008130
X022720Y007660
X022720Y006220
X022720Y005840
X022720Y005420
X022740Y009540
X022740Y007220
X022750Y009180
X022750Y008840
X022760Y006810
X023120Y008110
X023130Y006840
X023130Y006220
X023130Y005830
X023130Y005430
X023140Y009560
X023140Y007690
X023140Y007170
X023150Y009170
X023160Y008830
X023700Y009660
X023700Y009290
X023710Y010050
X023730Y005750
X023740Y005350
X023740Y004960
X024160Y005740
X024170Y005330
X024180Y010040
X024180Y004960
X024190Y009660
X024200Y009270
T112
X009000Y003800
X011500Y003800
X012400Y005800
X012900Y005300
X013300Y010900
X013400Y011900
X013400Y011400
X013400Y004800
X013600Y004300
X017100Y003300
X017120Y010410
X017150Y011400
X017200Y012400
X017200Y009400
X017200Y006300
X017200Y005800
X017200Y005300
X017260Y004300
X017320Y004820
X017510Y010430
X017780Y012280
X018220Y008830
X018220Y008450
X018310Y006950
X018570Y011280
X018570Y008080
X018570Y006410
X018720Y013320
X018980Y007320
X019360Y006700
X019380Y007330
X019490Y009070
X019650Y008490
X020810Y011280
X026380Y006530
X027080Y000660
X028190Y014090
X028530Y002200
X028670Y002740
X028830Y013290
X029340Y003439
X030840Y012500
X031130Y010340
X031940Y000740
X033580Y004930
T109
X007996Y004963
X008100Y011600
X010946Y004963
X011050Y011600
T111
X016100Y013800
X016300Y007500
X016400Y008700
X017185Y014415
X018910Y004920
X019000Y010420
X019520Y004300
X019640Y011010
X020100Y000695
X020130Y014252
X022400Y014300
X022500Y000695
X024700Y014302
X024700Y000695
X025210Y011220
X025300Y004330
X025880Y010630
T110
X011265Y001405
X011265Y000625
X012045Y001405
X012045Y000625
X012835Y001405
X012835Y000625
X013625Y001405
X013625Y000625
X014415Y001405
X014415Y000625
X015195Y001405
X015195Y000625
X015985Y001405
X015985Y000625
X016775Y001405
X016775Y000625
X017565Y001405
X017565Y000625
X018345Y001405
X018345Y000625
T105
X025952Y013546
X025952Y012546
X026400Y001600
X026400Y000600
T107
X033167Y013800
X033167Y012820
X033190Y010983
X033190Y010003
T106
X028872Y007961
X028872Y006311
X031042Y007961
X031042Y006311
T108
X004200Y012970
X004200Y009770
X004200Y006430
X004200Y003230
M30
