G04 start of page 11 for group -4015 idx -4015 *
G04 Title: (unknown), toppaste *
G04 Creator: pcb 4.2.0 *
G04 CreationDate: Fri Sep 20 02:47:34 2019 UTC *
G04 For: doug *
G04 Format: Gerber/RS-274X *
G04 PCB-Dimensions (mil): 5602.36 6102.36 *
G04 PCB-Coordinate-Origin: lower left *
%MOIN*%
%FSLAX25Y25*%
%LNTOPPASTE*%
%ADD186C,0.0001*%
G54D186*G36*
X289890Y446260D02*Y441535D01*
X295953D01*
Y446260D01*
X289890D01*
G37*
G36*
X280819D02*Y441535D01*
X286882D01*
Y446260D01*
X280819D01*
G37*
G36*
X229850Y474803D02*Y470079D01*
X235913D01*
Y474803D01*
X229850D01*
G37*
G36*
X220780D02*Y470079D01*
X226843D01*
Y474803D01*
X220780D01*
G37*
G36*
X273031Y505598D02*X268307D01*
Y499535D01*
X273031D01*
Y505598D01*
G37*
G36*
Y496528D02*X268307D01*
Y490465D01*
X273031D01*
Y496528D01*
G37*
G36*
X289890Y82087D02*Y77362D01*
X295953D01*
Y82087D01*
X289890D01*
G37*
G36*
X280819D02*Y77362D01*
X286882D01*
Y82087D01*
X280819D01*
G37*
G36*
X240677Y109646D02*Y104921D01*
X246740D01*
Y109646D01*
X240677D01*
G37*
G36*
X231606D02*Y104921D01*
X237669D01*
Y109646D01*
X231606D01*
G37*
G36*
X273031Y137488D02*X268307D01*
Y131425D01*
X273031D01*
Y137488D01*
G37*
G36*
Y128417D02*X268307D01*
Y122354D01*
X273031D01*
Y128417D01*
G37*
G36*
X289890Y203150D02*Y198425D01*
X295953D01*
Y203150D01*
X289890D01*
G37*
G36*
X280819D02*Y198425D01*
X286882D01*
Y203150D01*
X280819D01*
G37*
G36*
X272047Y258551D02*X267323D01*
Y252488D01*
X272047D01*
Y258551D01*
G37*
G36*
Y249480D02*X267323D01*
Y243417D01*
X272047D01*
Y249480D01*
G37*
G36*
X238709Y231693D02*Y226969D01*
X244772D01*
Y231693D01*
X238709D01*
G37*
G36*
X229638D02*Y226969D01*
X235701D01*
Y231693D01*
X229638D01*
G37*
G36*
X262205Y491819D02*X257480D01*
Y485756D01*
X262205D01*
Y491819D01*
G37*
G36*
Y482748D02*X257480D01*
Y476685D01*
X262205D01*
Y482748D01*
G37*
G36*
X289890Y324213D02*Y319488D01*
X295953D01*
Y324213D01*
X289890D01*
G37*
G36*
X280819D02*Y319488D01*
X286882D01*
Y324213D01*
X280819D01*
G37*
G36*
X262205Y369772D02*X257480D01*
Y363709D01*
X262205D01*
Y369772D01*
G37*
G36*
Y360701D02*X257480D01*
Y354638D01*
X262205D01*
Y360701D01*
G37*
G36*
X248551Y45669D02*Y40945D01*
X254614D01*
Y45669D01*
X248551D01*
G37*
G36*
X239480D02*Y40945D01*
X245543D01*
Y45669D01*
X239480D01*
G37*
G36*
X262205Y36882D02*X257480D01*
Y30819D01*
X262205D01*
Y36882D01*
G37*
G36*
Y45953D02*X257480D01*
Y39890D01*
X262205D01*
Y45953D01*
G37*
G36*
Y20150D02*X257480D01*
Y14087D01*
X262205D01*
Y20150D01*
G37*
G36*
Y29220D02*X257480D01*
Y23157D01*
X262205D01*
Y29220D01*
G37*
G36*
X215087Y34843D02*Y30118D01*
X221150D01*
Y34843D01*
X215087D01*
G37*
G36*
X206016D02*Y30118D01*
X212079D01*
Y34843D01*
X206016D01*
G37*
G36*
X141142Y112669D02*X136417D01*
Y106606D01*
X141142D01*
Y112669D01*
G37*
G36*
Y121740D02*X136417D01*
Y115677D01*
X141142D01*
Y121740D01*
G37*
G36*
X215087Y59449D02*Y54724D01*
X221150D01*
Y59449D01*
X215087D01*
G37*
G36*
X206016D02*Y54724D01*
X212079D01*
Y59449D01*
X206016D01*
G37*
G36*
X215087Y52559D02*Y47835D01*
X221150D01*
Y52559D01*
X215087D01*
G37*
G36*
X206016D02*Y47835D01*
X212079D01*
Y52559D01*
X206016D01*
G37*
G36*
X215087Y25984D02*Y21260D01*
X221150D01*
Y25984D01*
X215087D01*
G37*
G36*
X206016D02*Y21260D01*
X212079D01*
Y25984D01*
X206016D01*
G37*
G36*
X230709Y56780D02*X225984D01*
Y50717D01*
X230709D01*
Y56780D01*
G37*
G36*
Y47709D02*X225984D01*
Y41646D01*
X230709D01*
Y47709D01*
G37*
G36*
X206016Y41732D02*Y37008D01*
X212079D01*
Y41732D01*
X206016D01*
G37*
G36*
X215087D02*Y37008D01*
X221150D01*
Y41732D01*
X215087D01*
G37*
G36*
X232803Y19094D02*Y14370D01*
X238866D01*
Y19094D01*
X232803D01*
G37*
G36*
X223732D02*Y14370D01*
X229795D01*
Y19094D01*
X223732D01*
G37*
G36*
X265071Y156890D02*Y152165D01*
X271134D01*
Y156890D01*
X265071D01*
G37*
G36*
X274142D02*Y152165D01*
X280205D01*
Y156890D01*
X274142D01*
G37*
G36*
X210937Y122441D02*Y117717D01*
X217000D01*
Y122441D01*
X210937D01*
G37*
G36*
X220008D02*Y117717D01*
X226071D01*
Y122441D01*
X220008D01*
G37*
G36*
X202079Y103740D02*Y99016D01*
X208142D01*
Y103740D01*
X202079D01*
G37*
G36*
X211150D02*Y99016D01*
X217213D01*
Y103740D01*
X211150D01*
G37*
G36*
X202079Y110630D02*Y105906D01*
X208142D01*
Y110630D01*
X202079D01*
G37*
G36*
X211150D02*Y105906D01*
X217213D01*
Y110630D01*
X211150D01*
G37*
G36*
X202079Y96850D02*Y92126D01*
X208142D01*
Y96850D01*
X202079D01*
G37*
G36*
X211150D02*Y92126D01*
X217213D01*
Y96850D01*
X211150D01*
G37*
G36*
X202079Y89961D02*Y85236D01*
X208142D01*
Y89961D01*
X202079D01*
G37*
G36*
X211150D02*Y85236D01*
X217213D01*
Y89961D01*
X211150D01*
G37*
G36*
X202079Y83071D02*Y78346D01*
X208142D01*
Y83071D01*
X202079D01*
G37*
G36*
X211150D02*Y78346D01*
X217213D01*
Y83071D01*
X211150D01*
G37*
G36*
X202079Y76181D02*Y71457D01*
X208142D01*
Y76181D01*
X202079D01*
G37*
G36*
X211150D02*Y71457D01*
X217213D01*
Y76181D01*
X211150D01*
G37*
G36*
X134252Y121740D02*X129528D01*
Y115677D01*
X134252D01*
Y121740D01*
G37*
G36*
Y112669D02*X129528D01*
Y106606D01*
X134252D01*
Y112669D01*
G37*
G36*
X225657Y39012D02*Y37012D01*
X234157D01*
Y39012D01*
X225657D01*
G37*
G36*
Y34012D02*Y32012D01*
X234157D01*
Y34012D01*
X225657D01*
G37*
G36*
Y29012D02*Y27012D01*
X234157D01*
Y29012D01*
X225657D01*
G37*
G36*
Y24012D02*Y22012D01*
X234157D01*
Y24012D01*
X225657D01*
G37*
G36*
X246157D02*Y22012D01*
X254657D01*
Y24012D01*
X246157D01*
G37*
G36*
Y29012D02*Y27012D01*
X254657D01*
Y29012D01*
X246157D01*
G37*
G36*
Y34012D02*Y32012D01*
X254657D01*
Y34012D01*
X246157D01*
G37*
G36*
Y39012D02*Y37012D01*
X254657D01*
Y39012D01*
X246157D01*
G37*
G36*
X210937Y129331D02*Y124606D01*
X217000D01*
Y129331D01*
X210937D01*
G37*
G36*
X220008D02*Y124606D01*
X226071D01*
Y129331D01*
X220008D01*
G37*
G36*
X359942Y318306D02*Y314300D01*
X377544D01*
Y318306D01*
X359942D01*
G37*
G36*
Y314301D02*Y310295D01*
X377544D01*
Y314301D01*
X359942D01*
G37*
G36*
Y307815D02*Y303809D01*
X377544D01*
Y307815D01*
X359942D01*
G37*
G36*
Y303810D02*Y299804D01*
X377544D01*
Y303810D01*
X359942D01*
G37*
G36*
X350709Y302835D02*Y300276D01*
X357992D01*
Y302835D01*
X350709D01*
G37*
G36*
Y307835D02*Y305276D01*
X357992D01*
Y307835D01*
X350709D01*
G37*
G36*
Y312835D02*Y310276D01*
X357992D01*
Y312835D01*
X350709D01*
G37*
G36*
Y317835D02*Y315276D01*
X357992D01*
Y317835D01*
X350709D01*
G37*
G36*
X392126Y148102D02*X387402D01*
Y142039D01*
X392126D01*
Y148102D01*
G37*
G36*
Y157173D02*X387402D01*
Y151110D01*
X392126D01*
Y157173D01*
G37*
G36*
X393110Y62685D02*X388386D01*
Y56622D01*
X393110D01*
Y62685D01*
G37*
G36*
Y53614D02*X388386D01*
Y47551D01*
X393110D01*
Y53614D01*
G37*
G36*
X392126Y304811D02*X387402D01*
Y298748D01*
X392126D01*
Y304811D01*
G37*
G36*
Y295740D02*X387402D01*
Y289677D01*
X392126D01*
Y295740D01*
G37*
G36*
Y183748D02*X387402D01*
Y177685D01*
X392126D01*
Y183748D01*
G37*
G36*
Y174677D02*X387402D01*
Y168614D01*
X392126D01*
Y174677D01*
G37*
G36*
X136592Y183678D02*X133251Y180337D01*
X137538Y176050D01*
X140879Y179391D01*
X136592Y183678D01*
G37*
G36*
X130178Y190092D02*X126838Y186751D01*
X131124Y182464D01*
X134465Y185805D01*
X130178Y190092D01*
G37*
G36*
X149737Y242853D02*X146397Y246194D01*
X142110Y241907D01*
X145450Y238566D01*
X149737Y242853D01*
G37*
G36*
X143323Y236439D02*X139983Y239780D01*
X135696Y235493D01*
X139037Y232153D01*
X143323Y236439D01*
G37*
G36*
X65218Y269816D02*X61877Y266475D01*
X66164Y262188D01*
X69504Y265529D01*
X65218Y269816D01*
G37*
G36*
X71631Y263402D02*X68291Y260061D01*
X72578Y255775D01*
X75918Y259115D01*
X71631Y263402D01*
G37*
G36*
X51438Y249147D02*X48097Y245806D01*
X52384Y241519D01*
X55725Y244860D01*
X51438Y249147D01*
G37*
G36*
X57851Y242733D02*X54511Y239392D01*
X58799Y235105D01*
X62139Y238447D01*
X57851Y242733D01*
G37*
G36*
X235756Y353740D02*Y349016D01*
X241819D01*
Y353740D01*
X235756D01*
G37*
G36*
X226685D02*Y349016D01*
X232748D01*
Y353740D01*
X226685D01*
G37*
G36*
X181409Y354724D02*Y350000D01*
X187472D01*
Y354724D01*
X181409D01*
G37*
G36*
X190480D02*Y350000D01*
X196543D01*
Y354724D01*
X190480D01*
G37*
G36*
X181409Y326181D02*Y321457D01*
X187472D01*
Y326181D01*
X181409D01*
G37*
G36*
X190480D02*Y321457D01*
X196543D01*
Y326181D01*
X190480D01*
G37*
G36*
X181409Y319291D02*Y314567D01*
X187472D01*
Y319291D01*
X181409D01*
G37*
G36*
X190480D02*Y314567D01*
X196543D01*
Y319291D01*
X190480D01*
G37*
G36*
X181409Y334055D02*Y329331D01*
X187472D01*
Y334055D01*
X181409D01*
G37*
G36*
X190480D02*Y329331D01*
X196543D01*
Y334055D01*
X190480D01*
G37*
G36*
X181409Y347835D02*Y343110D01*
X187472D01*
Y347835D01*
X181409D01*
G37*
G36*
X190480D02*Y343110D01*
X196543D01*
Y347835D01*
X190480D01*
G37*
G36*
X263189Y248709D02*X258465D01*
Y242646D01*
X263189D01*
Y248709D01*
G37*
G36*
Y239638D02*X258465D01*
Y233575D01*
X263189D01*
Y239638D01*
G37*
G36*
X185346Y439370D02*Y434646D01*
X191409D01*
Y439370D01*
X185346D01*
G37*
G36*
X194417D02*Y434646D01*
X200480D01*
Y439370D01*
X194417D01*
G37*
G36*
X185346Y453150D02*Y448425D01*
X191409D01*
Y453150D01*
X185346D01*
G37*
G36*
X194417D02*Y448425D01*
X200480D01*
Y453150D01*
X194417D01*
G37*
G36*
X185346Y461024D02*Y456299D01*
X191409D01*
Y461024D01*
X185346D01*
G37*
G36*
X194417D02*Y456299D01*
X200480D01*
Y461024D01*
X194417D01*
G37*
G36*
X185346Y474803D02*Y470079D01*
X191409D01*
Y474803D01*
X185346D01*
G37*
G36*
X194417D02*Y470079D01*
X200480D01*
Y474803D01*
X194417D01*
G37*
G36*
X185346Y467913D02*Y463189D01*
X191409D01*
Y467913D01*
X185346D01*
G37*
G36*
X194417D02*Y463189D01*
X200480D01*
Y467913D01*
X194417D01*
G37*
G36*
X185346Y446260D02*Y441535D01*
X191409D01*
Y446260D01*
X185346D01*
G37*
G36*
X194417D02*Y441535D01*
X200480D01*
Y446260D01*
X194417D01*
G37*
G36*
X196173Y212992D02*Y208268D01*
X202236D01*
Y212992D01*
X196173D01*
G37*
G36*
X205244D02*Y208268D01*
X211307D01*
Y212992D01*
X205244D01*
G37*
G36*
X196173Y219882D02*Y215157D01*
X202236D01*
Y219882D01*
X196173D01*
G37*
G36*
X205244D02*Y215157D01*
X211307D01*
Y219882D01*
X205244D01*
G37*
G36*
X196173Y206102D02*Y201378D01*
X202236D01*
Y206102D01*
X196173D01*
G37*
G36*
X205244D02*Y201378D01*
X211307D01*
Y206102D01*
X205244D01*
G37*
G36*
X196173Y199213D02*Y194488D01*
X202236D01*
Y199213D01*
X196173D01*
G37*
G36*
X205244D02*Y194488D01*
X211307D01*
Y199213D01*
X205244D01*
G37*
G36*
X196173Y185433D02*Y180709D01*
X202236D01*
Y185433D01*
X196173D01*
G37*
G36*
X205244D02*Y180709D01*
X211307D01*
Y185433D01*
X205244D01*
G37*
G36*
X196173Y192323D02*Y187598D01*
X202236D01*
Y192323D01*
X196173D01*
G37*
G36*
X205244D02*Y187598D01*
X211307D01*
Y192323D01*
X205244D01*
G37*
G36*
X30906Y266213D02*X26181D01*
Y260150D01*
X30906D01*
Y266213D01*
G37*
G36*
Y275283D02*X26181D01*
Y269220D01*
X30906D01*
Y275283D01*
G37*
G36*
X31890Y294969D02*X27165D01*
Y288906D01*
X31890D01*
Y294969D01*
G37*
G36*
Y285898D02*X27165D01*
Y279835D01*
X31890D01*
Y285898D01*
G37*
G36*
X17915Y308658D02*X9645D01*
Y286608D01*
X17915D01*
Y308658D01*
G37*
G36*
Y270478D02*X9645D01*
Y248428D01*
X17915D01*
Y270478D01*
G37*
G36*
X46654Y322528D02*X41929D01*
Y316465D01*
X46654D01*
Y322528D01*
G37*
G36*
Y313457D02*X41929D01*
Y307394D01*
X46654D01*
Y313457D01*
G37*
G36*
X185559Y289764D02*Y285039D01*
X191622D01*
Y289764D01*
X185559D01*
G37*
G36*
X176488D02*Y285039D01*
X182551D01*
Y289764D01*
X176488D01*
G37*
G36*
Y282874D02*Y278150D01*
X182551D01*
Y282874D01*
X176488D01*
G37*
G36*
X185559D02*Y278150D01*
X191622D01*
Y282874D01*
X185559D01*
G37*
G36*
X38780Y313457D02*X34055D01*
Y307394D01*
X38780D01*
Y313457D01*
G37*
G36*
Y322528D02*X34055D01*
Y316465D01*
X38780D01*
Y322528D01*
G37*
G36*
X210937Y140157D02*Y135433D01*
X217000D01*
Y140157D01*
X210937D01*
G37*
G36*
X220008D02*Y135433D01*
X226071D01*
Y140157D01*
X220008D01*
G37*
G36*
X210937Y167717D02*Y162992D01*
X217000D01*
Y167717D01*
X210937D01*
G37*
G36*
X220008D02*Y162992D01*
X226071D01*
Y167717D01*
X220008D01*
G37*
G36*
Y174606D02*Y169882D01*
X226071D01*
Y174606D01*
X220008D01*
G37*
G36*
X210937D02*Y169882D01*
X217000D01*
Y174606D01*
X210937D01*
G37*
G36*
Y160827D02*Y156102D01*
X217000D01*
Y160827D01*
X210937D01*
G37*
G36*
X220008D02*Y156102D01*
X226071D01*
Y160827D01*
X220008D01*
G37*
G36*
X210937Y153937D02*Y149213D01*
X217000D01*
Y153937D01*
X210937D01*
G37*
G36*
X220008D02*Y149213D01*
X226071D01*
Y153937D01*
X220008D01*
G37*
G36*
X274142Y163780D02*Y159055D01*
X280205D01*
Y163780D01*
X274142D01*
G37*
G36*
X265071D02*Y159055D01*
X271134D01*
Y163780D01*
X265071D01*
G37*
G36*
X185559Y269094D02*Y264370D01*
X191622D01*
Y269094D01*
X185559D01*
G37*
G36*
X176488D02*Y264370D01*
X182551D01*
Y269094D01*
X176488D01*
G37*
G36*
Y275984D02*Y271260D01*
X182551D01*
Y275984D01*
X176488D01*
G37*
G36*
X185559D02*Y271260D01*
X191622D01*
Y275984D01*
X185559D01*
G37*
G36*
X210937Y147047D02*Y142323D01*
X217000D01*
Y147047D01*
X210937D01*
G37*
G36*
X220008D02*Y142323D01*
X226071D01*
Y147047D01*
X220008D01*
G37*
G36*
X271063Y379614D02*X266339D01*
Y373551D01*
X271063D01*
Y379614D01*
G37*
G36*
Y370543D02*X266339D01*
Y364480D01*
X271063D01*
Y370543D01*
G37*
G36*
X289173Y112165D02*X277756D01*
Y94528D01*
X289173D01*
Y112165D01*
G37*
G36*
X269350Y121594D02*Y120531D01*
X275531D01*
Y121594D01*
X269350D01*
G37*
G36*
Y119626D02*Y118563D01*
X275531D01*
Y119626D01*
X269350D01*
G37*
G36*
Y117657D02*Y116594D01*
X275531D01*
Y117657D01*
X269350D01*
G37*
G36*
Y115689D02*Y114626D01*
X275531D01*
Y115689D01*
X269350D01*
G37*
G36*
Y113720D02*Y112657D01*
X275531D01*
Y113720D01*
X269350D01*
G37*
G36*
Y111752D02*Y110689D01*
X275531D01*
Y111752D01*
X269350D01*
G37*
G36*
Y109783D02*Y108720D01*
X275531D01*
Y109783D01*
X269350D01*
G37*
G36*
Y107815D02*Y106752D01*
X275531D01*
Y107815D01*
X269350D01*
G37*
G36*
Y105846D02*Y104783D01*
X275531D01*
Y105846D01*
X269350D01*
G37*
G36*
Y103878D02*Y102815D01*
X275531D01*
Y103878D01*
X269350D01*
G37*
G36*
Y101909D02*Y100846D01*
X275531D01*
Y101909D01*
X269350D01*
G37*
G36*
Y99941D02*Y98878D01*
X275531D01*
Y99941D01*
X269350D01*
G37*
G36*
Y97972D02*Y96909D01*
X275531D01*
Y97972D01*
X269350D01*
G37*
G36*
Y96004D02*Y94941D01*
X275531D01*
Y96004D01*
X269350D01*
G37*
G36*
Y94035D02*Y92972D01*
X275531D01*
Y94035D01*
X269350D01*
G37*
G36*
Y92067D02*Y91004D01*
X275531D01*
Y92067D01*
X269350D01*
G37*
G36*
Y90098D02*Y89035D01*
X275531D01*
Y90098D01*
X269350D01*
G37*
G36*
Y88130D02*Y87067D01*
X275531D01*
Y88130D01*
X269350D01*
G37*
G36*
Y86161D02*Y85098D01*
X275531D01*
Y86161D01*
X269350D01*
G37*
G36*
X291398Y121594D02*Y120531D01*
X297579D01*
Y121594D01*
X291398D01*
G37*
G36*
Y119626D02*Y118563D01*
X297579D01*
Y119626D01*
X291398D01*
G37*
G36*
Y117657D02*Y116594D01*
X297579D01*
Y117657D01*
X291398D01*
G37*
G36*
Y115689D02*Y114626D01*
X297579D01*
Y115689D01*
X291398D01*
G37*
G36*
Y113720D02*Y112657D01*
X297579D01*
Y113720D01*
X291398D01*
G37*
G36*
Y111752D02*Y110689D01*
X297579D01*
Y111752D01*
X291398D01*
G37*
G36*
Y109783D02*Y108720D01*
X297579D01*
Y109783D01*
X291398D01*
G37*
G36*
Y107815D02*Y106752D01*
X297579D01*
Y107815D01*
X291398D01*
G37*
G36*
Y105846D02*Y104783D01*
X297579D01*
Y105846D01*
X291398D01*
G37*
G36*
Y103878D02*Y102815D01*
X297579D01*
Y103878D01*
X291398D01*
G37*
G36*
Y101909D02*Y100846D01*
X297579D01*
Y101909D01*
X291398D01*
G37*
G36*
Y99941D02*Y98878D01*
X297579D01*
Y99941D01*
X291398D01*
G37*
G36*
Y97972D02*Y96909D01*
X297579D01*
Y97972D01*
X291398D01*
G37*
G36*
Y96004D02*Y94941D01*
X297579D01*
Y96004D01*
X291398D01*
G37*
G36*
Y94035D02*Y92972D01*
X297579D01*
Y94035D01*
X291398D01*
G37*
G36*
Y92067D02*Y91004D01*
X297579D01*
Y92067D01*
X291398D01*
G37*
G36*
Y90098D02*Y89035D01*
X297579D01*
Y90098D01*
X291398D01*
G37*
G36*
Y88130D02*Y87067D01*
X297579D01*
Y88130D01*
X291398D01*
G37*
G36*
Y86161D02*Y85098D01*
X297579D01*
Y86161D01*
X291398D01*
G37*
G36*
X287205Y476339D02*X275787D01*
Y458701D01*
X287205D01*
Y476339D01*
G37*
G36*
X267382Y485768D02*Y484705D01*
X273563D01*
Y485768D01*
X267382D01*
G37*
G36*
Y483799D02*Y482736D01*
X273563D01*
Y483799D01*
X267382D01*
G37*
G36*
Y481831D02*Y480768D01*
X273563D01*
Y481831D01*
X267382D01*
G37*
G36*
Y479862D02*Y478799D01*
X273563D01*
Y479862D01*
X267382D01*
G37*
G36*
Y477894D02*Y476831D01*
X273563D01*
Y477894D01*
X267382D01*
G37*
G36*
Y475925D02*Y474862D01*
X273563D01*
Y475925D01*
X267382D01*
G37*
G36*
Y473957D02*Y472894D01*
X273563D01*
Y473957D01*
X267382D01*
G37*
G36*
Y471988D02*Y470925D01*
X273563D01*
Y471988D01*
X267382D01*
G37*
G36*
Y470020D02*Y468957D01*
X273563D01*
Y470020D01*
X267382D01*
G37*
G36*
Y468051D02*Y466988D01*
X273563D01*
Y468051D01*
X267382D01*
G37*
G36*
Y466083D02*Y465020D01*
X273563D01*
Y466083D01*
X267382D01*
G37*
G36*
Y464114D02*Y463051D01*
X273563D01*
Y464114D01*
X267382D01*
G37*
G36*
Y462146D02*Y461083D01*
X273563D01*
Y462146D01*
X267382D01*
G37*
G36*
Y460177D02*Y459114D01*
X273563D01*
Y460177D01*
X267382D01*
G37*
G36*
Y458209D02*Y457146D01*
X273563D01*
Y458209D01*
X267382D01*
G37*
G36*
Y456240D02*Y455177D01*
X273563D01*
Y456240D01*
X267382D01*
G37*
G36*
Y454272D02*Y453209D01*
X273563D01*
Y454272D01*
X267382D01*
G37*
G36*
Y452303D02*Y451240D01*
X273563D01*
Y452303D01*
X267382D01*
G37*
G36*
Y450335D02*Y449272D01*
X273563D01*
Y450335D01*
X267382D01*
G37*
G36*
X289429Y485768D02*Y484705D01*
X295610D01*
Y485768D01*
X289429D01*
G37*
G36*
Y483799D02*Y482736D01*
X295610D01*
Y483799D01*
X289429D01*
G37*
G36*
Y481831D02*Y480768D01*
X295610D01*
Y481831D01*
X289429D01*
G37*
G36*
Y479862D02*Y478799D01*
X295610D01*
Y479862D01*
X289429D01*
G37*
G36*
Y477894D02*Y476831D01*
X295610D01*
Y477894D01*
X289429D01*
G37*
G36*
Y475925D02*Y474862D01*
X295610D01*
Y475925D01*
X289429D01*
G37*
G36*
Y473957D02*Y472894D01*
X295610D01*
Y473957D01*
X289429D01*
G37*
G36*
Y471988D02*Y470925D01*
X295610D01*
Y471988D01*
X289429D01*
G37*
G36*
Y470020D02*Y468957D01*
X295610D01*
Y470020D01*
X289429D01*
G37*
G36*
Y468051D02*Y466988D01*
X295610D01*
Y468051D01*
X289429D01*
G37*
G36*
Y466083D02*Y465020D01*
X295610D01*
Y466083D01*
X289429D01*
G37*
G36*
Y464114D02*Y463051D01*
X295610D01*
Y464114D01*
X289429D01*
G37*
G36*
Y462146D02*Y461083D01*
X295610D01*
Y462146D01*
X289429D01*
G37*
G36*
Y460177D02*Y459114D01*
X295610D01*
Y460177D01*
X289429D01*
G37*
G36*
Y458209D02*Y457146D01*
X295610D01*
Y458209D01*
X289429D01*
G37*
G36*
Y456240D02*Y455177D01*
X295610D01*
Y456240D01*
X289429D01*
G37*
G36*
Y454272D02*Y453209D01*
X295610D01*
Y454272D01*
X289429D01*
G37*
G36*
Y452303D02*Y451240D01*
X295610D01*
Y452303D01*
X289429D01*
G37*
G36*
Y450335D02*Y449272D01*
X295610D01*
Y450335D01*
X289429D01*
G37*
G36*
X287205Y354291D02*X275787D01*
Y336654D01*
X287205D01*
Y354291D01*
G37*
G36*
X267382Y363720D02*Y362657D01*
X273563D01*
Y363720D01*
X267382D01*
G37*
G36*
Y361752D02*Y360689D01*
X273563D01*
Y361752D01*
X267382D01*
G37*
G36*
Y359783D02*Y358720D01*
X273563D01*
Y359783D01*
X267382D01*
G37*
G36*
Y357815D02*Y356752D01*
X273563D01*
Y357815D01*
X267382D01*
G37*
G36*
Y355846D02*Y354783D01*
X273563D01*
Y355846D01*
X267382D01*
G37*
G36*
Y353878D02*Y352815D01*
X273563D01*
Y353878D01*
X267382D01*
G37*
G36*
Y351909D02*Y350846D01*
X273563D01*
Y351909D01*
X267382D01*
G37*
G36*
Y349941D02*Y348878D01*
X273563D01*
Y349941D01*
X267382D01*
G37*
G36*
Y347972D02*Y346909D01*
X273563D01*
Y347972D01*
X267382D01*
G37*
G36*
Y346004D02*Y344941D01*
X273563D01*
Y346004D01*
X267382D01*
G37*
G36*
Y344035D02*Y342972D01*
X273563D01*
Y344035D01*
X267382D01*
G37*
G36*
Y342067D02*Y341004D01*
X273563D01*
Y342067D01*
X267382D01*
G37*
G36*
Y340098D02*Y339035D01*
X273563D01*
Y340098D01*
X267382D01*
G37*
G36*
Y338130D02*Y337067D01*
X273563D01*
Y338130D01*
X267382D01*
G37*
G36*
Y336161D02*Y335098D01*
X273563D01*
Y336161D01*
X267382D01*
G37*
G36*
Y334193D02*Y333130D01*
X273563D01*
Y334193D01*
X267382D01*
G37*
G36*
Y332224D02*Y331161D01*
X273563D01*
Y332224D01*
X267382D01*
G37*
G36*
Y330256D02*Y329193D01*
X273563D01*
Y330256D01*
X267382D01*
G37*
G36*
Y328287D02*Y327224D01*
X273563D01*
Y328287D01*
X267382D01*
G37*
G36*
X289429Y363720D02*Y362657D01*
X295610D01*
Y363720D01*
X289429D01*
G37*
G36*
Y361752D02*Y360689D01*
X295610D01*
Y361752D01*
X289429D01*
G37*
G36*
Y359783D02*Y358720D01*
X295610D01*
Y359783D01*
X289429D01*
G37*
G36*
Y357815D02*Y356752D01*
X295610D01*
Y357815D01*
X289429D01*
G37*
G36*
Y355846D02*Y354783D01*
X295610D01*
Y355846D01*
X289429D01*
G37*
G36*
Y353878D02*Y352815D01*
X295610D01*
Y353878D01*
X289429D01*
G37*
G36*
Y351909D02*Y350846D01*
X295610D01*
Y351909D01*
X289429D01*
G37*
G36*
Y349941D02*Y348878D01*
X295610D01*
Y349941D01*
X289429D01*
G37*
G36*
Y347972D02*Y346909D01*
X295610D01*
Y347972D01*
X289429D01*
G37*
G36*
Y346004D02*Y344941D01*
X295610D01*
Y346004D01*
X289429D01*
G37*
G36*
Y344035D02*Y342972D01*
X295610D01*
Y344035D01*
X289429D01*
G37*
G36*
Y342067D02*Y341004D01*
X295610D01*
Y342067D01*
X289429D01*
G37*
G36*
Y340098D02*Y339035D01*
X295610D01*
Y340098D01*
X289429D01*
G37*
G36*
Y338130D02*Y337067D01*
X295610D01*
Y338130D01*
X289429D01*
G37*
G36*
Y336161D02*Y335098D01*
X295610D01*
Y336161D01*
X289429D01*
G37*
G36*
Y334193D02*Y333130D01*
X295610D01*
Y334193D01*
X289429D01*
G37*
G36*
Y332224D02*Y331161D01*
X295610D01*
Y332224D01*
X289429D01*
G37*
G36*
Y330256D02*Y329193D01*
X295610D01*
Y330256D01*
X289429D01*
G37*
G36*
Y328287D02*Y327224D01*
X295610D01*
Y328287D01*
X289429D01*
G37*
G36*
X288189Y233228D02*X276772D01*
Y215591D01*
X288189D01*
Y233228D01*
G37*
G36*
X268366Y242657D02*Y241594D01*
X274547D01*
Y242657D01*
X268366D01*
G37*
G36*
Y240689D02*Y239626D01*
X274547D01*
Y240689D01*
X268366D01*
G37*
G36*
Y238720D02*Y237657D01*
X274547D01*
Y238720D01*
X268366D01*
G37*
G36*
Y236752D02*Y235689D01*
X274547D01*
Y236752D01*
X268366D01*
G37*
G36*
Y234783D02*Y233720D01*
X274547D01*
Y234783D01*
X268366D01*
G37*
G36*
Y232815D02*Y231752D01*
X274547D01*
Y232815D01*
X268366D01*
G37*
G36*
Y230846D02*Y229783D01*
X274547D01*
Y230846D01*
X268366D01*
G37*
G36*
Y228878D02*Y227815D01*
X274547D01*
Y228878D01*
X268366D01*
G37*
G36*
Y226909D02*Y225846D01*
X274547D01*
Y226909D01*
X268366D01*
G37*
G36*
Y224941D02*Y223878D01*
X274547D01*
Y224941D01*
X268366D01*
G37*
G36*
Y222972D02*Y221909D01*
X274547D01*
Y222972D01*
X268366D01*
G37*
G36*
Y221004D02*Y219941D01*
X274547D01*
Y221004D01*
X268366D01*
G37*
G36*
Y219035D02*Y217972D01*
X274547D01*
Y219035D01*
X268366D01*
G37*
G36*
Y217067D02*Y216004D01*
X274547D01*
Y217067D01*
X268366D01*
G37*
G36*
Y215098D02*Y214035D01*
X274547D01*
Y215098D01*
X268366D01*
G37*
G36*
Y213130D02*Y212067D01*
X274547D01*
Y213130D01*
X268366D01*
G37*
G36*
Y211161D02*Y210098D01*
X274547D01*
Y211161D01*
X268366D01*
G37*
G36*
Y209193D02*Y208130D01*
X274547D01*
Y209193D01*
X268366D01*
G37*
G36*
Y207224D02*Y206161D01*
X274547D01*
Y207224D01*
X268366D01*
G37*
G36*
X290413Y242657D02*Y241594D01*
X296594D01*
Y242657D01*
X290413D01*
G37*
G36*
Y240689D02*Y239626D01*
X296594D01*
Y240689D01*
X290413D01*
G37*
G36*
Y238720D02*Y237657D01*
X296594D01*
Y238720D01*
X290413D01*
G37*
G36*
Y236752D02*Y235689D01*
X296594D01*
Y236752D01*
X290413D01*
G37*
G36*
Y234783D02*Y233720D01*
X296594D01*
Y234783D01*
X290413D01*
G37*
G36*
Y232815D02*Y231752D01*
X296594D01*
Y232815D01*
X290413D01*
G37*
G36*
Y230846D02*Y229783D01*
X296594D01*
Y230846D01*
X290413D01*
G37*
G36*
Y228878D02*Y227815D01*
X296594D01*
Y228878D01*
X290413D01*
G37*
G36*
Y226909D02*Y225846D01*
X296594D01*
Y226909D01*
X290413D01*
G37*
G36*
Y224941D02*Y223878D01*
X296594D01*
Y224941D01*
X290413D01*
G37*
G36*
Y222972D02*Y221909D01*
X296594D01*
Y222972D01*
X290413D01*
G37*
G36*
Y221004D02*Y219941D01*
X296594D01*
Y221004D01*
X290413D01*
G37*
G36*
Y219035D02*Y217972D01*
X296594D01*
Y219035D01*
X290413D01*
G37*
G36*
Y217067D02*Y216004D01*
X296594D01*
Y217067D01*
X290413D01*
G37*
G36*
Y215098D02*Y214035D01*
X296594D01*
Y215098D01*
X290413D01*
G37*
G36*
Y213130D02*Y212067D01*
X296594D01*
Y213130D01*
X290413D01*
G37*
G36*
Y211161D02*Y210098D01*
X296594D01*
Y211161D01*
X290413D01*
G37*
G36*
Y209193D02*Y208130D01*
X296594D01*
Y209193D01*
X290413D01*
G37*
G36*
Y207224D02*Y206161D01*
X296594D01*
Y207224D01*
X290413D01*
G37*
G36*
X285335Y34449D02*Y31496D01*
X288583D01*
Y34449D01*
X285335D01*
G37*
G36*
X292126D02*Y31496D01*
X295374D01*
Y34449D01*
X292126D01*
G37*
G36*
Y29528D02*Y26575D01*
X295374D01*
Y29528D01*
X292126D01*
G37*
G36*
X285335D02*Y26575D01*
X288583D01*
Y29528D01*
X285335D01*
G37*
G36*
X269094Y29008D02*X264370D01*
Y22945D01*
X269094D01*
Y29008D01*
G37*
G36*
Y38079D02*X264370D01*
Y32016D01*
X269094D01*
Y38079D01*
G37*
G36*
X275984Y36882D02*X271260D01*
Y30819D01*
X275984D01*
Y36882D01*
G37*
G36*
Y45953D02*X271260D01*
Y39890D01*
X275984D01*
Y45953D01*
G37*
G36*
X282874Y29008D02*X278150D01*
Y22945D01*
X282874D01*
Y29008D01*
G37*
G36*
Y38079D02*X278150D01*
Y32016D01*
X282874D01*
Y38079D01*
G37*
G36*
X275984Y20150D02*X271260D01*
Y14087D01*
X275984D01*
Y20150D01*
G37*
G36*
Y29220D02*X271260D01*
Y23157D01*
X275984D01*
Y29220D01*
G37*
G36*
X306622Y35827D02*Y31102D01*
X312685D01*
Y35827D01*
X306622D01*
G37*
G36*
X297551D02*Y31102D01*
X303614D01*
Y35827D01*
X297551D01*
G37*
G36*
X306622Y28937D02*Y24213D01*
X312685D01*
Y28937D01*
X306622D01*
G37*
G36*
X297551D02*Y24213D01*
X303614D01*
Y28937D01*
X297551D01*
G37*
G36*
X52685Y512205D02*Y507480D01*
X58748D01*
Y512205D01*
X52685D01*
G37*
G36*
X43614D02*Y507480D01*
X49677D01*
Y512205D01*
X43614D01*
G37*
G36*
X42400Y523867D02*Y519367D01*
X47500D01*
Y523867D01*
X42400D01*
G37*
G36*
X50600Y519967D02*Y515467D01*
X55700D01*
Y519967D01*
X50600D01*
G37*
G36*
Y527767D02*Y523267D01*
X55700D01*
Y527767D01*
X50600D01*
G37*
G36*
X63386Y520150D02*X58661D01*
Y514087D01*
X63386D01*
Y520150D01*
G37*
G36*
Y529220D02*X58661D01*
Y523157D01*
X63386D01*
Y529220D01*
G37*
G36*
Y544756D02*X58661D01*
Y538693D01*
X63386D01*
Y544756D01*
G37*
G36*
Y553827D02*X58661D01*
Y547764D01*
X63386D01*
Y553827D01*
G37*
G36*
X42400Y548473D02*Y543973D01*
X47500D01*
Y548473D01*
X42400D01*
G37*
G36*
X50600Y544573D02*Y540073D01*
X55700D01*
Y544573D01*
X50600D01*
G37*
G36*
Y552373D02*Y547873D01*
X55700D01*
Y552373D01*
X50600D01*
G37*
G36*
X50717Y536811D02*Y532087D01*
X56780D01*
Y536811D01*
X50717D01*
G37*
G36*
X41646D02*Y532087D01*
X47709D01*
Y536811D01*
X41646D01*
G37*
G36*
X307394Y89961D02*Y85236D01*
X313457D01*
Y89961D01*
X307394D01*
G37*
G36*
X316465D02*Y85236D01*
X322528D01*
Y89961D01*
X316465D01*
G37*
G36*
X307394Y120472D02*Y115748D01*
X313457D01*
Y120472D01*
X307394D01*
G37*
G36*
X316465D02*Y115748D01*
X322528D01*
Y120472D01*
X316465D01*
G37*
G36*
X306409Y456102D02*Y451378D01*
X312472D01*
Y456102D01*
X306409D01*
G37*
G36*
X315480D02*Y451378D01*
X321543D01*
Y456102D01*
X315480D01*
G37*
G36*
X306409Y464961D02*Y460236D01*
X312472D01*
Y464961D01*
X306409D01*
G37*
G36*
X315480D02*Y460236D01*
X321543D01*
Y464961D01*
X315480D01*
G37*
G36*
X306409Y479724D02*Y475000D01*
X312472D01*
Y479724D01*
X306409D01*
G37*
G36*
X315480D02*Y475000D01*
X321543D01*
Y479724D01*
X315480D01*
G37*
G36*
X306409Y487598D02*Y482874D01*
X312472D01*
Y487598D01*
X306409D01*
G37*
G36*
X315480D02*Y482874D01*
X321543D01*
Y487598D01*
X315480D01*
G37*
G36*
X306409Y340945D02*Y336220D01*
X312472D01*
Y340945D01*
X306409D01*
G37*
G36*
X315480D02*Y336220D01*
X321543D01*
Y340945D01*
X315480D01*
G37*
G36*
X306409Y355709D02*Y350984D01*
X312472D01*
Y355709D01*
X306409D01*
G37*
G36*
X315480D02*Y350984D01*
X321543D01*
Y355709D01*
X315480D01*
G37*
G36*
X306409Y363583D02*Y358858D01*
X312472D01*
Y363583D01*
X306409D01*
G37*
G36*
X315480D02*Y358858D01*
X321543D01*
Y363583D01*
X315480D01*
G37*
G36*
X226685Y360630D02*Y355906D01*
X232748D01*
Y360630D01*
X226685D01*
G37*
G36*
X235756D02*Y355906D01*
X241819D01*
Y360630D01*
X235756D01*
G37*
G36*
X306409Y212992D02*Y208268D01*
X312472D01*
Y212992D01*
X306409D01*
G37*
G36*
X315480D02*Y208268D01*
X321543D01*
Y212992D01*
X315480D01*
G37*
G36*
X306409Y220866D02*Y216142D01*
X312472D01*
Y220866D01*
X306409D01*
G37*
G36*
X315480D02*Y216142D01*
X321543D01*
Y220866D01*
X315480D01*
G37*
G36*
X306409Y244488D02*Y239764D01*
X312472D01*
Y244488D01*
X306409D01*
G37*
G36*
X315480D02*Y239764D01*
X321543D01*
Y244488D01*
X315480D01*
G37*
G36*
X229638Y238583D02*Y233858D01*
X235701D01*
Y238583D01*
X229638D01*
G37*
G36*
X238709D02*Y233858D01*
X244772D01*
Y238583D01*
X238709D01*
G37*
G36*
X307394Y97835D02*Y93110D01*
X313457D01*
Y97835D01*
X307394D01*
G37*
G36*
X316465D02*Y93110D01*
X322528D01*
Y97835D01*
X316465D01*
G37*
G36*
X307394Y112598D02*Y107874D01*
X313457D01*
Y112598D01*
X307394D01*
G37*
G36*
X316465D02*Y107874D01*
X322528D01*
Y112598D01*
X316465D01*
G37*
G36*
X306409Y236614D02*Y231890D01*
X312472D01*
Y236614D01*
X306409D01*
G37*
G36*
X315480D02*Y231890D01*
X321543D01*
Y236614D01*
X315480D01*
G37*
G36*
X333465Y158661D02*Y152362D01*
X345669D01*
Y158661D01*
X333465D01*
G37*
G36*
Y133071D02*Y126772D01*
X345669D01*
Y133071D01*
X333465D01*
G37*
G36*
X357973Y122440D02*Y118434D01*
X375576D01*
Y122440D01*
X357973D01*
G37*
G36*
Y118435D02*Y114429D01*
X375576D01*
Y118435D01*
X357973D01*
G37*
G36*
Y111949D02*Y107943D01*
X375576D01*
Y111949D01*
X357973D01*
G37*
G36*
Y107944D02*Y103938D01*
X375576D01*
Y107944D01*
X357973D01*
G37*
G36*
X348740Y106969D02*Y104409D01*
X356024D01*
Y106969D01*
X348740D01*
G37*
G36*
Y111969D02*Y109409D01*
X356024D01*
Y111969D01*
X348740D01*
G37*
G36*
Y116969D02*Y114409D01*
X356024D01*
Y116969D01*
X348740D01*
G37*
G36*
Y121969D02*Y119409D01*
X356024D01*
Y121969D01*
X348740D01*
G37*
G36*
X357973Y146062D02*Y142056D01*
X375576D01*
Y146062D01*
X357973D01*
G37*
G36*
Y142057D02*Y138051D01*
X375576D01*
Y142057D01*
X357973D01*
G37*
G36*
Y135571D02*Y131565D01*
X375576D01*
Y135571D01*
X357973D01*
G37*
G36*
Y131566D02*Y127560D01*
X375576D01*
Y131566D01*
X357973D01*
G37*
G36*
X348740Y130591D02*Y128031D01*
X356024D01*
Y130591D01*
X348740D01*
G37*
G36*
Y135591D02*Y133031D01*
X356024D01*
Y135591D01*
X348740D01*
G37*
G36*
Y140591D02*Y138031D01*
X356024D01*
Y140591D01*
X348740D01*
G37*
G36*
Y145591D02*Y143031D01*
X356024D01*
Y145591D01*
X348740D01*
G37*
G36*
X357973Y98818D02*Y94812D01*
X375576D01*
Y98818D01*
X357973D01*
G37*
G36*
Y94813D02*Y90807D01*
X375576D01*
Y94813D01*
X357973D01*
G37*
G36*
Y88327D02*Y84321D01*
X375576D01*
Y88327D01*
X357973D01*
G37*
G36*
Y84322D02*Y80316D01*
X375576D01*
Y84322D01*
X357973D01*
G37*
G36*
X348740Y83346D02*Y80787D01*
X356024D01*
Y83346D01*
X348740D01*
G37*
G36*
Y88346D02*Y85787D01*
X356024D01*
Y88346D01*
X348740D01*
G37*
G36*
Y93346D02*Y90787D01*
X356024D01*
Y93346D01*
X348740D01*
G37*
G36*
Y98346D02*Y95787D01*
X356024D01*
Y98346D01*
X348740D01*
G37*
G36*
X357973Y74212D02*Y70206D01*
X375576D01*
Y74212D01*
X357973D01*
G37*
G36*
Y70206D02*Y66201D01*
X375576D01*
Y70206D01*
X357973D01*
G37*
G36*
Y63721D02*Y59715D01*
X375576D01*
Y63721D01*
X357973D01*
G37*
G36*
Y59716D02*Y55710D01*
X375576D01*
Y59716D01*
X357973D01*
G37*
G36*
X348740Y58740D02*Y56181D01*
X356024D01*
Y58740D01*
X348740D01*
G37*
G36*
Y63740D02*Y61181D01*
X356024D01*
Y63740D01*
X348740D01*
G37*
G36*
Y68740D02*Y66181D01*
X356024D01*
Y68740D01*
X348740D01*
G37*
G36*
Y73740D02*Y71181D01*
X356024D01*
Y73740D01*
X348740D01*
G37*
G36*
X333465Y52362D02*Y46063D01*
X345669D01*
Y52362D01*
X333465D01*
G37*
G36*
Y77953D02*Y71654D01*
X345669D01*
Y77953D01*
X333465D01*
G37*
G36*
X334449Y281693D02*Y275394D01*
X346654D01*
Y281693D01*
X334449D01*
G37*
G36*
Y256102D02*Y249803D01*
X346654D01*
Y256102D01*
X334449D01*
G37*
G36*
X358958Y220865D02*Y216859D01*
X376560D01*
Y220865D01*
X358958D01*
G37*
G36*
Y216860D02*Y212854D01*
X376560D01*
Y216860D01*
X358958D01*
G37*
G36*
Y210374D02*Y206368D01*
X376560D01*
Y210374D01*
X358958D01*
G37*
G36*
Y206369D02*Y202363D01*
X376560D01*
Y206369D01*
X358958D01*
G37*
G36*
X349724Y205394D02*Y202835D01*
X357008D01*
Y205394D01*
X349724D01*
G37*
G36*
Y210394D02*Y207835D01*
X357008D01*
Y210394D01*
X349724D01*
G37*
G36*
Y215394D02*Y212835D01*
X357008D01*
Y215394D01*
X349724D01*
G37*
G36*
Y220394D02*Y217835D01*
X357008D01*
Y220394D01*
X349724D01*
G37*
G36*
X358958Y244487D02*Y240481D01*
X376560D01*
Y244487D01*
X358958D01*
G37*
G36*
Y240482D02*Y236476D01*
X376560D01*
Y240482D01*
X358958D01*
G37*
G36*
Y233996D02*Y229990D01*
X376560D01*
Y233996D01*
X358958D01*
G37*
G36*
Y229991D02*Y225985D01*
X376560D01*
Y229991D01*
X358958D01*
G37*
G36*
X349724Y229016D02*Y226457D01*
X357008D01*
Y229016D01*
X349724D01*
G37*
G36*
Y234016D02*Y231457D01*
X357008D01*
Y234016D01*
X349724D01*
G37*
G36*
Y239016D02*Y236457D01*
X357008D01*
Y239016D01*
X349724D01*
G37*
G36*
Y244016D02*Y241457D01*
X357008D01*
Y244016D01*
X349724D01*
G37*
G36*
X358958Y268109D02*Y264103D01*
X376560D01*
Y268109D01*
X358958D01*
G37*
G36*
Y264104D02*Y260098D01*
X376560D01*
Y264104D01*
X358958D01*
G37*
G36*
Y257618D02*Y253612D01*
X376560D01*
Y257618D01*
X358958D01*
G37*
G36*
Y253613D02*Y249607D01*
X376560D01*
Y253613D01*
X358958D01*
G37*
G36*
X349724Y252638D02*Y250079D01*
X357008D01*
Y252638D01*
X349724D01*
G37*
G36*
Y257638D02*Y255079D01*
X357008D01*
Y257638D01*
X349724D01*
G37*
G36*
Y262638D02*Y260079D01*
X357008D01*
Y262638D01*
X349724D01*
G37*
G36*
Y267638D02*Y265079D01*
X357008D01*
Y267638D01*
X349724D01*
G37*
G36*
X358958Y196259D02*Y192253D01*
X376560D01*
Y196259D01*
X358958D01*
G37*
G36*
Y192254D02*Y188248D01*
X376560D01*
Y192254D01*
X358958D01*
G37*
G36*
Y185768D02*Y181762D01*
X376560D01*
Y185768D01*
X358958D01*
G37*
G36*
Y181763D02*Y177757D01*
X376560D01*
Y181763D01*
X358958D01*
G37*
G36*
X349724Y180787D02*Y178228D01*
X357008D01*
Y180787D01*
X349724D01*
G37*
G36*
Y185787D02*Y183228D01*
X357008D01*
Y185787D01*
X349724D01*
G37*
G36*
Y190787D02*Y188228D01*
X357008D01*
Y190787D01*
X349724D01*
G37*
G36*
Y195787D02*Y193228D01*
X357008D01*
Y195787D01*
X349724D01*
G37*
G36*
X393110Y270150D02*X388386D01*
Y264087D01*
X393110D01*
Y270150D01*
G37*
G36*
Y279220D02*X388386D01*
Y273157D01*
X393110D01*
Y279220D01*
G37*
G36*
X333465Y173425D02*Y167126D01*
X345669D01*
Y173425D01*
X333465D01*
G37*
G36*
Y199016D02*Y192717D01*
X345669D01*
Y199016D01*
X333465D01*
G37*
G36*
X334449Y293504D02*Y287205D01*
X346654D01*
Y293504D01*
X334449D01*
G37*
G36*
Y319094D02*Y312795D01*
X346654D01*
Y319094D01*
X334449D01*
G37*
G36*
X335433Y400787D02*Y394488D01*
X347638D01*
Y400787D01*
X335433D01*
G37*
G36*
Y375197D02*Y368898D01*
X347638D01*
Y375197D01*
X335433D01*
G37*
G36*
X359942Y341928D02*Y337922D01*
X377544D01*
Y341928D01*
X359942D01*
G37*
G36*
Y337923D02*Y333917D01*
X377544D01*
Y337923D01*
X359942D01*
G37*
G36*
Y331437D02*Y327431D01*
X377544D01*
Y331437D01*
X359942D01*
G37*
G36*
Y327432D02*Y323426D01*
X377544D01*
Y327432D01*
X359942D01*
G37*
G36*
X350709Y326457D02*Y323898D01*
X357992D01*
Y326457D01*
X350709D01*
G37*
G36*
Y331457D02*Y328898D01*
X357992D01*
Y331457D01*
X350709D01*
G37*
G36*
Y336457D02*Y333898D01*
X357992D01*
Y336457D01*
X350709D01*
G37*
G36*
Y341457D02*Y338898D01*
X357992D01*
Y341457D01*
X350709D01*
G37*
G36*
X359942Y366534D02*Y362529D01*
X377544D01*
Y366534D01*
X359942D01*
G37*
G36*
Y362529D02*Y358523D01*
X377544D01*
Y362529D01*
X359942D01*
G37*
G36*
Y356044D02*Y352038D01*
X377544D01*
Y356044D01*
X359942D01*
G37*
G36*
Y352038D02*Y348032D01*
X377544D01*
Y352038D01*
X359942D01*
G37*
G36*
X350709Y351063D02*Y348504D01*
X357992D01*
Y351063D01*
X350709D01*
G37*
G36*
Y356063D02*Y353504D01*
X357992D01*
Y356063D01*
X350709D01*
G37*
G36*
Y361063D02*Y358504D01*
X357992D01*
Y361063D01*
X350709D01*
G37*
G36*
Y366063D02*Y363504D01*
X357992D01*
Y366063D01*
X350709D01*
G37*
G36*
X392126Y391213D02*X387402D01*
Y385150D01*
X392126D01*
Y391213D01*
G37*
G36*
Y400283D02*X387402D01*
Y394220D01*
X392126D01*
Y400283D01*
G37*
G36*
X359942Y390156D02*Y386151D01*
X377544D01*
Y390156D01*
X359942D01*
G37*
G36*
Y386151D02*Y382145D01*
X377544D01*
Y386151D01*
X359942D01*
G37*
G36*
Y379666D02*Y375660D01*
X377544D01*
Y379666D01*
X359942D01*
G37*
G36*
Y375660D02*Y371655D01*
X377544D01*
Y375660D01*
X359942D01*
G37*
G36*
X350709Y374685D02*Y372126D01*
X357992D01*
Y374685D01*
X350709D01*
G37*
G36*
Y379685D02*Y377126D01*
X357992D01*
Y379685D01*
X350709D01*
G37*
G36*
Y384685D02*Y382126D01*
X357992D01*
Y384685D01*
X350709D01*
G37*
G36*
Y389685D02*Y387126D01*
X357992D01*
Y389685D01*
X350709D01*
G37*
G36*
X391142Y426858D02*X386417D01*
Y420795D01*
X391142D01*
Y426858D01*
G37*
G36*
Y417787D02*X386417D01*
Y411724D01*
X391142D01*
Y417787D01*
G37*
G36*
X335433Y418504D02*Y412205D01*
X347638D01*
Y418504D01*
X335433D01*
G37*
G36*
Y444094D02*Y437795D01*
X347638D01*
Y444094D01*
X335433D01*
G37*
G36*
X359942Y439369D02*Y435363D01*
X377544D01*
Y439369D01*
X359942D01*
G37*
G36*
Y435364D02*Y431358D01*
X377544D01*
Y435364D01*
X359942D01*
G37*
G36*
Y428878D02*Y424872D01*
X377544D01*
Y428878D01*
X359942D01*
G37*
G36*
Y424873D02*Y420867D01*
X377544D01*
Y424873D01*
X359942D01*
G37*
G36*
X350709Y423898D02*Y421339D01*
X357992D01*
Y423898D01*
X350709D01*
G37*
G36*
Y428898D02*Y426339D01*
X357992D01*
Y428898D01*
X350709D01*
G37*
G36*
Y433898D02*Y431339D01*
X357992D01*
Y433898D01*
X350709D01*
G37*
G36*
Y438898D02*Y436339D01*
X357992D01*
Y438898D01*
X350709D01*
G37*
G36*
X359942Y463975D02*Y459969D01*
X377544D01*
Y463975D01*
X359942D01*
G37*
G36*
Y459970D02*Y455964D01*
X377544D01*
Y459970D01*
X359942D01*
G37*
G36*
Y453484D02*Y449479D01*
X377544D01*
Y453484D01*
X359942D01*
G37*
G36*
Y449479D02*Y445473D01*
X377544D01*
Y449479D01*
X359942D01*
G37*
G36*
X350709Y448504D02*Y445945D01*
X357992D01*
Y448504D01*
X350709D01*
G37*
G36*
Y453504D02*Y450945D01*
X357992D01*
Y453504D01*
X350709D01*
G37*
G36*
Y458504D02*Y455945D01*
X357992D01*
Y458504D01*
X350709D01*
G37*
G36*
Y463504D02*Y460945D01*
X357992D01*
Y463504D01*
X350709D01*
G37*
G36*
X359942Y487597D02*Y483592D01*
X377544D01*
Y487597D01*
X359942D01*
G37*
G36*
Y483592D02*Y479586D01*
X377544D01*
Y483592D01*
X359942D01*
G37*
G36*
Y477106D02*Y473101D01*
X377544D01*
Y477106D01*
X359942D01*
G37*
G36*
Y473101D02*Y469095D01*
X377544D01*
Y473101D01*
X359942D01*
G37*
G36*
X350709Y472126D02*Y469567D01*
X357992D01*
Y472126D01*
X350709D01*
G37*
G36*
Y477126D02*Y474567D01*
X357992D01*
Y477126D01*
X350709D01*
G37*
G36*
Y482126D02*Y479567D01*
X357992D01*
Y482126D01*
X350709D01*
G37*
G36*
Y487126D02*Y484567D01*
X357992D01*
Y487126D01*
X350709D01*
G37*
G36*
X389173Y513260D02*X384449D01*
Y507197D01*
X389173D01*
Y513260D01*
G37*
G36*
Y522331D02*X384449D01*
Y516268D01*
X389173D01*
Y522331D01*
G37*
G36*
X359942Y511219D02*Y507214D01*
X377544D01*
Y511219D01*
X359942D01*
G37*
G36*
Y507214D02*Y503208D01*
X377544D01*
Y507214D01*
X359942D01*
G37*
G36*
Y500729D02*Y496723D01*
X377544D01*
Y500729D01*
X359942D01*
G37*
G36*
Y496723D02*Y492718D01*
X377544D01*
Y496723D01*
X359942D01*
G37*
G36*
X350709Y495748D02*Y493189D01*
X357992D01*
Y495748D01*
X350709D01*
G37*
G36*
Y500748D02*Y498189D01*
X357992D01*
Y500748D01*
X350709D01*
G37*
G36*
Y505748D02*Y503189D01*
X357992D01*
Y505748D01*
X350709D01*
G37*
G36*
Y510748D02*Y508189D01*
X357992D01*
Y510748D01*
X350709D01*
G37*
G36*
X335433Y522835D02*Y516535D01*
X347638D01*
Y522835D01*
X335433D01*
G37*
G36*
Y497244D02*Y490945D01*
X347638D01*
Y497244D01*
X335433D01*
G37*
G36*
X60393Y214733D02*X59280Y215846D01*
X55037Y211604D01*
X56150Y210491D01*
X60393Y214733D01*
G37*
G36*
X62619Y212507D02*X61506Y213620D01*
X57264Y209377D01*
X58377Y208264D01*
X62619Y212507D01*
G37*
G36*
X64847Y210280D02*X63734Y211393D01*
X59491Y207150D01*
X60604Y206037D01*
X64847Y210280D01*
G37*
G36*
X67074Y208053D02*X65961Y209166D01*
X61718Y204923D01*
X62831Y203810D01*
X67074Y208053D01*
G37*
G36*
X69301Y205826D02*X68188Y206939D01*
X63945Y202696D01*
X65058Y201583D01*
X69301Y205826D01*
G37*
G36*
X71528Y203598D02*X70415Y204711D01*
X66173Y200469D01*
X67286Y199356D01*
X71528Y203598D01*
G37*
G36*
X73755Y201371D02*X72642Y202484D01*
X68399Y198242D01*
X69512Y197129D01*
X73755Y201371D01*
G37*
G36*
X75982Y199144D02*X74869Y200257D01*
X70627Y196014D01*
X71740Y194901D01*
X75982Y199144D01*
G37*
G36*
X78209Y196917D02*X77096Y198030D01*
X72854Y193788D01*
X73967Y192675D01*
X78209Y196917D01*
G37*
G36*
X80437Y194690D02*X79324Y195803D01*
X75081Y191560D01*
X76194Y190447D01*
X80437Y194690D01*
G37*
G36*
X82664Y192463D02*X81551Y193576D01*
X77308Y189333D01*
X78421Y188220D01*
X82664Y192463D01*
G37*
G36*
X84891Y190236D02*X83778Y191349D01*
X79535Y187106D01*
X80648Y185993D01*
X84891Y190236D01*
G37*
G36*
X87118Y188009D02*X86005Y189122D01*
X81762Y184879D01*
X82875Y183766D01*
X87118Y188009D01*
G37*
G36*
X89344Y185782D02*X88231Y186895D01*
X83989Y182652D01*
X85102Y181539D01*
X89344Y185782D01*
G37*
G36*
X91572Y183554D02*X90459Y184667D01*
X86216Y180425D01*
X87329Y179312D01*
X91572Y183554D01*
G37*
G36*
X93799Y181327D02*X92686Y182440D01*
X88444Y178197D01*
X89557Y177084D01*
X93799Y181327D01*
G37*
G36*
X102196Y182440D02*X101083Y181327D01*
X105325Y177084D01*
X106438Y178197D01*
X102196Y182440D01*
G37*
G36*
X104422Y184667D02*X103309Y183553D01*
X107552Y179311D01*
X108665Y180424D01*
X104422Y184667D01*
G37*
G36*
X106650Y186894D02*X105537Y185781D01*
X109779Y181539D01*
X110892Y182652D01*
X106650Y186894D01*
G37*
G36*
X108876Y189121D02*X107763Y188008D01*
X112006Y183765D01*
X113119Y184878D01*
X108876Y189121D01*
G37*
G36*
X111103Y191348D02*X109991Y190235D01*
X114234Y185993D01*
X115346Y187106D01*
X111103Y191348D01*
G37*
G36*
X113331Y193576D02*X112218Y192463D01*
X116461Y188220D01*
X117574Y189333D01*
X113331Y193576D01*
G37*
G36*
X115558Y195802D02*X114445Y194689D01*
X118687Y190446D01*
X119800Y191559D01*
X115558Y195802D01*
G37*
G36*
X117785Y198030D02*X116672Y196916D01*
X120915Y192674D01*
X122028Y193787D01*
X117785Y198030D01*
G37*
G36*
X120012Y200256D02*X118899Y199143D01*
X123141Y194901D01*
X124254Y196014D01*
X120012Y200256D01*
G37*
G36*
X122239Y202484D02*X121126Y201371D01*
X125369Y197128D01*
X126482Y198241D01*
X122239Y202484D01*
G37*
G36*
X124467Y204711D02*X123354Y203598D01*
X127596Y199356D01*
X128709Y200469D01*
X124467Y204711D01*
G37*
G36*
X126693Y206938D02*X125580Y205825D01*
X129823Y201582D01*
X130936Y202695D01*
X126693Y206938D01*
G37*
G36*
X128920Y209165D02*X127807Y208052D01*
X132050Y203809D01*
X133163Y204922D01*
X128920Y209165D01*
G37*
G36*
X131147Y211392D02*X130034Y210279D01*
X134277Y206036D01*
X135390Y207149D01*
X131147Y211392D01*
G37*
G36*
X133375Y213619D02*X132262Y212506D01*
X136504Y208263D01*
X137617Y209376D01*
X133375Y213619D01*
G37*
G36*
X135602Y215846D02*X134489Y214733D01*
X138732Y210491D01*
X139845Y211604D01*
X135602Y215846D01*
G37*
G36*
X139845Y227372D02*X138732Y228485D01*
X134489Y224243D01*
X135602Y223130D01*
X139845Y227372D01*
G37*
G36*
X137618Y229599D02*X136505Y230712D01*
X132263Y226469D01*
X133376Y225356D01*
X137618Y229599D01*
G37*
G36*
X135391Y231826D02*X134278Y232939D01*
X130035Y228697D01*
X131148Y227584D01*
X135391Y231826D01*
G37*
G36*
X133164Y234053D02*X132051Y235166D01*
X127808Y230924D01*
X128921Y229811D01*
X133164Y234053D01*
G37*
G36*
X130937Y236281D02*X129824Y237394D01*
X125581Y233151D01*
X126694Y232038D01*
X130937Y236281D01*
G37*
G36*
X128709Y238508D02*X127596Y239621D01*
X123354Y235378D01*
X124467Y234265D01*
X128709Y238508D01*
G37*
G36*
X126483Y240735D02*X125370Y241848D01*
X121127Y237605D01*
X122240Y236492D01*
X126483Y240735D01*
G37*
G36*
X124255Y242962D02*X123142Y244075D01*
X118900Y239832D01*
X120013Y238719D01*
X124255Y242962D01*
G37*
G36*
X122028Y245189D02*X120915Y246302D01*
X116673Y242059D01*
X117786Y240946D01*
X122028Y245189D01*
G37*
G36*
X119801Y247416D02*X118688Y248529D01*
X114445Y244287D01*
X115558Y243174D01*
X119801Y247416D01*
G37*
G36*
X117574Y249643D02*X116461Y250756D01*
X112218Y246514D01*
X113331Y245401D01*
X117574Y249643D01*
G37*
G36*
X115347Y251870D02*X114234Y252983D01*
X109991Y248741D01*
X111104Y247628D01*
X115347Y251870D01*
G37*
G36*
X113120Y254098D02*X112007Y255211D01*
X107764Y250968D01*
X108877Y249855D01*
X113120Y254098D01*
G37*
G36*
X110893Y256324D02*X109780Y257437D01*
X105537Y253194D01*
X106650Y252082D01*
X110893Y256324D01*
G37*
G36*
X108666Y258552D02*X107553Y259665D01*
X103310Y255422D01*
X104423Y254309D01*
X108666Y258552D01*
G37*
G36*
X106438Y260779D02*X105325Y261892D01*
X101083Y257649D01*
X102196Y256536D01*
X106438Y260779D01*
G37*
G36*
X89557Y261892D02*X88444Y260779D01*
X92686Y256536D01*
X93799Y257649D01*
X89557Y261892D01*
G37*
G36*
X87330Y259665D02*X86217Y258552D01*
X90460Y254310D01*
X91573Y255423D01*
X87330Y259665D01*
G37*
G36*
X85103Y257438D02*X83990Y256325D01*
X88232Y252082D01*
X89345Y253195D01*
X85103Y257438D01*
G37*
G36*
X82876Y255211D02*X81763Y254098D01*
X86005Y249856D01*
X87118Y250968D01*
X82876Y255211D01*
G37*
G36*
X80648Y252984D02*X79535Y251871D01*
X83778Y247628D01*
X84891Y248741D01*
X80648Y252984D01*
G37*
G36*
X78421Y250756D02*X77308Y249643D01*
X81551Y245401D01*
X82664Y246514D01*
X78421Y250756D01*
G37*
G36*
X76195Y248530D02*X75082Y247417D01*
X79324Y243174D01*
X80437Y244287D01*
X76195Y248530D01*
G37*
G36*
X73967Y246302D02*X72854Y245189D01*
X77097Y240947D01*
X78210Y242060D01*
X73967Y246302D01*
G37*
G36*
X71741Y244076D02*X70628Y242963D01*
X74870Y238720D01*
X75983Y239833D01*
X71741Y244076D01*
G37*
G36*
X69513Y241848D02*X68400Y240736D01*
X72642Y236493D01*
X73756Y237605D01*
X69513Y241848D01*
G37*
G36*
X67286Y239621D02*X66173Y238508D01*
X70415Y234265D01*
X71528Y235378D01*
X67286Y239621D01*
G37*
G36*
X65059Y237394D02*X63946Y236281D01*
X68189Y232039D01*
X69302Y233152D01*
X65059Y237394D01*
G37*
G36*
X62831Y235167D02*X61719Y234054D01*
X65961Y229811D01*
X67074Y230924D01*
X62831Y235167D01*
G37*
G36*
X60605Y232940D02*X59492Y231827D01*
X63735Y227585D01*
X64848Y228698D01*
X60605Y232940D01*
G37*
G36*
X58378Y230713D02*X57265Y229600D01*
X61507Y225357D01*
X62620Y226470D01*
X58378Y230713D01*
G37*
G36*
X56150Y228485D02*X55037Y227372D01*
X59280Y223130D01*
X60393Y224243D01*
X56150Y228485D01*
G37*
G36*
X256299Y119559D02*X251575D01*
Y113496D01*
X256299D01*
Y119559D01*
G37*
G36*
Y128630D02*X251575D01*
Y122567D01*
X256299D01*
Y128630D01*
G37*
G36*
Y482748D02*X251575D01*
Y476685D01*
X256299D01*
Y482748D01*
G37*
G36*
Y491819D02*X251575D01*
Y485756D01*
X256299D01*
Y491819D01*
G37*
G36*
X255315Y360701D02*X250591D01*
Y354638D01*
X255315D01*
Y360701D01*
G37*
G36*
Y369772D02*X250591D01*
Y363709D01*
X255315D01*
Y369772D01*
G37*
G36*
X256299Y239638D02*X251575D01*
Y233575D01*
X256299D01*
Y239638D01*
G37*
G36*
Y248709D02*X251575D01*
Y242646D01*
X256299D01*
Y248709D01*
G37*
G36*
X220780Y481693D02*Y476969D01*
X226843D01*
Y481693D01*
X220780D01*
G37*
G36*
X229850D02*Y476969D01*
X235913D01*
Y481693D01*
X229850D01*
G37*
G36*
X216929Y587291D02*X212205D01*
Y581228D01*
X216929D01*
Y587291D01*
G37*
G36*
Y578220D02*X212205D01*
Y572157D01*
X216929D01*
Y578220D01*
G37*
G36*
X227756Y399087D02*X223031D01*
Y393024D01*
X227756D01*
Y399087D01*
G37*
G36*
Y408157D02*X223031D01*
Y402094D01*
X227756D01*
Y408157D01*
G37*
G36*
X220866Y399087D02*X216142D01*
Y393024D01*
X220866D01*
Y399087D01*
G37*
G36*
Y408157D02*X216142D01*
Y402094D01*
X220866D01*
Y408157D01*
G37*
G36*
X213976Y399087D02*X209252D01*
Y393024D01*
X213976D01*
Y399087D01*
G37*
G36*
Y408157D02*X209252D01*
Y402094D01*
X213976D01*
Y408157D01*
G37*
G36*
X211583Y379653D02*Y376253D01*
X215583D01*
Y379653D01*
X211583D01*
G37*
G36*
Y387453D02*Y384053D01*
X215583D01*
Y387453D01*
X211583D01*
G37*
G36*
X203383Y383553D02*Y380153D01*
X207383D01*
Y383553D01*
X203383D01*
G37*
G36*
X278937Y578220D02*X274213D01*
Y572157D01*
X278937D01*
Y578220D01*
G37*
G36*
Y587291D02*X274213D01*
Y581228D01*
X278937D01*
Y587291D01*
G37*
G36*
X72157Y559449D02*Y554724D01*
X78220D01*
Y559449D01*
X72157D01*
G37*
G36*
X81228D02*Y554724D01*
X87291D01*
Y559449D01*
X81228D01*
G37*
G36*
X265157Y578220D02*X260433D01*
Y572157D01*
X265157D01*
Y578220D01*
G37*
G36*
Y587291D02*X260433D01*
Y581228D01*
X265157D01*
Y587291D01*
G37*
G36*
X323268Y588974D02*X308768D01*
Y570474D01*
X323268D01*
Y588974D01*
G37*
G36*
X301468D02*X286968D01*
Y570474D01*
X301468D01*
Y588974D01*
G37*
G36*
X454134Y409913D02*X449409D01*
Y403850D01*
X454134D01*
Y409913D01*
G37*
G36*
Y418984D02*X449409D01*
Y412921D01*
X454134D01*
Y418984D01*
G37*
G36*
X76181Y578433D02*X71457D01*
Y572370D01*
X76181D01*
Y578433D01*
G37*
G36*
Y569362D02*X71457D01*
Y563299D01*
X76181D01*
Y569362D01*
G37*
G36*
X180512Y555583D02*X175787D01*
Y549520D01*
X180512D01*
Y555583D01*
G37*
G36*
Y564654D02*X175787D01*
Y558591D01*
X180512D01*
Y564654D01*
G37*
G36*
X121457Y551646D02*X116732D01*
Y545583D01*
X121457D01*
Y551646D01*
G37*
G36*
Y560717D02*X116732D01*
Y554654D01*
X121457D01*
Y560717D01*
G37*
G36*
X175591Y587291D02*X170866D01*
Y581228D01*
X175591D01*
Y587291D01*
G37*
G36*
Y578220D02*X170866D01*
Y572157D01*
X175591D01*
Y578220D01*
G37*
G36*
X134252Y587291D02*X129528D01*
Y581228D01*
X134252D01*
Y587291D01*
G37*
G36*
Y578220D02*X129528D01*
Y572157D01*
X134252D01*
Y578220D01*
G37*
G36*
X244488Y587291D02*X239764D01*
Y581228D01*
X244488D01*
Y587291D01*
G37*
G36*
Y578220D02*X239764D01*
Y572157D01*
X244488D01*
Y578220D01*
G37*
G36*
X107803Y549606D02*Y544882D01*
X113866D01*
Y549606D01*
X107803D01*
G37*
G36*
X98732D02*Y544882D01*
X104795D01*
Y549606D01*
X98732D01*
G37*
G36*
X90827Y571417D02*Y570315D01*
X95629D01*
Y571417D01*
X90827D01*
G37*
G36*
Y569448D02*Y568346D01*
X95629D01*
Y569448D01*
X90827D01*
G37*
G36*
Y567480D02*Y566378D01*
X95629D01*
Y567480D01*
X90827D01*
G37*
G36*
Y565512D02*Y564410D01*
X95629D01*
Y565512D01*
X90827D01*
G37*
G36*
Y563543D02*Y562441D01*
X95629D01*
Y563543D01*
X90827D01*
G37*
G36*
X97992Y561180D02*X96890D01*
Y556378D01*
X97992D01*
Y561180D01*
G37*
G36*
X99961D02*X98859D01*
Y556378D01*
X99961D01*
Y561180D01*
G37*
G36*
X101929D02*X100827D01*
Y556378D01*
X101929D01*
Y561180D01*
G37*
G36*
X103897D02*X102795D01*
Y556378D01*
X103897D01*
Y561180D01*
G37*
G36*
X105866D02*X104764D01*
Y556378D01*
X105866D01*
Y561180D01*
G37*
G36*
X107127Y563543D02*Y562441D01*
X111929D01*
Y563543D01*
X107127D01*
G37*
G36*
Y565512D02*Y564410D01*
X111929D01*
Y565512D01*
X107127D01*
G37*
G36*
Y567480D02*Y566378D01*
X111929D01*
Y567480D01*
X107127D01*
G37*
G36*
Y569448D02*Y568346D01*
X111929D01*
Y569448D01*
X107127D01*
G37*
G36*
Y571417D02*Y570315D01*
X111929D01*
Y571417D01*
X107127D01*
G37*
G36*
X105866Y577480D02*X104764D01*
Y572678D01*
X105866D01*
Y577480D01*
G37*
G36*
X103897D02*X102795D01*
Y572678D01*
X103897D01*
Y577480D01*
G37*
G36*
X101929D02*X100827D01*
Y572678D01*
X101929D01*
Y577480D01*
G37*
G36*
X99961D02*X98859D01*
Y572678D01*
X99961D01*
Y577480D01*
G37*
G36*
X97992D02*X96890D01*
Y572678D01*
X97992D01*
Y577480D01*
G37*
G36*
X96260Y572047D02*Y561811D01*
X106496D01*
Y572047D01*
X96260D01*
G37*
G36*
X251378Y587291D02*X246654D01*
Y581228D01*
X251378D01*
Y587291D01*
G37*
G36*
Y578220D02*X246654D01*
Y572157D01*
X251378D01*
Y578220D01*
G37*
G36*
X459803Y451220D02*Y449567D01*
X467756D01*
Y451220D01*
X459803D01*
G37*
G36*
Y448071D02*Y446417D01*
X467756D01*
Y448071D01*
X459803D01*
G37*
G36*
Y444921D02*Y443268D01*
X467756D01*
Y444921D01*
X459803D01*
G37*
G36*
Y441772D02*Y440118D01*
X467756D01*
Y441772D01*
X459803D01*
G37*
G36*
Y438622D02*Y436969D01*
X467756D01*
Y438622D01*
X459803D01*
G37*
G36*
Y435472D02*Y433819D01*
X467756D01*
Y435472D01*
X459803D01*
G37*
G36*
Y416575D02*Y414921D01*
X467756D01*
Y416575D01*
X459803D01*
G37*
G36*
Y419724D02*Y418071D01*
X467756D01*
Y419724D01*
X459803D01*
G37*
G36*
Y422874D02*Y421220D01*
X467756D01*
Y422874D01*
X459803D01*
G37*
G36*
Y426024D02*Y424370D01*
X467756D01*
Y426024D01*
X459803D01*
G37*
G36*
Y429173D02*Y427520D01*
X467756D01*
Y429173D01*
X459803D01*
G37*
G36*
Y432323D02*Y430669D01*
X467756D01*
Y432323D01*
X459803D01*
G37*
G36*
X496811Y451220D02*Y449567D01*
X504764D01*
Y451220D01*
X496811D01*
G37*
G36*
Y448071D02*Y446417D01*
X504764D01*
Y448071D01*
X496811D01*
G37*
G36*
Y444921D02*Y443268D01*
X504764D01*
Y444921D01*
X496811D01*
G37*
G36*
Y441772D02*Y440118D01*
X504764D01*
Y441772D01*
X496811D01*
G37*
G36*
Y438622D02*Y436969D01*
X504764D01*
Y438622D01*
X496811D01*
G37*
G36*
Y435472D02*Y433819D01*
X504764D01*
Y435472D01*
X496811D01*
G37*
G36*
Y416575D02*Y414921D01*
X504764D01*
Y416575D01*
X496811D01*
G37*
G36*
Y419724D02*Y418071D01*
X504764D01*
Y419724D01*
X496811D01*
G37*
G36*
Y422874D02*Y421220D01*
X504764D01*
Y422874D01*
X496811D01*
G37*
G36*
Y426024D02*Y424370D01*
X504764D01*
Y426024D01*
X496811D01*
G37*
G36*
Y429173D02*Y427520D01*
X504764D01*
Y429173D01*
X496811D01*
G37*
G36*
Y432323D02*Y430669D01*
X504764D01*
Y432323D01*
X496811D01*
G37*
G36*
X490945Y450394D02*X473622D01*
Y415748D01*
X490945D01*
Y450394D01*
G37*
G36*
X419598Y583071D02*Y578346D01*
X425661D01*
Y583071D01*
X419598D01*
G37*
G36*
X428669D02*Y578346D01*
X434732D01*
Y583071D01*
X428669D01*
G37*
G36*
X430087Y589298D02*Y585898D01*
X434087D01*
Y589298D01*
X430087D01*
G37*
G36*
Y597098D02*Y593698D01*
X434087D01*
Y597098D01*
X430087D01*
G37*
G36*
X421887Y593198D02*Y589798D01*
X425887D01*
Y593198D01*
X421887D01*
G37*
G36*
X439764Y595984D02*Y591260D01*
X448425D01*
Y595984D01*
X439764D01*
G37*
G36*
X456299Y596063D02*Y573228D01*
X481496D01*
Y596063D01*
X456299D01*
G37*
G36*
X439764Y578031D02*Y573307D01*
X448425D01*
Y578031D01*
X439764D01*
G37*
G36*
X52165Y430709D02*Y426575D01*
X62008D01*
Y430709D01*
X52165D01*
G37*
G36*
Y417913D02*Y413780D01*
X62008D01*
Y417913D01*
X52165D01*
G37*
G36*
X90748Y408858D02*X76969D01*
Y368701D01*
X90748D01*
Y408858D01*
G37*
G36*
X64764D02*X50984D01*
Y368701D01*
X64764D01*
Y408858D01*
G37*
G36*
X72157Y344882D02*Y340157D01*
X78220D01*
Y344882D01*
X72157D01*
G37*
G36*
X81228D02*Y340157D01*
X87291D01*
Y344882D01*
X81228D01*
G37*
G36*
X103465Y400728D02*X98740D01*
Y392579D01*
X103465D01*
Y400728D01*
G37*
G36*
X121732D02*X117008D01*
Y392579D01*
X121732D01*
Y400728D01*
G37*
G36*
X140748Y371654D02*Y367520D01*
X150591D01*
Y371654D01*
X140748D01*
G37*
G36*
Y384449D02*Y380315D01*
X150591D01*
Y384449D01*
X140748D01*
G37*
G36*
X102362Y374429D02*Y372854D01*
X108268D01*
Y374429D01*
X102362D01*
G37*
G36*
Y369429D02*Y367854D01*
X108268D01*
Y369429D01*
X102362D01*
G37*
G36*
Y364429D02*Y362854D01*
X108268D01*
Y364429D01*
X102362D01*
G37*
G36*
Y359429D02*Y357854D01*
X108268D01*
Y359429D01*
X102362D01*
G37*
G36*
X124016Y374429D02*Y372854D01*
X129921D01*
Y374429D01*
X124016D01*
G37*
G36*
Y369429D02*Y367854D01*
X129921D01*
Y369429D01*
X124016D01*
G37*
G36*
Y364429D02*Y362854D01*
X129921D01*
Y364429D01*
X124016D01*
G37*
G36*
Y359429D02*Y357854D01*
X129921D01*
Y359429D01*
X124016D01*
G37*
G36*
X122047Y373031D02*X110236D01*
Y359252D01*
X122047D01*
Y373031D01*
G37*
G36*
X207087Y399087D02*X202362D01*
Y393024D01*
X207087D01*
Y399087D01*
G37*
G36*
Y408157D02*X202362D01*
Y402094D01*
X207087D01*
Y408157D01*
G37*
G36*
X38906Y573228D02*Y568504D01*
X44969D01*
Y573228D01*
X38906D01*
G37*
G36*
X29835D02*Y568504D01*
X35898D01*
Y573228D01*
X29835D01*
G37*
G36*
X272047Y578220D02*X267323D01*
Y572157D01*
X272047D01*
Y578220D01*
G37*
G36*
Y587291D02*X267323D01*
Y581228D01*
X272047D01*
Y587291D01*
G37*
G36*
X137205Y372512D02*X132480D01*
Y366449D01*
X137205D01*
Y372512D01*
G37*
G36*
Y381583D02*X132480D01*
Y375520D01*
X137205D01*
Y381583D01*
G37*
G36*
X100701Y346850D02*Y342126D01*
X106764D01*
Y346850D01*
X100701D01*
G37*
G36*
X109772D02*Y342126D01*
X115835D01*
Y346850D01*
X109772D01*
G37*
G36*
X109559Y355709D02*Y350984D01*
X115622D01*
Y355709D01*
X109559D01*
G37*
G36*
X118630D02*Y350984D01*
X124693D01*
Y355709D01*
X118630D01*
G37*
G36*
X118417Y346850D02*Y342126D01*
X124480D01*
Y346850D01*
X118417D01*
G37*
G36*
X127488D02*Y342126D01*
X133551D01*
Y346850D01*
X127488D01*
G37*
G36*
X135150Y363583D02*Y358858D01*
X141213D01*
Y363583D01*
X135150D01*
G37*
G36*
X144220D02*Y358858D01*
X150283D01*
Y363583D01*
X144220D01*
G37*
G36*
X84055Y364850D02*X79331D01*
Y358787D01*
X84055D01*
Y364850D01*
G37*
G36*
Y355780D02*X79331D01*
Y349717D01*
X84055D01*
Y355780D01*
G37*
G36*
X91929D02*X87205D01*
Y349717D01*
X91929D01*
Y355780D01*
G37*
G36*
Y364850D02*X87205D01*
Y358787D01*
X91929D01*
Y364850D01*
G37*
G36*
X81228Y337992D02*Y333268D01*
X87291D01*
Y337992D01*
X81228D01*
G37*
G36*
X72157D02*Y333268D01*
X78220D01*
Y337992D01*
X72157D01*
G37*
G36*
X90858D02*Y333268D01*
X96921D01*
Y337992D01*
X90858D01*
G37*
G36*
X99929D02*Y333268D01*
X105992D01*
Y337992D01*
X99929D01*
G37*
G36*
X141142Y346921D02*X136417D01*
Y340858D01*
X141142D01*
Y346921D01*
G37*
G36*
Y355992D02*X136417D01*
Y349929D01*
X141142D01*
Y355992D01*
G37*
G36*
X102439Y476622D02*Y472122D01*
X107539D01*
Y476622D01*
X102439D01*
G37*
G36*
X110639Y472722D02*Y468222D01*
X115739D01*
Y472722D01*
X110639D01*
G37*
G36*
Y480522D02*Y476022D01*
X115739D01*
Y480522D01*
X110639D01*
G37*
G36*
X83228Y477417D02*Y471118D01*
X95075D01*
Y477417D01*
X83228D01*
G37*
G36*
Y495417D02*Y489118D01*
X95075D01*
Y495417D01*
X83228D01*
G37*
G36*
X48661Y494685D02*Y471850D01*
X73071D01*
Y494685D01*
X48661D01*
G37*
G36*
X131299Y464047D02*X126575D01*
Y457984D01*
X131299D01*
Y464047D01*
G37*
G36*
Y473118D02*X126575D01*
Y467055D01*
X131299D01*
Y473118D01*
G37*
G36*
X106693Y507567D02*X101969D01*
Y501504D01*
X106693D01*
Y507567D01*
G37*
G36*
Y498496D02*X101969D01*
Y492433D01*
X106693D01*
Y498496D01*
G37*
G36*
X42170Y129131D02*X36570D01*
Y116931D01*
X42170D01*
Y129131D01*
G37*
G36*
X33170D02*X27570D01*
Y116931D01*
X33170D01*
Y129131D01*
G37*
G36*
X24070D02*X18470D01*
Y116931D01*
X24070D01*
Y129131D01*
G37*
G36*
X19770Y104731D02*Y92531D01*
X40970D01*
Y104731D01*
X19770D01*
G37*
G36*
X24016Y149299D02*X19291D01*
Y143236D01*
X24016D01*
Y149299D01*
G37*
G36*
Y140228D02*X19291D01*
Y134165D01*
X24016D01*
Y140228D01*
G37*
G36*
X32874Y148315D02*X28150D01*
Y142252D01*
X32874D01*
Y148315D01*
G37*
G36*
Y139244D02*X28150D01*
Y133181D01*
X32874D01*
Y139244D01*
G37*
G36*
X237598Y578220D02*X232874D01*
Y572157D01*
X237598D01*
Y578220D01*
G37*
G36*
Y587291D02*X232874D01*
Y581228D01*
X237598D01*
Y587291D01*
G37*
G36*
X230709Y578220D02*X225984D01*
Y572157D01*
X230709D01*
Y578220D01*
G37*
G36*
Y587291D02*X225984D01*
Y581228D01*
X230709D01*
Y587291D01*
G37*
G36*
X223819Y578220D02*X219094D01*
Y572157D01*
X223819D01*
Y578220D01*
G37*
G36*
Y587291D02*X219094D01*
Y581228D01*
X223819D01*
Y587291D01*
G37*
G36*
X210039Y578220D02*X205315D01*
Y572157D01*
X210039D01*
Y578220D01*
G37*
G36*
Y587291D02*X205315D01*
Y581228D01*
X210039D01*
Y587291D01*
G37*
G36*
X203150Y578220D02*X198425D01*
Y572157D01*
X203150D01*
Y578220D01*
G37*
G36*
Y587291D02*X198425D01*
Y581228D01*
X203150D01*
Y587291D01*
G37*
G36*
X196260Y578220D02*X191535D01*
Y572157D01*
X196260D01*
Y578220D01*
G37*
G36*
Y587291D02*X191535D01*
Y581228D01*
X196260D01*
Y587291D01*
G37*
G36*
X189370Y578220D02*X184646D01*
Y572157D01*
X189370D01*
Y578220D01*
G37*
G36*
Y587291D02*X184646D01*
Y581228D01*
X189370D01*
Y587291D01*
G37*
G36*
X182480Y578220D02*X177756D01*
Y572157D01*
X182480D01*
Y578220D01*
G37*
G36*
Y587291D02*X177756D01*
Y581228D01*
X182480D01*
Y587291D01*
G37*
G36*
X168701Y578220D02*X163976D01*
Y572157D01*
X168701D01*
Y578220D01*
G37*
G36*
Y587291D02*X163976D01*
Y581228D01*
X168701D01*
Y587291D01*
G37*
G36*
X161811Y578220D02*X157087D01*
Y572157D01*
X161811D01*
Y578220D01*
G37*
G36*
Y587291D02*X157087D01*
Y581228D01*
X161811D01*
Y587291D01*
G37*
G36*
X154921Y578220D02*X150197D01*
Y572157D01*
X154921D01*
Y578220D01*
G37*
G36*
Y587291D02*X150197D01*
Y581228D01*
X154921D01*
Y587291D01*
G37*
G36*
X148031Y578220D02*X143307D01*
Y572157D01*
X148031D01*
Y578220D01*
G37*
G36*
Y587291D02*X143307D01*
Y581228D01*
X148031D01*
Y587291D01*
G37*
G36*
X141142Y578220D02*X136417D01*
Y572157D01*
X141142D01*
Y578220D01*
G37*
G36*
Y587291D02*X136417D01*
Y581228D01*
X141142D01*
Y587291D01*
G37*
G36*
X29835Y587008D02*Y582283D01*
X35898D01*
Y587008D01*
X29835D01*
G37*
G36*
X38906D02*Y582283D01*
X44969D01*
Y587008D01*
X38906D01*
G37*
G36*
X86921Y586024D02*Y581299D01*
X92984D01*
Y586024D01*
X86921D01*
G37*
G36*
X95992D02*Y581299D01*
X102055D01*
Y586024D01*
X95992D01*
G37*
G36*
Y592913D02*Y588189D01*
X102055D01*
Y592913D01*
X95992D01*
G37*
G36*
X86921D02*Y588189D01*
X92984D01*
Y592913D01*
X86921D01*
G37*
G36*
X38906Y593898D02*Y589173D01*
X44969D01*
Y593898D01*
X38906D01*
G37*
G36*
X29835D02*Y589173D01*
X35898D01*
Y593898D01*
X29835D01*
G37*
G36*
X258268Y578220D02*X253543D01*
Y572157D01*
X258268D01*
Y578220D01*
G37*
G36*
Y587291D02*X253543D01*
Y581228D01*
X258268D01*
Y587291D01*
G37*
G36*
X147047Y394165D02*X142323D01*
Y388102D01*
X147047D01*
Y394165D01*
G37*
G36*
Y403236D02*X142323D01*
Y397173D01*
X147047D01*
Y403236D01*
G37*
G36*
X38906Y580118D02*Y575394D01*
X44969D01*
Y580118D01*
X38906D01*
G37*
G36*
X29835D02*Y575394D01*
X35898D01*
Y580118D01*
X29835D01*
G37*
G36*
X130052Y268444D02*X126711Y271784D01*
X122425Y267498D01*
X125765Y264157D01*
X130052Y268444D01*
G37*
G36*
X123638Y262030D02*X120298Y265371D01*
X116011Y261084D01*
X119351Y257743D01*
X123638Y262030D01*
G37*
G36*
X190480Y116535D02*Y111811D01*
X196543D01*
Y116535D01*
X190480D01*
G37*
G36*
X181409D02*Y111811D01*
X187472D01*
Y116535D01*
X181409D01*
G37*
G36*
X223819Y489638D02*X219094D01*
Y483575D01*
X223819D01*
Y489638D01*
G37*
G36*
Y498709D02*X219094D01*
Y492646D01*
X223819D01*
Y498709D01*
G37*
G36*
X235756Y367520D02*Y362795D01*
X241819D01*
Y367520D01*
X235756D01*
G37*
G36*
X226685D02*Y362795D01*
X232748D01*
Y367520D01*
X226685D01*
G37*
G36*
X238709Y245472D02*Y240748D01*
X244772D01*
Y245472D01*
X238709D01*
G37*
G36*
X229638D02*Y240748D01*
X235701D01*
Y245472D01*
X229638D01*
G37*
G36*
X231606Y116535D02*Y111811D01*
X237669D01*
Y116535D01*
X231606D01*
G37*
G36*
X240677D02*Y111811D01*
X246740D01*
Y116535D01*
X240677D01*
G37*
G36*
X263189Y128630D02*X258465D01*
Y122567D01*
X263189D01*
Y128630D01*
G37*
G36*
Y119559D02*X258465D01*
Y113496D01*
X263189D01*
Y119559D01*
G37*
G36*
X181409Y340945D02*Y336220D01*
X187472D01*
Y340945D01*
X181409D01*
G37*
G36*
X190480D02*Y336220D01*
X196543D01*
Y340945D01*
X190480D01*
G37*
G36*
X496142Y398169D02*X490630D01*
Y389232D01*
X496142D01*
Y398169D01*
G37*
G36*
X477874D02*X472362D01*
Y389232D01*
X477874D01*
Y398169D01*
G37*
G36*
X492579Y483780D02*Y478268D01*
X501516D01*
Y483780D01*
X492579D01*
G37*
G36*
Y502047D02*Y496535D01*
X501516D01*
Y502047D01*
X492579D01*
G37*
G36*
X169370Y521201D02*X163858D01*
Y512264D01*
X169370D01*
Y521201D01*
G37*
G36*
X151102D02*X145591D01*
Y512264D01*
X151102D01*
Y521201D01*
G37*
G36*
X306409Y332087D02*Y327362D01*
X312472D01*
Y332087D01*
X306409D01*
G37*
G36*
X315480D02*Y327362D01*
X321543D01*
Y332087D01*
X315480D01*
G37*
G36*
X94024Y40748D02*Y36024D01*
X100087D01*
Y40748D01*
X94024D01*
G37*
G36*
X84953D02*Y36024D01*
X91016D01*
Y40748D01*
X84953D01*
G37*
G36*
X87134Y14173D02*Y9449D01*
X93197D01*
Y14173D01*
X87134D01*
G37*
G36*
X78063D02*Y9449D01*
X84126D01*
Y14173D01*
X78063D01*
G37*
G36*
X109772Y25000D02*Y20276D01*
X115835D01*
Y25000D01*
X109772D01*
G37*
G36*
X100701D02*Y20276D01*
X106764D01*
Y25000D01*
X100701D01*
G37*
G36*
X65354Y21134D02*X60630D01*
Y15071D01*
X65354D01*
Y21134D01*
G37*
G36*
Y30205D02*X60630D01*
Y24142D01*
X65354D01*
Y30205D01*
G37*
G36*
X76307Y40748D02*Y36024D01*
X82370D01*
Y40748D01*
X76307D01*
G37*
G36*
X67236D02*Y36024D01*
X73299D01*
Y40748D01*
X67236D01*
G37*
G36*
X69161Y34091D02*Y32091D01*
X77661D01*
Y34091D01*
X69161D01*
G37*
G36*
Y29091D02*Y27091D01*
X77661D01*
Y29091D01*
X69161D01*
G37*
G36*
Y24091D02*Y22091D01*
X77661D01*
Y24091D01*
X69161D01*
G37*
G36*
Y19091D02*Y17091D01*
X77661D01*
Y19091D01*
X69161D01*
G37*
G36*
X89661D02*Y17091D01*
X98161D01*
Y19091D01*
X89661D01*
G37*
G36*
Y24091D02*Y22091D01*
X98161D01*
Y24091D01*
X89661D01*
G37*
G36*
Y29091D02*Y27091D01*
X98161D01*
Y29091D01*
X89661D01*
G37*
G36*
Y34091D02*Y32091D01*
X98161D01*
Y34091D01*
X89661D01*
G37*
G36*
X100701Y31890D02*Y27165D01*
X106764D01*
Y31890D01*
X100701D01*
G37*
G36*
X109772D02*Y27165D01*
X115835D01*
Y31890D01*
X109772D01*
G37*
G36*
X90945Y160898D02*X86220D01*
Y154835D01*
X90945D01*
Y160898D01*
G37*
G36*
Y169969D02*X86220D01*
Y163906D01*
X90945D01*
Y169969D01*
G37*
G36*
X495598Y49606D02*Y44882D01*
X501661D01*
Y49606D01*
X495598D01*
G37*
G36*
X486528D02*Y44882D01*
X492591D01*
Y49606D01*
X486528D01*
G37*
G36*
Y42717D02*Y37992D01*
X492591D01*
Y42717D01*
X486528D01*
G37*
G36*
X495598D02*Y37992D01*
X501661D01*
Y42717D01*
X495598D01*
G37*
G36*
Y111614D02*Y106890D01*
X501661D01*
Y111614D01*
X495598D01*
G37*
G36*
X486528D02*Y106890D01*
X492591D01*
Y111614D01*
X486528D01*
G37*
G36*
X495598Y104724D02*Y100000D01*
X501661D01*
Y104724D01*
X495598D01*
G37*
G36*
X486528D02*Y100000D01*
X492591D01*
Y104724D01*
X486528D01*
G37*
G36*
X495598Y84055D02*Y79331D01*
X501661D01*
Y84055D01*
X495598D01*
G37*
G36*
X486528D02*Y79331D01*
X492591D01*
Y84055D01*
X486528D01*
G37*
G36*
X495598Y77165D02*Y72441D01*
X501661D01*
Y77165D01*
X495598D01*
G37*
G36*
X486528D02*Y72441D01*
X492591D01*
Y77165D01*
X486528D01*
G37*
G36*
Y90945D02*Y86220D01*
X492591D01*
Y90945D01*
X486528D01*
G37*
G36*
X495598D02*Y86220D01*
X501661D01*
Y90945D01*
X495598D01*
G37*
G36*
X486528Y70276D02*Y65551D01*
X492591D01*
Y70276D01*
X486528D01*
G37*
G36*
X495598D02*Y65551D01*
X501661D01*
Y70276D01*
X495598D01*
G37*
G36*
X486528Y97835D02*Y93110D01*
X492591D01*
Y97835D01*
X486528D01*
G37*
G36*
X495598D02*Y93110D01*
X501661D01*
Y97835D01*
X495598D01*
G37*
G36*
X486528Y118504D02*Y113780D01*
X492591D01*
Y118504D01*
X486528D01*
G37*
G36*
X495598D02*Y113780D01*
X501661D01*
Y118504D01*
X495598D01*
G37*
G36*
X486528Y63386D02*Y58661D01*
X492591D01*
Y63386D01*
X486528D01*
G37*
G36*
X495598D02*Y58661D01*
X501661D01*
Y63386D01*
X495598D01*
G37*
G36*
Y56496D02*Y51772D01*
X501661D01*
Y56496D01*
X495598D01*
G37*
G36*
X486528D02*Y51772D01*
X492591D01*
Y56496D01*
X486528D01*
G37*
G36*
Y125394D02*Y120669D01*
X492591D01*
Y125394D01*
X486528D01*
G37*
G36*
X495598D02*Y120669D01*
X501661D01*
Y125394D01*
X495598D01*
G37*
G36*
X486528Y146063D02*Y141339D01*
X492591D01*
Y146063D01*
X486528D01*
G37*
G36*
X495598D02*Y141339D01*
X501661D01*
Y146063D01*
X495598D01*
G37*
G36*
Y132283D02*Y127559D01*
X501661D01*
Y132283D01*
X495598D01*
G37*
G36*
X486528D02*Y127559D01*
X492591D01*
Y132283D01*
X486528D01*
G37*
G36*
X495598Y139173D02*Y134449D01*
X501661D01*
Y139173D01*
X495598D01*
G37*
G36*
X486528D02*Y134449D01*
X492591D01*
Y139173D01*
X486528D01*
G37*
G36*
Y180512D02*Y175787D01*
X492591D01*
Y180512D01*
X486528D01*
G37*
G36*
X495598D02*Y175787D01*
X501661D01*
Y180512D01*
X495598D01*
G37*
G36*
X486528Y228740D02*Y224016D01*
X492591D01*
Y228740D01*
X486528D01*
G37*
G36*
X495598D02*Y224016D01*
X501661D01*
Y228740D01*
X495598D01*
G37*
G36*
X486528Y208071D02*Y203346D01*
X492591D01*
Y208071D01*
X486528D01*
G37*
G36*
X495598D02*Y203346D01*
X501661D01*
Y208071D01*
X495598D01*
G37*
G36*
X486528Y235630D02*Y230906D01*
X492591D01*
Y235630D01*
X486528D01*
G37*
G36*
X495598D02*Y230906D01*
X501661D01*
Y235630D01*
X495598D01*
G37*
G36*
X486528Y201181D02*Y196457D01*
X492591D01*
Y201181D01*
X486528D01*
G37*
G36*
X495598D02*Y196457D01*
X501661D01*
Y201181D01*
X495598D01*
G37*
G36*
Y187402D02*Y182677D01*
X501661D01*
Y187402D01*
X495598D01*
G37*
G36*
X486528D02*Y182677D01*
X492591D01*
Y187402D01*
X486528D01*
G37*
G36*
X495598Y194291D02*Y189567D01*
X501661D01*
Y194291D01*
X495598D01*
G37*
G36*
X486528D02*Y189567D01*
X492591D01*
Y194291D01*
X486528D01*
G37*
G36*
X495598Y214961D02*Y210236D01*
X501661D01*
Y214961D01*
X495598D01*
G37*
G36*
X486528D02*Y210236D01*
X492591D01*
Y214961D01*
X486528D01*
G37*
G36*
X495598Y242520D02*Y237795D01*
X501661D01*
Y242520D01*
X495598D01*
G37*
G36*
X486528D02*Y237795D01*
X492591D01*
Y242520D01*
X486528D01*
G37*
G36*
X495598Y221850D02*Y217126D01*
X501661D01*
Y221850D01*
X495598D01*
G37*
G36*
X486528D02*Y217126D01*
X492591D01*
Y221850D01*
X486528D01*
G37*
G36*
Y152953D02*Y148228D01*
X492591D01*
Y152953D01*
X486528D01*
G37*
G36*
X495598D02*Y148228D01*
X501661D01*
Y152953D01*
X495598D01*
G37*
G36*
X486528Y173622D02*Y168898D01*
X492591D01*
Y173622D01*
X486528D01*
G37*
G36*
X495598D02*Y168898D01*
X501661D01*
Y173622D01*
X495598D01*
G37*
G36*
Y159843D02*Y155118D01*
X501661D01*
Y159843D01*
X495598D01*
G37*
G36*
X486528D02*Y155118D01*
X492591D01*
Y159843D01*
X486528D01*
G37*
G36*
X495598Y166732D02*Y162008D01*
X501661D01*
Y166732D01*
X495598D01*
G37*
G36*
X486528D02*Y162008D01*
X492591D01*
Y166732D01*
X486528D01*
G37*
G36*
X76307Y467913D02*Y463189D01*
X82370D01*
Y467913D01*
X76307D01*
G37*
G36*
X67236D02*Y463189D01*
X73299D01*
Y467913D01*
X67236D01*
G37*
M02*
