M48
INCH
T124C0.059
T123C0.035
T122C0.020
T121C0.009
T120C0.118
T119C0.071
T118C0.040
T117C0.043
T116C0.120
T115C0.028
T114C0.040
T113C0.038
%
T121
X022146Y032480
X022146Y031791
X022146Y031201
X022244Y044685
X022244Y043701
X022736Y031791
X022835Y032185
X023228Y043996
X023228Y043307
X023228Y031791
X023622Y039075
X023622Y038583
X023622Y038091
X023622Y037500
X023720Y026870
X023720Y026378
X023720Y025886
X023720Y025394
X023720Y006791
X023720Y006299
X023720Y005807
X023917Y018012
X023917Y017520
X023917Y016831
X023917Y014862
X023917Y014272
X023917Y013780
X023917Y013287
X024016Y043996
X024016Y043307
X024114Y031890
X024311Y039075
X024311Y038583
X024311Y038091
X024311Y037500
X024409Y026870
X024409Y026378
X024409Y025886
X024409Y025394
X024508Y017913
X024508Y017323
X024508Y016732
X024508Y014862
X024508Y014272
X024508Y013780
X024508Y013287
X024508Y006791
X024508Y006299
X024508Y005807
X024803Y045177
X024803Y043996
X024803Y043307
X024902Y032874
X024902Y032382
X024902Y031890
X024902Y031496
X025098Y017913
X025098Y016732
X025295Y006791
X025295Y005512
X025689Y039075
X025787Y017913
X025787Y016732
X025787Y006791
X025787Y005512
X025984Y014764
X025984Y013386
X026083Y026673
X026476Y006791
X026772Y039075
X026772Y038287
X026772Y026870
X026772Y026181
X026772Y017421
X026772Y016831
X026772Y014764
X026772Y014075
X026772Y005512
X027559Y017421
X027559Y016831
X027559Y005512
X027657Y048425
X027657Y048031
X027657Y047539
X027657Y047047
X027657Y046555
X027657Y045965
X027657Y045571
X027657Y044980
X027657Y039075
X027657Y038287
X027657Y037500
X027657Y036319
X027657Y035827
X027657Y035335
X027657Y034843
X027657Y034350
X027657Y033858
X027657Y033366
X027657Y032874
X027657Y026870
X027657Y026181
X027657Y025394
X027756Y024213
X027756Y023720
X027756Y023228
X027756Y022736
X027756Y022244
X027756Y021752
X027756Y021260
X027756Y020768
X027854Y012008
X027854Y011614
X027854Y011122
X027854Y010630
X027854Y010138
X027854Y009547
X027854Y009154
X027854Y008563
X027953Y050886
X027953Y049705
X028051Y037894
X028051Y005512
X028150Y048425
X028150Y048031
X028150Y047539
X028150Y047047
X028150Y046555
X028150Y045965
X028150Y045571
X028150Y044980
X028150Y036319
X028150Y035827
X028150Y035335
X028150Y034843
X028150Y034350
X028150Y033858
X028150Y033366
X028150Y032874
X028150Y025886
X028150Y017421
X028150Y016831
X028150Y014764
X028150Y014075
X028150Y013484
X028248Y024213
X028248Y023720
X028248Y023228
X028248Y022736
X028248Y022244
X028248Y021752
X028248Y021260
X028248Y020768
X028346Y012008
X028346Y011614
X028346Y011122
X028346Y010630
X028346Y010138
X028346Y009547
X028346Y009154
X028346Y008563
X028543Y039075
X028543Y038287
X028543Y037500
X028642Y048425
X028642Y048031
X028642Y047539
X028642Y047047
X028642Y046555
X028642Y045965
X028642Y045571
X028642Y044980
X028642Y036319
X028642Y035827
X028642Y035335
X028642Y034843
X028642Y034350
X028642Y033858
X028642Y033366
X028642Y032874
X028642Y026870
X028642Y026181
X028642Y025394
X028642Y024213
X028642Y023720
X028642Y023228
X028642Y022736
X028642Y022244
X028642Y020768
X028740Y059843
X028740Y059350
X028740Y056693
X028740Y021752
X028740Y021260
X028740Y014764
X028740Y014075
X028740Y013484
X028740Y012008
X028740Y011614
X028740Y011122
X028740Y010630
X028740Y010138
X028740Y009547
X028740Y009154
X028740Y008563
X028839Y058563
X028839Y057972
X028839Y057382
X028839Y016831
X028937Y005512
X029134Y058563
X029134Y057972
X029134Y057382
X029232Y050886
X029232Y049705
X029429Y058563
X029429Y057972
X029429Y057382
X029528Y059843
X029528Y059350
X029528Y056693
X029528Y048819
X029724Y058563
X029724Y057972
X029724Y057382
X029724Y049705
X029724Y049213
X029823Y050886
X030020Y058563
X030020Y057972
X030020Y057382
X030315Y059843
X030315Y056693
X030315Y050591
X030512Y059055
X030512Y058268
X030512Y057480
X030906Y050886
X031004Y059252
X031102Y059843
X031102Y056693
X031890Y059843
X031890Y059350
X031890Y056693
X032677Y059843
X032677Y059055
X032677Y058268
X032677Y057480
X032677Y056693
X033465Y059843
X033465Y059055
X033465Y058268
X033465Y057480
X033465Y056693
X034252Y059843
X034252Y059055
X034252Y058268
X034252Y057480
X034252Y056693
X035039Y059843
X035039Y059055
X035039Y058268
X035039Y057480
X035039Y056693
X035827Y059843
X035827Y059055
X035827Y058268
X035827Y057480
X035827Y056693
X036614Y059843
X036614Y059055
X036614Y058268
X036614Y057480
X036614Y056693
X037402Y059843
X037402Y059055
X037402Y058268
X037402Y057480
X037402Y056693
X038189Y059843
X038189Y059055
X038189Y058268
X038189Y057480
X038189Y056693
X038976Y059843
X038976Y059055
X038976Y058268
X038976Y057480
X038976Y056693
X040551Y034843
X040650Y022638
X040748Y010531
X041043Y034843
X041142Y022638
X041240Y010531
X042126Y034350
X042224Y022244
X042323Y010138
X042618Y035630
X042618Y034843
X042618Y033957
X042618Y033268
X042717Y023425
X042717Y022638
X042717Y021752
X042717Y021161
X042717Y011319
X042717Y010531
X042717Y009646
X042815Y009055
X043307Y035630
X043307Y034744
X043307Y033957
X043307Y033268
X043406Y023425
X043406Y022539
X043406Y021850
X043406Y021161
X043406Y011319
X043406Y010433
X043406Y009744
X043406Y009055
X045374Y048031
X045374Y047638
X045374Y047244
X045374Y046850
X045374Y046457
X045374Y046063
X045374Y045669
X045669Y048031
X045669Y047638
X045669Y047244
X045669Y046850
X045669Y046457
X045669Y046063
X045669Y045669
X045965Y048031
X045965Y047638
X045965Y047244
X045965Y046850
X045965Y046457
X045965Y046063
X045965Y045669
X046260Y048031
X046260Y047638
X046260Y047244
X046260Y046850
X046260Y046457
X046260Y046063
X046260Y045669
X046555Y048031
X046555Y047638
X046555Y047244
X046555Y046850
X046555Y046457
X046555Y046063
X046555Y045669
X046850Y048031
X046850Y047638
X046850Y047244
X046850Y046850
X046850Y046457
X046850Y046063
X046850Y045669
X047638Y044685
X047638Y044094
X047638Y043504
X047638Y042913
X047638Y042323
X047638Y041732
X048031Y044685
X048031Y044094
X048031Y043504
X048031Y042913
X048031Y042323
X048031Y041732
X048425Y044685
X048425Y044094
X048425Y043504
X048425Y042913
X048425Y042323
X048425Y041732
X048819Y044685
X048819Y044094
X048819Y043504
X048819Y042913
X048819Y042323
X048819Y041732
T122
X000492Y012500
X000492Y011516
X000492Y010531
X000492Y009547
X000492Y008563
X000492Y007480
X000492Y006496
X001378Y015551
X001476Y008563
X001476Y007480
X001476Y006496
X001870Y049508
X002264Y057972
X002461Y015551
X002461Y008563
X002461Y007480
X002461Y006496
X002657Y021161
X002854Y025591
X002953Y029921
X003543Y008563
X003543Y007480
X003543Y006496
X003642Y030413
X003642Y023327
X003839Y018504
X004035Y047638
X004035Y043012
X004035Y036024
X004035Y035039
X004035Y033071
X004331Y024508
X004429Y030413
X004429Y018307
X004429Y017717
X004528Y008563
X004528Y007480
X004528Y006496
X004626Y023622
X004724Y025000
X004823Y020079
X005020Y036024
X005020Y035039
X005020Y033071
X005020Y031004
X005217Y017618
X005512Y011516
X005512Y010531
X005512Y009547
X005512Y008563
X005512Y007480
X005512Y006496
X005807Y030906
X006004Y036024
X006004Y035039
X006004Y033071
X006004Y015551
X006102Y029429
X006299Y004035
X006299Y001181
X006398Y017618
X006496Y011516
X006496Y010531
X006496Y009547
X006496Y008563
X006693Y033858
X006693Y025098
X006890Y052657
X006988Y043012
X006988Y027067
X006988Y022244
X006988Y017618
X007087Y022835
X007382Y021555
X007480Y035236
X007579Y017618
X007677Y025492
X007776Y023327
X007874Y022736
X007972Y054528
X007972Y043012
X007972Y020374
X008071Y023819
X008071Y018012
X008071Y001870
X008169Y059154
X008268Y025984
X008366Y057382
X008366Y056890
X008366Y056299
X008563Y031398
X008661Y032579
X008858Y019587
X008858Y017323
X008858Y015256
X008957Y043012
X008957Y020571
X009055Y018898
X009154Y024803
X009252Y055906
X009350Y053740
X009350Y021161
X009547Y054724
X010039Y043012
X010138Y032579
X010138Y021555
X010236Y003839
X010433Y031791
X010433Y024902
X010531Y024311
X010630Y059055
X010728Y019488
X011024Y057579
X011024Y043012
X011220Y050394
X011220Y020276
X011220Y019783
X011417Y059154
X011417Y045079
X011417Y029724
X011516Y031299
X011516Y025689
X011516Y023524
X011811Y002953
X011909Y018701
X012008Y043012
X012008Y042028
X012008Y041043
X012008Y037992
X012008Y033071
X012008Y021161
X012106Y058465
X012106Y056594
X012106Y047933
X012205Y029035
X012205Y027264
X012402Y030020
X012402Y022343
X012500Y005807
X012500Y002362
X012598Y058957
X012598Y028150
X012598Y022835
X012598Y019193
X012697Y056594
X012795Y029232
X012894Y047933
X012992Y055512
X012992Y043012
X012992Y042028
X012992Y041043
X012992Y040059
X012992Y038976
X012992Y033071
X013091Y022244
X013189Y054921
X013189Y025492
X013189Y012500
X013386Y030413
X013386Y028543
X013484Y059055
X013484Y056890
X013583Y047244
X013681Y046063
X013780Y030906
X013780Y024409
X013976Y043012
X013976Y042028
X013976Y041043
X013976Y040059
X013976Y033071
X014173Y055906
X014173Y025098
X014173Y023031
X014173Y022146
X014173Y019488
X014173Y017520
X014370Y011417
X014469Y012008
X014567Y055020
X014567Y025591
X014665Y018209
X014665Y015945
X014665Y015256
X014665Y014567
X014961Y035039
X014961Y034055
X014961Y033071
X014961Y017421
X014961Y011614
X015157Y024803
X015157Y018504
X015157Y011122
X015453Y048425
X015551Y056299
X015551Y019783
X015551Y010335
X015551Y009055
X015551Y008563
X015551Y008071
X015551Y007382
X015551Y006791
X015551Y006201
X015551Y005610
X015551Y004921
X015551Y003937
X015551Y003346
X015551Y002854
X015551Y002264
X015551Y001772
X015650Y059055
X015748Y029724
X015748Y027362
X015748Y009843
X015846Y045079
X015846Y021850
X015945Y056890
X016043Y043012
X016043Y042028
X016043Y041043
X016043Y040059
X016043Y038976
X016043Y037992
X016043Y037008
X016043Y036024
X016043Y035039
X016043Y034055
X016142Y019783
X016535Y055512
X016535Y031398
X016535Y022736
X016535Y018110
X016929Y056890
X016929Y047933
X017028Y019783
X017028Y013484
X017028Y006398
X017028Y004134
X017028Y003445
X017028Y002461
X017028Y001969
X017126Y044390
X017224Y055709
X017224Y031102
X017224Y028051
X017224Y027362
X017323Y047047
X017520Y036614
X017520Y032776
X017618Y029626
X017815Y056890
X018012Y050197
X018012Y049508
X018012Y007185
X018012Y006693
X018012Y006201
X018012Y005020
X018012Y004429
X018012Y003937
X018110Y047244
X018110Y044685
X018110Y022736
X018406Y055217
X018406Y009843
X018504Y056890
X018504Y010630
X018602Y035728
X018701Y056398
X018701Y051575
X018701Y050886
X018701Y050197
X018701Y049508
X018701Y047736
X018799Y013878
X018898Y020374
X019094Y010630
X019193Y055217
X019193Y021752
X019193Y018504
X019193Y014567
X019291Y019291
X019291Y017028
X019488Y052461
X019685Y013583
X019783Y010827
X019783Y008760
X019783Y007972
X019783Y005906
X019882Y055610
X020079Y023524
X020374Y059055
X020374Y036516
X020374Y034154
X020374Y027756
X021063Y056988
X021161Y059055
X021358Y034744
X021358Y028346
X021358Y004528
X021457Y013287
X021654Y017913
X021752Y047539
X021850Y041142
X022047Y038484
X022343Y035531
X022441Y013287
X022539Y023524
X022638Y021063
X022638Y018898
X022638Y010630
X022736Y056890
X022835Y055315
X022933Y012992
X022933Y011516
X023228Y020177
X023327Y022441
X023425Y056496
X023425Y015650
X023622Y051280
X023720Y019488
X023917Y009744
X024114Y011811
X024213Y015650
X024508Y034941
X024705Y048031
X024803Y046161
X024803Y022736
X024902Y056890
X024902Y033957
X024902Y004921
X025000Y010630
X025098Y021654
X025098Y009547
X025295Y033661
X025591Y021654
X025689Y045866
X025689Y009547
X025787Y046850
X025787Y032776
X025787Y015846
X025787Y008563
X025984Y045177
X025984Y020866
X026280Y056890
X026280Y046457
X026378Y047047
X026378Y032776
X026378Y020669
X026378Y008563
X026476Y044980
X026969Y056890
X027067Y019488
X027067Y018898
X027657Y056890
X027854Y044390
X027854Y032185
X027854Y020079
X027854Y007972
X028051Y004331
X028445Y015846
X029429Y027756
X029823Y028346
X031299Y007283
X031791Y043012
X032480Y018799
X032579Y030118
X032579Y024409
X032579Y023228
X032677Y047047
X032874Y036713
X032874Y035039
X032874Y032185
X032874Y012500
X032874Y010728
X032874Y008465
X032972Y048917
X032972Y045374
X033071Y020472
X033563Y014469
X033563Y010925
X033661Y038878
X033661Y038386
X033661Y034055
X033661Y033563
X033661Y026772
X033661Y026280
X033661Y023425
X033661Y022736
X033661Y018799
X033661Y018110
X033661Y009744
X033760Y051083
X033760Y050591
X033760Y046161
X033760Y045669
X033760Y043012
X033760Y042520
X033760Y035728
X033760Y035039
X033760Y030807
X033760Y030315
X033760Y022047
X033760Y021555
X033760Y014075
X033760Y006594
X033858Y047835
X033858Y047146
X033957Y010531
X034055Y014469
X034055Y009350
X034055Y006102
X034350Y013976
X034350Y010925
X034350Y009744
X034350Y006594
X034449Y038878
X034449Y038386
X034449Y034055
X034449Y033563
X034449Y026772
X034449Y026280
X034449Y023425
X034449Y022736
X034449Y018799
X034449Y018110
X034547Y051083
X034547Y050591
X034547Y046161
X034547Y045669
X034547Y043012
X034547Y042520
X034547Y035728
X034547Y035039
X034547Y030807
X034547Y030315
X034547Y022047
X034547Y021555
X034547Y014469
X034646Y047835
X034646Y047146
X034646Y006102
X034941Y029429
X034941Y028740
X034941Y027953
X035039Y041437
X035039Y040748
X035039Y039961
X035039Y017224
X035039Y016535
X035039Y015748
X035236Y012500
X035236Y010138
X035236Y007776
X035335Y052067
X035335Y029035
X035335Y028346
X035335Y027559
X035335Y024705
X035335Y022343
X035335Y019980
X035433Y049016
X035433Y044193
X035433Y041043
X035433Y040354
X035433Y039567
X035433Y036909
X035433Y034449
X035433Y032087
X035433Y016831
X035433Y016142
X035433Y015354
X035728Y051673
X035728Y029429
X035728Y028740
X035728Y027953
X035827Y041437
X035827Y040748
X035827Y039961
X035827Y017224
X035827Y016535
X035827Y015748
X036024Y052067
X036122Y029035
X036122Y028346
X036122Y027559
X036220Y041043
X036220Y040354
X036220Y039567
X036220Y016831
X036220Y016142
X036220Y015354
X036417Y051673
X036516Y029429
X036516Y028740
X036516Y027953
X036614Y041437
X036614Y040748
X036614Y039961
X036614Y017224
X036614Y016535
X036614Y015748
X036713Y052067
X036909Y029035
X036909Y028346
X036909Y027559
X037008Y041043
X037008Y040354
X037008Y039567
X037008Y016831
X037008Y016142
X037008Y015354
X037205Y051870
X037303Y029429
X037303Y028740
X037303Y027953
X037402Y041437
X037402Y040748
X037402Y039961
X037402Y017224
X037402Y016535
X037402Y015748
X037697Y029035
X037697Y028346
X037697Y027559
X037795Y051870
X037795Y041043
X037795Y040354
X037795Y039567
X037795Y016831
X037795Y016142
X037795Y015354
X037992Y008661
X037992Y007382
X037992Y006201
X038091Y051083
X038091Y049902
X038091Y048622
X038091Y045079
X038091Y043898
X038091Y036516
X038091Y035335
X038091Y034154
X038091Y031693
X038091Y029429
X038091Y027953
X038091Y020768
X038091Y019587
X038091Y013386
X038091Y012205
X038091Y011024
X038091Y009843
X038189Y050591
X038189Y042717
X038189Y042224
X038189Y041437
X038189Y039961
X038189Y038878
X038189Y038287
X038189Y037697
X038189Y032874
X038189Y025492
X038189Y024311
X038189Y023228
X038189Y022047
X038189Y017224
X038189Y016535
X038189Y015748
X038189Y014665
X038189Y014075
X038287Y047441
X038287Y046260
X038287Y030709
X038287Y030118
X038287Y026870
X038287Y026280
X038287Y018504
X038287Y017913
X038287Y008071
X038287Y006890
X038287Y005807
X038386Y049409
X038386Y048130
X038386Y044587
X038386Y043406
X038386Y036024
X038386Y031201
X038386Y020276
X038386Y019094
X038484Y037205
X038484Y034744
X038484Y033661
X038484Y032382
X038484Y025000
X038484Y023819
X038484Y012795
X038484Y011713
X038484Y010433
X038484Y009350
X038583Y022638
X038583Y021555
X038583Y008661
X038583Y007382
X038583Y006201
X038681Y049902
X038681Y048622
X038681Y046850
X038681Y045768
X038681Y045079
X038681Y043799
X038681Y036516
X038681Y031693
X038681Y020768
X038681Y019587
X038780Y037697
X038780Y035335
X038780Y034154
X038780Y032874
X038780Y025492
X038780Y024311
X038780Y013386
X038780Y012205
X038780Y011024
X038780Y009843
X038878Y023228
X038878Y022047
X038878Y008071
X038878Y006890
X038976Y049409
X038976Y048130
X038976Y047441
X038976Y046260
X038976Y044587
X038976Y043406
X038976Y036024
X038976Y031201
X038976Y020276
X038976Y019094
X039075Y037205
X039075Y032382
X039075Y025000
X039075Y023819
X039173Y034744
X039173Y033661
X039173Y012795
X039173Y011713
X039173Y010433
X039173Y009350
X039173Y008661
X039173Y007382
X039272Y050984
X039272Y050492
X039272Y049902
X039272Y048622
X039272Y045079
X039272Y043898
X039272Y036516
X039272Y031693
X039272Y022638
X039272Y021555
X039272Y020768
X039272Y019587
X039370Y051870
X039370Y046850
X039370Y045768
X039370Y037697
X039370Y032874
X039370Y025492
X039370Y024311
X039469Y035335
X039469Y034154
X039469Y011024
X039469Y009843
X039469Y008071
X039469Y006890
X039567Y049409
X039567Y048130
X039567Y044587
X039567Y043406
X039567Y036024
X039567Y031201
X039567Y023228
X039567Y022047
X039567Y020276
X039567Y019094
X039567Y013386
X039567Y012205
X039665Y047441
X039665Y046260
X039665Y042717
X039665Y042224
X039665Y038878
X039665Y038287
X039665Y037205
X039665Y032382
X039665Y025000
X039665Y023819
X039665Y015748
X039665Y014665
X039665Y014075
X039764Y030709
X039764Y030118
X039764Y026870
X039764Y026280
X039764Y018504
X039764Y017913
X039764Y008661
X039764Y007382
X039764Y006201
X039862Y050984
X039862Y050492
X039862Y049902
X039862Y048622
X039862Y045079
X039862Y043898
X039862Y036516
X039862Y034744
X039862Y033661
X039862Y031693
X039862Y020768
X039862Y019587
X039862Y012795
X039862Y011713
X039862Y010433
X039862Y009350
X039961Y037697
X039961Y032874
X039961Y025492
X039961Y024311
X039961Y022638
X039961Y021555
X039961Y008071
X040059Y051870
X040059Y006890
X040059Y005807
X040256Y042717
X040256Y042224
X040256Y038878
X040256Y038287
X040256Y014665
X040256Y014075
X040354Y030709
X040354Y030118
X040354Y026870
X040354Y026280
X040354Y018504
X040354Y017913
X040354Y006201
X041634Y058071
X042717Y050591
X042717Y006496
X043012Y051280
X043110Y052362
X043209Y001969
X043307Y006496
X043701Y051870
X043799Y006496
X044094Y052461
X044094Y010827
X044390Y006496
X044882Y052165
X044980Y006496
X045472Y052165
X045472Y044980
X045472Y004528
X045571Y006496
X045571Y002362
X046161Y006496
X046752Y006496
X046949Y006102
X046949Y005512
X046949Y004921
X048327Y022638
X048327Y019882
X048327Y017126
X048327Y014567
X048327Y012402
X048327Y004134
X048425Y008858
X048425Y006594
X049409Y043012
X049409Y042618
X050886Y043012
X050886Y042618
X050886Y006201
T115
X002559Y048130
X002559Y035531
X023228Y032677
X023327Y044587
X024016Y032677
X024114Y044587
X024803Y038386
X025098Y026181
X025098Y017323
X025098Y014075
X025098Y006201
X025591Y038386
X025886Y026181
X025886Y017323
X025886Y014075
X025886Y006201
X028543Y050689
X028543Y049902
X040945Y051870
X040945Y050492
X040945Y047736
X040945Y045669
X040945Y042913
X040945Y041535
X040945Y039567
X040945Y038189
X040945Y033366
X040945Y030709
X040945Y029331
X040945Y027461
X040945Y026083
X040945Y015354
X040945Y013976
X041043Y035433
X041043Y023327
X041043Y018602
X041043Y017224
X041043Y011220
X041043Y009154
X041043Y006398
X041043Y005020
X041142Y021260
X041732Y047736
X041732Y045669
X041732Y033366
X041831Y035433
X041831Y023327
X041831Y011220
X041831Y009154
X041929Y021260
T123
X000886Y013386
X001476Y014567
X003642Y041634
X003839Y014173
X005020Y012402
X009547Y050098
X014567Y049902
X014567Y040846
X014567Y001673
X018799Y053543
X023524Y004429
X048228Y046457
X050984Y043701
T113
X001673Y020374
X001673Y019374
X001673Y018374
X002673Y020374
X002673Y019374
X002673Y018374
X003051Y054870
X003051Y053870
X003051Y052870
X003051Y051870
X005413Y058563
X005413Y057563
X005413Y056563
X006413Y058563
X006413Y057563
X006413Y056563
X009350Y052657
X010350Y052657
X010894Y043898
X011350Y052657
X011894Y043898
X012894Y043898
X019488Y040453
X019488Y039453
X020374Y017106
X020374Y016106
X020374Y015106
X020374Y014106
X020374Y013106
X020374Y012106
X020866Y052720
X020866Y051720
X020866Y050720
X020866Y049720
X020866Y048720
X025736Y055224
X025736Y054224
X026736Y055224
X026736Y054224
X027736Y055224
X027736Y054224
X028736Y055224
X028736Y054224
X029736Y055224
X029736Y054224
X030299Y019894
X030299Y018894
X030299Y017894
X030299Y016894
X030299Y015894
X030299Y014894
X030299Y013894
X030299Y012894
X030736Y055224
X030736Y054224
X031299Y019894
X031299Y018894
X031299Y017894
X031299Y016894
X031299Y015894
X031299Y014894
X031299Y013894
X031299Y012894
X031736Y055224
X031736Y054224
X032736Y055224
X032736Y054224
X033736Y055224
X033736Y054224
X034736Y055224
X034736Y054224
X035736Y055224
X035736Y054224
X036736Y055224
X036736Y054224
X037736Y055224
X037736Y054224
X038736Y055224
X038736Y054224
X039736Y055224
X039736Y054224
X040736Y055224
X040736Y054224
X041736Y055224
X041736Y054224
X042736Y055224
X042736Y054224
X043736Y055224
X043736Y054224
X044736Y055224
X044736Y054224
T114
X005020Y027067
X006299Y007087
X010039Y041437
X012106Y049508
X012697Y052657
X017520Y041043
X020472Y024606
X020866Y032283
X020866Y030217
X020965Y045177
X021850Y019094
X022343Y007972
X023720Y008465
X023917Y041240
X028839Y019193
X029528Y031299
X030118Y007382
X030217Y043996
X047638Y056299
T118
X051843Y039449
X051843Y038268
X051843Y035512
X051843Y034331
X051843Y031575
X051843Y030394
X051843Y027638
X051843Y026457
X051870Y049803
X051870Y048622
X051870Y047441
X051870Y044685
X051870Y043504
X051870Y042323
X053024Y039449
X053024Y038268
X053024Y035512
X053024Y034331
X053024Y031575
X053024Y030394
X053024Y027638
X053024Y026457
X053051Y049803
X053051Y048622
X053051Y047441
X053051Y044685
X053051Y043504
X053051Y042323
T117
X051508Y020421
X051508Y019331
X051508Y018240
X051508Y017150
X051508Y016059
X051508Y014969
X051508Y013878
X051508Y012787
X051508Y011697
X051508Y010606
X051508Y009516
X051508Y008425
X051508Y007335
X052626Y019876
X052626Y018785
X052626Y017695
X052626Y016604
X052626Y015514
X052626Y014423
X052626Y013333
X052626Y012242
X052626Y011152
X052626Y010061
X052626Y008970
X052626Y007880
T124
X043209Y038287
T119
X049114Y055984
X049114Y054331
X049114Y052677
X051280Y055984
X051280Y054331
X051280Y052677
T120
X023819Y049508
X023819Y030217
X046654Y049508
X046654Y030217
T116
X052067Y023138
X052067Y004618
M30
