G04 start of page 12 for group -3984 idx -3984 *
G04 Title: (unknown), fab *
G04 Creator: pcb 4.2.0 *
G04 CreationDate: Fri Sep 20 02:47:34 2019 UTC *
G04 For: doug *
G04 Format: Gerber/RS-274X *
G04 PCB-Dimensions (mil): 5602.36 6102.36 *
G04 PCB-Coordinate-Origin: lower left *
%MOIN*%
%FSLAX25Y25*%
%LNFAB*%
%ADD190C,0.0100*%
%ADD189C,0.0075*%
%ADD188C,0.0060*%
%ADD187R,0.0080X0.0080*%
G54D187*X513964Y590551D02*G75*G03X515564Y590551I800J0D01*G01*
G75*G03X513964Y590551I-800J0D01*G01*
X512364D02*G75*G03X517164Y590551I2400J0D01*G01*
G75*G03X512364Y590551I-2400J0D01*G01*
X510764D02*G75*G03X518764Y590551I4000J0D01*G01*
G75*G03X510764Y590551I-4000J0D01*G01*
X18885D02*G75*G03X20485Y590551I800J0D01*G01*
G75*G03X18885Y590551I-800J0D01*G01*
X17285D02*G75*G03X22085Y590551I2400J0D01*G01*
G75*G03X17285Y590551I-2400J0D01*G01*
X15685D02*G75*G03X23685Y590551I4000J0D01*G01*
G75*G03X15685Y590551I-4000J0D01*G01*
X18885Y19685D02*G75*G03X20485Y19685I800J0D01*G01*
G75*G03X18885Y19685I-800J0D01*G01*
X17285D02*G75*G03X22085Y19685I2400J0D01*G01*
G75*G03X17285Y19685I-2400J0D01*G01*
X15685D02*G75*G03X23685Y19685I4000J0D01*G01*
G75*G03X15685Y19685I-4000J0D01*G01*
X513964D02*G75*G03X515564Y19685I800J0D01*G01*
G75*G03X513964Y19685I-800J0D01*G01*
X512364D02*G75*G03X517164Y19685I2400J0D01*G01*
G75*G03X512364Y19685I-2400J0D01*G01*
X510764D02*G75*G03X518764Y19685I4000J0D01*G01*
G75*G03X510764Y19685I-4000J0D01*G01*
X14200Y621486D02*G75*G03X15800Y621486I800J0D01*G01*
G75*G03X14200Y621486I-800J0D01*G01*
X12600D02*G75*G03X17400Y621486I2400J0D01*G01*
G75*G03X12600Y621486I-2400J0D01*G01*
X11000D02*G75*G03X19000Y621486I4000J0D01*G01*
G75*G03X11000Y621486I-4000J0D01*G01*
G54D188*X140000Y623736D02*Y617736D01*
Y623736D02*X143750Y617736D01*
Y623736D02*Y617736D01*
X145550Y622986D02*Y618486D01*
Y622986D02*X146300Y623736D01*
X147800D01*
X148550Y622986D01*
Y618486D01*
X147800Y617736D02*X148550Y618486D01*
X146300Y617736D02*X147800D01*
X145550Y618486D02*X146300Y617736D01*
X98000Y619986D02*X101000Y623736D01*
X98000Y619986D02*X101750D01*
X101000Y623736D02*Y617736D01*
X45000Y618486D02*X45750Y617736D01*
X45000Y622986D02*Y618486D01*
Y622986D02*X45750Y623736D01*
X47250D01*
X48000Y622986D01*
Y618486D01*
X47250Y617736D02*X48000Y618486D01*
X45750Y617736D02*X47250D01*
X45000Y619236D02*X48000Y622236D01*
X49800Y617736D02*X50550D01*
X52350Y622536D02*X53550Y623736D01*
Y617736D01*
X52350D02*X54600D01*
X56400Y622986D02*X57150Y623736D01*
X59400D01*
X60150Y622986D01*
Y621486D01*
X56400Y617736D02*X60150Y621486D01*
X56400Y617736D02*X60150D01*
X61950Y618486D02*X62700Y617736D01*
X61950Y619686D02*Y618486D01*
Y619686D02*X63000Y620736D01*
X63900D01*
X64950Y619686D01*
Y618486D01*
X64200Y617736D02*X64950Y618486D01*
X62700Y617736D02*X64200D01*
X61950Y621786D02*X63000Y620736D01*
X61950Y622986D02*Y621786D01*
Y622986D02*X62700Y623736D01*
X64200D01*
X64950Y622986D01*
Y621786D01*
X63900Y620736D02*X64950Y621786D01*
X517069Y49781D02*X524269Y42581D01*
X517069D02*X524269Y49781D01*
X519069Y47781D02*X522269D01*
X519069D02*Y44581D01*
X522269D01*
Y47781D02*Y44581D01*
X517469Y49381D02*X523869D01*
X517469D02*Y42981D01*
X523869D01*
Y49381D02*Y42981D01*
X517069Y234978D02*X524269Y227778D01*
X517069D02*X524269Y234978D01*
X519069Y232978D02*X522269D01*
X519069D02*Y229778D01*
X522269D01*
Y232978D02*Y229778D01*
X517469Y234578D02*X523869D01*
X517469D02*Y228178D01*
X523869D01*
Y234578D02*Y228178D01*
X11400Y640086D02*X18600Y632886D01*
X11400D02*X18600Y640086D01*
X13400Y638086D02*X16600D01*
X13400D02*Y634886D01*
X16600D01*
Y638086D02*Y634886D01*
X11800Y639686D02*X18200D01*
X11800D02*Y633286D01*
X18200D01*
Y639686D02*Y633286D01*
X135000Y638736D02*X136500Y635736D01*
X138000Y638736D01*
X136500Y635736D02*Y632736D01*
X139800Y636036D02*X142050D01*
X139800Y632736D02*X142800D01*
X139800Y638736D02*Y632736D01*
Y638736D02*X142800D01*
X147600D02*X148350Y637986D01*
X145350Y638736D02*X147600D01*
X144600Y637986D02*X145350Y638736D01*
X144600Y637986D02*Y636486D01*
X145350Y635736D01*
X147600D01*
X148350Y634986D01*
Y633486D01*
X147600Y632736D02*X148350Y633486D01*
X145350Y632736D02*X147600D01*
X144600Y633486D02*X145350Y632736D01*
X98000Y637986D02*X98750Y638736D01*
X101000D01*
X101750Y637986D01*
Y636486D01*
X98000Y632736D02*X101750Y636486D01*
X98000Y632736D02*X101750D01*
X45000Y633486D02*X45750Y632736D01*
X45000Y637986D02*Y633486D01*
Y637986D02*X45750Y638736D01*
X47250D01*
X48000Y637986D01*
Y633486D01*
X47250Y632736D02*X48000Y633486D01*
X45750Y632736D02*X47250D01*
X45000Y634236D02*X48000Y637236D01*
X49800Y632736D02*X50550D01*
X52350Y637536D02*X53550Y638736D01*
Y632736D01*
X52350D02*X54600D01*
X56400Y637986D02*X57150Y638736D01*
X59400D01*
X60150Y637986D01*
Y636486D01*
X56400Y632736D02*X60150Y636486D01*
X56400Y632736D02*X60150D01*
X61950Y633486D02*X62700Y632736D01*
X61950Y637986D02*Y633486D01*
Y637986D02*X62700Y638736D01*
X64200D01*
X64950Y637986D01*
Y633486D01*
X64200Y632736D02*X64950Y633486D01*
X62700Y632736D02*X64200D01*
X61950Y634236D02*X64950Y637236D01*
X547244Y388583D02*Y383783D01*
Y388583D02*X551404Y390983D01*
X547244Y388583D02*X543084Y390983D01*
X545644Y388583D02*G75*G03X548844Y388583I1600J0D01*G01*
G75*G03X545644Y388583I-1600J0D01*G01*
X544044D02*G75*G03X550444Y388583I3200J0D01*G01*
G75*G03X544044Y388583I-3200J0D01*G01*
X547244Y349213D02*Y344413D01*
Y349213D02*X551404Y351613D01*
X547244Y349213D02*X543084Y351613D01*
X545644Y349213D02*G75*G03X548844Y349213I1600J0D01*G01*
G75*G03X545644Y349213I-1600J0D01*G01*
X544044D02*G75*G03X550444Y349213I3200J0D01*G01*
G75*G03X544044Y349213I-3200J0D01*G01*
X547244Y309843D02*Y305043D01*
Y309843D02*X551404Y312243D01*
X547244Y309843D02*X543084Y312243D01*
X545644Y309843D02*G75*G03X548844Y309843I1600J0D01*G01*
G75*G03X545644Y309843I-1600J0D01*G01*
X544044D02*G75*G03X550444Y309843I3200J0D01*G01*
G75*G03X544044Y309843I-3200J0D01*G01*
X547244Y270472D02*Y265672D01*
Y270472D02*X551404Y272872D01*
X547244Y270472D02*X543084Y272872D01*
X545644Y270472D02*G75*G03X548844Y270472I1600J0D01*G01*
G75*G03X545644Y270472I-1600J0D01*G01*
X544044D02*G75*G03X550444Y270472I3200J0D01*G01*
G75*G03X544044Y270472I-3200J0D01*G01*
X238189Y499879D02*Y490279D01*
X233389Y495079D02*X242989D01*
X236589Y496679D02*X239789D01*
X236589D02*Y493479D01*
X239789D01*
Y496679D02*Y493479D01*
X234989Y498279D02*X241389D01*
X234989D02*Y491879D01*
X241389D01*
Y498279D02*Y491879D01*
X466535Y499879D02*Y490279D01*
X461735Y495079D02*X471335D01*
X464935Y496679D02*X468135D01*
X464935D02*Y493479D01*
X468135D01*
Y496679D02*Y493479D01*
X463335Y498279D02*X469735D01*
X463335D02*Y491879D01*
X469735D01*
Y498279D02*Y491879D01*
X238189Y306965D02*Y297365D01*
X233389Y302165D02*X242989D01*
X236589Y303765D02*X239789D01*
X236589D02*Y300565D01*
X239789D01*
Y303765D02*Y300565D01*
X234989Y305365D02*X241389D01*
X234989D02*Y298965D01*
X241389D01*
Y305365D02*Y298965D01*
X466535Y306965D02*Y297365D01*
X461735Y302165D02*X471335D01*
X464935Y303765D02*X468135D01*
X464935D02*Y300565D01*
X468135D01*
Y303765D02*Y300565D01*
X463335Y305365D02*X469735D01*
X463335D02*Y298965D01*
X469735D01*
Y305365D02*Y298965D01*
X541535Y559843D02*Y555043D01*
Y559843D02*X545695Y562243D01*
X541535Y559843D02*X537375Y562243D01*
X539935Y559843D02*G75*G03X543135Y559843I1600J0D01*G01*
G75*G03X539935Y559843I-1600J0D01*G01*
X538335D02*G75*G03X544735Y559843I3200J0D01*G01*
G75*G03X538335Y559843I-3200J0D01*G01*
X541535Y526772D02*Y521972D01*
Y526772D02*X545695Y529172D01*
X541535Y526772D02*X537375Y529172D01*
X539935Y526772D02*G75*G03X543135Y526772I1600J0D01*G01*
G75*G03X539935Y526772I-1600J0D01*G01*
X538335D02*G75*G03X544735Y526772I3200J0D01*G01*
G75*G03X538335Y526772I-3200J0D01*G01*
X547520Y486220D02*Y481420D01*
Y486220D02*X551680Y488620D01*
X547520Y486220D02*X543360Y488620D01*
X545920Y486220D02*G75*G03X549120Y486220I1600J0D01*G01*
G75*G03X545920Y486220I-1600J0D01*G01*
X544320D02*G75*G03X550720Y486220I3200J0D01*G01*
G75*G03X544320Y486220I-3200J0D01*G01*
X547520Y435039D02*Y430239D01*
Y435039D02*X551680Y437439D01*
X547520Y435039D02*X543360Y437439D01*
X545920Y435039D02*G75*G03X549120Y435039I1600J0D01*G01*
G75*G03X545920Y435039I-1600J0D01*G01*
X544320D02*G75*G03X550720Y435039I3200J0D01*G01*
G75*G03X544320Y435039I-3200J0D01*G01*
X15000Y656286D02*Y646686D01*
X10200Y651486D02*X19800D01*
X13400Y653086D02*X16600D01*
X13400D02*Y649886D01*
X16600D01*
Y653086D02*Y649886D01*
X11800Y654686D02*X18200D01*
X11800D02*Y648286D01*
X18200D01*
Y654686D02*Y648286D01*
X135000Y653736D02*X136500Y650736D01*
X138000Y653736D01*
X136500Y650736D02*Y647736D01*
X139800Y651036D02*X142050D01*
X139800Y647736D02*X142800D01*
X139800Y653736D02*Y647736D01*
Y653736D02*X142800D01*
X147600D02*X148350Y652986D01*
X145350Y653736D02*X147600D01*
X144600Y652986D02*X145350Y653736D01*
X144600Y652986D02*Y651486D01*
X145350Y650736D01*
X147600D01*
X148350Y649986D01*
Y648486D01*
X147600Y647736D02*X148350Y648486D01*
X145350Y647736D02*X147600D01*
X144600Y648486D02*X145350Y647736D01*
X98000Y649986D02*X101000Y653736D01*
X98000Y649986D02*X101750D01*
X101000Y653736D02*Y647736D01*
X15000Y666486D02*Y661686D01*
Y666486D02*X19160Y668886D01*
X15000Y666486D02*X10840Y668886D01*
X13400Y666486D02*G75*G03X16600Y666486I1600J0D01*G01*
G75*G03X13400Y666486I-1600J0D01*G01*
X11800D02*G75*G03X18200Y666486I3200J0D01*G01*
G75*G03X11800Y666486I-3200J0D01*G01*
X140000Y668736D02*Y662736D01*
Y668736D02*X143750Y662736D01*
Y668736D02*Y662736D01*
X145550Y667986D02*Y663486D01*
Y667986D02*X146300Y668736D01*
X147800D01*
X148550Y667986D01*
Y663486D01*
X147800Y662736D02*X148550Y663486D01*
X146300Y662736D02*X147800D01*
X145550Y663486D02*X146300Y662736D01*
X98000Y663486D02*X98750Y662736D01*
X98000Y664686D02*Y663486D01*
Y664686D02*X99050Y665736D01*
X99950D01*
X101000Y664686D01*
Y663486D01*
X100250Y662736D02*X101000Y663486D01*
X98750Y662736D02*X100250D01*
X98000Y666786D02*X99050Y665736D01*
X98000Y667986D02*Y666786D01*
Y667986D02*X98750Y668736D01*
X100250D01*
X101000Y667986D01*
Y666786D01*
X99950Y665736D02*X101000Y666786D01*
X45000Y663486D02*X45750Y662736D01*
X45000Y667986D02*Y663486D01*
Y667986D02*X45750Y668736D01*
X47250D01*
X48000Y667986D01*
Y663486D01*
X47250Y662736D02*X48000Y663486D01*
X45750Y662736D02*X47250D01*
X45000Y664236D02*X48000Y667236D01*
X49800Y662736D02*X50550D01*
X52350Y667536D02*X53550Y668736D01*
Y662736D01*
X52350D02*X54600D01*
X56400Y667536D02*X57600Y668736D01*
Y662736D01*
X56400D02*X58650D01*
X60450Y663486D02*X61200Y662736D01*
X60450Y664686D02*Y663486D01*
Y664686D02*X61500Y665736D01*
X62400D01*
X63450Y664686D01*
Y663486D01*
X62700Y662736D02*X63450Y663486D01*
X61200Y662736D02*X62700D01*
X60450Y666786D02*X61500Y665736D01*
X60450Y667986D02*Y666786D01*
Y667986D02*X61200Y668736D01*
X62700D01*
X63450Y667986D01*
Y666786D01*
X62400Y665736D02*X63450Y666786D01*
X45000Y648486D02*X45750Y647736D01*
X45000Y652986D02*Y648486D01*
Y652986D02*X45750Y653736D01*
X47250D01*
X48000Y652986D01*
Y648486D01*
X47250Y647736D02*X48000Y648486D01*
X45750Y647736D02*X47250D01*
X45000Y649236D02*X48000Y652236D01*
X49800Y647736D02*X50550D01*
X52350Y652536D02*X53550Y653736D01*
Y647736D01*
X52350D02*X54600D01*
X56400Y652536D02*X57600Y653736D01*
Y647736D01*
X56400D02*X58650D01*
X60450Y648486D02*X61200Y647736D01*
X60450Y649686D02*Y648486D01*
Y649686D02*X61500Y650736D01*
X62400D01*
X63450Y649686D01*
Y648486D01*
X62700Y647736D02*X63450Y648486D01*
X61200Y647736D02*X62700D01*
X60450Y651786D02*X61500Y650736D01*
X60450Y652986D02*Y651786D01*
Y652986D02*X61200Y653736D01*
X62700D01*
X63450Y652986D01*
Y651786D01*
X62400Y650736D02*X63450Y651786D01*
X511195Y561443D02*X514395D01*
X511195D02*Y558243D01*
X514395D01*
Y561443D02*Y558243D01*
X509595Y563043D02*X515995D01*
X509595D02*Y556643D01*
X515995D01*
Y563043D02*Y556643D01*
X511195Y544907D02*X514395D01*
X511195D02*Y541707D01*
X514395D01*
Y544907D02*Y541707D01*
X509595Y546507D02*X515995D01*
X509595D02*Y540107D01*
X515995D01*
Y546507D02*Y540107D01*
X511195Y528372D02*X514395D01*
X511195D02*Y525172D01*
X514395D01*
Y528372D02*Y525172D01*
X509595Y529972D02*X515995D01*
X509595D02*Y523572D01*
X515995D01*
Y529972D02*Y523572D01*
X489542Y561443D02*X492742D01*
X489542D02*Y558243D01*
X492742D01*
Y561443D02*Y558243D01*
X487942Y563043D02*X494342D01*
X487942D02*Y556643D01*
X494342D01*
Y563043D02*Y556643D01*
X489542Y544907D02*X492742D01*
X489542D02*Y541707D01*
X492742D01*
Y544907D02*Y541707D01*
X487942Y546507D02*X494342D01*
X487942D02*Y540107D01*
X494342D01*
Y546507D02*Y540107D01*
X489542Y528372D02*X492742D01*
X489542D02*Y525172D01*
X492742D01*
Y528372D02*Y525172D01*
X487942Y529972D02*X494342D01*
X487942D02*Y523572D01*
X494342D01*
Y529972D02*Y523572D01*
X13400Y683086D02*X16600D01*
X13400D02*Y679886D01*
X16600D01*
Y683086D02*Y679886D01*
X11800Y684686D02*X18200D01*
X11800D02*Y678286D01*
X18200D01*
Y684686D02*Y678286D01*
X135000Y683736D02*X136500Y680736D01*
X138000Y683736D01*
X136500Y680736D02*Y677736D01*
X139800Y681036D02*X142050D01*
X139800Y677736D02*X142800D01*
X139800Y683736D02*Y677736D01*
Y683736D02*X142800D01*
X147600D02*X148350Y682986D01*
X145350Y683736D02*X147600D01*
X144600Y682986D02*X145350Y683736D01*
X144600Y682986D02*Y681486D01*
X145350Y680736D01*
X147600D01*
X148350Y679986D01*
Y678486D01*
X147600Y677736D02*X148350Y678486D01*
X145350Y677736D02*X147600D01*
X144600Y678486D02*X145350Y677736D01*
X100250Y683736D02*X101000Y682986D01*
X98750Y683736D02*X100250D01*
X98000Y682986D02*X98750Y683736D01*
X98000Y682986D02*Y678486D01*
X98750Y677736D01*
X100250Y681036D02*X101000Y680286D01*
X98000Y681036D02*X100250D01*
X98750Y677736D02*X100250D01*
X101000Y678486D01*
Y680286D02*Y678486D01*
X45000D02*X45750Y677736D01*
X45000Y682986D02*Y678486D01*
Y682986D02*X45750Y683736D01*
X47250D01*
X48000Y682986D01*
Y678486D01*
X47250Y677736D02*X48000Y678486D01*
X45750Y677736D02*X47250D01*
X45000Y679236D02*X48000Y682236D01*
X49800Y677736D02*X50550D01*
X52350Y678486D02*X53100Y677736D01*
X52350Y682986D02*Y678486D01*
Y682986D02*X53100Y683736D01*
X54600D01*
X55350Y682986D01*
Y678486D01*
X54600Y677736D02*X55350Y678486D01*
X53100Y677736D02*X54600D01*
X52350Y679236D02*X55350Y682236D01*
X57900Y677736D02*X60900Y683736D01*
X57150D02*X60900D01*
X62700Y682536D02*X63900Y683736D01*
Y677736D01*
X62700D02*X64950D01*
X431287Y382874D02*G75*G03X432887Y382874I800J0D01*G01*
G75*G03X431287Y382874I-800J0D01*G01*
X429687D02*G75*G03X434487Y382874I2400J0D01*G01*
G75*G03X429687Y382874I-2400J0D01*G01*
X14200Y696486D02*G75*G03X15800Y696486I800J0D01*G01*
G75*G03X14200Y696486I-800J0D01*G01*
X12600D02*G75*G03X17400Y696486I2400J0D01*G01*
G75*G03X12600Y696486I-2400J0D01*G01*
X135000Y698736D02*X136500Y695736D01*
X138000Y698736D01*
X136500Y695736D02*Y692736D01*
X139800Y696036D02*X142050D01*
X139800Y692736D02*X142800D01*
X139800Y698736D02*Y692736D01*
Y698736D02*X142800D01*
X147600D02*X148350Y697986D01*
X145350Y698736D02*X147600D01*
X144600Y697986D02*X145350Y698736D01*
X144600Y697986D02*Y696486D01*
X145350Y695736D01*
X147600D01*
X148350Y694986D01*
Y693486D01*
X147600Y692736D02*X148350Y693486D01*
X145350Y692736D02*X147600D01*
X144600Y693486D02*X145350Y692736D01*
X98000Y697536D02*X99200Y698736D01*
Y692736D01*
X98000D02*X100250D01*
X45000Y693486D02*X45750Y692736D01*
X45000Y697986D02*Y693486D01*
Y697986D02*X45750Y698736D01*
X47250D01*
X48000Y697986D01*
Y693486D01*
X47250Y692736D02*X48000Y693486D01*
X45750Y692736D02*X47250D01*
X45000Y694236D02*X48000Y697236D01*
X49800Y692736D02*X50550D01*
X52350Y693486D02*X53100Y692736D01*
X52350Y697986D02*Y693486D01*
Y697986D02*X53100Y698736D01*
X54600D01*
X55350Y697986D01*
Y693486D01*
X54600Y692736D02*X55350Y693486D01*
X53100Y692736D02*X54600D01*
X52350Y694236D02*X55350Y697236D01*
X57150Y698736D02*X60150D01*
X57150D02*Y695736D01*
X57900Y696486D01*
X59400D01*
X60150Y695736D01*
Y693486D01*
X59400Y692736D02*X60150Y693486D01*
X57900Y692736D02*X59400D01*
X57150Y693486D02*X57900Y692736D01*
X62700D02*X64950Y695736D01*
Y697986D02*Y695736D01*
X64200Y698736D02*X64950Y697986D01*
X62700Y698736D02*X64200D01*
X61950Y697986D02*X62700Y698736D01*
X61950Y697986D02*Y696486D01*
X62700Y695736D01*
X64950D01*
X512679Y75746D02*X517479Y70946D01*
X512679D02*X517479Y75746D01*
X513479Y74946D02*X516679D01*
X513479D02*Y71746D01*
X516679D01*
Y74946D02*Y71746D01*
X512679Y86652D02*X517479Y81852D01*
X512679D02*X517479Y86652D01*
X513479Y85852D02*X516679D01*
X513479D02*Y82652D01*
X516679D01*
Y85852D02*Y82652D01*
X512679Y97557D02*X517479Y92757D01*
X512679D02*X517479Y97557D01*
X513479Y96757D02*X516679D01*
X513479D02*Y93557D01*
X516679D01*
Y96757D02*Y93557D01*
X512679Y108463D02*X517479Y103663D01*
X512679D02*X517479Y108463D01*
X513479Y107663D02*X516679D01*
X513479D02*Y104463D01*
X516679D01*
Y107663D02*Y104463D01*
X512679Y119369D02*X517479Y114569D01*
X512679D02*X517479Y119369D01*
X513479Y118569D02*X516679D01*
X513479D02*Y115369D01*
X516679D01*
Y118569D02*Y115369D01*
X512679Y130274D02*X517479Y125474D01*
X512679D02*X517479Y130274D01*
X513479Y129474D02*X516679D01*
X513479D02*Y126274D01*
X516679D01*
Y129474D02*Y126274D01*
X512679Y141180D02*X517479Y136380D01*
X512679D02*X517479Y141180D01*
X513479Y140380D02*X516679D01*
X513479D02*Y137180D01*
X516679D01*
Y140380D02*Y137180D01*
X512679Y152085D02*X517479Y147285D01*
X512679D02*X517479Y152085D01*
X513479Y151285D02*X516679D01*
X513479D02*Y148085D01*
X516679D01*
Y151285D02*Y148085D01*
X512679Y162991D02*X517479Y158191D01*
X512679D02*X517479Y162991D01*
X513479Y162191D02*X516679D01*
X513479D02*Y158991D01*
X516679D01*
Y162191D02*Y158991D01*
X512679Y173896D02*X517479Y169096D01*
X512679D02*X517479Y173896D01*
X513479Y173096D02*X516679D01*
X513479D02*Y169896D01*
X516679D01*
Y173096D02*Y169896D01*
X512679Y184802D02*X517479Y180002D01*
X512679D02*X517479Y184802D01*
X513479Y184002D02*X516679D01*
X513479D02*Y180802D01*
X516679D01*
Y184002D02*Y180802D01*
X512679Y195707D02*X517479Y190907D01*
X512679D02*X517479Y195707D01*
X513479Y194907D02*X516679D01*
X513479D02*Y191707D01*
X516679D01*
Y194907D02*Y191707D01*
X512679Y206613D02*X517479Y201813D01*
X512679D02*X517479Y206613D01*
X513479Y205813D02*X516679D01*
X513479D02*Y202613D01*
X516679D01*
Y205813D02*Y202613D01*
X523860Y81199D02*X528660Y76399D01*
X523860D02*X528660Y81199D01*
X524660Y80399D02*X527860D01*
X524660D02*Y77199D01*
X527860D01*
Y80399D02*Y77199D01*
X523860Y92105D02*X528660Y87305D01*
X523860D02*X528660Y92105D01*
X524660Y91305D02*X527860D01*
X524660D02*Y88105D01*
X527860D01*
Y91305D02*Y88105D01*
X523860Y103010D02*X528660Y98210D01*
X523860D02*X528660Y103010D01*
X524660Y102210D02*X527860D01*
X524660D02*Y99010D01*
X527860D01*
Y102210D02*Y99010D01*
X523860Y113916D02*X528660Y109116D01*
X523860D02*X528660Y113916D01*
X524660Y113116D02*X527860D01*
X524660D02*Y109916D01*
X527860D01*
Y113116D02*Y109916D01*
X523860Y124821D02*X528660Y120021D01*
X523860D02*X528660Y124821D01*
X524660Y124021D02*X527860D01*
X524660D02*Y120821D01*
X527860D01*
Y124021D02*Y120821D01*
X523860Y135727D02*X528660Y130927D01*
X523860D02*X528660Y135727D01*
X524660Y134927D02*X527860D01*
X524660D02*Y131727D01*
X527860D01*
Y134927D02*Y131727D01*
X523860Y146632D02*X528660Y141832D01*
X523860D02*X528660Y146632D01*
X524660Y145832D02*X527860D01*
X524660D02*Y142632D01*
X527860D01*
Y145832D02*Y142632D01*
X523860Y157538D02*X528660Y152738D01*
X523860D02*X528660Y157538D01*
X524660Y156738D02*X527860D01*
X524660D02*Y153538D01*
X527860D01*
Y156738D02*Y153538D01*
X523860Y168443D02*X528660Y163643D01*
X523860D02*X528660Y168443D01*
X524660Y167643D02*X527860D01*
X524660D02*Y164443D01*
X527860D01*
Y167643D02*Y164443D01*
X523860Y179349D02*X528660Y174549D01*
X523860D02*X528660Y179349D01*
X524660Y178549D02*X527860D01*
X524660D02*Y175349D01*
X527860D01*
Y178549D02*Y175349D01*
X523860Y190254D02*X528660Y185454D01*
X523860D02*X528660Y190254D01*
X524660Y189454D02*X527860D01*
X524660D02*Y186254D01*
X527860D01*
Y189454D02*Y186254D01*
X523860Y201160D02*X528660Y196360D01*
X523860D02*X528660Y201160D01*
X524660Y200360D02*X527860D01*
X524660D02*Y197160D01*
X527860D01*
Y200360D02*Y197160D01*
X12600Y713886D02*X17400Y709086D01*
X12600D02*X17400Y713886D01*
X13400Y713086D02*X16600D01*
X13400D02*Y709886D01*
X16600D01*
Y713086D02*Y709886D01*
X135000Y713736D02*X136500Y710736D01*
X138000Y713736D01*
X136500Y710736D02*Y707736D01*
X139800Y711036D02*X142050D01*
X139800Y707736D02*X142800D01*
X139800Y713736D02*Y707736D01*
Y713736D02*X142800D01*
X147600D02*X148350Y712986D01*
X145350Y713736D02*X147600D01*
X144600Y712986D02*X145350Y713736D01*
X144600Y712986D02*Y711486D01*
X145350Y710736D01*
X147600D01*
X148350Y709986D01*
Y708486D01*
X147600Y707736D02*X148350Y708486D01*
X145350Y707736D02*X147600D01*
X144600Y708486D02*X145350Y707736D01*
X98000Y712986D02*X98750Y713736D01*
X101000D01*
X101750Y712986D01*
Y711486D01*
X98000Y707736D02*X101750Y711486D01*
X98000Y707736D02*X101750D01*
X103550Y713736D02*X106550D01*
X103550D02*Y710736D01*
X104300Y711486D01*
X105800D01*
X106550Y710736D01*
Y708486D01*
X105800Y707736D02*X106550Y708486D01*
X104300Y707736D02*X105800D01*
X103550Y708486D02*X104300Y707736D01*
X45000Y708486D02*X45750Y707736D01*
X45000Y712986D02*Y708486D01*
Y712986D02*X45750Y713736D01*
X47250D01*
X48000Y712986D01*
Y708486D01*
X47250Y707736D02*X48000Y708486D01*
X45750Y707736D02*X47250D01*
X45000Y709236D02*X48000Y712236D01*
X49800Y707736D02*X50550D01*
X52350Y708486D02*X53100Y707736D01*
X52350Y712986D02*Y708486D01*
Y712986D02*X53100Y713736D01*
X54600D01*
X55350Y712986D01*
Y708486D01*
X54600Y707736D02*X55350Y708486D01*
X53100Y707736D02*X54600D01*
X52350Y709236D02*X55350Y712236D01*
X57150Y709986D02*X60150Y713736D01*
X57150Y709986D02*X60900D01*
X60150Y713736D02*Y707736D01*
X62700Y712986D02*X63450Y713736D01*
X64950D01*
X65700Y712986D01*
X64950Y707736D02*X65700Y708486D01*
X63450Y707736D02*X64950D01*
X62700Y708486D02*X63450Y707736D01*
Y711036D02*X64950D01*
X65700Y712986D02*Y711786D01*
Y710286D02*Y708486D01*
Y710286D02*X64950Y711036D01*
X65700Y711786D02*X64950Y711036D01*
X518425Y385877D02*Y379477D01*
X515225Y382677D02*X521625D01*
X516825Y384277D02*X520025D01*
X516825D02*Y381077D01*
X520025D01*
Y384277D02*Y381077D01*
X518425Y397688D02*Y391288D01*
X515225Y394488D02*X521625D01*
X516825Y396088D02*X520025D01*
X516825D02*Y392888D01*
X520025D01*
Y396088D02*Y392888D01*
X530236Y397688D02*Y391288D01*
X527036Y394488D02*X533436D01*
X528636Y396088D02*X531836D01*
X528636D02*Y392888D01*
X531836D01*
Y396088D02*Y392888D01*
X530236Y385877D02*Y379477D01*
X527036Y382677D02*X533436D01*
X528636Y384277D02*X531836D01*
X528636D02*Y381077D01*
X531836D01*
Y384277D02*Y381077D01*
X518425Y346507D02*Y340107D01*
X515225Y343307D02*X521625D01*
X516825Y344907D02*X520025D01*
X516825D02*Y341707D01*
X520025D01*
Y344907D02*Y341707D01*
X518425Y358318D02*Y351918D01*
X515225Y355118D02*X521625D01*
X516825Y356718D02*X520025D01*
X516825D02*Y353518D01*
X520025D01*
Y356718D02*Y353518D01*
X530236Y358318D02*Y351918D01*
X527036Y355118D02*X533436D01*
X528636Y356718D02*X531836D01*
X528636D02*Y353518D01*
X531836D01*
Y356718D02*Y353518D01*
X530236Y346507D02*Y340107D01*
X527036Y343307D02*X533436D01*
X528636Y344907D02*X531836D01*
X528636D02*Y341707D01*
X531836D01*
Y344907D02*Y341707D01*
X518425Y307137D02*Y300737D01*
X515225Y303937D02*X521625D01*
X516825Y305537D02*X520025D01*
X516825D02*Y302337D01*
X520025D01*
Y305537D02*Y302337D01*
X518425Y318948D02*Y312548D01*
X515225Y315748D02*X521625D01*
X516825Y317348D02*X520025D01*
X516825D02*Y314148D01*
X520025D01*
Y317348D02*Y314148D01*
X530236Y318948D02*Y312548D01*
X527036Y315748D02*X533436D01*
X528636Y317348D02*X531836D01*
X528636D02*Y314148D01*
X531836D01*
Y317348D02*Y314148D01*
X530236Y307137D02*Y300737D01*
X527036Y303937D02*X533436D01*
X528636Y305537D02*X531836D01*
X528636D02*Y302337D01*
X531836D01*
Y305537D02*Y302337D01*
X518425Y267767D02*Y261367D01*
X515225Y264567D02*X521625D01*
X516825Y266167D02*X520025D01*
X516825D02*Y262967D01*
X520025D01*
Y266167D02*Y262967D01*
X518425Y279578D02*Y273178D01*
X515225Y276378D02*X521625D01*
X516825Y277978D02*X520025D01*
X516825D02*Y274778D01*
X520025D01*
Y277978D02*Y274778D01*
X530236Y279578D02*Y273178D01*
X527036Y276378D02*X533436D01*
X528636Y277978D02*X531836D01*
X528636D02*Y274778D01*
X531836D01*
Y277978D02*Y274778D01*
X530236Y267767D02*Y261367D01*
X527036Y264567D02*X533436D01*
X528636Y266167D02*X531836D01*
X528636D02*Y262967D01*
X531836D01*
Y266167D02*Y262967D01*
X518701Y477609D02*Y471209D01*
X515501Y474409D02*X521901D01*
X517101Y476009D02*X520301D01*
X517101D02*Y472809D01*
X520301D01*
Y476009D02*Y472809D01*
X518701Y489420D02*Y483020D01*
X515501Y486220D02*X521901D01*
X517101Y487820D02*X520301D01*
X517101D02*Y484620D01*
X520301D01*
Y487820D02*Y484620D01*
X518701Y501231D02*Y494831D01*
X515501Y498031D02*X521901D01*
X517101Y499631D02*X520301D01*
X517101D02*Y496431D01*
X520301D01*
Y499631D02*Y496431D01*
X530512Y477609D02*Y471209D01*
X527312Y474409D02*X533712D01*
X528912Y476009D02*X532112D01*
X528912D02*Y472809D01*
X532112D01*
Y476009D02*Y472809D01*
X530512Y489420D02*Y483020D01*
X527312Y486220D02*X533712D01*
X528912Y487820D02*X532112D01*
X528912D02*Y484620D01*
X532112D01*
Y487820D02*Y484620D01*
X530512Y501231D02*Y494831D01*
X527312Y498031D02*X533712D01*
X528912Y499631D02*X532112D01*
X528912D02*Y496431D01*
X532112D01*
Y499631D02*Y496431D01*
X518701Y426428D02*Y420028D01*
X515501Y423228D02*X521901D01*
X517101Y424828D02*X520301D01*
X517101D02*Y421628D01*
X520301D01*
Y424828D02*Y421628D01*
X518701Y438239D02*Y431839D01*
X515501Y435039D02*X521901D01*
X517101Y436639D02*X520301D01*
X517101D02*Y433439D01*
X520301D01*
Y436639D02*Y433439D01*
X518701Y450050D02*Y443650D01*
X515501Y446850D02*X521901D01*
X517101Y448450D02*X520301D01*
X517101D02*Y445250D01*
X520301D01*
Y448450D02*Y445250D01*
X530512Y426428D02*Y420028D01*
X527312Y423228D02*X533712D01*
X528912Y424828D02*X532112D01*
X528912D02*Y421628D01*
X532112D01*
Y424828D02*Y421628D01*
X530512Y438239D02*Y431839D01*
X527312Y435039D02*X533712D01*
X528912Y436639D02*X532112D01*
X528912D02*Y433439D01*
X532112D01*
Y436639D02*Y433439D01*
X530512Y450050D02*Y443650D01*
X527312Y446850D02*X533712D01*
X528912Y448450D02*X532112D01*
X528912D02*Y445250D01*
X532112D01*
Y448450D02*Y445250D01*
X15000Y729686D02*Y723286D01*
X11800Y726486D02*X18200D01*
X13400Y728086D02*X16600D01*
X13400D02*Y724886D01*
X16600D01*
Y728086D02*Y724886D01*
X135000Y728736D02*X136500Y725736D01*
X138000Y728736D01*
X136500Y725736D02*Y722736D01*
X139800Y726036D02*X142050D01*
X139800Y722736D02*X142800D01*
X139800Y728736D02*Y722736D01*
Y728736D02*X142800D01*
X147600D02*X148350Y727986D01*
X145350Y728736D02*X147600D01*
X144600Y727986D02*X145350Y728736D01*
X144600Y727986D02*Y726486D01*
X145350Y725736D01*
X147600D01*
X148350Y724986D01*
Y723486D01*
X147600Y722736D02*X148350Y723486D01*
X145350Y722736D02*X147600D01*
X144600Y723486D02*X145350Y722736D01*
X98000Y727986D02*X98750Y728736D01*
X101000D01*
X101750Y727986D01*
Y726486D01*
X98000Y722736D02*X101750Y726486D01*
X98000Y722736D02*X101750D01*
X103550Y723486D02*X104300Y722736D01*
X103550Y724686D02*Y723486D01*
Y724686D02*X104600Y725736D01*
X105500D01*
X106550Y724686D01*
Y723486D01*
X105800Y722736D02*X106550Y723486D01*
X104300Y722736D02*X105800D01*
X103550Y726786D02*X104600Y725736D01*
X103550Y727986D02*Y726786D01*
Y727986D02*X104300Y728736D01*
X105800D01*
X106550Y727986D01*
Y726786D01*
X105500Y725736D02*X106550Y726786D01*
X45000Y723486D02*X45750Y722736D01*
X45000Y727986D02*Y723486D01*
Y727986D02*X45750Y728736D01*
X47250D01*
X48000Y727986D01*
Y723486D01*
X47250Y722736D02*X48000Y723486D01*
X45750Y722736D02*X47250D01*
X45000Y724236D02*X48000Y727236D01*
X49800Y722736D02*X50550D01*
X52350Y723486D02*X53100Y722736D01*
X52350Y727986D02*Y723486D01*
Y727986D02*X53100Y728736D01*
X54600D01*
X55350Y727986D01*
Y723486D01*
X54600Y722736D02*X55350Y723486D01*
X53100Y722736D02*X54600D01*
X52350Y724236D02*X55350Y727236D01*
X57150Y724986D02*X60150Y728736D01*
X57150Y724986D02*X60900D01*
X60150Y728736D02*Y722736D01*
X62700Y723486D02*X63450Y722736D01*
X62700Y727986D02*Y723486D01*
Y727986D02*X63450Y728736D01*
X64950D01*
X65700Y727986D01*
Y723486D01*
X64950Y722736D02*X65700Y723486D01*
X63450Y722736D02*X64950D01*
X62700Y724236D02*X65700Y727236D01*
X126969Y526575D02*Y523375D01*
Y526575D02*X129742Y528175D01*
X126969Y526575D02*X124195Y528175D01*
X125369Y526575D02*G75*G03X128569Y526575I1600J0D01*G01*
G75*G03X125369Y526575I-1600J0D01*G01*
X121063Y495079D02*Y491879D01*
Y495079D02*X123836Y496679D01*
X121063Y495079D02*X118290Y496679D01*
X119463Y495079D02*G75*G03X122663Y495079I1600J0D01*G01*
G75*G03X119463Y495079I-1600J0D01*G01*
X62992Y70866D02*Y67666D01*
Y70866D02*X65765Y72466D01*
X62992Y70866D02*X60219Y72466D01*
X61392Y70866D02*G75*G03X64592Y70866I1600J0D01*G01*
G75*G03X61392Y70866I-1600J0D01*G01*
X175197Y410433D02*Y407233D01*
Y410433D02*X177970Y412033D01*
X175197Y410433D02*X172424Y412033D01*
X173597Y410433D02*G75*G03X176797Y410433I1600J0D01*G01*
G75*G03X173597Y410433I-1600J0D01*G01*
X476378Y562992D02*Y559792D01*
Y562992D02*X479151Y564592D01*
X476378Y562992D02*X473605Y564592D01*
X474778Y562992D02*G75*G03X477978Y562992I1600J0D01*G01*
G75*G03X474778Y562992I-1600J0D01*G01*
X100394Y414370D02*Y411170D01*
Y414370D02*X103167Y415970D01*
X100394Y414370D02*X97620Y415970D01*
X98794Y414370D02*G75*G03X101994Y414370I1600J0D01*G01*
G75*G03X98794Y414370I-1600J0D01*G01*
X237205Y84646D02*Y81446D01*
Y84646D02*X239978Y86246D01*
X237205Y84646D02*X234431Y86246D01*
X235605Y84646D02*G75*G03X238805Y84646I1600J0D01*G01*
G75*G03X235605Y84646I-1600J0D01*G01*
X301181Y73819D02*Y70619D01*
Y73819D02*X303954Y75419D01*
X301181Y73819D02*X298408Y75419D01*
X299581Y73819D02*G75*G03X302781Y73819I1600J0D01*G01*
G75*G03X299581Y73819I-1600J0D01*G01*
X223425Y79724D02*Y76524D01*
Y79724D02*X226199Y81324D01*
X223425Y79724D02*X220652Y81324D01*
X221825Y79724D02*G75*G03X225025Y79724I1600J0D01*G01*
G75*G03X221825Y79724I-1600J0D01*G01*
X239173Y412402D02*Y409202D01*
Y412402D02*X241947Y414002D01*
X239173Y412402D02*X236400Y414002D01*
X237573Y412402D02*G75*G03X240773Y412402I1600J0D01*G01*
G75*G03X237573Y412402I-1600J0D01*G01*
X302165Y439961D02*Y436761D01*
Y439961D02*X304939Y441561D01*
X302165Y439961D02*X299392Y441561D01*
X300565Y439961D02*G75*G03X303765Y439961I1600J0D01*G01*
G75*G03X300565Y439961I-1600J0D01*G01*
X209646Y451772D02*Y448572D01*
Y451772D02*X212419Y453372D01*
X209646Y451772D02*X206872Y453372D01*
X208046Y451772D02*G75*G03X211246Y451772I1600J0D01*G01*
G75*G03X208046Y451772I-1600J0D01*G01*
X208661Y302165D02*Y298965D01*
Y302165D02*X211435Y303765D01*
X208661Y302165D02*X205888Y303765D01*
X207061Y302165D02*G75*G03X210261Y302165I1600J0D01*G01*
G75*G03X207061Y302165I-1600J0D01*G01*
X295276Y312992D02*Y309792D01*
Y312992D02*X298049Y314592D01*
X295276Y312992D02*X292502Y314592D01*
X293676Y312992D02*G75*G03X296876Y312992I1600J0D01*G01*
G75*G03X293676Y312992I-1600J0D01*G01*
X208661Y322835D02*Y319635D01*
Y322835D02*X211435Y324435D01*
X208661Y322835D02*X205888Y324435D01*
X207061Y322835D02*G75*G03X210261Y322835I1600J0D01*G01*
G75*G03X207061Y322835I-1600J0D01*G01*
X204724Y246063D02*Y242863D01*
Y246063D02*X207498Y247663D01*
X204724Y246063D02*X201951Y247663D01*
X203124Y246063D02*G75*G03X206324Y246063I1600J0D01*G01*
G75*G03X203124Y246063I-1600J0D01*G01*
X288386Y191929D02*Y188729D01*
Y191929D02*X291159Y193529D01*
X288386Y191929D02*X285612Y193529D01*
X286786Y191929D02*G75*G03X289986Y191929I1600J0D01*G01*
G75*G03X286786Y191929I-1600J0D01*G01*
X218504Y190945D02*Y187745D01*
Y190945D02*X221277Y192545D01*
X218504Y190945D02*X215731Y192545D01*
X216904Y190945D02*G75*G03X220104Y190945I1600J0D01*G01*
G75*G03X216904Y190945I-1600J0D01*G01*
X50197Y270669D02*Y267469D01*
Y270669D02*X52970Y272269D01*
X50197Y270669D02*X47424Y272269D01*
X48597Y270669D02*G75*G03X51797Y270669I1600J0D01*G01*
G75*G03X48597Y270669I-1600J0D01*G01*
X15000Y741486D02*Y738286D01*
Y741486D02*X17773Y743086D01*
X15000Y741486D02*X12227Y743086D01*
X13400Y741486D02*G75*G03X16600Y741486I1600J0D01*G01*
G75*G03X13400Y741486I-1600J0D01*G01*
X135000Y743736D02*X136500Y740736D01*
X138000Y743736D01*
X136500Y740736D02*Y737736D01*
X139800Y741036D02*X142050D01*
X139800Y737736D02*X142800D01*
X139800Y743736D02*Y737736D01*
Y743736D02*X142800D01*
X147600D02*X148350Y742986D01*
X145350Y743736D02*X147600D01*
X144600Y742986D02*X145350Y743736D01*
X144600Y742986D02*Y741486D01*
X145350Y740736D01*
X147600D01*
X148350Y739986D01*
Y738486D01*
X147600Y737736D02*X148350Y738486D01*
X145350Y737736D02*X147600D01*
X144600Y738486D02*X145350Y737736D01*
X98000Y742536D02*X99200Y743736D01*
Y737736D01*
X98000D02*X100250D01*
X102800D02*X105050Y740736D01*
Y742986D02*Y740736D01*
X104300Y743736D02*X105050Y742986D01*
X102800Y743736D02*X104300D01*
X102050Y742986D02*X102800Y743736D01*
X102050Y742986D02*Y741486D01*
X102800Y740736D01*
X105050D01*
X45000Y738486D02*X45750Y737736D01*
X45000Y742986D02*Y738486D01*
Y742986D02*X45750Y743736D01*
X47250D01*
X48000Y742986D01*
Y738486D01*
X47250Y737736D02*X48000Y738486D01*
X45750Y737736D02*X47250D01*
X45000Y739236D02*X48000Y742236D01*
X49800Y737736D02*X50550D01*
X52350Y738486D02*X53100Y737736D01*
X52350Y742986D02*Y738486D01*
Y742986D02*X53100Y743736D01*
X54600D01*
X55350Y742986D01*
Y738486D01*
X54600Y737736D02*X55350Y738486D01*
X53100Y737736D02*X54600D01*
X52350Y739236D02*X55350Y742236D01*
X57150Y739986D02*X60150Y743736D01*
X57150Y739986D02*X60900D01*
X60150Y743736D02*Y737736D01*
X62700Y738486D02*X63450Y737736D01*
X62700Y742986D02*Y738486D01*
Y742986D02*X63450Y743736D01*
X64950D01*
X65700Y742986D01*
Y738486D01*
X64950Y737736D02*X65700Y738486D01*
X63450Y737736D02*X64950D01*
X62700Y739236D02*X65700Y742236D01*
X202140Y122663D02*X205340D01*
X202140D02*Y119463D01*
X205340D01*
Y122663D02*Y119463D01*
X202140Y132663D02*X205340D01*
X202140D02*Y129463D01*
X205340D01*
Y132663D02*Y129463D01*
X202140Y142663D02*X205340D01*
X202140D02*Y139463D01*
X205340D01*
Y142663D02*Y139463D01*
X202140Y152663D02*X205340D01*
X202140D02*Y149463D01*
X205340D01*
Y152663D02*Y149463D01*
X202140Y162663D02*X205340D01*
X202140D02*Y159463D01*
X205340D01*
Y162663D02*Y159463D01*
X202140Y172663D02*X205340D01*
X202140D02*Y169463D01*
X205340D01*
Y172663D02*Y169463D01*
X207061Y488805D02*X210261D01*
X207061D02*Y485605D01*
X210261D01*
Y488805D02*Y485605D01*
X207061Y498805D02*X210261D01*
X207061D02*Y495605D01*
X210261D01*
Y498805D02*Y495605D01*
X207061Y508805D02*X210261D01*
X207061D02*Y505605D01*
X210261D01*
Y508805D02*Y505605D01*
X207061Y518805D02*X210261D01*
X207061D02*Y515605D01*
X210261D01*
Y518805D02*Y515605D01*
X207061Y528805D02*X210261D01*
X207061D02*Y525605D01*
X210261D01*
Y528805D02*Y525605D01*
X28912Y520301D02*X32112D01*
X28912D02*Y517101D01*
X32112D01*
Y520301D02*Y517101D01*
X28912Y530301D02*X32112D01*
X28912D02*Y527101D01*
X32112D01*
Y530301D02*Y527101D01*
X28912Y540301D02*X32112D01*
X28912D02*Y537101D01*
X32112D01*
Y540301D02*Y537101D01*
X28912Y550301D02*X32112D01*
X28912D02*Y547101D01*
X32112D01*
Y550301D02*Y547101D01*
X127337Y440576D02*X130537D01*
X127337D02*Y437376D01*
X130537D01*
Y440576D02*Y437376D01*
X117337Y440576D02*X120537D01*
X117337D02*Y437376D01*
X120537D01*
Y440576D02*Y437376D01*
X107337Y440576D02*X110537D01*
X107337D02*Y437376D01*
X110537D01*
Y440576D02*Y437376D01*
X91904Y528175D02*X95104D01*
X91904D02*Y524975D01*
X95104D01*
Y528175D02*Y524975D01*
X101904Y528175D02*X105104D01*
X101904D02*Y524975D01*
X105104D01*
Y528175D02*Y524975D01*
X111904Y528175D02*X115104D01*
X111904D02*Y524975D01*
X115104D01*
Y528175D02*Y524975D01*
X193282Y406128D02*X196482D01*
X193282D02*Y402928D01*
X196482D01*
Y406128D02*Y402928D01*
X193282Y396128D02*X196482D01*
X193282D02*Y392928D01*
X196482D01*
Y396128D02*Y392928D01*
X255762Y553844D02*X258962D01*
X255762D02*Y550644D01*
X258962D01*
Y553844D02*Y550644D01*
X255762Y543844D02*X258962D01*
X255762D02*Y540644D01*
X258962D01*
Y543844D02*Y540644D01*
X265762Y553844D02*X268962D01*
X265762D02*Y550644D01*
X268962D01*
Y553844D02*Y550644D01*
X265762Y543844D02*X268962D01*
X265762D02*Y540644D01*
X268962D01*
Y543844D02*Y540644D01*
X275762Y553844D02*X278962D01*
X275762D02*Y550644D01*
X278962D01*
Y553844D02*Y550644D01*
X275762Y543844D02*X278962D01*
X275762D02*Y540644D01*
X278962D01*
Y543844D02*Y540644D01*
X285762Y553844D02*X288962D01*
X285762D02*Y550644D01*
X288962D01*
Y553844D02*Y550644D01*
X285762Y543844D02*X288962D01*
X285762D02*Y540644D01*
X288962D01*
Y543844D02*Y540644D01*
X295762Y553844D02*X298962D01*
X295762D02*Y550644D01*
X298962D01*
Y553844D02*Y550644D01*
X295762Y543844D02*X298962D01*
X295762D02*Y540644D01*
X298962D01*
Y543844D02*Y540644D01*
X305762Y553844D02*X308962D01*
X305762D02*Y550644D01*
X308962D01*
Y553844D02*Y550644D01*
X305762Y543844D02*X308962D01*
X305762D02*Y540644D01*
X308962D01*
Y543844D02*Y540644D01*
X315762Y553844D02*X318962D01*
X315762D02*Y550644D01*
X318962D01*
Y553844D02*Y550644D01*
X315762Y543844D02*X318962D01*
X315762D02*Y540644D01*
X318962D01*
Y543844D02*Y540644D01*
X325762Y553844D02*X328962D01*
X325762D02*Y550644D01*
X328962D01*
Y553844D02*Y550644D01*
X325762Y543844D02*X328962D01*
X325762D02*Y540644D01*
X328962D01*
Y543844D02*Y540644D01*
X335762Y553844D02*X338962D01*
X335762D02*Y550644D01*
X338962D01*
Y553844D02*Y550644D01*
X335762Y543844D02*X338962D01*
X335762D02*Y540644D01*
X338962D01*
Y543844D02*Y540644D01*
X345762Y553844D02*X348962D01*
X345762D02*Y550644D01*
X348962D01*
Y553844D02*Y550644D01*
X345762Y543844D02*X348962D01*
X345762D02*Y540644D01*
X348962D01*
Y543844D02*Y540644D01*
X355762Y553844D02*X358962D01*
X355762D02*Y550644D01*
X358962D01*
Y553844D02*Y550644D01*
X355762Y543844D02*X358962D01*
X355762D02*Y540644D01*
X358962D01*
Y543844D02*Y540644D01*
X365762Y553844D02*X368962D01*
X365762D02*Y550644D01*
X368962D01*
Y553844D02*Y550644D01*
X365762Y543844D02*X368962D01*
X365762D02*Y540644D01*
X368962D01*
Y543844D02*Y540644D01*
X375762Y553844D02*X378962D01*
X375762D02*Y550644D01*
X378962D01*
Y553844D02*Y550644D01*
X375762Y543844D02*X378962D01*
X375762D02*Y540644D01*
X378962D01*
Y543844D02*Y540644D01*
X385762Y553844D02*X388962D01*
X385762D02*Y550644D01*
X388962D01*
Y553844D02*Y550644D01*
X385762Y543844D02*X388962D01*
X385762D02*Y540644D01*
X388962D01*
Y543844D02*Y540644D01*
X395762Y553844D02*X398962D01*
X395762D02*Y550644D01*
X398962D01*
Y553844D02*Y550644D01*
X395762Y543844D02*X398962D01*
X395762D02*Y540644D01*
X398962D01*
Y543844D02*Y540644D01*
X405762Y553844D02*X408962D01*
X405762D02*Y550644D01*
X408962D01*
Y553844D02*Y550644D01*
X405762Y543844D02*X408962D01*
X405762D02*Y540644D01*
X408962D01*
Y543844D02*Y540644D01*
X415762Y553844D02*X418962D01*
X415762D02*Y550644D01*
X418962D01*
Y553844D02*Y550644D01*
X415762Y543844D02*X418962D01*
X415762D02*Y540644D01*
X418962D01*
Y543844D02*Y540644D01*
X425762Y553844D02*X428962D01*
X425762D02*Y550644D01*
X428962D01*
Y553844D02*Y550644D01*
X425762Y543844D02*X428962D01*
X425762D02*Y540644D01*
X428962D01*
Y543844D02*Y540644D01*
X435762Y553844D02*X438962D01*
X435762D02*Y550644D01*
X438962D01*
Y553844D02*Y550644D01*
X435762Y543844D02*X438962D01*
X435762D02*Y540644D01*
X438962D01*
Y543844D02*Y540644D01*
X445762Y553844D02*X448962D01*
X445762D02*Y550644D01*
X448962D01*
Y553844D02*Y550644D01*
X445762Y543844D02*X448962D01*
X445762D02*Y540644D01*
X448962D01*
Y543844D02*Y540644D01*
X52534Y587230D02*X55734D01*
X52534D02*Y584030D01*
X55734D01*
Y587230D02*Y584030D01*
X62534Y587230D02*X65734D01*
X62534D02*Y584030D01*
X65734D01*
Y587230D02*Y584030D01*
X52534Y577230D02*X55734D01*
X52534D02*Y574030D01*
X55734D01*
Y577230D02*Y574030D01*
X62534Y577230D02*X65734D01*
X62534D02*Y574030D01*
X65734D01*
Y577230D02*Y574030D01*
X52534Y567230D02*X55734D01*
X52534D02*Y564030D01*
X55734D01*
Y567230D02*Y564030D01*
X62534Y567230D02*X65734D01*
X62534D02*Y564030D01*
X65734D01*
Y567230D02*Y564030D01*
X15132Y205340D02*X18332D01*
X15132D02*Y202140D01*
X18332D01*
Y205340D02*Y202140D01*
X25132Y205340D02*X28332D01*
X25132D02*Y202140D01*
X28332D01*
Y205340D02*Y202140D01*
X15132Y195340D02*X18332D01*
X15132D02*Y192140D01*
X18332D01*
Y195340D02*Y192140D01*
X25132Y195340D02*X28332D01*
X25132D02*Y192140D01*
X28332D01*
Y195340D02*Y192140D01*
X15132Y185340D02*X18332D01*
X15132D02*Y182140D01*
X18332D01*
Y185340D02*Y182140D01*
X25132Y185340D02*X28332D01*
X25132D02*Y182140D01*
X28332D01*
Y185340D02*Y182140D01*
X311392Y130537D02*X314592D01*
X311392D02*Y127337D01*
X314592D01*
Y130537D02*Y127337D01*
X301392Y130537D02*X304592D01*
X301392D02*Y127337D01*
X304592D01*
Y130537D02*Y127337D01*
X311392Y140537D02*X314592D01*
X311392D02*Y137337D01*
X314592D01*
Y140537D02*Y137337D01*
X301392Y140537D02*X304592D01*
X301392D02*Y137337D01*
X304592D01*
Y140537D02*Y137337D01*
X311392Y150537D02*X314592D01*
X311392D02*Y147337D01*
X314592D01*
Y150537D02*Y147337D01*
X301392Y150537D02*X304592D01*
X301392D02*Y147337D01*
X304592D01*
Y150537D02*Y147337D01*
X311392Y160537D02*X314592D01*
X311392D02*Y157337D01*
X314592D01*
Y160537D02*Y157337D01*
X301392Y160537D02*X304592D01*
X301392D02*Y157337D01*
X304592D01*
Y160537D02*Y157337D01*
X311392Y170537D02*X314592D01*
X311392D02*Y167337D01*
X314592D01*
Y170537D02*Y167337D01*
X301392Y170537D02*X304592D01*
X301392D02*Y167337D01*
X304592D01*
Y170537D02*Y167337D01*
X311392Y180537D02*X314592D01*
X311392D02*Y177337D01*
X314592D01*
Y180537D02*Y177337D01*
X301392Y180537D02*X304592D01*
X301392D02*Y177337D01*
X304592D01*
Y180537D02*Y177337D01*
X311392Y190537D02*X314592D01*
X311392D02*Y187337D01*
X314592D01*
Y190537D02*Y187337D01*
X301392Y190537D02*X304592D01*
X301392D02*Y187337D01*
X304592D01*
Y190537D02*Y187337D01*
X311392Y200537D02*X314592D01*
X311392D02*Y197337D01*
X314592D01*
Y200537D02*Y197337D01*
X301392Y200537D02*X304592D01*
X301392D02*Y197337D01*
X304592D01*
Y200537D02*Y197337D01*
X13400Y758086D02*X16600D01*
X13400D02*Y754886D01*
X16600D01*
Y758086D02*Y754886D01*
X135000Y758736D02*X136500Y755736D01*
X138000Y758736D01*
X136500Y755736D02*Y752736D01*
X139800Y756036D02*X142050D01*
X139800Y752736D02*X142800D01*
X139800Y758736D02*Y752736D01*
Y758736D02*X142800D01*
X147600D02*X148350Y757986D01*
X145350Y758736D02*X147600D01*
X144600Y757986D02*X145350Y758736D01*
X144600Y757986D02*Y756486D01*
X145350Y755736D01*
X147600D01*
X148350Y754986D01*
Y753486D01*
X147600Y752736D02*X148350Y753486D01*
X145350Y752736D02*X147600D01*
X144600Y753486D02*X145350Y752736D01*
X98750D02*X101000Y755736D01*
Y757986D02*Y755736D01*
X100250Y758736D02*X101000Y757986D01*
X98750Y758736D02*X100250D01*
X98000Y757986D02*X98750Y758736D01*
X98000Y757986D02*Y756486D01*
X98750Y755736D01*
X101000D01*
X102800Y757536D02*X104000Y758736D01*
Y752736D01*
X102800D02*X105050D01*
X45000Y753486D02*X45750Y752736D01*
X45000Y757986D02*Y753486D01*
Y757986D02*X45750Y758736D01*
X47250D01*
X48000Y757986D01*
Y753486D01*
X47250Y752736D02*X48000Y753486D01*
X45750Y752736D02*X47250D01*
X45000Y754236D02*X48000Y757236D01*
X49800Y752736D02*X50550D01*
X52350Y753486D02*X53100Y752736D01*
X52350Y757986D02*Y753486D01*
Y757986D02*X53100Y758736D01*
X54600D01*
X55350Y757986D01*
Y753486D01*
X54600Y752736D02*X55350Y753486D01*
X53100Y752736D02*X54600D01*
X52350Y754236D02*X55350Y757236D01*
X57150Y757986D02*X57900Y758736D01*
X59400D01*
X60150Y757986D01*
X59400Y752736D02*X60150Y753486D01*
X57900Y752736D02*X59400D01*
X57150Y753486D02*X57900Y752736D01*
Y756036D02*X59400D01*
X60150Y757986D02*Y756786D01*
Y755286D02*Y753486D01*
Y755286D02*X59400Y756036D01*
X60150Y756786D02*X59400Y756036D01*
X61950Y753486D02*X62700Y752736D01*
X61950Y754686D02*Y753486D01*
Y754686D02*X63000Y755736D01*
X63900D01*
X64950Y754686D01*
Y753486D01*
X64200Y752736D02*X64950Y753486D01*
X62700Y752736D02*X64200D01*
X61950Y756786D02*X63000Y755736D01*
X61950Y757986D02*Y756786D01*
Y757986D02*X62700Y758736D01*
X64200D01*
X64950Y757986D01*
Y756786D01*
X63900Y755736D02*X64950Y756786D01*
X234436Y44291D02*G75*G03X236036Y44291I800J0D01*G01*
G75*G03X234436Y44291I-800J0D01*G01*
X144869Y499016D02*G75*G03X146469Y499016I800J0D01*G01*
G75*G03X144869Y499016I-800J0D01*G01*
Y408465D02*G75*G03X146469Y408465I800J0D01*G01*
G75*G03X144869Y408465I-800J0D01*G01*
X35617Y416339D02*G75*G03X37217Y416339I800J0D01*G01*
G75*G03X35617Y416339I-800J0D01*G01*
X8058Y133858D02*G75*G03X9658Y133858I800J0D01*G01*
G75*G03X8058Y133858I-800J0D01*G01*
X13964Y145669D02*G75*G03X15564Y145669I800J0D01*G01*
G75*G03X13964Y145669I-800J0D01*G01*
X49397Y124016D02*G75*G03X50997Y124016I800J0D01*G01*
G75*G03X49397Y124016I-800J0D01*G01*
X37586Y141732D02*G75*G03X39186Y141732I800J0D01*G01*
G75*G03X37586Y141732I-800J0D01*G01*
X94672Y500984D02*G75*G03X96272Y500984I800J0D01*G01*
G75*G03X94672Y500984I-800J0D01*G01*
X187192Y535433D02*G75*G03X188792Y535433I800J0D01*G01*
G75*G03X187192Y535433I-800J0D01*G01*
X144869Y16732D02*G75*G03X146469Y16732I800J0D01*G01*
G75*G03X144869Y16732I-800J0D01*G01*
X481483Y464567D02*G75*G03X483083Y464567I800J0D01*G01*
G75*G03X481483Y464567I-800J0D01*G01*
X509043Y437008D02*G75*G03X510643Y437008I800J0D01*G01*
G75*G03X509043Y437008I-800J0D01*G01*
X14200Y771486D02*G75*G03X15800Y771486I800J0D01*G01*
G75*G03X14200Y771486I-800J0D01*G01*
X135000Y773736D02*X136500Y770736D01*
X138000Y773736D01*
X136500Y770736D02*Y767736D01*
X139800Y771036D02*X142050D01*
X139800Y767736D02*X142800D01*
X139800Y773736D02*Y767736D01*
Y773736D02*X142800D01*
X147600D02*X148350Y772986D01*
X145350Y773736D02*X147600D01*
X144600Y772986D02*X145350Y773736D01*
X144600Y772986D02*Y771486D01*
X145350Y770736D01*
X147600D01*
X148350Y769986D01*
Y768486D01*
X147600Y767736D02*X148350Y768486D01*
X145350Y767736D02*X147600D01*
X144600Y768486D02*X145350Y767736D01*
X98000Y772536D02*X99200Y773736D01*
Y767736D01*
X98000D02*X100250D01*
X102050Y772986D02*X102800Y773736D01*
X104300D01*
X105050Y772986D01*
X104300Y767736D02*X105050Y768486D01*
X102800Y767736D02*X104300D01*
X102050Y768486D02*X102800Y767736D01*
Y771036D02*X104300D01*
X105050Y772986D02*Y771786D01*
Y770286D02*Y768486D01*
Y770286D02*X104300Y771036D01*
X105050Y771786D02*X104300Y771036D01*
X45000Y768486D02*X45750Y767736D01*
X45000Y772986D02*Y768486D01*
Y772986D02*X45750Y773736D01*
X47250D01*
X48000Y772986D01*
Y768486D01*
X47250Y767736D02*X48000Y768486D01*
X45750Y767736D02*X47250D01*
X45000Y769236D02*X48000Y772236D01*
X49800Y767736D02*X50550D01*
X52350Y768486D02*X53100Y767736D01*
X52350Y772986D02*Y768486D01*
Y772986D02*X53100Y773736D01*
X54600D01*
X55350Y772986D01*
Y768486D01*
X54600Y767736D02*X55350Y768486D01*
X53100Y767736D02*X54600D01*
X52350Y769236D02*X55350Y772236D01*
X57150Y772986D02*X57900Y773736D01*
X59400D01*
X60150Y772986D01*
X59400Y767736D02*X60150Y768486D01*
X57900Y767736D02*X59400D01*
X57150Y768486D02*X57900Y767736D01*
Y771036D02*X59400D01*
X60150Y772986D02*Y771786D01*
Y770286D02*Y768486D01*
Y770286D02*X59400Y771036D01*
X60150Y771786D02*X59400Y771036D01*
X61950Y773736D02*X64950D01*
X61950D02*Y770736D01*
X62700Y771486D01*
X64200D01*
X64950Y770736D01*
Y768486D01*
X64200Y767736D02*X64950Y768486D01*
X62700Y767736D02*X64200D01*
X61950Y768486D02*X62700Y767736D01*
X409233Y92735D02*X411633Y90335D01*
X409233D02*X411633Y92735D01*
X417107D02*X419507Y90335D01*
X417107D02*X419507Y92735D01*
X249784Y63208D02*X252184Y60808D01*
X249784D02*X252184Y63208D01*
X257658D02*X260058Y60808D01*
X257658D02*X260058Y63208D01*
X408249Y457893D02*X410649Y455493D01*
X408249D02*X410649Y457893D01*
X416123D02*X418523Y455493D01*
X416123D02*X418523Y457893D01*
X284233Y508090D02*X286633Y505690D01*
X284233D02*X286633Y508090D01*
X284233Y500216D02*X286633Y497816D01*
X284233D02*X286633Y500216D01*
X408249Y334861D02*X410649Y332461D01*
X408249D02*X410649Y334861D01*
X416123D02*X418523Y332461D01*
X416123D02*X418523Y334861D01*
X231083Y327972D02*X233483Y325572D01*
X231083D02*X233483Y327972D01*
X238957D02*X241357Y325572D01*
X238957D02*X241357Y327972D01*
X410217Y213798D02*X412617Y211398D01*
X410217D02*X412617Y213798D01*
X418091D02*X420491Y211398D01*
X418091D02*X420491Y213798D01*
X249784Y174428D02*X252184Y172028D01*
X249784D02*X252184Y174428D01*
X257658D02*X260058Y172028D01*
X257658D02*X260058Y174428D01*
X408249Y140964D02*X410649Y138564D01*
X408249D02*X410649Y140964D01*
X408249Y154743D02*X410649Y152343D01*
X408249D02*X410649Y154743D01*
X249784Y141948D02*X252184Y139548D01*
X249784D02*X252184Y141948D01*
X257658D02*X260058Y139548D01*
X257658D02*X260058Y141948D01*
X409233Y65176D02*X411633Y62776D01*
X409233D02*X411633Y65176D01*
X409233Y51397D02*X411633Y48997D01*
X409233D02*X411633Y51397D01*
X232068Y447066D02*X234468Y444666D01*
X232068D02*X234468Y447066D01*
X239942D02*X242342Y444666D01*
X239942D02*X242342Y447066D01*
X408249Y478562D02*X410649Y476162D01*
X408249D02*X410649Y478562D01*
X416123D02*X418523Y476162D01*
X416123D02*X418523Y478562D01*
X408249Y383090D02*X410649Y380690D01*
X408249D02*X410649Y383090D01*
X408249Y396869D02*X410649Y394469D01*
X408249D02*X410649Y396869D01*
X246831Y385058D02*X249231Y382658D01*
X246831D02*X249231Y385058D01*
X254706D02*X257106Y382658D01*
X254706D02*X257106Y385058D01*
X409233Y355531D02*X411633Y353131D01*
X409233D02*X411633Y355531D01*
X417107D02*X419507Y353131D01*
X417107D02*X419507Y355531D01*
X409233Y234468D02*X411633Y232068D01*
X409233D02*X411633Y234468D01*
X417107D02*X419507Y232068D01*
X417107D02*X419507Y234468D01*
X409233Y187224D02*X411633Y184824D01*
X409233D02*X411633Y187224D01*
X409233Y173444D02*X411633Y171044D01*
X409233D02*X411633Y173444D01*
X409233Y113405D02*X411633Y111005D01*
X409233D02*X411633Y113405D01*
X417107D02*X419507Y111005D01*
X417107D02*X419507Y113405D01*
X249784Y263011D02*X252184Y260611D01*
X249784D02*X252184Y263011D01*
X257658D02*X260058Y260611D01*
X257658D02*X260058Y263011D01*
X408249Y262027D02*X410649Y259627D01*
X408249D02*X410649Y262027D01*
X408249Y275806D02*X410649Y273406D01*
X408249D02*X410649Y275806D01*
X408249Y308287D02*X410649Y305887D01*
X408249D02*X410649Y308287D01*
X408249Y294507D02*X410649Y292107D01*
X408249D02*X410649Y294507D01*
X408249Y430334D02*X410649Y427934D01*
X408249D02*X410649Y430334D01*
X408249Y416554D02*X410649Y414154D01*
X408249D02*X410649Y416554D01*
X408249Y506121D02*X410649Y503721D01*
X408249D02*X410649Y506121D01*
X408249Y519901D02*X410649Y517501D01*
X408249D02*X410649Y519901D01*
X24391Y356515D02*X26791Y354115D01*
X24391D02*X26791Y356515D01*
X24391Y482499D02*X26791Y480099D01*
X24391D02*X26791Y482499D01*
X13800Y787686D02*X16200Y785286D01*
X13800D02*X16200Y787686D01*
X135000Y788736D02*X136500Y785736D01*
X138000Y788736D01*
X136500Y785736D02*Y782736D01*
X139800Y786036D02*X142050D01*
X139800Y782736D02*X142800D01*
X139800Y788736D02*Y782736D01*
Y788736D02*X142800D01*
X147600D02*X148350Y787986D01*
X145350Y788736D02*X147600D01*
X144600Y787986D02*X145350Y788736D01*
X144600Y787986D02*Y786486D01*
X145350Y785736D01*
X147600D01*
X148350Y784986D01*
Y783486D01*
X147600Y782736D02*X148350Y783486D01*
X145350Y782736D02*X147600D01*
X144600Y783486D02*X145350Y782736D01*
X98000Y788736D02*X101000D01*
X98000D02*Y785736D01*
X98750Y786486D01*
X100250D01*
X101000Y785736D01*
Y783486D01*
X100250Y782736D02*X101000Y783486D01*
X98750Y782736D02*X100250D01*
X98000Y783486D02*X98750Y782736D01*
X102800Y783486D02*X103550Y782736D01*
X102800Y787986D02*Y783486D01*
Y787986D02*X103550Y788736D01*
X105050D01*
X105800Y787986D01*
Y783486D01*
X105050Y782736D02*X105800Y783486D01*
X103550Y782736D02*X105050D01*
X102800Y784236D02*X105800Y787236D01*
X45000Y783486D02*X45750Y782736D01*
X45000Y787986D02*Y783486D01*
Y787986D02*X45750Y788736D01*
X47250D01*
X48000Y787986D01*
Y783486D01*
X47250Y782736D02*X48000Y783486D01*
X45750Y782736D02*X47250D01*
X45000Y784236D02*X48000Y787236D01*
X49800Y782736D02*X50550D01*
X52350Y783486D02*X53100Y782736D01*
X52350Y787986D02*Y783486D01*
Y787986D02*X53100Y788736D01*
X54600D01*
X55350Y787986D01*
Y783486D01*
X54600Y782736D02*X55350Y783486D01*
X53100Y782736D02*X54600D01*
X52350Y784236D02*X55350Y787236D01*
X57150Y787986D02*X57900Y788736D01*
X60150D01*
X60900Y787986D01*
Y786486D01*
X57150Y782736D02*X60900Y786486D01*
X57150Y782736D02*X60900D01*
X62700Y783486D02*X63450Y782736D01*
X62700Y784686D02*Y783486D01*
Y784686D02*X63750Y785736D01*
X64650D01*
X65700Y784686D01*
Y783486D01*
X64950Y782736D02*X65700Y783486D01*
X63450Y782736D02*X64950D01*
X62700Y786786D02*X63750Y785736D01*
X62700Y787986D02*Y786786D01*
Y787986D02*X63450Y788736D01*
X64950D01*
X65700Y787986D01*
Y786786D01*
X64650Y785736D02*X65700Y786786D01*
X229331Y116757D02*Y113557D01*
X227731Y115157D02*X230931D01*
X197835Y109868D02*Y106668D01*
X196235Y108268D02*X199435D01*
X197835Y89198D02*Y85998D01*
X196235Y87598D02*X199435D01*
X197835Y81324D02*Y78124D01*
X196235Y79724D02*X199435D01*
X263780Y87230D02*Y84030D01*
X262180Y85630D02*X265380D01*
X256890Y97072D02*Y93872D01*
X255290Y95472D02*X258490D01*
X250984Y97072D02*Y93872D01*
X249384Y95472D02*X252584D01*
X263780Y208293D02*Y205093D01*
X262180Y206693D02*X265380D01*
X255906Y218135D02*Y214935D01*
X254306Y216535D02*X257506D01*
X248031Y228962D02*Y225762D01*
X246431Y227362D02*X249631D01*
X263780Y329356D02*Y326156D01*
X262180Y327756D02*X265380D01*
X249016Y341167D02*Y337967D01*
X247416Y339567D02*X250616D01*
X264764Y451403D02*Y448203D01*
X263164Y449803D02*X266364D01*
X256890Y460261D02*Y457061D01*
X255290Y458661D02*X258490D01*
X263780Y472072D02*Y468872D01*
X262180Y470472D02*X265380D01*
X248031Y463214D02*Y460014D01*
X246431Y461614D02*X249631D01*
X250984Y218135D02*Y214935D01*
X249384Y216535D02*X252584D01*
X217520Y476994D02*Y473794D01*
X215920Y475394D02*X219120D01*
X223425Y356915D02*Y353715D01*
X221825Y355315D02*X225025D01*
X181102Y448450D02*Y445250D01*
X179502Y446850D02*X182702D01*
X175197Y329356D02*Y326156D01*
X173597Y327756D02*X176797D01*
X186024Y358883D02*Y355683D01*
X184424Y357283D02*X187624D01*
X225394Y236836D02*Y233636D01*
X223794Y235236D02*X226994D01*
X191929Y219120D02*Y215920D01*
X190329Y217520D02*X193529D01*
X90551Y190576D02*Y187376D01*
X88951Y188976D02*X92151D01*
X47244Y251600D02*Y248400D01*
X45644Y250000D02*X48844D01*
X78740Y228962D02*Y225762D01*
X77140Y227362D02*X80340D01*
X29528Y300813D02*Y297613D01*
X27928Y299213D02*X31128D01*
X28543Y257506D02*Y254306D01*
X26943Y255906D02*X30143D01*
X69882Y272269D02*Y269069D01*
X68282Y270669D02*X71482D01*
X82677Y261443D02*Y258243D01*
X81077Y259843D02*X84277D01*
X122047Y274238D02*Y271038D01*
X120447Y272638D02*X123647D01*
X105315Y244710D02*Y241510D01*
X103715Y243110D02*X106915D01*
X151575Y249631D02*Y246431D01*
X149975Y248031D02*X153175D01*
X130906Y224041D02*Y220841D01*
X129306Y222441D02*X132506D01*
X112205Y204356D02*Y201156D01*
X110605Y202756D02*X113805D01*
X141732Y176797D02*Y173597D01*
X140132Y175197D02*X143332D01*
X38386Y186639D02*Y183439D01*
X36786Y185039D02*X39986D01*
X155512Y24238D02*Y21038D01*
X153912Y22638D02*X157112D01*
X165354Y182702D02*Y179502D01*
X163754Y181102D02*X166954D01*
X131890Y256521D02*Y253321D01*
X130290Y254921D02*X133490D01*
X44291Y178765D02*Y175565D01*
X42691Y177165D02*X45891D01*
X48228Y202387D02*Y199187D01*
X46628Y200787D02*X49828D01*
X52165Y177781D02*Y174581D01*
X50565Y176181D02*X53765D01*
X155512Y40970D02*Y37770D01*
X153912Y39370D02*X157112D01*
X170276Y26206D02*Y23006D01*
X168676Y24606D02*X171876D01*
X63976Y177781D02*Y174581D01*
X62376Y176181D02*X65576D01*
X155512Y50813D02*Y47613D01*
X153912Y49213D02*X157112D01*
X170276Y36049D02*Y32849D01*
X168676Y34449D02*X171876D01*
X69882Y177781D02*Y174581D01*
X68282Y176181D02*X71482D01*
X170276Y42939D02*Y39739D01*
X168676Y41339D02*X171876D01*
X469488Y62624D02*Y59424D01*
X467888Y61024D02*X471088D01*
X125984Y283096D02*Y279896D01*
X124384Y281496D02*X127584D01*
X467520Y66561D02*Y63361D01*
X465920Y64961D02*X469120D01*
X75787Y177781D02*Y174581D01*
X74187Y176181D02*X77387D01*
X155512Y63608D02*Y60408D01*
X153912Y62008D02*X157112D01*
X461614Y66561D02*Y63361D01*
X460014Y64961D02*X463214D01*
X455709Y66561D02*Y63361D01*
X454109Y64961D02*X457309D01*
X155512Y69513D02*Y66313D01*
X153912Y67913D02*X157112D01*
X180118Y45891D02*Y42691D01*
X178518Y44291D02*X181718D01*
X80709Y181718D02*Y178518D01*
X79109Y180118D02*X82309D01*
X155512Y75419D02*Y72219D01*
X153912Y73819D02*X157112D01*
X180118Y51797D02*Y48597D01*
X178518Y50197D02*X181718D01*
X449803Y66561D02*Y63361D01*
X448203Y64961D02*X451403D01*
X443898Y66561D02*Y63361D01*
X442298Y64961D02*X445498D01*
X122047Y291954D02*Y288754D01*
X120447Y290354D02*X123647D01*
X437992Y66561D02*Y63361D01*
X436392Y64961D02*X439592D01*
X79724Y205340D02*Y202140D01*
X78124Y203740D02*X81324D01*
X155512Y82309D02*Y79109D01*
X153912Y80709D02*X157112D01*
X180118Y63608D02*Y60408D01*
X178518Y62008D02*X181718D01*
X433071Y66561D02*Y63361D01*
X431471Y64961D02*X434671D01*
X180118Y68529D02*Y65329D01*
X178518Y66929D02*X181718D01*
X155512Y87230D02*Y84030D01*
X153912Y85630D02*X157112D01*
X427165Y66561D02*Y63361D01*
X425565Y64961D02*X428765D01*
X180118Y73450D02*Y70250D01*
X178518Y71850D02*X181718D01*
X155512Y92151D02*Y88951D01*
X153912Y90551D02*X157112D01*
X73819Y217151D02*Y213951D01*
X72219Y215551D02*X75419D01*
X280512Y44907D02*Y41707D01*
X278912Y43307D02*X282112D01*
X213583Y46876D02*Y43676D01*
X211983Y45276D02*X215183D01*
X249016Y50813D02*Y47613D01*
X247416Y49213D02*X250616D01*
X133858Y287033D02*Y283833D01*
X132258Y285433D02*X135458D01*
X197835Y60655D02*Y57455D01*
X196235Y59055D02*X199435D01*
X141732Y231915D02*Y228715D01*
X140132Y230315D02*X143332D01*
X157480Y100025D02*Y96825D01*
X155880Y98425D02*X159080D01*
X155512Y199435D02*Y196235D01*
X153912Y197835D02*X157112D01*
X155512Y104946D02*Y101746D01*
X153912Y103346D02*X157112D01*
X131890Y126600D02*Y123400D01*
X130290Y125000D02*X133490D01*
X151575Y112820D02*Y109620D01*
X149975Y111220D02*X153175D01*
X141732Y252584D02*Y249384D01*
X140132Y250984D02*X143332D01*
X165354Y228962D02*Y225762D01*
X163754Y227362D02*X166954D01*
X181102Y228962D02*Y225762D01*
X179502Y227362D02*X182702D01*
X184055Y100025D02*Y96825D01*
X182455Y98425D02*X185655D01*
X149606Y175813D02*Y172613D01*
X148006Y174213D02*X151206D01*
X149606Y117742D02*Y114542D01*
X148006Y116142D02*X151206D01*
X224409Y134474D02*Y131274D01*
X222809Y132874D02*X226009D01*
X214567Y134474D02*Y131274D01*
X212967Y132874D02*X216167D01*
X124016Y301797D02*Y298597D01*
X122416Y300197D02*X125616D01*
X112205Y199435D02*Y196235D01*
X110605Y197835D02*X113805D01*
X146654Y147269D02*Y144069D01*
X145054Y145669D02*X148254D01*
X191929Y147269D02*Y144069D01*
X190329Y145669D02*X193529D01*
X119094Y188608D02*Y185408D01*
X117494Y187008D02*X120694D01*
X146654Y161049D02*Y157849D01*
X145054Y159449D02*X148254D01*
X107283Y196482D02*Y193282D01*
X105683Y194882D02*X108883D01*
X284449Y160065D02*Y156865D01*
X282849Y158465D02*X286049D01*
X234252Y158096D02*Y154896D01*
X232652Y156496D02*X235852D01*
X229331Y131521D02*Y128321D01*
X227731Y129921D02*X230931D01*
X157480Y275222D02*Y272022D01*
X155880Y273622D02*X159080D01*
X188976Y205340D02*Y202140D01*
X187376Y203740D02*X190576D01*
X161417Y199435D02*Y196235D01*
X159817Y197835D02*X163017D01*
X137795Y245694D02*Y242494D01*
X136195Y244094D02*X139395D01*
X232283Y203372D02*Y200172D01*
X230683Y201772D02*X233883D01*
X172244Y275222D02*Y272022D01*
X170644Y273622D02*X173844D01*
X133858Y305734D02*Y302534D01*
X132258Y304134D02*X135458D01*
X44291Y305734D02*Y302534D01*
X42691Y304134D02*X45891D01*
X43307Y246679D02*Y243479D01*
X41707Y245079D02*X44907D01*
X172244Y282112D02*Y278912D01*
X170644Y280512D02*X173844D01*
X137795Y310655D02*Y307455D01*
X136195Y309055D02*X139395D01*
X58071Y310655D02*Y307455D01*
X56471Y309055D02*X59671D01*
X46260Y237820D02*Y234620D01*
X44660Y236220D02*X47860D01*
X26575Y213214D02*Y210014D01*
X24975Y211614D02*X28175D01*
X80709Y239789D02*Y236589D01*
X79109Y238189D02*X82309D01*
X141732Y196482D02*Y193282D01*
X140132Y194882D02*X143332D01*
X141732Y223057D02*Y219857D01*
X140132Y221457D02*X143332D01*
X120079Y213214D02*Y210014D01*
X118479Y211614D02*X121679D01*
X101378Y327387D02*Y324187D01*
X99778Y325787D02*X102978D01*
X104331Y250616D02*Y247416D01*
X102731Y249016D02*X105931D01*
X104331Y319513D02*Y316313D01*
X102731Y317913D02*X105931D01*
X115157Y236836D02*Y233636D01*
X113557Y235236D02*X116757D01*
X173228Y472072D02*Y468872D01*
X171628Y470472D02*X174828D01*
X252953Y338214D02*Y335014D01*
X251353Y336614D02*X254553D01*
X259843Y453372D02*Y450172D01*
X258243Y451772D02*X261443D01*
X257874Y329356D02*Y326156D01*
X256274Y327756D02*X259474D01*
X257874Y87230D02*Y84030D01*
X256274Y85630D02*X259474D01*
X259843Y210261D02*Y207061D01*
X258243Y208661D02*X261443D01*
X242126Y158096D02*Y154896D01*
X240526Y156496D02*X243726D01*
X170276Y21285D02*Y18085D01*
X168676Y19685D02*X171876D01*
X155512Y35065D02*Y31865D01*
X153912Y33465D02*X157112D01*
X247047Y481915D02*Y478715D01*
X245447Y480315D02*X248647D01*
X146654Y154159D02*Y150959D01*
X145054Y152559D02*X148254D01*
X192913Y194513D02*Y191313D01*
X191313Y192913D02*X194513D01*
X180118Y40970D02*Y37770D01*
X178518Y39370D02*X181718D01*
X36417Y305734D02*Y302534D01*
X34817Y304134D02*X38017D01*
X36417Y234868D02*Y231668D01*
X34817Y233268D02*X38017D01*
X158465Y220104D02*Y216904D01*
X156865Y218504D02*X160065D01*
X125984Y229946D02*Y226746D01*
X124384Y228346D02*X127584D01*
X89567Y207309D02*Y204109D01*
X87967Y205709D02*X91167D01*
X508858Y431718D02*Y428518D01*
X507258Y430118D02*X510458D01*
X508858Y427781D02*Y424581D01*
X507258Y426181D02*X510458D01*
X312992Y74435D02*Y71235D01*
X311392Y72835D02*X314592D01*
X328740Y86246D02*Y83046D01*
X327140Y84646D02*X330340D01*
X352362Y79356D02*Y76156D01*
X350762Y77756D02*X353962D01*
X340551Y62624D02*Y59424D01*
X338951Y61024D02*X342151D01*
X346457Y62624D02*Y59424D01*
X344857Y61024D02*X348057D01*
X343504Y67545D02*Y64345D01*
X341904Y65945D02*X345104D01*
X337598Y67545D02*Y64345D01*
X335998Y65945D02*X339198D01*
X379921Y75419D02*Y72219D01*
X378321Y73819D02*X381521D01*
X385827Y75419D02*Y72219D01*
X384227Y73819D02*X387427D01*
X391732Y75419D02*Y72219D01*
X390132Y73819D02*X393332D01*
X397638Y75419D02*Y72219D01*
X396038Y73819D02*X399238D01*
X400591Y70498D02*Y67298D01*
X398991Y68898D02*X402191D01*
X394685Y70498D02*Y67298D01*
X393085Y68898D02*X396285D01*
X388780Y70498D02*Y67298D01*
X387180Y68898D02*X390380D01*
X382874Y70498D02*Y67298D01*
X381274Y68898D02*X384474D01*
X379921Y63608D02*Y60408D01*
X378321Y62008D02*X381521D01*
X382874Y59671D02*Y56471D01*
X381274Y58071D02*X384474D01*
X385827Y63608D02*Y60408D01*
X384227Y62008D02*X387427D01*
X397638Y63608D02*Y60408D01*
X396038Y62008D02*X399238D01*
X400591Y59671D02*Y56471D01*
X398991Y58071D02*X402191D01*
X403543Y63608D02*Y60408D01*
X401943Y62008D02*X405143D01*
X379921Y88214D02*Y85014D01*
X378321Y86614D02*X381521D01*
X385827Y88214D02*Y85014D01*
X384227Y86614D02*X387427D01*
X391732Y88214D02*Y85014D01*
X390132Y86614D02*X393332D01*
X397638Y88214D02*Y85014D01*
X396038Y86614D02*X399238D01*
X399606Y82309D02*Y79109D01*
X398006Y80709D02*X401206D01*
X394685Y82309D02*Y79109D01*
X393085Y80709D02*X396285D01*
X388780Y82309D02*Y79109D01*
X387180Y80709D02*X390380D01*
X382874Y82309D02*Y79109D01*
X381274Y80709D02*X384474D01*
X336614Y99041D02*Y95841D01*
X335014Y97441D02*X338214D01*
X340551Y95104D02*Y91904D01*
X338951Y93504D02*X342151D01*
X343504Y99041D02*Y95841D01*
X341904Y97441D02*X345104D01*
X380906Y111836D02*Y108636D01*
X379306Y110236D02*X382506D01*
X387795Y111836D02*Y108636D01*
X386195Y110236D02*X389395D01*
X394685Y111836D02*Y108636D01*
X393085Y110236D02*X396285D01*
X398622Y105931D02*Y102731D01*
X397022Y104331D02*X400222D01*
X391732Y105931D02*Y102731D01*
X390132Y104331D02*X393332D01*
X384843Y105931D02*Y102731D01*
X383243Y104331D02*X386443D01*
X380906Y100025D02*Y96825D01*
X379306Y98425D02*X382506D01*
X387795Y100025D02*Y96825D01*
X386195Y98425D02*X389395D01*
X394685Y100025D02*Y96825D01*
X393085Y98425D02*X396285D01*
X398622Y95104D02*Y91904D01*
X397022Y93504D02*X400222D01*
X391732Y95104D02*Y91904D01*
X390132Y93504D02*X393332D01*
X384843Y95104D02*Y91904D01*
X383243Y93504D02*X386443D01*
X352362Y102978D02*Y99778D01*
X350762Y101378D02*X353962D01*
X328740Y108883D02*Y105683D01*
X327140Y107283D02*X330340D01*
X352362Y126600D02*Y123400D01*
X350762Y125000D02*X353962D01*
X328740Y126600D02*Y123400D01*
X327140Y125000D02*X330340D01*
X335630Y146285D02*Y143085D01*
X334030Y144685D02*X337230D01*
X340551Y146285D02*Y143085D01*
X338951Y144685D02*X342151D01*
X345472Y146285D02*Y143085D01*
X343872Y144685D02*X347072D01*
X343504Y141364D02*Y138164D01*
X341904Y139764D02*X345104D01*
X337598Y142348D02*Y139148D01*
X335998Y140748D02*X339198D01*
X380906Y135458D02*Y132258D01*
X379306Y133858D02*X382506D01*
X387795Y135458D02*Y132258D01*
X386195Y133858D02*X389395D01*
X395669Y135458D02*Y132258D01*
X394069Y133858D02*X397269D01*
X398622Y129553D02*Y126353D01*
X397022Y127953D02*X400222D01*
X391732Y129553D02*Y126353D01*
X390132Y127953D02*X393332D01*
X384843Y129553D02*Y126353D01*
X383243Y127953D02*X386443D01*
X380906Y123647D02*Y120447D01*
X379306Y122047D02*X382506D01*
X387795Y123647D02*Y120447D01*
X386195Y122047D02*X389395D01*
X395669Y123647D02*Y120447D01*
X394069Y122047D02*X397269D01*
X398622Y118726D02*Y115526D01*
X397022Y117126D02*X400222D01*
X391732Y118726D02*Y115526D01*
X390132Y117126D02*X393332D01*
X384843Y118726D02*Y115526D01*
X383243Y117126D02*X386443D01*
X335630Y110852D02*Y107652D01*
X334030Y109252D02*X337230D01*
X343504Y110852D02*Y107652D01*
X341904Y109252D02*X345104D01*
X339567Y106915D02*Y103715D01*
X337967Y105315D02*X341167D01*
X350394Y159080D02*Y155880D01*
X348794Y157480D02*X351994D01*
X358268Y159080D02*Y155880D01*
X356668Y157480D02*X359868D01*
X366142Y159080D02*Y155880D01*
X364542Y157480D02*X367742D01*
X374016Y159080D02*Y155880D01*
X372416Y157480D02*X375616D01*
X381890Y159080D02*Y155880D01*
X380290Y157480D02*X383490D01*
X396654Y159080D02*Y155880D01*
X395054Y157480D02*X398254D01*
X377953Y155143D02*Y151943D01*
X376353Y153543D02*X379553D01*
X370079Y155143D02*Y151943D01*
X368479Y153543D02*X371679D01*
X362205Y155143D02*Y151943D01*
X360605Y153543D02*X363805D01*
X354331Y155143D02*Y151943D01*
X352731Y153543D02*X355931D01*
X350394Y166954D02*Y163754D01*
X348794Y165354D02*X351994D01*
X358268Y166954D02*Y163754D01*
X356668Y165354D02*X359868D01*
X366142Y166954D02*Y163754D01*
X364542Y165354D02*X367742D01*
X374016Y166954D02*Y163754D01*
X372416Y165354D02*X375616D01*
X381890Y166954D02*Y163754D01*
X380290Y165354D02*X383490D01*
X377953Y163017D02*Y159817D01*
X376353Y161417D02*X379553D01*
X370079Y163017D02*Y159817D01*
X368479Y161417D02*X371679D01*
X362205Y163017D02*Y159817D01*
X360605Y161417D02*X363805D01*
X354331Y163017D02*Y159817D01*
X352731Y161417D02*X355931D01*
X350394Y173844D02*Y170644D01*
X348794Y172244D02*X351994D01*
X358268Y173844D02*Y170644D01*
X356668Y172244D02*X359868D01*
X366142Y173844D02*Y170644D01*
X364542Y172244D02*X367742D01*
X374016Y173844D02*Y170644D01*
X372416Y172244D02*X375616D01*
X381890Y173844D02*Y170644D01*
X380290Y172244D02*X383490D01*
X377953Y169907D02*Y166707D01*
X376353Y168307D02*X379553D01*
X370079Y169907D02*Y166707D01*
X368479Y168307D02*X371679D01*
X362205Y169907D02*Y166707D01*
X360605Y168307D02*X363805D01*
X354331Y169907D02*Y166707D01*
X352731Y168307D02*X355931D01*
X381890Y148254D02*Y145054D01*
X380290Y146654D02*X383490D01*
X381890Y142348D02*Y139148D01*
X380290Y140748D02*X383490D01*
X396654Y148254D02*Y145054D01*
X395054Y146654D02*X398254D01*
X396654Y142348D02*Y139148D01*
X395054Y140748D02*X398254D01*
X402559Y142348D02*Y139148D01*
X400959Y140748D02*X404159D01*
X402559Y148254D02*Y145054D01*
X400959Y146654D02*X404159D01*
X382874Y186639D02*Y183439D01*
X381274Y185039D02*X384474D01*
X382874Y180734D02*Y177534D01*
X381274Y179134D02*X384474D01*
X397638Y186639D02*Y183439D01*
X396038Y185039D02*X399238D01*
X397638Y180734D02*Y177534D01*
X396038Y179134D02*X399238D01*
X403543Y180734D02*Y177534D01*
X401943Y179134D02*X405143D01*
X403543Y186639D02*Y183439D01*
X401943Y185039D02*X405143D01*
X336614Y189592D02*Y186392D01*
X335014Y187992D02*X338214D01*
X344488Y189592D02*Y186392D01*
X342888Y187992D02*X346088D01*
X344488Y182702D02*Y179502D01*
X342888Y181102D02*X346088D01*
X336614Y182702D02*Y179502D01*
X335014Y181102D02*X338214D01*
X380906Y197466D02*Y194266D01*
X379306Y195866D02*X382506D01*
X386811Y197466D02*Y194266D01*
X385211Y195866D02*X388411D01*
X392717Y197466D02*Y194266D01*
X391117Y195866D02*X394317D01*
X398622Y197466D02*Y194266D01*
X397022Y195866D02*X400222D01*
X395669Y192545D02*Y189345D01*
X394069Y190945D02*X397269D01*
X389764Y192545D02*Y189345D01*
X388164Y190945D02*X391364D01*
X383858Y192545D02*Y189345D01*
X382258Y190945D02*X385458D01*
X380906Y209277D02*Y206077D01*
X379306Y207677D02*X382506D01*
X386811Y209277D02*Y206077D01*
X385211Y207677D02*X388411D01*
X392717Y209277D02*Y206077D01*
X391117Y207677D02*X394317D01*
X398622Y209277D02*Y206077D01*
X397022Y207677D02*X400222D01*
X395669Y204356D02*Y201156D01*
X394069Y202756D02*X397269D01*
X389764Y204356D02*Y201156D01*
X388164Y202756D02*X391364D01*
X383858Y204356D02*Y201156D01*
X382258Y202756D02*X385458D01*
X337598Y222072D02*Y218872D01*
X335998Y220472D02*X339198D01*
X345472Y222072D02*Y218872D01*
X343872Y220472D02*X347072D01*
X345472Y217151D02*Y213951D01*
X343872Y215551D02*X347072D01*
X337598Y217151D02*Y213951D01*
X335998Y215551D02*X339198D01*
X381890Y233883D02*Y230683D01*
X380290Y232283D02*X383490D01*
X388780Y233883D02*Y230683D01*
X387180Y232283D02*X390380D01*
X395669Y233883D02*Y230683D01*
X394069Y232283D02*X397269D01*
X399606Y227978D02*Y224778D01*
X398006Y226378D02*X401206D01*
X392717Y227978D02*Y224778D01*
X391117Y226378D02*X394317D01*
X385827Y227978D02*Y224778D01*
X384227Y226378D02*X387427D01*
X381890Y222072D02*Y218872D01*
X380290Y220472D02*X383490D01*
X388780Y222072D02*Y218872D01*
X387180Y220472D02*X390380D01*
X395669Y222072D02*Y218872D01*
X394069Y220472D02*X397269D01*
X399606Y217151D02*Y213951D01*
X398006Y215551D02*X401206D01*
X392717Y217151D02*Y213951D01*
X391117Y215551D02*X394317D01*
X385827Y217151D02*Y213951D01*
X384227Y215551D02*X387427D01*
X349409Y281128D02*Y277928D01*
X347809Y279528D02*X351009D01*
X357283Y281128D02*Y277928D01*
X355683Y279528D02*X358883D01*
X365157Y281128D02*Y277928D01*
X363557Y279528D02*X366757D01*
X373031Y281128D02*Y277928D01*
X371431Y279528D02*X374631D01*
X380906Y281128D02*Y277928D01*
X379306Y279528D02*X382506D01*
X376969Y277191D02*Y273991D01*
X375369Y275591D02*X378569D01*
X369094Y277191D02*Y273991D01*
X367494Y275591D02*X370694D01*
X361220Y277191D02*Y273991D01*
X359620Y275591D02*X362820D01*
X353346Y277191D02*Y273991D01*
X351746Y275591D02*X354946D01*
X349409Y289002D02*Y285802D01*
X347809Y287402D02*X351009D01*
X357283Y289002D02*Y285802D01*
X355683Y287402D02*X358883D01*
X365157Y289002D02*Y285802D01*
X363557Y287402D02*X366757D01*
X373031Y289002D02*Y285802D01*
X371431Y287402D02*X374631D01*
X376969Y285065D02*Y281865D01*
X375369Y283465D02*X378569D01*
X369094Y285065D02*Y281865D01*
X367494Y283465D02*X370694D01*
X361220Y285065D02*Y281865D01*
X359620Y283465D02*X362820D01*
X353346Y285065D02*Y281865D01*
X351746Y283465D02*X354946D01*
X349409Y295891D02*Y292691D01*
X347809Y294291D02*X351009D01*
X357283Y295891D02*Y292691D01*
X355683Y294291D02*X358883D01*
X365157Y295891D02*Y292691D01*
X363557Y294291D02*X366757D01*
X373031Y295891D02*Y292691D01*
X371431Y294291D02*X374631D01*
X380906Y295891D02*Y292691D01*
X379306Y294291D02*X382506D01*
X376969Y291954D02*Y288754D01*
X375369Y290354D02*X378569D01*
X369094Y291954D02*Y288754D01*
X367494Y290354D02*X370694D01*
X361220Y291954D02*Y288754D01*
X359620Y290354D02*X362820D01*
X353346Y291954D02*Y288754D01*
X351746Y290354D02*X354946D01*
X336614Y269317D02*Y266117D01*
X335014Y267717D02*X338214D01*
X344488Y269317D02*Y266117D01*
X342888Y267717D02*X346088D01*
X344488Y264395D02*Y261195D01*
X342888Y262795D02*X346088D01*
X336614Y264395D02*Y261195D01*
X335014Y262795D02*X338214D01*
X382874Y270301D02*Y267101D01*
X381274Y268701D02*X384474D01*
X382874Y264395D02*Y261195D01*
X381274Y262795D02*X384474D01*
X397638Y270301D02*Y267101D01*
X396038Y268701D02*X399238D01*
X397638Y264395D02*Y261195D01*
X396038Y262795D02*X399238D01*
X403543Y264395D02*Y261195D01*
X401943Y262795D02*X405143D01*
X403543Y270301D02*Y267101D01*
X401943Y268701D02*X405143D01*
X324803Y189592D02*Y186392D01*
X323203Y187992D02*X326403D01*
X336614Y235852D02*Y232652D01*
X335014Y234252D02*X338214D01*
X344488Y235852D02*Y232652D01*
X342888Y234252D02*X346088D01*
X344488Y228962D02*Y225762D01*
X342888Y227362D02*X346088D01*
X336614Y228962D02*Y225762D01*
X335014Y227362D02*X338214D01*
X381890Y244710D02*Y241510D01*
X380290Y243110D02*X383490D01*
X387795Y244710D02*Y241510D01*
X386195Y243110D02*X389395D01*
X393701Y244710D02*Y241510D01*
X392101Y243110D02*X395301D01*
X399606Y244710D02*Y241510D01*
X398006Y243110D02*X401206D01*
X396654Y239789D02*Y236589D01*
X395054Y238189D02*X398254D01*
X390748Y239789D02*Y236589D01*
X389148Y238189D02*X392348D01*
X384843Y239789D02*Y236589D01*
X383243Y238189D02*X386443D01*
X325787Y233883D02*Y230683D01*
X324187Y232283D02*X327387D01*
X353346Y225025D02*Y221825D01*
X351746Y223425D02*X354946D01*
X381890Y256521D02*Y253321D01*
X380290Y254921D02*X383490D01*
X387795Y256521D02*Y253321D01*
X386195Y254921D02*X389395D01*
X393701Y256521D02*Y253321D01*
X392101Y254921D02*X395301D01*
X399606Y256521D02*Y253321D01*
X398006Y254921D02*X401206D01*
X396654Y251600D02*Y248400D01*
X395054Y250000D02*X398254D01*
X390748Y251600D02*Y248400D01*
X389148Y250000D02*X392348D01*
X384843Y251600D02*Y248400D01*
X383243Y250000D02*X386443D01*
X382874Y308687D02*Y305487D01*
X381274Y307087D02*X384474D01*
X382874Y302781D02*Y299581D01*
X381274Y301181D02*X384474D01*
X397638Y308687D02*Y305487D01*
X396038Y307087D02*X399238D01*
X397638Y302781D02*Y299581D01*
X396038Y301181D02*X399238D01*
X403543Y302781D02*Y299581D01*
X401943Y301181D02*X405143D01*
X403543Y308687D02*Y305487D01*
X401943Y307087D02*X405143D01*
X381890Y390380D02*Y387180D01*
X380290Y388780D02*X383490D01*
X381890Y384474D02*Y381274D01*
X380290Y382874D02*X383490D01*
X396654Y390380D02*Y387180D01*
X395054Y388780D02*X398254D01*
X396654Y384474D02*Y381274D01*
X395054Y382874D02*X398254D01*
X402559Y384474D02*Y381274D01*
X400959Y382874D02*X404159D01*
X402559Y390380D02*Y387180D01*
X400959Y388780D02*X404159D01*
X380906Y318529D02*Y315329D01*
X379306Y316929D02*X382506D01*
X386811Y318529D02*Y315329D01*
X385211Y316929D02*X388411D01*
X392717Y318529D02*Y315329D01*
X391117Y316929D02*X394317D01*
X398622Y318529D02*Y315329D01*
X397022Y316929D02*X400222D01*
X395669Y313608D02*Y310408D01*
X394069Y312008D02*X397269D01*
X389764Y313608D02*Y310408D01*
X388164Y312008D02*X391364D01*
X383858Y313608D02*Y310408D01*
X382258Y312008D02*X385458D01*
X381890Y330340D02*Y327140D01*
X380290Y328740D02*X383490D01*
X387795Y330340D02*Y327140D01*
X386195Y328740D02*X389395D01*
X393701Y330340D02*Y327140D01*
X392101Y328740D02*X395301D01*
X399606Y330340D02*Y327140D01*
X398006Y328740D02*X401206D01*
X396654Y325419D02*Y322219D01*
X395054Y323819D02*X398254D01*
X390748Y325419D02*Y322219D01*
X389148Y323819D02*X392348D01*
X384843Y325419D02*Y322219D01*
X383243Y323819D02*X386443D01*
X380906Y366757D02*Y363557D01*
X379306Y365157D02*X382506D01*
X386811Y366757D02*Y363557D01*
X385211Y365157D02*X388411D01*
X392717Y366757D02*Y363557D01*
X391117Y365157D02*X394317D01*
X398622Y366757D02*Y363557D01*
X397022Y365157D02*X400222D01*
X395669Y361836D02*Y358636D01*
X394069Y360236D02*X397269D01*
X389764Y361836D02*Y358636D01*
X388164Y360236D02*X391364D01*
X383858Y361836D02*Y358636D01*
X382258Y360236D02*X385458D01*
X381890Y378569D02*Y375369D01*
X380290Y376969D02*X383490D01*
X387795Y378569D02*Y375369D01*
X386195Y376969D02*X389395D01*
X393701Y378569D02*Y375369D01*
X392101Y376969D02*X395301D01*
X399606Y378569D02*Y375369D01*
X398006Y376969D02*X401206D01*
X396654Y373647D02*Y370447D01*
X395054Y372047D02*X398254D01*
X390748Y373647D02*Y370447D01*
X389148Y372047D02*X392348D01*
X384843Y373647D02*Y370447D01*
X383243Y372047D02*X386443D01*
X380906Y354946D02*Y351746D01*
X379306Y353346D02*X382506D01*
X387795Y354946D02*Y351746D01*
X386195Y353346D02*X389395D01*
X394685Y354946D02*Y351746D01*
X393085Y353346D02*X396285D01*
X398622Y349041D02*Y345841D01*
X397022Y347441D02*X400222D01*
X391732Y349041D02*Y345841D01*
X390132Y347441D02*X393332D01*
X384843Y349041D02*Y345841D01*
X383243Y347441D02*X386443D01*
X380906Y343135D02*Y339935D01*
X379306Y341535D02*X382506D01*
X387795Y343135D02*Y339935D01*
X386195Y341535D02*X389395D01*
X394685Y343135D02*Y339935D01*
X393085Y341535D02*X396285D01*
X398622Y338214D02*Y335014D01*
X397022Y336614D02*X400222D01*
X391732Y338214D02*Y335014D01*
X390132Y336614D02*X393332D01*
X384843Y338214D02*Y335014D01*
X383243Y336614D02*X386443D01*
X336614Y390380D02*Y387180D01*
X335014Y388780D02*X338214D01*
X344488Y390380D02*Y387180D01*
X342888Y388780D02*X346088D01*
X344488Y385458D02*Y382258D01*
X342888Y383858D02*X346088D01*
X336614Y385458D02*Y382258D01*
X335014Y383858D02*X338214D01*
X336614Y342151D02*Y338951D01*
X335014Y340551D02*X338214D01*
X344488Y342151D02*Y338951D01*
X342888Y340551D02*X346088D01*
X344488Y337230D02*Y334030D01*
X342888Y335630D02*X346088D01*
X336614Y337230D02*Y334030D01*
X335014Y335630D02*X338214D01*
X337598Y309671D02*Y306471D01*
X335998Y308071D02*X339198D01*
X345472Y309671D02*Y306471D01*
X343872Y308071D02*X347072D01*
X345472Y304750D02*Y301550D01*
X343872Y303150D02*X347072D01*
X325787Y302781D02*Y299581D01*
X324187Y301181D02*X327387D01*
X328740Y323450D02*Y320250D01*
X327140Y321850D02*X330340D01*
X354331Y322466D02*Y319266D01*
X352731Y320866D02*X355931D01*
X354331Y346088D02*Y342888D01*
X352731Y344488D02*X355931D01*
X328740Y351994D02*Y348794D01*
X327140Y350394D02*X330340D01*
X337598Y358883D02*Y355683D01*
X335998Y357283D02*X339198D01*
X345472Y358883D02*Y355683D01*
X343872Y357283D02*X347072D01*
X337598Y351994D02*Y348794D01*
X335998Y350394D02*X339198D01*
X345472Y351994D02*Y348794D01*
X343872Y350394D02*X347072D01*
X354331Y370694D02*Y367494D01*
X352731Y369094D02*X355931D01*
X328740Y368726D02*Y365526D01*
X327140Y367126D02*X330340D01*
X350394Y401206D02*Y398006D01*
X348794Y399606D02*X351994D01*
X358268Y401206D02*Y398006D01*
X356668Y399606D02*X359868D01*
X366142Y401206D02*Y398006D01*
X364542Y399606D02*X367742D01*
X374016Y401206D02*Y398006D01*
X372416Y399606D02*X375616D01*
X381890Y401206D02*Y398006D01*
X380290Y399606D02*X383490D01*
X377953Y397269D02*Y394069D01*
X376353Y395669D02*X379553D01*
X370079Y397269D02*Y394069D01*
X368479Y395669D02*X371679D01*
X362205Y397269D02*Y394069D01*
X360605Y395669D02*X363805D01*
X354331Y397269D02*Y394069D01*
X352731Y395669D02*X355931D01*
X350394Y409080D02*Y405880D01*
X348794Y407480D02*X351994D01*
X358268Y409080D02*Y405880D01*
X356668Y407480D02*X359868D01*
X366142Y409080D02*Y405880D01*
X364542Y407480D02*X367742D01*
X374016Y409080D02*Y405880D01*
X372416Y407480D02*X375616D01*
X377953Y405143D02*Y401943D01*
X376353Y403543D02*X379553D01*
X370079Y405143D02*Y401943D01*
X368479Y403543D02*X371679D01*
X362205Y405143D02*Y401943D01*
X360605Y403543D02*X363805D01*
X354331Y405143D02*Y401943D01*
X352731Y403543D02*X355931D01*
X350394Y415970D02*Y412770D01*
X348794Y414370D02*X351994D01*
X358268Y415970D02*Y412770D01*
X356668Y414370D02*X359868D01*
X366142Y415970D02*Y412770D01*
X364542Y414370D02*X367742D01*
X374016Y415970D02*Y412770D01*
X372416Y414370D02*X375616D01*
X381890Y415970D02*Y412770D01*
X380290Y414370D02*X383490D01*
X377953Y412033D02*Y408833D01*
X376353Y410433D02*X379553D01*
X370079Y412033D02*Y408833D01*
X368479Y410433D02*X371679D01*
X362205Y412033D02*Y408833D01*
X360605Y410433D02*X363805D01*
X354331Y412033D02*Y408833D01*
X352731Y410433D02*X355931D01*
X381890Y428765D02*Y425565D01*
X380290Y427165D02*X383490D01*
X381890Y423844D02*Y420644D01*
X380290Y422244D02*X383490D01*
X396654Y428765D02*Y425565D01*
X395054Y427165D02*X398254D01*
X396654Y423844D02*Y420644D01*
X395054Y422244D02*X398254D01*
X402559Y423844D02*Y420644D01*
X400959Y422244D02*X404159D01*
X402559Y428765D02*Y425565D01*
X400959Y427165D02*X404159D01*
X353346Y522269D02*Y519069D01*
X351746Y520669D02*X354946D01*
X357283Y518332D02*Y515132D01*
X355683Y516732D02*X358883D01*
X360236Y522269D02*Y519069D01*
X358636Y520669D02*X361836D01*
X364173Y518332D02*Y515132D01*
X362573Y516732D02*X365773D01*
X367126Y522269D02*Y519069D01*
X365526Y520669D02*X368726D01*
X372047Y520301D02*Y517101D01*
X370447Y518701D02*X373647D01*
X377953Y520301D02*Y517101D01*
X376353Y518701D02*X379553D01*
X393701Y520301D02*Y517101D01*
X392101Y518701D02*X395301D01*
X400591Y520301D02*Y517101D01*
X398991Y518701D02*X402191D01*
X380906Y440576D02*Y437376D01*
X379306Y438976D02*X382506D01*
X386811Y439592D02*Y436392D01*
X385211Y437992D02*X388411D01*
X392717Y440576D02*Y437376D01*
X391117Y438976D02*X394317D01*
X398622Y440576D02*Y437376D01*
X397022Y438976D02*X400222D01*
X395669Y435655D02*Y432455D01*
X394069Y434055D02*X397269D01*
X389764Y435655D02*Y432455D01*
X388164Y434055D02*X391364D01*
X383858Y435655D02*Y432455D01*
X382258Y434055D02*X385458D01*
X380906Y452387D02*Y449187D01*
X379306Y450787D02*X382506D01*
X386811Y452387D02*Y449187D01*
X385211Y450787D02*X388411D01*
X392717Y452387D02*Y449187D01*
X391117Y450787D02*X394317D01*
X398622Y452387D02*Y449187D01*
X397022Y450787D02*X400222D01*
X395669Y447466D02*Y444266D01*
X394069Y445866D02*X397269D01*
X389764Y447466D02*Y444266D01*
X388164Y445866D02*X391364D01*
X383858Y447466D02*Y444266D01*
X382258Y445866D02*X385458D01*
X380906Y487820D02*Y484620D01*
X379306Y486220D02*X382506D01*
X386811Y487820D02*Y484620D01*
X385211Y486220D02*X388411D01*
X392717Y487820D02*Y484620D01*
X391117Y486220D02*X394317D01*
X398622Y487820D02*Y484620D01*
X397022Y486220D02*X400222D01*
X395669Y482899D02*Y479699D01*
X394069Y481299D02*X397269D01*
X389764Y482899D02*Y479699D01*
X388164Y481299D02*X391364D01*
X383858Y482899D02*Y479699D01*
X382258Y481299D02*X385458D01*
X382874Y476009D02*Y472809D01*
X381274Y474409D02*X384474D01*
X389764Y476009D02*Y472809D01*
X388164Y474409D02*X391364D01*
X396654Y476009D02*Y472809D01*
X395054Y474409D02*X398254D01*
X393701Y470104D02*Y466904D01*
X392101Y468504D02*X395301D01*
X386811Y470104D02*Y466904D01*
X385211Y468504D02*X388411D01*
X382874Y464198D02*Y460998D01*
X381274Y462598D02*X384474D01*
X389764Y464198D02*Y460998D01*
X388164Y462598D02*X391364D01*
X396654Y464198D02*Y460998D01*
X395054Y462598D02*X398254D01*
X393701Y459277D02*Y456077D01*
X392101Y457677D02*X395301D01*
X386811Y459277D02*Y456077D01*
X385211Y457677D02*X388411D01*
X337598Y512427D02*Y509227D01*
X335998Y510827D02*X339198D01*
X345472Y512427D02*Y509227D01*
X343872Y510827D02*X347072D01*
X345472Y507506D02*Y504306D01*
X343872Y505906D02*X347072D01*
X337598Y507506D02*Y504306D01*
X335998Y505906D02*X339198D01*
X337598Y463214D02*Y460014D01*
X335998Y461614D02*X339198D01*
X345472Y463214D02*Y460014D01*
X343872Y461614D02*X347072D01*
X345472Y458293D02*Y455093D01*
X343872Y456693D02*X347072D01*
X337598Y458293D02*Y455093D01*
X335998Y456693D02*X339198D01*
X345472Y431718D02*Y428518D01*
X343872Y430118D02*X347072D01*
X345472Y426797D02*Y423597D01*
X343872Y425197D02*X347072D01*
X337598Y426797D02*Y423597D01*
X335998Y425197D02*X339198D01*
X338583Y479946D02*Y476746D01*
X336983Y478346D02*X340183D01*
X346457Y479946D02*Y476746D01*
X344857Y478346D02*X348057D01*
X346457Y473057D02*Y469857D01*
X344857Y471457D02*X348057D01*
X380906Y500616D02*Y497416D01*
X379306Y499016D02*X382506D01*
X386811Y500616D02*Y497416D01*
X385211Y499016D02*X388411D01*
X392717Y500616D02*Y497416D01*
X391117Y499016D02*X394317D01*
X398622Y500616D02*Y497416D01*
X397022Y499016D02*X400222D01*
X395669Y495694D02*Y492494D01*
X394069Y494094D02*X397269D01*
X389764Y495694D02*Y492494D01*
X388164Y494094D02*X391364D01*
X383858Y495694D02*Y492494D01*
X382258Y494094D02*X385458D01*
X380906Y512427D02*Y509227D01*
X379306Y510827D02*X382506D01*
X392717Y511443D02*Y508243D01*
X391117Y509843D02*X394317D01*
X398622Y511443D02*Y508243D01*
X397022Y509843D02*X400222D01*
X398622Y506521D02*Y503321D01*
X397022Y504921D02*X400222D01*
X392717Y506521D02*Y503321D01*
X391117Y504921D02*X394317D01*
X381890Y507506D02*Y504306D01*
X380290Y505906D02*X383490D01*
X337598Y431718D02*Y428518D01*
X335998Y430118D02*X339198D01*
X317913Y431718D02*Y428518D01*
X316313Y430118D02*X319513D01*
X329724Y455340D02*Y452140D01*
X328124Y453740D02*X331324D01*
X354331Y443529D02*Y440329D01*
X352731Y441929D02*X355931D01*
X338583Y473057D02*Y469857D01*
X336983Y471457D02*X340183D01*
X326772Y472072D02*Y468872D01*
X325172Y470472D02*X328372D01*
X354331Y491757D02*Y488557D01*
X352731Y490157D02*X355931D01*
X329724Y490773D02*Y487573D01*
X328124Y489173D02*X331324D01*
X494094Y431718D02*Y428518D01*
X492494Y430118D02*X495694D01*
X494094Y427781D02*Y424581D01*
X492494Y426181D02*X495694D01*
X337598Y304750D02*Y301550D01*
X335998Y303150D02*X339198D01*
X155512Y30143D02*Y26943D01*
X153912Y28543D02*X157112D01*
X88583Y154159D02*Y150959D01*
X86983Y152559D02*X90183D01*
X88583Y197466D02*Y194266D01*
X86983Y195866D02*X90183D01*
X250000Y107899D02*Y104699D01*
X248400Y106299D02*X251600D01*
X245079Y351009D02*Y347809D01*
X243479Y349409D02*X246679D01*
X155512Y57702D02*Y54502D01*
X153912Y56102D02*X157112D01*
X69882Y224041D02*Y220841D01*
X68282Y222441D02*X71482D01*
X146654Y183687D02*Y180487D01*
X145054Y182087D02*X148254D01*
X155512Y19317D02*Y16117D01*
X153912Y17717D02*X157112D01*
X44291Y184671D02*Y181471D01*
X42691Y183071D02*X45891D01*
X440945Y109868D02*Y106668D01*
X439345Y108268D02*X442545D01*
X144685Y121679D02*Y118479D01*
X143085Y120079D02*X146285D01*
X91535Y249631D02*Y246431D01*
X89935Y248031D02*X93135D01*
X416339Y582309D02*Y579109D01*
X414739Y580709D02*X417939D01*
X220472Y386443D02*Y383243D01*
X218872Y384843D02*X222072D01*
X172244Y312624D02*Y309424D01*
X170644Y311024D02*X173844D01*
X171260Y445498D02*Y442298D01*
X169660Y443898D02*X172860D01*
X74803Y353962D02*Y350762D01*
X73203Y352362D02*X76403D01*
X66929Y340183D02*Y336983D01*
X65329Y338583D02*X68529D01*
X40354Y431718D02*Y428518D01*
X38754Y430118D02*X41954D01*
X69882Y431718D02*Y428518D01*
X68282Y430118D02*X71482D01*
X79724Y431718D02*Y428518D01*
X78124Y430118D02*X81324D01*
X89567Y431718D02*Y428518D01*
X87967Y430118D02*X91167D01*
X100394Y431718D02*Y428518D01*
X98794Y430118D02*X101994D01*
X110236Y431718D02*Y428518D01*
X108636Y430118D02*X111836D01*
X120079Y431718D02*Y428518D01*
X118479Y430118D02*X121679D01*
X129921Y431718D02*Y428518D01*
X128321Y430118D02*X131521D01*
X139764Y431718D02*Y428518D01*
X138164Y430118D02*X141364D01*
X160433Y431718D02*Y428518D01*
X158833Y430118D02*X162033D01*
X160433Y421876D02*Y418676D01*
X158833Y420276D02*X162033D01*
X139764Y421876D02*Y418676D01*
X138164Y420276D02*X141364D01*
X129921Y421876D02*Y418676D01*
X128321Y420276D02*X131521D01*
X120079Y421876D02*Y418676D01*
X118479Y420276D02*X121679D01*
X120079Y412033D02*Y408833D01*
X118479Y410433D02*X121679D01*
X129921Y412033D02*Y408833D01*
X128321Y410433D02*X131521D01*
X139764Y412033D02*Y408833D01*
X138164Y410433D02*X141364D01*
X160433Y412033D02*Y408833D01*
X158833Y410433D02*X162033D01*
X160433Y402191D02*Y398991D01*
X158833Y400591D02*X162033D01*
X139764Y402191D02*Y398991D01*
X138164Y400591D02*X141364D01*
X129921Y402191D02*Y398991D01*
X128321Y400591D02*X131521D01*
X129921Y391364D02*Y388164D01*
X128321Y389764D02*X131521D01*
X160433Y391364D02*Y388164D01*
X158833Y389764D02*X162033D01*
X160433Y381521D02*Y378321D01*
X158833Y379921D02*X162033D01*
X160433Y371679D02*Y368479D01*
X158833Y370079D02*X162033D01*
X160433Y361836D02*Y358636D01*
X158833Y360236D02*X162033D01*
X160433Y351994D02*Y348794D01*
X158833Y350394D02*X162033D01*
X160433Y342151D02*Y338951D01*
X158833Y340551D02*X162033D01*
X149606Y342151D02*Y338951D01*
X148006Y340551D02*X151206D01*
X149606Y351994D02*Y348794D01*
X148006Y350394D02*X151206D01*
X149606Y332309D02*Y329109D01*
X148006Y330709D02*X151206D01*
X139764Y332309D02*Y329109D01*
X138164Y330709D02*X141364D01*
X129921Y332309D02*Y329109D01*
X128321Y330709D02*X131521D01*
X120079Y332309D02*Y329109D01*
X118479Y330709D02*X121679D01*
X60039Y332309D02*Y329109D01*
X58439Y330709D02*X61639D01*
X50197Y332309D02*Y329109D01*
X48597Y330709D02*X51797D01*
X40354Y332309D02*Y329109D01*
X38754Y330709D02*X41954D01*
X40354Y351994D02*Y348794D01*
X38754Y350394D02*X41954D01*
X50197Y351994D02*Y348794D01*
X48597Y350394D02*X51797D01*
X60039Y351994D02*Y348794D01*
X58439Y350394D02*X61639D01*
X60039Y361836D02*Y358636D01*
X58439Y360236D02*X61639D01*
X50197Y361836D02*Y358636D01*
X48597Y360236D02*X51797D01*
X40354Y361836D02*Y358636D01*
X38754Y360236D02*X41954D01*
X120079Y381521D02*Y378321D01*
X118479Y379921D02*X121679D01*
X276575Y570498D02*Y567298D01*
X274975Y568898D02*X278175D01*
X249016Y570498D02*Y567298D01*
X247416Y568898D02*X250616D01*
X454724Y451403D02*Y448203D01*
X453124Y449803D02*X456324D01*
X454724Y523254D02*Y520054D01*
X453124Y521654D02*X456324D01*
X269685Y570498D02*Y567298D01*
X268085Y568898D02*X271285D01*
X448819Y523254D02*Y520054D01*
X447219Y521654D02*X450419D01*
X262795Y570498D02*Y567298D01*
X261195Y568898D02*X264395D01*
X218504Y413017D02*Y409817D01*
X216904Y411417D02*X220104D01*
X227362Y570498D02*Y567298D01*
X225762Y568898D02*X228962D01*
X210630Y571482D02*Y568282D01*
X209030Y569882D02*X212230D01*
X185039Y570498D02*Y567298D01*
X183439Y568898D02*X186639D01*
X169291Y570498D02*Y567298D01*
X167691Y568898D02*X170891D01*
X134843Y570498D02*Y567298D01*
X133243Y568898D02*X136443D01*
X234252Y566561D02*Y563361D01*
X232652Y564961D02*X235852D01*
X440945Y526206D02*Y523006D01*
X439345Y524606D02*X442545D01*
X437008Y520301D02*Y517101D01*
X435408Y518701D02*X438608D01*
X198819Y557702D02*Y554502D01*
X197219Y556102D02*X200419D01*
X431102Y525222D02*Y522022D01*
X429502Y523622D02*X432702D01*
X191929Y553765D02*Y550565D01*
X190329Y552165D02*X193529D01*
X430118Y514395D02*Y511195D01*
X428518Y512795D02*X431718D01*
X159449Y570498D02*Y567298D01*
X157849Y568898D02*X161049D01*
X427165Y507506D02*Y504306D01*
X425565Y505906D02*X428765D01*
X155512Y564592D02*Y561392D01*
X153912Y562992D02*X157112D01*
X165354Y315576D02*Y312376D01*
X163754Y313976D02*X166954D01*
X115157Y314592D02*Y311392D01*
X113557Y312992D02*X116757D01*
X181102Y474041D02*Y470841D01*
X179502Y472441D02*X182702D01*
X22638Y581324D02*Y578124D01*
X21038Y579724D02*X24238D01*
X81693Y593135D02*Y589935D01*
X80093Y591535D02*X83293D01*
X106299Y592151D02*Y588951D01*
X104699Y590551D02*X107899D01*
X114173Y593135D02*Y589935D01*
X112573Y591535D02*X115773D01*
X121063Y586246D02*Y583046D01*
X119463Y584646D02*X122663D01*
X83661Y575419D02*Y572219D01*
X82061Y573819D02*X85261D01*
X156496Y592151D02*Y588951D01*
X154896Y590551D02*X158096D01*
X83661Y570498D02*Y567298D01*
X82061Y568898D02*X85261D01*
X203740Y592151D02*Y588951D01*
X202140Y590551D02*X205340D01*
X178150Y570498D02*Y567298D01*
X176550Y568898D02*X179750D01*
X83661Y564592D02*Y561392D01*
X82061Y562992D02*X85261D01*
X134843Y592151D02*Y588951D01*
X133243Y590551D02*X136443D01*
X125984Y591167D02*Y587967D01*
X124384Y589567D02*X127584D01*
X92520Y560655D02*Y557455D01*
X90920Y559055D02*X94120D01*
X126969Y567545D02*Y564345D01*
X125369Y565945D02*X128569D01*
X121063Y567545D02*Y564345D01*
X119463Y565945D02*X122663D01*
X141732Y560655D02*Y557455D01*
X140132Y559055D02*X143332D01*
X95472Y548844D02*Y545644D01*
X93872Y547244D02*X97072D01*
X110236Y577387D02*Y574187D01*
X108636Y575787D02*X111836D01*
X68898Y528175D02*Y524975D01*
X67298Y526575D02*X70498D01*
X79724Y546876D02*Y543676D01*
X78124Y545276D02*X81324D01*
X93504Y539002D02*Y535802D01*
X91904Y537402D02*X95104D01*
X128937Y480931D02*Y477731D01*
X127337Y479331D02*X130537D01*
X121063Y480931D02*Y477731D01*
X119463Y479331D02*X122663D01*
X88583Y174828D02*Y171628D01*
X86983Y173228D02*X90183D01*
X124016Y225025D02*Y221825D01*
X122416Y223425D02*X125616D01*
X115157Y258490D02*Y255290D01*
X113557Y256890D02*X116757D01*
X76772Y256521D02*Y253321D01*
X75172Y254921D02*X78372D01*
X70866Y229946D02*Y226746D01*
X69266Y228346D02*X72466D01*
X125984Y193529D02*Y190329D01*
X124384Y191929D02*X127584D01*
X151575Y186639D02*Y183439D01*
X149975Y185039D02*X153175D01*
X50197Y311639D02*Y308439D01*
X48597Y310039D02*X51797D01*
X77756Y234868D02*Y231668D01*
X76156Y233268D02*X79356D01*
X145669Y257506D02*Y254306D01*
X144069Y255906D02*X147269D01*
X112205Y505537D02*Y502337D01*
X110605Y503937D02*X113805D01*
X136811Y462230D02*Y459030D01*
X135211Y460630D02*X138411D01*
X165354Y556718D02*Y553518D01*
X163754Y555118D02*X166954D01*
X145669Y551797D02*Y548597D01*
X144069Y550197D02*X147269D01*
X131890Y550813D02*Y547613D01*
X130290Y549213D02*X133490D01*
X184055Y553765D02*Y550565D01*
X182455Y552165D02*X185655D01*
X172244Y558687D02*Y555487D01*
X170644Y557087D02*X173844D01*
X187008Y565576D02*Y562376D01*
X185408Y563976D02*X188608D01*
X169291Y480931D02*Y477731D01*
X167691Y479331D02*X170891D01*
X135827Y474041D02*Y470841D01*
X134227Y472441D02*X137427D01*
X228346Y554750D02*Y551550D01*
X226746Y553150D02*X229946D01*
X194882Y526206D02*Y523006D01*
X193282Y524606D02*X196482D01*
X154528Y485852D02*Y482652D01*
X152928Y484252D02*X156128D01*
X157480Y298844D02*Y295644D01*
X155880Y297244D02*X159080D01*
X127953Y293923D02*Y290723D01*
X126353Y292323D02*X129553D01*
X114173Y298844D02*Y295644D01*
X112573Y297244D02*X115773D01*
X61024Y295891D02*Y292691D01*
X59424Y294291D02*X62624D01*
X66929Y252584D02*Y249384D01*
X65329Y250984D02*X68529D01*
X93504Y213214D02*Y210014D01*
X91904Y211614D02*X95104D01*
X85630Y315576D02*Y312376D01*
X84030Y313976D02*X87230D01*
X40354Y477978D02*Y474778D01*
X38754Y476378D02*X41954D01*
X114173Y452387D02*Y449187D01*
X112573Y450787D02*X115773D01*
X101378Y217151D02*Y213951D01*
X99778Y215551D02*X102978D01*
X86614Y327387D02*Y324187D01*
X85014Y325787D02*X88214D01*
X129921Y556718D02*Y553518D01*
X128321Y555118D02*X131521D01*
X158465Y452387D02*Y449187D01*
X156865Y450787D02*X160065D01*
X175197Y367742D02*Y364542D01*
X173597Y366142D02*X176797D01*
X176181Y297860D02*Y294660D01*
X174581Y296260D02*X177781D01*
X187992Y140380D02*Y137180D01*
X186392Y138780D02*X189592D01*
X191929Y186639D02*Y183439D01*
X190329Y185039D02*X193529D01*
X170276Y199435D02*Y196235D01*
X168676Y197835D02*X171876D01*
X170276Y136443D02*Y133243D01*
X168676Y134843D02*X171876D01*
X143701Y115773D02*Y112573D01*
X142101Y114173D02*X145301D01*
X203740Y366757D02*Y363557D01*
X202140Y365157D02*X205340D01*
X200787Y236836D02*Y233636D01*
X199187Y235236D02*X202387D01*
X185039Y107899D02*Y104699D01*
X183439Y106299D02*X186639D01*
X190945Y107899D02*Y104699D01*
X189345Y106299D02*X192545D01*
X241142Y119710D02*Y116510D01*
X239542Y118110D02*X242742D01*
X4921Y126600D02*Y123400D01*
X3321Y125000D02*X6521D01*
X4921Y116757D02*Y113557D01*
X3321Y115157D02*X6521D01*
X4921Y106915D02*Y103715D01*
X3321Y105315D02*X6521D01*
X4921Y97072D02*Y93872D01*
X3321Y95472D02*X6521D01*
X4921Y87230D02*Y84030D01*
X3321Y85630D02*X6521D01*
X4921Y76403D02*Y73203D01*
X3321Y74803D02*X6521D01*
X4921Y66561D02*Y63361D01*
X3321Y64961D02*X6521D01*
X14764Y66561D02*Y63361D01*
X13164Y64961D02*X16364D01*
X24606Y66561D02*Y63361D01*
X23006Y64961D02*X26206D01*
X35433Y66561D02*Y63361D01*
X33833Y64961D02*X37033D01*
X45276Y66561D02*Y63361D01*
X43676Y64961D02*X46876D01*
X55118Y66561D02*Y63361D01*
X53518Y64961D02*X56718D01*
X55118Y76403D02*Y73203D01*
X53518Y74803D02*X56718D01*
X55118Y87230D02*Y84030D01*
X53518Y85630D02*X56718D01*
X64961Y87230D02*Y84030D01*
X63361Y85630D02*X66561D01*
X64961Y97072D02*Y93872D01*
X63361Y95472D02*X66561D01*
X64961Y106915D02*Y103715D01*
X63361Y105315D02*X66561D01*
X64961Y116757D02*Y113557D01*
X63361Y115157D02*X66561D01*
X55118Y116757D02*Y113557D01*
X53518Y115157D02*X56718D01*
X55118Y106915D02*Y103715D01*
X53518Y105315D02*X56718D01*
X55118Y97072D02*Y93872D01*
X53518Y95472D02*X56718D01*
X45276Y87230D02*Y84030D01*
X43676Y85630D02*X46876D01*
X45276Y76403D02*Y73203D01*
X43676Y74803D02*X46876D01*
X35433Y76403D02*Y73203D01*
X33833Y74803D02*X37033D01*
X24606Y76403D02*Y73203D01*
X23006Y74803D02*X26206D01*
X14764Y76403D02*Y73203D01*
X13164Y74803D02*X16364D01*
X14764Y87230D02*Y84030D01*
X13164Y85630D02*X16364D01*
X24606Y87230D02*Y84030D01*
X23006Y85630D02*X26206D01*
X35433Y87230D02*Y84030D01*
X33833Y85630D02*X37033D01*
X13780Y157112D02*Y153912D01*
X12180Y155512D02*X15380D01*
X24606Y157112D02*Y153912D01*
X23006Y155512D02*X26206D01*
X60039Y157112D02*Y153912D01*
X58439Y155512D02*X61639D01*
X192913Y171876D02*Y168676D01*
X191313Y170276D02*X194513D01*
X236220Y514395D02*Y511195D01*
X234620Y512795D02*X237820D01*
X18701Y496679D02*Y493479D01*
X17101Y495079D02*X20301D01*
X187008Y496679D02*Y493479D01*
X185408Y495079D02*X188608D01*
X187008Y503569D02*Y500369D01*
X185408Y501969D02*X188608D01*
X187008Y510458D02*Y507258D01*
X185408Y508858D02*X188608D01*
X187008Y517348D02*Y514148D01*
X185408Y515748D02*X188608D01*
X180118Y496679D02*Y493479D01*
X178518Y495079D02*X181718D01*
X180118Y503569D02*Y500369D01*
X178518Y501969D02*X181718D01*
X211614Y592151D02*Y588951D01*
X210014Y590551D02*X213214D01*
X187008Y478962D02*Y475762D01*
X185408Y477362D02*X188608D01*
X278543Y81324D02*Y78124D01*
X276943Y79724D02*X280143D01*
X278543Y202387D02*Y199187D01*
X276943Y200787D02*X280143D01*
X278543Y445498D02*Y442298D01*
X276943Y443898D02*X280143D01*
X278543Y323450D02*Y320250D01*
X276943Y321850D02*X280143D01*
X239173Y99041D02*Y95841D01*
X237573Y97441D02*X240773D01*
X226378Y107899D02*Y104699D01*
X224778Y106299D02*X227978D01*
X257874Y470104D02*Y466904D01*
X256274Y468504D02*X259474D01*
X262795Y466167D02*Y462967D01*
X261195Y464567D02*X264395D01*
X203740Y343135D02*Y339935D01*
X202140Y341535D02*X205340D01*
X213583Y349041D02*Y345841D01*
X211983Y347441D02*X215183D01*
X203740Y279159D02*Y275959D01*
X202140Y277559D02*X205340D01*
X213583Y285065D02*Y281865D01*
X211983Y283465D02*X215183D01*
X298228Y285065D02*Y281865D01*
X296628Y283465D02*X299828D01*
X270669Y190576D02*Y187376D01*
X269069Y188976D02*X272269D01*
X270669Y196482D02*Y193282D01*
X269069Y194882D02*X272269D01*
X233268Y226009D02*Y222809D01*
X231668Y224409D02*X234868D01*
X226378Y212230D02*Y209030D01*
X224778Y210630D02*X227978D01*
X226378Y190576D02*Y187376D01*
X224778Y188976D02*X227978D01*
X237205Y196482D02*Y193282D01*
X235605Y194882D02*X238805D01*
X353346Y201403D02*Y198203D01*
X351746Y199803D02*X354946D01*
X330709Y206324D02*Y203124D01*
X329109Y204724D02*X332309D01*
X325787Y245694D02*Y242494D01*
X324187Y244094D02*X327387D01*
X353346Y248647D02*Y245447D01*
X351746Y247047D02*X354946D01*
X294291Y279159D02*Y275959D01*
X292691Y277559D02*X295891D01*
X170276Y65576D02*Y62376D01*
X168676Y63976D02*X171876D01*
X62992Y13411D02*Y10211D01*
X61392Y11811D02*X64592D01*
X80709Y20301D02*Y17101D01*
X79109Y18701D02*X82309D01*
X62992Y41954D02*Y38754D01*
X61392Y40354D02*X64592D01*
X118110Y31128D02*Y27928D01*
X116510Y29528D02*X119710D01*
X102362Y39986D02*Y36786D01*
X100762Y38386D02*X103962D01*
X469488Y50813D02*Y47613D01*
X467888Y49213D02*X471088D01*
X455709Y25222D02*Y22022D01*
X454109Y23622D02*X457309D01*
X508858Y63608D02*Y60408D01*
X507258Y62008D02*X510458D01*
X432087Y21285D02*Y18085D01*
X430487Y19685D02*X433687D01*
X469488Y56718D02*Y53518D01*
X467888Y55118D02*X471088D01*
X454724Y46876D02*Y43676D01*
X453124Y45276D02*X456324D01*
X483268Y42939D02*Y39739D01*
X481668Y41339D02*X484868D01*
X483268Y200419D02*Y197219D01*
X481668Y198819D02*X484868D01*
X483268Y125616D02*Y122416D01*
X481668Y124016D02*X484868D01*
X483268Y172860D02*Y169660D01*
X481668Y171260D02*X484868D01*
X483268Y227978D02*Y224778D01*
X481668Y226378D02*X484868D01*
X483268Y147269D02*Y144069D01*
X481668Y145669D02*X484868D01*
X484252Y67545D02*Y64345D01*
X482652Y65945D02*X485852D01*
X484252Y90183D02*Y86983D01*
X482652Y88583D02*X485852D01*
X257874Y160065D02*Y156865D01*
X256274Y158465D02*X259474D01*
X216535Y180734D02*Y177534D01*
X214935Y179134D02*X218135D01*
X196850Y137427D02*Y134227D01*
X195250Y135827D02*X198450D01*
X125000Y59671D02*Y56471D01*
X123400Y58071D02*X126600D01*
X125000Y25222D02*Y22022D01*
X123400Y23622D02*X126600D01*
X15000Y803086D02*Y799886D01*
X13400Y801486D02*X16600D01*
X135000Y803736D02*X136500Y800736D01*
X138000Y803736D01*
X136500Y800736D02*Y797736D01*
X139800Y801036D02*X142050D01*
X139800Y797736D02*X142800D01*
X139800Y803736D02*Y797736D01*
Y803736D02*X142800D01*
X147600D02*X148350Y802986D01*
X145350Y803736D02*X147600D01*
X144600Y802986D02*X145350Y803736D01*
X144600Y802986D02*Y801486D01*
X145350Y800736D01*
X147600D01*
X148350Y799986D01*
Y798486D01*
X147600Y797736D02*X148350Y798486D01*
X145350Y797736D02*X147600D01*
X144600Y798486D02*X145350Y797736D01*
X98750D02*X101750Y803736D01*
X98000D02*X101750D01*
X103550Y798486D02*X104300Y797736D01*
X103550Y799686D02*Y798486D01*
Y799686D02*X104600Y800736D01*
X105500D01*
X106550Y799686D01*
Y798486D01*
X105800Y797736D02*X106550Y798486D01*
X104300Y797736D02*X105800D01*
X103550Y801786D02*X104600Y800736D01*
X103550Y802986D02*Y801786D01*
Y802986D02*X104300Y803736D01*
X105800D01*
X106550Y802986D01*
Y801786D01*
X105500Y800736D02*X106550Y801786D01*
X108350Y799986D02*X111350Y803736D01*
X108350Y799986D02*X112100D01*
X111350Y803736D02*Y797736D01*
X45000Y798486D02*X45750Y797736D01*
X45000Y802986D02*Y798486D01*
Y802986D02*X45750Y803736D01*
X47250D01*
X48000Y802986D01*
Y798486D01*
X47250Y797736D02*X48000Y798486D01*
X45750Y797736D02*X47250D01*
X45000Y799236D02*X48000Y802236D01*
X49800Y797736D02*X50550D01*
X52350Y798486D02*X53100Y797736D01*
X52350Y802986D02*Y798486D01*
Y802986D02*X53100Y803736D01*
X54600D01*
X55350Y802986D01*
Y798486D01*
X54600Y797736D02*X55350Y798486D01*
X53100Y797736D02*X54600D01*
X52350Y799236D02*X55350Y802236D01*
X57150Y802986D02*X57900Y803736D01*
X60150D01*
X60900Y802986D01*
Y801486D01*
X57150Y797736D02*X60900Y801486D01*
X57150Y797736D02*X60900D01*
X62700Y798486D02*X63450Y797736D01*
X62700Y802986D02*Y798486D01*
Y802986D02*X63450Y803736D01*
X64950D01*
X65700Y802986D01*
Y798486D01*
X64950Y797736D02*X65700Y798486D01*
X63450Y797736D02*X64950D01*
X62700Y799236D02*X65700Y802236D01*
X267717Y55118D02*Y53518D01*
Y55118D02*X269103Y55918D01*
X267717Y55118D02*X266330Y55918D01*
X275591Y55118D02*Y53518D01*
Y55118D02*X276977Y55918D01*
X275591Y55118D02*X274204Y55918D01*
X280512Y55118D02*Y53518D01*
Y55118D02*X281898Y55918D01*
X280512Y55118D02*X279125Y55918D01*
X289370Y55118D02*Y53518D01*
Y55118D02*X290757Y55918D01*
X289370Y55118D02*X287983Y55918D01*
X264764Y67913D02*Y66313D01*
Y67913D02*X266150Y68713D01*
X264764Y67913D02*X263377Y68713D01*
X257874Y67913D02*Y66313D01*
Y67913D02*X259261Y68713D01*
X257874Y67913D02*X256487Y68713D01*
X257874Y55118D02*Y53518D01*
Y55118D02*X259261Y55918D01*
X257874Y55118D02*X256487Y55918D01*
X237205Y67913D02*Y66313D01*
Y67913D02*X238591Y68713D01*
X237205Y67913D02*X235818Y68713D01*
X245079Y67913D02*Y66313D01*
Y67913D02*X246465Y68713D01*
X245079Y67913D02*X243692Y68713D01*
X245079Y62992D02*Y61392D01*
Y62992D02*X246465Y63792D01*
X245079Y62992D02*X243692Y63792D01*
X237205Y62992D02*Y61392D01*
Y62992D02*X238591Y63792D01*
X237205Y62992D02*X235818Y63792D01*
X237205Y58071D02*Y56471D01*
Y58071D02*X238591Y58871D01*
X237205Y58071D02*X235818Y58871D01*
X245079Y58071D02*Y56471D01*
Y58071D02*X246465Y58871D01*
X245079Y58071D02*X243692Y58871D01*
X252953Y67913D02*Y66313D01*
Y67913D02*X254339Y68713D01*
X252953Y67913D02*X251566Y68713D01*
X252953Y55118D02*Y53518D01*
Y55118D02*X254339Y55918D01*
X252953Y55118D02*X251566Y55918D01*
X239173Y148622D02*Y147022D01*
Y148622D02*X240560Y149422D01*
X239173Y148622D02*X237787Y149422D01*
X245079Y148622D02*Y147022D01*
Y148622D02*X246465Y149422D01*
X245079Y148622D02*X243692Y149422D01*
X245079Y142717D02*Y141117D01*
Y142717D02*X246465Y143517D01*
X245079Y142717D02*X243692Y143517D01*
X239173Y142717D02*Y141117D01*
Y142717D02*X240560Y143517D01*
X239173Y142717D02*X237787Y143517D01*
X239173Y137795D02*Y136195D01*
Y137795D02*X240560Y138595D01*
X239173Y137795D02*X237787Y138595D01*
X245079Y137795D02*Y136195D01*
Y137795D02*X246465Y138595D01*
X245079Y137795D02*X243692Y138595D01*
X245079Y132874D02*Y131274D01*
Y132874D02*X246465Y133674D01*
X245079Y132874D02*X243692Y133674D01*
X239173Y132874D02*Y131274D01*
Y132874D02*X240560Y133674D01*
X239173Y132874D02*X237787Y133674D01*
X259843Y147638D02*Y146038D01*
Y147638D02*X261229Y148438D01*
X259843Y147638D02*X258456Y148438D01*
X267717Y147638D02*Y146038D01*
Y147638D02*X269103Y148438D01*
X267717Y147638D02*X266330Y148438D01*
X281496Y147638D02*Y146038D01*
Y147638D02*X282883Y148438D01*
X281496Y147638D02*X280109Y148438D01*
X287402Y147638D02*Y146038D01*
Y147638D02*X288788Y148438D01*
X287402Y147638D02*X286015Y148438D01*
X287402Y140748D02*Y139148D01*
Y140748D02*X288788Y141548D01*
X287402Y140748D02*X286015Y141548D01*
X281496Y140748D02*Y139148D01*
Y140748D02*X282883Y141548D01*
X281496Y140748D02*X280109Y141548D01*
X267717Y140748D02*Y139148D01*
Y140748D02*X269103Y141548D01*
X267717Y140748D02*X266330Y141548D01*
X281496Y134843D02*Y133243D01*
Y134843D02*X282883Y135643D01*
X281496Y134843D02*X280109Y135643D01*
X259843Y133858D02*Y132258D01*
Y133858D02*X261229Y134658D01*
X259843Y133858D02*X258456Y134658D01*
X287402Y134843D02*Y133243D01*
Y134843D02*X288788Y135643D01*
X287402Y134843D02*X286015Y135643D01*
X407480Y105315D02*Y103715D01*
Y105315D02*X408867Y106115D01*
X407480Y105315D02*X406094Y106115D01*
X412402Y105315D02*Y103715D01*
Y105315D02*X413788Y106115D01*
X412402Y105315D02*X411015Y106115D01*
X427165Y113189D02*Y111589D01*
Y113189D02*X428552Y113989D01*
X427165Y113189D02*X425779Y113989D01*
X434055Y113189D02*Y111589D01*
Y113189D02*X435442Y113989D01*
X434055Y113189D02*X432668Y113989D01*
X427165Y105315D02*Y103715D01*
Y105315D02*X428552Y106115D01*
X427165Y105315D02*X425779Y106115D01*
X434055Y104331D02*Y102731D01*
Y104331D02*X435442Y105131D01*
X434055Y104331D02*X432668Y105131D01*
X434055Y97441D02*Y95841D01*
Y97441D02*X435442Y98241D01*
X434055Y97441D02*X432668Y98241D01*
X427165Y96457D02*Y94857D01*
Y96457D02*X428552Y97257D01*
X427165Y96457D02*X425779Y97257D01*
X428150Y90551D02*Y88951D01*
Y90551D02*X429536Y91351D01*
X428150Y90551D02*X426763Y91351D01*
X434055Y90551D02*Y88951D01*
Y90551D02*X435442Y91351D01*
X434055Y90551D02*X432668Y91351D01*
X423228Y101378D02*Y99778D01*
Y101378D02*X424615Y102178D01*
X423228Y101378D02*X421842Y102178D01*
X260827Y266732D02*Y265132D01*
Y266732D02*X262213Y267532D01*
X260827Y266732D02*X259440Y267532D01*
X267717Y268701D02*Y267101D01*
Y268701D02*X269103Y269501D01*
X267717Y268701D02*X266330Y269501D01*
X276575Y268701D02*Y267101D01*
Y268701D02*X277961Y269501D01*
X276575Y268701D02*X275188Y269501D01*
X286417Y268701D02*Y267101D01*
Y268701D02*X287804Y269501D01*
X286417Y268701D02*X285031Y269501D01*
X286417Y261811D02*Y260211D01*
Y261811D02*X287804Y262611D01*
X286417Y261811D02*X285031Y262611D01*
X276575Y261811D02*Y260211D01*
Y261811D02*X277961Y262611D01*
X276575Y261811D02*X275188Y262611D01*
X267717Y261811D02*Y260211D01*
Y261811D02*X269103Y262611D01*
X267717Y261811D02*X266330Y262611D01*
X281496Y258858D02*Y257258D01*
Y258858D02*X282883Y259658D01*
X281496Y258858D02*X280109Y259658D01*
X276575Y253937D02*Y252337D01*
Y253937D02*X277961Y254737D01*
X276575Y253937D02*X275188Y254737D01*
X286417Y253937D02*Y252337D01*
Y253937D02*X287804Y254737D01*
X286417Y253937D02*X285031Y254737D01*
X406496Y226378D02*Y224778D01*
Y226378D02*X407883Y227178D01*
X406496Y226378D02*X405109Y227178D01*
X411417Y226378D02*Y224778D01*
Y226378D02*X412804Y227178D01*
X411417Y226378D02*X410031Y227178D01*
X427165Y234252D02*Y232652D01*
Y234252D02*X428552Y235052D01*
X427165Y234252D02*X425779Y235052D01*
X434055Y234252D02*Y232652D01*
Y234252D02*X435442Y235052D01*
X434055Y234252D02*X432668Y235052D01*
X427165Y226378D02*Y224778D01*
Y226378D02*X428552Y227178D01*
X427165Y226378D02*X425779Y227178D01*
X434055Y225394D02*Y223794D01*
Y225394D02*X435442Y226194D01*
X434055Y225394D02*X432668Y226194D01*
X434055Y218504D02*Y216904D01*
Y218504D02*X435442Y219304D01*
X434055Y218504D02*X432668Y219304D01*
X427165Y217520D02*Y215920D01*
Y217520D02*X428552Y218320D01*
X427165Y217520D02*X425779Y218320D01*
X427165Y211614D02*Y210014D01*
Y211614D02*X428552Y212414D01*
X427165Y211614D02*X425779Y212414D01*
X434055Y211614D02*Y210014D01*
Y211614D02*X435442Y212414D01*
X434055Y211614D02*X432668Y212414D01*
X422244Y222441D02*Y220841D01*
Y222441D02*X423631Y223241D01*
X422244Y222441D02*X420857Y223241D01*
X237205Y253937D02*Y252337D01*
Y253937D02*X238591Y254737D01*
X237205Y253937D02*X235818Y254737D01*
X244094Y253937D02*Y252337D01*
Y253937D02*X245481Y254737D01*
X244094Y253937D02*X242708Y254737D01*
X244094Y258858D02*Y257258D01*
Y258858D02*X245481Y259658D01*
X244094Y258858D02*X242708Y259658D01*
X237205Y258858D02*Y257258D01*
Y258858D02*X238591Y259658D01*
X237205Y258858D02*X235818Y259658D01*
X237205Y263780D02*Y262180D01*
Y263780D02*X238591Y264580D01*
X237205Y263780D02*X235818Y264580D01*
X244094Y263780D02*Y262180D01*
Y263780D02*X245481Y264580D01*
X244094Y263780D02*X242708Y264580D01*
X244094Y268701D02*Y267101D01*
Y268701D02*X245481Y269501D01*
X244094Y268701D02*X242708Y269501D01*
X237205Y268701D02*Y267101D01*
Y268701D02*X238591Y269501D01*
X237205Y268701D02*X235818Y269501D01*
X267717Y168307D02*Y166707D01*
Y168307D02*X269103Y169107D01*
X267717Y168307D02*X266330Y169107D01*
X275591Y168307D02*Y166707D01*
Y168307D02*X276977Y169107D01*
X275591Y168307D02*X274204Y169107D01*
X281496Y168307D02*Y166707D01*
Y168307D02*X282883Y169107D01*
X281496Y168307D02*X280109Y169107D01*
X288386Y168307D02*Y166707D01*
Y168307D02*X289772Y169107D01*
X288386Y168307D02*X286999Y169107D01*
X275591Y174213D02*Y172613D01*
Y174213D02*X276977Y175013D01*
X275591Y174213D02*X274204Y175013D01*
X257874Y179134D02*Y177534D01*
Y179134D02*X259261Y179934D01*
X257874Y179134D02*X256487Y179934D01*
X257874Y167323D02*Y165723D01*
Y167323D02*X259261Y168123D01*
X257874Y167323D02*X256487Y168123D01*
X239173Y180118D02*Y178518D01*
Y180118D02*X240560Y180918D01*
X239173Y180118D02*X237787Y180918D01*
X245079Y179134D02*Y177534D01*
Y179134D02*X246465Y179934D01*
X245079Y179134D02*X243692Y179934D01*
X245079Y173228D02*Y171628D01*
Y173228D02*X246465Y174028D01*
X245079Y173228D02*X243692Y174028D01*
X239173Y175197D02*Y173597D01*
Y175197D02*X240560Y175997D01*
X239173Y175197D02*X237787Y175997D01*
X239173Y168307D02*Y166707D01*
Y168307D02*X240560Y169107D01*
X239173Y168307D02*X237787Y169107D01*
X245079Y167323D02*Y165723D01*
Y167323D02*X246465Y168123D01*
X245079Y167323D02*X243692Y168123D01*
X250984Y179134D02*Y177534D01*
Y179134D02*X252371Y179934D01*
X250984Y179134D02*X249598Y179934D01*
X250984Y167323D02*Y165723D01*
Y167323D02*X252371Y168123D01*
X250984Y167323D02*X249598Y168123D01*
X256890Y390748D02*Y389148D01*
Y390748D02*X258276Y391548D01*
X256890Y390748D02*X255503Y391548D01*
X267717Y390748D02*Y389148D01*
Y390748D02*X269103Y391548D01*
X267717Y390748D02*X266330Y391548D01*
X276575Y390748D02*Y389148D01*
Y390748D02*X277961Y391548D01*
X276575Y390748D02*X275188Y391548D01*
X285433Y390748D02*Y389148D01*
Y390748D02*X286820Y391548D01*
X285433Y390748D02*X284046Y391548D01*
X285433Y382874D02*Y381274D01*
Y382874D02*X286820Y383674D01*
X285433Y382874D02*X284046Y383674D01*
X276575Y382874D02*Y381274D01*
Y382874D02*X277961Y383674D01*
X276575Y382874D02*X275188Y383674D01*
X267717Y382874D02*Y381274D01*
Y382874D02*X269103Y383674D01*
X267717Y382874D02*X266330Y383674D01*
X280512Y378937D02*Y377337D01*
Y378937D02*X281898Y379737D01*
X280512Y378937D02*X279125Y379737D01*
X276575Y375000D02*Y373400D01*
Y375000D02*X277961Y375800D01*
X276575Y375000D02*X275188Y375800D01*
X285433Y375000D02*Y373400D01*
Y375000D02*X286820Y375800D01*
X285433Y375000D02*X284046Y375800D01*
X405512Y348425D02*Y346825D01*
Y348425D02*X406898Y349225D01*
X405512Y348425D02*X404125Y349225D01*
X410433Y348425D02*Y346825D01*
Y348425D02*X411820Y349225D01*
X410433Y348425D02*X409046Y349225D01*
X426181Y356299D02*Y354699D01*
Y356299D02*X427568Y357099D01*
X426181Y356299D02*X424794Y357099D01*
X433071Y356299D02*Y354699D01*
Y356299D02*X434458Y357099D01*
X433071Y356299D02*X431684Y357099D01*
X426181Y348425D02*Y346825D01*
Y348425D02*X427568Y349225D01*
X426181Y348425D02*X424794Y349225D01*
X433071Y347441D02*Y345841D01*
Y347441D02*X434458Y348241D01*
X433071Y347441D02*X431684Y348241D01*
X433071Y339567D02*Y337967D01*
Y339567D02*X434458Y340367D01*
X433071Y339567D02*X431684Y340367D01*
X426181Y339567D02*Y337967D01*
Y339567D02*X427568Y340367D01*
X426181Y339567D02*X424794Y340367D01*
X426181Y332677D02*Y331077D01*
Y332677D02*X427568Y333477D01*
X426181Y332677D02*X424794Y333477D01*
X433071Y332677D02*Y331077D01*
Y332677D02*X434458Y333477D01*
X433071Y332677D02*X431684Y333477D01*
X421260Y343504D02*Y341904D01*
Y343504D02*X422647Y344304D01*
X421260Y343504D02*X419873Y344304D01*
X236220Y375000D02*Y373400D01*
Y375000D02*X237607Y375800D01*
X236220Y375000D02*X234834Y375800D01*
X243110Y375000D02*Y373400D01*
Y375000D02*X244497Y375800D01*
X243110Y375000D02*X241724Y375800D01*
X243110Y380906D02*Y379306D01*
Y380906D02*X244497Y381706D01*
X243110Y380906D02*X241724Y381706D01*
X236220Y380906D02*Y379306D01*
Y380906D02*X237607Y381706D01*
X236220Y380906D02*X234834Y381706D01*
X236220Y385827D02*Y384227D01*
Y385827D02*X237607Y386627D01*
X236220Y385827D02*X234834Y386627D01*
X243110Y385827D02*Y384227D01*
Y385827D02*X244497Y386627D01*
X243110Y385827D02*X241724Y386627D01*
X243110Y390748D02*Y389148D01*
Y390748D02*X244497Y391548D01*
X243110Y390748D02*X241724Y391548D01*
X236220Y390748D02*Y389148D01*
Y390748D02*X237607Y391548D01*
X236220Y390748D02*X234834Y391548D01*
X221457Y324803D02*Y323203D01*
Y324803D02*X222843Y325603D01*
X221457Y324803D02*X220070Y325603D01*
X228346Y321850D02*Y320250D01*
Y321850D02*X229733Y322650D01*
X228346Y321850D02*X226960Y322650D01*
X232283Y317913D02*Y316313D01*
Y317913D02*X233670Y318713D01*
X232283Y317913D02*X230897Y318713D01*
X227362Y317913D02*Y316313D01*
Y317913D02*X228749Y318713D01*
X227362Y317913D02*X225976Y318713D01*
X221457Y317913D02*Y316313D01*
Y317913D02*X222843Y318713D01*
X221457Y317913D02*X220070Y318713D01*
X221457Y312008D02*Y310408D01*
Y312008D02*X222843Y312808D01*
X221457Y312008D02*X220070Y312808D01*
X241142Y318898D02*Y317298D01*
Y318898D02*X242528Y319698D01*
X241142Y318898D02*X239755Y319698D01*
X249016Y323819D02*Y322219D01*
Y323819D02*X250402Y324619D01*
X249016Y323819D02*X247629Y324619D01*
X249016Y318898D02*Y317298D01*
Y318898D02*X250402Y319698D01*
X249016Y318898D02*X247629Y319698D01*
X249016Y314961D02*Y313361D01*
Y314961D02*X250402Y315761D01*
X249016Y314961D02*X247629Y315761D01*
X249016Y328740D02*Y327140D01*
Y328740D02*X250402Y329540D01*
X249016Y328740D02*X247629Y329540D01*
X222441Y446850D02*Y445250D01*
Y446850D02*X223828Y447650D01*
X222441Y446850D02*X221054Y447650D01*
X232283Y439961D02*Y438361D01*
Y439961D02*X233670Y440761D01*
X232283Y439961D02*X230897Y440761D01*
X232283Y433071D02*Y431471D01*
Y433071D02*X233670Y433871D01*
X232283Y433071D02*X230897Y433871D01*
X222441Y437008D02*Y435408D01*
Y437008D02*X223828Y437808D01*
X222441Y437008D02*X221054Y437808D01*
X240157Y433071D02*Y431471D01*
Y433071D02*X241544Y433871D01*
X240157Y433071D02*X238771Y433871D01*
X240157Y439961D02*Y438361D01*
Y439961D02*X241544Y440761D01*
X240157Y439961D02*X238771Y440761D01*
X248031Y439961D02*Y438361D01*
Y439961D02*X249418Y440761D01*
X248031Y439961D02*X246645Y440761D01*
X248031Y433071D02*Y431471D01*
Y433071D02*X249418Y433871D01*
X248031Y433071D02*X246645Y433871D01*
X248031Y451772D02*Y450172D01*
Y451772D02*X249418Y452572D01*
X248031Y451772D02*X246645Y452572D01*
X295276Y488189D02*Y486589D01*
Y488189D02*X296662Y488989D01*
X295276Y488189D02*X293889Y488989D01*
X297244Y492126D02*Y490526D01*
Y492126D02*X298631Y492926D01*
X297244Y492126D02*X295857Y492926D01*
X297244Y497047D02*Y495447D01*
Y497047D02*X298631Y497847D01*
X297244Y497047D02*X295857Y497847D01*
X292323Y497047D02*Y495447D01*
Y497047D02*X293710Y497847D01*
X292323Y497047D02*X290936Y497847D01*
X279528Y497047D02*Y495447D01*
Y497047D02*X280914Y497847D01*
X279528Y497047D02*X278141Y497847D01*
X279528Y508858D02*Y507258D01*
Y508858D02*X280914Y509658D01*
X279528Y508858D02*X278141Y509658D01*
X292323Y508858D02*Y507258D01*
Y508858D02*X293710Y509658D01*
X292323Y508858D02*X290936Y509658D01*
X298228Y508858D02*Y507258D01*
Y508858D02*X299615Y509658D01*
X298228Y508858D02*X296842Y509658D01*
X303150Y505906D02*Y504306D01*
Y505906D02*X304536Y506706D01*
X303150Y505906D02*X301763Y506706D01*
X309055Y508858D02*Y507258D01*
Y508858D02*X310442Y509658D01*
X309055Y508858D02*X307668Y509658D01*
X278543Y120079D02*Y118479D01*
Y120079D02*X279930Y120879D01*
X278543Y120079D02*X277157Y120879D01*
X287402Y120079D02*Y118479D01*
Y120079D02*X288788Y120879D01*
X287402Y120079D02*X286015Y120879D01*
X283465Y120079D02*Y118479D01*
Y120079D02*X284851Y120879D01*
X283465Y120079D02*X282078Y120879D01*
X278543Y111220D02*Y109620D01*
Y111220D02*X279930Y112020D01*
X278543Y111220D02*X277157Y112020D01*
X287402Y111220D02*Y109620D01*
Y111220D02*X288788Y112020D01*
X287402Y111220D02*X286015Y112020D01*
X283465Y111220D02*Y109620D01*
Y111220D02*X284851Y112020D01*
X283465Y111220D02*X282078Y112020D01*
X278543Y106299D02*Y104699D01*
Y106299D02*X279930Y107099D01*
X278543Y106299D02*X277157Y107099D01*
X287402Y106299D02*Y104699D01*
Y106299D02*X288788Y107099D01*
X287402Y106299D02*X286015Y107099D01*
X283465Y106299D02*Y104699D01*
Y106299D02*X284851Y107099D01*
X283465Y106299D02*X282078Y107099D01*
X278543Y101378D02*Y99778D01*
Y101378D02*X279930Y102178D01*
X278543Y101378D02*X277157Y102178D01*
X287402Y101378D02*Y99778D01*
Y101378D02*X288788Y102178D01*
X287402Y101378D02*X286015Y102178D01*
X283465Y101378D02*Y99778D01*
Y101378D02*X284851Y102178D01*
X283465Y101378D02*X282078Y102178D01*
X278543Y95472D02*Y93872D01*
Y95472D02*X279930Y96272D01*
X278543Y95472D02*X277157Y96272D01*
X287402Y95472D02*Y93872D01*
Y95472D02*X288788Y96272D01*
X287402Y95472D02*X286015Y96272D01*
X283465Y95472D02*Y93872D01*
Y95472D02*X284851Y96272D01*
X283465Y95472D02*X282078Y96272D01*
X278543Y116142D02*Y114542D01*
Y116142D02*X279930Y116942D01*
X278543Y116142D02*X277157Y116942D01*
X287402Y116142D02*Y114542D01*
Y116142D02*X288788Y116942D01*
X287402Y116142D02*X286015Y116942D01*
X283465Y116142D02*Y114542D01*
Y116142D02*X284851Y116942D01*
X283465Y116142D02*X282078Y116942D01*
X278543Y85630D02*Y84030D01*
Y85630D02*X279930Y86430D01*
X278543Y85630D02*X277157Y86430D01*
X287402Y85630D02*Y84030D01*
Y85630D02*X288788Y86430D01*
X287402Y85630D02*X286015Y86430D01*
X283465Y85630D02*Y84030D01*
Y85630D02*X284851Y86430D01*
X283465Y85630D02*X282078Y86430D01*
X278543Y91535D02*Y89935D01*
Y91535D02*X279930Y92335D01*
X278543Y91535D02*X277157Y92335D01*
X287402Y91535D02*Y89935D01*
Y91535D02*X288788Y92335D01*
X287402Y91535D02*X286015Y92335D01*
X283465Y91535D02*Y89935D01*
Y91535D02*X284851Y92335D01*
X283465Y91535D02*X282078Y92335D01*
X277559Y242126D02*Y240526D01*
Y242126D02*X278946Y242926D01*
X277559Y242126D02*X276172Y242926D01*
X286417Y242126D02*Y240526D01*
Y242126D02*X287804Y242926D01*
X286417Y242126D02*X285031Y242926D01*
X282480Y242126D02*Y240526D01*
Y242126D02*X283867Y242926D01*
X282480Y242126D02*X281094Y242926D01*
X277559Y232283D02*Y230683D01*
Y232283D02*X278946Y233083D01*
X277559Y232283D02*X276172Y233083D01*
X286417Y232283D02*Y230683D01*
Y232283D02*X287804Y233083D01*
X286417Y232283D02*X285031Y233083D01*
X282480Y232283D02*Y230683D01*
Y232283D02*X283867Y233083D01*
X282480Y232283D02*X281094Y233083D01*
X277559Y227362D02*Y225762D01*
Y227362D02*X278946Y228162D01*
X277559Y227362D02*X276172Y228162D01*
X286417Y227362D02*Y225762D01*
Y227362D02*X287804Y228162D01*
X286417Y227362D02*X285031Y228162D01*
X282480Y227362D02*Y225762D01*
Y227362D02*X283867Y228162D01*
X282480Y227362D02*X281094Y228162D01*
X277559Y222441D02*Y220841D01*
Y222441D02*X278946Y223241D01*
X277559Y222441D02*X276172Y223241D01*
X286417Y222441D02*Y220841D01*
Y222441D02*X287804Y223241D01*
X286417Y222441D02*X285031Y223241D01*
X282480Y222441D02*Y220841D01*
Y222441D02*X283867Y223241D01*
X282480Y222441D02*X281094Y223241D01*
X277559Y217520D02*Y215920D01*
Y217520D02*X278946Y218320D01*
X277559Y217520D02*X276172Y218320D01*
X287402Y217520D02*Y215920D01*
Y217520D02*X288788Y218320D01*
X287402Y217520D02*X286015Y218320D01*
X282480Y217520D02*Y215920D01*
Y217520D02*X283867Y218320D01*
X282480Y217520D02*X281094Y218320D01*
X277559Y237205D02*Y235605D01*
Y237205D02*X278946Y238005D01*
X277559Y237205D02*X276172Y238005D01*
X286417Y237205D02*Y235605D01*
Y237205D02*X287804Y238005D01*
X286417Y237205D02*X285031Y238005D01*
X282480Y237205D02*Y235605D01*
Y237205D02*X283867Y238005D01*
X282480Y237205D02*X281094Y238005D01*
X277559Y207677D02*Y206077D01*
Y207677D02*X278946Y208477D01*
X277559Y207677D02*X276172Y208477D01*
X286417Y207677D02*Y206077D01*
Y207677D02*X287804Y208477D01*
X286417Y207677D02*X285031Y208477D01*
X282480Y207677D02*Y206077D01*
Y207677D02*X283867Y208477D01*
X282480Y207677D02*X281094Y208477D01*
X277559Y212598D02*Y210998D01*
Y212598D02*X278946Y213398D01*
X277559Y212598D02*X276172Y213398D01*
X287402Y212598D02*Y210998D01*
Y212598D02*X288788Y213398D01*
X287402Y212598D02*X286015Y213398D01*
X282480Y212598D02*Y210998D01*
Y212598D02*X283867Y213398D01*
X282480Y212598D02*X281094Y213398D01*
X276575Y363189D02*Y361589D01*
Y363189D02*X277961Y363989D01*
X276575Y363189D02*X275188Y363989D01*
X286417Y363189D02*Y361589D01*
Y363189D02*X287804Y363989D01*
X286417Y363189D02*X285031Y363989D01*
X281496Y363189D02*Y361589D01*
Y363189D02*X282883Y363989D01*
X281496Y363189D02*X280109Y363989D01*
X276575Y353346D02*Y351746D01*
Y353346D02*X277961Y354146D01*
X276575Y353346D02*X275188Y354146D01*
X286417Y353346D02*Y351746D01*
Y353346D02*X287804Y354146D01*
X286417Y353346D02*X285031Y354146D01*
X281496Y353346D02*Y351746D01*
Y353346D02*X282883Y354146D01*
X281496Y353346D02*X280109Y354146D01*
X276575Y348425D02*Y346825D01*
Y348425D02*X277961Y349225D01*
X276575Y348425D02*X275188Y349225D01*
X286417Y348425D02*Y346825D01*
Y348425D02*X287804Y349225D01*
X286417Y348425D02*X285031Y349225D01*
X281496Y348425D02*Y346825D01*
Y348425D02*X282883Y349225D01*
X281496Y348425D02*X280109Y349225D01*
X276575Y343504D02*Y341904D01*
Y343504D02*X277961Y344304D01*
X276575Y343504D02*X275188Y344304D01*
X286417Y343504D02*Y341904D01*
Y343504D02*X287804Y344304D01*
X286417Y343504D02*X285031Y344304D01*
X281496Y343504D02*Y341904D01*
Y343504D02*X282883Y344304D01*
X281496Y343504D02*X280109Y344304D01*
X276575Y338583D02*Y336983D01*
Y338583D02*X277961Y339383D01*
X276575Y338583D02*X275188Y339383D01*
X286417Y338583D02*Y336983D01*
Y338583D02*X287804Y339383D01*
X286417Y338583D02*X285031Y339383D01*
X281496Y338583D02*Y336983D01*
Y338583D02*X282883Y339383D01*
X281496Y338583D02*X280109Y339383D01*
X276575Y358268D02*Y356668D01*
Y358268D02*X277961Y359068D01*
X276575Y358268D02*X275188Y359068D01*
X286417Y358268D02*Y356668D01*
Y358268D02*X287804Y359068D01*
X286417Y358268D02*X285031Y359068D01*
X281496Y358268D02*Y356668D01*
Y358268D02*X282883Y359068D01*
X281496Y358268D02*X280109Y359068D01*
X276575Y328740D02*Y327140D01*
Y328740D02*X277961Y329540D01*
X276575Y328740D02*X275188Y329540D01*
X286417Y328740D02*Y327140D01*
Y328740D02*X287804Y329540D01*
X286417Y328740D02*X285031Y329540D01*
X281496Y328740D02*Y327140D01*
Y328740D02*X282883Y329540D01*
X281496Y328740D02*X280109Y329540D01*
X276575Y333661D02*Y332061D01*
Y333661D02*X277961Y334461D01*
X276575Y333661D02*X275188Y334461D01*
X286417Y333661D02*Y332061D01*
Y333661D02*X287804Y334461D01*
X286417Y333661D02*X285031Y334461D01*
X281496Y333661D02*Y332061D01*
Y333661D02*X282883Y334461D01*
X281496Y333661D02*X280109Y334461D01*
X276575Y484252D02*Y482652D01*
Y484252D02*X277961Y485052D01*
X276575Y484252D02*X275188Y485052D01*
X286417Y484252D02*Y482652D01*
Y484252D02*X287804Y485052D01*
X286417Y484252D02*X285031Y485052D01*
X281496Y484252D02*Y482652D01*
Y484252D02*X282883Y485052D01*
X281496Y484252D02*X280109Y485052D01*
X276575Y475394D02*Y473794D01*
Y475394D02*X277961Y476194D01*
X276575Y475394D02*X275188Y476194D01*
X286417Y475394D02*Y473794D01*
Y475394D02*X287804Y476194D01*
X286417Y475394D02*X285031Y476194D01*
X281496Y475394D02*Y473794D01*
Y475394D02*X282883Y476194D01*
X281496Y475394D02*X280109Y476194D01*
X276575Y470472D02*Y468872D01*
Y470472D02*X277961Y471272D01*
X276575Y470472D02*X275188Y471272D01*
X286417Y470472D02*Y468872D01*
Y470472D02*X287804Y471272D01*
X286417Y470472D02*X285031Y471272D01*
X281496Y470472D02*Y468872D01*
Y470472D02*X282883Y471272D01*
X281496Y470472D02*X280109Y471272D01*
X276575Y465551D02*Y463951D01*
Y465551D02*X277961Y466351D01*
X276575Y465551D02*X275188Y466351D01*
X286417Y465551D02*Y463951D01*
Y465551D02*X287804Y466351D01*
X286417Y465551D02*X285031Y466351D01*
X281496Y465551D02*Y463951D01*
Y465551D02*X282883Y466351D01*
X281496Y465551D02*X280109Y466351D01*
X276575Y459646D02*Y458046D01*
Y459646D02*X277961Y460446D01*
X276575Y459646D02*X275188Y460446D01*
X286417Y459646D02*Y458046D01*
Y459646D02*X287804Y460446D01*
X286417Y459646D02*X285031Y460446D01*
X281496Y459646D02*Y458046D01*
Y459646D02*X282883Y460446D01*
X281496Y459646D02*X280109Y460446D01*
X276575Y480315D02*Y478715D01*
Y480315D02*X277961Y481115D01*
X276575Y480315D02*X275188Y481115D01*
X286417Y480315D02*Y478715D01*
Y480315D02*X287804Y481115D01*
X286417Y480315D02*X285031Y481115D01*
X281496Y480315D02*Y478715D01*
Y480315D02*X282883Y481115D01*
X281496Y480315D02*X280109Y481115D01*
X276575Y449803D02*Y448203D01*
Y449803D02*X277961Y450603D01*
X276575Y449803D02*X275188Y450603D01*
X286417Y449803D02*Y448203D01*
Y449803D02*X287804Y450603D01*
X286417Y449803D02*X285031Y450603D01*
X281496Y449803D02*Y448203D01*
Y449803D02*X282883Y450603D01*
X281496Y449803D02*X280109Y450603D01*
X276575Y455709D02*Y454109D01*
Y455709D02*X277961Y456509D01*
X276575Y455709D02*X275188Y456509D01*
X286417Y455709D02*Y454109D01*
Y455709D02*X287804Y456509D01*
X286417Y455709D02*X285031Y456509D01*
X281496Y455709D02*Y454109D01*
Y455709D02*X282883Y456509D01*
X281496Y455709D02*X280109Y456509D01*
X389764Y598425D02*Y596825D01*
Y598425D02*X391150Y599225D01*
X389764Y598425D02*X388377Y599225D01*
X287402Y598425D02*Y596825D01*
Y598425D02*X288788Y599225D01*
X287402Y598425D02*X286015Y599225D01*
X295276Y598425D02*Y596825D01*
Y598425D02*X296662Y599225D01*
X295276Y598425D02*X293889Y599225D01*
X303150Y598425D02*Y596825D01*
Y598425D02*X304536Y599225D01*
X303150Y598425D02*X301763Y599225D01*
X311024Y598425D02*Y596825D01*
Y598425D02*X312410Y599225D01*
X311024Y598425D02*X309637Y599225D01*
X318898Y598425D02*Y596825D01*
Y598425D02*X320284Y599225D01*
X318898Y598425D02*X317511Y599225D01*
X326772Y598425D02*Y596825D01*
Y598425D02*X328158Y599225D01*
X326772Y598425D02*X325385Y599225D01*
X334646Y598425D02*Y596825D01*
Y598425D02*X336032Y599225D01*
X334646Y598425D02*X333259Y599225D01*
X342520Y598425D02*Y596825D01*
Y598425D02*X343906Y599225D01*
X342520Y598425D02*X341133Y599225D01*
X350394Y598425D02*Y596825D01*
Y598425D02*X351780Y599225D01*
X350394Y598425D02*X349007Y599225D01*
X358268Y598425D02*Y596825D01*
Y598425D02*X359654Y599225D01*
X358268Y598425D02*X356881Y599225D01*
X366142Y598425D02*Y596825D01*
Y598425D02*X367528Y599225D01*
X366142Y598425D02*X364755Y599225D01*
X374016Y598425D02*Y596825D01*
Y598425D02*X375402Y599225D01*
X374016Y598425D02*X372629Y599225D01*
X381890Y598425D02*Y596825D01*
Y598425D02*X383276Y599225D01*
X381890Y598425D02*X380503Y599225D01*
X287402Y593504D02*Y591904D01*
Y593504D02*X288788Y594304D01*
X287402Y593504D02*X286015Y594304D01*
X305118Y590551D02*Y588951D01*
Y590551D02*X306505Y591351D01*
X305118Y590551D02*X303731Y591351D01*
X310039Y592520D02*Y590920D01*
Y592520D02*X311426Y593320D01*
X310039Y592520D02*X308653Y593320D01*
X318898Y593504D02*Y591904D01*
Y593504D02*X320284Y594304D01*
X318898Y593504D02*X317511Y594304D01*
X326772Y590551D02*Y588951D01*
Y590551D02*X328158Y591351D01*
X326772Y590551D02*X325385Y591351D01*
X334646Y590551D02*Y588951D01*
Y590551D02*X336032Y591351D01*
X334646Y590551D02*X333259Y591351D01*
X342520Y590551D02*Y588951D01*
Y590551D02*X343906Y591351D01*
X342520Y590551D02*X341133Y591351D01*
X350394Y590551D02*Y588951D01*
Y590551D02*X351780Y591351D01*
X350394Y590551D02*X349007Y591351D01*
X358268Y590551D02*Y588951D01*
Y590551D02*X359654Y591351D01*
X358268Y590551D02*X356881Y591351D01*
X366142Y590551D02*Y588951D01*
Y590551D02*X367528Y591351D01*
X366142Y590551D02*X364755Y591351D01*
X374016Y590551D02*Y588951D01*
Y590551D02*X375402Y591351D01*
X374016Y590551D02*X372629Y591351D01*
X381890Y590551D02*Y588951D01*
Y590551D02*X383276Y591351D01*
X381890Y590551D02*X380503Y591351D01*
X389764Y590551D02*Y588951D01*
Y590551D02*X391150Y591351D01*
X389764Y590551D02*X388377Y591351D01*
X305118Y582677D02*Y581077D01*
Y582677D02*X306505Y583477D01*
X305118Y582677D02*X303731Y583477D01*
X326772Y582677D02*Y581077D01*
Y582677D02*X328158Y583477D01*
X326772Y582677D02*X325385Y583477D01*
X334646Y582677D02*Y581077D01*
Y582677D02*X336032Y583477D01*
X334646Y582677D02*X333259Y583477D01*
X342520Y582677D02*Y581077D01*
Y582677D02*X343906Y583477D01*
X342520Y582677D02*X341133Y583477D01*
X350394Y582677D02*Y581077D01*
Y582677D02*X351780Y583477D01*
X350394Y582677D02*X349007Y583477D01*
X358268Y582677D02*Y581077D01*
Y582677D02*X359654Y583477D01*
X358268Y582677D02*X356881Y583477D01*
X366142Y582677D02*Y581077D01*
Y582677D02*X367528Y583477D01*
X366142Y582677D02*X364755Y583477D01*
X374016Y582677D02*Y581077D01*
Y582677D02*X375402Y583477D01*
X374016Y582677D02*X372629Y583477D01*
X381890Y582677D02*Y581077D01*
Y582677D02*X383276Y583477D01*
X381890Y582677D02*X380503Y583477D01*
X389764Y582677D02*Y581077D01*
Y582677D02*X391150Y583477D01*
X389764Y582677D02*X388377Y583477D01*
X305118Y574803D02*Y573203D01*
Y574803D02*X306505Y575603D01*
X305118Y574803D02*X303731Y575603D01*
X326772Y574803D02*Y573203D01*
Y574803D02*X328158Y575603D01*
X326772Y574803D02*X325385Y575603D01*
X334646Y574803D02*Y573203D01*
Y574803D02*X336032Y575603D01*
X334646Y574803D02*X333259Y575603D01*
X342520Y574803D02*Y573203D01*
Y574803D02*X343906Y575603D01*
X342520Y574803D02*X341133Y575603D01*
X350394Y574803D02*Y573203D01*
Y574803D02*X351780Y575603D01*
X350394Y574803D02*X349007Y575603D01*
X358268Y574803D02*Y573203D01*
Y574803D02*X359654Y575603D01*
X358268Y574803D02*X356881Y575603D01*
X366142Y574803D02*Y573203D01*
Y574803D02*X367528Y575603D01*
X366142Y574803D02*X364755Y575603D01*
X374016Y574803D02*Y573203D01*
Y574803D02*X375402Y575603D01*
X374016Y574803D02*X372629Y575603D01*
X381890Y574803D02*Y573203D01*
Y574803D02*X383276Y575603D01*
X381890Y574803D02*X380503Y575603D01*
X389764Y574803D02*Y573203D01*
Y574803D02*X391150Y575603D01*
X389764Y574803D02*X388377Y575603D01*
X287402Y566929D02*Y565329D01*
Y566929D02*X288788Y567729D01*
X287402Y566929D02*X286015Y567729D01*
X295276Y566929D02*Y565329D01*
Y566929D02*X296662Y567729D01*
X295276Y566929D02*X293889Y567729D01*
X303150Y566929D02*Y565329D01*
Y566929D02*X304536Y567729D01*
X303150Y566929D02*X301763Y567729D01*
X311024Y566929D02*Y565329D01*
Y566929D02*X312410Y567729D01*
X311024Y566929D02*X309637Y567729D01*
X318898Y566929D02*Y565329D01*
Y566929D02*X320284Y567729D01*
X318898Y566929D02*X317511Y567729D01*
X326772Y566929D02*Y565329D01*
Y566929D02*X328158Y567729D01*
X326772Y566929D02*X325385Y567729D01*
X334646Y566929D02*Y565329D01*
Y566929D02*X336032Y567729D01*
X334646Y566929D02*X333259Y567729D01*
X342520Y566929D02*Y565329D01*
Y566929D02*X343906Y567729D01*
X342520Y566929D02*X341133Y567729D01*
X350394Y566929D02*Y565329D01*
Y566929D02*X351780Y567729D01*
X350394Y566929D02*X349007Y567729D01*
X358268Y566929D02*Y565329D01*
Y566929D02*X359654Y567729D01*
X358268Y566929D02*X356881Y567729D01*
X366142Y566929D02*Y565329D01*
Y566929D02*X367528Y567729D01*
X366142Y566929D02*X364755Y567729D01*
X374016Y566929D02*Y565329D01*
Y566929D02*X375402Y567729D01*
X374016Y566929D02*X372629Y567729D01*
X381890Y566929D02*Y565329D01*
Y566929D02*X383276Y567729D01*
X381890Y566929D02*X380503Y567729D01*
X389764Y566929D02*Y565329D01*
Y566929D02*X391150Y567729D01*
X389764Y566929D02*X388377Y567729D01*
X488189Y446850D02*Y445250D01*
Y446850D02*X489576Y447650D01*
X488189Y446850D02*X486802Y447650D01*
X484252Y446850D02*Y445250D01*
Y446850D02*X485639Y447650D01*
X484252Y446850D02*X482865Y447650D01*
X480315Y446850D02*Y445250D01*
Y446850D02*X481702Y447650D01*
X480315Y446850D02*X478928Y447650D01*
X476378Y446850D02*Y445250D01*
Y446850D02*X477765Y447650D01*
X476378Y446850D02*X474991Y447650D01*
X488189Y440945D02*Y439345D01*
Y440945D02*X489576Y441745D01*
X488189Y440945D02*X486802Y441745D01*
X484252Y440945D02*Y439345D01*
Y440945D02*X485639Y441745D01*
X484252Y440945D02*X482865Y441745D01*
X480315Y440945D02*Y439345D01*
Y440945D02*X481702Y441745D01*
X480315Y440945D02*X478928Y441745D01*
X476378Y440945D02*Y439345D01*
Y440945D02*X477765Y441745D01*
X476378Y440945D02*X474991Y441745D01*
X488189Y435039D02*Y433439D01*
Y435039D02*X489576Y435839D01*
X488189Y435039D02*X486802Y435839D01*
X484252Y435039D02*Y433439D01*
Y435039D02*X485639Y435839D01*
X484252Y435039D02*X482865Y435839D01*
X480315Y435039D02*Y433439D01*
Y435039D02*X481702Y435839D01*
X480315Y435039D02*X478928Y435839D01*
X476378Y435039D02*Y433439D01*
Y435039D02*X477765Y435839D01*
X476378Y435039D02*X474991Y435839D01*
X488189Y429134D02*Y427534D01*
Y429134D02*X489576Y429934D01*
X488189Y429134D02*X486802Y429934D01*
X484252Y429134D02*Y427534D01*
Y429134D02*X485639Y429934D01*
X484252Y429134D02*X482865Y429934D01*
X480315Y429134D02*Y427534D01*
Y429134D02*X481702Y429934D01*
X480315Y429134D02*X478928Y429934D01*
X476378Y429134D02*Y427534D01*
Y429134D02*X477765Y429934D01*
X476378Y429134D02*X474991Y429934D01*
X488189Y423228D02*Y421628D01*
Y423228D02*X489576Y424028D01*
X488189Y423228D02*X486802Y424028D01*
X484252Y423228D02*Y421628D01*
Y423228D02*X485639Y424028D01*
X484252Y423228D02*X482865Y424028D01*
X480315Y423228D02*Y421628D01*
Y423228D02*X481702Y424028D01*
X480315Y423228D02*X478928Y424028D01*
X476378Y423228D02*Y421628D01*
Y423228D02*X477765Y424028D01*
X476378Y423228D02*X474991Y424028D01*
X488189Y417323D02*Y415723D01*
Y417323D02*X489576Y418123D01*
X488189Y417323D02*X486802Y418123D01*
X484252Y417323D02*Y415723D01*
Y417323D02*X485639Y418123D01*
X484252Y417323D02*X482865Y418123D01*
X480315Y417323D02*Y415723D01*
Y417323D02*X481702Y418123D01*
X480315Y417323D02*X478928Y418123D01*
X476378Y417323D02*Y415723D01*
Y417323D02*X477765Y418123D01*
X476378Y417323D02*X474991Y418123D01*
X462598Y456693D02*Y455093D01*
Y456693D02*X463985Y457493D01*
X462598Y456693D02*X461212Y457493D01*
X462598Y472441D02*Y470841D01*
Y472441D02*X463985Y473241D01*
X462598Y472441D02*X461212Y473241D01*
X295276Y593504D02*Y591904D01*
Y593504D02*X296662Y594304D01*
X295276Y593504D02*X293889Y594304D01*
X297244Y585630D02*Y584030D01*
Y585630D02*X298631Y586430D01*
X297244Y585630D02*X295857Y586430D01*
X297244Y579724D02*Y578124D01*
Y579724D02*X298631Y580524D01*
X297244Y579724D02*X295857Y580524D01*
X297244Y573819D02*Y572219D01*
Y573819D02*X298631Y574619D01*
X297244Y573819D02*X295857Y574619D01*
X300197Y585630D02*Y584030D01*
Y585630D02*X301584Y586430D01*
X300197Y585630D02*X298810Y586430D01*
X300197Y579724D02*Y578124D01*
Y579724D02*X301584Y580524D01*
X300197Y579724D02*X298810Y580524D01*
X300197Y573819D02*Y572219D01*
Y573819D02*X301584Y574619D01*
X300197Y573819D02*X298810Y574619D01*
X294291Y585630D02*Y584030D01*
Y585630D02*X295678Y586430D01*
X294291Y585630D02*X292905Y586430D01*
X294291Y579724D02*Y578124D01*
Y579724D02*X295678Y580524D01*
X294291Y579724D02*X292905Y580524D01*
X294291Y573819D02*Y572219D01*
Y573819D02*X295678Y574619D01*
X294291Y573819D02*X292905Y574619D01*
X291339Y585630D02*Y584030D01*
Y585630D02*X292725Y586430D01*
X291339Y585630D02*X289952Y586430D01*
X291339Y579724D02*Y578124D01*
Y579724D02*X292725Y580524D01*
X291339Y579724D02*X289952Y580524D01*
X291339Y573819D02*Y572219D01*
Y573819D02*X292725Y574619D01*
X291339Y573819D02*X289952Y574619D01*
X288386Y585630D02*Y584030D01*
Y585630D02*X289772Y586430D01*
X288386Y585630D02*X286999Y586430D01*
X288386Y579724D02*Y578124D01*
Y579724D02*X289772Y580524D01*
X288386Y579724D02*X286999Y580524D01*
X288386Y573819D02*Y572219D01*
Y573819D02*X289772Y574619D01*
X288386Y573819D02*X286999Y574619D01*
X462598Y464567D02*Y462967D01*
Y464567D02*X463985Y465367D01*
X462598Y464567D02*X461212Y465367D01*
X462598Y480315D02*Y478715D01*
Y480315D02*X463985Y481115D01*
X462598Y480315D02*X461212Y481115D01*
X462598Y476378D02*Y474778D01*
Y476378D02*X463985Y477178D01*
X462598Y476378D02*X461212Y477178D01*
X462598Y468504D02*Y466904D01*
Y468504D02*X463985Y469304D01*
X462598Y468504D02*X461212Y469304D01*
X462598Y460630D02*Y459030D01*
Y460630D02*X463985Y461430D01*
X462598Y460630D02*X461212Y461430D01*
X465551Y456693D02*Y455093D01*
Y456693D02*X466938Y457493D01*
X465551Y456693D02*X464165Y457493D01*
X465551Y472441D02*Y470841D01*
Y472441D02*X466938Y473241D01*
X465551Y472441D02*X464165Y473241D01*
X465551Y464567D02*Y462967D01*
Y464567D02*X466938Y465367D01*
X465551Y464567D02*X464165Y465367D01*
X465551Y480315D02*Y478715D01*
Y480315D02*X466938Y481115D01*
X465551Y480315D02*X464165Y481115D01*
X465551Y476378D02*Y474778D01*
Y476378D02*X466938Y477178D01*
X465551Y476378D02*X464165Y477178D01*
X465551Y468504D02*Y466904D01*
Y468504D02*X466938Y469304D01*
X465551Y468504D02*X464165Y469304D01*
X465551Y460630D02*Y459030D01*
Y460630D02*X466938Y461430D01*
X465551Y460630D02*X464165Y461430D01*
X459646Y456693D02*Y455093D01*
Y456693D02*X461032Y457493D01*
X459646Y456693D02*X458259Y457493D01*
X459646Y472441D02*Y470841D01*
Y472441D02*X461032Y473241D01*
X459646Y472441D02*X458259Y473241D01*
X459646Y464567D02*Y462967D01*
Y464567D02*X461032Y465367D01*
X459646Y464567D02*X458259Y465367D01*
X459646Y480315D02*Y478715D01*
Y480315D02*X461032Y481115D01*
X459646Y480315D02*X458259Y481115D01*
X459646Y476378D02*Y474778D01*
Y476378D02*X461032Y477178D01*
X459646Y476378D02*X458259Y477178D01*
X459646Y468504D02*Y466904D01*
Y468504D02*X461032Y469304D01*
X459646Y468504D02*X458259Y469304D01*
X459646Y460630D02*Y459030D01*
Y460630D02*X461032Y461430D01*
X459646Y460630D02*X458259Y461430D01*
X456693Y456693D02*Y455093D01*
Y456693D02*X458080Y457493D01*
X456693Y456693D02*X455306Y457493D01*
X456693Y472441D02*Y470841D01*
Y472441D02*X458080Y473241D01*
X456693Y472441D02*X455306Y473241D01*
X456693Y464567D02*Y462967D01*
Y464567D02*X458080Y465367D01*
X456693Y464567D02*X455306Y465367D01*
X456693Y480315D02*Y478715D01*
Y480315D02*X458080Y481115D01*
X456693Y480315D02*X455306Y481115D01*
X456693Y476378D02*Y474778D01*
Y476378D02*X458080Y477178D01*
X456693Y476378D02*X455306Y477178D01*
X456693Y468504D02*Y466904D01*
Y468504D02*X458080Y469304D01*
X456693Y468504D02*X455306Y469304D01*
X456693Y460630D02*Y459030D01*
Y460630D02*X458080Y461430D01*
X456693Y460630D02*X455306Y461430D01*
X453740Y456693D02*Y455093D01*
Y456693D02*X455127Y457493D01*
X453740Y456693D02*X452353Y457493D01*
X453740Y472441D02*Y470841D01*
Y472441D02*X455127Y473241D01*
X453740Y472441D02*X452353Y473241D01*
X453740Y464567D02*Y462967D01*
Y464567D02*X455127Y465367D01*
X453740Y464567D02*X452353Y465367D01*
X453740Y480315D02*Y478715D01*
Y480315D02*X455127Y481115D01*
X453740Y480315D02*X452353Y481115D01*
X453740Y476378D02*Y474778D01*
Y476378D02*X455127Y477178D01*
X453740Y476378D02*X452353Y477178D01*
X453740Y468504D02*Y466904D01*
Y468504D02*X455127Y469304D01*
X453740Y468504D02*X452353Y469304D01*
X453740Y460630D02*Y459030D01*
Y460630D02*X455127Y461430D01*
X453740Y460630D02*X452353Y461430D01*
X468504Y456693D02*Y455093D01*
Y456693D02*X469891Y457493D01*
X468504Y456693D02*X467117Y457493D01*
X468504Y472441D02*Y470841D01*
Y472441D02*X469891Y473241D01*
X468504Y472441D02*X467117Y473241D01*
X468504Y464567D02*Y462967D01*
Y464567D02*X469891Y465367D01*
X468504Y464567D02*X467117Y465367D01*
X468504Y480315D02*Y478715D01*
Y480315D02*X469891Y481115D01*
X468504Y480315D02*X467117Y481115D01*
X468504Y476378D02*Y474778D01*
Y476378D02*X469891Y477178D01*
X468504Y476378D02*X467117Y477178D01*
X468504Y468504D02*Y466904D01*
Y468504D02*X469891Y469304D01*
X468504Y468504D02*X467117Y469304D01*
X468504Y460630D02*Y459030D01*
Y460630D02*X469891Y461430D01*
X468504Y460630D02*X467117Y461430D01*
X267717Y174213D02*Y172613D01*
Y174213D02*X269103Y175013D01*
X267717Y174213D02*X266330Y175013D01*
X281496Y174213D02*Y172613D01*
Y174213D02*X282883Y175013D01*
X281496Y174213D02*X280109Y175013D01*
X15000Y816486D02*Y814886D01*
Y816486D02*X16387Y817286D01*
X15000Y816486D02*X13613Y817286D01*
X135000Y818736D02*X136500Y815736D01*
X138000Y818736D01*
X136500Y815736D02*Y812736D01*
X139800Y816036D02*X142050D01*
X139800Y812736D02*X142800D01*
X139800Y818736D02*Y812736D01*
Y818736D02*X142800D01*
X147600D02*X148350Y817986D01*
X145350Y818736D02*X147600D01*
X144600Y817986D02*X145350Y818736D01*
X144600Y817986D02*Y816486D01*
X145350Y815736D01*
X147600D01*
X148350Y814986D01*
Y813486D01*
X147600Y812736D02*X148350Y813486D01*
X145350Y812736D02*X147600D01*
X144600Y813486D02*X145350Y812736D01*
X98000Y817986D02*X98750Y818736D01*
X100250D01*
X101000Y817986D01*
X100250Y812736D02*X101000Y813486D01*
X98750Y812736D02*X100250D01*
X98000Y813486D02*X98750Y812736D01*
Y816036D02*X100250D01*
X101000Y817986D02*Y816786D01*
Y815286D02*Y813486D01*
Y815286D02*X100250Y816036D01*
X101000Y816786D02*X100250Y816036D01*
X102800Y813486D02*X103550Y812736D01*
X102800Y814686D02*Y813486D01*
Y814686D02*X103850Y815736D01*
X104750D01*
X105800Y814686D01*
Y813486D01*
X105050Y812736D02*X105800Y813486D01*
X103550Y812736D02*X105050D01*
X102800Y816786D02*X103850Y815736D01*
X102800Y817986D02*Y816786D01*
Y817986D02*X103550Y818736D01*
X105050D01*
X105800Y817986D01*
Y816786D01*
X104750Y815736D02*X105800Y816786D01*
X107600Y813486D02*X108350Y812736D01*
X107600Y814686D02*Y813486D01*
Y814686D02*X108650Y815736D01*
X109550D01*
X110600Y814686D01*
Y813486D01*
X109850Y812736D02*X110600Y813486D01*
X108350Y812736D02*X109850D01*
X107600Y816786D02*X108650Y815736D01*
X107600Y817986D02*Y816786D01*
Y817986D02*X108350Y818736D01*
X109850D01*
X110600Y817986D01*
Y816786D01*
X109550Y815736D02*X110600Y816786D01*
X45000Y813486D02*X45750Y812736D01*
X45000Y817986D02*Y813486D01*
Y817986D02*X45750Y818736D01*
X47250D01*
X48000Y817986D01*
Y813486D01*
X47250Y812736D02*X48000Y813486D01*
X45750Y812736D02*X47250D01*
X45000Y814236D02*X48000Y817236D01*
X49800Y812736D02*X50550D01*
X52350Y813486D02*X53100Y812736D01*
X52350Y817986D02*Y813486D01*
Y817986D02*X53100Y818736D01*
X54600D01*
X55350Y817986D01*
Y813486D01*
X54600Y812736D02*X55350Y813486D01*
X53100Y812736D02*X54600D01*
X52350Y814236D02*X55350Y817236D01*
X57150Y813486D02*X57900Y812736D01*
X57150Y817986D02*Y813486D01*
Y817986D02*X57900Y818736D01*
X59400D01*
X60150Y817986D01*
Y813486D01*
X59400Y812736D02*X60150Y813486D01*
X57900Y812736D02*X59400D01*
X57150Y814236D02*X60150Y817236D01*
X62700Y812736D02*X64950Y815736D01*
Y817986D02*Y815736D01*
X64200Y818736D02*X64950Y817986D01*
X62700Y818736D02*X64200D01*
X61950Y817986D02*X62700Y818736D01*
X61950Y817986D02*Y816486D01*
X62700Y815736D01*
X64950D01*
X3000Y833736D02*X3750Y832986D01*
X750Y833736D02*X3000D01*
X0Y832986D02*X750Y833736D01*
X0Y832986D02*Y831486D01*
X750Y830736D01*
X3000D01*
X3750Y829986D01*
Y828486D01*
X3000Y827736D02*X3750Y828486D01*
X750Y827736D02*X3000D01*
X0Y828486D02*X750Y827736D01*
X5550Y830736D02*Y828486D01*
X6300Y827736D01*
X8550Y830736D02*Y826236D01*
X7800Y825486D02*X8550Y826236D01*
X6300Y825486D02*X7800D01*
X5550Y826236D02*X6300Y825486D01*
Y827736D02*X7800D01*
X8550Y828486D01*
X11100Y829986D02*Y827736D01*
Y829986D02*X11850Y830736D01*
X12600D01*
X13350Y829986D01*
Y827736D01*
Y829986D02*X14100Y830736D01*
X14850D01*
X15600Y829986D01*
Y827736D01*
X10350Y830736D02*X11100Y829986D01*
X17400Y833736D02*Y827736D01*
Y828486D02*X18150Y827736D01*
X19650D01*
X20400Y828486D01*
Y829986D02*Y828486D01*
X19650Y830736D02*X20400Y829986D01*
X18150Y830736D02*X19650D01*
X17400Y829986D02*X18150Y830736D01*
X22200Y829986D02*Y828486D01*
Y829986D02*X22950Y830736D01*
X24450D01*
X25200Y829986D01*
Y828486D01*
X24450Y827736D02*X25200Y828486D01*
X22950Y827736D02*X24450D01*
X22200Y828486D02*X22950Y827736D01*
X27000Y833736D02*Y828486D01*
X27750Y827736D01*
X0Y824486D02*X29250D01*
X41750Y833736D02*Y827736D01*
X43700Y833736D02*X44750Y832686D01*
Y828786D01*
X43700Y827736D02*X44750Y828786D01*
X41000Y827736D02*X43700D01*
X41000Y833736D02*X43700D01*
G54D189*X46550Y832236D02*Y832086D01*
G54D188*Y829986D02*Y827736D01*
X50300Y830736D02*X51050Y829986D01*
X48800Y830736D02*X50300D01*
X48050Y829986D02*X48800Y830736D01*
X48050Y829986D02*Y828486D01*
X48800Y827736D01*
X51050Y830736D02*Y828486D01*
X51800Y827736D01*
X48800D02*X50300D01*
X51050Y828486D01*
X54350Y829986D02*Y827736D01*
Y829986D02*X55100Y830736D01*
X55850D01*
X56600Y829986D01*
Y827736D01*
Y829986D02*X57350Y830736D01*
X58100D01*
X58850Y829986D01*
Y827736D01*
X53600Y830736D02*X54350Y829986D01*
X60650Y827736D02*X61400D01*
X65900Y828486D02*X66650Y827736D01*
X65900Y832986D02*X66650Y833736D01*
X65900Y832986D02*Y828486D01*
X68450Y833736D02*X69950D01*
X69200D02*Y827736D01*
X68450D02*X69950D01*
X72500Y829986D02*Y827736D01*
Y829986D02*X73250Y830736D01*
X74000D01*
X74750Y829986D01*
Y827736D01*
X71750Y830736D02*X72500Y829986D01*
X77300Y830736D02*X79550D01*
X76550Y829986D02*X77300Y830736D01*
X76550Y829986D02*Y828486D01*
X77300Y827736D01*
X79550D01*
X81350Y833736D02*Y827736D01*
Y829986D02*X82100Y830736D01*
X83600D01*
X84350Y829986D01*
Y827736D01*
X86150Y833736D02*X86900Y832986D01*
Y828486D01*
X86150Y827736D02*X86900Y828486D01*
X41000Y824486D02*X88700D01*
X96050Y827736D02*X98000D01*
X95000Y828786D02*X96050Y827736D01*
X95000Y832686D02*Y828786D01*
Y832686D02*X96050Y833736D01*
X98000D01*
X99800Y829986D02*Y828486D01*
Y829986D02*X100550Y830736D01*
X102050D01*
X102800Y829986D01*
Y828486D01*
X102050Y827736D02*X102800Y828486D01*
X100550Y827736D02*X102050D01*
X99800Y828486D02*X100550Y827736D01*
X104600Y830736D02*Y828486D01*
X105350Y827736D01*
X106850D01*
X107600Y828486D01*
Y830736D02*Y828486D01*
X110150Y829986D02*Y827736D01*
Y829986D02*X110900Y830736D01*
X111650D01*
X112400Y829986D01*
Y827736D01*
X109400Y830736D02*X110150Y829986D01*
X114950Y833736D02*Y828486D01*
X115700Y827736D01*
X114200Y831486D02*X115700D01*
X95000Y824486D02*X117200D01*
X130750Y833736D02*Y827736D01*
X130000Y833736D02*X133000D01*
X133750Y832986D01*
Y831486D01*
X133000Y830736D02*X133750Y831486D01*
X130750Y830736D02*X133000D01*
X135550Y833736D02*Y828486D01*
X136300Y827736D01*
X140050Y830736D02*X140800Y829986D01*
X138550Y830736D02*X140050D01*
X137800Y829986D02*X138550Y830736D01*
X137800Y829986D02*Y828486D01*
X138550Y827736D01*
X140800Y830736D02*Y828486D01*
X141550Y827736D01*
X138550D02*X140050D01*
X140800Y828486D01*
X144100Y833736D02*Y828486D01*
X144850Y827736D01*
X143350Y831486D02*X144850D01*
X147100Y827736D02*X149350D01*
X146350Y828486D02*X147100Y827736D01*
X146350Y829986D02*Y828486D01*
Y829986D02*X147100Y830736D01*
X148600D01*
X149350Y829986D01*
X146350Y829236D02*X149350D01*
Y829986D02*Y829236D01*
X154150Y833736D02*Y827736D01*
X153400D02*X154150Y828486D01*
X151900Y827736D02*X153400D01*
X151150Y828486D02*X151900Y827736D01*
X151150Y829986D02*Y828486D01*
Y829986D02*X151900Y830736D01*
X153400D01*
X154150Y829986D01*
X157450Y830736D02*Y829986D01*
Y828486D02*Y827736D01*
X155950Y832986D02*Y832236D01*
Y832986D02*X156700Y833736D01*
X158200D01*
X158950Y832986D01*
Y832236D01*
X157450Y830736D02*X158950Y832236D01*
X130000Y824486D02*X160750D01*
X0Y848736D02*X3000D01*
X1500D02*Y842736D01*
X4800Y848736D02*Y842736D01*
Y844986D02*X5550Y845736D01*
X7050D01*
X7800Y844986D01*
Y842736D01*
X10350D02*X12600D01*
X9600Y843486D02*X10350Y842736D01*
X9600Y844986D02*Y843486D01*
Y844986D02*X10350Y845736D01*
X11850D01*
X12600Y844986D01*
X9600Y844236D02*X12600D01*
Y844986D02*Y844236D01*
X15150Y844986D02*Y842736D01*
Y844986D02*X15900Y845736D01*
X17400D01*
X14400D02*X15150Y844986D01*
X19950Y842736D02*X22200D01*
X19200Y843486D02*X19950Y842736D01*
X19200Y844986D02*Y843486D01*
Y844986D02*X19950Y845736D01*
X21450D01*
X22200Y844986D01*
X19200Y844236D02*X22200D01*
Y844986D02*Y844236D01*
X28950Y845736D02*X29700Y844986D01*
X27450Y845736D02*X28950D01*
X26700Y844986D02*X27450Y845736D01*
X26700Y844986D02*Y843486D01*
X27450Y842736D01*
X29700Y845736D02*Y843486D01*
X30450Y842736D01*
X27450D02*X28950D01*
X29700Y843486D01*
X33000Y844986D02*Y842736D01*
Y844986D02*X33750Y845736D01*
X35250D01*
X32250D02*X33000Y844986D01*
X37800Y842736D02*X40050D01*
X37050Y843486D02*X37800Y842736D01*
X37050Y844986D02*Y843486D01*
Y844986D02*X37800Y845736D01*
X39300D01*
X40050Y844986D01*
X37050Y844236D02*X40050D01*
Y844986D02*Y844236D01*
X44550Y847536D02*X45750Y848736D01*
Y842736D01*
X44550D02*X46800D01*
X48600Y847986D02*X49350Y848736D01*
X50850D01*
X51600Y847986D01*
X50850Y842736D02*X51600Y843486D01*
X49350Y842736D02*X50850D01*
X48600Y843486D02*X49350Y842736D01*
Y846036D02*X50850D01*
X51600Y847986D02*Y846786D01*
Y845286D02*Y843486D01*
Y845286D02*X50850Y846036D01*
X51600Y846786D02*X50850Y846036D01*
X59100Y848736D02*Y842736D01*
X58350D02*X59100Y843486D01*
X56850Y842736D02*X58350D01*
X56100Y843486D02*X56850Y842736D01*
X56100Y844986D02*Y843486D01*
Y844986D02*X56850Y845736D01*
X58350D01*
X59100Y844986D01*
G54D189*X60900Y847236D02*Y847086D01*
G54D188*Y844986D02*Y842736D01*
X63150Y847986D02*Y842736D01*
Y847986D02*X63900Y848736D01*
X64650D01*
X62400Y845736D02*X63900D01*
X66900Y847986D02*Y842736D01*
Y847986D02*X67650Y848736D01*
X68400D01*
X66150Y845736D02*X67650D01*
X70650Y842736D02*X72900D01*
X69900Y843486D02*X70650Y842736D01*
X69900Y844986D02*Y843486D01*
Y844986D02*X70650Y845736D01*
X72150D01*
X72900Y844986D01*
X69900Y844236D02*X72900D01*
Y844986D02*Y844236D01*
X75450Y844986D02*Y842736D01*
Y844986D02*X76200Y845736D01*
X77700D01*
X74700D02*X75450Y844986D01*
X80250Y842736D02*X82500D01*
X79500Y843486D02*X80250Y842736D01*
X79500Y844986D02*Y843486D01*
Y844986D02*X80250Y845736D01*
X81750D01*
X82500Y844986D01*
X79500Y844236D02*X82500D01*
Y844986D02*Y844236D01*
X85050Y844986D02*Y842736D01*
Y844986D02*X85800Y845736D01*
X86550D01*
X87300Y844986D01*
Y842736D01*
X84300Y845736D02*X85050Y844986D01*
X89850Y848736D02*Y843486D01*
X90600Y842736D01*
X89100Y846486D02*X90600D01*
X97800Y848736D02*Y842736D01*
X97050D02*X97800Y843486D01*
X95550Y842736D02*X97050D01*
X94800Y843486D02*X95550Y842736D01*
X94800Y844986D02*Y843486D01*
Y844986D02*X95550Y845736D01*
X97050D01*
X97800Y844986D01*
X100350D02*Y842736D01*
Y844986D02*X101100Y845736D01*
X102600D01*
X99600D02*X100350Y844986D01*
G54D189*X104400Y847236D02*Y847086D01*
G54D188*Y844986D02*Y842736D01*
X105900Y848736D02*Y843486D01*
X106650Y842736D01*
X108150Y848736D02*Y843486D01*
X108900Y842736D01*
X113850D02*X116100D01*
X116850Y843486D01*
X116100Y844236D02*X116850Y843486D01*
X113850Y844236D02*X116100D01*
X113100Y844986D02*X113850Y844236D01*
X113100Y844986D02*X113850Y845736D01*
X116100D01*
X116850Y844986D01*
X113100Y843486D02*X113850Y842736D01*
G54D189*X118650Y847236D02*Y847086D01*
G54D188*Y844986D02*Y842736D01*
X120150Y845736D02*X123150D01*
X120150Y842736D02*X123150Y845736D01*
X120150Y842736D02*X123150D01*
X125700D02*X127950D01*
X124950Y843486D02*X125700Y842736D01*
X124950Y844986D02*Y843486D01*
Y844986D02*X125700Y845736D01*
X127200D01*
X127950Y844986D01*
X124950Y844236D02*X127950D01*
Y844986D02*Y844236D01*
X130500Y842736D02*X132750D01*
X133500Y843486D01*
X132750Y844236D02*X133500Y843486D01*
X130500Y844236D02*X132750D01*
X129750Y844986D02*X130500Y844236D01*
X129750Y844986D02*X130500Y845736D01*
X132750D01*
X133500Y844986D01*
X129750Y843486D02*X130500Y842736D01*
X138000Y845736D02*Y843486D01*
X138750Y842736D01*
X140250D01*
X141000Y843486D01*
Y845736D02*Y843486D01*
X143550Y842736D02*X145800D01*
X146550Y843486D01*
X145800Y844236D02*X146550Y843486D01*
X143550Y844236D02*X145800D01*
X142800Y844986D02*X143550Y844236D01*
X142800Y844986D02*X143550Y845736D01*
X145800D01*
X146550Y844986D01*
X142800Y843486D02*X143550Y842736D01*
X149100D02*X151350D01*
X148350Y843486D02*X149100Y842736D01*
X148350Y844986D02*Y843486D01*
Y844986D02*X149100Y845736D01*
X150600D01*
X151350Y844986D01*
X148350Y844236D02*X151350D01*
Y844986D02*Y844236D01*
X156150Y848736D02*Y842736D01*
X155400D02*X156150Y843486D01*
X153900Y842736D02*X155400D01*
X153150Y843486D02*X153900Y842736D01*
X153150Y844986D02*Y843486D01*
Y844986D02*X153900Y845736D01*
X155400D01*
X156150Y844986D01*
G54D189*X160650Y847236D02*Y847086D01*
G54D188*Y844986D02*Y842736D01*
X162900Y844986D02*Y842736D01*
Y844986D02*X163650Y845736D01*
X164400D01*
X165150Y844986D01*
Y842736D01*
X162150Y845736D02*X162900Y844986D01*
X170400Y848736D02*Y843486D01*
X171150Y842736D01*
X169650Y846486D02*X171150D01*
X172650Y848736D02*Y842736D01*
Y844986D02*X173400Y845736D01*
X174900D01*
X175650Y844986D01*
Y842736D01*
G54D189*X177450Y847236D02*Y847086D01*
G54D188*Y844986D02*Y842736D01*
X179700D02*X181950D01*
X182700Y843486D01*
X181950Y844236D02*X182700Y843486D01*
X179700Y844236D02*X181950D01*
X178950Y844986D02*X179700Y844236D01*
X178950Y844986D02*X179700Y845736D01*
X181950D01*
X182700Y844986D01*
X178950Y843486D02*X179700Y842736D01*
X187200Y848736D02*Y843486D01*
X187950Y842736D01*
X191700Y845736D02*X192450Y844986D01*
X190200Y845736D02*X191700D01*
X189450Y844986D02*X190200Y845736D01*
X189450Y844986D02*Y843486D01*
X190200Y842736D01*
X192450Y845736D02*Y843486D01*
X193200Y842736D01*
X190200D02*X191700D01*
X192450Y843486D01*
X195000Y845736D02*Y843486D01*
X195750Y842736D01*
X198000Y845736D02*Y841236D01*
X197250Y840486D02*X198000Y841236D01*
X195750Y840486D02*X197250D01*
X195000Y841236D02*X195750Y840486D01*
Y842736D02*X197250D01*
X198000Y843486D01*
X199800Y844986D02*Y843486D01*
Y844986D02*X200550Y845736D01*
X202050D01*
X202800Y844986D01*
Y843486D01*
X202050Y842736D02*X202800Y843486D01*
X200550Y842736D02*X202050D01*
X199800Y843486D02*X200550Y842736D01*
X204600Y845736D02*Y843486D01*
X205350Y842736D01*
X206850D01*
X207600Y843486D01*
Y845736D02*Y843486D01*
X210150Y848736D02*Y843486D01*
X210900Y842736D01*
X209400Y846486D02*X210900D01*
X212400Y841236D02*X213900Y842736D01*
X218400Y847536D02*X219600Y848736D01*
Y842736D01*
X218400D02*X220650D01*
X222450Y844986D02*X225450Y848736D01*
X222450Y844986D02*X226200D01*
X225450Y848736D02*Y842736D01*
X228000Y847986D02*X228750Y848736D01*
X231000D01*
X231750Y847986D01*
Y846486D01*
X228000Y842736D02*X231750Y846486D01*
X228000Y842736D02*X231750D01*
X233550Y847986D02*X234300Y848736D01*
X235800D01*
X236550Y847986D01*
X235800Y842736D02*X236550Y843486D01*
X234300Y842736D02*X235800D01*
X233550Y843486D02*X234300Y842736D01*
Y846036D02*X235800D01*
X236550Y847986D02*Y846786D01*
Y845286D02*Y843486D01*
Y845286D02*X235800Y846036D01*
X236550Y846786D02*X235800Y846036D01*
X241050Y848736D02*Y842736D01*
Y844986D02*X241800Y845736D01*
X243300D01*
X244050Y844986D01*
Y842736D01*
X245850Y844986D02*Y843486D01*
Y844986D02*X246600Y845736D01*
X248100D01*
X248850Y844986D01*
Y843486D01*
X248100Y842736D02*X248850Y843486D01*
X246600Y842736D02*X248100D01*
X245850Y843486D02*X246600Y842736D01*
X250650Y848736D02*Y843486D01*
X251400Y842736D01*
X253650D02*X255900D01*
X252900Y843486D02*X253650Y842736D01*
X252900Y844986D02*Y843486D01*
Y844986D02*X253650Y845736D01*
X255150D01*
X255900Y844986D01*
X252900Y844236D02*X255900D01*
Y844986D02*Y844236D01*
X258450Y842736D02*X260700D01*
X261450Y843486D01*
X260700Y844236D02*X261450Y843486D01*
X258450Y844236D02*X260700D01*
X257700Y844986D02*X258450Y844236D01*
X257700Y844986D02*X258450Y845736D01*
X260700D01*
X261450Y844986D01*
X257700Y843486D02*X258450Y842736D01*
X266700Y848736D02*Y843486D01*
X267450Y842736D01*
X265950Y846486D02*X267450D01*
X268950Y844986D02*Y843486D01*
Y844986D02*X269700Y845736D01*
X271200D01*
X271950Y844986D01*
Y843486D01*
X271200Y842736D02*X271950Y843486D01*
X269700Y842736D02*X271200D01*
X268950Y843486D02*X269700Y842736D01*
X274500Y848736D02*Y843486D01*
X275250Y842736D01*
X273750Y846486D02*X275250D01*
X279000Y845736D02*X279750Y844986D01*
X277500Y845736D02*X279000D01*
X276750Y844986D02*X277500Y845736D01*
X276750Y844986D02*Y843486D01*
X277500Y842736D01*
X279750Y845736D02*Y843486D01*
X280500Y842736D01*
X277500D02*X279000D01*
X279750Y843486D01*
X282300Y848736D02*Y843486D01*
X283050Y842736D01*
G54D190*X0Y610236D02*X560236D01*
X0D02*Y0D01*
X560236Y610236D02*Y0D01*
X0D02*X560236D01*
G54D188*X200000Y623736D02*Y617736D01*
Y623736D02*X202250Y620736D01*
X204500Y623736D01*
Y617736D01*
X208550Y620736D02*X209300Y619986D01*
X207050Y620736D02*X208550D01*
X206300Y619986D02*X207050Y620736D01*
X206300Y619986D02*Y618486D01*
X207050Y617736D01*
X209300Y620736D02*Y618486D01*
X210050Y617736D01*
X207050D02*X208550D01*
X209300Y618486D01*
X211850Y620736D02*X214850Y617736D01*
X211850D02*X214850Y620736D01*
G54D189*X216650Y622236D02*Y622086D01*
G54D188*Y619986D02*Y617736D01*
X218900Y619986D02*Y617736D01*
Y619986D02*X219650Y620736D01*
X220400D01*
X221150Y619986D01*
Y617736D01*
Y619986D02*X221900Y620736D01*
X222650D01*
X223400Y619986D01*
Y617736D01*
X218150Y620736D02*X218900Y619986D01*
X225200Y620736D02*Y618486D01*
X225950Y617736D01*
X227450D01*
X228200Y618486D01*
Y620736D02*Y618486D01*
X230750Y619986D02*Y617736D01*
Y619986D02*X231500Y620736D01*
X232250D01*
X233000Y619986D01*
Y617736D01*
Y619986D02*X233750Y620736D01*
X234500D01*
X235250Y619986D01*
Y617736D01*
X230000Y620736D02*X230750Y619986D01*
X240500Y623736D02*Y617736D01*
X242450Y623736D02*X243500Y622686D01*
Y618786D01*
X242450Y617736D02*X243500Y618786D01*
X239750Y617736D02*X242450D01*
X239750Y623736D02*X242450D01*
G54D189*X245300Y622236D02*Y622086D01*
G54D188*Y619986D02*Y617736D01*
X247550Y619986D02*Y617736D01*
Y619986D02*X248300Y620736D01*
X249050D01*
X249800Y619986D01*
Y617736D01*
Y619986D02*X250550Y620736D01*
X251300D01*
X252050Y619986D01*
Y617736D01*
X246800Y620736D02*X247550Y619986D01*
X254600Y617736D02*X256850D01*
X253850Y618486D02*X254600Y617736D01*
X253850Y619986D02*Y618486D01*
Y619986D02*X254600Y620736D01*
X256100D01*
X256850Y619986D01*
X253850Y619236D02*X256850D01*
Y619986D02*Y619236D01*
X259400Y619986D02*Y617736D01*
Y619986D02*X260150Y620736D01*
X260900D01*
X261650Y619986D01*
Y617736D01*
X258650Y620736D02*X259400Y619986D01*
X264200Y617736D02*X266450D01*
X267200Y618486D01*
X266450Y619236D02*X267200Y618486D01*
X264200Y619236D02*X266450D01*
X263450Y619986D02*X264200Y619236D01*
X263450Y619986D02*X264200Y620736D01*
X266450D01*
X267200Y619986D01*
X263450Y618486D02*X264200Y617736D01*
G54D189*X269000Y622236D02*Y622086D01*
G54D188*Y619986D02*Y617736D01*
X270500Y619986D02*Y618486D01*
Y619986D02*X271250Y620736D01*
X272750D01*
X273500Y619986D01*
Y618486D01*
X272750Y617736D02*X273500Y618486D01*
X271250Y617736D02*X272750D01*
X270500Y618486D02*X271250Y617736D01*
X276050Y619986D02*Y617736D01*
Y619986D02*X276800Y620736D01*
X277550D01*
X278300Y619986D01*
Y617736D01*
X275300Y620736D02*X276050Y619986D01*
X280850Y617736D02*X283100D01*
X283850Y618486D01*
X283100Y619236D02*X283850Y618486D01*
X280850Y619236D02*X283100D01*
X280100Y619986D02*X280850Y619236D01*
X280100Y619986D02*X280850Y620736D01*
X283100D01*
X283850Y619986D01*
X280100Y618486D02*X280850Y617736D01*
X285650Y621486D02*X286400D01*
X285650Y619986D02*X286400D01*
X290900Y623736D02*X293900D01*
X290900D02*Y620736D01*
X291650Y621486D01*
X293150D01*
X293900Y620736D01*
Y618486D01*
X293150Y617736D02*X293900Y618486D01*
X291650Y617736D02*X293150D01*
X290900Y618486D02*X291650Y617736D01*
X297950Y623736D02*X298700Y622986D01*
X296450Y623736D02*X297950D01*
X295700Y622986D02*X296450Y623736D01*
X295700Y622986D02*Y618486D01*
X296450Y617736D01*
X297950Y621036D02*X298700Y620286D01*
X295700Y621036D02*X297950D01*
X296450Y617736D02*X297950D01*
X298700Y618486D01*
Y620286D02*Y618486D01*
X300500D02*X301250Y617736D01*
X300500Y622986D02*Y618486D01*
Y622986D02*X301250Y623736D01*
X302750D01*
X303500Y622986D01*
Y618486D01*
X302750Y617736D02*X303500Y618486D01*
X301250Y617736D02*X302750D01*
X300500Y619236D02*X303500Y622236D01*
X305300Y622986D02*X306050Y623736D01*
X308300D01*
X309050Y622986D01*
Y621486D01*
X305300Y617736D02*X309050Y621486D01*
X305300Y617736D02*X309050D01*
X310850D02*X311600D01*
X313400Y622986D02*X314150Y623736D01*
X315650D01*
X316400Y622986D01*
X315650Y617736D02*X316400Y618486D01*
X314150Y617736D02*X315650D01*
X313400Y618486D02*X314150Y617736D01*
Y621036D02*X315650D01*
X316400Y622986D02*Y621786D01*
Y620286D02*Y618486D01*
Y620286D02*X315650Y621036D01*
X316400Y621786D02*X315650Y621036D01*
X320450Y623736D02*X321200Y622986D01*
X318950Y623736D02*X320450D01*
X318200Y622986D02*X318950Y623736D01*
X318200Y622986D02*Y618486D01*
X318950Y617736D01*
X320450Y621036D02*X321200Y620286D01*
X318200Y621036D02*X320450D01*
X318950Y617736D02*X320450D01*
X321200Y618486D01*
Y620286D02*Y618486D01*
X323000Y622986D02*X323750Y623736D01*
X326000D01*
X326750Y622986D01*
Y621486D01*
X323000Y617736D02*X326750Y621486D01*
X323000Y617736D02*X326750D01*
X328550Y622986D02*X329300Y623736D01*
X331550D01*
X332300Y622986D01*
Y621486D01*
X328550Y617736D02*X332300Y621486D01*
X328550Y617736D02*X332300D01*
X334100Y618486D02*X334850Y617736D01*
X334100Y622986D02*Y618486D01*
Y622986D02*X334850Y623736D01*
X336350D01*
X337100Y622986D01*
Y618486D01*
X336350Y617736D02*X337100Y618486D01*
X334850Y617736D02*X336350D01*
X334100Y619236D02*X337100Y622236D01*
X338900Y623736D02*X341900D01*
X338900D02*Y620736D01*
X339650Y621486D01*
X341150D01*
X341900Y620736D01*
Y618486D01*
X341150Y617736D02*X341900Y618486D01*
X339650Y617736D02*X341150D01*
X338900Y618486D02*X339650Y617736D01*
X347150Y619986D02*Y617736D01*
Y619986D02*X347900Y620736D01*
X348650D01*
X349400Y619986D01*
Y617736D01*
Y619986D02*X350150Y620736D01*
X350900D01*
X351650Y619986D01*
Y617736D01*
X346400Y620736D02*X347150Y619986D01*
G54D189*X353450Y622236D02*Y622086D01*
G54D188*Y619986D02*Y617736D01*
X354950Y623736D02*Y618486D01*
X355700Y617736D01*
X357950D02*X360200D01*
X360950Y618486D01*
X360200Y619236D02*X360950Y618486D01*
X357950Y619236D02*X360200D01*
X357200Y619986D02*X357950Y619236D01*
X357200Y619986D02*X357950Y620736D01*
X360200D01*
X360950Y619986D01*
X357200Y618486D02*X357950Y617736D01*
X365450Y620736D02*Y618486D01*
X366200Y617736D01*
X366950D01*
X367700Y618486D01*
Y620736D02*Y618486D01*
X368450Y617736D01*
X369200D01*
X369950Y618486D01*
Y620736D02*Y618486D01*
G54D189*X371750Y622236D02*Y622086D01*
G54D188*Y619986D02*Y617736D01*
X376250Y623736D02*Y617736D01*
X375500D02*X376250Y618486D01*
X374000Y617736D02*X375500D01*
X373250Y618486D02*X374000Y617736D01*
X373250Y619986D02*Y618486D01*
Y619986D02*X374000Y620736D01*
X375500D01*
X376250Y619986D01*
X378800Y617736D02*X381050D01*
X378050Y618486D02*X378800Y617736D01*
X378050Y619986D02*Y618486D01*
Y619986D02*X378800Y620736D01*
X380300D01*
X381050Y619986D01*
X378050Y619236D02*X381050D01*
Y619986D02*Y619236D01*
X382850Y616236D02*X384350Y617736D01*
X391100Y623736D02*X391850Y622986D01*
X389600Y623736D02*X391100D01*
X388850Y622986D02*X389600Y623736D01*
X388850Y622986D02*Y618486D01*
X389600Y617736D01*
X391100Y621036D02*X391850Y620286D01*
X388850Y621036D02*X391100D01*
X389600Y617736D02*X391100D01*
X391850Y618486D01*
Y620286D02*Y618486D01*
X393650Y622536D02*X394850Y623736D01*
Y617736D01*
X393650D02*X395900D01*
X397700Y618486D02*X398450Y617736D01*
X397700Y622986D02*Y618486D01*
Y622986D02*X398450Y623736D01*
X399950D01*
X400700Y622986D01*
Y618486D01*
X399950Y617736D02*X400700Y618486D01*
X398450Y617736D02*X399950D01*
X397700Y619236D02*X400700Y622236D01*
X402500Y622986D02*X403250Y623736D01*
X405500D01*
X406250Y622986D01*
Y621486D01*
X402500Y617736D02*X406250Y621486D01*
X402500Y617736D02*X406250D01*
X408050D02*X408800D01*
X410600Y622986D02*X411350Y623736D01*
X412850D01*
X413600Y622986D01*
X412850Y617736D02*X413600Y618486D01*
X411350Y617736D02*X412850D01*
X410600Y618486D02*X411350Y617736D01*
Y621036D02*X412850D01*
X413600Y622986D02*Y621786D01*
Y620286D02*Y618486D01*
Y620286D02*X412850Y621036D01*
X413600Y621786D02*X412850Y621036D01*
X417650Y623736D02*X418400Y622986D01*
X416150Y623736D02*X417650D01*
X415400Y622986D02*X416150Y623736D01*
X415400Y622986D02*Y618486D01*
X416150Y617736D01*
X417650Y621036D02*X418400Y620286D01*
X415400Y621036D02*X417650D01*
X416150Y617736D02*X417650D01*
X418400Y618486D01*
Y620286D02*Y618486D01*
X420200Y622986D02*X420950Y623736D01*
X423200D01*
X423950Y622986D01*
Y621486D01*
X420200Y617736D02*X423950Y621486D01*
X420200Y617736D02*X423950D01*
X425750Y622986D02*X426500Y623736D01*
X428750D01*
X429500Y622986D01*
Y621486D01*
X425750Y617736D02*X429500Y621486D01*
X425750Y617736D02*X429500D01*
X431300Y618486D02*X432050Y617736D01*
X431300Y622986D02*Y618486D01*
Y622986D02*X432050Y623736D01*
X433550D01*
X434300Y622986D01*
Y618486D01*
X433550Y617736D02*X434300Y618486D01*
X432050Y617736D02*X433550D01*
X431300Y619236D02*X434300Y622236D01*
X436100Y623736D02*X439100D01*
X436100D02*Y620736D01*
X436850Y621486D01*
X438350D01*
X439100Y620736D01*
Y618486D01*
X438350Y617736D02*X439100Y618486D01*
X436850Y617736D02*X438350D01*
X436100Y618486D02*X436850Y617736D01*
X444350Y619986D02*Y617736D01*
Y619986D02*X445100Y620736D01*
X445850D01*
X446600Y619986D01*
Y617736D01*
Y619986D02*X447350Y620736D01*
X448100D01*
X448850Y619986D01*
Y617736D01*
X443600Y620736D02*X444350Y619986D01*
G54D189*X450650Y622236D02*Y622086D01*
G54D188*Y619986D02*Y617736D01*
X452150Y623736D02*Y618486D01*
X452900Y617736D01*
X455150D02*X457400D01*
X458150Y618486D01*
X457400Y619236D02*X458150Y618486D01*
X455150Y619236D02*X457400D01*
X454400Y619986D02*X455150Y619236D01*
X454400Y619986D02*X455150Y620736D01*
X457400D01*
X458150Y619986D01*
X454400Y618486D02*X455150Y617736D01*
X462650Y623736D02*Y617736D01*
Y619986D02*X463400Y620736D01*
X464900D01*
X465650Y619986D01*
Y617736D01*
G54D189*X467450Y622236D02*Y622086D01*
G54D188*Y619986D02*Y617736D01*
X471200Y620736D02*X471950Y619986D01*
X469700Y620736D02*X471200D01*
X468950Y619986D02*X469700Y620736D01*
X468950Y619986D02*Y618486D01*
X469700Y617736D01*
X471200D01*
X471950Y618486D01*
X468950Y616236D02*X469700Y615486D01*
X471200D01*
X471950Y616236D01*
Y620736D02*Y616236D01*
X473750Y623736D02*Y617736D01*
Y619986D02*X474500Y620736D01*
X476000D01*
X476750Y619986D01*
Y617736D01*
X75518Y-9500D02*X78518D01*
X79268Y-8750D01*
Y-6950D02*Y-8750D01*
X78518Y-6200D02*X79268Y-6950D01*
X76268Y-6200D02*X78518D01*
X76268Y-3500D02*Y-9500D01*
X75518Y-3500D02*X78518D01*
X79268Y-4250D01*
Y-5450D01*
X78518Y-6200D02*X79268Y-5450D01*
X81068Y-7250D02*Y-8750D01*
Y-7250D02*X81818Y-6500D01*
X83318D01*
X84068Y-7250D01*
Y-8750D01*
X83318Y-9500D02*X84068Y-8750D01*
X81818Y-9500D02*X83318D01*
X81068Y-8750D02*X81818Y-9500D01*
X88118Y-6500D02*X88868Y-7250D01*
X86618Y-6500D02*X88118D01*
X85868Y-7250D02*X86618Y-6500D01*
X85868Y-7250D02*Y-8750D01*
X86618Y-9500D01*
X88868Y-6500D02*Y-8750D01*
X89618Y-9500D01*
X86618D02*X88118D01*
X88868Y-8750D01*
X92168Y-7250D02*Y-9500D01*
Y-7250D02*X92918Y-6500D01*
X94418D01*
X91418D02*X92168Y-7250D01*
X99218Y-3500D02*Y-9500D01*
X98468D02*X99218Y-8750D01*
X96968Y-9500D02*X98468D01*
X96218Y-8750D02*X96968Y-9500D01*
X96218Y-7250D02*Y-8750D01*
Y-7250D02*X96968Y-6500D01*
X98468D01*
X99218Y-7250D01*
X103718D02*Y-8750D01*
Y-7250D02*X104468Y-6500D01*
X105968D01*
X106718Y-7250D01*
Y-8750D01*
X105968Y-9500D02*X106718Y-8750D01*
X104468Y-9500D02*X105968D01*
X103718Y-8750D02*X104468Y-9500D01*
X108518Y-6500D02*Y-8750D01*
X109268Y-9500D01*
X110768D01*
X111518Y-8750D01*
Y-6500D02*Y-8750D01*
X114068Y-3500D02*Y-8750D01*
X114818Y-9500D01*
X113318Y-5750D02*X114818D01*
X116318Y-3500D02*Y-8750D01*
X117068Y-9500D01*
G54D189*X118568Y-5000D02*Y-5150D01*
G54D188*Y-7250D02*Y-9500D01*
X120818Y-7250D02*Y-9500D01*
Y-7250D02*X121568Y-6500D01*
X122318D01*
X123068Y-7250D01*
Y-9500D01*
X120068Y-6500D02*X120818Y-7250D01*
X125618Y-9500D02*X127868D01*
X124868Y-8750D02*X125618Y-9500D01*
X124868Y-7250D02*Y-8750D01*
Y-7250D02*X125618Y-6500D01*
X127118D01*
X127868Y-7250D01*
X124868Y-8000D02*X127868D01*
Y-7250D02*Y-8000D01*
G54D189*X132368Y-5000D02*Y-5150D01*
G54D188*Y-7250D02*Y-9500D01*
X134618D02*X136868D01*
X137618Y-8750D01*
X136868Y-8000D02*X137618Y-8750D01*
X134618Y-8000D02*X136868D01*
X133868Y-7250D02*X134618Y-8000D01*
X133868Y-7250D02*X134618Y-6500D01*
X136868D01*
X137618Y-7250D01*
X133868Y-8750D02*X134618Y-9500D01*
X142868Y-3500D02*Y-8750D01*
X143618Y-9500D01*
X142118Y-5750D02*X143618D01*
X145118Y-3500D02*Y-9500D01*
Y-7250D02*X145868Y-6500D01*
X147368D01*
X148118Y-7250D01*
Y-9500D01*
X150668D02*X152918D01*
X149918Y-8750D02*X150668Y-9500D01*
X149918Y-7250D02*Y-8750D01*
Y-7250D02*X150668Y-6500D01*
X152168D01*
X152918Y-7250D01*
X149918Y-8000D02*X152918D01*
Y-7250D02*Y-8000D01*
X158168Y-6500D02*X160418D01*
X157418Y-7250D02*X158168Y-6500D01*
X157418Y-7250D02*Y-8750D01*
X158168Y-9500D01*
X160418D01*
X162968D02*X165218D01*
X162218Y-8750D02*X162968Y-9500D01*
X162218Y-7250D02*Y-8750D01*
Y-7250D02*X162968Y-6500D01*
X164468D01*
X165218Y-7250D01*
X162218Y-8000D02*X165218D01*
Y-7250D02*Y-8000D01*
X167768Y-7250D02*Y-9500D01*
Y-7250D02*X168518Y-6500D01*
X169268D01*
X170018Y-7250D01*
Y-9500D01*
X167018Y-6500D02*X167768Y-7250D01*
X172568Y-3500D02*Y-8750D01*
X173318Y-9500D01*
X171818Y-5750D02*X173318D01*
X175568Y-9500D02*X177818D01*
X174818Y-8750D02*X175568Y-9500D01*
X174818Y-7250D02*Y-8750D01*
Y-7250D02*X175568Y-6500D01*
X177068D01*
X177818Y-7250D01*
X174818Y-8000D02*X177818D01*
Y-7250D02*Y-8000D01*
X180368Y-7250D02*Y-9500D01*
Y-7250D02*X181118Y-6500D01*
X182618D01*
X179618D02*X180368Y-7250D01*
X184418Y-3500D02*Y-8750D01*
X185168Y-9500D01*
G54D189*X186668Y-5000D02*Y-5150D01*
G54D188*Y-7250D02*Y-9500D01*
X188918Y-7250D02*Y-9500D01*
Y-7250D02*X189668Y-6500D01*
X190418D01*
X191168Y-7250D01*
Y-9500D01*
X188168Y-6500D02*X188918Y-7250D01*
X193718Y-9500D02*X195968D01*
X192968Y-8750D02*X193718Y-9500D01*
X192968Y-7250D02*Y-8750D01*
Y-7250D02*X193718Y-6500D01*
X195218D01*
X195968Y-7250D01*
X192968Y-8000D02*X195968D01*
Y-7250D02*Y-8000D01*
X200468Y-7250D02*Y-8750D01*
Y-7250D02*X201218Y-6500D01*
X202718D01*
X203468Y-7250D01*
Y-8750D01*
X202718Y-9500D02*X203468Y-8750D01*
X201218Y-9500D02*X202718D01*
X200468Y-8750D02*X201218Y-9500D01*
X206018Y-4250D02*Y-9500D01*
Y-4250D02*X206768Y-3500D01*
X207518D01*
X205268Y-6500D02*X206768D01*
X212468Y-3500D02*Y-8750D01*
X213218Y-9500D01*
X211718Y-5750D02*X213218D01*
X214718Y-3500D02*Y-9500D01*
Y-7250D02*X215468Y-6500D01*
X216968D01*
X217718Y-7250D01*
Y-9500D01*
G54D189*X219518Y-5000D02*Y-5150D01*
G54D188*Y-7250D02*Y-9500D01*
X221768D02*X224018D01*
X224768Y-8750D01*
X224018Y-8000D02*X224768Y-8750D01*
X221768Y-8000D02*X224018D01*
X221018Y-7250D02*X221768Y-8000D01*
X221018Y-7250D02*X221768Y-6500D01*
X224018D01*
X224768Y-7250D01*
X221018Y-8750D02*X221768Y-9500D01*
X229268Y-8750D02*X230018Y-9500D01*
X229268Y-7550D02*Y-8750D01*
Y-7550D02*X230318Y-6500D01*
X231218D01*
X232268Y-7550D01*
Y-8750D01*
X231518Y-9500D02*X232268Y-8750D01*
X230018Y-9500D02*X231518D01*
X229268Y-5450D02*X230318Y-6500D01*
X229268Y-4250D02*Y-5450D01*
Y-4250D02*X230018Y-3500D01*
X231518D01*
X232268Y-4250D01*
Y-5450D01*
X231218Y-6500D02*X232268Y-5450D01*
X234068Y-9500D02*X234818D01*
X236618Y-8750D02*X237368Y-9500D01*
X236618Y-4250D02*Y-8750D01*
Y-4250D02*X237368Y-3500D01*
X238868D01*
X239618Y-4250D01*
Y-8750D01*
X238868Y-9500D02*X239618Y-8750D01*
X237368Y-9500D02*X238868D01*
X236618Y-8000D02*X239618Y-5000D01*
X241418Y-8750D02*X242168Y-9500D01*
X241418Y-4250D02*Y-8750D01*
Y-4250D02*X242168Y-3500D01*
X243668D01*
X244418Y-4250D01*
Y-8750D01*
X243668Y-9500D02*X244418Y-8750D01*
X242168Y-9500D02*X243668D01*
X241418Y-8000D02*X244418Y-5000D01*
X246218Y-8750D02*X246968Y-9500D01*
X246218Y-4250D02*Y-8750D01*
Y-4250D02*X246968Y-3500D01*
X248468D01*
X249218Y-4250D01*
Y-8750D01*
X248468Y-9500D02*X249218Y-8750D01*
X246968Y-9500D02*X248468D01*
X246218Y-8000D02*X249218Y-5000D01*
X251018Y-8750D02*X251768Y-9500D01*
X251018Y-4250D02*Y-8750D01*
Y-4250D02*X251768Y-3500D01*
X253268D01*
X254018Y-4250D01*
Y-8750D01*
X253268Y-9500D02*X254018Y-8750D01*
X251768Y-9500D02*X253268D01*
X251018Y-8000D02*X254018Y-5000D01*
X255818Y-8750D02*X256568Y-9500D01*
X255818Y-4250D02*Y-8750D01*
Y-4250D02*X256568Y-3500D01*
X258068D01*
X258818Y-4250D01*
Y-8750D01*
X258068Y-9500D02*X258818Y-8750D01*
X256568Y-9500D02*X258068D01*
X255818Y-8000D02*X258818Y-5000D01*
X260618Y-8750D02*X261368Y-9500D01*
X260618Y-4250D02*Y-8750D01*
Y-4250D02*X261368Y-3500D01*
X262868D01*
X263618Y-4250D01*
Y-8750D01*
X262868Y-9500D02*X263618Y-8750D01*
X261368Y-9500D02*X262868D01*
X260618Y-8000D02*X263618Y-5000D01*
X268868Y-7250D02*Y-9500D01*
Y-7250D02*X269618Y-6500D01*
X270368D01*
X271118Y-7250D01*
Y-9500D01*
Y-7250D02*X271868Y-6500D01*
X272618D01*
X273368Y-7250D01*
Y-9500D01*
X268118Y-6500D02*X268868Y-7250D01*
G54D189*X275168Y-5000D02*Y-5150D01*
G54D188*Y-7250D02*Y-9500D01*
X276668Y-3500D02*Y-8750D01*
X277418Y-9500D01*
X282368Y-7250D02*Y-9500D01*
Y-7250D02*X283118Y-6500D01*
X284618D01*
X281618D02*X282368Y-7250D01*
X287168Y-9500D02*X289418D01*
X286418Y-8750D02*X287168Y-9500D01*
X286418Y-7250D02*Y-8750D01*
Y-7250D02*X287168Y-6500D01*
X288668D01*
X289418Y-7250D01*
X286418Y-8000D02*X289418D01*
Y-7250D02*Y-8000D01*
X291968Y-6500D02*X294218D01*
X291218Y-7250D02*X291968Y-6500D01*
X291218Y-7250D02*Y-8750D01*
X291968Y-9500D01*
X294218D01*
X296768Y-3500D02*Y-8750D01*
X297518Y-9500D01*
X296018Y-5750D02*X297518D01*
X301268Y-6500D02*X302018Y-7250D01*
X299768Y-6500D02*X301268D01*
X299018Y-7250D02*X299768Y-6500D01*
X299018Y-7250D02*Y-8750D01*
X299768Y-9500D01*
X302018Y-6500D02*Y-8750D01*
X302768Y-9500D01*
X299768D02*X301268D01*
X302018Y-8750D01*
X305318Y-7250D02*Y-9500D01*
Y-7250D02*X306068Y-6500D01*
X306818D01*
X307568Y-7250D01*
Y-9500D01*
X304568Y-6500D02*X305318Y-7250D01*
X311618Y-6500D02*X312368Y-7250D01*
X310118Y-6500D02*X311618D01*
X309368Y-7250D02*X310118Y-6500D01*
X309368Y-7250D02*Y-8750D01*
X310118Y-9500D01*
X311618D01*
X312368Y-8750D01*
X309368Y-11000D02*X310118Y-11750D01*
X311618D01*
X312368Y-11000D01*
Y-6500D02*Y-11000D01*
X314168Y-3500D02*Y-8750D01*
X314918Y-9500D01*
X317168D02*X319418D01*
X316418Y-8750D02*X317168Y-9500D01*
X316418Y-7250D02*Y-8750D01*
Y-7250D02*X317168Y-6500D01*
X318668D01*
X319418Y-7250D01*
X316418Y-8000D02*X319418D01*
Y-7250D02*Y-8000D01*
X323918Y-6500D02*X326918D01*
X331418Y-8750D02*X332168Y-9500D01*
X331418Y-4250D02*Y-8750D01*
Y-4250D02*X332168Y-3500D01*
X333668D01*
X334418Y-4250D01*
Y-8750D01*
X333668Y-9500D02*X334418Y-8750D01*
X332168Y-9500D02*X333668D01*
X331418Y-8000D02*X334418Y-5000D01*
X336218Y-11000D02*X337718Y-9500D01*
X339518Y-8750D02*X340268Y-9500D01*
X339518Y-4250D02*Y-8750D01*
Y-4250D02*X340268Y-3500D01*
X341768D01*
X342518Y-4250D01*
Y-8750D01*
X341768Y-9500D02*X342518Y-8750D01*
X340268Y-9500D02*X341768D01*
X339518Y-8000D02*X342518Y-5000D01*
X347768Y-3500D02*Y-8750D01*
X348518Y-9500D01*
X347018Y-5750D02*X348518D01*
X350018Y-7250D02*Y-8750D01*
Y-7250D02*X350768Y-6500D01*
X352268D01*
X353018Y-7250D01*
Y-8750D01*
X352268Y-9500D02*X353018Y-8750D01*
X350768Y-9500D02*X352268D01*
X350018Y-8750D02*X350768Y-9500D01*
X357518Y-3500D02*X360518D01*
X357518D02*Y-6500D01*
X358268Y-5750D01*
X359768D01*
X360518Y-6500D01*
Y-8750D01*
X359768Y-9500D02*X360518Y-8750D01*
X358268Y-9500D02*X359768D01*
X357518Y-8750D02*X358268Y-9500D01*
X364568Y-3500D02*X365318Y-4250D01*
X363068Y-3500D02*X364568D01*
X362318Y-4250D02*X363068Y-3500D01*
X362318Y-4250D02*Y-8750D01*
X363068Y-9500D01*
X364568Y-6200D02*X365318Y-6950D01*
X362318Y-6200D02*X364568D01*
X363068Y-9500D02*X364568D01*
X365318Y-8750D01*
Y-6950D02*Y-8750D01*
X367118D02*X367868Y-9500D01*
X367118Y-4250D02*Y-8750D01*
Y-4250D02*X367868Y-3500D01*
X369368D01*
X370118Y-4250D01*
Y-8750D01*
X369368Y-9500D02*X370118Y-8750D01*
X367868Y-9500D02*X369368D01*
X367118Y-8000D02*X370118Y-5000D01*
X371918Y-4250D02*X372668Y-3500D01*
X374918D01*
X375668Y-4250D01*
Y-5750D01*
X371918Y-9500D02*X375668Y-5750D01*
X371918Y-9500D02*X375668D01*
X377468D02*X378218D01*
X380018Y-4250D02*X380768Y-3500D01*
X382268D01*
X383018Y-4250D01*
X382268Y-9500D02*X383018Y-8750D01*
X380768Y-9500D02*X382268D01*
X380018Y-8750D02*X380768Y-9500D01*
Y-6200D02*X382268D01*
X383018Y-4250D02*Y-5450D01*
Y-6950D02*Y-8750D01*
Y-6950D02*X382268Y-6200D01*
X383018Y-5450D02*X382268Y-6200D01*
X387068Y-3500D02*X387818Y-4250D01*
X385568Y-3500D02*X387068D01*
X384818Y-4250D02*X385568Y-3500D01*
X384818Y-4250D02*Y-8750D01*
X385568Y-9500D01*
X387068Y-6200D02*X387818Y-6950D01*
X384818Y-6200D02*X387068D01*
X385568Y-9500D02*X387068D01*
X387818Y-8750D01*
Y-6950D02*Y-8750D01*
X389618Y-4250D02*X390368Y-3500D01*
X392618D01*
X393368Y-4250D01*
Y-5750D01*
X389618Y-9500D02*X393368Y-5750D01*
X389618Y-9500D02*X393368D01*
X395168Y-4250D02*X395918Y-3500D01*
X398168D01*
X398918Y-4250D01*
Y-5750D01*
X395168Y-9500D02*X398918Y-5750D01*
X395168Y-9500D02*X398918D01*
X400718Y-8750D02*X401468Y-9500D01*
X400718Y-4250D02*Y-8750D01*
Y-4250D02*X401468Y-3500D01*
X402968D01*
X403718Y-4250D01*
Y-8750D01*
X402968Y-9500D02*X403718Y-8750D01*
X401468Y-9500D02*X402968D01*
X400718Y-8000D02*X403718Y-5000D01*
X405518Y-3500D02*X408518D01*
X405518D02*Y-6500D01*
X406268Y-5750D01*
X407768D01*
X408518Y-6500D01*
Y-8750D01*
X407768Y-9500D02*X408518Y-8750D01*
X406268Y-9500D02*X407768D01*
X405518Y-8750D02*X406268Y-9500D01*
X410318Y-11000D02*X411818Y-9500D01*
X415868Y-3500D02*X416618Y-4250D01*
X414368Y-3500D02*X415868D01*
X413618Y-4250D02*X414368Y-3500D01*
X413618Y-4250D02*Y-8750D01*
X414368Y-9500D01*
X415868Y-6200D02*X416618Y-6950D01*
X413618Y-6200D02*X415868D01*
X414368Y-9500D02*X415868D01*
X416618Y-8750D01*
Y-6950D02*Y-8750D01*
X418418Y-4700D02*X419618Y-3500D01*
Y-9500D01*
X418418D02*X420668D01*
X422468Y-8750D02*X423218Y-9500D01*
X422468Y-4250D02*Y-8750D01*
Y-4250D02*X423218Y-3500D01*
X424718D01*
X425468Y-4250D01*
Y-8750D01*
X424718Y-9500D02*X425468Y-8750D01*
X423218Y-9500D02*X424718D01*
X422468Y-8000D02*X425468Y-5000D01*
X427268Y-4250D02*X428018Y-3500D01*
X430268D01*
X431018Y-4250D01*
Y-5750D01*
X427268Y-9500D02*X431018Y-5750D01*
X427268Y-9500D02*X431018D01*
X432818D02*X433568D01*
X435368Y-4250D02*X436118Y-3500D01*
X437618D01*
X438368Y-4250D01*
X437618Y-9500D02*X438368Y-8750D01*
X436118Y-9500D02*X437618D01*
X435368Y-8750D02*X436118Y-9500D01*
Y-6200D02*X437618D01*
X438368Y-4250D02*Y-5450D01*
Y-6950D02*Y-8750D01*
Y-6950D02*X437618Y-6200D01*
X438368Y-5450D02*X437618Y-6200D01*
X442418Y-3500D02*X443168Y-4250D01*
X440918Y-3500D02*X442418D01*
X440168Y-4250D02*X440918Y-3500D01*
X440168Y-4250D02*Y-8750D01*
X440918Y-9500D01*
X442418Y-6200D02*X443168Y-6950D01*
X440168Y-6200D02*X442418D01*
X440918Y-9500D02*X442418D01*
X443168Y-8750D01*
Y-6950D02*Y-8750D01*
X444968Y-4250D02*X445718Y-3500D01*
X447968D01*
X448718Y-4250D01*
Y-5750D01*
X444968Y-9500D02*X448718Y-5750D01*
X444968Y-9500D02*X448718D01*
X450518Y-4250D02*X451268Y-3500D01*
X453518D01*
X454268Y-4250D01*
Y-5750D01*
X450518Y-9500D02*X454268Y-5750D01*
X450518Y-9500D02*X454268D01*
X456068Y-8750D02*X456818Y-9500D01*
X456068Y-4250D02*Y-8750D01*
Y-4250D02*X456818Y-3500D01*
X458318D01*
X459068Y-4250D01*
Y-8750D01*
X458318Y-9500D02*X459068Y-8750D01*
X456818Y-9500D02*X458318D01*
X456068Y-8000D02*X459068Y-5000D01*
X460868Y-3500D02*X463868D01*
X460868D02*Y-6500D01*
X461618Y-5750D01*
X463118D01*
X463868Y-6500D01*
Y-8750D01*
X463118Y-9500D02*X463868Y-8750D01*
X461618Y-9500D02*X463118D01*
X460868Y-8750D02*X461618Y-9500D01*
X469118Y-7250D02*Y-9500D01*
Y-7250D02*X469868Y-6500D01*
X470618D01*
X471368Y-7250D01*
Y-9500D01*
Y-7250D02*X472118Y-6500D01*
X472868D01*
X473618Y-7250D01*
Y-9500D01*
X468368Y-6500D02*X469118Y-7250D01*
G54D189*X475418Y-5000D02*Y-5150D01*
G54D188*Y-7250D02*Y-9500D01*
X476918Y-3500D02*Y-8750D01*
X477668Y-9500D01*
X479918D02*X482168D01*
X482918Y-8750D01*
X482168Y-8000D02*X482918Y-8750D01*
X479918Y-8000D02*X482168D01*
X479168Y-7250D02*X479918Y-8000D01*
X479168Y-7250D02*X479918Y-6500D01*
X482168D01*
X482918Y-7250D01*
X479168Y-8750D02*X479918Y-9500D01*
X200750Y638736D02*Y632736D01*
X202700Y638736D02*X203750Y637686D01*
Y633786D01*
X202700Y632736D02*X203750Y633786D01*
X200000Y632736D02*X202700D01*
X200000Y638736D02*X202700D01*
X207800Y635736D02*X208550Y634986D01*
X206300Y635736D02*X207800D01*
X205550Y634986D02*X206300Y635736D01*
X205550Y634986D02*Y633486D01*
X206300Y632736D01*
X208550Y635736D02*Y633486D01*
X209300Y632736D01*
X206300D02*X207800D01*
X208550Y633486D01*
X211850Y638736D02*Y633486D01*
X212600Y632736D01*
X211100Y636486D02*X212600D01*
X214850Y632736D02*X217100D01*
X214100Y633486D02*X214850Y632736D01*
X214100Y634986D02*Y633486D01*
Y634986D02*X214850Y635736D01*
X216350D01*
X217100Y634986D01*
X214100Y634236D02*X217100D01*
Y634986D02*Y634236D01*
X218900Y636486D02*X219650D01*
X218900Y634986D02*X219650D01*
X224150Y638736D02*Y632736D01*
Y638736D02*X227150D01*
X224150Y636036D02*X226400D01*
X229700Y634986D02*Y632736D01*
Y634986D02*X230450Y635736D01*
X231950D01*
X228950D02*X229700Y634986D01*
G54D189*X233750Y637236D02*Y637086D01*
G54D188*Y634986D02*Y632736D01*
X240950Y638736D02*X241700Y637986D01*
X238700Y638736D02*X240950D01*
X237950Y637986D02*X238700Y638736D01*
X237950Y637986D02*Y636486D01*
X238700Y635736D01*
X240950D01*
X241700Y634986D01*
Y633486D01*
X240950Y632736D02*X241700Y633486D01*
X238700Y632736D02*X240950D01*
X237950Y633486D02*X238700Y632736D01*
X244250D02*X246500D01*
X243500Y633486D02*X244250Y632736D01*
X243500Y634986D02*Y633486D01*
Y634986D02*X244250Y635736D01*
X245750D01*
X246500Y634986D01*
X243500Y634236D02*X246500D01*
Y634986D02*Y634236D01*
X249050Y634986D02*Y630486D01*
X248300Y635736D02*X249050Y634986D01*
X249800Y635736D01*
X251300D01*
X252050Y634986D01*
Y633486D01*
X251300Y632736D02*X252050Y633486D01*
X249800Y632736D02*X251300D01*
X249050Y633486D02*X249800Y632736D01*
X256550Y637986D02*X257300Y638736D01*
X259550D01*
X260300Y637986D01*
Y636486D01*
X256550Y632736D02*X260300Y636486D01*
X256550Y632736D02*X260300D01*
X262100Y633486D02*X262850Y632736D01*
X262100Y637986D02*Y633486D01*
Y637986D02*X262850Y638736D01*
X264350D01*
X265100Y637986D01*
Y633486D01*
X264350Y632736D02*X265100Y633486D01*
X262850Y632736D02*X264350D01*
X262100Y634236D02*X265100Y637236D01*
X269600Y633486D02*X270350Y632736D01*
X269600Y637986D02*Y633486D01*
Y637986D02*X270350Y638736D01*
X271850D01*
X272600Y637986D01*
Y633486D01*
X271850Y632736D02*X272600Y633486D01*
X270350Y632736D02*X271850D01*
X269600Y634236D02*X272600Y637236D01*
X274400Y637986D02*X275150Y638736D01*
X277400D01*
X278150Y637986D01*
Y636486D01*
X274400Y632736D02*X278150Y636486D01*
X274400Y632736D02*X278150D01*
X279950Y636486D02*X280700D01*
X279950Y634986D02*X280700D01*
X282500D02*X285500Y638736D01*
X282500Y634986D02*X286250D01*
X285500Y638736D02*Y632736D01*
X288800D02*X291800Y638736D01*
X288050D02*X291800D01*
X293600Y636486D02*X294350D01*
X293600Y634986D02*X294350D01*
X296150Y637986D02*X296900Y638736D01*
X298400D01*
X299150Y637986D01*
X298400Y632736D02*X299150Y633486D01*
X296900Y632736D02*X298400D01*
X296150Y633486D02*X296900Y632736D01*
Y636036D02*X298400D01*
X299150Y637986D02*Y636786D01*
Y635286D02*Y633486D01*
Y635286D02*X298400Y636036D01*
X299150Y636786D02*X298400Y636036D01*
X300950Y634986D02*X303950Y638736D01*
X300950Y634986D02*X304700D01*
X303950Y638736D02*Y632736D01*
X309200Y637986D02*X309950Y638736D01*
X312200D01*
X312950Y637986D01*
Y636486D01*
X309200Y632736D02*X312950Y636486D01*
X309200Y632736D02*X312950D01*
X314750Y633486D02*X315500Y632736D01*
X314750Y637986D02*Y633486D01*
Y637986D02*X315500Y638736D01*
X317000D01*
X317750Y637986D01*
Y633486D01*
X317000Y632736D02*X317750Y633486D01*
X315500Y632736D02*X317000D01*
X314750Y634236D02*X317750Y637236D01*
X319550Y637536D02*X320750Y638736D01*
Y632736D01*
X319550D02*X321800D01*
X324350D02*X326600Y635736D01*
Y637986D02*Y635736D01*
X325850Y638736D02*X326600Y637986D01*
X324350Y638736D02*X325850D01*
X323600Y637986D02*X324350Y638736D01*
X323600Y637986D02*Y636486D01*
X324350Y635736D01*
X326600D01*
X331100Y638736D02*Y633486D01*
X331850Y632736D01*
X333350D01*
X334100Y633486D01*
Y638736D02*Y633486D01*
X335900Y638736D02*X338900D01*
X337400D02*Y632736D01*
X341750D02*X343700D01*
X340700Y633786D02*X341750Y632736D01*
X340700Y637686D02*Y633786D01*
Y637686D02*X341750Y638736D01*
X343700D01*
X200000Y652236D02*Y647736D01*
Y652236D02*X201050Y653736D01*
X202700D01*
X203750Y652236D01*
Y647736D01*
X200000Y650736D02*X203750D01*
X205550D02*Y648486D01*
X206300Y647736D01*
X207800D01*
X208550Y648486D01*
Y650736D02*Y648486D01*
X211100Y653736D02*Y648486D01*
X211850Y647736D01*
X210350Y651486D02*X211850D01*
X213350Y653736D02*Y647736D01*
Y649986D02*X214100Y650736D01*
X215600D01*
X216350Y649986D01*
Y647736D01*
X218150Y649986D02*Y648486D01*
Y649986D02*X218900Y650736D01*
X220400D01*
X221150Y649986D01*
Y648486D01*
X220400Y647736D02*X221150Y648486D01*
X218900Y647736D02*X220400D01*
X218150Y648486D02*X218900Y647736D01*
X223700Y649986D02*Y647736D01*
Y649986D02*X224450Y650736D01*
X225950D01*
X222950D02*X223700Y649986D01*
X227750Y651486D02*X228500D01*
X227750Y649986D02*X228500D01*
X233750Y653736D02*Y647736D01*
X235700Y653736D02*X236750Y652686D01*
Y648786D01*
X235700Y647736D02*X236750Y648786D01*
X233000Y647736D02*X235700D01*
X233000Y653736D02*X235700D01*
X238550Y649986D02*Y648486D01*
Y649986D02*X239300Y650736D01*
X240800D01*
X241550Y649986D01*
Y648486D01*
X240800Y647736D02*X241550Y648486D01*
X239300Y647736D02*X240800D01*
X238550Y648486D02*X239300Y647736D01*
X243350Y650736D02*Y648486D01*
X244100Y647736D01*
X245600D01*
X246350Y648486D01*
Y650736D02*Y648486D01*
X250400Y650736D02*X251150Y649986D01*
X248900Y650736D02*X250400D01*
X248150Y649986D02*X248900Y650736D01*
X248150Y649986D02*Y648486D01*
X248900Y647736D01*
X250400D01*
X251150Y648486D01*
X248150Y646236D02*X248900Y645486D01*
X250400D01*
X251150Y646236D01*
Y650736D02*Y646236D01*
X256700Y647736D02*X258650D01*
X255650Y648786D02*X256700Y647736D01*
X255650Y652686D02*Y648786D01*
Y652686D02*X256700Y653736D01*
X258650D01*
X260450Y649986D02*Y648486D01*
Y649986D02*X261200Y650736D01*
X262700D01*
X263450Y649986D01*
Y648486D01*
X262700Y647736D02*X263450Y648486D01*
X261200Y647736D02*X262700D01*
X260450Y648486D02*X261200Y647736D01*
X266000Y652986D02*Y647736D01*
Y652986D02*X266750Y653736D01*
X267500D01*
X265250Y650736D02*X266750D01*
X269750Y652986D02*Y647736D01*
Y652986D02*X270500Y653736D01*
X271250D01*
X269000Y650736D02*X270500D01*
X272750Y653736D02*Y648486D01*
X273500Y647736D01*
X277250Y650736D02*X278000Y649986D01*
X275750Y650736D02*X277250D01*
X275000Y649986D02*X275750Y650736D01*
X275000Y649986D02*Y648486D01*
X275750Y647736D01*
X278000Y650736D02*Y648486D01*
X278750Y647736D01*
X275750D02*X277250D01*
X278000Y648486D01*
X281300Y649986D02*Y647736D01*
Y649986D02*X282050Y650736D01*
X282800D01*
X283550Y649986D01*
Y647736D01*
X280550Y650736D02*X281300Y649986D01*
X288350Y653736D02*Y647736D01*
X287600D02*X288350Y648486D01*
X286100Y647736D02*X287600D01*
X285350Y648486D02*X286100Y647736D01*
X285350Y649986D02*Y648486D01*
Y649986D02*X286100Y650736D01*
X287600D01*
X288350Y649986D01*
X200000Y668736D02*X203000D01*
X201500D02*Y662736D01*
G54D189*X204800Y667236D02*Y667086D01*
G54D188*Y664986D02*Y662736D01*
X207050Y668736D02*Y663486D01*
X207800Y662736D01*
X206300Y666486D02*X207800D01*
X209300Y668736D02*Y663486D01*
X210050Y662736D01*
X212300D02*X214550D01*
X211550Y663486D02*X212300Y662736D01*
X211550Y664986D02*Y663486D01*
Y664986D02*X212300Y665736D01*
X213800D01*
X214550Y664986D01*
X211550Y664236D02*X214550D01*
Y664986D02*Y664236D01*
X216350Y666486D02*X217100D01*
X216350Y664986D02*X217100D01*
X221600Y663486D02*X222350Y662736D01*
X221600Y667986D02*X222350Y668736D01*
X221600Y667986D02*Y663486D01*
X224150Y665736D02*Y663486D01*
X224900Y662736D01*
X226400D01*
X227150Y663486D01*
Y665736D02*Y663486D01*
X229700Y664986D02*Y662736D01*
Y664986D02*X230450Y665736D01*
X231200D01*
X231950Y664986D01*
Y662736D01*
X228950Y665736D02*X229700Y664986D01*
X233750Y668736D02*Y662736D01*
Y664986D02*X236000Y662736D01*
X233750Y664986D02*X235250Y666486D01*
X238550Y664986D02*Y662736D01*
Y664986D02*X239300Y665736D01*
X240050D01*
X240800Y664986D01*
Y662736D01*
X237800Y665736D02*X238550Y664986D01*
X242600D02*Y663486D01*
Y664986D02*X243350Y665736D01*
X244850D01*
X245600Y664986D01*
Y663486D01*
X244850Y662736D02*X245600Y663486D01*
X243350Y662736D02*X244850D01*
X242600Y663486D02*X243350Y662736D01*
X247400Y665736D02*Y663486D01*
X248150Y662736D01*
X248900D01*
X249650Y663486D01*
Y665736D02*Y663486D01*
X250400Y662736D01*
X251150D01*
X251900Y663486D01*
Y665736D02*Y663486D01*
X254450Y664986D02*Y662736D01*
Y664986D02*X255200Y665736D01*
X255950D01*
X256700Y664986D01*
Y662736D01*
X253700Y665736D02*X254450Y664986D01*
X258500Y668736D02*X259250Y667986D01*
Y663486D01*
X258500Y662736D02*X259250Y663486D01*
X263750Y665736D02*X266750D01*
X271250Y668736D02*Y662736D01*
Y668736D02*X274250D01*
X271250Y666036D02*X273500D01*
X278300Y665736D02*X279050Y664986D01*
X276800Y665736D02*X278300D01*
X276050Y664986D02*X276800Y665736D01*
X276050Y664986D02*Y663486D01*
X276800Y662736D01*
X279050Y665736D02*Y663486D01*
X279800Y662736D01*
X276800D02*X278300D01*
X279050Y663486D01*
X281600Y668736D02*Y662736D01*
Y663486D02*X282350Y662736D01*
X283850D01*
X284600Y663486D01*
Y664986D02*Y663486D01*
X283850Y665736D02*X284600Y664986D01*
X282350Y665736D02*X283850D01*
X281600Y664986D02*X282350Y665736D01*
X287150Y664986D02*Y662736D01*
Y664986D02*X287900Y665736D01*
X289400D01*
X286400D02*X287150Y664986D01*
G54D189*X291200Y667236D02*Y667086D01*
G54D188*Y664986D02*Y662736D01*
X293450Y665736D02*X295700D01*
X292700Y664986D02*X293450Y665736D01*
X292700Y664986D02*Y663486D01*
X293450Y662736D01*
X295700D01*
X299750Y665736D02*X300500Y664986D01*
X298250Y665736D02*X299750D01*
X297500Y664986D02*X298250Y665736D01*
X297500Y664986D02*Y663486D01*
X298250Y662736D01*
X300500Y665736D02*Y663486D01*
X301250Y662736D01*
X298250D02*X299750D01*
X300500Y663486D01*
X303800Y668736D02*Y663486D01*
X304550Y662736D01*
X303050Y666486D02*X304550D01*
G54D189*X306050Y667236D02*Y667086D01*
G54D188*Y664986D02*Y662736D01*
X307550Y664986D02*Y663486D01*
Y664986D02*X308300Y665736D01*
X309800D01*
X310550Y664986D01*
Y663486D01*
X309800Y662736D02*X310550Y663486D01*
X308300Y662736D02*X309800D01*
X307550Y663486D02*X308300Y662736D01*
X313100Y664986D02*Y662736D01*
Y664986D02*X313850Y665736D01*
X314600D01*
X315350Y664986D01*
Y662736D01*
X312350Y665736D02*X313100Y664986D01*
X320600Y668736D02*Y662736D01*
X322550Y668736D02*X323600Y667686D01*
Y663786D01*
X322550Y662736D02*X323600Y663786D01*
X319850Y662736D02*X322550D01*
X319850Y668736D02*X322550D01*
X326150Y664986D02*Y662736D01*
Y664986D02*X326900Y665736D01*
X328400D01*
X325400D02*X326150Y664986D01*
X332450Y665736D02*X333200Y664986D01*
X330950Y665736D02*X332450D01*
X330200Y664986D02*X330950Y665736D01*
X330200Y664986D02*Y663486D01*
X330950Y662736D01*
X333200Y665736D02*Y663486D01*
X333950Y662736D01*
X330950D02*X332450D01*
X333200Y663486D01*
X335750Y665736D02*Y663486D01*
X336500Y662736D01*
X337250D01*
X338000Y663486D01*
Y665736D02*Y663486D01*
X338750Y662736D01*
X339500D01*
X340250Y663486D01*
Y665736D02*Y663486D01*
G54D189*X342050Y667236D02*Y667086D01*
G54D188*Y664986D02*Y662736D01*
X344300Y664986D02*Y662736D01*
Y664986D02*X345050Y665736D01*
X345800D01*
X346550Y664986D01*
Y662736D01*
X343550Y665736D02*X344300Y664986D01*
X350600Y665736D02*X351350Y664986D01*
X349100Y665736D02*X350600D01*
X348350Y664986D02*X349100Y665736D01*
X348350Y664986D02*Y663486D01*
X349100Y662736D01*
X350600D01*
X351350Y663486D01*
X348350Y661236D02*X349100Y660486D01*
X350600D01*
X351350Y661236D01*
Y665736D02*Y661236D01*
M02*
