G04 start of page 5 for group 3 idx 3 *
G04 Title: (unknown), bottom *
G04 Creator: pcb 4.2.0 *
G04 CreationDate: Fri Sep 20 02:47:34 2019 UTC *
G04 For: doug *
G04 Format: Gerber/RS-274X *
G04 PCB-Dimensions (mil): 5602.36 6102.36 *
G04 PCB-Coordinate-Origin: lower left *
%MOIN*%
%FSLAX25Y25*%
%LNBOTTOM*%
%ADD112C,0.0709*%
%ADD111C,0.0402*%
%ADD110C,0.1181*%
%ADD109C,0.0429*%
%ADD108C,0.1201*%
%ADD107C,0.0276*%
%ADD106C,0.0400*%
%ADD105C,0.0380*%
%ADD104C,0.1280*%
%ADD103C,0.0591*%
%ADD102C,0.0350*%
%ADD101C,0.0200*%
%ADD100C,0.0090*%
%ADD99C,0.0210*%
%ADD98C,0.0360*%
%ADD97C,0.0270*%
%ADD96C,0.2441*%
%ADD95C,0.0945*%
%ADD94C,0.0787*%
%ADD93C,0.2178*%
%ADD92C,0.0472*%
%ADD91C,0.0600*%
%ADD90C,0.0800*%
%ADD89C,0.0250*%
%ADD88C,0.0100*%
%ADD87C,0.0001*%
G54D87*G36*
X277712Y123031D02*X290354D01*
Y83661D01*
X276575D01*
Y121894D01*
X277712Y123031D01*
G37*
G36*
X440941Y132432D02*X479898Y171390D01*
X480053Y171522D01*
X480348Y171867D01*
X480314Y171728D01*
X480277Y171260D01*
X480314Y170792D01*
X480424Y170336D01*
X480603Y169902D01*
X480849Y169502D01*
X481153Y169145D01*
X481510Y168841D01*
X481910Y168595D01*
X482344Y168416D01*
X482800Y168306D01*
X483268Y168270D01*
Y148660D01*
X482800Y148623D01*
X482344Y148513D01*
X481910Y148334D01*
X481510Y148088D01*
X481153Y147784D01*
X480849Y147427D01*
X480603Y147027D01*
X480424Y146593D01*
X480314Y146137D01*
X480277Y145669D01*
X480314Y145202D01*
X480424Y144745D01*
X480603Y144312D01*
X480849Y143912D01*
X481153Y143555D01*
X481510Y143250D01*
X481910Y143005D01*
X482344Y142825D01*
X482800Y142716D01*
X483268Y142679D01*
Y127006D01*
X482800Y126969D01*
X482344Y126860D01*
X481910Y126680D01*
X481510Y126435D01*
X481153Y126130D01*
X480849Y125773D01*
X480603Y125373D01*
X480424Y124940D01*
X480314Y124484D01*
X480277Y124016D01*
X480314Y123548D01*
X480424Y123092D01*
X480603Y122658D01*
X480849Y122258D01*
X481153Y121901D01*
X481510Y121597D01*
X481910Y121351D01*
X482344Y121172D01*
X482800Y121062D01*
X483268Y121025D01*
Y104768D01*
X469051Y90551D01*
X440941D01*
Y105459D01*
X440945Y105459D01*
X441384Y105494D01*
X441813Y105597D01*
X442220Y105765D01*
X442596Y105995D01*
X442931Y106282D01*
X443217Y106617D01*
X443447Y106993D01*
X443616Y107400D01*
X443719Y107828D01*
X443745Y108268D01*
X443719Y108707D01*
X443616Y109136D01*
X443447Y109543D01*
X443217Y109919D01*
X442931Y110254D01*
X442596Y110540D01*
X442220Y110770D01*
X441813Y110939D01*
X441384Y111042D01*
X440945Y111076D01*
X440941Y111076D01*
Y132432D01*
G37*
G36*
X434051Y125543D02*X440941Y132432D01*
Y111076D01*
X440506Y111042D01*
X440077Y110939D01*
X439670Y110770D01*
X439294Y110540D01*
X438959Y110254D01*
X438673Y109919D01*
X438442Y109543D01*
X438274Y109136D01*
X438171Y108707D01*
X438136Y108268D01*
X438171Y107828D01*
X438274Y107400D01*
X438442Y106993D01*
X438673Y106617D01*
X438959Y106282D01*
X439294Y105995D01*
X439670Y105765D01*
X440077Y105597D01*
X440506Y105494D01*
X440941Y105459D01*
Y90551D01*
X436586D01*
X436563Y90948D01*
X436470Y91336D01*
X436317Y91704D01*
X436109Y92044D01*
X435850Y92346D01*
X435547Y92605D01*
X435208Y92813D01*
X434840Y92966D01*
X434452Y93059D01*
X434055Y93090D01*
X434051Y93090D01*
Y94902D01*
X434055Y94902D01*
X434452Y94933D01*
X434840Y95026D01*
X435208Y95179D01*
X435547Y95387D01*
X435850Y95646D01*
X436109Y95949D01*
X436317Y96288D01*
X436470Y96656D01*
X436563Y97044D01*
X436586Y97441D01*
X436563Y97838D01*
X436470Y98226D01*
X436317Y98594D01*
X436109Y98933D01*
X435850Y99236D01*
X435547Y99495D01*
X435208Y99703D01*
X434840Y99856D01*
X434452Y99949D01*
X434055Y99980D01*
X434051Y99980D01*
Y101792D01*
X434055Y101792D01*
X434452Y101823D01*
X434840Y101916D01*
X435208Y102069D01*
X435547Y102277D01*
X435850Y102535D01*
X436109Y102838D01*
X436317Y103178D01*
X436470Y103546D01*
X436563Y103934D01*
X436586Y104331D01*
X436563Y104728D01*
X436470Y105115D01*
X436317Y105483D01*
X436109Y105823D01*
X435850Y106126D01*
X435547Y106385D01*
X435208Y106593D01*
X434840Y106745D01*
X434452Y106838D01*
X434055Y106870D01*
X434051Y106869D01*
Y110650D01*
X434055Y110650D01*
X434452Y110681D01*
X434840Y110774D01*
X435208Y110927D01*
X435547Y111135D01*
X435850Y111394D01*
X436109Y111697D01*
X436317Y112036D01*
X436470Y112404D01*
X436563Y112792D01*
X436586Y113189D01*
X436563Y113586D01*
X436470Y113974D01*
X436317Y114342D01*
X436109Y114681D01*
X435850Y114984D01*
X435547Y115243D01*
X435208Y115451D01*
X434840Y115604D01*
X434452Y115697D01*
X434055Y115728D01*
X434051Y115728D01*
Y125543D01*
G37*
G36*
X427161Y110650D02*X427165Y110650D01*
X427563Y110681D01*
X427950Y110774D01*
X428318Y110927D01*
X428658Y111135D01*
X428961Y111394D01*
X429219Y111697D01*
X429428Y112036D01*
X429580Y112404D01*
X429673Y112792D01*
X429696Y113189D01*
X429673Y113586D01*
X429580Y113974D01*
X429428Y114342D01*
X429219Y114681D01*
X428961Y114984D01*
X428658Y115243D01*
X428318Y115451D01*
X428150Y115521D01*
Y119641D01*
X434051Y125543D01*
Y115728D01*
X433658Y115697D01*
X433271Y115604D01*
X432902Y115451D01*
X432563Y115243D01*
X432260Y114984D01*
X432001Y114681D01*
X431793Y114342D01*
X431640Y113974D01*
X431547Y113586D01*
X431516Y113189D01*
X431547Y112792D01*
X431640Y112404D01*
X431793Y112036D01*
X432001Y111697D01*
X432260Y111394D01*
X432563Y111135D01*
X432902Y110927D01*
X433271Y110774D01*
X433658Y110681D01*
X434051Y110650D01*
Y106869D01*
X433658Y106838D01*
X433271Y106745D01*
X432902Y106593D01*
X432563Y106385D01*
X432260Y106126D01*
X432001Y105823D01*
X431793Y105483D01*
X431640Y105115D01*
X431547Y104728D01*
X431516Y104331D01*
X431547Y103934D01*
X431640Y103546D01*
X431793Y103178D01*
X432001Y102838D01*
X432260Y102535D01*
X432563Y102277D01*
X432902Y102069D01*
X433271Y101916D01*
X433658Y101823D01*
X434051Y101792D01*
Y99980D01*
X433658Y99949D01*
X433271Y99856D01*
X432902Y99703D01*
X432563Y99495D01*
X432260Y99236D01*
X432001Y98933D01*
X431793Y98594D01*
X431640Y98226D01*
X431547Y97838D01*
X431516Y97441D01*
X431547Y97044D01*
X431640Y96656D01*
X431793Y96288D01*
X432001Y95949D01*
X432260Y95646D01*
X432563Y95387D01*
X432902Y95179D01*
X433271Y95026D01*
X433658Y94933D01*
X434051Y94902D01*
Y93090D01*
X433658Y93059D01*
X433271Y92966D01*
X432902Y92813D01*
X432563Y92605D01*
X432260Y92346D01*
X432001Y92044D01*
X431793Y91704D01*
X431640Y91336D01*
X431547Y90948D01*
X431516Y90551D01*
X430681D01*
X430657Y90948D01*
X430564Y91336D01*
X430412Y91704D01*
X430204Y92044D01*
X429945Y92346D01*
X429642Y92605D01*
X429302Y92813D01*
X428934Y92966D01*
X428547Y93059D01*
X428150Y93090D01*
X427752Y93059D01*
X427365Y92966D01*
X427161Y92882D01*
Y93918D01*
X427165Y93918D01*
X427563Y93949D01*
X427950Y94042D01*
X428318Y94195D01*
X428658Y94403D01*
X428961Y94661D01*
X429219Y94964D01*
X429428Y95304D01*
X429580Y95672D01*
X429673Y96060D01*
X429696Y96457D01*
X429673Y96854D01*
X429580Y97241D01*
X429428Y97609D01*
X429219Y97949D01*
X428961Y98252D01*
X428658Y98511D01*
X428318Y98719D01*
X427950Y98871D01*
X427563Y98964D01*
X427165Y98996D01*
X427161Y98995D01*
Y102776D01*
X427165Y102776D01*
X427563Y102807D01*
X427950Y102900D01*
X428318Y103053D01*
X428658Y103261D01*
X428961Y103520D01*
X429219Y103823D01*
X429428Y104162D01*
X429580Y104530D01*
X429673Y104918D01*
X429696Y105315D01*
X429673Y105712D01*
X429580Y106100D01*
X429428Y106468D01*
X429219Y106807D01*
X428961Y107110D01*
X428658Y107369D01*
X428318Y107577D01*
X427950Y107730D01*
X427563Y107823D01*
X427165Y107854D01*
X427161Y107854D01*
Y110650D01*
G37*
G36*
X423224Y113189D02*X424626D01*
X424658Y112792D01*
X424751Y112404D01*
X424903Y112036D01*
X425111Y111697D01*
X425370Y111394D01*
X425673Y111135D01*
X426013Y110927D01*
X426381Y110774D01*
X426768Y110681D01*
X427161Y110650D01*
Y107854D01*
X426768Y107823D01*
X426381Y107730D01*
X426013Y107577D01*
X425673Y107369D01*
X425370Y107110D01*
X425111Y106807D01*
X424903Y106468D01*
X424751Y106100D01*
X424658Y105712D01*
X424626Y105315D01*
X424658Y104918D01*
X424751Y104530D01*
X424903Y104162D01*
X425111Y103823D01*
X425370Y103520D01*
X425673Y103261D01*
X426013Y103053D01*
X426381Y102900D01*
X426768Y102807D01*
X427161Y102776D01*
Y98995D01*
X426768Y98964D01*
X426381Y98871D01*
X426013Y98719D01*
X425673Y98511D01*
X425370Y98252D01*
X425111Y97949D01*
X424903Y97609D01*
X424751Y97241D01*
X424658Y96854D01*
X424626Y96457D01*
X424658Y96060D01*
X424751Y95672D01*
X424903Y95304D01*
X425111Y94964D01*
X425370Y94661D01*
X425673Y94403D01*
X426013Y94195D01*
X426381Y94042D01*
X426768Y93949D01*
X427161Y93918D01*
Y92882D01*
X426997Y92813D01*
X426657Y92605D01*
X426354Y92346D01*
X426096Y92044D01*
X425887Y91704D01*
X425735Y91336D01*
X425642Y90948D01*
X425611Y90551D01*
X423224D01*
Y98839D01*
X423228Y98839D01*
X423626Y98870D01*
X424013Y98963D01*
X424381Y99116D01*
X424721Y99324D01*
X425024Y99583D01*
X425282Y99886D01*
X425491Y100225D01*
X425643Y100593D01*
X425736Y100981D01*
X425759Y101378D01*
X425736Y101775D01*
X425643Y102163D01*
X425491Y102531D01*
X425282Y102870D01*
X425024Y103173D01*
X424721Y103432D01*
X424381Y103640D01*
X424013Y103793D01*
X423626Y103886D01*
X423228Y103917D01*
X423224Y103917D01*
Y113189D01*
G37*
G36*
X410432D02*X412693D01*
X412682Y113146D01*
X412672Y113053D01*
X412676Y112960D01*
X412697Y112869D01*
X412753Y112651D01*
X412785Y112429D01*
X412795Y112205D01*
X412785Y111980D01*
X412753Y111758D01*
X412700Y111540D01*
X412679Y111449D01*
X412674Y111356D01*
X412684Y111264D01*
X412709Y111174D01*
X412747Y111089D01*
X412797Y111012D01*
X412860Y110943D01*
X412932Y110884D01*
X413013Y110838D01*
X413100Y110805D01*
X413191Y110786D01*
X413283Y110781D01*
X413376Y110791D01*
X413466Y110816D01*
X413550Y110854D01*
X413628Y110904D01*
X413697Y110967D01*
X413755Y111039D01*
X413802Y111120D01*
X413833Y111207D01*
X413916Y111534D01*
X413964Y111868D01*
X413980Y112205D01*
X413964Y112542D01*
X413916Y112876D01*
X413840Y113189D01*
X414899D01*
X414797Y112761D01*
X414753Y112205D01*
X414797Y111649D01*
X414927Y111106D01*
X415140Y110591D01*
X415432Y110116D01*
X415794Y109692D01*
X416218Y109329D01*
X416693Y109038D01*
X417209Y108824D01*
X417751Y108694D01*
X418307Y108650D01*
X418863Y108694D01*
X419405Y108824D01*
X419921Y109038D01*
X420396Y109329D01*
X420820Y109692D01*
X421183Y110116D01*
X421474Y110591D01*
X421687Y111106D01*
X421818Y111649D01*
X421850Y112205D01*
X421818Y112761D01*
X421715Y113189D01*
X423224D01*
Y103917D01*
X422831Y103886D01*
X422444Y103793D01*
X422076Y103640D01*
X421736Y103432D01*
X421433Y103173D01*
X421174Y102870D01*
X420966Y102531D01*
X420814Y102163D01*
X420721Y101775D01*
X420689Y101378D01*
X420721Y100981D01*
X420814Y100593D01*
X420966Y100225D01*
X421174Y99886D01*
X421433Y99583D01*
X421736Y99324D01*
X422076Y99116D01*
X422444Y98963D01*
X422831Y98870D01*
X423224Y98839D01*
Y90551D01*
X421715D01*
X421818Y90979D01*
X421850Y91535D01*
X421818Y92091D01*
X421687Y92634D01*
X421474Y93149D01*
X421183Y93625D01*
X420820Y94049D01*
X420396Y94411D01*
X419921Y94702D01*
X419405Y94916D01*
X418863Y95046D01*
X418307Y95090D01*
X417751Y95046D01*
X417209Y94916D01*
X416693Y94702D01*
X416218Y94411D01*
X415794Y94049D01*
X415432Y93625D01*
X415140Y93149D01*
X414927Y92634D01*
X414797Y92091D01*
X414753Y91535D01*
X414797Y90979D01*
X414899Y90551D01*
X413836D01*
X413916Y90865D01*
X413964Y91198D01*
X413980Y91535D01*
X413964Y91872D01*
X413916Y92206D01*
X413837Y92534D01*
X413804Y92622D01*
X413758Y92703D01*
X413699Y92775D01*
X413630Y92838D01*
X413552Y92889D01*
X413466Y92927D01*
X413376Y92952D01*
X413284Y92962D01*
X413190Y92957D01*
X413099Y92938D01*
X413012Y92904D01*
X412931Y92858D01*
X412858Y92799D01*
X412795Y92730D01*
X412744Y92652D01*
X412706Y92567D01*
X412682Y92477D01*
X412672Y92384D01*
X412676Y92291D01*
X412697Y92200D01*
X412753Y91982D01*
X412785Y91760D01*
X412795Y91535D01*
X412785Y91311D01*
X412753Y91089D01*
X412700Y90870D01*
X412679Y90780D01*
X412674Y90687D01*
X412684Y90595D01*
X412696Y90551D01*
X410432D01*
Y93898D01*
X410433Y93898D01*
X410657Y93887D01*
X410880Y93855D01*
X411098Y93802D01*
X411189Y93781D01*
X411281Y93777D01*
X411374Y93787D01*
X411464Y93811D01*
X411548Y93849D01*
X411626Y93900D01*
X411695Y93962D01*
X411753Y94034D01*
X411800Y94115D01*
X411833Y94202D01*
X411852Y94293D01*
X411857Y94386D01*
X411847Y94478D01*
X411822Y94568D01*
X411784Y94653D01*
X411733Y94731D01*
X411671Y94799D01*
X411599Y94858D01*
X411518Y94904D01*
X411431Y94935D01*
X411104Y95019D01*
X410770Y95067D01*
X410433Y95083D01*
X410432Y95083D01*
Y108657D01*
X410433Y108657D01*
X410770Y108673D01*
X411104Y108721D01*
X411432Y108801D01*
X411519Y108834D01*
X411600Y108880D01*
X411673Y108939D01*
X411736Y109008D01*
X411787Y109086D01*
X411825Y109171D01*
X411849Y109261D01*
X411859Y109354D01*
X411855Y109448D01*
X411835Y109539D01*
X411802Y109626D01*
X411756Y109707D01*
X411697Y109780D01*
X411628Y109843D01*
X411550Y109894D01*
X411464Y109932D01*
X411374Y109956D01*
X411281Y109966D01*
X411188Y109962D01*
X411097Y109941D01*
X410880Y109885D01*
X410657Y109853D01*
X410433Y109843D01*
X410432Y109843D01*
Y113189D01*
G37*
G36*
X400591D02*X407030D01*
X406950Y112876D01*
X406902Y112542D01*
X406886Y112205D01*
X406902Y111868D01*
X406950Y111534D01*
X407029Y111206D01*
X407062Y111119D01*
X407108Y111038D01*
X407167Y110965D01*
X407236Y110902D01*
X407314Y110851D01*
X407400Y110813D01*
X407490Y110789D01*
X407583Y110779D01*
X407676Y110783D01*
X407767Y110802D01*
X407855Y110836D01*
X407936Y110882D01*
X408008Y110941D01*
X408071Y111010D01*
X408122Y111088D01*
X408160Y111173D01*
X408185Y111263D01*
X408195Y111356D01*
X408190Y111450D01*
X408169Y111540D01*
X408113Y111758D01*
X408082Y111980D01*
X408071Y112205D01*
X408082Y112429D01*
X408113Y112651D01*
X408166Y112870D01*
X408187Y112960D01*
X408192Y113053D01*
X408182Y113145D01*
X408170Y113189D01*
X410432D01*
Y109843D01*
X410209Y109853D01*
X409986Y109885D01*
X409768Y109938D01*
X409678Y109959D01*
X409585Y109964D01*
X409492Y109954D01*
X409403Y109929D01*
X409318Y109891D01*
X409240Y109840D01*
X409171Y109778D01*
X409113Y109706D01*
X409066Y109625D01*
X409033Y109538D01*
X409014Y109447D01*
X409010Y109354D01*
X409020Y109262D01*
X409044Y109172D01*
X409082Y109087D01*
X409133Y109010D01*
X409195Y108941D01*
X409267Y108882D01*
X409348Y108836D01*
X409435Y108805D01*
X409762Y108721D01*
X410096Y108673D01*
X410432Y108657D01*
Y95083D01*
X410096Y95067D01*
X409762Y95019D01*
X409434Y94939D01*
X409347Y94906D01*
X409266Y94860D01*
X409193Y94801D01*
X409131Y94732D01*
X409080Y94654D01*
X409041Y94569D01*
X409017Y94479D01*
X409007Y94386D01*
X409012Y94293D01*
X409031Y94201D01*
X409064Y94114D01*
X409110Y94033D01*
X409169Y93960D01*
X409238Y93898D01*
X409316Y93847D01*
X409402Y93808D01*
X409492Y93784D01*
X409585Y93774D01*
X409678Y93779D01*
X409769Y93800D01*
X409986Y93855D01*
X410209Y93887D01*
X410432Y93898D01*
Y90551D01*
X408173D01*
X408185Y90594D01*
X408195Y90687D01*
X408190Y90780D01*
X408169Y90871D01*
X408113Y91089D01*
X408082Y91311D01*
X408071Y91535D01*
X408082Y91760D01*
X408113Y91982D01*
X408166Y92200D01*
X408187Y92291D01*
X408192Y92384D01*
X408182Y92476D01*
X408158Y92566D01*
X408120Y92651D01*
X408069Y92729D01*
X408006Y92797D01*
X407934Y92856D01*
X407853Y92902D01*
X407767Y92935D01*
X407676Y92954D01*
X407583Y92959D01*
X407490Y92949D01*
X407401Y92925D01*
X407316Y92887D01*
X407238Y92836D01*
X407169Y92773D01*
X407111Y92701D01*
X407064Y92620D01*
X407033Y92533D01*
X406950Y92206D01*
X406902Y91872D01*
X406886Y91535D01*
X406902Y91198D01*
X406950Y90865D01*
X407026Y90551D01*
X400591D01*
Y113189D01*
G37*
G36*
X410434Y64961D02*X412693D01*
X412682Y64918D01*
X412672Y64825D01*
X412676Y64732D01*
X412697Y64641D01*
X412753Y64423D01*
X412785Y64201D01*
X412795Y63976D01*
X412785Y63752D01*
X412753Y63530D01*
X412700Y63311D01*
X412679Y63221D01*
X412674Y63128D01*
X412684Y63036D01*
X412709Y62946D01*
X412747Y62861D01*
X412797Y62783D01*
X412860Y62714D01*
X412932Y62656D01*
X413013Y62610D01*
X413100Y62577D01*
X413191Y62558D01*
X413283Y62553D01*
X413376Y62563D01*
X413466Y62587D01*
X413550Y62625D01*
X413628Y62676D01*
X413697Y62738D01*
X413755Y62811D01*
X413802Y62891D01*
X413833Y62979D01*
X413916Y63306D01*
X413964Y63639D01*
X413980Y63976D01*
X413964Y64313D01*
X413916Y64647D01*
X413840Y64961D01*
X424175D01*
X424212Y64493D01*
X424321Y64037D01*
X424501Y63603D01*
X424746Y63203D01*
X425051Y62846D01*
X425408Y62541D01*
X425665Y62384D01*
Y54755D01*
X412249Y41339D01*
X410434D01*
Y46643D01*
X410989Y46686D01*
X411531Y46817D01*
X412047Y47030D01*
X412522Y47321D01*
X412946Y47684D01*
X413309Y48108D01*
X413600Y48583D01*
X413813Y49099D01*
X413944Y49641D01*
X413976Y50197D01*
X413944Y50753D01*
X413813Y51295D01*
X413600Y51810D01*
X413309Y52286D01*
X412946Y52710D01*
X412522Y53072D01*
X412047Y53364D01*
X411531Y53577D01*
X410989Y53707D01*
X410434Y53751D01*
Y60429D01*
X410770Y60445D01*
X411104Y60493D01*
X411432Y60573D01*
X411519Y60605D01*
X411600Y60652D01*
X411673Y60710D01*
X411736Y60780D01*
X411787Y60858D01*
X411825Y60943D01*
X411849Y61033D01*
X411859Y61126D01*
X411855Y61219D01*
X411835Y61311D01*
X411802Y61398D01*
X411756Y61479D01*
X411697Y61552D01*
X411628Y61614D01*
X411550Y61665D01*
X411464Y61703D01*
X411374Y61728D01*
X411281Y61738D01*
X411188Y61733D01*
X411097Y61712D01*
X410880Y61657D01*
X410657Y61625D01*
X410434Y61614D01*
Y64961D01*
G37*
G36*
X358268D02*X407030D01*
X406950Y64647D01*
X406902Y64313D01*
X406886Y63976D01*
X406902Y63639D01*
X406950Y63306D01*
X407029Y62978D01*
X407062Y62890D01*
X407108Y62809D01*
X407167Y62737D01*
X407236Y62674D01*
X407314Y62623D01*
X407400Y62585D01*
X407490Y62560D01*
X407583Y62550D01*
X407676Y62555D01*
X407767Y62574D01*
X407855Y62607D01*
X407936Y62654D01*
X408008Y62712D01*
X408071Y62782D01*
X408122Y62860D01*
X408160Y62945D01*
X408185Y63035D01*
X408195Y63128D01*
X408190Y63221D01*
X408169Y63312D01*
X408113Y63530D01*
X408082Y63752D01*
X408071Y63976D01*
X408082Y64201D01*
X408113Y64423D01*
X408166Y64641D01*
X408187Y64732D01*
X408192Y64825D01*
X408182Y64917D01*
X408170Y64961D01*
X410434D01*
Y61614D01*
X410433Y61614D01*
X410209Y61625D01*
X409986Y61657D01*
X409768Y61710D01*
X409678Y61731D01*
X409585Y61735D01*
X409492Y61725D01*
X409403Y61701D01*
X409318Y61663D01*
X409240Y61612D01*
X409171Y61550D01*
X409113Y61477D01*
X409066Y61397D01*
X409033Y61310D01*
X409014Y61219D01*
X409010Y61126D01*
X409020Y61034D01*
X409044Y60944D01*
X409082Y60859D01*
X409133Y60781D01*
X409195Y60712D01*
X409267Y60654D01*
X409348Y60608D01*
X409435Y60576D01*
X409762Y60493D01*
X410096Y60445D01*
X410433Y60429D01*
X410434Y60429D01*
Y53751D01*
X410433Y53751D01*
X409877Y53707D01*
X409335Y53577D01*
X408819Y53364D01*
X408344Y53072D01*
X407920Y52710D01*
X407558Y52286D01*
X407266Y51810D01*
X407053Y51295D01*
X406923Y50753D01*
X406879Y50197D01*
X406923Y49641D01*
X407053Y49099D01*
X407266Y48583D01*
X407558Y48108D01*
X407920Y47684D01*
X408344Y47321D01*
X408819Y47030D01*
X409335Y46817D01*
X409877Y46686D01*
X410433Y46643D01*
X410434Y46643D01*
Y41339D01*
X358268D01*
Y64961D01*
G37*
G36*
X402559Y76772D02*Y65945D01*
X356299D01*
Y41339D01*
X333661D01*
Y76256D01*
X349998D01*
X350090Y76105D01*
X350376Y75770D01*
X350711Y75484D01*
X351087Y75253D01*
X351494Y75085D01*
X351923Y74982D01*
X352362Y74947D01*
X352802Y74982D01*
X353230Y75085D01*
X353637Y75253D01*
X354013Y75484D01*
X354348Y75770D01*
X354634Y76105D01*
X354865Y76481D01*
X354985Y76772D01*
X402559D01*
G37*
G36*
Y78740D02*X354985D01*
X354865Y79031D01*
X354634Y79407D01*
X354348Y79742D01*
X354013Y80028D01*
X353637Y80258D01*
X353230Y80427D01*
X352802Y80530D01*
X352362Y80565D01*
X351923Y80530D01*
X351494Y80427D01*
X351087Y80258D01*
X350711Y80028D01*
X350376Y79742D01*
X350090Y79407D01*
X349998Y79256D01*
X333661D01*
Y99878D01*
X349998D01*
X350090Y99727D01*
X350376Y99392D01*
X350711Y99106D01*
X351087Y98875D01*
X351494Y98707D01*
X351923Y98604D01*
X352362Y98569D01*
X352802Y98604D01*
X353230Y98707D01*
X353637Y98875D01*
X354013Y99106D01*
X354348Y99392D01*
X354634Y99727D01*
X354865Y100103D01*
X354985Y100394D01*
X356299D01*
Y88583D01*
X402559D01*
Y78740D01*
G37*
G36*
X358268Y113189D02*X402559D01*
Y90551D01*
X358268D01*
Y113189D01*
G37*
G36*
X402559Y125000D02*Y114173D01*
X356299D01*
Y101378D01*
X355162D01*
X355136Y101817D01*
X355033Y102246D01*
X354865Y102653D01*
X354634Y103029D01*
X354348Y103364D01*
X354013Y103650D01*
X353637Y103880D01*
X353230Y104049D01*
X352802Y104152D01*
X352362Y104187D01*
X351923Y104152D01*
X351494Y104049D01*
X351087Y103880D01*
X350711Y103650D01*
X350376Y103364D01*
X350090Y103029D01*
X349998Y102878D01*
X333661D01*
Y123500D01*
X349998D01*
X350090Y123349D01*
X350376Y123014D01*
X350711Y122728D01*
X351087Y122497D01*
X351494Y122329D01*
X351923Y122226D01*
X352362Y122191D01*
X352802Y122226D01*
X353230Y122329D01*
X353637Y122497D01*
X354013Y122728D01*
X354348Y123014D01*
X354634Y123349D01*
X354865Y123725D01*
X355033Y124132D01*
X355136Y124561D01*
X355162Y125000D01*
X402559D01*
G37*
G36*
Y125984D02*X354985D01*
X354865Y126275D01*
X354634Y126651D01*
X354348Y126986D01*
X354013Y127272D01*
X353637Y127503D01*
X353230Y127671D01*
X352802Y127774D01*
X352362Y127809D01*
X351923Y127774D01*
X351494Y127671D01*
X351087Y127503D01*
X350711Y127272D01*
X350376Y126986D01*
X350090Y126651D01*
X349998Y126500D01*
X333661D01*
Y149606D01*
X356299D01*
Y135827D01*
X402559D01*
Y125984D01*
G37*
G36*
X412342Y149606D02*X429681D01*
X417870Y137795D01*
X412342D01*
Y138345D01*
X412392Y138350D01*
X412481Y138375D01*
X412566Y138413D01*
X412644Y138463D01*
X412713Y138526D01*
X412771Y138598D01*
X412817Y138679D01*
X412849Y138766D01*
X412932Y139093D01*
X412980Y139427D01*
X412996Y139764D01*
X412980Y140101D01*
X412932Y140435D01*
X412853Y140762D01*
X412820Y140850D01*
X412773Y140931D01*
X412715Y141004D01*
X412646Y141066D01*
X412567Y141117D01*
X412482Y141156D01*
X412392Y141180D01*
X412342Y141185D01*
Y149606D01*
G37*
G36*
X409447D02*X412342D01*
Y141185D01*
X412299Y141190D01*
X412206Y141185D01*
X412115Y141166D01*
X412027Y141133D01*
X411946Y141086D01*
X411874Y141028D01*
X411811Y140959D01*
X411760Y140880D01*
X411722Y140795D01*
X411697Y140705D01*
X411687Y140612D01*
X411692Y140519D01*
X411713Y140428D01*
X411768Y140211D01*
X411800Y139988D01*
X411811Y139764D01*
X411800Y139539D01*
X411768Y139317D01*
X411715Y139099D01*
X411695Y139008D01*
X411690Y138915D01*
X411700Y138823D01*
X411724Y138733D01*
X411762Y138648D01*
X411813Y138571D01*
X411875Y138502D01*
X411948Y138443D01*
X412028Y138397D01*
X412115Y138364D01*
X412206Y138345D01*
X412299Y138340D01*
X412342Y138345D01*
Y137795D01*
X409447D01*
Y142126D01*
X409449Y142126D01*
X409673Y142115D01*
X409896Y142083D01*
X410114Y142030D01*
X410204Y142010D01*
X410297Y142005D01*
X410390Y142015D01*
X410479Y142039D01*
X410564Y142077D01*
X410642Y142128D01*
X410711Y142190D01*
X410769Y142263D01*
X410815Y142343D01*
X410849Y142430D01*
X410868Y142521D01*
X410872Y142614D01*
X410862Y142707D01*
X410838Y142796D01*
X410800Y142881D01*
X410749Y142959D01*
X410687Y143028D01*
X410614Y143086D01*
X410534Y143132D01*
X410446Y143164D01*
X410120Y143247D01*
X409786Y143295D01*
X409449Y143311D01*
X409447Y143311D01*
Y149606D01*
G37*
G36*
X406556D02*X409447D01*
Y143311D01*
X409112Y143295D01*
X408778Y143247D01*
X408450Y143168D01*
X408363Y143135D01*
X408282Y143088D01*
X408209Y143030D01*
X408146Y142961D01*
X408095Y142882D01*
X408057Y142797D01*
X408033Y142707D01*
X408023Y142614D01*
X408027Y142521D01*
X408047Y142430D01*
X408080Y142342D01*
X408126Y142261D01*
X408185Y142189D01*
X408254Y142126D01*
X408332Y142075D01*
X408417Y142037D01*
X408508Y142012D01*
X408600Y142002D01*
X408694Y142007D01*
X408785Y142028D01*
X409002Y142083D01*
X409224Y142115D01*
X409447Y142126D01*
Y137795D01*
X406556D01*
Y138342D01*
X406598Y138338D01*
X406692Y138342D01*
X406783Y138361D01*
X406870Y138395D01*
X406951Y138441D01*
X407024Y138500D01*
X407087Y138569D01*
X407138Y138647D01*
X407176Y138732D01*
X407200Y138823D01*
X407210Y138915D01*
X407206Y139009D01*
X407185Y139099D01*
X407129Y139317D01*
X407097Y139539D01*
X407087Y139764D01*
X407097Y139988D01*
X407129Y140211D01*
X407182Y140429D01*
X407203Y140519D01*
X407208Y140612D01*
X407198Y140705D01*
X407173Y140794D01*
X407135Y140879D01*
X407085Y140957D01*
X407022Y141026D01*
X406950Y141084D01*
X406869Y141130D01*
X406782Y141164D01*
X406691Y141183D01*
X406598Y141187D01*
X406556Y141183D01*
Y149606D01*
G37*
G36*
X358268D02*X406556D01*
Y141183D01*
X406506Y141177D01*
X406416Y141153D01*
X406332Y141115D01*
X406254Y141064D01*
X406185Y141002D01*
X406126Y140929D01*
X406080Y140849D01*
X406049Y140761D01*
X405966Y140435D01*
X405918Y140101D01*
X405902Y139764D01*
X405918Y139427D01*
X405966Y139093D01*
X406045Y138765D01*
X406078Y138678D01*
X406124Y138597D01*
X406183Y138524D01*
X406252Y138461D01*
X406330Y138410D01*
X406415Y138372D01*
X406506Y138348D01*
X406556Y138342D01*
Y137795D01*
X358268D01*
Y149606D01*
G37*
G36*
X410428Y176181D02*X456255D01*
X431649Y151575D01*
X412398D01*
X412616Y151930D01*
X412829Y152445D01*
X412959Y152987D01*
X412992Y153543D01*
X412959Y154099D01*
X412829Y154642D01*
X412616Y155157D01*
X412324Y155632D01*
X411962Y156057D01*
X411538Y156419D01*
X411062Y156710D01*
X410547Y156924D01*
X410428Y156952D01*
Y168690D01*
X410433Y168690D01*
X410989Y168734D01*
X411531Y168864D01*
X412047Y169077D01*
X412522Y169369D01*
X412946Y169731D01*
X413309Y170155D01*
X413600Y170631D01*
X413813Y171146D01*
X413944Y171688D01*
X413976Y172244D01*
X413944Y172800D01*
X413813Y173342D01*
X413600Y173858D01*
X413309Y174333D01*
X412946Y174757D01*
X412522Y175120D01*
X412047Y175411D01*
X411531Y175624D01*
X410989Y175755D01*
X410433Y175798D01*
X410428Y175798D01*
Y176181D01*
G37*
G36*
X333661D02*X410428D01*
Y175798D01*
X409877Y175755D01*
X409335Y175624D01*
X408819Y175411D01*
X408344Y175120D01*
X407920Y174757D01*
X407558Y174333D01*
X407266Y173858D01*
X407053Y173342D01*
X406923Y172800D01*
X406879Y172244D01*
X406923Y171688D01*
X407053Y171146D01*
X407266Y170631D01*
X407558Y170155D01*
X407920Y169731D01*
X408344Y169369D01*
X408819Y169077D01*
X409335Y168864D01*
X409877Y168734D01*
X410428Y168690D01*
Y156952D01*
X410005Y157054D01*
X409449Y157098D01*
X408893Y157054D01*
X408350Y156924D01*
X407835Y156710D01*
X407360Y156419D01*
X406936Y156057D01*
X406573Y155632D01*
X406282Y155157D01*
X406069Y154642D01*
X405938Y154099D01*
X405895Y153543D01*
X405938Y152987D01*
X406069Y152445D01*
X406282Y151930D01*
X406499Y151575D01*
X333661D01*
Y176181D01*
G37*
G36*
X401575Y198819D02*Y187992D01*
X357283D01*
Y178150D01*
X333661D01*
Y198819D01*
X350723D01*
X350844Y198528D01*
X351074Y198152D01*
X351360Y197817D01*
X351696Y197531D01*
X352071Y197301D01*
X352479Y197132D01*
X352907Y197029D01*
X353346Y196995D01*
X353786Y197029D01*
X354214Y197132D01*
X354622Y197301D01*
X354997Y197531D01*
X355332Y197817D01*
X355619Y198152D01*
X355849Y198528D01*
X355969Y198819D01*
X401575D01*
G37*
G36*
X410434Y187008D02*X412693D01*
X412682Y186965D01*
X412672Y186872D01*
X412676Y186779D01*
X412697Y186688D01*
X412753Y186470D01*
X412785Y186248D01*
X412795Y186024D01*
X412785Y185799D01*
X412753Y185577D01*
X412700Y185359D01*
X412679Y185268D01*
X412674Y185175D01*
X412684Y185083D01*
X412709Y184993D01*
X412747Y184908D01*
X412797Y184830D01*
X412860Y184762D01*
X412932Y184703D01*
X413013Y184657D01*
X413100Y184624D01*
X413191Y184605D01*
X413283Y184600D01*
X413376Y184610D01*
X413466Y184634D01*
X413550Y184672D01*
X413628Y184723D01*
X413697Y184786D01*
X413755Y184858D01*
X413802Y184939D01*
X413833Y185026D01*
X413916Y185353D01*
X413964Y185687D01*
X413980Y186024D01*
X413964Y186361D01*
X413916Y186694D01*
X413840Y187008D01*
X461354D01*
Y181280D01*
X458224Y178150D01*
X410434D01*
Y182476D01*
X410770Y182492D01*
X411104Y182540D01*
X411432Y182620D01*
X411519Y182653D01*
X411600Y182699D01*
X411673Y182758D01*
X411736Y182827D01*
X411787Y182905D01*
X411825Y182990D01*
X411849Y183080D01*
X411859Y183173D01*
X411855Y183266D01*
X411835Y183358D01*
X411802Y183445D01*
X411756Y183526D01*
X411697Y183599D01*
X411628Y183661D01*
X411550Y183713D01*
X411464Y183751D01*
X411374Y183775D01*
X411281Y183785D01*
X411188Y183780D01*
X411097Y183760D01*
X410880Y183704D01*
X410657Y183672D01*
X410434Y183661D01*
Y187008D01*
G37*
G36*
X359252Y178150D02*Y187008D01*
X407030D01*
X406950Y186694D01*
X406902Y186361D01*
X406886Y186024D01*
X406902Y185687D01*
X406950Y185353D01*
X407029Y185025D01*
X407062Y184938D01*
X407108Y184857D01*
X407167Y184784D01*
X407236Y184721D01*
X407314Y184670D01*
X407400Y184632D01*
X407490Y184608D01*
X407583Y184598D01*
X407676Y184602D01*
X407767Y184621D01*
X407855Y184655D01*
X407936Y184701D01*
X408008Y184760D01*
X408071Y184829D01*
X408122Y184907D01*
X408160Y184992D01*
X408185Y185082D01*
X408195Y185175D01*
X408190Y185268D01*
X408169Y185359D01*
X408113Y185577D01*
X408082Y185799D01*
X408071Y186024D01*
X408082Y186248D01*
X408113Y186470D01*
X408166Y186689D01*
X408187Y186779D01*
X408192Y186872D01*
X408182Y186964D01*
X408170Y187008D01*
X410434D01*
Y183661D01*
X410433Y183661D01*
X410209Y183672D01*
X409986Y183704D01*
X409768Y183757D01*
X409678Y183778D01*
X409585Y183782D01*
X409492Y183772D01*
X409403Y183748D01*
X409318Y183710D01*
X409240Y183659D01*
X409171Y183597D01*
X409113Y183525D01*
X409066Y183444D01*
X409033Y183357D01*
X409014Y183266D01*
X409010Y183173D01*
X409020Y183081D01*
X409044Y182991D01*
X409082Y182906D01*
X409133Y182828D01*
X409195Y182760D01*
X409267Y182701D01*
X409348Y182655D01*
X409435Y182624D01*
X409762Y182540D01*
X410096Y182492D01*
X410433Y182476D01*
X410434Y182476D01*
Y178150D01*
X359252D01*
G37*
G36*
X275591Y244094D02*X289370D01*
Y204724D01*
X275591D01*
Y244094D01*
G37*
G36*
X274606Y365157D02*X288386D01*
Y325787D01*
X274606D01*
Y365157D01*
G37*
G36*
X401575Y199803D02*X356146D01*
X356121Y200243D01*
X356018Y200671D01*
X355849Y201078D01*
X355619Y201454D01*
X355332Y201789D01*
X354997Y202075D01*
X354622Y202306D01*
X354214Y202474D01*
X353786Y202577D01*
X353346Y202612D01*
X352907Y202577D01*
X352479Y202474D01*
X352071Y202306D01*
X352042Y202287D01*
X334283D01*
X333661Y202909D01*
Y221921D01*
X333661D01*
X333720Y221925D01*
X350982D01*
X351074Y221774D01*
X351360Y221439D01*
X351696Y221153D01*
X352071Y220923D01*
X352479Y220754D01*
X352907Y220651D01*
X353346Y220617D01*
X353786Y220651D01*
X354214Y220754D01*
X354622Y220923D01*
X354997Y221153D01*
X355332Y221439D01*
X355619Y221774D01*
X355849Y222150D01*
X355969Y222441D01*
X357283D01*
Y211614D01*
X401575D01*
Y199803D01*
G37*
G36*
X433067Y353761D02*X433071Y353760D01*
X433468Y353792D01*
X433855Y353885D01*
X434224Y354037D01*
X434563Y354245D01*
X434866Y354504D01*
X435125Y354807D01*
X435333Y355147D01*
X435486Y355515D01*
X435579Y355902D01*
X435602Y356299D01*
X435579Y356696D01*
X435486Y357084D01*
X435403Y357283D01*
X439523D01*
X445012Y351795D01*
X445144Y351640D01*
X445764Y351110D01*
X446459Y350684D01*
X447213Y350372D01*
X448006Y350182D01*
X448006D01*
X448819Y350118D01*
X449022Y350134D01*
X451772D01*
Y347771D01*
X451670Y347708D01*
X451669Y347708D01*
X451050Y347179D01*
X450917Y347024D01*
X436570Y332677D01*
X435602D01*
X435579Y333074D01*
X435486Y333462D01*
X435333Y333830D01*
X435125Y334170D01*
X434866Y334472D01*
X434563Y334731D01*
X434224Y334939D01*
X433855Y335092D01*
X433468Y335185D01*
X433071Y335216D01*
X433067Y335216D01*
Y337028D01*
X433071Y337028D01*
X433468Y337059D01*
X433855Y337152D01*
X434224Y337305D01*
X434563Y337513D01*
X434866Y337772D01*
X435125Y338075D01*
X435333Y338414D01*
X435486Y338782D01*
X435579Y339170D01*
X435602Y339567D01*
X435579Y339964D01*
X435486Y340351D01*
X435333Y340720D01*
X435125Y341059D01*
X434866Y341362D01*
X434563Y341621D01*
X434224Y341829D01*
X433855Y341982D01*
X433468Y342075D01*
X433071Y342106D01*
X433067Y342106D01*
Y344902D01*
X433071Y344902D01*
X433468Y344933D01*
X433855Y345026D01*
X434224Y345179D01*
X434563Y345387D01*
X434866Y345646D01*
X435125Y345949D01*
X435333Y346288D01*
X435486Y346656D01*
X435579Y347044D01*
X435602Y347441D01*
X435579Y347838D01*
X435486Y348226D01*
X435333Y348594D01*
X435125Y348933D01*
X434866Y349236D01*
X434563Y349495D01*
X434224Y349703D01*
X433855Y349856D01*
X433468Y349949D01*
X433071Y349980D01*
X433067Y349980D01*
Y353761D01*
G37*
G36*
X426177D02*X426181Y353760D01*
X426578Y353792D01*
X426966Y353885D01*
X427334Y354037D01*
X427673Y354245D01*
X427976Y354504D01*
X428235Y354807D01*
X428443Y355147D01*
X428596Y355515D01*
X428689Y355902D01*
X428712Y356299D01*
X428689Y356696D01*
X428596Y357084D01*
X428513Y357283D01*
X430739D01*
X430656Y357084D01*
X430563Y356696D01*
X430532Y356299D01*
X430563Y355902D01*
X430656Y355515D01*
X430809Y355147D01*
X431017Y354807D01*
X431276Y354504D01*
X431579Y354245D01*
X431918Y354037D01*
X432286Y353885D01*
X432674Y353792D01*
X433067Y353761D01*
Y349980D01*
X432674Y349949D01*
X432286Y349856D01*
X431918Y349703D01*
X431579Y349495D01*
X431276Y349236D01*
X431017Y348933D01*
X430809Y348594D01*
X430656Y348226D01*
X430563Y347838D01*
X430532Y347441D01*
X430563Y347044D01*
X430656Y346656D01*
X430809Y346288D01*
X431017Y345949D01*
X431276Y345646D01*
X431579Y345387D01*
X431918Y345179D01*
X432286Y345026D01*
X432674Y344933D01*
X433067Y344902D01*
Y342106D01*
X432674Y342075D01*
X432286Y341982D01*
X431918Y341829D01*
X431579Y341621D01*
X431276Y341362D01*
X431017Y341059D01*
X430809Y340720D01*
X430656Y340351D01*
X430563Y339964D01*
X430532Y339567D01*
X430563Y339170D01*
X430656Y338782D01*
X430809Y338414D01*
X431017Y338075D01*
X431276Y337772D01*
X431579Y337513D01*
X431918Y337305D01*
X432286Y337152D01*
X432674Y337059D01*
X433067Y337028D01*
Y335216D01*
X432674Y335185D01*
X432286Y335092D01*
X431918Y334939D01*
X431579Y334731D01*
X431276Y334472D01*
X431017Y334170D01*
X430809Y333830D01*
X430656Y333462D01*
X430563Y333074D01*
X430532Y332677D01*
X428712D01*
X428689Y333074D01*
X428596Y333462D01*
X428443Y333830D01*
X428235Y334170D01*
X427976Y334472D01*
X427673Y334731D01*
X427334Y334939D01*
X426966Y335092D01*
X426578Y335185D01*
X426181Y335216D01*
X426177Y335216D01*
Y337028D01*
X426181Y337028D01*
X426578Y337059D01*
X426966Y337152D01*
X427334Y337305D01*
X427673Y337513D01*
X427976Y337772D01*
X428235Y338075D01*
X428443Y338414D01*
X428596Y338782D01*
X428689Y339170D01*
X428712Y339567D01*
X428689Y339964D01*
X428596Y340351D01*
X428443Y340720D01*
X428235Y341059D01*
X427976Y341362D01*
X427673Y341621D01*
X427334Y341829D01*
X426966Y341982D01*
X426578Y342075D01*
X426181Y342106D01*
X426177Y342106D01*
Y345887D01*
X426181Y345886D01*
X426578Y345918D01*
X426966Y346011D01*
X427334Y346163D01*
X427673Y346371D01*
X427976Y346630D01*
X428235Y346933D01*
X428443Y347273D01*
X428596Y347641D01*
X428689Y348028D01*
X428712Y348425D01*
X428689Y348822D01*
X428596Y349210D01*
X428443Y349578D01*
X428235Y349918D01*
X427976Y350220D01*
X427673Y350479D01*
X427334Y350687D01*
X426966Y350840D01*
X426578Y350933D01*
X426181Y350964D01*
X426177Y350964D01*
Y353761D01*
G37*
G36*
X421256Y352361D02*X421474Y352717D01*
X421687Y353232D01*
X421818Y353775D01*
X421850Y354331D01*
X421818Y354887D01*
X421687Y355429D01*
X421474Y355944D01*
X421256Y356300D01*
Y357283D01*
X423849D01*
X423766Y357084D01*
X423673Y356696D01*
X423642Y356299D01*
X423673Y355902D01*
X423766Y355515D01*
X423919Y355147D01*
X424127Y354807D01*
X424386Y354504D01*
X424689Y354245D01*
X425028Y354037D01*
X425397Y353885D01*
X425784Y353792D01*
X426177Y353761D01*
Y350964D01*
X425784Y350933D01*
X425397Y350840D01*
X425028Y350687D01*
X424689Y350479D01*
X424386Y350220D01*
X424127Y349918D01*
X423919Y349578D01*
X423766Y349210D01*
X423673Y348822D01*
X423642Y348425D01*
X423673Y348028D01*
X423766Y347641D01*
X423919Y347273D01*
X424127Y346933D01*
X424386Y346630D01*
X424689Y346371D01*
X425028Y346163D01*
X425397Y346011D01*
X425784Y345918D01*
X426177Y345887D01*
Y342106D01*
X425784Y342075D01*
X425397Y341982D01*
X425028Y341829D01*
X424689Y341621D01*
X424386Y341362D01*
X424127Y341059D01*
X423919Y340720D01*
X423766Y340351D01*
X423673Y339964D01*
X423642Y339567D01*
X423673Y339170D01*
X423766Y338782D01*
X423919Y338414D01*
X424127Y338075D01*
X424386Y337772D01*
X424689Y337513D01*
X425028Y337305D01*
X425397Y337152D01*
X425784Y337059D01*
X426177Y337028D01*
Y335216D01*
X425784Y335185D01*
X425397Y335092D01*
X425028Y334939D01*
X424689Y334731D01*
X424386Y334472D01*
X424127Y334170D01*
X423919Y333830D01*
X423766Y333462D01*
X423673Y333074D01*
X423642Y332677D01*
X421256D01*
Y340965D01*
X421260Y340965D01*
X421657Y340996D01*
X422044Y341089D01*
X422412Y341242D01*
X422752Y341450D01*
X423055Y341709D01*
X423314Y342012D01*
X423522Y342351D01*
X423674Y342719D01*
X423767Y343107D01*
X423791Y343504D01*
X423767Y343901D01*
X423674Y344289D01*
X423522Y344657D01*
X423314Y344996D01*
X423055Y345299D01*
X422752Y345558D01*
X422412Y345766D01*
X422044Y345919D01*
X421657Y346012D01*
X421260Y346043D01*
X421256Y346043D01*
Y352361D01*
G37*
G36*
Y356300D02*X421183Y356420D01*
X420820Y356844D01*
X420396Y357206D01*
X420270Y357283D01*
X421256D01*
Y356300D01*
G37*
G36*
X399606Y356299D02*X403543D01*
Y357283D01*
X408470D01*
X408344Y357206D01*
X407920Y356844D01*
X407558Y356420D01*
X407266Y355944D01*
X407053Y355429D01*
X406923Y354887D01*
X406879Y354331D01*
X406923Y353775D01*
X407053Y353232D01*
X407266Y352717D01*
X407558Y352242D01*
X407920Y351817D01*
X408344Y351455D01*
X408819Y351164D01*
X409335Y350950D01*
X409877Y350820D01*
X410433Y350776D01*
X410989Y350820D01*
X411531Y350950D01*
X412047Y351164D01*
X412522Y351455D01*
X412946Y351817D01*
X413309Y352242D01*
X413600Y352717D01*
X413813Y353232D01*
X413944Y353775D01*
X413976Y354331D01*
X413944Y354887D01*
X413813Y355429D01*
X413600Y355944D01*
X413309Y356420D01*
X412946Y356844D01*
X412522Y357206D01*
X412396Y357283D01*
X416344D01*
X416218Y357206D01*
X415794Y356844D01*
X415432Y356420D01*
X415140Y355944D01*
X414927Y355429D01*
X414797Y354887D01*
X414753Y354331D01*
X414797Y353775D01*
X414927Y353232D01*
X415140Y352717D01*
X415432Y352242D01*
X415794Y351817D01*
X416218Y351455D01*
X416693Y351164D01*
X417209Y350950D01*
X417751Y350820D01*
X418307Y350776D01*
X418863Y350820D01*
X419405Y350950D01*
X419921Y351164D01*
X420396Y351455D01*
X420820Y351817D01*
X421183Y352242D01*
X421256Y352361D01*
Y346043D01*
X420863Y346012D01*
X420475Y345919D01*
X420107Y345766D01*
X419768Y345558D01*
X419465Y345299D01*
X419206Y344996D01*
X418998Y344657D01*
X418845Y344289D01*
X418752Y343901D01*
X418721Y343504D01*
X418752Y343107D01*
X418845Y342719D01*
X418998Y342351D01*
X419206Y342012D01*
X419465Y341709D01*
X419768Y341450D01*
X420107Y341242D01*
X420475Y341089D01*
X420863Y340996D01*
X421256Y340965D01*
Y332677D01*
X420730D01*
X420833Y333105D01*
X420866Y333661D01*
X420833Y334217D01*
X420703Y334760D01*
X420490Y335275D01*
X420198Y335751D01*
X419836Y336175D01*
X419412Y336537D01*
X418936Y336828D01*
X418421Y337042D01*
X417879Y337172D01*
X417323Y337216D01*
X416767Y337172D01*
X416225Y337042D01*
X415709Y336828D01*
X415234Y336537D01*
X414810Y336175D01*
X414447Y335751D01*
X414156Y335275D01*
X413943Y334760D01*
X413812Y334217D01*
X413769Y333661D01*
X413812Y333105D01*
X413915Y332677D01*
X412856D01*
X412959Y333105D01*
X412992Y333661D01*
X412959Y334217D01*
X412829Y334760D01*
X412616Y335275D01*
X412324Y335751D01*
X411962Y336175D01*
X411538Y336537D01*
X411062Y336828D01*
X410547Y337042D01*
X410005Y337172D01*
X409449Y337216D01*
X408893Y337172D01*
X408350Y337042D01*
X407835Y336828D01*
X407360Y336537D01*
X406936Y336175D01*
X406573Y335751D01*
X406282Y335275D01*
X406069Y334760D01*
X405938Y334217D01*
X405895Y333661D01*
X405938Y333105D01*
X406041Y332677D01*
X404528D01*
Y334646D01*
X399606D01*
Y356299D01*
G37*
G36*
X359252Y308071D02*X406041D01*
X405938Y307643D01*
X405895Y307087D01*
X405938Y306531D01*
X406069Y305988D01*
X406282Y305473D01*
X406573Y304997D01*
X406936Y304573D01*
X407360Y304211D01*
X407835Y303920D01*
X408350Y303706D01*
X408893Y303576D01*
X409449Y303532D01*
X410005Y303576D01*
X410547Y303706D01*
X411062Y303920D01*
X411538Y304211D01*
X411962Y304573D01*
X412324Y304997D01*
X412616Y305473D01*
X412829Y305988D01*
X412959Y306531D01*
X412992Y307087D01*
X412959Y307643D01*
X412856Y308071D01*
X443638D01*
Y298228D01*
X359252D01*
Y308071D01*
G37*
G36*
X401575Y310039D02*X358268D01*
Y300197D01*
X333661D01*
Y319882D01*
X351708D01*
X351828Y319591D01*
X352058Y319215D01*
X352345Y318880D01*
X352680Y318594D01*
X353056Y318364D01*
X353463Y318195D01*
X353891Y318092D01*
X354331Y318058D01*
X354770Y318092D01*
X355199Y318195D01*
X355606Y318364D01*
X355982Y318594D01*
X356317Y318880D01*
X356603Y319215D01*
X356833Y319591D01*
X356954Y319882D01*
X401575D01*
Y310039D01*
G37*
G36*
Y321850D02*X356954D01*
X356833Y322141D01*
X356603Y322517D01*
X356317Y322852D01*
X355982Y323138D01*
X355606Y323369D01*
X355199Y323537D01*
X354770Y323640D01*
X354331Y323675D01*
X353891Y323640D01*
X353463Y323537D01*
X353056Y323369D01*
X353026Y323350D01*
X333661D01*
Y342520D01*
X352330D01*
X352345Y342502D01*
X352680Y342216D01*
X353056Y341986D01*
X353463Y341817D01*
X353891Y341714D01*
X354331Y341680D01*
X354770Y341714D01*
X355199Y341817D01*
X355606Y341986D01*
X355982Y342216D01*
X356317Y342502D01*
X356332Y342520D01*
X358268D01*
Y331693D01*
X401575D01*
Y321850D01*
G37*
G36*
X359252Y356299D02*X401575D01*
Y333661D01*
X359252D01*
Y356299D01*
G37*
G36*
X409443Y297244D02*X443638D01*
Y277737D01*
X437555Y271654D01*
X411412D01*
X411538Y271731D01*
X411962Y272093D01*
X412324Y272517D01*
X412616Y272993D01*
X412829Y273508D01*
X412959Y274050D01*
X412992Y274606D01*
X412959Y275162D01*
X412829Y275705D01*
X412616Y276220D01*
X412324Y276695D01*
X411962Y277120D01*
X411538Y277482D01*
X411062Y277773D01*
X410547Y277987D01*
X410005Y278117D01*
X409449Y278161D01*
X409443Y278160D01*
Y289753D01*
X409449Y289753D01*
X410005Y289797D01*
X410547Y289927D01*
X411062Y290140D01*
X411538Y290432D01*
X411962Y290794D01*
X412324Y291218D01*
X412616Y291693D01*
X412829Y292209D01*
X412959Y292751D01*
X412992Y293307D01*
X412959Y293863D01*
X412829Y294405D01*
X412616Y294921D01*
X412324Y295396D01*
X411962Y295820D01*
X411538Y296183D01*
X411062Y296474D01*
X410547Y296687D01*
X410005Y296818D01*
X409449Y296861D01*
X409443Y296861D01*
Y297244D01*
G37*
G36*
X333661D02*X409443D01*
Y296861D01*
X408893Y296818D01*
X408350Y296687D01*
X407835Y296474D01*
X407360Y296183D01*
X406936Y295820D01*
X406573Y295396D01*
X406282Y294921D01*
X406069Y294405D01*
X405938Y293863D01*
X405895Y293307D01*
X405938Y292751D01*
X406069Y292209D01*
X406282Y291693D01*
X406573Y291218D01*
X406936Y290794D01*
X407360Y290432D01*
X407835Y290140D01*
X408350Y289927D01*
X408893Y289797D01*
X409443Y289753D01*
Y278160D01*
X408893Y278117D01*
X408350Y277987D01*
X407835Y277773D01*
X407360Y277482D01*
X406936Y277120D01*
X406573Y276695D01*
X406282Y276220D01*
X406069Y275705D01*
X405938Y275162D01*
X405895Y274606D01*
X405938Y274050D01*
X406069Y273508D01*
X406282Y272993D01*
X406573Y272517D01*
X406936Y272093D01*
X407360Y271731D01*
X407486Y271654D01*
X333661D01*
Y297244D01*
G37*
G36*
X434051Y237748D02*X441676Y245373D01*
X441653Y245079D01*
X441669Y244876D01*
Y216713D01*
X436585Y211629D01*
X436563Y212011D01*
X436470Y212399D01*
X436317Y212767D01*
X436109Y213107D01*
X435850Y213409D01*
X435547Y213668D01*
X435208Y213876D01*
X434840Y214029D01*
X434452Y214122D01*
X434055Y214153D01*
X434051Y214153D01*
Y215965D01*
X434055Y215965D01*
X434452Y215996D01*
X434840Y216089D01*
X435208Y216242D01*
X435547Y216450D01*
X435850Y216709D01*
X436109Y217012D01*
X436317Y217351D01*
X436470Y217719D01*
X436563Y218107D01*
X436586Y218504D01*
X436563Y218901D01*
X436470Y219289D01*
X436317Y219657D01*
X436109Y219996D01*
X435850Y220299D01*
X435547Y220558D01*
X435208Y220766D01*
X434840Y220919D01*
X434452Y221012D01*
X434055Y221043D01*
X434051Y221043D01*
Y222855D01*
X434055Y222855D01*
X434452Y222886D01*
X434840Y222979D01*
X435208Y223132D01*
X435547Y223340D01*
X435850Y223598D01*
X436109Y223901D01*
X436317Y224241D01*
X436470Y224609D01*
X436563Y224997D01*
X436586Y225394D01*
X436563Y225791D01*
X436470Y226178D01*
X436317Y226546D01*
X436109Y226886D01*
X435850Y227189D01*
X435547Y227448D01*
X435208Y227656D01*
X434840Y227808D01*
X434452Y227901D01*
X434055Y227933D01*
X434051Y227932D01*
Y231713D01*
X434055Y231713D01*
X434452Y231744D01*
X434840Y231837D01*
X435208Y231990D01*
X435547Y232198D01*
X435850Y232457D01*
X436109Y232760D01*
X436317Y233099D01*
X436470Y233467D01*
X436563Y233855D01*
X436586Y234252D01*
X436563Y234649D01*
X436470Y235037D01*
X436317Y235405D01*
X436109Y235744D01*
X435850Y236047D01*
X435547Y236306D01*
X435208Y236514D01*
X434840Y236667D01*
X434452Y236760D01*
X434055Y236791D01*
X434051Y236791D01*
Y237748D01*
G37*
G36*
X427161Y231713D02*X427165Y231713D01*
X427563Y231744D01*
X427950Y231837D01*
X428318Y231990D01*
X428658Y232198D01*
X428961Y232457D01*
X429219Y232760D01*
X429428Y233099D01*
X429580Y233467D01*
X429673Y233855D01*
X429696Y234252D01*
X429673Y234649D01*
X429580Y235037D01*
X429497Y235236D01*
X430118D01*
X430887Y236005D01*
X430931Y236009D01*
X431724Y236199D01*
X432478Y236511D01*
X433173Y236937D01*
X433782Y237478D01*
X434051Y237748D01*
Y236791D01*
X433658Y236760D01*
X433271Y236667D01*
X432902Y236514D01*
X432563Y236306D01*
X432260Y236047D01*
X432001Y235744D01*
X431793Y235405D01*
X431640Y235037D01*
X431547Y234649D01*
X431516Y234252D01*
X431547Y233855D01*
X431640Y233467D01*
X431793Y233099D01*
X432001Y232760D01*
X432260Y232457D01*
X432563Y232198D01*
X432902Y231990D01*
X433271Y231837D01*
X433658Y231744D01*
X434051Y231713D01*
Y227932D01*
X433658Y227901D01*
X433271Y227808D01*
X432902Y227656D01*
X432563Y227448D01*
X432260Y227189D01*
X432001Y226886D01*
X431793Y226546D01*
X431640Y226178D01*
X431547Y225791D01*
X431516Y225394D01*
X431547Y224997D01*
X431640Y224609D01*
X431793Y224241D01*
X432001Y223901D01*
X432260Y223598D01*
X432563Y223340D01*
X432902Y223132D01*
X433271Y222979D01*
X433658Y222886D01*
X434051Y222855D01*
Y221043D01*
X433658Y221012D01*
X433271Y220919D01*
X432902Y220766D01*
X432563Y220558D01*
X432260Y220299D01*
X432001Y219996D01*
X431793Y219657D01*
X431640Y219289D01*
X431547Y218901D01*
X431516Y218504D01*
X431547Y218107D01*
X431640Y217719D01*
X431793Y217351D01*
X432001Y217012D01*
X432260Y216709D01*
X432563Y216450D01*
X432902Y216242D01*
X433271Y216089D01*
X433658Y215996D01*
X434051Y215965D01*
Y214153D01*
X433658Y214122D01*
X433271Y214029D01*
X432902Y213876D01*
X432563Y213668D01*
X432260Y213409D01*
X432001Y213107D01*
X431793Y212767D01*
X431640Y212399D01*
X431547Y212011D01*
X431516Y211614D01*
X429696D01*
X429673Y212011D01*
X429580Y212399D01*
X429428Y212767D01*
X429219Y213107D01*
X428961Y213409D01*
X428658Y213668D01*
X428318Y213876D01*
X427950Y214029D01*
X427563Y214122D01*
X427165Y214153D01*
X427161Y214153D01*
Y214981D01*
X427165Y214981D01*
X427563Y215012D01*
X427950Y215105D01*
X428318Y215257D01*
X428658Y215466D01*
X428961Y215724D01*
X429219Y216027D01*
X429428Y216367D01*
X429580Y216735D01*
X429673Y217123D01*
X429696Y217520D01*
X429673Y217917D01*
X429580Y218304D01*
X429428Y218672D01*
X429219Y219012D01*
X428961Y219315D01*
X428658Y219574D01*
X428318Y219782D01*
X427950Y219934D01*
X427563Y220027D01*
X427165Y220059D01*
X427161Y220058D01*
Y223839D01*
X427165Y223839D01*
X427563Y223870D01*
X427950Y223963D01*
X428318Y224116D01*
X428658Y224324D01*
X428961Y224583D01*
X429219Y224886D01*
X429428Y225225D01*
X429580Y225593D01*
X429673Y225981D01*
X429696Y226378D01*
X429673Y226775D01*
X429580Y227163D01*
X429428Y227531D01*
X429219Y227870D01*
X428961Y228173D01*
X428658Y228432D01*
X428318Y228640D01*
X427950Y228793D01*
X427563Y228886D01*
X427165Y228917D01*
X427161Y228917D01*
Y231713D01*
G37*
G36*
X422240Y235236D02*X424833D01*
X424751Y235037D01*
X424658Y234649D01*
X424626Y234252D01*
X424658Y233855D01*
X424751Y233467D01*
X424903Y233099D01*
X425111Y232760D01*
X425370Y232457D01*
X425673Y232198D01*
X426013Y231990D01*
X426381Y231837D01*
X426768Y231744D01*
X427161Y231713D01*
Y228917D01*
X426768Y228886D01*
X426381Y228793D01*
X426013Y228640D01*
X425673Y228432D01*
X425370Y228173D01*
X425111Y227870D01*
X424903Y227531D01*
X424751Y227163D01*
X424658Y226775D01*
X424626Y226378D01*
X424658Y225981D01*
X424751Y225593D01*
X424903Y225225D01*
X425111Y224886D01*
X425370Y224583D01*
X425673Y224324D01*
X426013Y224116D01*
X426381Y223963D01*
X426768Y223870D01*
X427161Y223839D01*
Y220058D01*
X426768Y220027D01*
X426381Y219934D01*
X426013Y219782D01*
X425673Y219574D01*
X425370Y219315D01*
X425111Y219012D01*
X424903Y218672D01*
X424751Y218304D01*
X424658Y217917D01*
X424626Y217520D01*
X424658Y217123D01*
X424751Y216735D01*
X424903Y216367D01*
X425111Y216027D01*
X425370Y215724D01*
X425673Y215466D01*
X426013Y215257D01*
X426381Y215105D01*
X426768Y215012D01*
X427161Y214981D01*
Y214153D01*
X426768Y214122D01*
X426381Y214029D01*
X426013Y213876D01*
X425673Y213668D01*
X425370Y213409D01*
X425111Y213107D01*
X424903Y212767D01*
X424751Y212399D01*
X424658Y212011D01*
X424626Y211614D01*
X422699D01*
X422802Y212042D01*
X422835Y212598D01*
X422802Y213154D01*
X422672Y213697D01*
X422458Y214212D01*
X422240Y214568D01*
Y219902D01*
X422244Y219902D01*
X422641Y219933D01*
X423029Y220026D01*
X423397Y220179D01*
X423736Y220387D01*
X424039Y220646D01*
X424298Y220949D01*
X424506Y221288D01*
X424659Y221656D01*
X424752Y222044D01*
X424775Y222441D01*
X424752Y222838D01*
X424659Y223226D01*
X424506Y223594D01*
X424298Y223933D01*
X424039Y224236D01*
X423736Y224495D01*
X423397Y224703D01*
X423029Y224856D01*
X422641Y224949D01*
X422244Y224980D01*
X422240Y224980D01*
Y235236D01*
G37*
G36*
X377953Y234252D02*X407025D01*
X406923Y233824D01*
X406879Y233268D01*
X406923Y232712D01*
X407053Y232169D01*
X407266Y231654D01*
X407558Y231179D01*
X407920Y230754D01*
X408344Y230392D01*
X408819Y230101D01*
X409335Y229887D01*
X409877Y229757D01*
X410433Y229713D01*
X410989Y229757D01*
X411531Y229887D01*
X412047Y230101D01*
X412522Y230392D01*
X412946Y230754D01*
X413309Y231179D01*
X413600Y231654D01*
X413813Y232169D01*
X413944Y232712D01*
X413976Y233268D01*
X413944Y233824D01*
X413813Y234366D01*
X413600Y234881D01*
X413382Y235236D01*
X415358D01*
X415140Y234881D01*
X414927Y234366D01*
X414797Y233824D01*
X414753Y233268D01*
X414797Y232712D01*
X414927Y232169D01*
X415140Y231654D01*
X415432Y231179D01*
X415794Y230754D01*
X416218Y230392D01*
X416693Y230101D01*
X417209Y229887D01*
X417751Y229757D01*
X418307Y229713D01*
X418863Y229757D01*
X419405Y229887D01*
X419921Y230101D01*
X420396Y230392D01*
X420820Y230754D01*
X421183Y231179D01*
X421474Y231654D01*
X421687Y232169D01*
X421818Y232712D01*
X421850Y233268D01*
X421818Y233824D01*
X421687Y234366D01*
X421474Y234881D01*
X421256Y235236D01*
X422240D01*
Y224980D01*
X421847Y224949D01*
X421460Y224856D01*
X421091Y224703D01*
X420752Y224495D01*
X420449Y224236D01*
X420190Y223933D01*
X419982Y223594D01*
X419829Y223226D01*
X419736Y222838D01*
X419705Y222441D01*
X419736Y222044D01*
X419829Y221656D01*
X419982Y221288D01*
X420190Y220949D01*
X420449Y220646D01*
X420752Y220387D01*
X421091Y220179D01*
X421460Y220026D01*
X421847Y219933D01*
X422240Y219902D01*
Y214568D01*
X422167Y214688D01*
X421805Y215112D01*
X421380Y215474D01*
X420905Y215765D01*
X420390Y215979D01*
X419847Y216109D01*
X419291Y216153D01*
X418735Y216109D01*
X418193Y215979D01*
X417678Y215765D01*
X417202Y215474D01*
X416778Y215112D01*
X416416Y214688D01*
X416124Y214212D01*
X415911Y213697D01*
X415781Y213154D01*
X415737Y212598D01*
X415781Y212042D01*
X415884Y211614D01*
X414825D01*
X414928Y212042D01*
X414961Y212598D01*
X414928Y213154D01*
X414798Y213697D01*
X414584Y214212D01*
X414293Y214688D01*
X413931Y215112D01*
X413506Y215474D01*
X413031Y215765D01*
X412516Y215979D01*
X411973Y216109D01*
X411417Y216153D01*
X410861Y216109D01*
X410319Y215979D01*
X409804Y215765D01*
X409328Y215474D01*
X408904Y215112D01*
X408542Y214688D01*
X408250Y214212D01*
X408037Y213697D01*
X407907Y213154D01*
X407863Y212598D01*
X407907Y212042D01*
X408010Y211614D01*
X405512D01*
Y212598D01*
X377953D01*
Y234252D01*
G37*
G36*
X401575Y246063D02*Y236220D01*
X357283D01*
Y224409D01*
X355969D01*
X355849Y224700D01*
X355619Y225076D01*
X355332Y225411D01*
X354997Y225697D01*
X354622Y225928D01*
X354214Y226096D01*
X353786Y226199D01*
X353346Y226234D01*
X352907Y226199D01*
X352479Y226096D01*
X352071Y225928D01*
X351696Y225697D01*
X351360Y225411D01*
X351074Y225076D01*
X350982Y224925D01*
X334283D01*
X333661Y225547D01*
Y245547D01*
X350982D01*
X351074Y245396D01*
X351360Y245061D01*
X351696Y244775D01*
X352071Y244545D01*
X352479Y244376D01*
X352907Y244273D01*
X353346Y244239D01*
X353786Y244273D01*
X354214Y244376D01*
X354622Y244545D01*
X354997Y244775D01*
X355332Y245061D01*
X355619Y245396D01*
X355849Y245772D01*
X355969Y246063D01*
X401575D01*
G37*
G36*
Y248031D02*X355969D01*
X355849Y248322D01*
X355619Y248698D01*
X355332Y249033D01*
X354997Y249319D01*
X354622Y249550D01*
X354214Y249718D01*
X353786Y249821D01*
X353346Y249856D01*
X352907Y249821D01*
X352479Y249718D01*
X352071Y249550D01*
X351696Y249319D01*
X351360Y249033D01*
X351074Y248698D01*
X350982Y248547D01*
X333661D01*
Y269685D01*
X357283D01*
Y257874D01*
X401575D01*
Y248031D01*
G37*
G36*
X424759Y258858D02*X412398D01*
X412616Y259213D01*
X412829Y259728D01*
X412959Y260271D01*
X412992Y260827D01*
X412959Y261383D01*
X412829Y261925D01*
X412616Y262440D01*
X412324Y262916D01*
X411962Y263340D01*
X411538Y263702D01*
X411062Y263994D01*
X410547Y264207D01*
X410005Y264337D01*
X409449Y264381D01*
X408893Y264337D01*
X408350Y264207D01*
X407835Y263994D01*
X407360Y263702D01*
X406936Y263340D01*
X406573Y262916D01*
X406282Y262440D01*
X406069Y261925D01*
X405938Y261383D01*
X405895Y260827D01*
X405938Y260271D01*
X406069Y259728D01*
X406282Y259213D01*
X406499Y258858D01*
X359252D01*
Y270669D01*
X436570D01*
X424759Y258858D01*
G37*
G36*
X274606Y486220D02*X288386D01*
Y447835D01*
X274606D01*
Y486220D01*
G37*
G36*
X402559Y368110D02*Y358268D01*
X357283D01*
Y345472D01*
X356954D01*
X356833Y345763D01*
X356603Y346139D01*
X356317Y346474D01*
X355982Y346760D01*
X355606Y346991D01*
X355199Y347159D01*
X354770Y347262D01*
X354331Y347297D01*
X353891Y347262D01*
X353463Y347159D01*
X353056Y346991D01*
X352680Y346760D01*
X352345Y346474D01*
X352058Y346139D01*
X351966Y345988D01*
X334283D01*
X333661Y346610D01*
Y367594D01*
X351966D01*
X352058Y367444D01*
X352345Y367108D01*
X352680Y366822D01*
X353056Y366592D01*
X353463Y366423D01*
X353891Y366320D01*
X354331Y366286D01*
X354770Y366320D01*
X355199Y366423D01*
X355606Y366592D01*
X355982Y366822D01*
X356317Y367108D01*
X356603Y367444D01*
X356833Y367819D01*
X356954Y368110D01*
X402559D01*
G37*
G36*
Y369094D02*X357131D01*
X357105Y369534D01*
X357002Y369962D01*
X356833Y370370D01*
X356603Y370745D01*
X356317Y371080D01*
X355982Y371367D01*
X355606Y371597D01*
X355199Y371766D01*
X354770Y371869D01*
X354331Y371903D01*
X353891Y371869D01*
X353463Y371766D01*
X353056Y371597D01*
X352680Y371367D01*
X352345Y371080D01*
X352058Y370745D01*
X351966Y370594D01*
X333661D01*
Y391732D01*
X357283D01*
Y379921D01*
X402559D01*
Y369094D01*
G37*
G36*
X359252Y391732D02*X433618D01*
X444444Y380906D01*
X436615D01*
X436796Y381344D01*
X436978Y382099D01*
X437024Y382874D01*
X436978Y383649D01*
X436796Y384404D01*
X436499Y385122D01*
X436093Y385785D01*
X435588Y386376D01*
X434997Y386880D01*
X434335Y387286D01*
X433617Y387584D01*
X432861Y387765D01*
X432087Y387826D01*
X431312Y387765D01*
X430556Y387584D01*
X429838Y387286D01*
X429176Y386880D01*
X428585Y386376D01*
X428080Y385785D01*
X427674Y385122D01*
X427377Y384404D01*
X427195Y383649D01*
X427134Y382874D01*
X427195Y382099D01*
X427377Y381344D01*
X427558Y380906D01*
X412856D01*
X412959Y381334D01*
X412992Y381890D01*
X412959Y382446D01*
X412829Y382988D01*
X412616Y383503D01*
X412324Y383979D01*
X411962Y384403D01*
X411538Y384765D01*
X411062Y385057D01*
X410547Y385270D01*
X410005Y385400D01*
X409449Y385444D01*
X408893Y385400D01*
X408350Y385270D01*
X407835Y385057D01*
X407360Y384765D01*
X406936Y384403D01*
X406573Y383979D01*
X406282Y383503D01*
X406069Y382988D01*
X405938Y382446D01*
X405895Y381890D01*
X405938Y381334D01*
X406041Y380906D01*
X359252D01*
Y391732D01*
G37*
G36*
X409443Y419291D02*X415094D01*
Y412605D01*
X415079Y412402D01*
X415142Y411589D01*
Y411589D01*
X415333Y410796D01*
X415645Y410042D01*
X416071Y409347D01*
X416601Y408727D01*
X416756Y408594D01*
X431649Y393701D01*
X412398D01*
X412616Y394056D01*
X412829Y394571D01*
X412959Y395113D01*
X412992Y395669D01*
X412959Y396225D01*
X412829Y396768D01*
X412616Y397283D01*
X412324Y397758D01*
X411962Y398183D01*
X411538Y398545D01*
X411062Y398836D01*
X410547Y399050D01*
X410005Y399180D01*
X409449Y399224D01*
X409443Y399223D01*
Y411801D01*
X409449Y411800D01*
X410005Y411844D01*
X410547Y411974D01*
X411062Y412187D01*
X411538Y412479D01*
X411962Y412841D01*
X412324Y413265D01*
X412616Y413741D01*
X412829Y414256D01*
X412959Y414798D01*
X412992Y415354D01*
X412959Y415910D01*
X412829Y416453D01*
X412616Y416968D01*
X412324Y417443D01*
X411962Y417868D01*
X411538Y418230D01*
X411062Y418521D01*
X410547Y418735D01*
X410005Y418865D01*
X409449Y418909D01*
X409443Y418908D01*
Y419291D01*
G37*
G36*
X333661D02*X409443D01*
Y418908D01*
X408893Y418865D01*
X408350Y418735D01*
X407835Y418521D01*
X407360Y418230D01*
X406936Y417868D01*
X406573Y417443D01*
X406282Y416968D01*
X406069Y416453D01*
X405938Y415910D01*
X405895Y415354D01*
X405938Y414798D01*
X406069Y414256D01*
X406282Y413741D01*
X406573Y413265D01*
X406936Y412841D01*
X407360Y412479D01*
X407835Y412187D01*
X408350Y411974D01*
X408893Y411844D01*
X409443Y411801D01*
Y399223D01*
X408893Y399180D01*
X408350Y399050D01*
X407835Y398836D01*
X407360Y398545D01*
X406936Y398183D01*
X406573Y397758D01*
X406282Y397283D01*
X406069Y396768D01*
X405938Y396225D01*
X405895Y395669D01*
X405938Y395113D01*
X406069Y394571D01*
X406282Y394056D01*
X406499Y393701D01*
X333661D01*
Y419291D01*
G37*
G36*
X360236Y429134D02*X405895D01*
X405938Y428578D01*
X406069Y428036D01*
X406282Y427520D01*
X406573Y427045D01*
X406936Y426621D01*
X407360Y426258D01*
X407835Y425967D01*
X408350Y425754D01*
X408893Y425623D01*
X409449Y425580D01*
X410005Y425623D01*
X410547Y425754D01*
X411062Y425967D01*
X411538Y426258D01*
X411962Y426621D01*
X412324Y427045D01*
X412616Y427520D01*
X412829Y428036D01*
X412959Y428578D01*
X412992Y429134D01*
X413933D01*
X415094Y427972D01*
Y420276D01*
X360236D01*
Y429134D01*
G37*
G36*
X358268Y420276D02*X333661D01*
Y440425D01*
X333661D01*
X333720Y440429D01*
X351966D01*
X352058Y440278D01*
X352345Y439943D01*
X352680Y439657D01*
X353056Y439427D01*
X353463Y439258D01*
X353891Y439155D01*
X354331Y439120D01*
X354770Y439155D01*
X355199Y439258D01*
X355606Y439427D01*
X355982Y439657D01*
X356317Y439943D01*
X356603Y440278D01*
X356833Y440654D01*
X356954Y440945D01*
X402559D01*
Y430118D01*
X358268D01*
Y420276D01*
G37*
G36*
X400591Y477362D02*X405895D01*
X405938Y476806D01*
X406069Y476264D01*
X406282Y475749D01*
X406573Y475273D01*
X406936Y474849D01*
X407360Y474487D01*
X407835Y474195D01*
X408350Y473982D01*
X408893Y473852D01*
X409449Y473808D01*
X410005Y473852D01*
X410547Y473982D01*
X411062Y474195D01*
X411538Y474487D01*
X411962Y474849D01*
X412324Y475273D01*
X412616Y475749D01*
X412829Y476264D01*
X412959Y476806D01*
X412992Y477362D01*
X413769D01*
X413812Y476806D01*
X413943Y476264D01*
X414156Y475749D01*
X414447Y475273D01*
X414810Y474849D01*
X415234Y474487D01*
X415709Y474195D01*
X416225Y473982D01*
X416767Y473852D01*
X417323Y473808D01*
X417879Y473852D01*
X418421Y473982D01*
X418936Y474195D01*
X419412Y474487D01*
X419836Y474849D01*
X420198Y475273D01*
X420490Y475749D01*
X420703Y476264D01*
X420833Y476806D01*
X420866Y477362D01*
X421181D01*
Y454724D01*
X420272D01*
X420490Y455079D01*
X420703Y455595D01*
X420833Y456137D01*
X420866Y456693D01*
X420833Y457249D01*
X420703Y457791D01*
X420490Y458307D01*
X420198Y458782D01*
X419836Y459206D01*
X419412Y459568D01*
X418936Y459860D01*
X418421Y460073D01*
X417879Y460203D01*
X417323Y460247D01*
X416767Y460203D01*
X416225Y460073D01*
X415709Y459860D01*
X415234Y459568D01*
X414810Y459206D01*
X414447Y458782D01*
X414156Y458307D01*
X413943Y457791D01*
X413812Y457249D01*
X413769Y456693D01*
X413812Y456137D01*
X413943Y455595D01*
X414156Y455079D01*
X414373Y454724D01*
X412398D01*
X412616Y455079D01*
X412829Y455595D01*
X412959Y456137D01*
X412992Y456693D01*
X412959Y457249D01*
X412829Y457791D01*
X412616Y458307D01*
X412324Y458782D01*
X411962Y459206D01*
X411538Y459568D01*
X411062Y459860D01*
X410547Y460073D01*
X410005Y460203D01*
X409449Y460247D01*
X408893Y460203D01*
X408350Y460073D01*
X407835Y459860D01*
X407360Y459568D01*
X406936Y459206D01*
X406573Y458782D01*
X406282Y458307D01*
X406069Y457791D01*
X405938Y457249D01*
X405895Y456693D01*
X405938Y456137D01*
X406069Y455595D01*
X406282Y455079D01*
X406499Y454724D01*
X400591D01*
Y477362D01*
G37*
G36*
X359252D02*X402559D01*
Y454724D01*
X359252D01*
Y477362D01*
G37*
G36*
X402559Y442913D02*X356954D01*
X356833Y443204D01*
X356603Y443580D01*
X356317Y443915D01*
X355982Y444201D01*
X355606Y444432D01*
X355199Y444600D01*
X354770Y444703D01*
X354331Y444738D01*
X353891Y444703D01*
X353463Y444600D01*
X353056Y444432D01*
X352680Y444201D01*
X352345Y443915D01*
X352058Y443580D01*
X351966Y443429D01*
X334283D01*
X333661Y444050D01*
Y465551D01*
X358268D01*
Y453740D01*
X402559D01*
Y442913D01*
G37*
G36*
Y489173D02*Y478346D01*
X358268D01*
Y467520D01*
X333661D01*
Y487673D01*
X353026D01*
X353056Y487655D01*
X353463Y487486D01*
X353891Y487383D01*
X354331Y487349D01*
X354770Y487383D01*
X355199Y487486D01*
X355606Y487655D01*
X355982Y487885D01*
X356317Y488171D01*
X356603Y488507D01*
X356833Y488882D01*
X356954Y489173D01*
X402559D01*
G37*
G36*
X419010Y514764D02*X409443D01*
Y515147D01*
X409449Y515147D01*
X410005Y515190D01*
X410547Y515321D01*
X411062Y515534D01*
X411538Y515825D01*
X411962Y516188D01*
X412324Y516612D01*
X412616Y517087D01*
X412829Y517602D01*
X412959Y518145D01*
X412992Y518701D01*
X412959Y519257D01*
X412829Y519799D01*
X412616Y520314D01*
X412324Y520790D01*
X411962Y521214D01*
X411538Y521576D01*
X411062Y521868D01*
X410547Y522081D01*
X410005Y522211D01*
X409449Y522255D01*
X409443Y522255D01*
Y523341D01*
X413438D01*
X419010Y517769D01*
Y514764D01*
G37*
G36*
X409443D02*X333661D01*
Y523341D01*
X409443D01*
Y522255D01*
X408893Y522211D01*
X408350Y522081D01*
X407835Y521868D01*
X407360Y521576D01*
X406936Y521214D01*
X406573Y520790D01*
X406282Y520314D01*
X406069Y519799D01*
X405938Y519257D01*
X405895Y518701D01*
X405938Y518145D01*
X406069Y517602D01*
X406282Y517087D01*
X406573Y516612D01*
X406936Y516188D01*
X407360Y515825D01*
X407835Y515534D01*
X408350Y515321D01*
X408893Y515190D01*
X409443Y515147D01*
Y514764D01*
G37*
G36*
X402559Y490157D02*X357131D01*
X357105Y490597D01*
X357002Y491025D01*
X356833Y491433D01*
X356603Y491808D01*
X356317Y492143D01*
X355982Y492430D01*
X355606Y492660D01*
X355199Y492829D01*
X354770Y492932D01*
X354331Y492966D01*
X353891Y492932D01*
X353463Y492829D01*
X353056Y492660D01*
X352680Y492430D01*
X352345Y492143D01*
X352058Y491808D01*
X351828Y491433D01*
X351660Y491025D01*
X351575Y490673D01*
X333661D01*
Y513780D01*
X358268D01*
Y501969D01*
X402559D01*
Y490157D01*
G37*
G36*
X359252Y513780D02*X419010D01*
Y505009D01*
X419003Y504921D01*
X419031Y504568D01*
Y504568D01*
X419113Y504224D01*
X419249Y503897D01*
X419319Y503782D01*
X419434Y503595D01*
X419434Y503595D01*
X419664Y503325D01*
X419731Y503268D01*
X420046Y502953D01*
X412398D01*
X412616Y503308D01*
X412829Y503823D01*
X412959Y504365D01*
X412992Y504921D01*
X412959Y505477D01*
X412829Y506020D01*
X412616Y506535D01*
X412324Y507010D01*
X411962Y507434D01*
X411538Y507797D01*
X411062Y508088D01*
X410547Y508302D01*
X410005Y508432D01*
X409449Y508475D01*
X408893Y508432D01*
X408350Y508302D01*
X407835Y508088D01*
X407360Y507797D01*
X406936Y507434D01*
X406573Y507010D01*
X406282Y506535D01*
X406069Y506020D01*
X405938Y505477D01*
X405895Y504921D01*
X405938Y504365D01*
X406069Y503823D01*
X406282Y503308D01*
X406499Y502953D01*
X359252D01*
Y513780D01*
G37*
G36*
X547508Y512795D02*X559055D01*
Y415354D01*
X547508D01*
Y427142D01*
X547520Y427141D01*
X548755Y427238D01*
X549960Y427528D01*
X551105Y428002D01*
X552162Y428650D01*
X553105Y429454D01*
X553910Y430397D01*
X554557Y431454D01*
X555031Y432599D01*
X555321Y433804D01*
X555394Y435039D01*
X555321Y436275D01*
X555031Y437480D01*
X554557Y438625D01*
X553910Y439682D01*
X553105Y440624D01*
X552162Y441429D01*
X551105Y442077D01*
X549960Y442551D01*
X548755Y442840D01*
X547520Y442938D01*
X547508Y442937D01*
Y478323D01*
X547520Y478322D01*
X548755Y478419D01*
X549960Y478709D01*
X551105Y479183D01*
X552162Y479831D01*
X553105Y480636D01*
X553910Y481578D01*
X554557Y482635D01*
X555031Y483780D01*
X555321Y484985D01*
X555394Y486220D01*
X555321Y487456D01*
X555031Y488661D01*
X554557Y489806D01*
X553910Y490863D01*
X553105Y491805D01*
X552162Y492610D01*
X551105Y493258D01*
X549960Y493732D01*
X548755Y494022D01*
X547520Y494119D01*
X547508Y494118D01*
Y512795D01*
G37*
G36*
X535333D02*X547508D01*
Y494118D01*
X546284Y494022D01*
X545079Y493732D01*
X543934Y493258D01*
X542877Y492610D01*
X541935Y491805D01*
X541130Y490863D01*
X540482Y489806D01*
X540008Y488661D01*
X539719Y487456D01*
X539621Y486220D01*
X539719Y484985D01*
X540008Y483780D01*
X540482Y482635D01*
X541130Y481578D01*
X541935Y480636D01*
X542877Y479831D01*
X543934Y479183D01*
X545079Y478709D01*
X546284Y478419D01*
X547508Y478323D01*
Y442937D01*
X546284Y442840D01*
X545079Y442551D01*
X543934Y442077D01*
X542877Y441429D01*
X541935Y440624D01*
X541130Y439682D01*
X540482Y438625D01*
X540008Y437480D01*
X539719Y436275D01*
X539621Y435039D01*
X539719Y433804D01*
X540008Y432599D01*
X540482Y431454D01*
X541130Y430397D01*
X541935Y429454D01*
X542877Y428650D01*
X543934Y428002D01*
X545079Y427528D01*
X546284Y427238D01*
X547508Y427142D01*
Y415354D01*
X535333D01*
Y419794D01*
X535790Y420539D01*
X536146Y421398D01*
X536363Y422302D01*
X536417Y423228D01*
X536363Y424155D01*
X536146Y425059D01*
X535790Y425918D01*
X535333Y426663D01*
Y431605D01*
X535790Y432350D01*
X536146Y433209D01*
X536363Y434113D01*
X536417Y435039D01*
X536363Y435966D01*
X536146Y436870D01*
X535790Y437729D01*
X535333Y438474D01*
Y443416D01*
X535790Y444161D01*
X536146Y445020D01*
X536363Y445924D01*
X536417Y446850D01*
X536363Y447777D01*
X536146Y448681D01*
X535790Y449540D01*
X535333Y450285D01*
Y472045D01*
X535416Y472054D01*
X535566Y472094D01*
X535707Y472158D01*
X535837Y472242D01*
X535952Y472346D01*
X536049Y472467D01*
X536126Y472601D01*
X536178Y472747D01*
X536317Y473291D01*
X536397Y473848D01*
X536424Y474409D01*
X536397Y474971D01*
X536317Y475528D01*
X536185Y476074D01*
X536130Y476220D01*
X536053Y476355D01*
X535955Y476476D01*
X535840Y476580D01*
X535709Y476665D01*
X535567Y476729D01*
X535417Y476770D01*
X535333Y476779D01*
Y483856D01*
X535416Y483865D01*
X535566Y483905D01*
X535707Y483969D01*
X535837Y484053D01*
X535952Y484157D01*
X536049Y484278D01*
X536126Y484412D01*
X536178Y484558D01*
X536317Y485102D01*
X536397Y485659D01*
X536424Y486220D01*
X536397Y486782D01*
X536317Y487339D01*
X536185Y487885D01*
X536130Y488031D01*
X536053Y488166D01*
X535955Y488287D01*
X535840Y488391D01*
X535709Y488476D01*
X535567Y488540D01*
X535417Y488581D01*
X535333Y488590D01*
Y495667D01*
X535416Y495676D01*
X535566Y495716D01*
X535707Y495780D01*
X535837Y495864D01*
X535952Y495968D01*
X536049Y496089D01*
X536126Y496223D01*
X536178Y496369D01*
X536317Y496913D01*
X536397Y497470D01*
X536424Y498031D01*
X536397Y498593D01*
X536317Y499150D01*
X536185Y499696D01*
X536130Y499842D01*
X536053Y499977D01*
X535955Y500098D01*
X535840Y500202D01*
X535709Y500287D01*
X535567Y500351D01*
X535417Y500392D01*
X535333Y500401D01*
Y512795D01*
G37*
G36*
Y438474D02*X535304Y438521D01*
X534701Y439228D01*
X533994Y439832D01*
X533201Y440317D01*
X532342Y440673D01*
X531438Y440890D01*
X530743Y440945D01*
X531438Y441000D01*
X532342Y441217D01*
X533201Y441572D01*
X533994Y442058D01*
X534701Y442662D01*
X535304Y443369D01*
X535333Y443416D01*
Y438474D01*
G37*
G36*
Y426663D02*X535304Y426710D01*
X534701Y427417D01*
X533994Y428021D01*
X533201Y428506D01*
X532342Y428862D01*
X531438Y429079D01*
X530743Y429134D01*
X531438Y429189D01*
X532342Y429406D01*
X533201Y429761D01*
X533994Y430247D01*
X534701Y430851D01*
X535304Y431557D01*
X535333Y431605D01*
Y426663D01*
G37*
G36*
Y415354D02*X530514D01*
Y417305D01*
X531438Y417378D01*
X532342Y417595D01*
X533201Y417950D01*
X533994Y418436D01*
X534701Y419040D01*
X535304Y419746D01*
X535333Y419794D01*
Y415354D01*
G37*
G36*
X530514Y512795D02*X535333D01*
Y500401D01*
X535263Y500408D01*
X535107Y500401D01*
X534955Y500369D01*
X534809Y500313D01*
X534674Y500236D01*
X534553Y500138D01*
X534449Y500023D01*
X534364Y499892D01*
X534300Y499750D01*
X534259Y499600D01*
X534243Y499446D01*
X534250Y499290D01*
X534285Y499139D01*
X534378Y498776D01*
X534431Y498405D01*
X534449Y498031D01*
X534431Y497658D01*
X534378Y497287D01*
X534290Y496923D01*
X534255Y496772D01*
X534247Y496618D01*
X534264Y496464D01*
X534304Y496314D01*
X534368Y496173D01*
X534452Y496043D01*
X534556Y495928D01*
X534677Y495831D01*
X534811Y495754D01*
X534956Y495699D01*
X535108Y495667D01*
X535262Y495659D01*
X535333Y495667D01*
Y488590D01*
X535263Y488597D01*
X535107Y488590D01*
X534955Y488558D01*
X534809Y488502D01*
X534674Y488425D01*
X534553Y488327D01*
X534449Y488212D01*
X534364Y488081D01*
X534300Y487939D01*
X534259Y487789D01*
X534243Y487635D01*
X534250Y487479D01*
X534285Y487328D01*
X534378Y486965D01*
X534431Y486594D01*
X534449Y486220D01*
X534431Y485846D01*
X534378Y485476D01*
X534290Y485112D01*
X534255Y484961D01*
X534247Y484807D01*
X534264Y484653D01*
X534304Y484503D01*
X534368Y484362D01*
X534452Y484232D01*
X534556Y484117D01*
X534677Y484020D01*
X534811Y483943D01*
X534956Y483888D01*
X535108Y483856D01*
X535262Y483848D01*
X535333Y483856D01*
Y476779D01*
X535263Y476786D01*
X535107Y476779D01*
X534955Y476747D01*
X534809Y476691D01*
X534674Y476614D01*
X534553Y476516D01*
X534449Y476401D01*
X534364Y476270D01*
X534300Y476128D01*
X534259Y475978D01*
X534243Y475823D01*
X534250Y475668D01*
X534285Y475517D01*
X534378Y475154D01*
X534431Y474783D01*
X534449Y474409D01*
X534431Y474035D01*
X534378Y473665D01*
X534290Y473301D01*
X534255Y473150D01*
X534247Y472996D01*
X534264Y472842D01*
X534304Y472692D01*
X534368Y472551D01*
X534452Y472421D01*
X534556Y472306D01*
X534677Y472209D01*
X534811Y472132D01*
X534956Y472077D01*
X535108Y472045D01*
X535262Y472037D01*
X535333Y472045D01*
Y450285D01*
X535304Y450332D01*
X534701Y451039D01*
X533994Y451643D01*
X533201Y452128D01*
X532342Y452484D01*
X531438Y452701D01*
X530514Y452774D01*
Y468497D01*
X531073Y468524D01*
X531630Y468604D01*
X532176Y468736D01*
X532322Y468791D01*
X532457Y468868D01*
X532578Y468966D01*
X532683Y469081D01*
X532768Y469212D01*
X532831Y469354D01*
X532872Y469504D01*
X532889Y469659D01*
X532881Y469814D01*
X532849Y469966D01*
X532794Y470112D01*
X532716Y470247D01*
X532618Y470368D01*
X532503Y470473D01*
X532373Y470558D01*
X532231Y470621D01*
X532081Y470662D01*
X531926Y470679D01*
X531770Y470671D01*
X531619Y470636D01*
X531256Y470543D01*
X530886Y470490D01*
X530514Y470473D01*
Y478346D01*
X530886Y478329D01*
X531256Y478275D01*
X531620Y478187D01*
X531771Y478152D01*
X531926Y478145D01*
X532080Y478161D01*
X532229Y478202D01*
X532371Y478265D01*
X532500Y478350D01*
X532615Y478454D01*
X532712Y478575D01*
X532790Y478709D01*
X532845Y478854D01*
X532876Y479005D01*
X532884Y479160D01*
X532868Y479314D01*
X532827Y479464D01*
X532764Y479605D01*
X532679Y479735D01*
X532575Y479850D01*
X532454Y479947D01*
X532320Y480024D01*
X532174Y480076D01*
X531630Y480215D01*
X531073Y480295D01*
X530652Y480315D01*
X531073Y480335D01*
X531630Y480415D01*
X532176Y480547D01*
X532322Y480602D01*
X532457Y480680D01*
X532578Y480777D01*
X532683Y480893D01*
X532768Y481023D01*
X532831Y481165D01*
X532872Y481315D01*
X532889Y481470D01*
X532881Y481625D01*
X532849Y481777D01*
X532794Y481923D01*
X532716Y482058D01*
X532618Y482179D01*
X532503Y482284D01*
X532373Y482369D01*
X532231Y482432D01*
X532081Y482473D01*
X531926Y482490D01*
X531770Y482482D01*
X531619Y482447D01*
X531256Y482355D01*
X530886Y482301D01*
X530514Y482284D01*
Y490157D01*
X530886Y490140D01*
X531256Y490086D01*
X531620Y489998D01*
X531771Y489964D01*
X531926Y489956D01*
X532080Y489972D01*
X532229Y490013D01*
X532371Y490076D01*
X532500Y490161D01*
X532615Y490265D01*
X532712Y490386D01*
X532790Y490520D01*
X532845Y490665D01*
X532876Y490816D01*
X532884Y490971D01*
X532868Y491125D01*
X532827Y491275D01*
X532764Y491416D01*
X532679Y491546D01*
X532575Y491661D01*
X532454Y491758D01*
X532320Y491835D01*
X532174Y491887D01*
X531630Y492026D01*
X531073Y492106D01*
X530652Y492126D01*
X531073Y492146D01*
X531630Y492226D01*
X532176Y492358D01*
X532322Y492413D01*
X532457Y492491D01*
X532578Y492588D01*
X532683Y492704D01*
X532768Y492834D01*
X532831Y492976D01*
X532872Y493126D01*
X532889Y493281D01*
X532881Y493436D01*
X532849Y493589D01*
X532794Y493734D01*
X532716Y493869D01*
X532618Y493990D01*
X532503Y494095D01*
X532373Y494180D01*
X532231Y494243D01*
X532081Y494284D01*
X531926Y494301D01*
X531770Y494293D01*
X531619Y494258D01*
X531256Y494166D01*
X530886Y494112D01*
X530514Y494095D01*
Y501968D01*
X530886Y501951D01*
X531256Y501897D01*
X531620Y501809D01*
X531771Y501775D01*
X531926Y501767D01*
X532080Y501783D01*
X532229Y501824D01*
X532371Y501887D01*
X532500Y501972D01*
X532615Y502076D01*
X532712Y502197D01*
X532790Y502331D01*
X532845Y502476D01*
X532876Y502627D01*
X532884Y502782D01*
X532868Y502936D01*
X532827Y503086D01*
X532764Y503227D01*
X532679Y503357D01*
X532575Y503472D01*
X532454Y503569D01*
X532320Y503646D01*
X532174Y503698D01*
X531630Y503837D01*
X531073Y503917D01*
X530514Y503944D01*
Y512795D01*
G37*
G36*
Y415354D02*X521124D01*
Y417840D01*
X521390Y417950D01*
X522183Y418436D01*
X522889Y419040D01*
X523493Y419746D01*
X523979Y420539D01*
X524335Y421398D01*
X524552Y422302D01*
X524598Y423096D01*
X524661Y422302D01*
X524878Y421398D01*
X525234Y420539D01*
X525719Y419746D01*
X526323Y419040D01*
X527030Y418436D01*
X527822Y417950D01*
X528681Y417595D01*
X529585Y417378D01*
X530512Y417305D01*
X530514Y417305D01*
Y415354D01*
G37*
G36*
X521124Y512795D02*X530514D01*
Y503944D01*
X530512Y503944D01*
X529950Y503917D01*
X529394Y503837D01*
X528847Y503705D01*
X528702Y503650D01*
X528567Y503572D01*
X528445Y503475D01*
X528341Y503359D01*
X528256Y503229D01*
X528192Y503087D01*
X528152Y502937D01*
X528135Y502782D01*
X528143Y502627D01*
X528175Y502474D01*
X528230Y502329D01*
X528308Y502194D01*
X528405Y502073D01*
X528521Y501968D01*
X528651Y501883D01*
X528793Y501820D01*
X528943Y501779D01*
X529098Y501762D01*
X529253Y501770D01*
X529405Y501805D01*
X529767Y501897D01*
X530138Y501951D01*
X530512Y501969D01*
X530514Y501968D01*
Y494095D01*
X530512Y494094D01*
X530138Y494112D01*
X529767Y494166D01*
X529403Y494254D01*
X529253Y494288D01*
X529098Y494296D01*
X528944Y494280D01*
X528794Y494239D01*
X528653Y494176D01*
X528523Y494091D01*
X528408Y493987D01*
X528311Y493866D01*
X528234Y493732D01*
X528179Y493587D01*
X528147Y493436D01*
X528139Y493281D01*
X528156Y493127D01*
X528196Y492977D01*
X528260Y492836D01*
X528345Y492706D01*
X528449Y492591D01*
X528569Y492494D01*
X528704Y492417D01*
X528849Y492365D01*
X529394Y492226D01*
X529950Y492146D01*
X530371Y492126D01*
X529950Y492106D01*
X529394Y492026D01*
X528847Y491894D01*
X528702Y491839D01*
X528567Y491761D01*
X528445Y491664D01*
X528341Y491548D01*
X528256Y491418D01*
X528192Y491276D01*
X528152Y491126D01*
X528135Y490971D01*
X528143Y490816D01*
X528175Y490663D01*
X528230Y490518D01*
X528308Y490383D01*
X528405Y490262D01*
X528521Y490157D01*
X528651Y490072D01*
X528793Y490009D01*
X528943Y489968D01*
X529098Y489951D01*
X529253Y489959D01*
X529405Y489994D01*
X529767Y490086D01*
X530138Y490140D01*
X530512Y490157D01*
X530514Y490157D01*
Y482284D01*
X530512Y482283D01*
X530138Y482301D01*
X529767Y482355D01*
X529403Y482443D01*
X529253Y482477D01*
X529098Y482485D01*
X528944Y482469D01*
X528794Y482428D01*
X528653Y482365D01*
X528523Y482280D01*
X528408Y482176D01*
X528311Y482055D01*
X528234Y481921D01*
X528179Y481776D01*
X528147Y481625D01*
X528139Y481470D01*
X528156Y481316D01*
X528196Y481166D01*
X528260Y481025D01*
X528345Y480895D01*
X528449Y480780D01*
X528569Y480683D01*
X528704Y480606D01*
X528849Y480554D01*
X529394Y480415D01*
X529950Y480335D01*
X530371Y480315D01*
X529950Y480295D01*
X529394Y480215D01*
X528847Y480082D01*
X528702Y480028D01*
X528567Y479950D01*
X528445Y479853D01*
X528341Y479737D01*
X528256Y479607D01*
X528192Y479465D01*
X528152Y479315D01*
X528135Y479160D01*
X528143Y479005D01*
X528175Y478852D01*
X528230Y478707D01*
X528308Y478572D01*
X528405Y478451D01*
X528521Y478346D01*
X528651Y478261D01*
X528793Y478198D01*
X528943Y478157D01*
X529098Y478140D01*
X529253Y478148D01*
X529405Y478183D01*
X529767Y478275D01*
X530138Y478329D01*
X530512Y478346D01*
X530514Y478346D01*
Y470473D01*
X530512Y470472D01*
X530138Y470490D01*
X529767Y470543D01*
X529403Y470632D01*
X529253Y470666D01*
X529098Y470674D01*
X528944Y470658D01*
X528794Y470617D01*
X528653Y470554D01*
X528523Y470469D01*
X528408Y470365D01*
X528311Y470244D01*
X528234Y470110D01*
X528179Y469965D01*
X528147Y469814D01*
X528139Y469659D01*
X528156Y469505D01*
X528196Y469355D01*
X528260Y469214D01*
X528345Y469084D01*
X528449Y468969D01*
X528569Y468872D01*
X528704Y468795D01*
X528849Y468743D01*
X529394Y468604D01*
X529950Y468524D01*
X530512Y468497D01*
X530514Y468497D01*
Y452774D01*
X530512Y452774D01*
X529585Y452701D01*
X528681Y452484D01*
X527822Y452128D01*
X527030Y451643D01*
X526323Y451039D01*
X525719Y450332D01*
X525234Y449540D01*
X524878Y448681D01*
X524661Y447777D01*
X524598Y446983D01*
X524552Y447777D01*
X524335Y448681D01*
X523979Y449540D01*
X523493Y450332D01*
X522889Y451039D01*
X522183Y451643D01*
X521390Y452128D01*
X521124Y452239D01*
Y469021D01*
X521390Y469131D01*
X522183Y469617D01*
X522889Y470221D01*
X523493Y470928D01*
X523979Y471720D01*
X524335Y472579D01*
X524552Y473483D01*
X524603Y474347D01*
X524626Y473848D01*
X524706Y473291D01*
X524839Y472745D01*
X524893Y472599D01*
X524971Y472464D01*
X525068Y472343D01*
X525184Y472239D01*
X525314Y472154D01*
X525456Y472090D01*
X525606Y472049D01*
X525761Y472033D01*
X525917Y472040D01*
X526069Y472072D01*
X526214Y472128D01*
X526349Y472205D01*
X526470Y472303D01*
X526575Y472418D01*
X526660Y472548D01*
X526724Y472690D01*
X526764Y472841D01*
X526781Y472995D01*
X526773Y473151D01*
X526738Y473302D01*
X526646Y473665D01*
X526593Y474035D01*
X526575Y474409D01*
X526593Y474783D01*
X526646Y475154D01*
X526734Y475518D01*
X526769Y475669D01*
X526776Y475823D01*
X526760Y475977D01*
X526719Y476127D01*
X526656Y476268D01*
X526571Y476398D01*
X526467Y476513D01*
X526347Y476610D01*
X526212Y476687D01*
X526068Y476742D01*
X525916Y476774D01*
X525761Y476782D01*
X525607Y476765D01*
X525458Y476725D01*
X525316Y476661D01*
X525187Y476577D01*
X525072Y476473D01*
X524975Y476352D01*
X524897Y476218D01*
X524845Y476072D01*
X524706Y475528D01*
X524626Y474971D01*
X524603Y474472D01*
X524552Y475336D01*
X524335Y476240D01*
X523979Y477099D01*
X523493Y477891D01*
X522889Y478598D01*
X522183Y479202D01*
X521390Y479688D01*
X521124Y479798D01*
Y480832D01*
X521390Y480942D01*
X522183Y481428D01*
X522889Y482032D01*
X523493Y482739D01*
X523979Y483531D01*
X524335Y484390D01*
X524552Y485294D01*
X524603Y486158D01*
X524626Y485659D01*
X524706Y485102D01*
X524839Y484556D01*
X524893Y484410D01*
X524971Y484275D01*
X525068Y484154D01*
X525184Y484050D01*
X525314Y483965D01*
X525456Y483901D01*
X525606Y483860D01*
X525761Y483844D01*
X525917Y483851D01*
X526069Y483883D01*
X526214Y483939D01*
X526349Y484016D01*
X526470Y484114D01*
X526575Y484229D01*
X526660Y484359D01*
X526724Y484501D01*
X526764Y484652D01*
X526781Y484806D01*
X526773Y484962D01*
X526738Y485113D01*
X526646Y485476D01*
X526593Y485846D01*
X526575Y486220D01*
X526593Y486594D01*
X526646Y486965D01*
X526734Y487329D01*
X526769Y487480D01*
X526776Y487634D01*
X526760Y487788D01*
X526719Y487938D01*
X526656Y488079D01*
X526571Y488209D01*
X526467Y488324D01*
X526347Y488421D01*
X526212Y488498D01*
X526068Y488553D01*
X525916Y488585D01*
X525761Y488593D01*
X525607Y488576D01*
X525458Y488536D01*
X525316Y488472D01*
X525187Y488388D01*
X525072Y488284D01*
X524975Y488163D01*
X524897Y488029D01*
X524845Y487883D01*
X524706Y487339D01*
X524626Y486782D01*
X524603Y486283D01*
X524552Y487147D01*
X524335Y488051D01*
X523979Y488910D01*
X523493Y489702D01*
X522889Y490409D01*
X522183Y491013D01*
X521390Y491499D01*
X521124Y491609D01*
Y492643D01*
X521390Y492753D01*
X522183Y493239D01*
X522889Y493843D01*
X523493Y494550D01*
X523979Y495342D01*
X524335Y496201D01*
X524552Y497105D01*
X524603Y497969D01*
X524626Y497470D01*
X524706Y496913D01*
X524839Y496367D01*
X524893Y496221D01*
X524971Y496086D01*
X525068Y495965D01*
X525184Y495861D01*
X525314Y495776D01*
X525456Y495712D01*
X525606Y495671D01*
X525761Y495655D01*
X525917Y495662D01*
X526069Y495694D01*
X526214Y495750D01*
X526349Y495827D01*
X526470Y495925D01*
X526575Y496040D01*
X526660Y496170D01*
X526724Y496312D01*
X526764Y496463D01*
X526781Y496617D01*
X526773Y496773D01*
X526738Y496924D01*
X526646Y497287D01*
X526593Y497658D01*
X526575Y498031D01*
X526593Y498405D01*
X526646Y498776D01*
X526734Y499140D01*
X526769Y499291D01*
X526776Y499445D01*
X526760Y499599D01*
X526719Y499749D01*
X526656Y499890D01*
X526571Y500020D01*
X526467Y500135D01*
X526347Y500232D01*
X526212Y500309D01*
X526068Y500364D01*
X525916Y500396D01*
X525761Y500404D01*
X525607Y500387D01*
X525458Y500347D01*
X525316Y500283D01*
X525187Y500199D01*
X525072Y500095D01*
X524975Y499974D01*
X524897Y499840D01*
X524845Y499694D01*
X524706Y499150D01*
X524626Y498593D01*
X524603Y498094D01*
X524552Y498958D01*
X524335Y499862D01*
X523979Y500721D01*
X523493Y501513D01*
X522889Y502220D01*
X522183Y502824D01*
X521390Y503310D01*
X521124Y503420D01*
Y512795D01*
G37*
G36*
Y491609D02*X520531Y491854D01*
X519627Y492071D01*
X518932Y492126D01*
X519627Y492181D01*
X520531Y492398D01*
X521124Y492643D01*
Y491609D01*
G37*
G36*
Y479798D02*X520531Y480043D01*
X519627Y480260D01*
X518932Y480315D01*
X519627Y480370D01*
X520531Y480587D01*
X521124Y480832D01*
Y479798D01*
G37*
G36*
X490157Y415354D02*Y512795D01*
X521124D01*
Y503420D01*
X520531Y503665D01*
X519627Y503882D01*
X518701Y503955D01*
X517774Y503882D01*
X516870Y503665D01*
X516011Y503310D01*
X515219Y502824D01*
X514512Y502220D01*
X513908Y501513D01*
X513423Y500721D01*
X513067Y499862D01*
X512850Y498958D01*
X512777Y498031D01*
X512850Y497105D01*
X513067Y496201D01*
X513423Y495342D01*
X513908Y494550D01*
X514512Y493843D01*
X515219Y493239D01*
X516011Y492753D01*
X516870Y492398D01*
X517774Y492181D01*
X518469Y492126D01*
X517774Y492071D01*
X516870Y491854D01*
X516011Y491499D01*
X515219Y491013D01*
X514512Y490409D01*
X513908Y489702D01*
X513423Y488910D01*
X513067Y488051D01*
X512850Y487147D01*
X512777Y486220D01*
X512850Y485294D01*
X513067Y484390D01*
X513423Y483531D01*
X513908Y482739D01*
X514512Y482032D01*
X515219Y481428D01*
X516011Y480942D01*
X516870Y480587D01*
X517774Y480370D01*
X518469Y480315D01*
X517774Y480260D01*
X516870Y480043D01*
X516011Y479688D01*
X515219Y479202D01*
X514512Y478598D01*
X513908Y477891D01*
X513423Y477099D01*
X513067Y476240D01*
X512850Y475336D01*
X512777Y474409D01*
X512850Y473483D01*
X513067Y472579D01*
X513423Y471720D01*
X513908Y470928D01*
X514512Y470221D01*
X515219Y469617D01*
X516011Y469131D01*
X516870Y468776D01*
X517774Y468559D01*
X518701Y468486D01*
X519627Y468559D01*
X520531Y468776D01*
X521124Y469021D01*
Y452239D01*
X520531Y452484D01*
X519627Y452701D01*
X518701Y452774D01*
X517774Y452701D01*
X516870Y452484D01*
X516011Y452128D01*
X515219Y451643D01*
X514512Y451039D01*
X513908Y450332D01*
X513423Y449540D01*
X513067Y448681D01*
X512850Y447777D01*
X512777Y446850D01*
X512850Y445924D01*
X513067Y445020D01*
X513423Y444161D01*
X513908Y443369D01*
X514512Y442662D01*
X515219Y442058D01*
X516011Y441572D01*
X516870Y441217D01*
X517774Y441000D01*
X518469Y440945D01*
X517774Y440890D01*
X516870Y440673D01*
X516011Y440317D01*
X515219Y439832D01*
X514512Y439228D01*
X513908Y438521D01*
X513682Y438151D01*
X513658Y438248D01*
X513418Y438829D01*
X513089Y439366D01*
X512680Y439845D01*
X512201Y440254D01*
X511664Y440583D01*
X511082Y440824D01*
X510470Y440971D01*
X509843Y441020D01*
X509215Y440971D01*
X508603Y440824D01*
X508021Y440583D01*
X507484Y440254D01*
X507005Y439845D01*
X506596Y439366D01*
X506268Y438829D01*
X506027Y438248D01*
X505880Y437636D01*
X505830Y437008D01*
X505880Y436380D01*
X506027Y435768D01*
X506268Y435186D01*
X506596Y434649D01*
X507005Y434171D01*
X507484Y433762D01*
X508021Y433433D01*
X508603Y433192D01*
X509215Y433045D01*
X509843Y432996D01*
X510470Y433045D01*
X511082Y433192D01*
X511664Y433433D01*
X512201Y433762D01*
X512680Y434171D01*
X512831Y434348D01*
X512850Y434113D01*
X513067Y433209D01*
X513423Y432350D01*
X513908Y431557D01*
X514512Y430851D01*
X515219Y430247D01*
X516011Y429761D01*
X516870Y429406D01*
X517774Y429189D01*
X518469Y429134D01*
X517774Y429079D01*
X516870Y428862D01*
X516011Y428506D01*
X515219Y428021D01*
X514512Y427417D01*
X513908Y426710D01*
X513423Y425918D01*
X513067Y425059D01*
X512850Y424155D01*
X512777Y423228D01*
X512850Y422302D01*
X513067Y421398D01*
X513423Y420539D01*
X513908Y419746D01*
X514512Y419040D01*
X515219Y418436D01*
X516011Y417950D01*
X516870Y417595D01*
X517774Y417378D01*
X518701Y417305D01*
X519627Y417378D01*
X520531Y417595D01*
X521124Y417840D01*
Y415354D01*
X490157D01*
G37*
G54D88*X38386Y149606D02*X135827Y52165D01*
X48228Y151575D02*X145669Y54134D01*
X52165Y151575D02*X148622Y55118D01*
X44291Y151575D02*X142717Y53150D01*
X139764Y52165D02*X41339Y150591D01*
X44291Y177165D02*Y151575D01*
X52165Y176181D02*Y151575D01*
X63976Y176181D02*Y143701D01*
X69882Y176181D02*Y141732D01*
X75787Y176181D02*Y141732D01*
X80709Y180118D02*Y149606D01*
X131890Y125984D02*X100394Y157480D01*
X41339Y150591D02*Y180118D01*
X44291Y183071D01*
X144685Y120079D02*X102362Y162402D01*
X161417Y19685D02*X167323Y13780D01*
X169291Y15748D02*X165354Y19685D01*
X170276D02*X172244Y17717D01*
X170276Y41339D02*X187992Y23622D01*
X181102Y39370D02*X192913Y27559D01*
X195866Y29528D02*X181102Y44291D01*
X174213Y40354D02*X188976Y25591D01*
X181102Y50197D02*X199803Y31496D01*
X206693Y35433D02*X180118Y62008D01*
X209646Y37402D02*X180118Y66929D01*
X202756Y33465D02*X176181Y60039D01*
X212598Y39370D02*X180118Y71850D01*
X178150Y78740D02*X197835Y59055D01*
X63976Y143701D02*X151575Y56102D01*
X69882Y141732D02*X155512Y56102D01*
Y62008D02*X75787Y141732D01*
X151575Y56102D02*Y53150D01*
X80709Y149606D02*X155512Y74803D01*
X84646Y151575D02*X155512Y80709D01*
Y85630D02*X93504Y147638D01*
X155512Y90551D02*X96457Y149606D01*
X159449Y91535D02*X98425Y152559D01*
X155512Y67913D02*X159449Y71850D01*
X161417Y183071D02*Y19685D01*
X165354D02*Y181102D01*
X152559Y176181D02*Y112205D01*
X150591Y174213D02*Y117126D01*
X159449Y71850D02*Y91535D01*
X145669Y54134D02*Y43307D01*
X148622Y55118D02*Y46260D01*
X155512Y39370D01*
X151575Y53150D02*X155512Y49213D01*
X135827Y37402D02*X155512Y17717D01*
X145669Y43307D02*X155512Y33465D01*
X135827Y52165D02*Y37402D01*
X142717Y53150D02*Y41339D01*
X139764Y38386D02*Y52165D01*
X142717Y41339D02*X155512Y28543D01*
Y22638D02*X139764Y38386D01*
X128937Y11811D02*X102362Y38386D01*
X125000Y58071D02*Y23622D01*
X198819Y176181D02*X192913Y170276D01*
X190945Y106299D02*X196850Y112205D01*
X204724Y179134D02*X196850Y171260D01*
Y135827D01*
X185039Y136811D02*X189961Y131890D01*
X201772D01*
X43307Y304134D02*Y245079D01*
X58071Y309055D02*Y248031D01*
X36417Y233268D02*Y304134D01*
X17717Y494094D02*X63976Y447835D01*
X61024Y294291D02*Y256890D01*
X104331Y249016D02*Y317913D01*
X63976Y447835D02*X110236D01*
X61024Y256890D02*X66929Y250984D01*
X65945Y450787D02*X114173D01*
X97441Y314961D02*X86614Y325787D01*
X109252Y307087D02*X115157Y312992D01*
X74803Y352362D02*X97441D01*
X66929Y338583D02*X8858D01*
G54D89*Y507874D02*Y133858D01*
G54D88*X85630Y219488D02*Y313976D01*
X97441Y219488D02*Y314961D01*
X101378Y215551D02*X97441Y219488D01*
X120079Y211614D02*X101378Y230315D01*
X40354Y476378D02*X65945Y450787D01*
X128937Y479331D02*Y501969D01*
X154528Y484252D02*X163386Y475394D01*
X181102Y404528D02*X175197Y410433D01*
X163386Y475394D02*Y321850D01*
X172244Y318898D02*Y363189D01*
X175197Y366142D01*
X165354Y313976D02*Y462598D01*
X173228Y470472D02*X165354Y462598D01*
X129921Y439961D02*X140748Y450787D01*
X119094Y455709D02*Y438976D01*
X110236Y447835D02*X119094Y438976D01*
X135827Y472441D02*X119094Y455709D01*
X172244Y311024D02*X170276Y312992D01*
X176181Y314961D02*X172244Y318898D01*
X170276Y312992D02*Y443898D01*
X176181Y314961D02*Y296260D01*
X196850Y383858D02*Y232283D01*
X192913Y385827D02*Y229331D01*
X194882Y384843D02*Y230315D01*
X196850Y232283D02*X198819Y230315D01*
X192913Y229331D02*X194882Y227362D01*
Y230315D02*X196850Y228346D01*
X187992Y196850D02*Y138780D01*
X198819Y230315D02*Y176181D01*
X194882Y227362D02*Y203740D01*
X187992Y196850D01*
X196850Y228346D02*Y189961D01*
X191929Y185039D01*
X161417Y183071D02*X165354Y187008D01*
X203740Y341535D02*Y277559D01*
G54D89*X36417Y416339D02*X8858D01*
Y507874D02*X30512Y529528D01*
X31496Y528543D02*X39370Y520669D01*
X145669Y408465D02*Y482283D01*
G54D88*X97441Y352362D02*X145669Y400591D01*
Y407480D01*
X194882Y404528D02*X181102D01*
X203740Y390748D02*X196850Y383858D01*
X199803Y392717D02*X192913Y385827D01*
X201772Y391732D02*X194882Y384843D01*
X208661Y486220D02*X203740Y481299D01*
G54D89*X145669Y482283D02*X196850Y533465D01*
G54D88*X199803Y518701D02*X208661Y527559D01*
X201772Y500000D02*X208661Y506890D01*
X203740Y481299D02*Y390748D01*
X199803Y518701D02*Y392717D01*
X201772Y500000D02*Y391732D01*
X55118Y587598D02*X62992Y595472D01*
X56102Y575787D02*X61024Y570866D01*
X67913D01*
X84646Y554134D01*
X66929Y552165D02*X53150Y565945D01*
X68898Y526575D02*Y534449D01*
X78740Y544291D01*
G54D89*X39370Y520669D02*X97441D01*
G54D88*X63976Y575787D02*X73819D01*
X83661Y563976D02*X98425Y578740D01*
X84646Y554134D02*X115157D01*
X121063Y552165D02*X66929D01*
X78740Y544291D02*X126969D01*
X62992Y595472D02*X110236D01*
X73819Y575787D02*X88583Y590551D01*
X83661Y573819D02*X94488Y584646D01*
X110236Y595472D02*X114173Y591535D01*
X83661Y568898D02*X95472Y580709D01*
X88583Y590551D02*X106299D01*
X94488Y584646D02*X121063D01*
X95472Y580709D02*X125000D01*
X156496Y590551D02*Y573819D01*
X141732Y559055D01*
X155512Y562992D02*Y547244D01*
X159449Y568898D02*Y547244D01*
X155512D02*X162402Y540354D01*
X159449Y547244D02*X164370Y542323D01*
X115157Y554134D02*X126969Y565945D01*
X130906Y562008D02*X121063Y552165D01*
X140748Y545276D02*X145669Y550197D01*
X126969Y544291D02*X131890Y549213D01*
X125000Y580709D02*X134843Y590551D01*
X127953Y578740D02*X145669Y596457D01*
X205709D01*
X211614Y590551D01*
X198819Y556102D02*X212598D01*
X196850Y573819D02*X187008Y563976D01*
X199803Y590551D02*X203740D01*
X190945Y562008D02*X186024Y557087D01*
X172244D01*
X121063Y565945D02*X124016Y568898D01*
X129921D01*
X130906Y567913D01*
Y562008D01*
X98425Y578740D02*X127953D01*
X110236Y575787D02*X134843D01*
X137795Y572835D01*
Y510827D01*
X128937Y501969D01*
G54D89*X93504Y526575D02*Y537402D01*
X103346Y526575D02*X97441Y520669D01*
G54D88*X95472D02*X112205Y503937D01*
X140748Y450787D02*Y545276D01*
X84646Y198819D02*Y151575D01*
X93504Y147638D02*Y190945D01*
X96457Y192913D02*Y149606D01*
X102362Y162402D02*Y207677D01*
X91535Y218504D01*
Y248031D01*
X131890Y234252D02*X125984Y228346D01*
X115157Y234252D02*Y248031D01*
X146654Y182087D02*X152559Y176181D01*
X141732Y194882D02*Y221457D01*
X158465Y218504D02*X142717Y234252D01*
X141732Y230315D02*X158465Y213583D01*
X164370Y273622D02*X133858Y304134D01*
X166339Y280512D02*X137795Y309055D01*
X163386Y321850D02*X157480Y315945D01*
Y297244D01*
X127953Y292323D02*X123031Y297244D01*
X114173D01*
X178150Y241142D02*X133858Y285433D01*
X79724Y203740D02*X84646Y198819D01*
X73819Y215551D02*X96457Y192913D01*
X53150Y238189D02*X80709D01*
X98425Y196850D02*X89567Y205709D01*
X100394Y199803D02*X77756Y222441D01*
X69882D02*X77756D01*
X93504Y190945D02*X88583Y195866D01*
X98425Y152559D02*Y196850D01*
X100394Y157480D02*Y199803D01*
X48228Y200787D02*Y151575D01*
X58071Y248031D02*X47244Y237205D01*
X26575Y211614D02*X53150Y238189D01*
X38386Y149606D02*Y185039D01*
X165354Y187008D02*Y221457D01*
X172244Y280512D02*X166339D01*
X164370Y273622D02*X172244D01*
X119094Y187008D02*X146654Y159449D01*
X107283Y185039D02*X146654Y145669D01*
X112205Y187008D02*X146654Y152559D01*
X112205Y187008D02*Y197835D01*
X107283Y185039D02*Y194882D01*
X165354Y221457D02*X131890Y254921D01*
X141732Y250984D02*X165354Y227362D01*
X161417Y197835D02*Y221457D01*
X138780Y244094D01*
X142717Y234252D02*X131890D01*
X188976Y242126D02*X157480Y273622D01*
X176181Y236220D02*Y60039D01*
X158465Y213583D02*Y98425D01*
X155512Y197835D02*Y103346D01*
X178150Y78740D02*Y241142D01*
X185039Y136811D02*Y240157D01*
X176181Y236220D02*X122047Y290354D01*
X115157Y248031D02*X109252Y253937D01*
Y307087D01*
X125000Y300197D02*X185039Y240157D01*
X174213Y233268D02*X125984Y281496D01*
X101378Y230315D02*Y325787D01*
X17717Y183071D02*X23622Y188976D01*
X29528D01*
X32480Y191929D01*
Y196850D01*
X68898Y233268D01*
X77756D01*
X93504Y211614D02*X85630Y219488D01*
G54D90*X392717Y363189D02*X440945D01*
X396654Y374016D02*X443898D01*
X453740Y364173D01*
X420276Y412402D02*X458661Y374016D01*
X430118Y416339D02*X463583Y382874D01*
X466535Y394685D02*X438976Y422244D01*
X470472Y405512D02*X450787Y425197D01*
G54D88*X337598Y301181D02*X325787D01*
X354331Y344488D02*X333661D01*
X328740Y349409D02*X333661Y344488D01*
X328740Y321850D02*X353346D01*
X354331Y369094D02*X330709D01*
X328740Y367126D01*
X337598Y430118D02*X317913D01*
X329724Y445866D02*X333661Y441929D01*
X354331D01*
X326772Y470472D02*X338583D01*
X329724Y489173D02*X354331D01*
X329724Y445866D02*Y453740D01*
G54D90*X395669Y437008D02*X413386D01*
X420276Y430118D01*
Y412402D01*
X430118Y436024D02*Y416339D01*
X395669Y446850D02*X419291D01*
X430118Y436024D01*
X426181Y482283D02*Y452756D01*
X438976Y439961D02*Y422244D01*
X426181Y452756D02*X438976Y439961D01*
X396654Y203740D02*X436024D01*
X393701Y193898D02*X440945D01*
X466535Y179134D02*X419291Y131890D01*
X476378Y175197D02*X422244Y121063D01*
X423228Y485236D02*X399606D01*
X429134Y495079D02*X399606D01*
X423228Y485236D02*X426181Y482283D01*
X429134Y495079D02*X431102D01*
X436024Y490157D02*Y457677D01*
X448819Y444882D01*
Y427165D01*
X449803Y426181D01*
G54D88*X454724Y521654D02*Y555118D01*
X446850Y562992D01*
X427165Y518701D02*X416339Y529528D01*
G54D89*X414370Y525591D02*X421260Y518701D01*
Y504921D01*
X424213Y501969D01*
X451772D01*
G54D88*X448819Y521654D02*X442913Y527559D01*
Y555118D01*
X437008Y561024D01*
Y518701D02*Y523622D01*
X425197Y535433D01*
X428150Y537402D02*X440945Y524606D01*
G54D89*X473425Y509843D02*X459646D01*
G54D90*X431102Y495079D02*X436024Y490157D01*
G54D89*X459646Y509843D02*X451772Y501969D01*
G54D88*X431102Y523622D02*X421260Y533465D01*
X430118Y512795D02*Y519685D01*
X427165Y506890D02*Y518701D01*
X430118Y519685D02*X418307Y531496D01*
G54D89*X482283Y500984D02*Y464567D01*
X473425Y509843D02*X482283Y500984D01*
G54D88*X264764Y86614D02*Y449803D01*
X225394Y369094D02*Y448819D01*
X245079Y349409D02*X225394Y369094D01*
X213583Y347441D02*Y283465D01*
X254921Y196850D02*Y250984D01*
X247047Y258858D01*
Y265748D01*
X254921Y324803D02*Y257874D01*
X239173Y94488D02*Y97441D01*
X237205Y194882D02*Y220472D01*
X233268Y224409D01*
X226378Y104331D02*Y106299D01*
Y210630D02*Y188976D01*
X247047Y89567D02*Y103346D01*
X250000Y106299D01*
X257874Y158465D02*X262795D01*
X242126Y184055D02*X254921Y196850D01*
X250984Y233268D02*X224409Y259843D01*
X248031Y199803D02*Y232283D01*
X218504Y261811D01*
X250984Y233268D02*Y197835D01*
X231299Y183071D02*X248031Y199803D01*
X188976Y242126D02*Y203740D01*
X216535Y179134D02*X204724D01*
X250984Y197835D02*X234252Y181102D01*
X270669Y194882D02*X274606D01*
X270669Y188976D02*X277559D01*
X204724Y246063D02*X232283Y218504D01*
X325787Y231299D02*X333661Y223425D01*
X353346D01*
X328740Y247047D02*X325787Y244094D01*
X353346Y247047D02*X328740D01*
X333661Y200787D02*X352362D01*
X330709Y203740D02*X333661Y200787D01*
X318898Y177165D02*Y392717D01*
X269685Y441929D01*
X320866Y393701D02*X271654Y442913D01*
X294291Y175197D02*X274606Y194882D01*
X294291Y277559D02*X296260Y275591D01*
X320866Y176181D02*Y393701D01*
X318898Y177165D02*X315945Y174213D01*
X308071D01*
X320866Y176181D02*X314961Y170276D01*
X298228Y166339D02*Y283465D01*
X296260Y275591D02*Y164370D01*
X292323Y174213D02*X277559Y188976D01*
X297244Y123031D02*X295276Y125000D01*
X277559D01*
X292323Y174213D02*Y158465D01*
X294291Y175197D02*Y159449D01*
X300197Y164370D02*X298228Y166339D01*
X308071Y174213D02*X304134Y170276D01*
X292323Y158465D02*X301181Y149606D01*
X308071Y153543D02*X311024Y150591D01*
X308071Y153543D02*X300197D01*
X294291Y159449D02*X300197Y153543D01*
Y164370D02*X306102D01*
X311024Y159449D01*
X251969Y453740D02*X256890Y458661D01*
X228346Y371063D02*Y447835D01*
X224409Y259843D02*Y326772D01*
X218504Y261811D02*Y362205D01*
X224409Y326772D02*X237205Y339567D01*
X249016D01*
Y350394D01*
X228346Y371063D01*
X218504Y362205D02*X225394Y369094D01*
X259843Y329724D02*X254921Y324803D01*
X259843Y451772D02*Y329724D01*
X251969Y453740D02*Y270669D01*
X247047Y265748D02*X251969Y270669D01*
X218504Y411417D02*Y471457D01*
X222441Y475394D01*
Y500000D01*
X235236Y512795D01*
X446850Y562992D02*X275591D01*
X437008Y561024D02*X270669D01*
X253937Y537402D02*X428150D01*
X416339Y529528D02*X222441D01*
X425197Y535433D02*X233268D01*
X421260Y533465D02*X229331D01*
X418307Y531496D02*X225394D01*
X234252Y557087D02*X253937Y537402D01*
G54D89*X220472Y525591D02*X414370D01*
G54D88*X248031Y471457D02*X225394Y448819D01*
X248031Y461614D02*X242126D01*
X248031Y471457D02*X264764D01*
X265748Y467520D02*X257874D01*
X242126Y461614D02*X228346Y447835D01*
X269685Y441929D02*Y457677D01*
X271654Y442913D02*Y461614D01*
X269685Y457677D02*X262795Y464567D01*
X271654Y461614D02*X265748Y467520D01*
X269685Y568898D02*X275591Y562992D01*
X234252Y564961D02*Y557087D01*
X262795Y555118D02*X252953Y564961D01*
X244094D01*
X267717Y542323D02*X262795Y547244D01*
Y555118D01*
X276575Y543307D02*X272638Y547244D01*
Y554134D01*
X270669Y561024D02*X262795Y568898D01*
X272638Y554134D02*X252953Y573819D01*
G54D89*X196850Y533465D02*X212598D01*
X220472Y525591D01*
G54D88*X210630Y552165D02*X191929D01*
X214567Y542323D02*X164370D01*
X211614Y540354D02*X162402D01*
X222441Y529528D02*X211614Y540354D01*
X212598Y556102D02*X233268Y535433D01*
X226378Y562008D02*X233268Y568898D01*
X240157D01*
X244094Y564961D01*
X210630Y552165D02*X229331Y533465D01*
X252953Y573819D02*X196850D01*
X199803Y590551D02*X178150Y568898D01*
X226378Y562008D02*X190945D01*
X225394Y531496D02*X214567Y542323D01*
G54D90*X466535Y239173D02*X512795Y285433D01*
X446850Y245079D02*X505906Y304134D01*
X456693Y242126D02*X508858Y294291D01*
X440945Y193898D02*X456693Y209646D01*
Y242126D01*
X436024Y203740D02*X446850Y214567D01*
Y245079D01*
X397638Y241142D02*X430118D01*
X504921Y315945D01*
X426181Y252953D02*X448819Y275591D01*
Y309055D01*
X396654Y314961D02*X440945D01*
X397638Y252953D02*X426181D01*
X525591Y253937D02*X530512Y258858D01*
X519685Y253937D02*X525591D01*
X530512Y258858D02*Y264764D01*
X504921Y315945D02*X518701D01*
X508858Y294291D02*X526575D01*
X530512Y298228D01*
Y304134D01*
X500984Y235236D02*X519685Y253937D01*
G54D88*X511811Y203740D02*X508858Y200787D01*
G54D90*X490157Y104331D02*Y236220D01*
Y237205D02*X517717Y264764D01*
X476378Y236220D02*X516732Y276575D01*
X476378Y236220D02*Y175197D01*
X500984Y94488D02*Y235236D01*
X466535Y239173D02*Y179134D01*
G54D88*X508858Y200787D02*Y81693D01*
G54D90*X512795Y285433D02*X525591D01*
X505906Y304134D02*X518701D01*
X525591Y325787D02*X530512Y320866D01*
Y315945D01*
X525591Y285433D02*X530512Y280512D01*
Y276575D01*
X465551Y325787D02*X524606D01*
X448819Y309055D02*X465551Y325787D01*
X440945Y314961D02*X460630Y334646D01*
X525591D02*X460630D01*
X437008Y325787D02*X454724Y343504D01*
X518701D01*
X530512D02*Y339567D01*
X525591Y334646D02*X530512Y339567D01*
X395669Y325787D02*X437008D01*
X440945Y363189D02*X448819Y355315D01*
X518701D01*
X453740Y364173D02*X523622D01*
X525591D02*X530512Y359252D01*
Y355315D01*
X458661Y374016D02*X526575D01*
X530512Y377953D01*
Y382874D01*
X463583D02*X518701D01*
X466535Y394685D02*X517717D01*
X470472Y405512D02*X525591D01*
X530512Y400591D02*Y394685D01*
X525591Y405512D02*X530512Y400591D01*
G54D88*X167323Y13780D02*X470472D01*
X128937Y11811D02*X521654D01*
X469488Y15748D02*X169291D01*
X187992Y23622D02*X420276D01*
X170276Y24606D02*X175197Y19685D01*
X183071Y21654D02*X421260D01*
X175197Y19685D02*X422244D01*
X172244Y17717D02*X423228D01*
X432087Y19685D02*X446850D01*
X188976Y25591D02*X419291D01*
X192913Y27559D02*X418307D01*
X195866Y29528D02*X417323D01*
X199803Y31496D02*X416339D01*
X415354Y33465D02*X202756D01*
X414370Y35433D02*X206693D01*
X413386Y37402D02*X209646D01*
X412402Y39370D02*X212598D01*
G54D90*X419291Y131890D02*X399606D01*
X422244Y121063D02*X399606D01*
G54D88*X170276Y34449D02*X183071Y21654D01*
X334646Y72835D02*X312992D01*
X352362Y77756D02*X331693D01*
X328740Y80709D01*
Y84646D01*
X352362Y101378D02*X331693D01*
X352362Y125000D02*X328740D01*
X331693Y101378D02*X328740Y104331D01*
X235236Y112205D02*X196850D01*
X418307Y27559D02*X447835Y57087D01*
X449803Y53150D02*X420276Y23622D01*
X419291Y25591D02*X448819Y55118D01*
X446850Y59055D02*X417323Y29528D01*
X448819Y63976D02*X416339Y31496D01*
X443898Y62008D02*X415354Y33465D01*
X437992Y59055D02*X414370Y35433D01*
X433071Y57087D02*X413386Y37402D01*
X427165Y54134D02*X412402Y39370D01*
X443898Y62008D02*Y63976D01*
X514764Y61024D02*Y70866D01*
X423228Y17717D02*X450787Y45276D01*
X454724D01*
X256890Y95472D02*Y116142D01*
X242126Y130906D01*
Y184055D01*
X253937Y98425D02*Y114173D01*
X250984Y95472D02*X253937Y98425D01*
X257874Y85630D02*X262795Y90551D01*
X181102Y227362D02*Y101378D01*
X184055Y98425D01*
X224409Y132874D02*X231299D01*
X174213Y233268D02*Y40354D01*
X229331Y129921D02*X204724D01*
X253937Y79724D02*X239173Y94488D01*
X252953Y77756D02*X226378Y104331D01*
X254921Y81693D02*X247047Y89567D01*
X232283Y218504D02*Y201772D01*
X262795Y90551D02*Y201772D01*
X259843Y204724D01*
X254921Y257874D02*X259843Y252953D01*
Y204724D01*
X253937Y114173D02*X234252Y133858D01*
Y181102D01*
X231299Y132874D02*Y183071D01*
X250000Y107283D02*Y114173D01*
X231299Y132874D01*
X241142Y118110D02*X235236Y112205D01*
X272638Y123031D02*Y86614D01*
X270669Y124016D02*Y87598D01*
X274606Y122047D02*Y85630D01*
X272638Y86614D02*X265748Y79724D01*
X266732Y77756D02*X252953D01*
X265748Y79724D02*X253937D01*
X270669Y87598D02*X264764Y81693D01*
X254921D01*
X274606Y85630D02*X266732Y77756D01*
X284449Y158465D02*X264764D01*
X302165Y137795D02*X291339Y126969D01*
X301181Y143701D02*X286417Y128937D01*
X291339Y126969D02*X276575D01*
X272638Y123031D01*
X286417Y128937D02*X275591D01*
X270669Y124016D01*
X277559Y125000D02*X274606Y122047D01*
X324803Y187992D02*X335630D01*
X308071Y140748D02*X305118Y143701D01*
X328740Y104331D02*Y106299D01*
X316929Y123031D02*X318898Y125000D01*
X305118Y143701D02*X301181D01*
X296260Y164370D02*X301181Y159449D01*
X313976Y137795D02*X318898Y132874D01*
Y125000D01*
X304134Y129921D02*X308071Y133858D01*
Y140748D01*
X297244Y123031D02*X316929D01*
G54D90*X389764Y71850D02*X478346D01*
X500984Y94488D01*
X395669Y83661D02*X469488D01*
X490157Y104331D01*
G54D88*X433071Y57087D02*Y63976D01*
X427165Y54134D02*Y63976D01*
X437992D02*Y59055D01*
X516732Y81693D02*X520669Y77756D01*
Y63976D02*Y77756D01*
X533465Y23622D02*Y106299D01*
X529528Y110236D01*
X520669Y63976D02*X470472Y13780D01*
X469488Y15748D02*X514764Y61024D01*
X521654Y11811D02*X533465Y23622D01*
X508858Y62008D02*X470472Y23622D01*
X422244Y19685D02*X451772Y49213D01*
X450787Y51181D02*X421260Y21654D01*
X454724Y57087D02*X461614Y63976D01*
X446850Y59055D02*X450787D01*
X455709Y63976D01*
X447835Y57087D02*X454724D01*
X448819Y55118D02*X458661D01*
X449803Y53150D02*X461614D01*
X458661Y55118D02*X467520Y63976D01*
X461614Y53150D02*X468504Y60039D01*
X450787Y51181D02*X465551D01*
X469488Y55118D01*
X451772Y49213D02*X469488D01*
X470472Y23622D02*X455709D01*
X508858Y81693D02*X446850Y19685D01*
G54D87*G36*
X27512Y521701D02*Y515701D01*
X33512D01*
Y521701D01*
X27512D01*
G37*
G54D91*X126969Y526575D03*
X121063Y495079D03*
G54D87*G36*
X90504Y529575D02*Y523575D01*
X96504D01*
Y529575D01*
X90504D01*
G37*
G54D91*X103504Y526575D03*
X113504D03*
X30512Y528701D03*
G54D92*X25591Y355315D03*
Y481299D03*
G54D91*X30512Y538701D03*
Y548701D03*
G54D87*G36*
X51134Y588630D02*Y582630D01*
X57134D01*
Y588630D01*
X51134D01*
G37*
G54D91*X64134Y585630D03*
X54134Y575630D03*
X64134D03*
X54134Y565630D03*
X64134D03*
G54D87*G36*
X125937Y441976D02*Y435976D01*
X131937D01*
Y441976D01*
X125937D01*
G37*
G54D91*X118937Y438976D03*
X108937D03*
X100394Y414370D03*
G54D87*G36*
X191882Y407528D02*Y401528D01*
X197882D01*
Y407528D01*
X191882D01*
G37*
G54D91*X194882Y394528D03*
X239173Y412402D03*
X302165Y439961D03*
X209646Y451772D03*
X257362Y552244D03*
G54D87*G36*
X254362Y545244D02*Y539244D01*
X260362D01*
Y545244D01*
X254362D01*
G37*
G54D91*X267362Y552244D03*
Y542244D03*
X277362Y552244D03*
Y542244D03*
X287362Y552244D03*
Y542244D03*
X297362Y552244D03*
X307362D03*
X317362D03*
X297362Y542244D03*
X307362D03*
X317362D03*
X327362Y552244D03*
X337362D03*
X347362D03*
X357362D03*
X327362Y542244D03*
X337362D03*
X347362D03*
X357362D03*
X367362Y552244D03*
X377362D03*
X387362D03*
X397362D03*
X407362D03*
X367362Y542244D03*
X377362D03*
X387362D03*
X397362D03*
X407362D03*
G54D93*X520669Y46181D03*
G54D94*X515079Y73346D03*
Y84252D03*
X526260Y78799D03*
X515079Y95157D03*
X526260Y89705D03*
G54D92*X410433Y91535D03*
X418307D03*
G54D94*X518425Y343307D03*
Y355118D03*
X530236D03*
Y343307D03*
X518425Y382677D03*
Y394488D03*
X530236D03*
Y382677D03*
X518425Y303937D03*
Y264567D03*
Y276378D03*
G54D93*X520669Y231378D03*
G54D94*X530236Y315748D03*
Y303937D03*
Y276378D03*
Y264567D03*
X530512Y423228D03*
Y435039D03*
Y446850D03*
X515079Y116969D03*
Y127874D03*
Y138780D03*
Y149685D03*
Y160591D03*
Y171496D03*
Y182402D03*
Y193307D03*
Y204213D03*
X518701Y423228D03*
Y435039D03*
Y446850D03*
G54D87*G36*
X508071Y564567D02*Y555118D01*
X517520D01*
Y564567D01*
X508071D01*
G37*
G54D95*X512795Y543307D03*
Y526772D03*
X491142Y559843D03*
Y543307D03*
Y526772D03*
G54D94*X515079Y106063D03*
X526260Y100610D03*
Y111516D03*
Y122421D03*
Y133327D03*
Y144232D03*
Y155138D03*
Y166043D03*
Y176949D03*
Y187854D03*
Y198760D03*
G54D92*X411417Y212598D03*
X419291D03*
G54D94*X518701Y474409D03*
Y486220D03*
Y498031D03*
X530512Y474409D03*
Y486220D03*
Y498031D03*
G54D91*X417362Y552244D03*
Y542244D03*
X427362Y552244D03*
Y542244D03*
X437362Y552244D03*
Y542244D03*
X447362Y552244D03*
Y542244D03*
G54D96*X238189Y495079D03*
G54D87*G36*
X205661Y490205D02*Y484205D01*
X211661D01*
Y490205D01*
X205661D01*
G37*
G54D91*X208661Y497205D03*
Y507205D03*
Y517205D03*
Y527205D03*
X175197Y410433D03*
G54D92*X285433Y506890D03*
Y499016D03*
X233268Y445866D03*
X241142D03*
G54D96*X466535Y495079D03*
G54D92*X409449Y456693D03*
X417323D03*
X409449Y477362D03*
X417323D03*
X409449Y429134D03*
Y415354D03*
Y504921D03*
G54D91*X476378Y562992D03*
X62992Y70866D03*
G54D87*G36*
X13732Y206740D02*Y200740D01*
X19732D01*
Y206740D01*
X13732D01*
G37*
G54D91*X26732Y203740D03*
X16732Y193740D03*
X26732D03*
X16732Y183740D03*
X26732D03*
X50197Y270669D03*
G54D87*G36*
X200740Y124063D02*Y118063D01*
X206740D01*
Y124063D01*
X200740D01*
G37*
G54D92*X250984Y140748D03*
X258858D03*
G54D91*X203740Y131063D03*
Y141063D03*
Y151063D03*
Y161063D03*
Y171063D03*
G54D92*X250984Y173228D03*
X258858D03*
G54D91*X301181Y73819D03*
G54D92*X250984Y62008D03*
X258858D03*
G54D91*X237205Y84646D03*
X223425Y79724D03*
X302992Y188937D03*
X312992Y198937D03*
X302992D03*
G54D92*X409449Y139764D03*
X410433Y63976D03*
Y50197D03*
Y112205D03*
X409449Y153543D03*
X410433Y172244D03*
G54D94*X518425Y315748D03*
G54D96*X238189Y302165D03*
X466535D03*
G54D92*X409449Y307087D03*
Y293307D03*
G54D91*X295276Y312992D03*
G54D92*X409449Y333661D03*
X232283Y326772D03*
X240157D03*
X417323Y333661D03*
X409449Y381890D03*
Y395669D03*
X410433Y354331D03*
X418307D03*
G54D91*X208661Y302165D03*
Y322835D03*
G54D92*X410433Y233268D03*
X418307D03*
X410433Y186024D03*
X418307Y112205D03*
X409449Y260827D03*
Y274606D03*
Y518701D03*
X248031Y383858D03*
X255906D03*
X250984Y261811D03*
X258858D03*
G54D91*X204724Y246063D03*
X288386Y191929D03*
X218504Y190945D03*
G54D87*G36*
X309992Y131937D02*Y125937D01*
X315992D01*
Y131937D01*
X309992D01*
G37*
G54D91*X302992Y128937D03*
X312992Y138937D03*
X302992D03*
X312992Y148937D03*
X302992D03*
X312992Y158937D03*
X302992D03*
X312992Y168937D03*
X302992D03*
X312992Y178937D03*
X302992D03*
X312992Y188937D03*
G54D97*X267717Y390748D03*
X276575D03*
X267717Y382874D03*
X285433Y390748D03*
Y382874D03*
X276575D03*
X280512Y378937D03*
X276575Y375000D03*
X285433D03*
X256890Y390748D03*
X236220Y375000D03*
X243110D03*
X236220Y380906D03*
G54D98*X249016Y339567D03*
X245079Y349409D03*
G54D97*X243110Y380906D03*
X236220Y385827D03*
X243110D03*
Y390748D03*
X236220D03*
X221457Y324803D03*
Y312008D03*
X222441Y446850D03*
Y437008D03*
G54D98*X220472Y384843D03*
X218504Y411417D03*
X223425Y355315D03*
X252953Y336614D03*
G54D97*X228346Y321850D03*
X249016Y323819D03*
Y328740D03*
X232283Y317913D03*
X227362D03*
X221457D03*
X241142Y318898D03*
X249016D03*
Y314961D03*
G54D98*X263780Y327756D03*
X186024Y357283D03*
X175197Y366142D03*
X257874Y327756D03*
X203740Y365157D03*
Y341535D03*
X213583Y347441D03*
G54D99*X276575Y363189D03*
X281496D03*
X276575Y358268D03*
X281496D03*
G54D98*X278543Y443898D03*
X175197Y327756D03*
X172244Y311024D03*
X165354Y313976D03*
X176181Y296260D03*
X145669Y255906D03*
X157480Y297244D03*
X127953Y292323D03*
X203740Y277559D03*
X213583Y283465D03*
G54D99*X286417Y363189D03*
Y353346D03*
Y348425D03*
Y358268D03*
X276575Y353346D03*
X281496D03*
X276575Y348425D03*
X281496D03*
X276575Y343504D03*
X281496D03*
X286417D03*
X276575Y338583D03*
X281496D03*
X276575Y333661D03*
X281496D03*
X286417Y338583D03*
Y328740D03*
Y333661D03*
X276575Y328740D03*
X281496D03*
G54D98*X278543Y321850D03*
G54D97*X232283Y439961D03*
Y433071D03*
X240157D03*
Y439961D03*
X248031D03*
Y433071D03*
Y451772D03*
G54D98*X264764Y449803D03*
X256890Y458661D03*
X259843Y451772D03*
X257874Y468504D03*
X262795Y464567D03*
X248031Y461614D03*
X247047Y480315D03*
X217520Y475394D03*
X236220Y512795D03*
X263780Y470472D03*
G54D99*X276575Y475394D03*
Y480315D03*
X286417Y475394D03*
Y480315D03*
X281496Y475394D03*
Y470472D03*
Y480315D03*
X276575Y470472D03*
Y465551D03*
Y459646D03*
Y449803D03*
Y455709D03*
X286417Y470472D03*
Y465551D03*
Y459646D03*
Y449803D03*
Y455709D03*
X281496Y465551D03*
Y459646D03*
Y449803D03*
Y455709D03*
G54D98*X181102Y446850D03*
X173228Y470472D03*
X171260Y443898D03*
G54D91*X145669Y499016D03*
G54D98*X154528Y484252D03*
X181102Y472441D03*
X169291Y479331D03*
X187008Y477362D03*
Y495079D03*
X180118D03*
X187008Y501969D03*
X180118D03*
X187008Y508858D03*
Y515748D03*
X160433Y400591D03*
Y389764D03*
Y379921D03*
Y370079D03*
Y360236D03*
Y350394D03*
Y340551D03*
X149606D03*
Y350394D03*
Y330709D03*
X128937Y479331D03*
X121063D03*
X114173Y450787D03*
X136811Y460630D03*
X135827Y472441D03*
G54D91*X145669Y408465D03*
G54D98*X160433Y430118D03*
Y420276D03*
Y410433D03*
X158465Y450787D03*
G54D97*X295276Y488189D03*
X297244Y492126D03*
Y497047D03*
X292323D03*
X279528Y508858D03*
X292323D03*
X298228D03*
X303150Y505906D03*
X309055Y508858D03*
X279528Y497047D03*
G54D99*X276575Y484252D03*
X286417D03*
X281496D03*
G54D98*X353346Y520669D03*
X357283Y516732D03*
X360236Y520669D03*
X364173Y516732D03*
X367126Y520669D03*
X372047Y518701D03*
X377953D03*
X337598Y510827D03*
X345472D03*
Y505906D03*
X337598D03*
X380906Y499016D03*
X383858Y494094D03*
X354331Y490157D03*
X380906Y510827D03*
X381890Y505906D03*
X380906Y486220D03*
X383858Y481299D03*
X382874Y474409D03*
X338583Y478346D03*
X346457D03*
Y471457D03*
X338583D03*
X326772Y470472D03*
X329724Y489173D03*
X349409Y279528D03*
X357283D03*
X365157D03*
X373031D03*
X298228Y283465D03*
X294291Y277559D03*
X369094Y275591D03*
X361220D03*
Y283465D03*
X353346Y275591D03*
X336614Y267717D03*
X344488D03*
Y262795D03*
X336614D03*
X361220Y290354D03*
X349409Y287402D03*
X357283D03*
X353346Y283465D03*
X349409Y294291D03*
X357283D03*
X353346Y290354D03*
X380906Y279528D03*
Y294291D03*
X382874Y301181D03*
X376969Y275591D03*
Y283465D03*
Y290354D03*
X365157Y287402D03*
X373031D03*
X369094Y283465D03*
X365157Y294291D03*
X373031D03*
X369094Y290354D03*
X382874Y268701D03*
Y262795D03*
X381890Y254921D03*
X382874Y307087D03*
X380906Y316929D03*
X383858Y312008D03*
X381890Y328740D03*
X384843Y323819D03*
X337598Y308071D03*
Y303150D03*
X345472Y308071D03*
Y303150D03*
X325787Y301181D03*
X328740Y321850D03*
X354331Y320866D03*
X381890Y388780D03*
Y382874D03*
X336614Y388780D03*
X344488D03*
Y383858D03*
X336614D03*
X354331Y369094D03*
Y395669D03*
X380906Y365157D03*
X383858Y360236D03*
X380906Y353346D03*
X384843Y347441D03*
X380906Y341535D03*
X384843Y336614D03*
X336614Y340551D03*
X344488D03*
Y335630D03*
X336614D03*
X354331Y344488D03*
X328740Y350394D03*
X337598Y357283D03*
X345472D03*
X337598Y350394D03*
X345472D03*
X328740Y367126D03*
X381890Y376969D03*
X384843Y372047D03*
X374016Y399606D03*
X381890D03*
X377953Y395669D03*
X370079D03*
X350394Y399606D03*
Y407480D03*
X358268D03*
X362205Y403543D03*
X354331D03*
X350394Y414370D03*
X354331Y410433D03*
X358268Y399606D03*
X366142D03*
X362205Y395669D03*
X374016Y407480D03*
X377953Y403543D03*
X370079D03*
X377953Y410433D03*
X358268Y414370D03*
X366142D03*
X374016D03*
X381890D03*
X366142Y407480D03*
X370079Y410433D03*
X362205D03*
X381890Y422244D03*
Y427165D03*
X380906Y438976D03*
X383858Y434055D03*
X380906Y450787D03*
X383858Y445866D03*
X382874Y462598D03*
X337598Y461614D03*
X345472D03*
Y456693D03*
X354331Y441929D03*
X337598Y456693D03*
X329724Y453740D03*
X345472Y430118D03*
X337598D03*
X317913D03*
X345472Y425197D03*
X337598D03*
G54D97*X407480Y105315D03*
X406496Y226378D03*
X411417D03*
X405512Y348425D03*
X410433D03*
X428150Y90551D03*
X427165Y217520D03*
Y211614D03*
X426181Y348425D03*
Y339567D03*
Y332677D03*
X421260Y343504D03*
G54D98*X403543Y185039D03*
X395669Y190945D03*
X392717Y195866D03*
X398622D03*
X395669Y202756D03*
X392717Y207677D03*
X398622D03*
X399606Y215551D03*
X392717D03*
X395669Y232283D03*
Y220472D03*
X393701Y243110D03*
X399606D03*
X396654Y238189D03*
X399606Y226378D03*
X392717D03*
X387795Y254921D03*
X393701D03*
X399606D03*
X396654Y250000D03*
X398622Y347441D03*
Y336614D03*
X391732Y347441D03*
X387795Y341535D03*
X394685D03*
X391732Y336614D03*
G54D97*X433071Y356299D03*
Y347441D03*
G54D98*X396654Y388780D03*
Y382874D03*
X402559D03*
Y388780D03*
X399606Y376969D03*
X396654Y372047D03*
X394685Y353346D03*
G54D94*X432087Y382874D03*
G54D99*X488189Y435039D03*
Y429134D03*
G54D98*X494094Y430118D03*
Y426181D03*
G54D99*X484252Y435039D03*
Y429134D03*
X480315D03*
X476378D03*
X488189Y423228D03*
X484252D03*
X488189Y417323D03*
X480315Y423228D03*
X476378D03*
X484252Y417323D03*
X480315D03*
X476378D03*
G54D98*X508858Y430118D03*
G54D91*X509843Y437008D03*
G54D98*X508858Y426181D03*
G54D97*X423228Y101378D03*
G54D98*X432087Y19685D03*
X469488Y61024D03*
Y49213D03*
Y55118D03*
X483268Y41339D03*
X484252Y88583D03*
X467520Y64961D03*
X508858Y62008D03*
X484252Y65945D03*
X461614Y64961D03*
X455709Y23622D03*
X454724Y45276D03*
X455709Y64961D03*
X449803D03*
X443898D03*
X437992D03*
X433071D03*
X427165D03*
X440945Y108268D03*
X483268Y124016D03*
G54D97*X412402Y105315D03*
G54D98*X396654Y140748D03*
X402559D03*
G54D97*X427165Y113189D03*
X434055D03*
X427165Y105315D03*
X434055Y104331D03*
Y97441D03*
X427165Y96457D03*
X434055Y90551D03*
Y211614D03*
G54D98*X396654Y157480D03*
Y146654D03*
X402559D03*
X397638Y185039D03*
Y179134D03*
X403543D03*
X483268Y198819D03*
Y171260D03*
Y226378D03*
Y145669D03*
G54D97*X427165Y234252D03*
Y226378D03*
X422244Y222441D03*
X426181Y356299D03*
X434055Y234252D03*
Y225394D03*
Y218504D03*
X433071Y339567D03*
Y332677D03*
G54D98*X397638Y268701D03*
Y262795D03*
X403543D03*
Y268701D03*
X390748Y250000D03*
X386811Y316929D03*
X392717D03*
X389764Y312008D03*
X397638Y307087D03*
Y301181D03*
X403543D03*
Y307087D03*
X398622Y316929D03*
X395669Y312008D03*
X387795Y328740D03*
X393701D03*
X396654Y323819D03*
X390748D03*
X399606Y328740D03*
X398622Y365157D03*
X386811D03*
X392717D03*
X395669Y360236D03*
X389764D03*
X387795Y376969D03*
X393701D03*
X390748Y372047D03*
X387795Y353346D03*
G54D99*X488189Y446850D03*
X484252D03*
X488189Y440945D03*
X480315Y446850D03*
X476378D03*
X484252Y440945D03*
X480315D03*
X476378D03*
X480315Y435039D03*
X476378D03*
G54D91*X482283Y464567D03*
G54D98*X396654Y427165D03*
X402559D03*
X396654Y422244D03*
X402559D03*
X386811Y437992D03*
X392717Y438976D03*
X398622D03*
X395669Y434055D03*
X389764D03*
X386811Y450787D03*
X392717D03*
X395669Y445866D03*
X389764D03*
X398622Y450787D03*
Y486220D03*
X393701Y468504D03*
X389764Y462598D03*
X386811Y457677D03*
X396654Y462598D03*
X393701Y457677D03*
X386811Y486220D03*
X395669Y481299D03*
X389764D03*
Y474409D03*
X396654D03*
X386811Y468504D03*
Y499016D03*
X392717Y486220D03*
Y499016D03*
X398622D03*
X395669Y494094D03*
X389764D03*
G54D99*X462598Y456693D03*
Y460630D03*
X465551Y456693D03*
Y460630D03*
X462598Y464567D03*
X465551D03*
X459646D03*
X456693D03*
X468504D03*
X459646Y456693D03*
Y460630D03*
X456693Y456693D03*
Y460630D03*
X453740D03*
Y464567D03*
G54D98*X454724Y449803D03*
G54D99*X453740Y456693D03*
X468504D03*
Y460630D03*
X462598Y472441D03*
Y468504D03*
X465551Y472441D03*
Y468504D03*
X468504Y472441D03*
Y468504D03*
X462598Y480315D03*
Y476378D03*
X465551Y480315D03*
Y476378D03*
X468504Y480315D03*
Y476378D03*
X459646Y472441D03*
Y468504D03*
X456693Y472441D03*
Y468504D03*
X459646Y480315D03*
Y476378D03*
X456693Y480315D03*
Y476378D03*
X453740Y472441D03*
Y476378D03*
Y468504D03*
Y480315D03*
X389764Y598425D03*
Y590551D03*
Y582677D03*
G54D98*X416339Y580709D03*
G54D99*X389764Y574803D03*
Y566929D03*
G54D98*X393701Y518701D03*
X400591D03*
X392717Y509843D03*
X398622D03*
Y504921D03*
X392717D03*
X454724Y521654D03*
X448819D03*
X440945Y524606D03*
X437008Y518701D03*
X431102Y523622D03*
X430118Y512795D03*
X427165Y505906D03*
G54D97*X237205Y67913D03*
X239173Y148622D03*
Y142717D03*
Y137795D03*
Y132874D03*
X245079Y62992D03*
Y58071D03*
Y148622D03*
Y142717D03*
Y137795D03*
Y132874D03*
X267717Y140748D03*
X259843Y133858D03*
G54D98*X263780Y85630D03*
X256890Y95472D03*
X250984D03*
X257874Y85630D03*
X250000Y106299D03*
X241142Y118110D03*
X239173Y97441D03*
G54D97*X264764Y67913D03*
X257874D03*
Y55118D03*
X267717D03*
X275591D03*
X280512D03*
X289370D03*
X252953D03*
X245079Y67913D03*
X252953D03*
G54D98*X249016Y49213D03*
G54D97*X237205Y62992D03*
Y58071D03*
G54D91*X235236Y44291D03*
G54D98*X280512Y43307D03*
X278543Y79724D03*
X213583Y45276D03*
X155512Y22638D03*
X170276Y24606D03*
Y34449D03*
Y19685D03*
X155512Y33465D03*
Y28543D03*
Y39370D03*
Y49213D03*
Y56102D03*
X170276Y41339D03*
X180118Y44291D03*
Y50197D03*
Y62008D03*
Y39370D03*
X155512Y17717D03*
G54D91*X145669Y16732D03*
G54D98*X197835Y87598D03*
Y79724D03*
Y59055D03*
X229331Y115157D03*
X197835Y108268D03*
X224409Y132874D03*
X214567D03*
X229331Y129921D03*
X191929Y145669D03*
X187992Y138780D03*
X196850Y135827D03*
X190945Y106299D03*
X226378D03*
X180118Y66929D03*
X170276Y63976D03*
X155512Y85630D03*
Y90551D03*
X157480Y98425D03*
X155512Y103346D03*
X180118Y71850D03*
X184055Y98425D03*
X155512Y62008D03*
Y67913D03*
Y73819D03*
Y80709D03*
X170276Y134843D03*
X185039Y106299D03*
X78740Y227362D03*
X80709Y238189D03*
X70866Y228346D03*
X77756Y233268D03*
X48228Y200787D03*
X79724Y203740D03*
X73819Y215551D03*
X69882Y222441D03*
X130906D03*
X141732Y230315D03*
X125984Y228346D03*
X112205Y202756D03*
Y197835D03*
X107283Y194882D03*
X161417Y197835D03*
X141732Y194882D03*
X88583Y195866D03*
X141732Y221457D03*
X158465Y218504D03*
X115157Y235236D03*
X124016Y223425D03*
X93504Y211614D03*
X101378Y215551D03*
X28543Y255906D03*
X26575Y211614D03*
X44291Y177165D03*
X52165Y176181D03*
X63976D03*
X69882D03*
X75787D03*
X80709Y180118D03*
X47244Y250000D03*
X43307Y245079D03*
X46260Y236220D03*
X36417Y233268D03*
X141732Y175197D03*
X165354Y181102D03*
X119094Y187008D03*
X146654Y182087D03*
X151575Y185039D03*
X120079Y211614D03*
X89567Y205709D03*
X90551Y188976D03*
X88583Y152559D03*
Y173228D03*
X125984Y191929D03*
G54D97*X287402Y140748D03*
Y134843D03*
X288386Y168307D03*
G54D98*X263780Y206693D03*
X284449Y158465D03*
G54D99*X277559Y207677D03*
G54D98*X278543Y200787D03*
X270669Y188976D03*
Y194882D03*
G54D97*X267717Y174213D03*
X281496D03*
G54D99*X286417Y207677D03*
X282480D03*
G54D97*X237205Y253937D03*
Y258858D03*
Y263780D03*
Y268701D03*
G54D98*Y194882D03*
G54D97*X244094Y253937D03*
Y258858D03*
Y263780D03*
Y268701D03*
G54D98*X181102Y227362D03*
X191929Y185039D03*
X226378Y188976D03*
X216535Y179134D03*
X225394Y235236D03*
X191929Y217520D03*
X200787Y235236D03*
X233268Y224409D03*
X226378Y210630D03*
X192913Y170276D03*
X155512Y197835D03*
X170276D03*
X131890Y125000D03*
X151575Y111220D03*
X149606Y116142D03*
X144685Y120079D03*
X143701Y114173D03*
X141732Y250984D03*
X165354Y227362D03*
X149606Y174213D03*
X146654Y145669D03*
Y159449D03*
Y152559D03*
G54D97*X260827Y266732D03*
X267717Y268701D03*
X276575D03*
Y261811D03*
X267717D03*
X281496Y258858D03*
X276575Y253937D03*
G54D99*X277559Y242126D03*
G54D97*X286417Y268701D03*
Y261811D03*
Y253937D03*
G54D99*Y242126D03*
X282480D03*
X286417Y232283D03*
X282480D03*
X286417Y227362D03*
X282480D03*
X286417Y222441D03*
X282480D03*
X287402Y217520D03*
X282480D03*
X286417Y237205D03*
X282480D03*
X287402Y212598D03*
X282480D03*
G54D97*X267717Y168307D03*
X275591D03*
X281496D03*
X275591Y174213D03*
X257874Y179134D03*
Y167323D03*
X245079Y179134D03*
X250984D03*
G54D98*X255906Y216535D03*
X248031Y227362D03*
X250984Y216535D03*
X259843Y208661D03*
G54D97*X245079Y173228D03*
Y167323D03*
X250984D03*
G54D98*X234252Y156496D03*
X242126D03*
G54D99*X277559Y232283D03*
Y227362D03*
Y222441D03*
Y217520D03*
Y237205D03*
Y212598D03*
G54D98*X257874Y158465D03*
X29528Y299213D03*
X44291Y304134D03*
X58071Y309055D03*
X36417Y304134D03*
X129921Y330709D03*
X85630Y313976D03*
X86614Y325787D03*
G54D91*X36417Y416339D03*
G54D98*X40354Y430118D03*
X69882D03*
X79724D03*
X89567D03*
X100394D03*
X110236D03*
X120079D03*
X129921D03*
X139764D03*
Y400591D03*
Y420276D03*
X129921D03*
X139764Y410433D03*
X120079Y420276D03*
Y410433D03*
X129921D03*
Y400591D03*
Y389764D03*
X120079Y379921D03*
X74803Y352362D03*
X60039Y350394D03*
Y360236D03*
X66929Y338583D03*
X60039Y330709D03*
X50197D03*
X40354D03*
X139764D03*
X120079D03*
X40354Y350394D03*
X50197D03*
Y360236D03*
X40354D03*
G54D97*X239173Y180118D03*
Y175197D03*
Y168307D03*
G54D98*X188976Y203740D03*
X232283Y201772D03*
X192913Y192913D03*
X122047Y272638D03*
X105315Y243110D03*
X131890Y254921D03*
X137795Y244094D03*
X104331Y249016D03*
X115157Y256890D03*
X125984Y281496D03*
X133858Y285433D03*
X122047Y290354D03*
X124016Y300197D03*
X101378Y325787D03*
X104331Y317913D03*
X115157Y312992D03*
X114173Y297244D03*
X151575Y248031D03*
X157480Y273622D03*
X172244D03*
X133858Y304134D03*
X137795Y309055D03*
X172244Y280512D03*
X82677Y259843D03*
X91535Y248031D03*
X50197Y310039D03*
X61024Y294291D03*
X69882Y270669D03*
X76772Y254921D03*
X66929Y250984D03*
X38386Y185039D03*
G54D91*Y141732D03*
G54D98*X44291Y183071D03*
G54D91*X50197Y124016D03*
X8858Y133858D03*
X14764Y145669D03*
G54D98*X4921Y125000D03*
X13780Y155512D03*
X24606D03*
X60039D03*
X4921Y115157D03*
Y105315D03*
Y95472D03*
Y85630D03*
Y74803D03*
X24606D03*
X14764D03*
Y85630D03*
X24606D03*
X4921Y64961D03*
X14764D03*
X24606D03*
X35433D03*
X45276D03*
X55118D03*
Y74803D03*
Y85630D03*
X64961D03*
Y95472D03*
Y105315D03*
Y115157D03*
X55118D03*
Y105315D03*
Y95472D03*
X45276Y85630D03*
Y74803D03*
X35433D03*
Y85630D03*
X62992Y11811D03*
X80709Y18701D03*
X62992Y40354D03*
X118110Y29528D03*
X102362Y38386D03*
X125000Y58071D03*
Y23622D03*
G54D97*X259843Y147638D03*
X267717D03*
X281496D03*
X287402D03*
X281496Y140748D03*
Y134843D03*
G54D99*X278543Y120079D03*
X287402D03*
X283465D03*
X278543Y116142D03*
X287402D03*
X283465D03*
X278543Y111220D03*
X287402D03*
X283465D03*
X278543Y106299D03*
X287402D03*
X283465D03*
X278543Y101378D03*
Y95472D03*
Y85630D03*
Y91535D03*
X287402Y101378D03*
X283465D03*
X287402Y95472D03*
X283465D03*
X287402Y85630D03*
X283465D03*
X287402Y91535D03*
X283465D03*
G54D98*X312992Y72835D03*
X340551Y61024D03*
X346457D03*
X343504Y65945D03*
X337598D03*
X379921Y73819D03*
Y62008D03*
X382874Y58071D03*
X385827Y62008D03*
Y73819D03*
X391732D03*
Y86614D03*
X397638D03*
X399606Y80709D03*
X394685D03*
X388780D03*
X397638Y73819D03*
Y62008D03*
X400591Y58071D03*
X403543Y62008D03*
X400591Y68898D03*
X394685D03*
X388780D03*
X382874D03*
X328740Y84646D03*
X352362Y77756D03*
X336614Y97441D03*
X340551Y93504D03*
X343504Y97441D03*
X379921Y86614D03*
X385827D03*
X382874Y80709D03*
X394685Y98425D03*
X398622Y93504D03*
X391732D03*
X384843D03*
X380906Y110236D03*
X387795D03*
X394685D03*
X398622Y104331D03*
X391732D03*
X384843D03*
X380906Y98425D03*
Y133858D03*
Y122047D03*
X387795Y98425D03*
Y133858D03*
X384843Y127953D03*
X387795Y122047D03*
X384843Y117126D03*
X395669Y133858D03*
X398622Y127953D03*
X391732D03*
X395669Y122047D03*
X398622Y117126D03*
X391732D03*
X381890Y140748D03*
X352362Y125000D03*
X328740D03*
X352362Y101378D03*
X328740Y107283D03*
X335630Y109252D03*
X343504D03*
X339567Y105315D03*
X335630Y144685D03*
X340551D03*
X345472D03*
X343504Y139764D03*
X337598Y140748D03*
X354331Y153543D03*
X350394Y157480D03*
X358268D03*
X354331Y161417D03*
X366142Y157480D03*
X374016D03*
X381890D03*
X377953Y153543D03*
X370079D03*
X362205D03*
Y161417D03*
X370079D03*
X381890Y146654D03*
X366142Y165354D03*
X374016D03*
X381890D03*
X377953Y161417D03*
Y168307D03*
X366142Y172244D03*
X370079Y168307D03*
X362205D03*
X374016Y172244D03*
X381890D03*
X382874Y185039D03*
Y179134D03*
X350394Y165354D03*
X358268D03*
X350394Y172244D03*
X358268D03*
X354331Y168307D03*
X336614Y187992D03*
X344488D03*
X324803D03*
X344488Y181102D03*
X336614D03*
X380906Y195866D03*
X386811D03*
X389764Y190945D03*
X383858D03*
X380906Y207677D03*
X386811D03*
X389764Y202756D03*
X383858D03*
X381890Y232283D03*
Y243110D03*
X384843Y238189D03*
Y250000D03*
X388780Y232283D03*
X387795Y243110D03*
X390748Y238189D03*
X385827Y226378D03*
Y215551D03*
X381890Y220472D03*
X388780D03*
X337598D03*
Y215551D03*
X336614Y227362D03*
X330709Y204724D03*
X345472Y220472D03*
Y215551D03*
X344488Y234252D03*
Y227362D03*
X353346Y223425D03*
Y199803D03*
X336614Y234252D03*
X325787Y232283D03*
Y244094D03*
X353346Y247047D03*
G54D99*X342520Y598425D03*
X350394D03*
X358268D03*
X366142D03*
X374016D03*
X381890D03*
X287402D03*
X295276D03*
X287402Y593504D03*
X295276D03*
X303150Y598425D03*
X305118Y590551D03*
X310039Y592520D03*
X318898Y593504D03*
X305118Y582677D03*
X287402Y566929D03*
G54D98*X276575Y568898D03*
X269685D03*
X262795D03*
G54D99*X297244Y585630D03*
X300197D03*
X294291D03*
X291339D03*
X288386D03*
X297244Y579724D03*
X300197D03*
X294291D03*
X291339D03*
X288386D03*
X297244Y573819D03*
X300197D03*
X294291D03*
X291339D03*
X288386D03*
X326772Y590551D03*
Y582677D03*
X334646Y590551D03*
Y582677D03*
X342520D03*
Y590551D03*
X350394D03*
X358268D03*
X366142D03*
X374016D03*
X381890D03*
X350394Y582677D03*
X358268D03*
X366142D03*
X374016D03*
X381890D03*
X311024Y598425D03*
X318898D03*
X326772D03*
X334646D03*
X305118Y574803D03*
X295276Y566929D03*
X303150D03*
X311024D03*
X318898D03*
X326772D03*
X334646D03*
X342520D03*
X350394D03*
X358268D03*
X366142D03*
X374016D03*
X381890D03*
G54D98*X169291Y568898D03*
X159449D03*
X155512Y562992D03*
X83661Y568898D03*
Y562992D03*
X92520Y559055D03*
X134843Y568898D03*
X126969Y565945D03*
X121063D03*
X141732Y559055D03*
X145669Y550197D03*
X131890Y549213D03*
X95472Y547244D03*
X93504Y537402D03*
G54D91*X95472Y500984D03*
G54D98*X112205Y503937D03*
X68898Y526575D03*
X194882Y524606D03*
G54D91*X187992Y535433D03*
G54D98*X79724Y545276D03*
X40354Y476378D03*
X18701Y495079D03*
G54D99*X326772Y574803D03*
X334646D03*
X342520D03*
X350394D03*
X358268D03*
X366142D03*
X374016D03*
X381890D03*
G54D98*X22638Y579724D03*
X121063Y584646D03*
X110236Y575787D03*
X83661Y573819D03*
X249016Y568898D03*
X227362D03*
X210630Y569882D03*
X185039Y568898D03*
X178150D03*
X187008Y563976D03*
X234252Y564961D03*
X228346Y553150D03*
X198819Y556102D03*
X191929Y552165D03*
X165354Y555118D03*
X172244Y557087D03*
X129921Y555118D03*
X184055Y552165D03*
X81693Y591535D03*
X106299Y590551D03*
X114173Y591535D03*
X134843Y590551D03*
X125984Y589567D03*
X156496Y590551D03*
X203740D03*
X211614D03*
G54D100*G54D101*G54D100*G54D101*G54D100*G54D101*G54D100*G54D101*G54D100*G54D101*G54D100*G54D101*G54D100*G54D101*G54D102*G54D101*G54D102*G54D101*G54D100*G54D101*G54D100*G54D101*G54D100*G54D101*G54D103*G54D100*G54D101*G54D100*G54D101*G54D102*G54D101*G54D100*G54D101*G54D100*G54D101*G54D100*G54D101*G54D100*G54D101*G54D100*G54D102*G54D101*G54D100*G54D101*G54D100*G54D101*G54D100*G54D101*G54D100*G54D101*G54D100*G54D101*G54D100*G54D102*G54D101*G54D102*G54D101*G54D100*G54D101*G54D100*G54D101*G54D100*G54D101*G54D100*G54D101*G54D100*G54D101*G54D100*G54D101*G54D100*G54D101*G54D102*G54D101*G54D100*G54D101*G54D102*G54D101*G54D102*G54D101*G54D100*G54D101*G54D100*G54D101*G54D100*G54D101*G54D102*G54D101*G54D102*G54D101*G54D100*G54D101*G54D104*G54D105*G54D106*G54D105*G54D107*G54D105*G54D106*G54D105*G54D106*G54D105*G54D108*G54D109*G54D104*G54D109*G54D107*G54D110*G54D111*G54D110*G54D111*G54D108*G54D111*G54D110*G54D111*G54D110*G54D111*G54D110*G54D109*G54D104*G54D111*G54D112*G54D109*G54D107*G54D110*G54D111*G54D110*G54D105*G54D110*G54D105*G54D106*G54D107*G54D110*G54D107*G54D106*G54D104*G54D106*G54D105*G54D106*G54D105*G54D107*G54D105*G54D107*G54D106*G54D107*G54D106*G54D105*G54D107*G54D111*G54D110*G54D107*G54D106*G54D107*G54D106*G54D107*G54D106*G54D105*M02*
