M48
INCH
T138C0.035
T137C0.020
T136C0.038
T135C0.080
T134C0.050
T133C0.070
%
T137
X001050Y064976
X001370Y069736
X001400Y076756
X001890Y076356
X002190Y074126
X002590Y072176
X002990Y071886
X003030Y017186
X003310Y016556
X003780Y057476
X003800Y016316
X003890Y015646
X003930Y068206
X004080Y057006
X004390Y056536
X004630Y067236
X005140Y056176
X005470Y056826
X005520Y019016
X005811Y064837
X005930Y019116
X006300Y069326
X006400Y007436
X006400Y006836
X006400Y006136
X006430Y019216
X006500Y014036
X006500Y005436
X006500Y004936
X006530Y064736
X006600Y004536
X006600Y003936
X006700Y003436
X006770Y065306
X006772Y010727
X006980Y019526
X007120Y069186
X007200Y005836
X007590Y019856
X008268Y011514
X008530Y065206
X008976Y011908
X009010Y027956
X009130Y023116
X009240Y020246
X009252Y010727
X009370Y048436
X009430Y054706
X009528Y011869
X009560Y028176
X009685Y027144
X010050Y044026
X010300Y068796
X010510Y028506
X010520Y071136
X010600Y047256
X010640Y061136
X010690Y043706
X010950Y027426
X010960Y028856
X010984Y046829
X011020Y085206
X011300Y039716
X011300Y029306
X011320Y039146
X011330Y038366
X011380Y027696
X011700Y011026
X011720Y046376
X011730Y013146
X011750Y030666
X011860Y056356
X011860Y021606
X011929Y052774
X012000Y022876
X012150Y046036
X012350Y065506
X012510Y014826
X012530Y024056
X012540Y045516
X012590Y056596
X012640Y011696
X012700Y020996
X012740Y081846
X012740Y010816
X013050Y025716
X013080Y020576
X013100Y007906
X013110Y007144
X013130Y011996
X013180Y042016
X013180Y026586
X013228Y043877
X013400Y073786
X013425Y014743
X013430Y020206
X013460Y081226
X013543Y047105
X013583Y038719
X013600Y085646
X013630Y069886
X013630Y020666
X013650Y025716
X013690Y083686
X013740Y002976
X013900Y051886
X013900Y050226
X013937Y046711
X013937Y032499
X013940Y062016
X013950Y057326
X013980Y068486
X014010Y075626
X014030Y059896
X014050Y082406
X014080Y025526
X014104Y045619
X014210Y074456
X014252Y053129
X014300Y075076
X014330Y063996
X014350Y083296
X014370Y046396
X014370Y006554
X014380Y084176
X014480Y027586
X014488Y039546
X014510Y073126
X014600Y007806
X014620Y065696
X014640Y056516
X014650Y058846
X014724Y047577
X014730Y059926
X014760Y015226
X014760Y014666
X014880Y081856
X014920Y064256
X014950Y011186
X014980Y026796
X015040Y073816
X015050Y010016
X015090Y020316
X015150Y011866
X015290Y010536
X015300Y072146
X015310Y007726
X015340Y014586
X015394Y035766
X015480Y064476
X015500Y080746
X015590Y076506
X015680Y083416
X015790Y059346
X015840Y082726
X015860Y053846
X015860Y045336
X015870Y066046
X015910Y068696
X015950Y022676
X016030Y018436
X016110Y066846
X016120Y083666
X016181Y046396
X016210Y066376
X016220Y014016
X016220Y014900
X016230Y048516
X016260Y006554
X016270Y052796
X016299Y053286
X016299Y012774
X016320Y018826
X016330Y084156
X016360Y008036
X016378Y046908
X016410Y076256
X016450Y075536
X016460Y080176
X016568Y067119
X016570Y082636
X016600Y060036
X016610Y019206
X016620Y075136
X016830Y019546
X016900Y053836
X016910Y066096
X016920Y057276
X016940Y052696
X016960Y058306
X016969Y047105
X016970Y071286
X016980Y077596
X016990Y085046
X016990Y067376
X017000Y003036
X017040Y052226
X017050Y078166
X017050Y066516
X017120Y019876
X017170Y059006
X017500Y005836
X017520Y065486
X017540Y071596
X017610Y084506
X017610Y055086
X017630Y077426
X017700Y060106
X017717Y010609
X017795Y050451
X017840Y068076
X017910Y056216
X017910Y055446
X017930Y082956
X018000Y065086
X018080Y075636
X018080Y073936
X018090Y058726
X018100Y007336
X018110Y078556
X018140Y084446
X018140Y083966
X018140Y074516
X018150Y074956
X018150Y056926
X018200Y060366
X018370Y068196
X018420Y068786
X018465Y053877
X018510Y076386
X018520Y075656
X018622Y053050
X018660Y074616
X018680Y066196
X018690Y058566
X018690Y014516
X018710Y073276
X018740Y083036
X018820Y081536
X018858Y048522
X018860Y026376
X018910Y013126
X018960Y080966
X018960Y071096
X018990Y080466
X019000Y003736
X019015Y057393
X019080Y085956
X019094Y052774
X019100Y006836
X019260Y077636
X019350Y062706
X019380Y063346
X019410Y081226
X019410Y072296
X019420Y086466
X019440Y064476
X019500Y071066
X019520Y060246
X019540Y060746
X019620Y069046
X019660Y078046
X019800Y078986
X019890Y054706
X019900Y069566
X019900Y008836
X019930Y087316
X019961Y047656
X020000Y016436
X020030Y086626
X020039Y012459
X020070Y061076
X020090Y075576
X020100Y071096
X020140Y073536
X020150Y082986
X020157Y058613
X020157Y049546
X020170Y084916
X020190Y056546
X020197Y010412
X020200Y067836
X020200Y066036
X020210Y078196
X020210Y057576
X020220Y074486
X020236Y048443
X020240Y076466
X020240Y067116
X020250Y065046
X020260Y084116
X020280Y082196
X020340Y054376
X020393Y059243
X020433Y053365
X020433Y050373
X020440Y069726
X020480Y071966
X020500Y063366
X020550Y012876
X020600Y079366
X020630Y044191
X020650Y087316
X020669Y047459
X020680Y080206
X020787Y058495
X020790Y061096
X020827Y007577
X020880Y061906
X020920Y084116
X020920Y054546
X020950Y084886
X020980Y082176
X020984Y053680
X020984Y037066
X020990Y082976
X020990Y076406
X020990Y074446
X020990Y067076
X021000Y087796
X021000Y071906
X021000Y067836
X021000Y006136
X021000Y004236
X021010Y056546
X021023Y059361
X021024Y049861
X021030Y057506
X021050Y065956
X021050Y065116
X021060Y079386
X021060Y075626
X021080Y073566
X021142Y048089
X021160Y080016
X021210Y070446
X021250Y062356
X021260Y044743
X021260Y044191
X021380Y062906
X021390Y054856
X021560Y087596
X021570Y079156
X021610Y056256
X021640Y073206
X021790Y070446
X021810Y062006
X021850Y049310
X021850Y014664
X021880Y066106
X021890Y050018
X021890Y047577
X021950Y074436
X021950Y067046
X021990Y087786
X021990Y067786
X022000Y083046
X022020Y083976
X022020Y082106
X022020Y065236
X022030Y075516
X022050Y084816
X022050Y076356
X022070Y073706
X022086Y057472
X022100Y005436
X022100Y004536
X022126Y053443
X022165Y058613
X022204Y059361
X022280Y062616
X022322Y056724
X022323Y048325
X022430Y087446
X022430Y079546
X022470Y006596
X022480Y045884
X022480Y045018
X022520Y079096
X022540Y062146
X022559Y049625
X022677Y050215
X022750Y070366
X022750Y060866
X022760Y054436
X022800Y053966
X022835Y044231
X022860Y082206
X022870Y087416
X022920Y071046
X022940Y075496
X022940Y067826
X022940Y017226
X022970Y084786
X022970Y083926
X022980Y079566
X022980Y066996
X022990Y076356
X023020Y062696
X023031Y047774
X023050Y073696
X023050Y065076
X023110Y056527
X023149Y058298
X023228Y059283
X023480Y070916
X023500Y079396
X023500Y062326
X023890Y071116
X023950Y062526
X024050Y025496
X024070Y080656
X024110Y079416
X024370Y070416
X024440Y071106
X024470Y087756
X024480Y054086
X024520Y067256
X024540Y079016
X024560Y075856
X024567Y048325
X024590Y018246
X024600Y083046
X024670Y074536
X024720Y066006
X024740Y084346
X024790Y079506
X024790Y058926
X024803Y057393
X025040Y070636
X025050Y054106
X025070Y015066
X025140Y067276
X025150Y062696
X025260Y088056
X025290Y074516
X025300Y083026
X025310Y075876
X025320Y058906
X025354Y048325
X025400Y065956
X025420Y084336
X025511Y057393
X025610Y054086
X025790Y014276
X026400Y079576
X028010Y009846
X028900Y015536
X029000Y016756
X030669Y035530
X031410Y026786
T138
X007441Y054231
X008943Y012479
X009800Y013036
X010700Y024736
X010700Y023536
X011300Y007936
X011853Y016984
X012168Y008069
X012300Y017736
X014764Y052695
X014843Y053562
X015000Y018036
X015295Y051150
X015600Y017336
X016200Y024936
X016300Y021736
X017165Y048050
X017500Y008436
X017717Y049467
X018183Y014054
X018500Y009936
X018800Y011236
X019000Y013836
X019300Y024036
X019500Y010636
X021535Y052774
X021575Y045215
X021760Y054376
X022441Y052341
X025551Y049428
T136
X000600Y017436
X000600Y016436
X000600Y015436
X000600Y014436
X000600Y013436
X000600Y012436
X000600Y011436
X000600Y010436
X000600Y009436
X000600Y008436
X000600Y007436
X000600Y006436
X000600Y005436
X001600Y017436
X001600Y016436
X001600Y015436
X001600Y014436
X001600Y013436
X001600Y012436
X001600Y011436
X001600Y010436
X001600Y009436
X001600Y008436
X001600Y007436
X001600Y006436
X001600Y005436
X003350Y002066
X003350Y001066
X004350Y002066
X004350Y001066
X005350Y002066
X005350Y001066
X006350Y002066
X006350Y001066
X007350Y002066
X007350Y001066
X008350Y002066
X008350Y001066
X009350Y002066
X009350Y001066
X010350Y002066
X010350Y001066
X011350Y002066
X011350Y001066
X012350Y002066
X012350Y001066
X013000Y041336
X013000Y040336
X013000Y029336
X013000Y028336
X013350Y002066
X013350Y001066
X014000Y041336
X014000Y040336
X014000Y029336
X014000Y028336
X014350Y002066
X014350Y001066
X015000Y041336
X015000Y040336
X015000Y029336
X015000Y028336
X015350Y002066
X015350Y001066
X016000Y041336
X016000Y040336
X016000Y029336
X016000Y028336
X016350Y002066
X016350Y001066
X017000Y041336
X017000Y040336
X017000Y029336
X017000Y028336
X017350Y002066
X017350Y001066
X018000Y041336
X018000Y040336
X018000Y029336
X018000Y028336
X018350Y002066
X018350Y001066
X019000Y041336
X019000Y040336
X019000Y029336
X019000Y028336
X019350Y002066
X019350Y001066
X020000Y041336
X020000Y040336
X020000Y029336
X020000Y028336
X020350Y002066
X020350Y001066
X021000Y041336
X021000Y040336
X021000Y029336
X021000Y028336
X021350Y002066
X021350Y001066
X022000Y041336
X022000Y040336
X022000Y029336
X022000Y028336
X022350Y002066
X022350Y001066
X023000Y041336
X023000Y040336
X023000Y029336
X023000Y028336
X024000Y041336
X024000Y040336
X024000Y029336
X024000Y028336
X025000Y041336
X025000Y040336
X025000Y029336
X025000Y028336
X026000Y041336
X026000Y040336
X026000Y029336
X026000Y028336
X027000Y041336
X027000Y040336
X027000Y029336
X027000Y028336
X028000Y041336
X028000Y040336
X028000Y029336
X028000Y028336
X029000Y041336
X029000Y040336
X029000Y029336
X029000Y028336
X030000Y041336
X030000Y040336
X030000Y029336
X030000Y028336
X031000Y041336
X031000Y040336
X031000Y029336
X031000Y028336
X031700Y025336
X031700Y024336
X031700Y023336
X032000Y041336
X032000Y040336
X032000Y029336
X032000Y028336
X032700Y025336
X032700Y024336
X032700Y023336
T134
X001600Y039736
X001600Y024576
X004750Y024576
X005830Y039736
X006203Y048332
X007283Y063492
X010433Y063492
X010433Y048332
T133
X003071Y075058
X004488Y078365
X004843Y071357
X006299Y079940
X007283Y050609
X007323Y063522
X007598Y077105
X007717Y073010
X008300Y041336
X008300Y039836
X009094Y079506
X009213Y070412
X010315Y074900
X010669Y077144
X010840Y059606
X010866Y072695
X012008Y031632
X012560Y059536
X012913Y043050
X018937Y051278
X019055Y045254
X019921Y052026
X025197Y044743
X027150Y075736
X027150Y074086
X027160Y084216
X027160Y082566
X027196Y058724
X027196Y057074
X027200Y067256
X027200Y065606
X027430Y049736
X027430Y048086
X029320Y075736
X029320Y074086
X029330Y084216
X029330Y082566
X029366Y058724
X029366Y057074
X029370Y067256
X029370Y065606
X029600Y049736
X029600Y048086
T135
X005532Y074910
X005600Y045586
X005600Y043936
X005600Y042286
X007702Y074910
M30
